/* XPM */
static char *result[] = {
/* columns rows colors chars-per-pixel */
"64 64 197 2 ",
"   c #0D0C0E",
".  c #131014",
"X  c #28121C",
"o  c #1D1725",
"O  c #21172D",
"+  c #27192C",
"@  c #271B37",
"#  c #2F2C37",
"$  c #2B223A",
"%  c #2B2435",
"&  c #332C3B",
"*  c #312C37",
"=  c #36303D",
"-  c #38313E",
";  c #4E1930",
":  c #6D1C36",
">  c #2B1B47",
",  c #362A45",
"<  c #3C3544",
"1  c #3F3A48",
"2  c #3A2B5A",
"3  c #362354",
"4  c #3D3153",
"5  c #3E266B",
"6  c #413B4D",
"7  c #40374D",
"8  c #503444",
"9  c #402D59",
"0  c #423653",
"q  c #453B55",
"w  c #43345B",
"e  c #463A59",
"r  c #4B3D5D",
"t  c #4A3A66",
"y  c #49346C",
"u  c #4D3D6A",
"i  c #453366",
"p  c #513D6A",
"a  c #4C3273",
"s  c #5A3E7E",
"d  c #553978",
"f  c #45277C",
"g  c #45424E",
"h  c #4B4255",
"j  c #4F455C",
"k  c #51485C",
"l  c #53475F",
"z  c #4D4163",
"x  c #524466",
"c  c #544961",
"v  c #54446C",
"b  c #564B69",
"n  c #5B4E68",
"m  c #5E5267",
"M  c #5E536C",
"N  c #5E5C6F",
"B  c #555366",
"V  c #554571",
"C  c #5C4C73",
"Z  c #5E447C",
"A  c #5E4B7C",
"S  c #5A4073",
"D  c #5D5377",
"F  c #61556D",
"G  c #625475",
"H  c #625871",
"J  c #63537B",
"K  c #68597B",
"L  c #685C77",
"P  c #65716B",
"I  c #6A657B",
"U  c #71637E",
"Y  c #852139",
"T  c #862141",
"R  c #99324E",
"E  c #952A46",
"W  c #AA3850",
"Q  c #A14556",
"!  c #814664",
"~  c #914B67",
"^  c #935061",
"/  c #A0506A",
"(  c #8A647F",
")  c #9E6379",
"_  c #B36377",
"`  c #C55A6D",
"'  c #C96C7E",
"]  c #D56A7B",
"[  c #593B84",
"{  c #543687",
"}  c #623E9A",
"|  c #5F4384",
" . c #5E418E",
".. c #654885",
"X. c #6B4C8C",
"o. c #634586",
"O. c #6C5D83",
"+. c #6C558C",
"@. c #695789",
"#. c #6A4C95",
"$. c #6C5193",
"%. c #735D96",
"&. c #72529C",
"*. c #775A9B",
"=. c #6E6282",
"-. c #6F6A84",
";. c #726284",
":. c #746A83",
">. c #75658A",
",. c #77688C",
"<. c #7B6C8B",
"1. c #786B84",
"2. c #7C728F",
"3. c #77718D",
"4. c #766A93",
"5. c #7C6D92",
"6. c #77649B",
"7. c #796797",
"8. c #7D7090",
"9. c #734FA3",
"0. c #7653A2",
"q. c #7B55A9",
"w. c #7C59AE",
"e. c #7A59A5",
"r. c #7E6FA1",
"t. c #7F71A2",
"y. c #827394",
"u. c #827B94",
"i. c #84759A",
"p. c #857B9A",
"a. c #8A7B9C",
"s. c #8B7695",
"d. c #927891",
"f. c #977187",
"g. c #835CAF",
"h. c #8157B4",
"j. c #8359B4",
"k. c #895EBC",
"l. c #8458B9",
"z. c #8363AB",
"x. c #8864AF",
"c. c #857DA1",
"v. c #8C7FA2",
"b. c #8C65BF",
"n. c #936EBF",
"m. c #DD7C8B",
"M. c #CC7387",
"N. c #8B5CC3",
"B. c #8F60C7",
"V. c #936BC3",
"C. c #9161C9",
"Z. c #9A6DCF",
"A. c #976FCB",
"S. c #9A73C5",
"D. c #9A73C8",
"F. c #9D6FD3",
"G. c #9E72D2",
"H. c #A47CD4",
"J. c #A57BD7",
"K. c #86849D",
"L. c #8F809E",
"P. c #94A794",
"I. c #8D83A4",
"U. c #8D89A4",
"Y. c #8D85AA",
"T. c #8E89AC",
"R. c #9485A5",
"E. c #958CAC",
"W. c #9A8BAB",
"Q. c #9888A8",
"!. c #9591AD",
"~. c #9D92A9",
"^. c #9D8FB0",
"/. c #9C93B2",
"(. c #9C97BA",
"). c #9D9ABA",
"_. c #9795B0",
"`. c #A296B6",
"'. c #A298B7",
"]. c #A39BBA",
"[. c #B29BA7",
"{. c #A6A0B9",
"}. c #E08797",
"|. c #A29EC1",
" X c #A981D9",
".X c #A880D7",
"XX c #A7A2C2",
"oX c #ABA5C5",
"OX c #A9A7C8",
"+X c #ADAACB",
"@X c #A9A8C6",
"#X c #B1ADCD",
"$X c #B2B1CF",
"%X c #B4B3D3",
"&X c #B8B7D7",
"*X c #B9B9D9",
"=X c None",
/* pixels */
"=X=X=X=X=X=X=X=X=X=X=X=X=X=X=X=X=X=X=X=X=X=X=X=X=X=X=X=X=X=X=X=X=X=X=X=X=X=X=X=X=X=X=X=X=X=X=X=X=X=X=X=X=X=X=X=X=X=X=X=X=X=X=X=X",
"=X=X=X=X=X=X=X=X=X=X=X=X=X=X=X=X=X=X=X=X=X=X=X=X=X=X=X=X=X=X=X=X=X=X=X=X=X=X=X=X=X=X=X=X=X=X=X=X=X=X=X=X=X=X=X=X=X=X=X=X=X=X=X=X",
"=X=X=X=X=X=X=X=X=X=X=X=X=X=X=X=X=X=X=X=X=X=X=X=X=X=X=X=X=X=X=X=X=X=X=X=X=X=X=X=X=X=X=X=X=X=X=X=X=X=X=X=X=X=X=X=X=X=X=X=X=X=X=X=X",
"=X=X=X=X=X=X=X=X=X=X=X=X=X=X=X=X=X=X=X=X=X=X=X=X=X=X=X=X=X=X=X=X=X=X=X=X=X=X=X=X=X=X=X=X=X=X=X=X=X=X=X=X=X=X=X=X=X=X=X=X=X=X=X=X",
"=X=X=X=X=X=X=X=X=X=X=X=X=X=X=X=X=X=X=X=X=X=X=X=X=X=X=X=X=X=X=X=X=X=X=X=X=X=X=X=X=X=X=X=X=X=X=X=X=X=X=X=X=X=X=X=X=X=X=X=X=X=X=X=X",
"=X=X=X=X=X=X=X=X=X=X=X=X=X=X=X=X=X=X=X=X=X=X=X=X=X=X=X=X=X=X=X=X=X=X=X=X=X=X=X=X=X=X=X=X=X=X=X=X=X=X=X=X=X=X=X=X=X=X=X=X=X=X=X=X",
"=X=X=X=X=X=X=X=X=X=X=X=X=X=X=X=X=X=X=X=X=X=X=X=X=X=X=X=X=X=X=X=X=X=X=X=X=X=X=X=X=X=X=X=X=X=X=X=X=X=X=X=X=X=X=X=X=X=X=X=X=X=X=X=X",
"=X=X=X=X=X=X=X=X=X=X=X=X=X=X=X=X=X=X=X=X=X=X=X=X=X=X=X=X=X=X=X=X=X=X=X=X=X=X=X=X=X=X=X=X=X=X=X=X=X=X=X=X=X=X=X=X=X=X=X=X=X=X=X=X",
"=X=X=X=X=X=X=X=X=X=X=X=X=X=X=X=X=X=X=X=X=X=X=X=X=X=X=X=X=X=X=X=X=X=X=X=X=X=X=X=X=X=X=X=X=X=X=X=X=X=X=X=X=X=X=X=X=X=X=X=X=X=X=X=X",
"=X=X=X=X=X=X=X=X=X=X=X=X=X=X=X=X=X=X=X=X=X=X=X=X=X=X=X=X=X=X=X=X=X=X=X=X=X=X=X=X=X=X=X=X=X=X=X=X=X=X=X=X=X=X=X=X=X=X=X=X=X=X=X=X",
"=X=X=X=X=X=X=X=X=X=X=X=X=X=X=X=X=X=X=X=X=X=X=X=X=X=X=X=X=X=X=X=X=X=X=X=X=X=X=X=X=X=X=X=X=X=X=X=X=X=X=X=X=X=X=X=X=X=X=X=X=X=X=X=X",
"=X=X=X=X=X=X=X=X=X=X=X=X=Xy.=X=X=X=X=X=X=X=X=X=X=X=X=X=X=X=X=X=X=X=X=X=X=X=X=X=X=X=X=X=X=X=X=X=X=X=X=X=X=X=X=X=X=X=X=X=X=X=X=X=X",
"=X=X=X=X=X=X=X=X=X=X=X=X=X4.c.a.=X=X=X=X=X=X=X=X=X=X=X=X=X=X=X=X=X=X=X=X=X=X=X=X=X=X=X=X=X=X=X=X=X=X=X=X=X=X=X=X=X=X=X=X=X=X=X=X",
"=X=X=X=X=X=X=X=X=X=X=X=X=X..$.t./.=X=X=X=X=X=X=X=X=X=X=X=X=X=X=X=X=X=X=X=X=X=X=X=X=X=X=X=X=X=X'.].].E.p.=X=X=X=X=X=X=X=X=X=X=X=X",
"=X=X=X=X=X=X=X=X=X=X=X=X=X=Xw.h.6.E.=X=X=X=X=X=X=X=X=X=X=X=X=X=X=X=X=X=X=X=X=X=X=X=X=X`.].|.E.r.%.%.@.A =X=X=X=X=X=X=X=X=X=X=X=X",
"=X=X=X=X=X=X=X=X=X=X=X=X=X=X=Xk.h.4.a.=X=X=X=X=X=X=X=X=X=X=X=X=X=X=X=X=X=X=X=X=X=X`.XX(.5.r.9.l.N.} f =X=X=X=X=X=X=X=X=X=X=X=X=X",
"=X=X=X=X=X=X=X=X=X=X=X=X=X=X=Xj.C.&.8.;.=X=X=X=X=X=X=X=X=X=X=X=X=X=X=X=X=X=X=X=X).(.t.0.l.N.C.N.} =X=X=X=X=X=X=X=X=X=X=X=X=X=X=X",
"=X=X=X=X=X=X=X=X=X=X=X=X=X=X=Xj.Z.q.D O.=X=X=X=X=X=X=X=X=X=X=X=X=X=X=X=X=X=X=XR.v.e.l.C.C.N.N.d =X=X=X=X=X=X=X=X=X=X=X=X=X=X=X=X",
"=X=X=X=X=X=X=X=X=X=X=X=X=X=X=X*.H.*.0 /.,.u =X=X=X=X=X=X=X=X=X=X=X=X=X=X=X=XI.I.&.N.C.N.C.J.0.=X=X=X=X=X=X=X=X=X=X=X=X=X=X=X=X=X",
"=X=X=X=X=X=X=X=X=X=X=X=X=X=X=X*.D.V.@.U :.p.=X=X=X=X=X=X=X=X=X=X=X=X=X].N l i.7.l.C.C.G.J.G.a =X=X=X=X=X=X=X=X=X=X=X=X=X=X=X=X=X",
"=X=X=X=X=X=X=X=X=X=X=X=X=X=X=X=Xx.G u.>.e B =X=X=X=X=X=X=X=X=X=X=X=X=XN c.q H ..C.C.Z.J. Xe.=X=X=X=X=X=X=X=X=X=X=X=X=X=X=X=X=X=X",
"=X=X=X=X=X=X=X=X=X=X=X=X=X=X=X=Xx.%.A x O.* =X=X=X=X=X=X=X=X=X=X=X=X@.4 1.j U.A N.G. X XH.a =X=X=X=X=X=X=X=X=X=X=X=X=X=X=X=X=X=X",
"=X=X=X=X=X=X=X=X=X=X=X=X=X=X=X=Xn.H.H.V.@.< =X=X=X=X=X=X=X=X=X=X=X=X=.5.R.p.D 0.Z.J. X XS.O =X=X=X=X=X=X=X=X=X=X=X=X=X=X=X=X=X=X",
"=X=X=X=X=X=X=X=X=X=X=X=X=X=X=Xz.z.%.D.k.+.G =X=X=X=X=X=X=X=X=X=X=X=X=XV I.i.0.C.H. X X X#.=X=X=X=X=X=X=X=X=X=X=X=X=X=X=X=X=X=X=X",
"=X=X=X=X=X=X=X=X=X=X=X=X=X=X=XS.z.p.e.0.H 7 =X=Xg D =X=X=X=X=X=X=X=X=X=XE.+.N.Z. X.X X Xv =X=X=X=X=X=X=X=X=X=X=X=X=X=X=X=X=X=X=X",
"=X=X=X=X=X=X=X=X=X=X=X=X=X=Xz.J.z.(.r.#.G =X=X6 _.4.=X=X=X=X=X=X=X=X=XI.T.9.C.J..X X.X Xp =X=X=X=X=X=X=X=X=X=X=X=X=X=X=X=X=X=X=X",
"=X=X=X=X=X=X=X=X=X=X=X=X=X#.D.H.e.).|.4 C t A ].|.V =X=X=X=X=X=X=X=X=XE.I.o.F. X X.X X Xp =X=X=X=X=X=X=X=X=X=X=X=X=X=X=X=X=X=X=X",
"=X=X=X=X=X=X=X=X=X=X=X=X=X{ &.e.u K.OXU.3.h i.].4.=X=X=X=X=X=X=X=X=X=X_.6.h.G. X X X X X#.=X=X=X=X=X=X=X=X=X=X=X=X=X=X=X=X=X=X=X",
"=X=X=X=X=X=X=X=X=X=X=X=X=X=X5 [ b _.&X*X$X%X].i.b =X=X=X=X=X=X=X=X=X8.@XC B. X X X X X XV.O =X=X=X=X=X=X=X=X=X=X=X=X=X=X=X=X=X=X",
"=X=X=X=X=X=X=X=X=X=X=X=X=X=X=X2 ).*X&X%XOX(.'.y.=X=X=X=X=X=X=X=X=X=XI.).| B.V.w.w.j.j.A.H. .=X=X=X=X=X=X=X=X=X=X=X=X=X=X=X=X=X=X",
"=X=X=X=X=X=X=X=X=X=X=X=X=X=X=X=X_.*XXX|.'.~.R.R.v =X=X=X=X=X=X=X=X=XXX-.{ [ [ | [ [ a i y 2 =X=X=X=X=X=X=X=X=X=X=X=X=X=X=X=X=X=X",
"=X=X=X=X=X=X=X=X=X=X=X=X=X=XI.C Y.*Xc.:.P.~.R.R.h z =X=Xu =X=X=X=X).E.r Z #.| Z a , =X=X=X=X=X=X=X=X=X=X=X=X=X=X=X=X=X=X=X=X=X=X",
"=X=X=X=X=X=X=X=X=X=X=X=X=XE.$XOX$X*XY.F P a.R.5.1., V >.a.b =X=Xu.5.v d p X.> =X=X=X=X=X=X=X=X=X=X=X=X=X=X=X=X=X=X=X=X=X=X=X=X=X",
"=X=X=X=X=X=X=X=X=X=X=X=Xo 2.+XI.].#XW.1.F & % <.U M 5.5.R.D T.U.b X.S @ =X=X=X=X=X=X=X=X=X=X=X=X=X=X=X=X=X=X=X=X=X=X=X=X=X=X=X=X",
"=X=X=X=X=X=X=X=X=X=X=X=X=Xb a.R.|.:.8 ; ; 2 $ 1.k L.`.].XX|.$Xk o.Z O =X=X=X=X=X=X=X=X=X=X=X=X=X=X=X=X=X=X=X=X=X=X=X=X=X=X=X=X=X",
"=X=X=X=X=X=X=X=X=X=X=X=X=Xv a.Q.h X Y T : @ e H l W.oX*X*X*X!.w X.3 =X=X=X=X=X=X=X=X=X=X=X=X=X=X=X=X=X=X=X=X=X=X=X=X=X=X=X=X=X=X",
"=X=X=X=X=X=X=X=X=X=X=X=X=X=XA F =X=XE W R : m C 0 U.*X*X*X*X).Z [ =X=X=X=X=X=X=X=X=X=X=X=X=X=X=X=X=X=X=X=X=X=X=X=X=X=X=X=X=X=X=X",
"=X=X=X=X=X=X=X=X=X=X=X=X=X=X=X=X=X! ` m.] ~ ,.=X=XI &X&X&X*X&XY.A t =X=X=X=X=X=X=X=X=X=X=X=X=X=X=X=X=X=X=X=X=X=X=X=X=X=X=X=X=X=X",
"=X=X=X=X=X=X=X=X=X=X=X=X=X=X=X=X=X) m.}.` ( =.=Xq p.XXOX&X&X*X%XQ.O.i =X=X=X=X=X=X=X<.i.i.y.=X=X=X=X=X=X=X=X=X=X=X=X=X=X=X=X=X=X",
"=X=X=X=X=X=X=X=X=X=X=X=X=X=X=Xu.d.' M._ / a.z =X# ].oX$X*X&X*X#XE.y.V v =X=Xu V y.L.R.W.Q.R.a.;.& =X=X=X=X=X=X=X=X=X=X=X=X=X=X=X",
"=X=X=X=X=X=X=X=X=X=X=X=X=X=X=X{.f.Q ^ [.d.2.. =Xz OX*X&X&X*X&X`.Q.O.J U G A K a.W.Q.R.i.>.J O.a.u.V % < =X=X=X=X=X=X=X=X=X=X=X=X",
"=X=X=X=X=X=X=X=X=X=X=X=X=X=X=X7 y.L I W.`.;.=X=X=XI +X&X&X#X].W.v.y.>.c U =.;.s.R.y.K =X=X=X=Xu ;.5.>.H =X=X=X=X=X=X=X=X=X=X=X=X",
"=X=X=X=X=X=X=X=X=X=X=X=X=X=X=X=XU W.^.W.1.< =X=Xp G 1.W.^.W.Q.W.Q.Q.R.q n =.n h v =X=X=X=X=X=X=X=X;.8.i.% =X=X=X=X=X=X=X=X=X=X=X",
"=X=X=X=X=X=X=X=X=X=X=X=X=X=X=X=X=X7 = = =X=X=X=X>.Q.y.K ,.i.;.O.Q.Q.W.K $ v 4 =X=X=X=X=X=X=X=X=XC ,.s.;.q =X=X=X=X=X=X=X=X=X=X=X",
"=X=X=X=X=X=X=X=X=X=X=X=X=X=X=X=X=X=X=X=X=X=X=X=X1.^.Q.:.v i =X=X6 y.a.;.0 =X=X=X=X=X=X=X=X=X=X=X=Xu V G l =X=X=X=X=X=X=X=X=X=X=X",
"=X=X=X=X=X=X=X=X=X=X=X=X=X=X=X=X=X=X=X=X=X=X=X=X= m G A =X=X=X=X=X+ r U K u =X=X=X=X=X=X=X=X=X=X=X=X=X=Xw =X=X=X=X=X=X=X=X=X=X=X",
"=X=X=X=X=X=X=X=X=X=X=X=X=X=X=X=X=X=X=X=X=X=X=X=X=X0 q C r =X=X=X=X=XC D C C =X=X=X=X=X=X=X=X=X=X=X=X=X=X=X=X=X=X=X=X=X=X=X=X=X=X",
"=X=X=X=X=X=X=X=X=X=X=X=X=X=X=X=X=X=X=X=X=X=X=X=X=XJ w 6 < =X=X=X=X=X, C t K % =X=X=X=X=X=X=X=X=X=X=X=X=X=X=X=X=X=X=X=X=X=X=X=X=X",
"=X=X=X=X=X=X=X=X=X=X=X=X=X=X=X=X=X=X=X=X=X=X=X=X=X=X=X=X  =X=X=X=X=X=X& =X-   =X=X=X=X=X=X=X=X=X=X=X=X=X=X=X=X=X=X=X=X=X=X=X=X=X",
"=X=X=X=X=X=X=X=X=X=X=X=X=X=X=X=X=X=X=X=X=X=X=X=X=X=X=X=X=X=X=X=X=X=X=X=X=X=X=X=X=X=X=X=X=X=X=X=X=X=X=X=X=X=X=X=X=X=X=X=X=X=X=X=X",
"=X=X=X=X=X=X=X=X=X=X=X=X=X=X=X=X=X=X=X=X=X=X=X=X=X=X=X=X=X=X=X=X=X=X=X=X=X=X=X=X=X=X=X=X=X=X=X=X=X=X=X=X=X=X=X=X=X=X=X=X=X=X=X=X",
"=X=X=X=X=X=X=X=X=X=X=X=X=X=X=X=X=X=X=X=X=X=X=X=X=X=X=X=X=X=X=X=X=X=X=X=X=X=X=X=X=X=X=X=X=X=X=X=X=X=X=X=X=X=X=X=X=X=X=X=X=X=X=X=X",
"=X=X=X=X=X=X=X=X=X=X=X=X=X=X=X=X=X=X=X=X=X=X=X=X=X=X=X=X=X=X=X=X=X=X=X=X=X=X=X=X=X=X=X=X=X=X=X=X=X=X=X=X=X=X=X=X=X=X=X=X=X=X=X=X",
"=X=X=X=X=X=X=X=X=X=X=X=X=X=X=X=X=X=X=X=X=X=X=X=X=X=X=X=X=X=X=X=X=X=X=X=X=X=X=X=X=X=X=X=X=X=X=X=X=X=X=X=X=X=X=X=X=X=X=X=X=X=X=X=X",
"=X=X=X=X=X=X=X=X=X=X=X=X=X=X=X=X=X=X=X=X=X=X=X=X=X=X=X=X=X=X=X=X=X=X=X=X=X=X=X=X=X=X=X=X=X=X=X=X=X=X=X=X=X=X=X=X=X=X=X=X=X=X=X=X",
"=X=X=X=X=X=X=X=X=X=X=X=X=X=X=X=X=X=X=X=X=X=X=X=X=X=X=X=X=X=X=X=X=X=X=X=X=X=X=X=X=X=X=X=X=X=X=X=X=X=X=X=X=X=X=X=X=X=X=X=X=X=X=X=X",
"=X=X=X=X=X=X=X=X=X=X=X=X=X=X=X=X=X=X=X=X=X=X=X=X=X=X=X=X=X=X=X=X=X=X=X=X=X=X=X=X=X=X=X=X=X=X=X=X=X=X=X=X=X=X=X=X=X=X=X=X=X=X=X=X",
"=X=X=X=X=X=X=X=X=X=X=X=X=X=X=X=X=X=X=X=X=X=X=X=X=X=X=X=X=X=X=X=X=X=X=X=X=X=X=X=X=X=X=X=X=X=X=X=X=X=X=X=X=X=X=X=X=X=X=X=X=X=X=X=X",
"=X=X=X=X=X=X=X=X=X=X=X=X=X=X=X=X=X=X=X=X=X=X=X=X=X=X=X=X=X=X=X=X=X=X=X=X=X=X=X=X=X=X=X=X=X=X=X=X=X=X=X=X=X=X=X=X=X=X=X=X=X=X=X=X",
"=X=X=X=X=X=X=X=X=X=X=X=X=X=X=X=X=X=X=X=X=X=X=X=X=X=X=X=X=X=X=X=X=X=X=X=X=X=X=X=X=X=X=X=X=X=X=X=X=X=X=X=X=X=X=X=X=X=X=X=X=X=X=X=X",
"=X=X=X=X=X=X=X=X=X=X=X=X=X=X=X=X=X=X=X=X=X=X=X=X=X=X=X=X=X=X=X=X=X=X=X=X=X=X=X=X=X=X=X=X=X=X=X=X=X=X=X=X=X=X=X=X=X=X=X=X=X=X=X=X",
"=X=X=X=X=X=X=X=X=X=X=X=X=X=X=X=X=X=X=X=X=X=X=X=X=X=X=X=X=X=X=X=X=X=X=X=X=X=X=X=X=X=X=X=X=X=X=X=X=X=X=X=X=X=X=X=X=X=X=X=X=X=X=X=X",
"=X=X=X=X=X=X=X=X=X=X=X=X=X=X=X=X=X=X=X=X=X=X=X=X=X=X=X=X=X=X=X=X=X=X=X=X=X=X=X=X=X=X=X=X=X=X=X=X=X=X=X=X=X=X=X=X=X=X=X=X=X=X=X=X",
"=X=X=X=X=X=X=X=X=X=X=X=X=X=X=X=X=X=X=X=X=X=X=X=X=X=X=X=X=X=X=X=X=X=X=X=X=X=X=X=X=X=X=X=X=X=X=X=X=X=X=X=X=X=X=X=X=X=X=X=X=X=X=X=X"
};
