/* XPM */
static char *result[] = {
/* columns rows colors chars-per-pixel */
"64 64 207 2 ",
"   c #000001",
".  c #05040A",
"X  c #080709",
"o  c #0B090C",
"O  c #0E0C12",
"+  c #110E15",
"@  c #170D19",
"#  c #131115",
"$  c #1A191E",
"%  c #17151A",
"&  c #260F1F",
"*  c #22171F",
"=  c #3D141F",
"-  c #1F1C23",
";  c #1B1527",
":  c #13082D",
">  c #20192E",
",  c #241C34",
"<  c #271E38",
"1  c #1F2025",
"2  c #26222B",
"3  c #2B272F",
"4  c #292332",
"5  c #2E2B34",
"6  c #2C253B",
"7  c #312C37",
"8  c #332D3B",
"9  c #30273E",
"0  c #36303C",
"q  c #451A2A",
"w  c #591329",
"e  c #721C38",
"r  c #5C393D",
"t  c #44783D",
"y  c #2A1A4B",
"u  c #332A44",
"i  c #392E4B",
"p  c #352A48",
"a  c #363441",
"s  c #3A3442",
"d  c #3A3744",
"f  c #3D2D5D",
"g  c #382B54",
"h  c #3D3255",
"j  c #351D6B",
"k  c #381F6D",
"l  c #321A65",
"z  c #39206E",
"x  c #3E2470",
"c  c #41374C",
"v  c #433D4B",
"b  c #41345B",
"n  c #463A5B",
"m  c #453B54",
"M  c #4E2A4D",
"N  c #7D2243",
"B  c #433363",
"V  c #4A3664",
"C  c #473964",
"Z  c #4B3B66",
"A  c #4C3B6B",
"S  c #523A6A",
"D  c #54387A",
"F  c #462F70",
"G  c #42424D",
"H  c #4C4455",
"J  c #4A4556",
"K  c #514759",
"L  c #52495A",
"P  c #4D664E",
"I  c #4F406B",
"U  c #4E4166",
"Y  c #544B63",
"T  c #594E65",
"R  c #52426D",
"E  c #544A68",
"W  c #545563",
"Q  c #5B5265",
"!  c #5D5D6D",
"~  c #5E5469",
"^  c #544472",
"/  c #5B4176",
"(  c #5B4B74",
")  c #5D427A",
"_  c #5C4D7A",
"`  c #5F5371",
"'  c #61576A",
"]  c #63596E",
"[  c #715F6F",
"{  c #655973",
"}  c #695E74",
"|  c #64557C",
" . c #6C5C7E",
".. c #625879",
"X. c #725376",
"o. c #61457D",
"O. c #6A6B7C",
"+. c #696178",
"@. c #72667E",
"#. c #75707E",
"$. c #892338",
"%. c #822142",
"&. c #8A2544",
"*. c #8B2A48",
"=. c #9A2B45",
"-. c #B0354A",
";. c #95435D",
":. c #BC4457",
">. c #905571",
",. c #AD5D72",
"<. c #B16B7E",
"1. c #A8677A",
"2. c #C94657",
"3. c #C8576A",
"4. c #DA6A7A",
"5. c #C56E7E",
"6. c #5C3E83",
"7. c #554780",
"8. c #674A89",
"9. c #6D4E8E",
"0. c #644884",
"q. c #645483",
"w. c #645982",
"e. c #6C5C83",
"r. c #6A5E8A",
"t. c #695089",
"y. c #6F4F90",
"u. c #704E90",
"i. c #715191",
"p. c #7C5F9C",
"a. c #6F6085",
"s. c #6D628C",
"d. c #6D6E80",
"f. c #746484",
"g. c #756881",
"h. c #796B87",
"j. c #74658B",
"k. c #766A8A",
"l. c #7B6B8C",
"z. c #78678B",
"x. c #74768A",
"c. c #797A8E",
"v. c #7B7089",
"b. c #746B94",
"n. c #7D6D92",
"m. c #786F98",
"M. c #7B729A",
"N. c #7D7793",
"B. c #816F88",
"V. c #88748E",
"C. c #837494",
"Z. c #857994",
"A. c #85769A",
"S. c #827B9C",
"D. c #8C7D9D",
"F. c #8E7897",
"G. c #9C7090",
"H. c #906B88",
"J. c #857DA4",
"K. c #8E7EA0",
"L. c #907FA5",
"P. c #8F7BB0",
"I. c #D87787",
"U. c #CB6D83",
"Y. c #E57A8A",
"T. c #8F819E",
"R. c #88849A",
"E. c #988499",
"W. c #949D96",
"Q. c #8E83A4",
"!. c #8C84AA",
"~. c #8B86A7",
"^. c #9484A4",
"/. c #958AA7",
"(. c #9586A9",
"). c #9989A9",
"_. c #948BAA",
"`. c #9C91AE",
"'. c #9694AE",
"]. c #958FB4",
"[. c #9B8FB0",
"{. c #9591B4",
"}. c #9D92B2",
"|. c #9995BA",
" X c #9C9AB8",
".X c #A195B5",
"XX c #A49BBB",
"oX c #A89ABC",
"OX c #B1B8B6",
"+X c #E18A9A",
"@X c #E08797",
"#X c #E6909F",
"$X c #A09CC0",
"%X c #A6A3C4",
"&X c #A9A3C4",
"*X c #ADABCB",
"=X c #A9A8C7",
"-X c #B1ADCD",
";X c #B0AFD0",
":X c #B5B4D4",
">X c #B8B7D7",
",X c #B9B9D9",
"<X c #B8B8D7",
"1X c #D2CED9",
"2X c #C1C3E2",
"3X c #E8EBE8",
"4X c None",
/* pixels */
"4X4X4X4X4X4X4XC A 4X4X4X4X4X4X4X4X4X4X4X4X4X4X4X4X4X4X4X4X4X4X4X4X4X4X4X4X4X4X4X4X4X4X4X4X4X4X4X4X4X4X4X4X4X4X4X4X4X4X4X4X4X4X4X",
"4X4X4X4X4X4X4XM.M.4X4X4X4X4X4X4X4X4X4X4X6 B 4X4X4X4X4X4X4X4X4X4X4X4X4X4X4X4X4X4X4X4X4X4X4X4X4X4X4X4X4X4X4X4X4X4X4X4X4X4X4X4X4X4X",
"4X4X4X4X4X4X4Xm.!.^ 4X4X4X4X4X4X4X4X4XW {.f 4X4X4X4X4X4X4X4X4X4X4X4X4X4X4X4X4X4X4X4X4X4X4X4X4X4X4X4X4X4X4X4X4X4X4X4X4X4X4X4X4X4X",
"4X4X4X4X4X4X4Xm.2Xs.4X4X4X4X4X4X4X4XW ,X!.f 4X4X4X4X4X4X4X4X4X4X4X4X4X4X4X4X4X4X4X4X4X4X4X4X4X4X4X4X4X4X4X4X4X4X4X4X4X4X4X4X4X4X",
"4X4X4X4X4X4X4Xm.2X!._ 4X4X4X4X4X4X! ,X%X .4X4X4X4X4X4X4X4X4X4X4X4X4X4X4X4X4X4X4X4X4X4X4X4X4X4X4X4X4X4X4X4X4X4X4X4X4X4X4X4X4X4X4X",
"4X4X4X4X4X4X4Xm.,X2XE . y  .A B j.2X:X(.f 4X4X4X4X4X4X4X4X4X4X4X4X4X4X4X4X4X4X4X4X4X4X4X4X4X4X4X4X4X4X4X4X4X4X4X4X4X4X4X4X4X4X4X",
"4X4X4X4X4X4X4X+.:X-XR.O.S.s ; e._.$X&X_ 4X4X4X4X4X4X4X4X4X4X4X4X4X4X4X4X4X4X4X4X4X4X4X4X4X4X4X4X4X4X4X4X4X4X4X4X4X4X4X4X4X4X4X4X",
"4X4X4X4X4X4X4Xs  X:X,X2X&XR.N./.).).^.f 4X4X4X4X4X4X4X4X4X4X4X4X4X4X4X4X4X4X4X4X4X4X4X4X4X4X4X4X4X4X4X4X4X4X4X4X4X4X4X4X4X4X4X4X",
"4X4X4X4X4X4XG  X*X,X<X,X-X,X,X-X).K.^ 4X4X4X4X4X4X4X4X4X4X4X4X4X4X4X4X4X4X4X4X4X4X4X4X4X4X4X4X4X4X4X4X4X4X4X4X4X4X4X4X4X4X4X4X4X",
"4X4X4X4X4X_ *X,X,X,X<X<X,X:X:X:X).D.B 4X4X4X4X4X4X4X4X4X4X4X4X4X4X4X4X4X4X4X4X4X4X4X4X4X4X4X4X4X4X4X4X4X4X4X4X4X4X4X4X4X4X4X4X4X",
"4X4X4X4X4Xv ,X,X,X<XXX-X;Xa.k.).).D.| B 4X4X4X4X4X4X4X4X4X4X4X4X4X4X4X4X4X4X4X4X4X4X4X4X4X4X4X4X4X4X4X4X4X4X4X4X4X4X4X4X4X4X4X4X",
"4X4X4X4X4Xa %X,X,XXX&X*Xb.1X`.(.).).C.g 4X4X4X4X4X4X4X4X4X4X4X4X4X4X4X4X4X4X4X4X4X4X4X4X4X4X4X4X4X4X4X4X4X4X4X4X4X4X4X4X4X4X4X4X",
"4X4X4X4X4X4XQ.,X,XQ.~.b.OX3XC.^.).).h.  4X4X4X4X4X4X4X4X4X4X4X4X4X4X4X4X4X4X4X4X4X4X4X4X4X4X4X4X4X4X4X4X4X4X4X4X4X4X4X4X4X4X4X4X",
"4X4X.X(.w.s.}.,X,XD.B #.t W.Z.^.).K.Z.2 4X4X4X4X4X4X4X4X4X4X4X4X4X4X4X4X4X4X4X4X4X4X4X4X4X4X4X4X4X4X4X4X4X4X4X4X4X4X4X4X4X4X4X4X",
"4XQ.,X,X,X,X,X,X,X!.j.m P h.^.).^.f.).g.  4X4X4X4X4X4X4X4X4X4X4X4X4X4X4X4X4X4X4X4X4X4X4X4X4X4X4X4X4X4X4X4X4X4X4X4X4X4X4X4X4X4X4X",
"A k.,X,X,X,X,X<X<X2X-X.X).}.).)./.| ).@.  4X4X_ ( 4X4X4X4X4X4X4X4X4X4X4X4X4X4X4X4X4X4X4X4X4X4X4X4X4X4X4X4X4X4X4X4X4X4X4X4X4X4X4X",
", k.,X,X%XM.XX,X-XoX.X).).L c c m j.).#.o 4X4Xe.F.( 4X4X4X4X4X4X4X4X4X4X4X4X4X4X4X4X4X4X4X4X4X4X4X4X4X4X4X4X4X4X4X4X4X4X4X4X4X4X",
"o Z._.%Xs.M.&X-X}.).T 8 0 6 , > o ).Z.0 m Z j.A.).j.4 4X4X4X4X4X4X4X4X4X4X4X4X4X4X4X4X4X4X4X4X4X4X4X4X4X4X4X4X4X4X4X4X4X4X4X4X4X",
"4X8 z.^.z.:X-X}.~ 2 q w w b B f @ ^.h.> D. .e.).).).5 4X4X4X4X4X4X4X4X4X4X4X4X4X4X4X4X4X4X4X4X4X4X4X4X4X4X4X4X4X4X4X4X4X4X4X4X4X",
"4Xh D.)./..X+.$ q $.$.%.%.& g b b V.7 v.).^.C.z.D.j.; 4X4X4X4X4X4X4X4X4X4X4X4X4X4X4X4X4X4X4X4X4X4X4X4X4X4X4X4X4X4X4X4X4X4X4X4X4X",
"4X4X( ^.).} o 4X4X*.%.%.$.e @ + A.v.2 ).)..X:X*X;X*X%Xd o {.,X,X,X>X4X4X4X4X4X4X4X4X4X4X4Xf.f.f.f.f.| V C 4X4X4X4X4X4X4X4X4X4X4X",
"4X4X4X( D.Q   4X4XN -.=.*.$.e > F.^ C.).).oX,X,X,X,X,X'.{.:X,X>X<X,X,X4X4X4X4X4X4X4X4X4X4X^.^.^.^./.^.L.n.p O @ 4X4X+ . 4X4X4X4X",
"4X4X4X4XX X 4X4XN -.I.3.I.2.N F.C.B | ).XX<X:X,X,X>X,X:Xr.%X,X,X,X,X,X4X4X4X4X4X4Xk.f.z.f.^.).).).(.F.K.).^.^.s._ + T s 4X4X4X4X",
"4X4X4X4X4X4X4Xw.-.4.@X+X#X-.X.K.A S N.:X,X,X,X,X>X,X,X.Xe.{.:X>X,X:X:X4X4X4X4X4X4XF.).).).).).)./.l.B ^ ^.C.C.C.K.j.R A.w.4X4X4X",
"4X4X4X4X4X4X4Xl.5.4.#X@XI.*.E.^.A ) 1 ,X<X,X,X<X,X<X,X&X).J %X,X:X,X%XA 4X4Xx n Z l.).).)./.n.n.j.B 4X4X4XB b f | A.D.D.).$ 4X4X",
"4X4X4X4X4X4XR.>.,.#X5.I.:.U.| N.A D J XX,X;X*X,X<X,X,X:XoXK ~.:X,X,X*Xb.I R R ..z.^.).).).).R f f 4X4X4X4X4X4X4X| f.f. .C.9 4X4X",
"4X4X4X4XZ.E.V.I.Y.U.<.,.&.E.).v ; u }.N.:XoX*X,X,X,X,X,X<X.Xi *X,X,X,X$XR f.@. .F.).).).j.e.4X4X4X4X4X4X4X4X4X^ l.^.D.f. .(  .4X",
"4X4X4X4Xl.Z.X.M r = [ H.G.f.D.o : $ -XXX:X*X,X,X,X:X,X<X<X`.' M.:X,X,X;XA.| @. .l.Q { 4X4X4X4X4X4X4X4X4X4X4X4X4X4X4Xa.e.4X( R < ",
"4X4X4X4X4Xc ^.k.x.x._.`.XX).| V j h <X,X<X,X:X,X,X:X,X,X&X)./.9 *X>X,X,X|.( a.f.m o 4X4X4X4X4X4X4X4X4X4X4X4X4X4X4X4X4X4X4X4X4X4X",
"4X4X4X4X4X8 ).}.oXoXoX)././., 0.z 4Xb.,X<X<X,X,X,X,X,X,X.X/.^.% *X,X,X,X|.A Z A i 4X4X4X4X4X4X4X4X4X4X4X4X4X4X4X4X4X4X4X4X4X4X4X",
"4X4X4X4X4X4XH ).T.^.T.^.( 4 S 8.z 4X4 ).XX:X,X<X,X:X<XoX).^.^.- =X,X,X,X:XJ.V 4X4X4X4X4X4X4X4X4X4X4X4X4X4X4X4X4X4X4X4X4X4X4X4X4X",
"4X4X4X4X4X4X4Xu # # # $ O S y.9.z I +.8 ).`.).&X:X%X).).)./.l.V.w.:X,X,X,X].^ 4X4X4X4X4X4X4X4X4X4X4X4X4X4X4X4X4X4X4X4X4X4X4X4X4X",
"4X4X4X4X4X4X4X4X4X4X  c.5 D 9.8.S ^.F.R z.D.^.).).).).(.).)./.D.- ;X,X<X,X,X!.4X4X4X4X4X4X4X4X4X4X4X4X4X4X4X4X4X4X4X4X4X4X4X4X4X",
"4X4X4X4X4X4X4X4X4X4X- x.0 ) 9.A ^.)./.T.| V | ^.).^.D.(.).).).A.a :X,X<X<X,X]._ 4X4X4X4X4X4X4X4X4X4X4X4X4X4X4X4X4X4X4X4X4X4X4X4X",
"4X4X4X4X4X4X4X4X4X  c.a S i.9.A ^.).).).T.f.( _ A.a.V ` D.).(._ ;X,X,X<X,X,X,XJ.4X4X4X4X4X4X4X4X4X4X4X4X4X4X4X4X4X4X4X4X4X4X4X4X",
"4X4X4X4X4X4X4X4X4X7 N.K / i.9.F { ).).^.j. .R f B f B + L ] K._ ;X,X*X=X;X,X,X|.q.4X4X4X4X4X4X4X4X4X4X4X4X4X4X4X4X4X4X4X4X4X4X4X",
"4X4X4X4X4X4X4X4X  O.!.i.i.y.y.j O Y L Y ( { f 4X4X4X4X4X4X  a.J.:XoX^.^.}.&X&X-X Xs.4X4X4X4X4X4X4X4X4X4X4X4X4X4X4X4X4X4X4X4X4X4X",
"4X4X4X4X4X4X4X4X  O.P.u.i.y.D j 4X; 8 d | ( f 4X4X4X4X4X4X4X^ ;X:X).).).)./.)..XN.E 4X4X4X4X4X4X4X4X4X4X4X4X4X4X4X4X4X4X4X4X4X4X",
"4X4X4X4X4X4X4X4XJ J.p.u.i.D 4X4X4XV a.n 9 z.Y 4X4X4X4X4X4X4X/ *X:X).).).).).).A.m 4X4X4X4X4X4X4X4X4X4X4X4X4X4X4X4X4X4X4X4X4X4X4X",
"4X4X4X4X4X4X4XJ ! 4 S i.i.z 4X4X4XS l.f X K T   4XA ^ 4X4X4X^ *XoX).^.).).).).T 4X4X4X4X4X4X4X4X4X4X4X4X4X4X4X4X4X4X4X4X4X4X4X4X",
"4X4X4X4X4X^ , W =X~.a.0.i.z 4X4X4X4X^ B 4X% # ; J.b.A ^ 4X^ |.;X).).)./.).).C.V 4X4X4X4X4X4X4X4X4X4X4X4X4X4X4X4X4X4X4X4X4X4X4X4X",
"4X4X4X4X4Xs [.! d.,Xb.0.i.8.z 4X4X4X4X4X4X4X4Xb ^ !.=X%Xs.].,X:X).).).).).).~ . 4X4X4X4X4X4X4X4X4X4X4X4X4X4X4X4X4X4X4X4X4X4X4X4X",
"4X4X4X4X4X4XQ.e.6 m t.y.i.i.z 4X4X4X4X4X4X4X4X4XA ~.`._.%Xb.%X}.).).).^.).).T 4X4X4X4X4X4X4X4X4X4X4X4X4X4X4X4X4X4X4X4X4X4X4X4X4X",
"4X4X4X4X4X4Xo u n.^.w.8.i.y.z 4X4X4X4X4X4X4X4X4X4X; o ] (.&X.X).).^.).).).l.n 4X4X4X4X4X4X4X4X4X4X4X4X4X4X4X4X4X4X4X4X4X4X4X4X4X",
"4X4X4X4X4X4X4X| *XQ.8.i.i.9.z 4X4X4X4X4X4X4X4X4Xq.w.4X$ h.).&X).^.).).^.).'   4X4X4X4X4X4X4X4X4X4X4X4X4X4X4X4X4X4X4X4X4X4X4X4X4X",
"4X4X4X4X4X4X4X0 /.>X..) i.y.z 4X4X4X4X4X4X4X4X4X!.2X~ g.).).).).).).).).).'   4X4X4X4X4X4X4X4X4X4X4X4X4X4X4X4X4X4X4X4X4X4X4X4X4X",
"4X4X4X4X4X4X4X4X0 ] $ V i.i.z 4X4X4X4X4X4X4X4X4X..`.oX`.A.^./.).^.^.).^.).'   4X4X4X4X4X4X4X4X4X4X4X4X4X4X4X4X4X4X4X4X4X4X4X4X4X",
"4X4X4X4X4X4X4X4X  2 # S i.y.z 4X4X4X4X4X4X4X4X4X4X0 K L | ^.).).).).).).}.'   4X4X4X4X4X4X4X4X4X4X4X4X4X4X4X4X4X4X4X4X4X4X4X4X4X",
"4X4X4X4X4X4X4X4X  ' @.i o.y.z 4X4X4X4X4X4X4X4X4X4X4X4X4X| ^.).).)./.).).D.( 4X4X4X4X4X4X4X4X4X4X4X4X4X4X4X4X4X4X4X4X4X4X4X4X4X4X",
"4X4X4X4X4X4X4X4Xu U L.3 S i.6.k 4X4X4X4X4X4X4X4X4X4X4X4X; ~.).).).).).).@.; 4X4X4X4X4X4X4X4X4X4X4X4X4X4X4X4X4X4X4X4X4X4X4X4X4X4X",
"4X4X4X4X4X4X4X4X@ E (.3 S i.F 4X4X4X4X4X4X4X4X4X4X4X4X4X  '.}.).).^.).).}   4X4X4X4X4X4X4X4X4X4X4X4X4X4X4X4X4X4X4X4X4X4X4X4X4X4X",
"4X4X4X4X4X4X4X4X4XU A.5 S i.k 4X4X4X4X4X4X4X4X4X4X4X4X4X4X| %X).).).).).}   4X4X4X4X4X4X4X4X4X4X4X4X4X4X4X4X4X4X4X4X4X4X4X4X4X4X",
"4X4X4X4X4X4X4X4X4X. { F.4 / z 4X4X4X4X4X4X4X4X4X4X4X4X4X4XO  X`.).).).).}   4X4X4X4X4X4X4X4X4X4X4X4X4X4X4X4X4X4X4X4X4X4X4X4X4X4X",
"4X4X4X4X4X4X4X4X4X4XC A.8 S F 4X4X4X4X4X4X4X4X4X4X4X4X4X4X  {.}.^.).).).}   4X4X4X4X4X4X4X4X4X4X4X4X4X4X4X4X4X4X4X4X4X4X4X4X4X4X",
"4X4X4X4X4X4X4X4X4X4X  ' L.4 D k 4X4X4X4X4X4X4X4X4X4X4X4X4X4XU *X).).).).+.  4X4X4X4X4X4X4X4X4X4X4X4X4X4X4X4X4X4X4X4X4X4X4X4X4X4X",
"4X4X4X4X4X4X4X4X4X4X4X  Q e.8.y 4X4X4X4X4X4X4X4X4X4X4X4X4X4Xo ].).).).^.{ 4X4X4X4X4X4X4X4X4X4X4X4X4X4X4X4X4X4X4X4X4X4X4X4X4X4X4X",
"4X4X4X4X4X4X4X4X4X4X4X4X  T | X 4X4X4X4X4X4X4X4X4X4X4X4X4X4X4Xh ).).).C.p 4X4X4X4X4X4X4X4X4X4X4X4X4X4X4X4X4X4X4X4X4X4X4X4X4X4X4X",
"4X4X4X4X4X4X4X4X4X4X4X4X4X4XL v 4X4X4X4X4X4X4X4X4X4X4X4X4X4X4X+ ~.).).@.  4X4X4X4X4X4X4X4X4X4X4X4X4X4X4X4X4X4X4X4X4X4X4X4X4X4X4X",
"4X4X4X4X4X4X4X4X4X4X4X4X4X4X4Xv X 4X4X4X4X4X4X4X4X4X4X4X4X4X4X4Xu /.).@.  4X4X4X4X4X4X4X4X4X4X4X4X4X4X4X4X4X4X4X4X4X4X4X4X4X4X4X",
"4X4X4X4X4X4X4X4X4X4X4X4X4X4X4X4X4X4X4X4X4X4X4X4X4X4X4X4X4X4X4X4X4Xj.).f.  4X4X4X4X4X4X4X4X4X4X4X4X4X4X4X4X4X4X4X4X4X4X4X4X4X4X4X",
"4X4X4X4X4X4X4X4X4X4X4X4X4X4X4X4X4X4X4X4X4X4X4X4X4X4X4X4X4X4X4X4X4X4 ).@.  4X4X4X4X4X4X4X4X4X4X4X4X4X4X4X4X4X4X4X4X4X4X4X4X4X4X4X",
"4X4X4X4X4X4X4X4X4X4X4X4X4X4X4X4X4X4X4X4X4X4X4X4X4X4X4X4X4X4X4X4X4X4Xd C.g 4X4X4X4X4X4X4X4X4X4X4X4X4X4X4X4X4X4X4X4X4X4X4X4X4X4X4X",
"4X4X4X4X4X4X4X4X4X4X4X4X4X4X4X4X4X4X4X4X4X4X4X4X4X4X4X4X4X4X4X4X4X4X4Xs {   4X4X4X4X4X4X4X4X4X4X4X4X4X4X4X4X4X4X4X4X4X4X4X4X4X4X",
"4X4X4X4X4X4X4X4X4X4X4X4X4X4X4X4X4X4X4X4X4X4X4X4X4X4X4X4X4X4X4X4X4X4X4X4XO   4X4X4X4X4X4X4X4X4X4X4X4X4X4X4X4X4X4X4X4X4X4X4X4X4X4X"
};
