/* XPM */
static char *result[] = {
/* columns rows colors chars-per-pixel */
"64 64 202 2 ",
"   c #010101",
".  c #0B0A0D",
"X  c #08050E",
"o  c #14070B",
"O  c #0F0C12",
"+  c #100D16",
"@  c #131116",
"#  c #1A171D",
"$  c #1B191E",
"%  c #171519",
"&  c #28131B",
"*  c #191522",
"=  c #1C122E",
"-  c #1F182E",
";  c #1E1B21",
":  c #1F1731",
">  c #180E29",
",  c #261A28",
"<  c #221A32",
"1  c #1F2025",
"2  c #26222A",
"3  c #2E2A34",
"4  c #2B233A",
"5  c #2E2938",
"6  c #332C3B",
"7  c #34253D",
"8  c #35323C",
"9  c #44101A",
"0  c #4A1528",
"q  c #53152D",
"w  c #7A1E3B",
"e  c #6E1A36",
"r  c #432838",
"t  c #2A1F40",
"y  c #2E2343",
"u  c #352C45",
"i  c #3B3443",
"p  c #3C334A",
"a  c #372955",
"s  c #3D2C5C",
"d  c #3A2B56",
"f  c #3D3152",
"g  c #443D4C",
"h  c #4C3C4D",
"j  c #412952",
"k  c #453D52",
"l  c #40325D",
"z  c #473B5B",
"x  c #483B5E",
"c  c #443954",
"v  c #7A2041",
"b  c #60384D",
"n  c #7E3454",
"m  c #402F60",
"M  c #443463",
"N  c #493966",
"B  c #4D3D6A",
"V  c #743F64",
"C  c #46424F",
"Z  c #4B4454",
"A  c #4C495A",
"S  c #534C5D",
"D  c #4E6F4D",
"F  c #4D4164",
"G  c #4F426C",
"H  c #504365",
"J  c #564C62",
"K  c #53446E",
"L  c #5A4D6D",
"P  c #574A69",
"I  c #535361",
"U  c #5B5265",
"Y  c #5E526C",
"T  c #59586A",
"R  c #554671",
"E  c #564976",
"W  c #5B4B73",
"Q  c #5A4E7A",
"!  c #5B5673",
"~  c #5E517C",
"^  c #5F5D72",
"/  c #61566B",
"(  c #604F77",
")  c #615276",
"_  c #655D72",
"`  c #695E75",
"'  c #63547B",
"]  c #6C5C7D",
"[  c #65587E",
"{  c #6C647A",
"}  c #676779",
"|  c #71647E",
" . c #6E7777",
".. c #832140",
"X. c #8D2944",
"o. c #952844",
"O. c #8A3D5C",
"+. c #A02B44",
"@. c #B23C52",
"#. c #9C465B",
"$. c #AD475F",
"%. c #B64459",
"&. c #B84E63",
"*. c #A35F73",
"=. c #9D6A7D",
"-. c #BB657A",
";. c #A8667A",
":. c #C64F61",
">. c #CC6A7E",
",. c #D56A7A",
"<. c #769471",
"1. c #635580",
"2. c #655984",
"3. c #6C5D83",
"4. c #685D88",
"5. c #685781",
"6. c #6C6383",
"7. c #6F6D81",
"8. c #6C618B",
"9. c #726283",
"0. c #726B83",
"q. c #786C85",
"w. c #74648A",
"e. c #7A6B8D",
"r. c #766988",
"t. c #7E718B",
"y. c #737187",
"u. c #6F6591",
"i. c #746A93",
"p. c #7D6D92",
"a. c #756B9A",
"s. c #7D7396",
"d. c #7C749C",
"f. c #7E7A9A",
"g. c #896384",
"h. c #83738D",
"j. c #95708E",
"k. c #806F92",
"l. c #837494",
"z. c #847B95",
"x. c #85779B",
"c. c #857A9B",
"v. c #8B7C9C",
"b. c #887A96",
"n. c #9A7D96",
"m. c #837CA3",
"M. c #8E7EA1",
"N. c #D77687",
"B. c #C57384",
"V. c #88829A",
"C. c #90819F",
"Z. c #A68998",
"A. c #B38695",
"S. c #8C82A2",
"D. c #8B85AB",
"F. c #8E88AF",
"G. c #8A88A4",
"H. c #9484A4",
"J. c #9887A7",
"K. c #9787A8",
"L. c #958BAC",
"P. c #9989A9",
"I. c #998DA4",
"U. c #8D90A8",
"Y. c #9990A9",
"T. c #928DB2",
"R. c #9F8FB0",
"E. c #9691B5",
"W. c #9C92B2",
"Q. c #9B9AB5",
"!. c #9A96BA",
"~. c #9E9ABD",
"^. c #A399AE",
"/. c #A08FB1",
"(. c #A194B4",
"). c #A59CBD",
"_. c #A398B7",
"`. c #B6B2BF",
"'. c #B8A7B3",
"]. c #DD8494",
"[. c #C68B9A",
"{. c #E18797",
"}. c #A29EC1",
"|. c #A99FC0",
" X c #A7A5C5",
".X c #AAA4C4",
"XX c #A9A7C9",
"oX c #AEAACA",
"OX c #A7A4C8",
"+X c #B5AEC1",
"@X c #B1ACCC",
"#X c #B1B0CF",
"$X c #AFAED0",
"%X c #B2AFD0",
"&X c #B5B4D4",
"*X c #B8B6D7",
"=X c #B9B9D9",
"-X c #B7B8D7",
";X c #C7C7DC",
":X c #C2C2E4",
">X c #E6E9E5",
",X c None",
/* pixels */
",X,X,X,X,X,X,X,X,X,X,X,X,X,X,X,X,X,X,X,X,X,X,X,X,X,X,X,X,X,X,X,X,X,X,X,X,X,X,X,X,X,X,X,X,X,X,X,X,X,X,X,X,X,X,X,X,X,X,X,X,X,X,X,X",
",X,X,X,X,X,X,X,X,X,X,X,X,X,X,X,X,X,Xs ,X,X,X,X,X,X,X,X,X,X,X,X,X,X,X,X,X,X,X,X,X,X,X,X,X,X,X,X,X,X,X,X,X,X,X,X,X,X,X,X,X,X,X,X,X",
",X,X,X,X,X,X,X,X,X,X,X,X,X,X,X,X,X8.i.,X,X,X,X,X,X,X,X,X,X,X,X,X,X,X,X,X,X,X,X,X,X,X,X,X,X,X,X,X,X,X,X,X,X,X,X,X,X,X,X,X,X,X,X,X",
",X,X,X,X,X,X,X,X,X,X,X,X,X,X,X,X,Xm.F.,X,X,X,X,X,X,X,X,X,X,X,X,X,X,X,X,X,X,X,X,X,X,X,X,X,X,X,X,X,X,X,X,X,X,X,X,X,X,X,X,X,X,X,X,X",
",X,X,X,X,X,X,X,X,X,X,X,X,X,X,X,X,Xd.4.,X,X,X,X,X,X,X,X,X,X,X,X,X,X,X,X,X,X,X,X,X,X,X,X,X,X,X,X,X,X,X,X,X,X,X,X,X,X,X,X,X,X,X,X,X",
",X,X,X,X,X,X,X,X,X,X,X,X,X,X,X,X,Xm.E.,X,X,X,X,X,X  - ,X,X,X,X,X,X,X,X,X,X,X,X,X,X,X,X,X,X,X,X,X,X,X,X,X,X,X,X,X,X,X,X,X,X,X,X,X",
",X,X,X,X,X,X,X,X,X,X,X,X,X,X,X,X,Xm.!.,X,X,X,X,X,X} ~ ,X,X,X,X,X,X,X,X,X,X,X,X,X,X,X,X,X,X,X,X,X,X,X,X,X,X,X,X,X,X,X,X,X,X,X,X,X",
",X,X,X,X,X,X,X,X,X,X,X,X,X,X,X,X,Xm.XX2.,X,X,X,X8  XS.,X,X,X,X,X,X,X,X,X,X,X,X,X,X,X,X,X,X,X,X,X,X,X,X,X,X,X,X,X,X,X,X,X,X,X,X,X",
",X,X,X,X,X,X,X,X,X,X,X,X,X,X,X,X,Xm.=X6.,X,X,X,Xy.=Xs.,X,X,X,X,X,X,X,X,X,X,X,X,X,X,X,X,X,X,X,X,X,X,X,X,X,X,X,X,X,X,X,X,X,X,X,X,X",
",X,X,X,X,X,X,X,X,X,X,X,X,X,X,X,X,Xc.=X^ ,X,X,XQ $X%X3.,X,X,X,X,X,X,X,X,X,X,X,X,X,X,X,X,X,X,X,X,X,X,X,X,X,X,X,X,X,X,X,X,X,X,X,X,X",
",X,X,X,X,X,X,X,X,X,X,X,X,X,X,X,X,X{ oXQ.4 R M s.-XL.B ,X,X,X,X,X,X,X,X,X,X,X,X,X,X,X,X,X,X,X,X,X,X,X,X,X,X,X,X,X,X,X,X,X,X,X,X,X",
",X,X,X,X,X,X,X,X,X,X,X,X,X,X,X,X,XC oX&XG.C i H.XX3.s ,X,X,X,X,X,X,X,X,X,X,X,X,X,X,X,X,X,X,X,X,X,X,X,X,X,X,X,X,X,X,X,X,X,X,X,X,X",
",X,X,X,X,X,X,X,X,X,X,X,X,X,X,X,X,Xy.&X=X=X| { P.W.Q ,X,X,X,X,X,X,X,X,X,X,X,X,X,X,X,X,X,X,X,X,X,X,X,X,X,X,X,X,X,X,X,X,X,X,X,X,X,X",
",X,X,X,X,X,X,X,X,X,X,X,X,X,X,X,XT -X=X=X@X&X@XP.M.R ,X,X,X,X,X,X,X,X,X,X,X,X,X,X,X,X,X,X,X,X,X,X,X,X,X,X,X,X,X,X,X,X,X,X,X,X,X,X",
",X,X,X,X,X,X,X,X,X,X,X,X,X,X,Xa.=X=X=X&X=X=X*X(.w.,X,X,X,X,X,X,X,X,X,X,X,X,X,X,X,X,X,X,X,X,X,X,X,X,X,X,X,X,X,X,X,X,X,X,X,X,X,X,X",
",X,X,X,X,X,X,X,X,X,X,X,X,X,X,X^ =X=X@XoX=X=XXXM.K ,X,X,X,X,X,X,X,X,X,X,X,X,X,X,X,X,X,X,X,X,X,X,X,X,X,X,X,X,X,X,X,X,X,X,X,X,X,X,X",
",X,X,X,X,X,X,X,X,X,X,X,X,X,X,XS *X=X.X*X~.s.W.M.R ,X,X,X,X,X,X,X,X,X,X,X,X,X,X,X,X,X,X,X,X,X,X,X,X,X,X,X,X,X,X,X,X,X,X,X,X,X,X,X",
",X,X,X,X,X,X,X,X,X,X,X,X,X,X,XS @X&XQ.W.x.x.H.J.] ,X,X,X,X,X,X,X,X,X,X,X,X,X,X,X,X,X,X,X,X,X,X,X,X,X,X,X,X,X,X,X,X,X,X,X,X,X,X,X",
",X,X,X,X,X,X,X,X,X,X,X,X,XW.,X' .X&XV.i.Y.+XH.P.3.,X,X,X,X,X,X,X,X,X,X,X,X,X,X,X,X,X,X,X,X,X,X,X,X,X,X,X,X,X,X,X,X,X,X,X,X,X,X,X",
",X,X,X,X,X,X,X,X,X,X,X,XW.&X2.Q oX&X3.V.>X^.H.P.J ,X,X,X,X,X,X,X,X,X,X,X,X,X,X,X,X,X,X,X,X,X,X,X,X,X,X,X,X,X,X,X,X,X,X,X,X,X,X,X",
",X,X,X,X,X,X,X,X,X,X,X,Xx.&XXXXX&X&XE 6 <.C.I.R.S ,X,X,X,X,X,X,X,X,X,X,X,X,X,X,X,X,X,X,X,X,X,X,X,X,X,X,X,X,X,X,X,X,X,X,X,X,X,X,X",
",X,X,X,X,X,X,X,X,X,X,X,X9.&X=X=X=X&XE.{ D M.H.v.t.B ,X,X,X,X,X,X,X,X,X,X,X,X,X,X,X,X,X,X,X,X,X,X,X,X,X,X,X,X,X,X,X,X,X,X,X,X,X,X",
",X,X,X,X,X,X,X,X,X,X,X,X) -X=X=X-X=X=X_. .M.J.h.H.z ,X,X,X,X,X,X,X,X,X,X,X,X,X,X,X,X,X,X,X,X,X,X,X,X,X,X,X,X,X,X,X,X,X,X,X,X,X,X",
",X,X,X,X,X,X,X,X,X,X,X,XU @X&X}.&X&X.XP.P.P.P.e.H.6 a ,XB K ,X,X,X,X,X,X,X,X,X,X,X,X,X,X,X,X,X,X,X,X,X,X,X,X,X,X,X,X,X,X,X,X,X,X",
",X,X,X,X,X,X,X,X,X,X,X,XY L.}.2.oX).C.H.J.V.v.5.C.6 d ,Xw.p.,X,X,X,X,X,X,X,X,X,X,X,X,X,X,X,X,X,X,X,X,X,X,X,X,X,X,X,X,X,X,X,X,X,X",
",X,X,X,X,X,X,X,X,X,X,X,XJ e.M.OX(.J.3 ` | # # { H.i H ,Xw.v.6 ,X,X,X,X,X,X,X,X,X,X,X,X,X,X,X,X,X,X,X,X,X,X,X,X,X,X,X,X,X,X,X,X,X",
",X,X,X,X,X,X,X,X,X,X,X,X{ k.W.#Xb.8 0 r x = , q._ r.K ' v.K.i ,X,X,X,X,X,X,X,X,X,X,X,X,X,X,X,X,X,X,X,X,X,X,X,X,X,X,X,X,X,X,X,X,X",
",X,X,X,X,X,X,X,X,X,X,X,Xw.C.).z.h 9 w q s a g h.h P.9.3.P.M.5 ,X,X,X,X,X,X,X,X,X,X,X,X,X,X,X,X,X,X,X,X,X,X,X,X,X,X,X,X,X,X,X,X,X",
",X,X,X,X,X,X,X,X,X,X,X,XB v.H.g o +...v j d k r.U P.H.3.H.c.i f 1.,X,X,X,X,X,X,X,X,X,X,X,X,X,X,X,X,X,X,X,X,X,X,X,X,X,X,X,X,X,X,X",
",X,X,X,X,X,X,X,X,X,X,X,X,X3.t.@ ,X....w , d ' h z.J.K.H.e.oXW.[ m.f.4.M ,X,X,X,X,X,X,X,X,X  ,X. . * ,X,X,X,X,X,X,X,X,X,X,X,X,X,X",
",X,X,X,X,X,X,X,X,X,X,X,Xd.8.t.- ,X..+...0 * l.6 ] P.P..XXX*XL.).oXoXoX^   ,X,X,X,X,X,X,X< X - J ' l.[ ,X,X,X,X,X,X,X,X,X,X,X,X,X",
",X,X,X,X,X,X,X,X,X,X,X,XT.6.5 F g.o.:.o.e & r.P [ P.J.%X=X=XXX&X=X=X=XQ.} C >   = = 1.Q G y.f.v.v.P.5.,X,X,X,X,X,X,X,X,X,X,X,X,X",
",X,X,X,X,X,X,X,X,X,X,X,XE.V.i s.g.%.N.&.o.b 3.e.w.H.W.&X-X=X=X=X=X=X-X=X:XV.! A T ! D.m.T.:X@XR.P.P.L ,X,X,X,X,X,X,X,X,X,X,X,X,X",
",X,X,X,X,X,X,X,X,X,X,X,X!.@XP.M.) ,.{.].@.j.w.l.w.9..X=X=X=X=X&X=X=X=X&X&X&X&X-X=X=X-X=X*X.XP.P.P.P.Z ,X,X,X,X,X,X,X,X,X,X,X,X,X",
",X,X,X,X,X,X,X,X,X,X,X,X&X&X(.9.O.N.].N.*.P.B ,X,X8 oX=X-X=X=X=X&X&X&X&X.X).K.XX=X=X=X=XXXP.P.P.P.P.,X,X,X,X,X,X,X,X,X,X,X,X,X,X",
",X,X,X,X,X,X,X,X,X,X,Xs.#Xs.C.[.,.>.-.@.n p.B ,X,X3 #X=X=X&X-X=Xa.E E m.&X&XP..X=X=X-X&XR.J.P.J.J.P.A ,X,X,X,X,X,X,X,X,X,X,X,X,X",
",X,X,X,X,X,X,X,X,X,X,X8.oXz.h.B.N.-.O.>.g.Q ,X,X,X! _.&XoX=X=X=XT.w.N Q d.&X@X&X=X=X=X.XK.J.J.J.P.P.g ,X,X,X,X,X,X,X,X,X,X,X,X,X",
",X,X,X,X,X,X,X,X,X,XN m.#X`.Z.$.>.n.=.n.z.f ,X,X,Xt.L.XXoX=X=X=X*XW.5.,XE %X~.&XoX#X&XR.J.P.K.J.P.P./ ,X,X,X,X,X,X,X,X,X,X,X,X,X",
",X,X,X,X,X,X,X,X,X,X8.%X=X;X'.X.$.Z.`.6.U ,X,X,X1 z.W..X&X=X=X=X@XP.9.M ,X,X2.XXW.oXoXJ.K.P.P.J.P.J.v.; ,X# ,X,X,X,X,X,X,X,X,X,X",
",X,X,X,X,X,X,X,X,XS.&X-X=XD.e.7 . Z (.%X{ ,X,X,XI )..X@X-X=X*X*X_.P.' K M ,X2.d. X).).P.J.P.J.P.P.P.v.2 $ Z ,X,X,X,X,X,X,X,X,X,X",
",X,X,X,X,X,X,X,X9.OX=X-X:X0.] S.U.Q.W._.` ,X,X,XT -X&X-X-X=X=XoXP.P.( ] ( j N B /.L.P.P.P.H.P.P.P.P.P.U 7 J ,X,X,X,X,X,X,X,X,X,X",
",X,X,X,X,X,X,Xl.W.*X-X-X=X} | )..X).P.H.L ,X,X,X6.=X-X-X=X-X=XoXP.P.Q ] ] ( W N u./.M.P.J.P.P.P.J.P.P.r.W h.N ,X,X,X,X,X,X,X,X,X",
",X,X,X,X,X,X,XS.=X-X-X-X=Xf.U P.P.P.H.l.f ,X,X,Xu.$X=X-X-X=X=X.XP.M.( 9.9.| | ( R W.k.M.J.P.P.J.P.J.P.x.s.t.6.,X,X,X,X,X,X,X,X,X",
",X,X,X,X,X,XL.E.-X=X-X-X=X|.k t.h.h.] L $ ,X,X,X,XL.=X=X=X&X@XP.P.w.) ] ] 9.] 9.' s.k.v.P.J.P.P.J.P.P.P.z.g h.@ ,X,X,X,X,X,X,X,X",
",X,X,X,X,X6.L.*X=X=X-X-X&XL.K 4 . . * < ,X,X,X,X,X9..X-X&X@XP.P.P.e.9.( ] 9.| 3.' B M.l.H.J.P.J.P.P.H.P.b.i q.@ ,X,X,X,X,X,X,X,X",
",X,X,X{ 9.W.&X=X=X=X=X@X_.M.M ,X,X,X,X,X,X,X,X,XW h P.(.(./.P.P.H.k.M.J L 9.9.| 3.R M.l.H.J.J.P.P.J.P.P.H.h.g t ,X,X,X,X,X,X,X,X",
",X,X` w.L.&X=X&X-X=X@X).@Xm.,X,X,X,X,X,X,X,X,X,X5.` 9.H.P.J.P.P.H.M.P.| g ] | ] 8 f w.e.v.J.J.P.H.P.P.P.P.P.H z ,X,X,X,X,X,X,X,X",
",Xx.v.L.=X=X=X=X&X~.z.}.oXM.,X,X,X,X,X,X,X,X,X,Xe.M.[ e.v.P.M.x.P.P.P.v.3 ] ( L O < ,Xw.k.H.P.J.P.J.P.P.P.P.p.Y ,X,X,X,X,X,X,X,X",
"m T.%X=X-X=X=X&X~.4.C ~.S.E.,X,X,X,X,X,X,X,X,XK H.P.x.B 3.v.9.W H.P.P.H.i ) N s ,X,X,Xw.q.v.P.P.P.P.J.J.J.P.P.r.,X,X,X,X,X,X,X,X",
",Xf.m.-X&X&X-X!.B w.Z G.[ OXb.,X,X,X,X,X,X,X,XK M.K.J.9.R N N y _ P.P.H.z < ,X,X,X,X,XE M.l.H.J.P.P.J.J.P.J.P.L.x.,X,X,X,X,X,X,X",
",XE E i.1.~ i.,X,Xv.I t.N ~ ,X,X,X,X,X,X,X,X,XR H.J.P.e.R ,X,X,X6 C.P.J.x X ,X,X,X,X,XB M.l.b.M.P.J.J.J.P.P.J.P.K.A ,X,X,X,X,X,X",
",X,X,X,X,X,X,X,X,Xs.f.~.1.,X,X,X,X,X,X,X,X,X,X,X` R.x.' B ,X,X,X  / R.H.W p ,X,X,X,X,XM e.n.l.v.P.P.J.J.J.P.J.J.P.q.h.5.,X,X,X,X",
",X,X,X,X,X,X,X,X,X] W.oX,X,X,X,X,X,X,X,X,X,X,X,X8 _ L W ,X,X,X,X,X3 ` 9.9.W ,X,X,X,X,X,X5.H.x.v.H.J.J.P.J.P.L.J.P.P.P.p.' r.,X) ",
",X,X,X,X,X,X,X,X,X,X,X,X,X,X,X,X,X,X,X,X,X,X,X,X,Xo p ) ,X,X,X,X,X,X+ R | W ,X,X,X,X,X,Xl.l.k.b.b.P.P.J.J.P.P.J.P.K.P.P.K.x.v.W ",
",X,X,X,X,X,X,X,X,X,X,X,X,X,X,X,X,X,X,X,X,X,X,X,X,XL P W ,X,X,X,X,X,Xl ] 9.] B ,X,X,X,XQ M.v.3.H.K.J.K.P.P.P.J.P.P.J.P.P.K.P.oX,X",
",X,X,X,X,X,X,X,X,X,X,X,X,X,X,X,X,X,X,X,X,X,X,X,X,X( u ) Z ,X,X,X,X,XB ] K W N ,X,X,X,Xx.w.H.' v.).R.J.J.J.P.J.J.P.H.P.oX_.oX8.,X",
",X,X,X,X,X,X,X,X,X,X,X,X,X,X,X,X,X,X,X,X,X,X,X,X,X] y Z Z ,X,X,X,X,X,X) N ) ) ,X,X,Xc.).8.H.9.) z.@X.XW.P./.Q.(.)..X@X=X}.i.N ,X",
",X,X,X,X,X,X,X,X,X,X,X,X,X,X,X,X,X,X,X,X,X,X,X,X,X' M 2 3 ,X,X,X,X,X,XH B 5.3.,X,X,Xx.D.[ v.p.x L OXT..XoX.X@XoX~.=X!.T.m.s ,X,X",
",X,X,X,X,X,X,X,X,X,X,X,X,X,X,X,X,X,X,X,X,X,X,X,X,XM ,X,X  ,X,X,X,X,X,XC R l / ,X,X,X9.G R l.2.W ,X,XN }.@XOXXXOX8.}.Q m M ,X,X,X",
",X,X,X,X,X,X,X,X,X,X,X,X,X,X,X,X,X,X,X,X,X,X,X,X,X,X,X,X,X,X,X,X,X,X,Xg 8 + S ,X,X,X,X,Xi.).B ~ ,X,X,Xi.a.B B B N B ,X,X,X,X,X,X",
",X,X,X,X,X,X,X,X,X,X,X,X,X,X,X,X,X,X,X,X,X,X,X,X,X,X,X,X,X,X,X,X,X,X,X, . ,X$ ,X,X,X,X,XS.&Xp.,X,X,X,X,X,X,X,Xs ,X,X,X,X,X,X,X,X",
",X,X,X,X,X,X,X,X,X,X,X,X,X,X,X,X,X,X,X,X,X,X,X,X,X,X,X,X,X,X,X,X,X,X,X,X,X,X,X,X,X,X,X,X7.y.C ,X,X,X,X,X,X,X,X,X,X,X,X,X,X,X,X,X",
",X,X,X,X,X,X,X,X,X,X,X,X,X,X,X,X,X,X,X,X,X,X,X,X,X,X,X,X,X,X,X,X,X,X,X,X,X,X,X,X,X,X,X,XA 3 ,X,X,X,X,X,X,X,X,X,X,X,X,X,X,X,X,X,X",
",X,X,X,X,X,X,X,X,X,X,X,X,X,X,X,X,X,X,X,X,X,X,X,X,X,X,X,X,X,X,X,X,X,X,X,X,X,X,X,X,X,X,X,X,X,X,X,X,X,X,X,X,X,X,X,X,X,X,X,X,X,X,X,X"
};
