/* XPM */
static char *result[] = {
/* columns rows colors chars-per-pixel */
"64 64 218 2 ",
"   c #010101",
".  c #08050C",
"X  c #0D0817",
"o  c #140D16",
"O  c #19161C",
"+  c #17141B",
"@  c #1B1524",
"#  c #1F1E26",
"$  c #160A31",
"%  c #1A1031",
"&  c #231D2A",
"*  c #3C1A29",
"=  c #251D36",
"-  c #26212B",
";  c #2D2933",
":  c #2E233C",
">  c #2B2633",
",  c #332D3B",
"<  c #312A38",
"1  c #35323D",
"2  c #5B152C",
"3  c #541C39",
"4  c #641730",
"5  c #385F33",
"6  c #2B1C45",
"7  c #2C1A55",
"8  c #321E53",
"9  c #3A2C4B",
"0  c #332747",
"q  c #3D3644",
"w  c #3D334B",
"e  c #393943",
"r  c #3A2C52",
"t  c #3D2D5D",
"y  c #382557",
"u  c #35294A",
"i  c #361D6D",
"p  c #7F1F40",
"a  c #433C4C",
"s  c #412E55",
"d  c #423455",
"f  c #42325C",
"g  c #483D58",
"h  c #56384B",
"j  c #443463",
"k  c #4A3A65",
"l  c #4D3C6A",
"z  c #4A3568",
"x  c #523D6A",
"c  c #412777",
"v  c #4D3476",
"b  c #533C72",
"n  c #563B7E",
"m  c #4D4B5C",
"M  c #494355",
"N  c #534A5D",
"B  c #53436D",
"V  c #5B4C6D",
"C  c #554A64",
"Z  c #5B5266",
"A  c #5E536B",
"S  c #595668",
"D  c #554572",
"F  c #5B4B74",
"G  c #5D4D79",
"H  c #5A4777",
"J  c #5E537D",
"K  c #5F5272",
"L  c #62586D",
"P  c #644A7B",
"I  c #625375",
"U  c #655B73",
"Y  c #63547C",
"T  c #655A7A",
"R  c #6C5C7C",
"E  c #6D5977",
"W  c #714264",
"Q  c #6A6075",
"!  c #69647A",
"~  c #72657E",
"^  c #636A6A",
"/  c #852445",
"(  c #922845",
")  c #963249",
"_  c #A43D56",
"`  c #B43A4F",
"'  c #8D4359",
"]  c #A1445F",
"[  c #8B4A67",
"{  c #954962",
"}  c #BA5A6F",
"|  c #B45269",
" . c #98697E",
".. c #C54B5E",
"X. c #CB5F72",
"o. c #D66474",
"O. c #CF6679",
"+. c #7F9F7B",
"@. c #573A85",
"#. c #5A3891",
"$. c #4C3081",
"%. c #603C98",
"&. c #5F4C82",
"*. c #624386",
"=. c #654A8B",
"-. c #6B4B8C",
";. c #654985",
":. c #615481",
">. c #645A82",
",. c #6C5C83",
"<. c #6A568F",
"1. c #6E4C9C",
"2. c #684992",
"3. c #725293",
"4. c #77559A",
"5. c #7A5A9C",
"6. c #745B97",
"7. c #6F558F",
"8. c #6C618B",
"9. c #6D6584",
"0. c #726283",
"q. c #796C87",
"w. c #75658B",
"e. c #7B6C8D",
"r. c #756983",
"t. c #7C728C",
"y. c #79788E",
"u. c #756D95",
"i. c #7C6E92",
"p. c #776799",
"a. c #7D7292",
"s. c #7C739C",
"d. c #6D48A3",
"f. c #734DA3",
"g. c #744DA9",
"h. c #7C54AA",
"j. c #7856A7",
"k. c #7E52B6",
"l. c #7E69A3",
"z. c #81778D",
"x. c #837394",
"c. c #85769A",
"v. c #84799B",
"b. c #8B7C9C",
"n. c #897C95",
"m. c #8E7391",
"M. c #AE6D81",
"N. c #8659BB",
"B. c #855AB8",
"V. c #825CAD",
"C. c #8563AD",
"Z. c #836CA2",
"A. c #857DA2",
"S. c #8D7AA1",
"D. c #8874A9",
"F. c #8B68B5",
"G. c #9372B9",
"H. c #DA7786",
"J. c #C76C80",
"K. c #8D5EC4",
"L. c #8F5FC8",
"P. c #905FC9",
"I. c #8F65C4",
"U. c #9162C6",
"Y. c #946DC4",
"T. c #9161C9",
"R. c #9669CA",
"E. c #9A6DCE",
"W. c #9C7AC8",
"Q. c #9D72D1",
"!. c #A17ACF",
"~. c #A176D3",
"^. c #A57CD5",
"/. c #A87FD8",
"(. c #8F819E",
"). c #838399",
"_. c #90809F",
"`. c #AA889A",
"'. c #AD9099",
"]. c #8E85A5",
"[. c #8C84A9",
"{. c #8E8AA9",
"}. c #9484A4",
"|. c #9687A9",
" X c #938BAB",
".X c #9A8AAA",
"XX c #9688A8",
"oX c #9493AC",
"OX c #938DB2",
"+X c #9F8FB0",
"@X c #9C93B4",
"#X c #9E9BBB",
"$X c #9997B5",
"%X c #8F8AB0",
"&X c #A498AA",
"*X c #A196B6",
"=X c #A49BBB",
"-X c #A499BB",
";X c #A2A2BE",
":X c #ABA9AD",
">X c #DD8090",
",X c #E18999",
"<X c #E18696",
"1X c #A980D9",
"2X c #A681D6",
"3X c #A581CF",
"4X c #A6A3C3",
"5X c #AAA4C4",
"6X c #ADAACA",
"7X c #A9A7C6",
"8X c #B1ADCD",
"9X c #B7B5C6",
"0X c #B5B3D3",
"qX c #B8B6D6",
"wX c #B9B9D9",
"eX c #C6C1CD",
"rX c #C0C0E1",
"tX c None",
/* pixels */
"tXtXR  Xx.0.0.tXtXtXtXtXtXtXtXtXtXtXtXtXtXtXtXtXtXtXtXtXtXtXtXtXtXtXtXtXtXtXtXtXtXtXtXtXtXtXtXtXtXtXtXtXtXtXtXtXtXtXtXtXtXtXtXtX",
"tXtX,.0X6X7X#X|.v.tXtXtXtXtXtXtXtXtXtXtXtXtXtXtXtXtXtXtXtXtXtXtXtXtXtXtXtXtXtXtXtXtXtXtXtXtXtXtXtXtXtXtXtXtXtXtXtXtXtXtXtXtXtXtX",
"tXtXG 8.s.D.s..X@X0.tXtXtXtXtXtXtXtXtXtXtXtXtXtXtXtXtXtXtXtXtXtXtXtXtXtXtXtXtXtXtXtXtXtXtXtXtXtXtXtXtXtXtXtXtXtXtXtXtXtXtXtXtXtX",
"tXtXtXv *.h.1.,. X}.q.tXtXtXtXtXtXtXtXtXtXtXtXtXtXtXtXtXtXtXtXtXtXtXtXtXtXtXtXtXtXtXtXtXtXtXtXtXtXtXtXtXtXtXtXtXtXtXtXtXtXtXtXtX",
"tXtXtXtX4.I.N.n Z.@Xx.0.tXtXtXtXtXtXtXtXtXtXtXtXtXtXtXtXtXtXtXtXtXtXtXtXtXtXtXtXtXtXtXtXtXtXtXtXtXtXtXtXtXtXtXtXtXtXtXtXtXtXtXtX",
"tXtXtXtXtXh.K.P.N.G }.w.tXtXtXtXtXtXtXtXtXtXtXtXtXtXtXtXtXtXtXtXtXtXtXtXtXtXtXtXtXtXtXtXtXtXtXtXtXtXtXtX.X+X.X.X.XtXtXtXtXtXtXtX",
"tXtXtXtXtX3.4.L.N.v w.T j f tXtXtXtXtXtXtXtXtXtXtXtXtXtXtXtXtXtXtXtXtXtXtXtXtXtXtXtXtXtXtXtXtXtXtXtX5X.X7X=X*X*X5X.X.X.X.XtXtXtX",
"tXtXtXtXtXtX4.L.L.V.*.>.[.z j t tXtXtXtXtXtXtXtXtXtXtXtXtXtXtXtXtXtXtXtXtXtXtXtXtXtXtXtXtXtXtXtXR  XqX0XwXOX XqXqX8X8X0X5X|.tXtX",
"tXtXtXtXtXtXtXB.E.P.f oXqXv.i.s.t tXtXtXtXtXtXtXtXtXtXtXtXtXtXtXtXtXtXtXtXtXtXtXtXtX+Xn.tXtX~  XoX=X4X,.>.<.<.p.l.8.Z.u.0X5Xw.tX",
"tXtXtXtXtXtXtXh.~.E.*.K 9.q.t.4X:.:.tXtXtXtXtXtXtXtXtXtXtXtXtXtXtXtXtXtXtXtXtXtXtXtXU -X~ tXe.$X XD.W.2.2.f.g.f.g.f.g.2.u.s.b.0.",
"tXtXtXtXtXtXtXh.R.~.Y.t w U q T s.:.tXtXtXtXtXtXtXtXtXtXtXtXtXtXtXtXtXtXtXtXtXtXtXtXm wXOXtXn.*Xw.f.P.T.P.P.T.T.P.T.T.K.@.v u.T ",
"tXtXtXtXtXtXtXtX5.^./.1.w.c.: o s.u.tXtXtXtXtXtXtX# r tXtXtXtXtXtXtXtXtXtXtXtXtXtXtX:.#XF 0.e.S.-.P.T.P.L.L.L.U.P.T.K.N.k.v t tX",
"tXtXtXtXtXtXtXtX5.Q.Q.z 8.0.R k s.qXtXtXtXtXtXtXtX! :.tXtXtXtXtXtXtXtXtXtXtXtXtXtXl 6 L F q R 1.T.T.T.T.L.T.L.L.T.N.%.tXi tXtXtX",
"tXtXtXtXtXtXtXtXtXV.G.m C L x.i.s.4Xl tXtXtXtXtXe 4X:.tXtXtXtXtXtXtXtXtXtXtXtXtXm  Xf 8.w S :.h.T.T.L.T.T.T.T.T.K.8 i tXtXtXtXtX",
"tXtXtXtXtXtXtXtXtX4.C.m D.k 3.G s.4Xk tXtXtXtXtX).7XD tXtXtXtXtXtXtXtXtXtXtXtXtX: a.P x.M  X- b T.U.T.L.Q.~.~.k.#.tXtXtXtXtXtXtX",
"tXtXtXtXtXtXtXtXtXtX5.l.2XV.B.v s.0Xu.tXtXtXtXK 0X[.tXtXtXtXtXtXtXtXtXtXtXtXtXtXtXJ a.XXZ ~ w d.T.L.T.Q./.1X/.v tXtXtXtXtXtXtXtX",
"tXtXtXtXtXtXtXtXtXtX6.^./.1XE.j 9.qXy.X tXtXl $XwXw.tXtXtXtXtXtXtXtXtXtXtXtXtXtXtXl S..Xt.Q ;.P.T.E.Q./.1X/.R.6 tXtXtXtXtXtXtXtX",
"tXtXtXtXtXtXtXtXtXtX4.!.1X1XE.t N -Xy.1 D w Y 4X7XY tXtXtXtXtXtXtXtXtXtXtXtXtXtXtXl |.|.b.G.3.U.E./.1X/.1XR.h.+ tXtXtXtXtXtXtXtX",
"tXtXtXtXtXtXtXtXtXtX5.!.1X1XE.f a .XwXqXy.& b..XOXtXtXtXtXtXtXtXtXtXtXtXtXtXtXtXtXD -Xb.=.U.R.Q.~.2X2X1X/.d.tXtXtXtXtXtXtXtXtXtX",
"tXtXtXtXtXtXtXtXtXtX6.~.1X/.Y.d 6XqXqX0X=X7X.X.Xx.tXtXtXtXtXtXtXtXtXtXtXtXtXtXtXtXG #X,.B.T.R./.1X1X/.1X^.*.tXtXtXtXtXtXtXtXtXtX",
"tXtXtXtXtXtXtXtXtXtX5.!.1X/.d.[.wXqXwXqX0XwX5XXXF tXtXtXtXtXtXtXtXtXtXtXtXtXtXtX].#X6.F.L.K.~.1X1X1X1X1XB tXtXtXtXtXtXtXtXtXtXtX",
"tXtXtXtXtXtXtXtXtXtXF.1X1XC.:.qXwXqXwXwXwXwX8X}.B tXtXtXtXtXtXtXtXtXtXtXtXtXtXtX].6X2.P.R.~./././.1X1X1X9 tXtXtXtXtXtXtXtXtXtXtX",
"tXtXtXtXtXtXtXtXtXtXC.2X1X5.S wXwX0X8X0XA.-X-Xn.l tXtXtXtXtXtXtXtXtXtXtXtXtXtXtX4X7Xv T.R.1X1X/.1X2XQ.f.r tXtXtXtXtXtXtXtXtXtXtX",
"tXtXtXtXtXtXtXtXtXtXC.^.1XF.U 8XwX6X5X$Xe.b.XXx.l tXtXtXtXtXtXtXtXtXtXtXtXtXtXi.4Xy.b R.Q./.1X1X1X1XY.7 tXtXtXtXtXtXtXtXtXtXtXtX",
"tXtXtXtXtXtXtXtXtXtX!.2X2XY.5.7XwX*X6XA.eXXXXX}.g tXtXtXtXtXtXtXtXtXtXtXtXtXtXv.A.6 B.~.1X1X/.1X1X1XG.. tXtXtXtXtXtXtXtXtXtXtXtX",
"tXtXtXtXtXtXtXtXtXtX5.3X|.D Y 6XqX].A.9XeXn..Xb.& tXtXtXtXtXtXtXtXtXtXtXtXtXtX;XA.f.T.Q.1X1X2X1X1X1XF.X tXtXtXtXtXtXtXtXtXtXtXtX",
"tXtXtXtXtXtXtXtXtXtXW.*X0X4X6XqXqXi.t.+.:Xx..Xb.= tXtXtXtXtXtXtXtXtXtXtXtXtX|.#Xl U.T.Q.1X2X1X1X1X^.d tXtXtXtXtXtXtXtXtXtXtXtXtX",
"tXtXtXtXtXtXtXtXtXtXG.|.wXwXwXwXqX:.9 5 z.XXb.b.Z tXtXtXtXtXtXtXtXtXtXtXtXt.6X#Xt R.Q.1X1X1X1X/.1X^.0 tXtXtXtXtXtXtXtXtXtXtXtXtX",
"tXtXtXtXtXtXtXtXtXtX=.v.wXwXwXwXwX%X! ^ b..Xb.b.~ @ tXtXtXtXtXtXtXtXtXtXR @XwXs.2.T.1X2X1X/.1X1X1X/.0 tXtXtXtXtXtXtXtXtXtXtXtXtX",
"tXtXtXtXtXtXtXtXtXtX8 a.wX6X X0X8XqX5X.X+X.Xc.x.~ = tXtXG F tXtXtXtXtXtX].8XoX=.k.U.I.1X1X1X1X1X1XG.0 tXtXtXtXtXtXtXtXtXtXtXtXtX",
"tXtXtXtXtXtXtXtXtXtX% t.0X[.9.6X=X=X.X}.q.r.T x.~ = tXtXx.e.tXtXtXtXtX XwX7Xq v #.g.#.F.^.1X1X1X1Xh.tXtXtXtXtXtXtXtXtXtXtXtXtXtX",
"tXtXtXtXtXtXtXtXtXtXo ~  X8.4X8X}.}.(.q.o . < .XQ a x l c.b.& tXtX].qX6X6Xa.o y @.i i c Y.Q.1X1X1XY.tXtXtXtXtXtXtXtXtXtXtXtXtXtX",
"tXtXtXtXtXtXtXtXtXtXtX< n.v.0X*XZ A O @ y 0 1 _.a q.B e.}.}.1 >.].6X6Xg d H P -.-.-.-.*.c c R.1X1X;.  tXtXtXtXtXtXtXtXtXtXtXtXtX",
"tXtXtXtXtXtXtXtXtXtXtXB }.}.*X1 * * 2 4 f t , b.q }.w.w..X-X$X4X0X{.; x P -.3.3.3.3.3.3.*.*.$.k.1XH tXtXtXtXtXtXtXtXtXtXtXtXtXtX",
"tXtXtXtXtXtXtXtXtXtXtXtX,.|.L tX2 2 4 ( 3 @ Q L L .X}.@X6X8XrXoXM ,.f 3.x s s tX9 tX9 tX: y $ 7 1.*.tXtXtXtXtXtXtXtXtXtXtXtXtXtX",
"tXtXtXtXtXtXtXtXtXtXtXtXtXN < tXtX/ ( p 4 o z.k 0.XX*XwXwXwX6XS : ;.3.f & tXtXtXtXtXtXtXtX$ . X % 6 tXtXtXtXtXtXtXtXtXtXtXtXtXtX",
"tXtXtXtXtXtXtXtXtXtXtXtXtX  tXtX_ _ ` ) / h :.z H |.-XqXqXwX4Xr 6.-.;.. tXtXtXtXtXtXtXtXtXtXtXtX    tXtXtXtXtXtXtXtXtXtXtXtXtXtX",
"tXtXtXtXtXtXtXtXtXtXtXtXtXtXtXW X.H.o...[ b.l tXg }.0XqXqXwX6X&.3.n tXtXtXtXtXtXtXtXtXtXtXtXtXtXtXtXtXtXtXtXtXtXtXtXtXtXtXtXtXtX",
"tXtXtXtXtXtXtXtXtXtXtXtXtXtX~ '.X.,X<X..E Y tXtXtX! wXwXwXqX8XS.-.8 tXtXtXtXtXtXtXtXtXtXtXtXtXtXtXtXtXtXtXtXtXtXtXtXtXtXtXtXtXtX",
"tXtXtXtXtXtXtXtXtXtXtXtXtXtXj [ H.,X,X| &XY tXtXtX! wXqXwXwX0XS.@.,.k tXtXtXtXtXtXtXtXtXtXtXtXtXtXtXtXtXtXtXtXtXtXtXtXtXtXtXtXtX",
"tXtXtXtXtXtXtXtXtXtXtXtXtXR &XX.,X,XH.( e.J tXtXB  XwXwXwXwXwX[.b ,.P tXtXtXtXtXtXtXtXtXtXtXR ~ ~ tXt tXtXtXtXtXtXtXtXtXtXtXtXtX",
"tXtXtXtXtXtXtXtXtXtXtXtXtX).m.>XJ.} X.M.e.H tXtXM $X8X8X8XwXwX#X0.Y w.j tXtXtXtXtXtXtX~ E x.x.x.x.,.>.= tXtXtXtXtXtXtXtXtXtXtXtX",
"tXtXtXtXtXtXtXtXtXtXtXtXe.:X[ O.} { ] `.a.d tXtX1  X4X5X0XwXwX6X@Xi.x.l z tXtXtXtXtXY e.z.b..X.XS.b.XXN O tXtXtXtXtXtXtXtXtXtXtX",
"tXtXtXtXtXtXtXtXtXtXtXtXtXeXM.) [ '.' P Z tXtXtXe .X-X;XwXwXwXwXqX.X}.F F z tXtXz z ,..X.XXXXXXX.X}.XX.XM tXtXO tXtXtXtXtXtXtXtX",
"tXtXtXtXtXtXtXtXtXtXtXtXtXP R & O :X&X-XL tXtXtXe 4X7X5XwXwXwXqX0X.X}.H R Y j j B 0.}.XXXX.X.X}.}.,.x.}.b.D @ N tXtXtXtXtXtXtXtX",
"tXtXtXtXtXtXtXtXtXtXtXtXtX, S.$X;X(.=X-XA tXtXtXJ 0XqX0XqXqXwXwX=X.X}.F R ~ E E R b..XXXXXXX|.w.k l z >..Xw.f L tXtXtXtXtXtXtXtX",
"tXtXtXtXtXtXtXtXtXtXtXtXtX; .X*X=X=X.XXXB tXtXtXtX%XwXwXwXwXwXwX-X}.w.I 0.~ 0.0.~ b..X|..Xw.D x tXtXtXx G b.c.w.tXtXtXtXtXtXtXtX",
"tXtXtXtXtXtXtXtXtXtXtXtXtXO Q &X+X*X.Xv.> tXtXtXtXr.wXqXwXqXwX8X+X.XT ,.Y 0.~ R ~ e..XXX,.B tXtXtXtXtXtXtX,.x.}.d tXtXtXtXtXtXtX",
"tXtXtXtXtXtXtXtXtXtXtXtXtXtXM A Z (.b.C tXtXtXtXw t.6XwXqXqX8X*X.X}.w.x.C U ~ 0.0.0.i.w.z tXtXtXtXtXtXtXtX,.w.b.a tXtXtXtXtXtXtX",
"tXtXtXtXtXtXtXtXtXtXtXtXtXtXtX.   N K X tXtXtXtXH x. X8X8X8X*X}..XS.b..XN g ,.0.I C g t tXtXtXtXtXtXtXk R }.x.q.M tXtXtXtXtXtXtX",
"tXtXtXtXtXtXtXtXtXtXtXtXtXtXtXtXtX    tXtXtXtXtXY N ~ .X.XXXXXXX.XXX.X.Xx.> E R a     tXtXtXtXtXtXtXtXB R w._.w.V tXtXtXtXtXtXtX",
"tXtXtXtXtXtXtXtXtXtXtXtXtXtXtXtXtXtXtXtXtXtXtXk c._.F x.XX.XXXXXXXXXXX.X_., B j f tXtXtXtXtXtXtXtXtXtXtXj B ~ ,.E O tXtXtXtXtXtX",
"tXtXtXtXtXtXtXtXtXtXtXtXtXtXtXtXtXtXtXtXtXtXtXz b..Xn.P F XXXXR m..X.XXXXXd @ tXtXtXtXtXtXtXtXtXtXtXtXtXtXtXk B R O tXtXtXtXtXtX",
"tXtXtXtXtXtXtXtXtXtXtXtXtXtXtXtXtXtXtXtXtXtXtXk b..XXXw.F G J z w b..X.X.Xd   tXtXtXtXtXtXtXtXtXtXtXtXtXtXtXtXz l u tXtXtXtXtXtX",
"tXtXtXtXtXtXtXtXtXtXtXtXtXtXtXtXtXtXtXtXtXtXtXtXL XX.Xn.R t t t @ a q.+X_.V 9 tXtXtXtXtXtXtXtXtXtXtXtXtXtXtXtXtXt tXtXtXtXtXtXtX",
"tXtXtXtXtXtXtXtXtXtXtXtXtXtXtXtXtXtXtXtXtXtXtXtX, .X}.w.I tXtXtXtX  a ~ w.0.F tXtXtXtXtXtXtXtXtXtXtXtXtXtXtXtXtXtXtXtXtXtXtXtXtX",
"tXtXtXtXtXtXtXtXtXtXtXtXtXtXtXtXtXtXtXtXtXtXtXtXtXt.e.V B tXtXtXtXtX. @ G 0.F tXtXtXtXtXtXtXtXtXtXtXtXtXtXtXtXtXtXtXtXtXtXtXtXtX",
"tXtXtXtXtXtXtXtXtXtXtXtXtXtXtXtXtXtXtXtXtXtXtXtX0 o A F tXtXtXtXtXtXf I R ~ F tXtXtXtXtXtXtXtXtXtXtXtXtXtXtXtXtXtXtXtXtXtXtXtXtX",
"tXtXtXtXtXtXtXtXtXtXtXtXtXtXtXtXtXtXtXtXtXtXtXtXk V B F tXtXtXtXtXtXj R F x V tXtXtXtXtXtXtXtXtXtXtXtXtXtXtXtXtXtXtXtXtXtXtXtXtX",
"tXtXtXtXtXtXtXtXtXtXtXtXtXtXtXtXtXtXtXtXtXtXtXtXB F : w.; tXtXtXtXtXtXF B l w.l tXtXtXtXtXtXtXtXtXtXtXtXtXtXtXtXtXtXtXtXtXtXtXtX",
"tXtXtXtXtXtXtXtXtXtXtXtXtXtXtXtXtXtXtXtXtXtXtXtXY Y @ A < tXtXtXtXtXtXw Y z w.w tXtXtXtXtXtXtXtXtXtXtXtXtXtXtXtXtXtXtXtXtXtXtXtX",
"tXtXtXtXtXtXtXtXtXtXtXtXtXtXtXtXtXtXtXtXtXtXtXtXtXF tX, O tXtXtXtXtXtX; K tXA < tXtXtXtXtXtXtXtXtXtXtXtXtXtXtXtXtXtXtXtXtXtXtXtX",
"tXtXtXtXtXtXtXtXtXtXtXtXtXtXtXtXtXtXtXtXtXtXtXtXtXt tXtX  tXtXtXtXtXtX; 1 tXq - tXtXtXtXtXtXtXtXtXtXtXtXtXtXtXtXtXtXtXtXtXtXtXtX",
"tXtXtXtXtXtXtXtXtXtXtXtXtXtXtXtXtXtXtXtXtXtXtXtXtXtXtXtXtXtXtXtXtXtXtXtX  tXtX  tXtXtXtXtXtXtXtXtXtXtXtXtXtXtXtXtXtXtXtXtXtXtXtX"
};
