/* XPM */
static char *result[] = {
/* columns rows colors chars-per-pixel */
"64 64 211 2 ",
"   c #010101",
".  c #050408",
"X  c #0F0C14",
"o  c #0B0516",
"O  c #100D15",
"+  c #131115",
"@  c #161419",
"#  c #1B191E",
"$  c #18151B",
"%  c #1B0107",
"&  c #240C14",
"*  c #311216",
"=  c #150D25",
"-  c #1C142B",
";  c #1C1724",
":  c #1E1630",
">  c #170D30",
",  c #2B1021",
"<  c #211D25",
"1  c #231A2D",
"2  c #2D1924",
"3  c #35192A",
"4  c #241C32",
"5  c #261B37",
"6  c #222027",
"7  c #25222A",
"8  c #28282D",
"9  c #2A2432",
"0  c #2D2933",
"q  c #272030",
"w  c #322D37",
"e  c #332C3B",
"r  c #32263E",
"t  c #34333C",
"y  c #38313F",
"u  c #6A1A35",
"i  c #7F1F3F",
"p  c #721C38",
"a  c #291C41",
"s  c #2A145F",
"d  c #2E2345",
"f  c #342C45",
"g  c #342A48",
"h  c #3B3642",
"j  c #3E3945",
"k  c #3D374B",
"l  c #3C2E54",
"z  c #3D2D5E",
"x  c #342650",
"c  c #3F305B",
"v  c #2D1666",
"b  c #331A6A",
"n  c #30176A",
"m  c #3D2370",
"M  c #3A216E",
"N  c #7D1F40",
"B  c #433D4C",
"V  c #403947",
"C  c #402D53",
"Z  c #443E52",
"A  c #43345C",
"S  c #473B5A",
"D  c #6F2040",
"F  c #762B48",
"G  c #663459",
"H  c #433363",
"J  c #4A3A65",
"K  c #4C3C6B",
"L  c #483768",
"P  c #442A75",
"I  c #4E337B",
"U  c #4A3073",
"Y  c #53377C",
"T  c #41414C",
"R  c #4B4856",
"E  c #52495B",
"W  c #504858",
"Q  c #466E45",
"!  c #4E406B",
"~  c #4F4266",
"^  c #554B61",
"/  c #52426C",
"(  c #574A67",
")  c #5B5265",
"_  c #5D5369",
"`  c #5F5A6E",
"'  c #544472",
"]  c #5B4B75",
"[  c #5B4D79",
"{  c #574A77",
"}  c #5C5079",
"|  c #61556D",
" . c #63596D",
".. c #654A7A",
"X. c #6A5F75",
"o. c #64547A",
"O. c #6C5C7D",
"+. c #655878",
"@. c #6E637A",
"#. c #6B6B7E",
"$. c #68627A",
"%. c #71647E",
"&. c #832141",
"*. c #9A2944",
"=. c #973A57",
"-. c #AB334A",
";. c #B73146",
":. c #98465D",
">. c #BC4C5D",
",. c #9E4A63",
"<. c #AB516A",
"1. c #956277",
"2. c #D15C6D",
"3. c #63905E",
"4. c #563981",
"5. c #614484",
"6. c #6C4C8C",
"7. c #654887",
"8. c #645482",
"9. c #665A83",
"0. c #6D5D84",
"q. c #695A88",
"w. c #6E4E90",
"e. c #715191",
"r. c #705F91",
"t. c #725D8C",
"y. c #6E638C",
"u. c #6F6180",
"i. c #726382",
"p. c #756982",
"a. c #796C85",
"s. c #74648A",
"d. c #7B6D8C",
"f. c #7C6486",
"g. c #7D728C",
"h. c #79798E",
"j. c #707084",
"k. c #726791",
"l. c #756A94",
"z. c #7C6C92",
"x. c #7A6F99",
"c. c #7A6495",
"v. c #7E7293",
"b. c #7D7C91",
"n. c #7C729A",
"m. c #81748F",
"M. c #90728F",
"N. c #806F94",
"B. c #837394",
"V. c #867A95",
"C. c #887A96",
"Z. c #83759A",
"A. c #8B7B9C",
"S. c #88799C",
"D. c #827AA2",
"F. c #887CA5",
"G. c #927FB3",
"H. c #826AA2",
"J. c #D16F82",
"K. c #DD7988",
"L. c #E17A89",
"P. c #86859C",
"I. c #8F809F",
"U. c #90849C",
"Y. c #979D9A",
"T. c #BC8090",
"R. c #8C85AC",
"E. c #8C88A4",
"W. c #9585A5",
"Q. c #9887A7",
"!. c #958BAC",
"~. c #9989A9",
"^. c #9687A8",
"/. c #9392AB",
"(. c #9C93AB",
"). c #9E8FB0",
"_. c #958AB6",
"`. c #9E93B3",
"'. c #9A95B9",
"]. c #9D9ABB",
"[. c #9997B5",
"{. c #A294B5",
"}. c #A49CBC",
"|. c #A99FBF",
" X c #A498B7",
".X c #AF9CA7",
"XX c #A1A1BD",
"oX c #AEA9B4",
"OX c #A4A1AD",
"+X c #DC8393",
"@X c #E18A9A",
"#X c #C69FA8",
"$X c #A19EC1",
"%X c #A5A2C4",
"&X c #AAA6C5",
"*X c #AAA6C9",
"=X c #ADABCB",
"-X c #B1ADCD",
";X c #B1B1CF",
":X c #B0AFD0",
">X c #B5B4D4",
",X c #B8B6D6",
"<X c #B9B9D9",
"1X c #B8B8D7",
"2X c #BFBFE0",
"3X c #DDBFCA",
"4X c #C1BAC9",
"5X c #D5CED4",
"6X c #C2C2E3",
"7X c #DDDDE0",
"8X c None",
/* pixels */
"8X8X8X8X8X8X8X8X8X8X8X8X8X8X8X8X8X8X8X8X8X8X8X8X8X8X8X8X8X8X8X8X8X8X8X8X8X8X8X8X8X8X8X8X8X8X8X8X8X8X8X8X8X8X8X8X8X8X8X8X8X8X8X8X",
"8X8X8X8X8X8X8XH ! 8X8X8X8X8X8X8X8X8X8X8X8X8X8X8X8X8X8X8X8X8X8X8X8X8X8X8X8X8X8X8X8X8X8X8X8X8X8X8X8X8X8X8X8X8X8X8X8X8X8X8X8X8X8X8X",
"8X8X8X8X8X8X8Xz '.' 8X8X8X8X8X8X8X8X8X8X8X8X8X8X8X8X8X8X8X8X8X8X8X8X8X8X8X8X8X8X8X8X8X8X8X8X8X8X8X8X8X8X8X8X8X8X8X8X8X8X8X8X8X8X",
"8X8X8X8X8X8X8Xz '.y.8X8X8X8X8X8X8X8X8X8X0 c 8X8X8X8X8X8X8X8X8X8X8X8X8X8X8X8X8X8X8X8X8X8X8X8X8X8X8X8X8X8X8X8X8X8X8X8X8X8X8X8X8X8X",
"8X8X8X8X8X8X8Xz '.>XK 8X8X8X8X8X8X8X8Xt XXK 8X8X8X8X8X8X8X8X8X8X8X8X8X8X8X8X8X8X8X8X8X8X8X8X8X8X8X8X8X8X8X8X8X8X8X8X8X8X8X8X8X8X",
"8X8X8X8X8X8X8Xz '.<Xl.8X8X8X8X8X8X8Xh XX=XK 8X8X8X8X8X8X8X8X8X8X8X8X8X8X8X8X8X8X8X8X8X8X8X8X8X8X8X8X8X8X8X8X8X8X8X8X8X8X8X8X8X8X",
"8X8X8X8X8X8X8Xz '.<X<X8X8X8X8X8X8XT ].<Xz.L 8X8X8X8X8X8X8X8X8X8X8X8X8X8X8X8X8X8X8X8X8X8X8X8X8X8X8X8X8X8X8X8X8X8X8X8X8X8X8X8X8X8X",
"8X8X8X8X8X8X8X+.'.<X=X5 8X8X8X8Xn.%X;XF.K 8X8X8X8X8X8X8X8X8X8X8X8X8X8X8X8X8X8X8X8X8X8X8X8X8X8X8X8X8X8X8X8X8X8X8X8X8X8X8X8X8X8X8X",
"8X8X8X8X8X8X   .$X,X>X#.y.1 g Z. X>Xn.H 8X8X8X8X8X8X8X8X8X8X8X8X8X8X8X8X8X8X8X8X8X8X8X8X8X8X8X8X8X8X8X8X8X8X8X8X8X8X8X8X8X8X8X8X",
"8X8X8X8X8X8XR E.>X<X<X<X(.#.h.~.Q. X} 8X8X8X8X8X8X8X8X8X8X8X8X8X8X8X8X8X8X8X8X8X8X8X8X8X8X8X8X8X8X8X8X8X8X8X8X8X8X8X8X8X8X8X8X8X",
"8X8X8X8X8X} XX<X,X1X<X,X-X2X,X XQ.s.K 8X8X8X8X8X8X8X8X8X8X8X8X8X8X8X8X8X8X8X8X8X8X8X8X8X8X8X8X8X8X8X8X8X8X8X8X8X8X8X8X8X8X8X8X8X",
"8X8X8X8X8Xu.6X1X1X,X}.,X<X<X<X&X~...8X8X8X8X8X8X8X8X8X8X8X8X8X8X8X8X8X8X8X8X8X8X8X8X8X8X8X8X8X8X8X8X8X8X8X8X8X8X8X8X8X8X8X8X8X8X",
"8X8X8X8X8XW :X<X1X}.=X1X%X+.E.).~.d.J 8X8X8X8X8X8X8X8X8X8X8X8X8X8X8X8X8X8X8X8X8X8X8X8X8X8X8X8X8X8X8X8X8X8X8X8X8X8X8X8X8X8X8X8X8X",
"8X8X8X8X8X|  X<X,XZ.-X*Xl.4XA.Q.~.W.' 8X8X8X8X8X8X8X8X8X8X8X8X8X8X8X8X8X8X8X8X8X8X8X8X8X8X8X8X8X8X8X8X8X8X8X8X8X8X8X8X8X8X8X8X8X",
"8X8X~.v.z [ '.1X,Xd.' 9.7X5XB.Q.~.~.e 8X8X8X8X8X8X8X8X8X8X8X8X8X8X8X8X8X8X8X8X8X8X8X8X8X8X8X8X8X8X8X8X8X8X8X8X8X8X8X8X8X8X8X8X8X",
"8X~.>X>X=X=X>X<X<X} / Y.3.oXN.~.W.~.w d 8X8X8X8X8X8X8X8X8X8X8X8X8X8X8X8X8X8X8X8X8X8X8X8X8X8X8X8X8X8X8X8X8X8X8X8X8X8X8X8X8X8X8X8X",
"8XB.,X1X1X1X1X1X<X>X}.8 Q m.^.~.B.C.W.< x 8X8X8XL J 8X8X8X8X8X8X8X8X8X8X8X8X8X8X8X8X8X8X8X8X8X8X8X8X8X8X8X8X8X8X8X8X8X8X8X8X8X8X",
"l v.<X1X:X*X>X<X>X-X~.W.Q.~.~.~.z.B.~.< l 8X8X' ~.s.8X8X8X8X8X8X8X8X8X8X8X8X8X8X8X8X8X8X8X8X8X8X8X8X8X8X8X8X8X8X8X8X8X8X8X8X8X8X",
"X v.=X>Xn.o.%X>X{.Q.M.Q.W.a.a.g.o.z.~.< ~ K 8Xo.~.A.+.8X8X8X8X8X8X8X8X8X8X8X8X8X8X8X8X8X8X8X8X8X8X8X8X8X8X8X8X8X8X8X8X8X8X8X8X8X",
"+ @.V.R.0.=X<X{.d.X.2 X._ X + . E ).m.t K O.Q.Q.W.d.V 8X8X8X8X8X8X8X8X8X8X8X8X8X8X8X8X8X8X8X8X8X8X8X8X8X8X8X8X8X8X8X8X8X8X8X8X8X",
"8X5 C.A.R.>XC.X.3 * p & , z z - W {.8 p.Q.o.C.W.!.g 8X8X8X8X8X8X8X8X8X8X8X8X8X8X8X8X8X8X8X8X8X8X8X8X8X8X8X8X8X8X8X8X8X8X8X8X8X8X",
"8XK N.~.~.g.8   u -.&.&.D d L r ) d.V B.~.{.A.!.<XE.8 8X8X8X8X8X8X8X8X8X8X8X8X8X8X8X8X8X8X8X8X8X8X8X8X8X8X8X8X8X8X8X8X8X8X8X8X8X",
"8X8XK B.{.B 8X8X8X&.*.&.p , 4 c A.e X.~.^.,X<X<X1X6Xb.j b.8X1X1X<X8X8X8X8X8X8X8X8X8X8X8X8X8X8X8X8X8X8X8X8X8X8X8X8X8X8X8X8X8X8X8X",
"8X8X8XS E w 8X8Xi *.;.&.F p % B F.g p.~.}.<X1X<X1X1X:X1X<X1X1X1X1X8X8X8X8X8X8X8X8X8X8X8X8X8X8X8X8X8X8X8X8X8X8X8X8X8X8X8X8X8X8X8X",
"8X8X8X8X8X8X8X8X*.2.2.-.<.*.F p.O.z Z.$X<X<X<X,X<X<X<X_.%X1X1X1X<X=X8X8X8X8X8X8X8X8X8X8X8X8X8X8X8X8X8X8X8X8X8X8X8X8X8X8X8X8X8X8X",
"8X8X8X8X8X8X8XP.>.+X@X2.L.-...M.x.Z r }.<X1X<X<X<X,X<Xx._.2X<X1X<X:XD.L 8X8X8X8X8X8X8X8X8X8X8X8X8X8X8X8X8X8X8X8X8X8X8X8X8X8X8X8X",
"8X8X8X8X8X8XJ J.@X@X@X@X2.,.(.0.q.o.o /.<X<X<X<X<X1X<Xn.8.k.=X1X1X<X>Xx.L 8X8X8X8X8X8X8X8X8XO.%.O.i.8X8X8X8X8X8X8X8X8X8X8X8X8X8X",
"8X8X8XU.OXG ,.+X<.#X@X<.5XM.B.g A l $.C.=X}.>X<X<X1X<X*X'.D.k.>X<X1X1X:X%XD.8X8X8X8Xs.W.~.W.A.A.A.A.W.^.W.A   8X8X8X8X8X8X8X8X8X",
"8X8X8X(.7X1.-.K.:.5X,.F d.f.X > : . P.~.-X`.<X<X<X1X1X2X1X'.B.V =X<X<X<X2XD.8X8Xz L C.~.~.Q.~.~.~.~.Q.Q.Q.B. .  8X8Xa.y 8X8X8X8X",
"8X8X8X8Xv.f.3 * & %..Xf.{.$.- U s o P.,X,X>X<X1X1X1X1X1X1X'.Q.m.y.:X,X<X<X:Xx.L o.B.W.~.Q.Q.Q.~.s.K / / A.~.Q.u.L 8XE B 8X8X8X8X",
"8X8X8X8XB W./.]. X&X X&X).X.= M n x _.<X,X1X1X1X1X1X1X1X}.~.~.F.c h >X<X<X<X>Xy.B.^.^.Q.~.B.L K L 8X8X8XK ' W.W.s.z +.W.] 8X8X8X",
"8X8X8X8Xh Q.~.{.(.~.Q.(.V.K Y v 8X8XK $X<X1X1X1X1X1X1X1X{.Q.W.' ] 8 <X<X<X<X<X:X>Xq.A.^.B.L H 8X8X8X8X8X8X8X8XJ [ A.B.B.W.8 8X8X",
"8X8X8X8X8XE A.V.C.C.W.W.@.- b 8X8XX  .~.-X>X>X,X&X}.,X}.Q.W.W.] g.6 =X=X<X<X<X<X,Xq.{ B.L 8X8X8X8X8X8X8X8X8X8X8X8X[ f.i.S.0 8X8X",
"8X8X8X8X8X8X- $ < X %.A 5 Y n 8Xz s.j i.W.~.~.~.Q.~.~.~.^.d.W.Q.V.7 Z T <X<X1X1X<X:Xq.' 8X8X8X8X8X8X8X8X8X8X8X/ d.W.Q.d.i.K 8X8X",
"8X8X8X8X8X8X# P.].8 - 6.5.b b 8XJ z.Q.o.O.Z.S.~.~.~.~.Q.~.Q.~.Q.W.|   R <X1X<X<X<X1X:X=X8.' 8X8X8X8X8X8X8X8XJ o.o.d.d.o.O.%.@ 8X",
"8X8X8X8X8X+ z.*Xf ..w.7.5.n 8X8X0.~.Q.Q.d.K ' B.B.C.Z.W.~.~.Q.~.^.g.- l.<X>X=X:X-X=X).=X-X8X8X8X8X8X8X8X8X8X8XH A K ' A ] o.1 8X",
"8X8X8X8X; b._.w.e.e.6.b 5.b 8X8Xs.~.~.~.Q.f.O.z z / K ( A.~.~.~.Q.S.H l.2X|.W.Q.W.~.Q.W.Z.8X8X8X8X8X8X8X8X8X8X8X8X8X8X8X8Xz H 8X",
"8X8X8X8XR ,XH.w.e.e.6.b 8X8X8X8X^ B.).~.z.u.] 8X8X8XH = B  .W.~.~.B.K n.<X&XQ.~.Q.~.~.C.g 8X8X8X8X8X8X8X8X8X8X8X8X8X8X8X8X8X8X8X",
"8X8X8Xh.b._.6.e.e.e.4.b 8X8X8X8X8Xh ) ^ / O.H 8X8X8X8X8X8X  R ) s.O.0.n.<X}.Q.Q.~.Q.~.B.4 8X8X8X8X8X8X8X8X8X8X8X8X8X8X8X8X8X8X8X",
"' O.j.6X/.o.e.e.e.4.b 8X8X8X8X8X8X- 9 e ( o.H 8X8X8X8X8X8X8X8X- / %.8.x.4X-X`.Q.Q.~.~.V.f 8X8X8X8X8X8X8X8X8X8X8X8X8X8X8X8X8X8X8X",
"x.{./.h.[.] 6.w.4.b 8X8X8X8X8X8X8XH o.o.5 O.o.8X8X8X8X8X8X8X8XL O.O./ ] '.-X`.Q.Q.W.~.m.  8X8X8X8X8X8X8X8X8X8X8X8X8X8X8X8X8X8X8X",
"V Z S 1 Z.k.6.e.m 8X8X8X8X8X8X8X8Xz s.K X y g.  8X8X8X8X8X8X8X8X' +.z ] $X|.W.Q.Q.~.~.C.g 8X8X8X8X8X8X8X8X8X8X8X8X8X8X8X8X8X8X8X",
"8Xg / %.s.6.w.w.8X8X8X8X8X8X8X8X8X8X] L 8X8X8   8X8X8X8X8X8X8XK ' d.z k.6X>X{.Q.~.Q.~.B.1 8X8X8X8X8X8X8X8X8X8X8X8X8X8X8X8X8X8X8X",
"$ A.R.8.[ 7.e.e.P 8X8X8X8X8X8X8X8X8X8X8X8X8X8X8X8X8X8X8X8X8X{ R.{ q.D.k.<X=X~.~.Q.Q.~.B.    8X8X8X8X8X8X8X8X8X8X8X8X8X8X8X8X8X8X",
"8XT >XR.7.6.e.I b 8X8X8X8X8X8X8X8X8X8X8X8X8X8X8X8X8X8X8X8X8X' q.'.}.}.R.x.).Q.Q.~.Q.~.Q.)   8X8X8X8X8X8X8X8X8X8X8X8X8X8X8X8X8X8X",
"8X; ~.S...w.e.P 8X8X8X8X8X8X8X8X8X8X8X8X8X8X8X8X8X8X8X8X8X8XK { =X).~.~.A.|. XQ.~.Q.~.~.a.  8X8X8X8X8X8X8X8X8X8X8X8X8X8X8X8X8X8X",
"8X. $ r e.w.w.P 8X8X8X8X8X8X8X8X8X8X8X8X8X8X8X8X8X8X8X8X8X8X8X8X8X$ + T ~.~.~.~.Q.^.~.Q.W._   8X8X8X8X8X8X8X8X8X8X8X8X8X8X8X8X8X",
"  6  .5 e.e.I 8X8X8X8X8X8X8X8X8X8X8X8X8X8X8X8X8X8X8X8X8X8X8X8X8X{ K 8XA.~.~.~.~.~.Q.Q.~.C.! 8X8X8X8X8X8X8X8X8X8X8X8X8X8X8X8X8X8X",
"8XA.S.5.e.e.P 8X8X8X8X8X8X8X8X8X8X8X8X8X8X8X8X8X8X8X8X8X8X8X8X8X&X>X-XQ.W.W.~.Q.~.Q.~.~.a.X 8X8X8X8X8X8X8X8X8X8X8X8X8X8X8X8X8X8X",
"8X0.@.4 e.4.8X8X8X8X8X8X8X8X8X8X8X8X8X8X8X8X8X8X8X8X8X8X8X8X8X8X} XXXXB.s.z.~.~.Q.Q.~.Q.~.X.  8X8X8X8X8X8X8X8X8X8X8X8X8X8X8X8X8X",
"$ A.@.1 e.Y 8X8X8X8X8X8X8X8X8X8X8X8X8X8X8X8X8X8X8X8X8X8X8X8X8X8XJ 7 X.  B C.I.~.^.~.~.^.~.@.  8X8X8X8X8X8X8X8X8X8X8X8X8X8X8X8X8X",
"8X~ @.1 e.Y 8X8X8X8X8X8X8X8X8X8X8X8X8X8X8X8X8X8X8X8X8X8X8X8X8X8X8X8X8X  8X  j.|.Q.Q.Q.~.~.a.@   8X8X8X8X8X8X8X8X8X8X8X8X8X8X8X8X",
". e @.1 w.P 8X8X8X8X8X8X8X8X8X8X8X8X8X8X8X8X8X8X8X8X8X8X8X8X8X8X8X8X8X8X8X8X#.!.~.~.^.~.~.~._   8X8X8X8X8X8X8X8X8X8X8X8X8X8X8X8X",
"8XS @.1 4.v 8X8X8X8X8X8X8X8X8X8X8X8X8X8X8X8X8X8X8X8X8X8X8X8X8X8X8X8X8X8X8X8X8Xd [.{.Q.~.Q.~.p.7 8X8X8X8X8X8X8X8X8X8X8X8X8X8X8X8X",
"8X# @.1 4.8X8X8X8X8X8X8X8X8X8X8X8X8X8X8X8X8X8X8X8X8X8X8X8X8X8X8X8X8X8X8X8X8X8X  E.R.`.~.Q.~.W.^ 8X8X8X8X8X8X8X8X8X8X8X8X8X8X8X8X",
"8Xy d.C 4.8X8X8X8X8X8X8X8X8X8X8X8X8X8X8X8X8X8X8X8X8X8X8X8X8X8X8X8X8X8X8X8X8X8X8XP.k &X~.Q.~.O.- 8X8X8X8X8X8X8X8X8X8X8X8X8X8X8X8X",
"8X@ ^ c.4.v 8X8X8X8X8X8X8X8X8X8X8X8X8X8X8X8X8X8X8X8X8X8X8X8X8X8X8X8X8X8X8X8X8X8X8X8Xn.~.~.~.m.w 8X8X8X8X8X8X8X8X8X8X8X8X8X8X8X8X",
"8X  7 a.a 8X8X8X8X8X8X8X8X8X8X8X8X8X8X8X8X8X8X8X8X8X8X8X8X8X8X8X8X8X8X8X8X8X8X8X8X8X8XB l.~.).E 8X8X8X8X8X8X8X8X8X8X8X8X8X8X8X8X",
"8X8XE  .  8X8X8X8X8X8X8X8X8X8X8X8X8X8X8X8X8X8X8X8X8X8X8X8X8X8X8X8X8X8X8X8X8X8X8X8X8X8X8Xr ~.).W   8X8X8X8X8X8X8X8X8X8X8X8X8X8X8X",
"8X8X8XA.B 8X8X8X8X8X8X8X8X8X8X8X8X8X8X8X8X8X8X8X8X8X8X8X8X8X8X8X8X8X8X8X8X8X8X8X8X8X8X8X8X8Xz.C.0 8X8X8X8X8X8X8X8X8X8X8X8X8X8X8X",
"8X8X8X7 < 8X8X8X8X8X8X8X8X8X8X8X8X8X8X8X8X8X8X8X8X8X8X8X8X8X8X8X8X8X8X8X8X8X8X8X8X8X8X8X8X8XV {.O.; 8X8X8X8X8X8X8X8X8X8X8X8X8X8X",
"8X8X8X8X8X8X8X8X8X8X8X8X8X8X8X8X8X8X8X8X8X8X8X8X8X8X8X8X8X8X8X8X8X8X8X8X8X8X8X8X8X8X8X8X8X8X@ 0 1 .   8X8X8X8X8X8X8X8X8X8X8X8X8X",
"8X8X8X8X8X8X8X8X8X8X8X8X8X8X8X8X8X8X8X8X8X8X8X8X8X8X8X8X8X8X8X8X8X8X8X8X8X8X8X8X8X8X8X8X8X8X8X8X8X  8X8X8X8X8X8X8X8X8X8X8X8X8X8X",
"8X8X8X8X8X8X8X8X8X8X8X8X8X8X8X8X8X8X8X8X8X8X8X8X8X8X8X8X8X8X8X8X8X8X8X8X8X8X8X8X8X8X8X8X8X8X8X8X8X8X8X8X8X8X8X8X8X8X8X8X8X8X8X8X"
};
