/* XPM */
static char *result[] = {
/* columns rows colors chars-per-pixel */
"64 64 198 2 ",
"   c #030304",
".  c #08060C",
"X  c #0B0A0D",
"o  c #0C0B11",
"O  c #100D15",
"+  c #17141A",
"@  c #19161C",
"#  c #1B191F",
"$  c #131316",
"%  c #25060F",
"&  c #270D11",
"*  c #1E1A23",
"=  c #1B1722",
"-  c #221E25",
";  c #281929",
":  c #231C33",
">  c #2A1D38",
",  c #25212B",
"<  c #26222A",
"1  c #35232D",
"2  c #2A2432",
"3  c #2B233B",
"4  c #2E2933",
"5  c #312C3A",
"6  c #322C37",
"7  c #36333D",
"8  c #4E162B",
"9  c #631A31",
"0  c #691E31",
"q  c #7C1E3E",
"w  c #2A4728",
"e  c #2E2246",
"r  c #372D49",
"t  c #352C47",
"y  c #3C3445",
"u  c #3F354B",
"i  c #362556",
"p  c #3A2D56",
"a  c #3D2D5C",
"s  c #372855",
"d  c #3F305D",
"f  c #3E3252",
"g  c #443C4C",
"h  c #423548",
"j  c #433B52",
"k  c #4A3E57",
"l  c #43365B",
"z  c #433757",
"x  c #563154",
"c  c #7E2041",
"v  c #443463",
"b  c #493A66",
"n  c #4D3D6A",
"m  c #473862",
"M  c #4B3E72",
"N  c #47404F",
"B  c #4C4455",
"V  c #4A4758",
"C  c #51475D",
"Z  c #544B5D",
"A  c #4D4162",
"S  c #4E406F",
"D  c #514464",
"F  c #584E62",
"G  c #52426D",
"H  c #5A4D6C",
"J  c #534962",
"K  c #5B5165",
"L  c #5D516A",
"P  c #575565",
"I  c #534571",
"U  c #5C4C73",
"Y  c #5B4D79",
"T  c #564976",
"R  c #5F5074",
"E  c #5D517C",
"W  c #7C4566",
"Q  c #61596E",
"!  c #625376",
"~  c #675B73",
"^  c #695D76",
"/  c #64547C",
"(  c #6B5B7D",
")  c #654971",
"_  c #6C6177",
"`  c #666478",
"'  c #6D637D",
"]  c #696B7D",
"[  c #656476",
"{  c #72657E",
"}  c #94273F",
"|  c #8B2442",
" . c #882645",
".. c #8A3854",
"X. c #993954",
"o. c #B0394F",
"O. c #B23D53",
"+. c #95435D",
"@. c #AC435B",
"#. c #974F68",
"$. c #AE5069",
"%. c #A95E74",
"&. c #BB5C71",
"*. c #A86378",
"=. c #C65466",
"-. c #CE5A6B",
";. c #C8606E",
":. c #D26172",
">. c #CF707F",
",. c #6C8C68",
"<. c #625681",
"1. c #685780",
"2. c #665B84",
"3. c #6C5C83",
"4. c #695E88",
"5. c #705C83",
"6. c #6F6084",
"7. c #6C628C",
"8. c #716282",
"9. c #766A83",
"0. c #74658B",
"q. c #75698A",
"w. c #7A6A8C",
"e. c #747284",
"r. c #76748C",
"t. c #7E738C",
"y. c #78798D",
"u. c #746A93",
"i. c #7C6D92",
"p. c #796F98",
"a. c #7E7193",
"s. c #7F7E94",
"d. c #7C749C",
"f. c #7F77A0",
"g. c #81738F",
"h. c #837494",
"j. c #867995",
"k. c #857699",
"l. c #85799C",
"z. c #8B7C9C",
"x. c #BE6C80",
"c. c #BE7C8B",
"v. c #A87A89",
"b. c #847CA2",
"n. c #8E7DA1",
"m. c #907FA2",
"M. c #DD7D8D",
"N. c #DA7484",
"B. c #85829D",
"V. c #8E819D",
"C. c #93869F",
"Z. c #8E9592",
"A. c #BC8B9B",
"S. c #8C83A4",
"D. c #8A89A2",
"F. c #8B85AB",
"G. c #8D88AB",
"H. c #9485A5",
"J. c #9887A7",
"K. c #9587A9",
"L. c #9887A8",
"P. c #948BAC",
"I. c #9989A9",
"U. c #948BA5",
"Y. c #8F90A8",
"T. c #9291AB",
"R. c #9B91AE",
"E. c #928DB2",
"W. c #9F8FB1",
"Q. c #9693B4",
"!. c #9C92B2",
"~. c #9C99B7",
"^. c #9995B9",
"/. c #9E9ABB",
"(. c #A195B5",
"). c #A59BBB",
"_. c #A299B1",
"`. c #B49CB0",
"'. c #A39BA9",
"]. c #9BA1A3",
"[. c #A2A0BD",
"{. c #B3A8BD",
"}. c #E38797",
"|. c #A39EC1",
" X c #A4A1C2",
".X c #AAA4C4",
"XX c #A9A9C6",
"oX c #AEABCB",
"OX c #AAA7C9",
"+X c #B1ADCE",
"@X c #B0AFD0",
"#X c #B5B4D4",
"$X c #B8B7D7",
"%X c #B9B9D9",
"&X c #B8B8D7",
"*X c #D1CDD4",
"=X c #CBC6C9",
"-X c None",
/* pixels */
"-X-X-X-X-X-X-X-X-X-X-X-X-X-X-X-X-X-X-X-X-X-X-X-X-X-X-X-X-X-X-X-X-X-X-X-X-X-X-X-X-X-X-X-X-X-X-X-X-X-X-X-X-X-X-X-X-X-X-X-X-X-X-X-X",
"-X-X-X-X-X-X-X-X-X-X-X-X-X-X-X-X-Xa -X-X-X-X-X-X-X-X-X-X-X-X-X-X-X-X-X-X-X-X-X-X-X-X-X-X-X-X-X-X-X-X-X-X-X-X-X-X-X-X-X-X-X-X-X-X",
"-X-X-X-X-X-X-X-X-X-X-X-X-X-X-X-X-XI 4.-X-X-X-X-X-X-X-X-X-X-X-X-X-X-X-X-X-X-X-X-X-X-X-X-X-X-X-X-X-X-X-X-X-X-X-X-X-X-X-X-X-X-X-X-X",
"-X-X-X-X-X-X-X-X-X-X-X-X-X-X-X-X-X4.p.-X-X-X-X-X-X-X-X-X-X-X-X-X-X-X-X-X-X-X-X-X-X-X-X-X-X-X-X-X-X-X-X-X-X-X-X-X-X-X-X-X-X-X-X-X",
"-X-X-X-X-X-X-X-X-X-X-X-X-X-X-X-X-X2.b.-X-X-X-X-X-X-X= -X-X-X-X-X-X-X-X-X-X-X-X-X-X-X-X-X-X-X-X-X-X-X-X-X-X-X-X-X-X-X-X-X-X-X-X-X",
"-X-X-X-X-X-X-X-X-X-X-X-X-X-X-X-X-X<.OXY -X-X-X-X-X-X` Y -X-X-X-X-X-X-X-X-X-X-X-X-X-X-X-X-X-X-X-X-X-X-X-X-X-X-X-X-X-X-X-X-X-X-X-X",
"-X-X-X-X-X-X-X-X-X-X-X-X-X-X-X-X-X<.@XY -X-X-X-X-X7 /.T -X-X-X-X-X-X-X-X-X-X-X-X-X-X-X-X-X-X-X-X-X-X-X-X-X-X-X-X-X-X-X-X-X-X-X-X",
"-X-X-X-X-X-X-X-X-X-X-X-X-X-X-X-X-XE #XQ.-X-X-X-X-Xs. XI -X-X-X-X-X-X-X-X-X-X-X-X-X-X-X-X-X-X-X-X-X-X-X-X-X-X-X-X-X-X-X-X-X-X-X-X",
"-X-X-X-X-X-X-X-X-X-X-X-X-X-X-X-X-Xd.%XoX-X-X-X-XJ oXS.v -X-X-X-X-X-X-X-X-X-X-X-X-X-X-X-X-X-X-X-X-X-X-X-X-X-X-X-X-X-X-X-X-X-X-X-X",
"-X-X-X-X-X-X-X-X-X-X-X-X-X-X-X-Xf /.%XQ.s -X-X-XE.@X4.a -X-X-X-X-X-X-X-X-X-X-X-X-X-X-X-X-X-X-X-X-X-X-X-X-X-X-X-X-X-X-X-X-X-X-X-X",
"-X-X-X-X-X-X-X-X-X-X-X-X-X-X-X-Xo B.oXY.t H v K.#Xk.-X-X-X-X-X-X-X-X-X-X-X-X-X-X-X-X-X-X-X-X-X-X-X-X-X-X-X-X-X-X-X-X-X-X-X-X-X-X",
"-X-X-X-X-X-X-X-X-X-X-X-X-X-X-X-X  ' #X#X~., C P. XE -X-X-X-X-X-X-X-X-X-X-X-X-X-X-X-X-X-X-X-X-X-X-X-X-X-X-X-X-X-X-X-X-X-X-X-X-X-X",
"-X-X-X-X-X-X-X-X-X-X-X-X-X-X-X-XV [.&X%XXXj.V.I.I.I -X-X-X-X-X-X-X-X-X-X-X-X-X-X-X-X-X-X-X-X-X-X-X-X-X-X-X-X-X-X-X-X-X-X-X-X-X-X",
"-X-X-X-X-X-X-X-X-X-X-X-X-X-X-X-XD.%X&X%X+X%X+XI.i.-X-X-X-X-X-X-X-X-X-X-X-X-X-X-X-X-X-X-X-X-X-X-X-X-X-X-X-X-X-X-X-X-X-X-X-X-X-X-X",
"-X-X-X-X-X-X-X-X-X-X-X-X-X-X-XM #X%X%X#X&X%X%X!./ -X-X-X-X-X-X-X-X-X-X-X-X-X-X-X-X-X-X-X-X-X-X-X-X-X-X-X-X-X-X-X-X-X-X-X-X-X-X-X",
"-X-X-X-X-X-X-X-X-X-X-X-X-X-X-X6 oX$X#X).%XoX+X!.1.-X-X-X-X-X-X-X-X-X-X-X-X-X-X-X-X-X-X-X-X-X-X-X-X-X-X-X-X-X-X-X-X-X-X-X-X-X-X-X",
"-X-X-X-X-X-X-X-X-X-X-X-X-X-X-X< ).%X.XoX#X4.z.I.w.b -X-X-X-X-X-X-X-X-X-X-X-X-X-X-X-X-X-X-X-X-X-X-X-X-X-X-X-X-X-X-X-X-X-X-X-X-X-X",
"-X-X-X-X-X-X-X-X-X-X-X-X-X-X-X-X!.%X!.oXG._.H.I.z.G -X-X-X-X-X-X-X-X-X-X-X-X-X-X-X-X-X-X-X-X-X-X-X-X-X-X-X-X-X-X-X-X-X-X-X-X-X-X",
"-X-X-X-X-X-X-X-X-X-X-X-X-X-X1.m P.%XR.u.P.*XH.J.V.r -X-X-X-X-X-X-X-X-X-X-X-X-X-X-X-X-X-X-X-X-X-X-X-X-X-X-X-X-X-X-X-X-X-X-X-X-X-X",
"-X-X-X-X-X-X-X-X-X-X-X-X-X(.b.7./.%XS.v ].=Xj.I.z.@ -X-X-X-X-X-X-X-X-X-X-X-X-X-X-X-X-X-X-X-X-X-X-X-X-X-X-X-X-X-X-X-X-X-X-X-X-X-X",
"-X-X-X-X-X-X-X-X-X-X-X-Xk.oX%X$X&X&Xb.( ,.Z.z.H.z.4 -X-X-X-X-X-X-X-X-X-X-X-X-X-X-X-X-X-X-X-X-X-X-X-X-X-X-X-X-X-X-X-X-X-X-X-X-X-X",
"-X-X-X-X-X-X-X-X-X-X-X-XU OX%X$X&X&X$XS.w e.I.z.z.^ -X-X-X-X-X-X-X-X-X-X-X-X-X-X-X-X-X-X-X-X-X-X-X-X-X-X-X-X-X-X-X-X-X-X-X-X-X-X",
"-X-X-X-X-X-X-X-X-X-X-X@ k.#X%X%X%X%X%XR.t.V.I.z.z._ -X-X-X-X-X-X-X-X-X-X-X-X-X-X-X-X-X-X-X-X-X-X-X-X-X-X-X-X-X-X-X-X-X-X-X-X-X-X",
"-X-X-X-X-X-X-X-X-X-X-X- ~.%XQ.H.&X X).(.I.(.I.0.z.g -X-X-X-X-X-X-X-X-X-X-X-X-X-X-X-X-X-X-X-X-X-X-X-X-X-X-X-X-X-X-X-X-X-X-X-X-X-X",
"-X-X-X-X-X-X-X-X-X-X-X# e.OXu.n.@XW.9.^ 9.Z F 5.C.2 b -XY U -X-X-X-X-X-X-X-X-X-X-X-X-X-X-X-X-X-X-X-X-X-X-X-X-X-X-X-X-X-X-X-X-X-X",
"-X-X-X-X-X-X-X-X-X-X-X-Xu F.u.#X).t.h ; r . o g.g.g I v w.h.-X-X-X-X-X-X-X-X-X-X-X-X-X-X-X-X-X-X-X-X-X-X-X-X-X-X-X-X-X-X-X-X-X-X",
"-X-X-X-X-X-X-X-X-X-X-X-XU j.P.oXz.- 8 9 : l : g.B { U U u.z.4 -X-X-X-X-X-X-X-X-X-X-X-X-X-X-X-X-X-X-X-X-X-X-X-X-X-X-X-X-X-X-X-X-X",
"-X-X-X-X-X-X-X-X-X-X-X-X1.I.I.j.# 0 } q x v : g.k g.( h.K._ -X-X-X-X-X-X-X-X-X-X-X-X-X-X-X-X-X-X-X-X-X-X-X-X-X-X-X-X-X-X-X-X-X-X",
"-X-X-X-X-X-X-X-X-X-X-X-XT z.L.g -X-X|  .8 p p ^ Z H.j.h.L.h -X-Xb a -X-X-X-X-X-X-X-X-X-X-X-X-X-X-X-X-X-X-X-X-X-X-X-X-X-X-X-X-X-X",
"-X-X-X-X-X-X-X-X-X-X-X-X-X0.K.- -X-X| | 8 * G ~ F I.(.H.E.q.L K.p.T Y -X-X-X-X-X-X-X-X-X-X-X-X-X-X-X-X-X-X-X-X-X-X-X-X-X-X-X-X-X",
"-X-X-X-X-X-X-X-X-X-X-X-X-Xm ~ 5 -Xc o.| c % J 8.^ I.oX.X|.%X!.).@XF.d.E r -X-X-X-X-X-X-X-X-X-X-X-X-X-X-X-X-X-X-X-X-X-X-X-X-X-X-X",
"-X-X-X-X-X-X-X-X-X-X-Xv n l O A 5. .:.X. .9 F 1.H.I..X%X$X%X%X%X&X&X&X&XV = -X-X-X-X-X-X-X$ -X-X-Xo * -X-X-X-X-X-X-X-X-X-X-X-X-X",
"-X-X-X-X-X-X-X-X-X-X-XY  XH./ i.5.@.M.-.=...z.G 0.(.$X%X&X&X%X%X&X&X%X%XOXoXj : : o v v e P E u.l.! q.-X-X-X-X-X-X-X-X-X-X-X-X-X",
"-X-X-X-X-X-X-X-X-X-X-XE #X(.H.z.V.;.}.M.-.W w.<.0.@X$X%X&X&X&X%X%X&X%X%X%X%XQ.G.E 2.b. X^./.|.!.H.S.k.-X-X-X-X-X-X-X-X-X-X-X-X-X",
"-X-X-X-X-X-X-X-X-X-X-XE #X).j.`.c.N.$.N.O.) 1.1.C OX%X%X&X&X#X%XQ.#X&X%X$X[..X@X)./.oX%X%X%XoX(.I.W.q.-X-X-X-X-X-X-X-X-X-X-X-X-X",
"-X-X-X-X-X-X-X-X-X-X-XY @X).r.A.N.x...&.%.) E -Xy T.%X@X%X&X%X%Xl.Q. XE.OX).U.).%X%X%X%X@XOX!.I.J.I.g.-X-X-X-X-X-X-X-X-X-X-X-X-X",
"-X-X-X-X-X-X-X-X-X-X-X4.#XU.'.+.N.*.v.#.{.R -X-X3.S.@X).$X%X#X%X).w.v a S.&X). X%X$X%X&X(.I.J.I.I.J.H.-X-X-X-X-X-X-X-X-X-X-X-X-X",
"-X-X-X-X-X-X-X-X-X-X-XQ.&XR.*X+.=.*.=XW 8.2 -X-X` P.).).%X%X%X%X).j.n v I @X#X#X$X%X$X$X!.H.I.I.I.I.9.-X-X-X-X-X-X-X-X-X-X-X-X-X",
"-X-X-X-X-X-X-X-X-X/ v ^.%X).z.k & 1 H.g.U.- -X-X` ).).+X%X$X$X$X).m.R G v -Xu.@X[.$X#X(.I.I.I.I.I.I.{ -X-Xg < -X-X-X-X-X-X-X-X-X",
"-X-X-X-X-X-X-X-X-X0.b.oX%X!.H a.e.y.I.(.I.- -X-X] #X+X#X$X%X%X%X).L./ ! U G S #X+X+XOXI.I.J.I.H.I.I.z.h J m B -X-X-X-X-X-X-X-X-X",
"-X-X-X-X-X-X-X-X-XK.%X%X%XT.B (.OXoX(.).h., -X-Xr.%X%X%X%X%X$X#XW.J./ ( 8.! ! K. X).!.I.I.I.I.I.I.I.I.B 8.3.8.-X-X-X-X-X-X-X-X-X",
"-X-X-X-X-X-X-X-Xa.OX&X%X%X~.Z H.I.I.I.I./ -X-X-Xf.$X%X%X%X%X%XOXL.H.R ( 8.( 8.U l.Q.z.I.I.H.I.J.I.I.I.K ^ H.k.l -X-X-X-X-X-X-X-X",
"-X-X-X-X-X-X-Xa.@X$X&X%X%X%X[ { V.z.z.H.N -X-X-Xn |.%X%X%X$X&XOXI.w.R 5.{ 5.8.R l.P.z.I.J.I.I.J.I.I.J.z.y 8.n.g -X-X-X-X-X-X-X-X",
"-X-X-X-X-X-X{ w.#X$X%X$X%X#XS.A @ @ = y + -X-X-X+ j.+X%X%X$X$X!.I.w.3.R 8.8.( ( ( d.z.J.I.I.J.I.I.I.J.H.U g.g.g -X-X-X-X-X-X-X-X",
"-X-X-X-X-X-Xh. X$X&X&X&XoXh.u.d -X-X-X-X-X-X-X-XD Z (.$X%X+X).I.L.i.n.L F 8.{ 5./ a.P.z.L.L.J.I.I.I.J.I.( 4 ^ D -X-X-X-X-X-X-X-X",
"-X-X-X-X-XQ. X%X&X%X&XoX(.i.Y -X-X-X-X-X-X-X-X-X5.L i.)..X).H.I.H.n.I.{ h ( 8.5.k Y H.j.H.L.I.L.I.I.I.I.j.- H ! -X-X-X-X-X-X-X-X",
"-X-X-X-XH.OX%X%X$X%X#X!.(.^.v -X-X-X-X-X-X-X-X-Xi.k.( H.J.J.I.L.L.I.I.n.6 ~ / R 2 a 0.h.z.I.I.I.I.I.I.I.I.J k ^ + -X-X-X-X-X-X-X",
"-X-X-Xa.@X&X%X%X%X#X!.W.#X/.n -X-X-X-X-X-X-X-X/ L.L.g.z.L.J.n.L.L.I.I.L.h L n v -X-Xn h.z.I.I.I.J.J.I.J.L.( 5 ! = -X-X-X-X-X-X-X",
"-X( S.H.@X&X%X%X#Xd.K D.~.!.8.-X-X-X-X-X-X-Xv k.I.I.w.1.J.z.R z.J.I.L.J.D : -X-X-X-XG n.h.H.J.I.I.J.I.J.I.H.q.v a -X-X-X-X-X-X-X",
"d F.@XoX$X%X%X$Xb.p.Z s.7.~.P.-X-X-X-X-X-X-Xn z.I.I.g.R T I l C I.I.I.h.: -X-X-X-X-X-X0.z.z.I.L.J.I.J.I.J.I.H.g -X-X-X-X-X-X-X-X",
"a 2.d./.^.#Xd.F.U k.L B.u.7.-X-X-X-X-X-X-X-X-XL W.n.3./ a -X-X< B I.I.0.j -X-X-X-X-X-X3.H.w.H.I.J.I.I.J.J.I.I.{ 3 -X-X-X-X-X-X-X",
"-Xa s u.7.G.v -X-Xh.r.B.b.s -X-X-X-X-X-X-X-X-X< Q H ! U -X-X-X-XX K 8.8.( v -X-X-X-X-X/ n.9.h.J.I.J.I.I.I.I.I.I.D -X-X-X-X-X-X-X",
"-X-X-X-X-X-X-X-X-X( S.u.u.-X-X-X-X-X-X-X-X-X-X-XX 2 ( m -X-X-X-X-X  r 5.( b -X-X-X-X-X-Xh.k.w.J.J.I.I.J.I.H.I.I.h.U -X-X-X-X-X-X",
"-X-X-X-X-X-X-X-X-X-X8.0.n -X-X-X-X-X-X-X-X-X-X-XH H U b -X-X-X-X-X-XU 8.6.) -X-X-X-X-X-Xh.H.g.J.J.I.I.I.I.I.J.I.H.z.3 -X-X-X-X-X",
"-X-X-X-X-X-X-X-X-X-X-X-X-X-X-X-X-X-X-X-X-X-X-X-XU z z b -X-X-X-X-X-X! ! n H -X-X-X-X-XG w.z.z.z.S.I.I.I.I.J.I.J.I.H.h.Y a -X-X-X",
"-X-X-X-X-X-X-X-X-X-X-X-X-X-X-X-X-X-X-X-X-X-X-X-X/ l 2 C -X-X-X-X-X-XG U b 0.n -X-X-X-XE.H.0.k.H.H.H.H.I.I.I.J.J.I.I.I.h.w.h.w.( ",
"-X-X-X-X-X-X-X-X-X-X-X-X-X-X-X-X-X-X-X-X-X-X-X-X/ n -XK -X-X-X-X-X-Xt ! b w.l -X-X-Xz. XI.q.0.z.(.J.K.I.I.L.L.K.I.J.I.I.I.z.P.U.",
"-X-X-X-X-X-X-X-X-X-X-X-X-X-X-X-X-X-X-X-X-X-X-X-X-Xa -XB -X-X-X-X-X-X= ~ -XU 7 -X-X-Xl.b.0.l.( U [.(.!.I.J.L.L.K.I.H.I.(.(.(.oX/.",
"-X-X-X-X-X-X-X-X-X-X-X-X-X-X-X-X-X-X-X-X-X-X-X-X-X-X-X  -X-X-X-X-X-X- B -Xg 6 -X-X-X|.d.G h.i.3 R.#X.XI.I.I.I.W.I.I.(.&X#X@XG.v ",
"-X-X-X-X-X-X-X-X-X-X-X-X-X-X-X-X-X-X-X-X-X-X-X-X-X-X-X-X-X-X-X-X-X-X-XX -X-XX -X-X-X-Xn ( 0.i.-X-XE 4.+X#X#X@X@X#X#X#X%X^.T I -X",
"-X-X-X-X-X-X-X-X-X-X-X-X-X-X-X-X-X-X-X-X-X-X-X-X-X-X-X-X-X-X-X-X-X-X-X-X-X-X-X-X-X-X-XU E.P.<.-X-X-Xb G.F.#XF.#XG.b.4.4.<.-X-X-X",
"-X-X-X-X-X-X-X-X-X-X-X-X-X-X-X-X-X-X-X-X-X-X-X-X-X-X-X-X-X-X-X-X-X-X-X-X-X-X-X-X-X-X-X-X[.S.z -X-X-X-Xu.u.F.<.f.<.<.i i -X-X-X-X",
"-X-X-X-X-X-X-X-X-X-X-X-X-X-X-X-X-X-X-X-X-X-X-X-X-X-X-X-X-X-X-X-X-X-X-X-X-X-X-X-X-X-X-X-X[ P -X-X-X-X-X-X-X-X-Xa -X-X-X-X-X-X-X-X",
"-X-X-X-X-X-X-X-X-X-X-X-X-X-X-X-X-X-X-X-X-X-X-X-X-X-X-X-X-X-X-X-X-X-X-X-X-X-X-X-X-X-X-X-X    -X-X-X-X-X-X-X-X-X-X-X-X-X-X-X-X-X-X"
};
