/* XPM */
static char *result[] = {
/* columns rows colors chars-per-pixel */
"64 64 227 2 ",
"   c #010102",
".  c #0A070D",
"X  c #0E0A14",
"o  c #110C19",
"O  c #17131C",
"+  c #18151A",
"@  c #300E16",
"#  c #150E22",
"$  c #1A1522",
"%  c #1D1726",
"&  c #221A2C",
"*  c #281C25",
"=  c #251B33",
"-  c #3B172B",
";  c #25212A",
":  c #28232D",
">  c #232026",
",  c #2C2932",
"<  c #2A223A",
"1  c #342D3A",
"2  c #38323F",
"3  c #30242E",
"4  c #641A30",
"5  c #771D3B",
"6  c #41313E",
"7  c #7F203F",
"8  c #364737",
"9  c #2A1A47",
"0  c #392B4B",
"q  c #332747",
"w  c #3B3443",
"e  c #3B324E",
"r  c #3D2D5D",
"t  c #382955",
"y  c #3D3252",
"u  c #2D2244",
"i  c #361E6A",
"p  c #3C2862",
"a  c #3D2274",
"s  c #7E1F40",
"d  c #433C4D",
"f  c #41354E",
"g  c #483E55",
"h  c #443857",
"j  c #422E56",
"k  c #702649",
"l  c #443463",
"z  c #4A3B65",
"x  c #4C3C6B",
"c  c #483468",
"v  c #533B6E",
"b  c #462C75",
"n  c #4C317B",
"m  c #4E3B70",
"M  c #543A77",
"N  c #412D62",
"B  c #4C4454",
"V  c #4B4A59",
"C  c #4A4359",
"Z  c #534E5E",
"A  c #5A765B",
"S  c #554C62",
"D  c #53436E",
"F  c #564967",
"G  c #5E5469",
"H  c #5A5468",
"J  c #554571",
"K  c #5B4B73",
"L  c #5D447B",
"P  c #5C4C78",
"I  c #574A79",
"U  c #5F5371",
"Y  c #5E547B",
"T  c #7B4769",
"R  c #60566A",
"E  c #645A6F",
"W  c #625376",
"Q  c #695D76",
"!  c #63547B",
"~  c #635878",
"^  c #6C5C7D",
"/  c #675876",
"(  c #735A76",
")  c #62467E",
"_  c #626173",
"`  c #6B647A",
"'  c #6C697C",
"]  c #696477",
"[  c #71657E",
"{  c #861F3E",
"}  c #832141",
"|  c #962743",
" . c #97334E",
".. c #A43047",
"X. c #BB465A",
"o. c #915971",
"O. c #B6556A",
"+. c #A55D74",
"@. c #A2677A",
"#. c #B86378",
"$. c #C24B5E",
"%. c #C2596D",
"&. c #CB6877",
"*. c #563885",
"=. c #5A3792",
"-. c #653F9D",
";. c #5F4282",
":. c #5F4C81",
">. c #5E4093",
",. c #664984",
"<. c #6D4D8D",
"1. c #654788",
"2. c #655882",
"3. c #6C5C83",
"4. c #6A518B",
"5. c #6A5B88",
"6. c #6B4B96",
"7. c #6E4B9B",
"8. c #634496",
"9. c #724F98",
"0. c #6E5A93",
"q. c #725292",
"w. c #75549B",
"e. c #75599D",
"r. c #7A5B9D",
"t. c #755897",
"y. c #726283",
"u. c #736982",
"i. c #73648A",
"p. c #7B6B8C",
"a. c #7A6C89",
"s. c #777289",
"d. c #7C6C92",
"f. c #766894",
"g. c #7E7192",
"h. c #7C7897",
"j. c #6B618B",
"k. c #6D49A4",
"l. c #724DA2",
"z. c #784FAA",
"x. c #7451A5",
"c. c #7959A5",
"v. c #7E57B3",
"b. c #7D62A8",
"n. c #876C88",
"m. c #827394",
"M. c #83759A",
"N. c #827A9B",
"B. c #8B7D9D",
"V. c #867A95",
"C. c #887090",
"Z. c #AE7487",
"A. c #815DA9",
"S. c #8156B4",
"D. c #835AB4",
"F. c #875ABD",
"G. c #8465A9",
"H. c #837AA1",
"J. c #8D7EA0",
"K. c #8577A5",
"L. c #8865B1",
"P. c #926FBC",
"I. c #907EB0",
"U. c #D97585",
"Y. c #CE6F82",
"T. c #8C5EC3",
"R. c #8F5FC8",
"E. c #905FC8",
"W. c #9262CA",
"Q. c #996DCE",
"!. c #9368C5",
"~. c #9973C4",
"^. c #9D76CB",
"/. c #9F78CE",
"(. c #9772C2",
"). c #9D72D1",
"_. c #9468C9",
"`. c #A17ACF",
"'. c #A177D3",
"]. c #A57DD5",
"[. c #A67DD8",
"{. c #A97EDC",
"}. c #7E8197",
"|. c #8D819E",
" X c #84829A",
".X c #8B9592",
"XX c #9AB297",
"oX c #8D83A4",
"OX c #8D8CA6",
"+X c #8D87AC",
"@X c #9484A4",
"#X c #988AA6",
"$X c #948BAC",
"%X c #998AAA",
"&X c #9887A7",
"*X c #9791AB",
"=X c #9A8BB1",
"-X c #9690B3",
";X c #9D93B3",
":X c #9B96BA",
">X c #9D99BA",
",X c #9999B6",
"<X c #8F89B0",
"1X c #A49DAC",
"2X c #A195B5",
"3X c #A49CBC",
"4X c #A49AB7",
"5X c #B4A2B3",
"6X c #D88896",
"7X c #E28897",
"8X c #A39DC2",
"9X c #A980D9",
"0X c #A883D5",
"qX c #A082CD",
"wX c #A5A2C4",
"eX c #ABA4C4",
"rX c #ADAACB",
"tX c #B1AECE",
"yX c #B8AEC2",
"uX c #B6B3C9",
"iX c #B4B3D3",
"pX c #B9B9D9",
"aX c #B8B8D7",
"sX c #AFB0CE",
"dX c #CEC7CB",
"fX c #E8E7EA",
"gX c None",
/* pixels */
"gXgXy.y.gXgXgXgXgXgXgXgXgXgXgXgXgXgXgXgXgXgXgXgXgXgXgXgXgXgXgXgXgXgXgXgXgXgXgXgXgXgXgXgXgXgXgXgXgXgXgXgXgXgXgXgXgXgXgXgXgXgXgXgX",
"gXgXp.$X3.y.gXgXgXgXgXgXgXgXgXgXgXgXgXgXgXgXgXgXgXgXgXgXgXgXgXgXgXgXgXgXgXgXgXgXgXgXgXgXgXgXgXgXgXgXgXgXgXgXgXgXgXgXgXgXgXgXgXgX",
"gXD H.H.>Xi.sXeXgXgXgXgXgXgXgXgXgXgXgXgXgXgXgXgXgXgXgXgXgXgXgXgXgXgXgXgXgXgXgXgXgXgXgXgXgXgXgXgXgXgXgXgXgXgXgXgXgXgXgXgXgXgXgXgX",
"gXgXK.f.f.q.$XtXoXgXgXgXgXgXgXgXgXgXgXgXgXgXgXgXgXgXgXgXgXgXgXgXgXgXgXgXgXgXgXgXgXgXgXgXgXgXgXgXgXgXgXgXgXgXgXgXgXgXgXgXgXgXgXgX",
"gXgXgX<.7.S.5.2X3Xm.gXgXgXgXgXgXgXgXgXgXgXgXgXgXgXgXgXgXgXgXgXgXgXgXgXgXgXgXgXgXgXgXgXgXgXgXgXgXgXgXgXgXgXgXgXgXgXgXgXgXgXgXgXgX",
"gXgXgXgXD.W.x.L.I.M.gXgXgXgXgXgXgXgXgXgXgXgXgXgXgXgXgXgXgXgXgXgXgXgXgXgXgXgXgXgXgXgXgXgXgXgXgXgXgXgXgX@X&XgX4XgX%X4XgXgXgXgXgXgX",
"gXgXgXgXq.D.E.W.6.g.B.gXgXgXgXgXgXgXgXgXgXgXgXgXgXgXgXgXgXgXgXgXgXgXgXgXgXgXgXgXgXgXgXgXgXgXgXgX2X4X3X4X4X4X:X2X4X:X4X;XB.gXgXgX",
"gXgXgXgXgX<.D.W.7.f.V.gXgXgXgXgXgXgXgXgXgXgXgXgXgXgXgXgXgXgXgXgXgXgXgXgXgXgXgXgXgXgXgXgXgXgXgXgXrXpXrXwX8X:X0.wX:Xf.wX3XoXp.gXgX",
"gXgXgXgXgXgXD.W.W.1.i.D gXl gXgXgXgXgXgXgXgXgXgXgXgXgXgXgXgXgXgXgXgXgXgXgXgXgXgXgXgXgXgXgXgXa.oXsXsXh.c c m l.m F.l.c 2.rX8Xy.gX",
"gXgXgXgXgXgXS._.).D.j.rX%X3.l gXgXgXgXgXgXgXgXgXgXgXgXgXgXgXgXgXgXgXgXgXgXgXgXgXgXgXgXgXgX$XiX8X2.c 7.T.T.T.W.F.R.T.T.l.c x gXgX",
"gXgXgXgXgXgXw.!.[.D.O h.tX@Xg.c gXgXgXgXgXgXgXgXgXgXgXgXgXgXgXgXgXgXgXgXgXgXgXgX3X|.. gXN.3X! 6.T.F.F.W.W.R.E.W.E.W.=.a i gXgXgX",
"gXgXgXgXgXgXgXA.9XD.$ q u.R ;X' gXgXgXgXgXgXgXgXgXgXgXgXgXgXgXgXgXgXgXgXgXgXgXgX, OX' f g.%XL v.R.R.W.R.R.W.E.E.-.k.a gXgXgXgXgX",
"gXgXgXgXgXgXgXc.9X).P Y V.U S *XgXgXgXgXgXgXgXgXgXgXgXgXgXgXgXgXgXgXgXgXgXgXgXgXo }.Y F J.p.m T.R.R.E.R.E.R.W.*.t gXgXgXgXgXgXgX",
"gXgXgXgXgXgXgXr.(.9XqX;XB.! u V gXgXgXgXgXgXgXgXgXgXgXgXgXgXgXgXgXgXgXgXgXgXgXr q s.y < ! r.7.E.R.R.R.Q.Q.).T.p gXgXgXgXgXgXgXgX",
"gXgXgXgXgXgXgXgXw.!.K.V./ I I % gXgXgXgXgXgXgXgXgXgXgXgXgXgXgXgXgXgXgXgXgXgXgXf.J d.h , ! <.W.E.R.W.Q.'.).9Xl.gXgXgXgXgXgXgXgXgX",
"gXgXgXgXgXgXgXgX<.G.V V K J +Xh gXgXgXgXgXgXgX, r gXgXgXgXgXgXgXgXgXgXgXgXgXg.-Xi.d.u. XOXm W.E.W.).9X9X{.L.1.gXgXgXgXgXgXgXgXgX",
"gXgXgXgXgXgXgXgXgXA.W ~ w.x <Xy gXgXgXgXgXgXgXs.2.gXgXgXgXgXgXgXgXgXgXgXgXgXgXD 3.m.%X8XV.6.W.W.'.9X9X9XQ.q gXgXgXgXgXgXgXgXgXgX",
"gXgXgXgXgXgXgXgXgXt.`.9X{.e.:X+XgXgXgXgXgXgXB sXY gXgXgXgXgXgXgXgXgXgXgXgXgXgXr 3.#X&X@XM.7.W.Q.9X9X9X9Xc.gXgXgXgXgXgXgXgXgXgXgX",
"gXgXgXgXgXgXgXgXgXr.].9X9Xe.:X<XgXgXgXgXgX% ,X8XJ gXgXgXgXgXgXgXgXgXgXgXgXgXgXgX3.%Xf.x S.Q.].9X9X9X9X{.M gXgXgXgXgXgXgXgXgXgXgX",
"gXgXgXgXgXgXgXgXgX`.].9X{.6.:XiXj.gXgXgXgX}.pXh.gXgXgXgXgXgXgXgXgXgXgXgXgXgXgXgXd.=X1.F.T.).9X9X].9X].>.gXgXgXgXgXgXgXgXgXgXgXgX",
"gXgXgXgXgXgXgXgXgXG.].9X9Xw.:XpXV . J x Y wXiX5.gXgXgXgXgXgXgXgXgXgXgXgXgXgXgXd.rX-X;.W._.].9X9X9X9X].0 gXgXgXgXgXgXgXgXgXgXgXgX",
"gXgXgXgXgXgXgXgXgX(.].9X{.L OXtXOXh.H & g.4X>XK gXgXgXgXgXgXgXgXgXgXgXgXgXgXgX3X-Xb.v.W.).9X9X9X9X9XD.# gXgXgXgXgXgXgXgXgXgXgXgX",
"gXgXgXgXgXgXgXgXgX/.9X9X(.# ` rXpXpX X` &X%XJ.gXgXgXgXgXgXgXgXgXgXgXgXgXgXgXu.rXH.z.W.Q.].9X9X9X9X(.N gXgXgXgXgXgXgXgXgXgXgXgXgX",
"gXgXgXgXgXgXgXgXgX~.9X].c.V N.aXpXiXtXpX2X&X3.gXgXgXgXgXgXgXgXgXgXgXgXgXgXgXy.sXf.l.W.).9X9X9X].9Xf.gXgXgXgXgXgXgXgXgXgXgXgXgXgX",
"gXgXgXgXgXgXgXgXgX~.9X`.I pXpXpXaXaXpXpXtXJ.x gXgXgXgXgXgXgXgXgXgXgXgXgXgXgXV.+XH l.W.'.9X9X9X9X9Xb.gXgXgXgXgXgXgXgXgXgXgXgXgXgX",
"gXgXgXgXgXgXgXgXgX~.9X^.d sXpXpXiXaXrXeX3XJ.D gXgXgXgXgXgXgXgXgXgXgXgXgXgXy.>XC m W.).{.9X9X9X9X9Xc.gXgXgXgXgXgXgXgXgXgXgXgXgXgX",
"gXgXgXgXgXgXgXgXt.~.[.^.f 3XpXaX8XtXh.i.&X&X^ gXgXgXgXgXgXgXgXgXgXgXgXgXgXH.iX:.T.W.9X9X{.9X9X9X9Xt.gXgXgXgXgXgXgXgXgXgXgXgXgXgX",
"gXgXgXgXgXgXgXgXL.[.W.T.4.$XpXrXrX:X1X3X&X%Xd.gXgXgXgXgXgXgXgXgXgXgXgXgXgXoXsXy T.).9X9X9X9X].9X`.= gXgXgXgXgXgXgXgXgXgXgXgXgXgX",
"gXgXgXgXgXgXgXgXl.0X=X4.v $XpX>X%XN.fX#X@X*X[ = l gXgXgXgXgXgXgXgXgXgXgX3XiXrXe T.).9X9X9X9X9X9X^.% gXgXgXgXgXgXgXgXgXgXgXgXgXgX",
"gXgXgXgXgXgXgXgX*.=XtX8X3XrXpX>X2..XXX|.#X%X] g m.gXgXgXp gXgXgXgXgXgXgXwX:Xb.D.Q.9X9X9X9X].9X9X^.p gXgXgXgXgXgXgXgXgXgXgXgXgXgX",
"gXgXgXgXgXgXgXgXa i.aXpXpXpXpX$XN 8 A |.#XV.V.B y.c gXK p.D gXgXgXgXgXoXaX XM k.W.x.9X9X9X9X9X9X[.v.gXgXgXgXgXgXgXgXgXgXgXgXgXgX",
"gXgXgXgXgXgXgXgXgX2.iXaXpXpXpXwXh.G s.#X#XC.&XB Q K gXK %XK gXgXgX-XrXrXtXi.9 a =.*.8.8.x.9X9X9X'.v gXgXgXgXgXgXgXgXgXgXgXgXgXgX",
"gXgXgXgXgXgXgXgXgXY iXaXOXwXpXpXtX;X;X%X%Xy.@XB [ P D a.%X` o gXg.eXiXh.f.! N n n 1.n b M l.z.].^.9 gXgXgXgXgXgXgXgXgXgXgXgXgXgX",
"gXgXgXgXgXgXgXgX> Q wX>Xh.>XiXsX2XB.E E a.p.m.B n.y.P @X#X^ e i.;X,Xu.0 v w.q.q.q.q.<.q.1.b *.'.[.k.gXgXgXgXgXgXgXgXgXgXgXgXgXgX",
"gXgXgXgXgXgXgXgXB V.oXg.wX>XV.o.C.( X . w %XR R %X;Xf.$X;X2.H.g.3XS = ,.,.*.) ) <.q.q.<.L q.9.w.G.G.gXgXgXgXgXgXgXgXgXgXgXgXgXgX",
"gXgXgXgXgXgXgXgXgXf.&X&XQ B 3 - { k t t d m.w @X$X4XaXaXaXaX4X1 ,.4.<.0 z 9 gX  gXgXgXgX  gXgX      gXgXgXgXgXgXgXgXgXgXgXgXgXgX",
"gXgXgXgXgXgXgXgXgXD J.|.; gX4 ..{ 4 = r ! w D &X&X3XpXaXpXpXu.X ,.q.v . gXgXgXgXgXgXgXgXgXgXgXgXgXgXgXgXgXgXgXgXgXgXgXgXgXgXgXgX",
"gXgXgXgXgXgXgXgXgXgX! B.+ gXgX} } } - O B.w v i.2XtXaXpXpXpX' j q.<.= gXgXgXgXgXgXgXgXgXgXgXgXgXgXgXgXgXgXgXgXgXgXgXgXgXgXgXgXgX",
"gXgXgXgXgXgXgXgXgXgXgX* gXgX} | | { 4 @ a.& v i.tXaXaXpXpXwXP <.q.M gXgXgXgXgXgXgXgXgXgXgXgXgXgXgXgXgXgXgXgXgXgXgXgXgXgXgXgXgXgX",
"gXgXgXgXgXgXgXgXgXgXgXgXgXgX{ $.$.O...( i.9 gX; ,XpXpXaXpXrXi.<.M v gXgXgXgXgXgXgXgXgXgXgXgXgXgXgXgXgXgXgXgXgXgXgXgXgXgXgXgXgXgX",
"gXgXgXgXgXgXgXgXgXgXgXgXgXgX..&.U.U. .C.P gXgX  OXpXpXaXaXaXH.*.M ! gXgXgXgXgXgXgXgXgXgXgXgXgXgXgXgXgXgXgXgXgXgXgXgXgXgXgXgXgXgX",
"gXgXgXgXgXgXgXgXgXgXgXgXgXg.O.7X7XU.o.h.l gXgXg oXpXtXaXpXpX-XL L ! gXgXgXgXgXgXgXgXgXgXgXgXgXgXgXgXgXgXgXgXgXgXgXgXgXgXgXgXgXgX",
"gXgXgXgXgXgXgXgXgXgXgXgXW n.&.7X7X%.o.oXc gXgX3.B.tX8XiXpXpXeXy.K 3.x gXgXgXgXgXgXgXgXgXy.p.p.p.u.gXgXgXgXgXgXgXgXgXgXgXgXgXgXgX",
"gXgXgXgXgXgXgXgXgXgXgXm.i.T &.6XU.X.T f.z gXgX_ %X3XrXpXaXpXrX%Xy.&XD c gXgXgXgXgXgXa.p.m.%X%X%Xm.K x gXgXgXgXgXgXgXgXgXgXgXgXgX",
"gXgXgXgXgXgXgXgXgXgXgX1X1X6X&.#.O.@.yX/ r gXgX_ rXwXtXaXaXaXaXtX%X&XK K l gXgXgXc D @X&X&X%X&X%X&X%Xi.& + gXgX+ gXgXgXgXgXgXgXgX",
"gXgXgXgXgXgXgXgXgXgXgXyX5XO.6X@.@.k i., gXgXgX] pXaXaXaXpXpXaX4X&X@XP ^ ^ z h x ^ B.&X%X&X&X&X@X@X@X@X@Xi.gX1 g gXgXgXgXgXgXgXgX",
"gXgXgXgXgXgXgXgXgXgXgXP n...%.Z.dXV.;X: gXgXgXh.pXpXpXaXaXaXaX2X&X3.~ ^ ^ ^ ^ ^ m.%X&X&X%X&XB.x c P &X&X@XP D B gXgXgXgXgXgXgXgX",
"gXgXgXgXgXgXgXgXgXgXgXO ( 6 @ f %XwX%X: gXgXgXI wXpXaXaXpXpXrX%X%X2.y.P y.^ y.^ m.#X#X%XM.D D gXgXgXD p.y.oXB.! gXgXgXgXgXgXgXgX",
"gXgXgXgXgXgXgXgXgXgXgX. a.V.}.OX;X;Xp.gXgXgXgXo m.tXpXaXpX3X;X&XJ.m.J.S F y.y.[ y.&X%Xi.J gXgXgXgXgXgXJ v 3.V.B.: gXgXgXgXgXgXgX",
"gXgXgXgXgXgXgXgXgXgXgXgXV 2XeXwX2X%XF gXgXgXgXC V %X3X3X4X%X&X&X@X@X%X[ 2 ^ ^ y.y.p.! J gXgXgXgXgXgXgXgXy.p.y.B.; gXgXgXgXgXgXgX",
"gXgXgXgXgXgXgXgXgXgXgXgX2 #X%X%X%X^ 1 gXgXgXgXy.R y.@X%X&X%X%X&X&X&X%XJ.3 / y./ w w t gXgXgXgXgXgXgXgXgXa.@Xm.a.0 gXgXgXgXgXgXgX",
"gXgXgXgXgXgXgXgXgXgXgXgXgX^ R R G q gXgXgXgXgXd.@X! i.m.%X&Xm.@X#X&X#X%Xf g P C     gXgXgXgXgXgXgXgXgXD P p.m.` F gXgXgXgXgXgXgX",
"gXgXgXgXgXgXgXgXgXgXgXgXgX&       gXgXgXgXgXK &X%XB.J K m.d.D ~ &X&X&X#XF o p l gXgXgXgXgXgXgXgXgXgXgXK j I ! 3.G   gXgXgXgXgXgX",
"gXgXgXgXgXgXgXgXgXgXgXgXgXgXgXgXgXgXgXgXgXgXK &X&X%Xn.W l N r & [ @X%X&XJ + gXgXgXgXgXgXgXgXgXgXgXgXgXl gXr j J F o gXgXgXgXgXgX",
"gXgXgXgXgXgXgXgXgXgXgXgXgXgXgXgXgXgXgXgXgXgXK @X%X&Xp.P gXgXgXgX  Z @Xm.^ K gXgXgXgXgXgXgXgXgXgXgXgXgXgXgXgXgXl l r gXgXgXgXgXgX",
"gXgXgXgXgXgXgXgXgXgXgXgXgXgXgXgXgXgXgXgXgXgXgXZ %Xi.W z gXgXgXgXgX. O K y.W gXgXgXgXgXgXgXgXgXgXgXgXgXgXgXgXgXgXgXgXgXgXgXgXgXgX",
"gXgXgXgXgXgXgXgXgXgXgXgXgXgXgXgXgXgXgXgXgXgXgX+ + w / z gXgXgXgXgXgXe ! ^ ( gXgXgXgXgXgXgXgXgXgXgXgXgXgXgXgXgXgXgXgXgXgXgXgXgXgX",
"gXgXgXgXgXgXgXgXgXgXgXgXgXgXgXgXgXgXgXgXgXgXgXu h C ! c gXgXgXgXgXgXv y.K K K gXgXgXgXgXgXgXgXgXgXgXgXgXgXgXgXgXgXgXgXgXgXgXgXgX",
"gXgXgXgXgXgXgXgXgXgXgXgXgXgXgXgXgXgXgXgXgXgXgXc ! y F U gXgXgXgXgXgXgX! x J P gXgXgXgXgXgXgXgXgXgXgXgXgXgXgXgXgXgXgXgXgXgXgXgXgX",
"gXgXgXgXgXgXgXgXgXgXgXgXgXgXgXgXgXgXgXgXgXgXgXl 3.q 2 E gXgXgXgXgXgXgXC J J ! gXgXgXgXgXgXgXgXgXgXgXgXgXgXgXgXgXgXgXgXgXgXgXgXgX",
"gXgXgXgXgXgXgXgXgXgXgXgXgXgXgXgXgXgXgXgXgXgXgXgX! c gXw gXgXgXgXgXgXgXB F gXF y gXgXgXgXgXgXgXgXgXgXgXgXgXgXgXgXgXgXgXgXgXgXgXgX",
"gXgXgXgXgXgXgXgXgXgXgXgXgXgXgXgXgXgXgXgXgXgXgXgXr gXgX  gXgXgXgXgXgXgXw ; gXG > gXgXgXgXgXgXgXgXgXgXgXgXgXgXgXgXgXgXgXgXgXgXgXgX",
"gXgXgXgXgXgXgXgXgXgXgXgXgXgXgXgXgXgXgXgXgXgXgXgXgXgXgXgXgXgXgXgXgXgXgXgX  gX[ % gXgXgXgXgXgXgXgXgXgXgXgXgXgXgXgXgXgXgXgXgXgXgXgX",
"gXgXgXgXgXgXgXgXgXgXgXgXgXgXgXgXgXgXgXgXgXgXgXgXgXgXgXgXgXgXgXgXgXgXgXgXgXgX    gXgXgXgXgXgXgXgXgXgXgXgXgXgXgXgXgXgXgXgXgXgXgXgX"
};
