/* XPM */
static char *result[] = {
/* columns rows colors chars-per-pixel */
"64 64 197 2 ",
"   c #010102",
".  c #070708",
"X  c #09070A",
"o  c #0B090D",
"O  c #0B0206",
"+  c #120C0F",
"@  c #10070B",
"#  c #0E0C11",
"$  c #130F1A",
"%  c #110E14",
"&  c #131115",
"*  c #15131B",
"=  c #1A151D",
"-  c #1B181E",
";  c #220D1A",
":  c #3A121F",
">  c #1B1526",
",  c #1D1B22",
"<  c #1C1629",
"1  c #160D2B",
"2  c #211C26",
"3  c #241C2C",
"4  c #251C32",
"5  c #271D37",
"6  c #2A262F",
"7  c #26232C",
"8  c #2C2732",
"9  c #2B2A31",
"0  c #2C223A",
"q  c #312B36",
"w  c #31233E",
"e  c #342F39",
"r  c #39313D",
"t  c #36343E",
"y  c #5B152C",
"u  c #7A1F3E",
"i  c #6E1C38",
"p  c #2C5427",
"a  c #25144D",
"s  c #362A4C",
"d  c #372C4A",
"f  c #3B3442",
"g  c #3C3845",
"h  c #3E3D49",
"j  c #3E2E5D",
"k  c #3A2C57",
"l  c #3F305E",
"z  c #3D3253",
"x  c #351C6B",
"c  c #381F6D",
"v  c #391F71",
"b  c #2D1665",
"n  c #3B226F",
"m  c #3E2471",
"M  c #433C4B",
"N  c #413A47",
"B  c #42335D",
"V  c #462B57",
"C  c #7F2141",
"Z  c #443463",
"A  c #493A67",
"S  c #4B3C6A",
"D  c #543C67",
"F  c #442A75",
"G  c #482E73",
"H  c #4E337C",
"J  c #50347C",
"K  c #563B78",
"L  c #42414D",
"P  c #4B4353",
"I  c #4A4757",
"U  c #534A5C",
"Y  c #52515F",
"T  c #4F416D",
"R  c #564C60",
"E  c #53446D",
"W  c #56486F",
"Q  c #5A4E69",
"!  c #5F5569",
"~  c #5F5F6F",
"^  c #544573",
"/  c #584476",
"(  c #5B4C74",
")  c #5B4C79",
"_  c #5B4877",
"`  c #5E527E",
"'  c #61576C",
"]  c #644A73",
"[  c #625375",
"{  c #655D72",
"}  c #695D75",
"|  c #63537C",
" . c #6D5D7D",
".. c #6E627A",
"X. c #6B6A7E",
"o. c #676679",
"O. c #71657D",
"+. c #716F7D",
"@. c #83223B",
"#. c #832241",
"$. c #992943",
"%. c #833B59",
"&. c #A32D44",
"*. c #B63A4D",
"=. c #BA4256",
"-. c #915067",
";. c #9D4A63",
":. c #AD536B",
">. c #BB6175",
",. c #A06578",
"<. c #C14456",
"1. c #CF5767",
"2. c #D15D6D",
"3. c #D36877",
"4. c #669061",
"5. c #583B81",
"6. c #5F4286",
"7. c #604680",
"8. c #6D4E8D",
"9. c #674A88",
"0. c #645681",
"q. c #655A83",
"w. c #6D5D85",
"e. c #6F4F90",
"r. c #715190",
"t. c #6E6E82",
"y. c #6E628D",
"u. c #6F6085",
"i. c #726283",
"p. c #766A82",
"a. c #73648A",
"s. c #7B6C8C",
"d. c #7A6D87",
"f. c #7B748C",
"g. c #717184",
"h. c #7C6C92",
"j. c #736995",
"k. c #7C7C91",
"l. c #7D749C",
"z. c #80738E",
"x. c #827394",
"c. c #847B94",
"v. c #857599",
"b. c #8B7C9D",
"n. c #877999",
"m. c #A76E81",
"M. c #A77585",
"N. c #8F7FA0",
"B. c #857FA4",
"V. c #CB6E82",
"C. c #D17385",
"Z. c #8F809F",
"A. c #83839A",
"S. c #90819F",
"D. c #93899D",
"F. c #8C85AC",
"G. c #8E89AE",
"H. c #8C86A4",
"J. c #9485A5",
"K. c #9887A7",
"L. c #9589A5",
"P. c #9888A7",
"I. c #948BAA",
"U. c #9989A9",
"Y. c #9787A8",
"T. c #9694AA",
"R. c #978DB6",
"E. c #9180B1",
"W. c #9792B6",
"Q. c #9C94B4",
"!. c #9B99B5",
"~. c #9B95BB",
"^. c #9F9CBF",
"/. c #A096AB",
"(. c #A195B5",
"). c #A49CBC",
"_. c #B59DA6",
"`. c #B6B3BF",
"'. c #ACABAE",
"]. c #DE8494",
"[. c #A39EC0",
"{. c #A5A2C2",
"}. c #AAA4C5",
"|. c #A9A6C8",
" X c #ADABCB",
".X c #ABA9C7",
"XX c #B1ADCD",
"oX c #B1AFD0",
"OX c #B5B4D5",
"+X c #B8B7D7",
"@X c #B9B9D9",
"#X c #B9B8D8",
"$X c #CABAC6",
"%X c #D9D8DA",
"&X c #CAC5D2",
"*X c #E7E6E8",
"=X c None",
/* pixels */
"=X=X=X=X=X=X=X=X=X=X=X=XZ Z =X=X=X=X=X=X=X=X=X=X=X=X=X=X=X=X=X=X=X=X=X=X=X=X=X=X=X=X=X=X=X=X=X=X=X=X=X=X=X=X=X=X=X=X=X=X=X=X=X=X",
"=X=X=X=X=X=X=X=X=X=X=X=Xj F.) =X=X=X=X=X=X=X=X=X* k =X=X=X=X=X=X=X=X=X=X=X=X=X=X=X=X=X=X=X=X=X=X=X=X=X=X=X=X=X=X=X=X=X=X=X=X=X=X",
"=X=X=X=X=X=X=X=X=X=X=X=Xj G.` =X=X=X=X=X=X=X=X& H.S =X=X=X=X=X=X=X=X=X=X=X=X=X=X=X=X=X=X=X=X=X=X=X=X=X=X=X=X=X=X=X=X=X=X=X=X=X=X",
"=X=X=X=X=X=X=X=X=X=X=X=Xj G.|.T =X=X=X=X=X=X  k.|.S =X=X=X=X=X=X=X=X=X=X=X=X=X=X=X=X=X=X=X=X=X=X=X=X=X=X=X=X=X=X=X=X=X=X=X=X=X=X",
"=X=X=X=X=X=X=X=X=X=X=X=X=XS {.~.A =X=X=X=X=Xo A.@Xh.Z =X=X=X=X=X=X=X=X=X=X=X=X=X=X=X=X=X=X=X=X=X=X=X=X=X=X=X=X=X=X=X=X=X=X=X=X=X",
"=X=X=X=X=X=X=X=X=X=X=X=X=XZ {.@XH.=X=X=X=X=Xv.+X|.S =X=X=X=X=X=X=X=X=X=X=X=X=X=X=X=X=X=X=X=X=X=X=X=X=X=X=X=X=X=X=X=X=X=X=X=X=X=X",
"=X=X=X=X=X=X=X=X=X=X=X=X=Xl {.@Xf.. s [ l | {.+XH.A =X=X=X=X=X=X=X=X=X=X=X=X=X=X=X=X=X=X=X=X=X=X=X=X=X=X=X=X=X=X=X=X=X=X=X=X=X=X",
"=X=X=X=X=X=X=X=X=X=X=X=X=Xo I.[.OXoX|.7 8 Y.U.}.) =X=X=X=X=X=X=X=X=X=X=X=X=X=X=X=X=X=X=X=X=X=X=X=X=X=X=X=X=X=X=X=X=X=X=X=X=X=X=X",
"=X=X=X=X=X=X=X=X=X=X=X=X=X# o.OX@X@X)..X|.I.U.J.S =X=X=X=X=X=X=X=X=X=X=X=X=X=X=X=X=X=X=X=X=X=X=X=X=X=X=X=X=X=X=X=X=X=X=X=X=X=X=X",
"=X=X=X=X=X=X=X=X=X=X=X=Xo k.+X+X@X@XOX@X@X}.Y.( =X=X=X=X=X=X=X=X=X=X=X=X=X=X=X=X=X=X=X=X=X=X=X=X=X=X=X=X=X=X=X=X=X=X=X=X=X=X=X=X",
"=X=X=X=X=X=X=X=X=X=X=X=Xj.@X+X+X@XOX@XOXOX}.P.( =X=X=X=X=X=X=X=X=X=X=X=X=X=X=X=X=X=X=X=X=X=X=X=X=X=X=X=X=X=X=X=X=X=X=X=X=X=X=X=X",
"=X=X=X=X=X=X=X=X=X=X=X=X{ @X@X@X}.|.oX| f.U.P.s.A =X=X=X=X=X=X=X=X=X=X=X=X=X=X=X=X=X=X=X=X=X=X=X=X=X=X=X=X=X=X=X=X=X=X=X=X=X=X=X",
"=X=X=X=X=X=X=X=X=X=X=X=XR oX@X X).OXa.&XU.P.J.J.S =X=X=X=X=X=X=X=X=X=X=X=X=X=X=X=X=X=X=X=X=X=X=X=X=X=X=X=X=X=X=X=X=X=X=X=X=X=X=X",
"=X=X=X=X=X=X=X=X=X=X=X=X| ).@X|.H.l.`.*Xx.P.K.J.- =X=X=X=X=X=X=X=X=X=X=X=X=X=X=X=X=X=X=X=X=X=X=X=X=X=X=X=X=X=X=X=X=X=X=X=X=X=X=X",
"=X=X=X=X=X=X=X=X=XU.n.A ( {.@X|.( c.4.'.z.U.P.J., =X=X=X=X=X=X=X=X=X=X=X=X=X=X=X=X=X=X=X=X=X=X=X=X=X=X=X=X=X=X=X=X=X=X=X=X=X=X=X",
"=X=X=X=X=X=X=X=XU.XXOXOXOX@X@X^.A 0 p +.J.U.x.b.z.X =X=XZ A =X=X=X=X=X=X=X=X=X=X=X=X=X=X=X=X=X=X=X=X=X=X=X=X=X=X=X=X=X=X=X=X=X=X",
"=X=X=X=X=X=X=X=Xi. X+X+X+X+X@X+XoX(.S.J.P.U.x.b.x.o =XB h.b.A =X=X=X=X=X=X=X=X=X=X=X=X=X=X=X=X=X=X=X=X=X=X=X=X=X=X=X=X=X=X=X=X=X",
"=X=X=X=X=X=X=X=X[  X+X+XOX+X@X@X XU.K.J.S.S.| x.n.* Z Z x.K.U   =X=X=X=X=X=X=X=X=X=X=X=X=X=X=X=X=X=X=X=X=X=X=X=X=X=X=X=X=X=X=X=X",
"=X=X=X=X=X=X=X  I  X@XF.) {.OXU.J.N.b.2 o . R U.z.2 E x.Y.U. .  =X=X=X=X=X=X=X=X=X=X=X=X=X=X=X=X=X=X=X=X=X=X=X=X=X=X=X=X=X=X=X=X",
"=X=X=X=X=X=X=X=X' x.!.0.{.OX/.N.' O @ s j 4 U U.6 b.a.a.K.N.z X =X=X=X=X=X=X=X=X=X=X=X=X=X=X=X=X=X=X=X=X=X=X=X=X=X=X=X=X=X=X=X=X",
"=X=X=X=X=X=X=X=X# [ b.b.+XQ.z.& : u u V Z 4 U N.8 S.P.x.a. XOXt.. =X@X@X@X=X=X=X=X=X=X=X=X=X=Xi.i.i.i.i.W Z =X=X=X=X=XX =X=X=X=X",
"=X=X=X=X=X=X=X=XB x.U.U.P.e @ @.&.C u ; j j a.e d.K.).OXOX+X+XOX XOX@X@X@X=X=X=X=X=X=X=X=X=X=XJ.J.J.K.J.J.N.B X o =X=XO.. =X=X=X",
"=X=X=X=X=X=X=X=X=XS J.U.P =X=X=X@.#.#.i O f U.q z.U.^.@X+X@X@X+XOX@X@X@X@X=X=X=X=X=X=X=Xi.i.i.n.U.U.P.J.J.J.J.J.w.=X* ..X =X=X=X",
"=X=X=X=X=X=X=X=X=X=X^ J.M =X=X#.$.&.#.#.y M ..m b.!.@X@X@X+X@XF.G.@X@X@X@Xl.=X=X=X=X=X=XJ.K.K.J.U.U.U.a.Z A b.N.J.J.E W a.k =X=X",
"=X=X=X=X=X=X=X=X=X=X=XX =X=X=X$.2.2.3.<.%.J.| B B.OX+X+X+X+X@XG.F.@X@X@X@Xl.=X=X=X=XZ A b.U.K.U.J.J.s.Z =X=XZ A Z a.J.N.U.P =X=X",
"=X=X=X=X=X=X=X=X=X=X=X=X=X=XD <.].].].=.] h.3 =X8  X+X+X+X+X@X@Xl.W.@X@X@XOXOX) Z Z ( i.J.U.U.K./ Z A =X=X=X=X=X=XS  .i.x.P =X=X",
"=X=X=X=X=X=X=X=X=X=X=X=X=Xd._.1.].].].;.'.a.=X& T.+X+X+X@X@X+X@XOXL !.@XOX@XOXq.w. . .n.J.J.K.U.=X=X=X=X=X=X=X=XW x.N.a. .W =X=X",
"=X=X=X=X=X=X=X=X=X=X=X=X..$X3.].2.>.;.$XL.( > k.N. X[.@X+X@X@X@X@XL.t  XOX@X+XOXQ.( i.a.[ Z A =X=X=X=X=X=X=X=X=X=XZ A [ Z W  ., ",
"=X=X=X=X=X=X=X=X=X=X=XD.T.%.C.V.,.M.#.] ..X   k.(. X).@X@X@X@X+XOX(.J.l.l.@X@X@X~.| i.{ % . =X=X=X=X=X=X=X=X=X=X=X=X=XZ =X=XZ j ",
"=X=X=X=X=X=X=X=X=X=X=X/.%X-.*.>.m.%Xn.[.O.    A.@X+X+X@X@X+X@X@X).J.U.} Y @X@X@XOXOXl.> =X=X=X=X=X=X=X=X=X=X=X=X=X=X=X=X=X=X=X=X",
"=X=X=X=X=X=X=X=X=X=X=X=Xa.[ = + f N.}.Q.O.  l G.@X+X@X@X@X@X+X+X).U.N.A 5 g.@X@X@X+XOXq.=X=X=X=X=X=X=X=X=X=X=X=X=X=X=X=X=X=X=X=X",
"=X=X=X=X=X=X=X=X=X=X=X=XU U.}. X X^.U.N.Z =X=XA {.+X@X+X+X@X+X|.U.U.b./ f t.@X@X@X+X+Xy.=X^ =X=X=X=X=X=X=X=X=X=X=X=X=X=X=X=X=X=X",
"=X=X=X=X=X=X=X=X=X=X=X=XP U.U.U.U.U.Y.f.# =X=X% f.(.OXOX+XOXU.U.U.J.s.J.a.A Q.+X@X+X@XOX{./ =X=X=X=X=X=X=X=X=X=X=X=X=X=X=X=X=X=X",
"=X=X=X=X=X=X=X=X=X=X=X=X% } L.S.S.S./ $ =X=XB a.e b.U.U.U.U.U.P.U.U.J.U.U.M * {.@X@X@X@X|.) ) =X=X=X=X=X=X=X=X=X=X=X=X=X=X=X=X=X",
"=X=X=X=X=X=X=X=X=X=X=X=X~ q.* + % o a =X=X=XZ x.b.E x.J.U.U.K.J.J.U.U.K.U.s.!.@X@X+XOXOXOXXXoXj.=X=X=X=X=X=X=X=X=X=X=X=X=X=X=X=X",
"=X=X=X=X=X=X=X=X=X=X=X  o.P K 9.9.G b =X=X=Xu.U.U.b.( A x.J.b.( u.K.K.U.U.y.~.@XXXU.U.U.U.R.R =X=X=X=X=X=X=X=X=X=X=X=X=X=X=X=X=X",
"=X=X=X=X=X=X=X=X=X=X=XI E.8.8.r.5.=X=X=X=X=Xa.U.U.U.x. .E Z Z Z < ..J.U.P.K.w.|.XXK.U.K.U.v.E =X=X=X=X=X=X=X=X=X=X=X=X=X=X=X=X=X",
"=X=X=X=X=X=X=X=X=X=X9 R.r.r.r.r.K =X=X=X=X=Xw.K.U.U.n. .S =X=X=X=X. - b.U.L.w.|.U.K.K.U.U.U.U =X=X=X=X=X=X=X=X=X=X=X=X=X=X=X=X=X",
"=X=X=X=X=X=X=X=X=X=Xt ~.8.e.e.6.c =X=X=X=X=XX } J.z./ W =X=X=X=X=X=X=Xq J.w.W.+X XK.U.U.U.J.b.=X=X=X=X=X=X=X=X=X=X=X=X=X=X=X=X=X",
"=X=X=X=X=X=X=X=X=X, ^.R.e.e.9.c =X=X=X=X=X=X=Xo @ 7  .E =X=X=X=X=X=X=X=X4 ) 0. X XU.U.U.U.v.^ =X=X=X=X=X=X=X=X=X=X=X=X=X=X=X=X=X",
"=X=X=X=X=X=X=Xs.g H.T.f e.e.9.c =X=X=X=X=X=X=XZ [ Q ( W =X=X=X=X=X=X=X=XE ..) |.U.U.U.K.K.U.U =X=X=X=X=X=X=X=X=X=X=X=X=X=X=X=X=X",
"=X=X=X=X=X=X=XI ^.g {.F.6.e.m =X=X=X=X=X=X=Xm [ B 2 s.M =X=X=X=X=X=X=X=X^ i.)  X XU.K.U.U.K.b.=X=X=X=X=X=X=X=X=X=X=X=X=X=X=X=X=X",
"=X=X=X=X=X=X=XX { / h E.) e.m =X=X=X=X=X=X=Xz a.S =XM g =X=X=X=X=X=X=XE ) W ) |. XU.U.L.U.v.^ =X=X=X=X=X=X=X=X=X=X=X=X=X=X=X=X=X",
"=X=X=X=X=X=X=XS ^ N.v.r.e.e.9.x =X=X=X=X=X=X=XZ Z =X=X. =X=X=X=X=X=X^ / / ^ W.oXU.U.U.U.K.U.U =X=X=X=X=X=X=X=X=X=X=X=X=X=X=X=X=X",
"=X=X=X=X=X=X=XA s.}.) ] r.8.F =X=X=X=X=X=X=X=X=X=X=X=X=X=X=X=X=X=X) ^.oXOXoXy.0.J.U.U.J.U.U.U =X=X=X=X=X=X=X=X=X=X=X=X=X=X=X=X=X",
"=X=X=X=X=X=X=X  o.|.) e.r.8.n =X=X=X=X=X=X=X=X=X=X=X=X=X=X=X=X=X=XS ^ y.).N.U. X.XU.K.U.K.Q.U =X=X=X=X=X=X=X=X=X=X=X=X=X=X=X=X=X",
"=X=X=X=X=X=X=X=X' Z./ r.r.8.n =X=X=X=X=X=X=X=X=X=X=X=X=X=X=X=X=X=X=X=X=Xo # p.U.U.U.U.K.U.K.K.f =X=X=X=X=X=X=X=X=X=X=X=X=X=X=X=X",
"=X=X=X=X=X=X=X=XX o > r.r.F =X=X=X=X=X=X=X=X=X=X=X=X=X=X=X=X=X=X=X=X=X^ T c.J.U.U.U.K.U.K.U.K.=X=X=X=X=X=X=X=X=X=X=X=X=X=X=X=X=X",
"=X=X=X=X=X=X=X=Xo } 7 r.r.F =X=X=X=X=X=X=X=X=X=X=X=X=X=X=X=X=X=X=X=X=X=X@XR O.Y.U.L.U.K.U.U.h.=X=X=X=X=X=X=X=X=X=X=X=X=X=X=X=X=X",
"=X=X=X=X=X=X=X=X' J.9.r.r.F =X=X=X=X=X=X=X=X=X=X=X=X=X=X=X=X=X=X=X=X=Xu.OX(.n.| J.U.K.U.U.U.U.f =X=X=X=X=X=X=X=X=X=X=X=X=X=X=X=X",
"=X=X=X=X=X=X=X=XE s.4 r.J =X=X=X=X=X=X=X=X=X=X=X=X=X=X=X=X=X=X=X=X=X=Xz L U.6 = J.U.U.K.U.K.U.f =X=X=X=X=X=X=X=X=X=X=X=X=X=X=X=X",
"=X=X=X=X=X=X=X=X# ..2 8.J =X=X=X=X=X=X=X=X=X=X=X=X=X=X=X=X=X=X=X=X=X=X=X=X# =X=Xa.{.K.U.K.U.U.g   =X=X=X=X=X=X=X=X=X=X=X=X=X=X=X",
"=X=X=X=X=X=X=X=XA s.o w e.F =X=X=X=X=X=X=X=X=X=X=X=X=X=X=X=X=X=X=X=X=X=X=X=X=X=Xg }.Y.U.U.U.U.J.7 =X=X=X=X=X=X=X=X=X=X=X=X=X=X=X",
"=X=X=X=X=X=X=X=Xo O.7 9.J =X=X=X=X=X=X=X=X=X=X=X=X=X=X=X=X=X=X=X=X=X=X=X=X=X=X=X=X=XF.(.J.U.U.J.6 =X=X=X=X=X=X=X=X=X=X=X=X=X=X=X",
"=X=X=X=X=X=X=X=X=XK.O.w J =X=X=X=X=X=X=X=X=X=X=X=X=X=X=X=X=X=X=X=X=X=X=X=X=X=X=X=X=Xt.).U.U.K.U.n.& =X=X=X=X=X=X=X=X=X=X=X=X=X=X",
"=X=X=X=X=X=X=X=X. z.p.5 J =X=X=X=X=X=X=X=X=X=X=X=X=X=X=X=X=X=X=X=X=X=X=X=X=X=X=X=X=Xt.+XXXU.U.U.L.=X=X=X=X=X=X=X=X=X=X=X=X=X=X=X",
"=X=X=X=X=X=X=X=X=XJ.p.1 v =X=X=X=X=X=X=X=X=X=X=X=X=X=X=X=X=X=X=X=X=X=X=X=X=X=X=X=X=X=X) [.U.U.U.0.=X=X=X=X=X=X=X=X=X=X=X=X=X=X=X",
"=X=X=X=X=X=X=X=X=X= } 5 J =X=X=X=X=X=X=X=X=X=X=X=X=X=X=X=X=X=X=X=X=X=X=X=X=X=X=X=X=X=Xo E J.U.U.b.& =X=X=X=X=X=X=X=X=X=X=X=X=X=X",
"=X=X=X=X=X=X=X=X=X  * / H =X=X=X=X=X=X=X=X=X=X=X=X=X=X=X=X=X=X=X=X=X=X=X=X=X=X=X=X=X=X=X=Xh {.J.Z.& =X=X=X=X=X=X=X=X=X=X=X=X=X=X",
"=X=X=X=X=X=X=X=X=X=X* d =X=X=X=X=X=X=X=X=X=X=X=X=X=X=X=X=X=X=X=X=X=X=X=X=X=X=X=X=X=X=X=X=X=Xa.K.b.= =X=X=X=X=X=X=X=X=X=X=X=X=X=X",
"=X=X=X=X=X=X=X=X=X=X=XQ =X=X=X=X=X=X=X=X=X=X=X=X=X=X=X=X=X=X=X=X=X=X=X=X=X=X=X=X=X=X=X=X=X=XP w.n.d.o =X=X=X=X=X=X=X=X=X=X=X=X=X",
"=X=X=X=X=X=X=X=X=X=X=Xr M =X=X=X=X=X=X=X=X=X=X=X=X=X=X=X=X=X=X=X=X=X=X=X=X=X=X=X=X=X=X=X=X=X=Xo O.b.E =X=X=X=X=X=X=X=X=X=X=X=X=X",
"=X=X=X=X=X=X=X=X=X=X=X. =X=X=X=X=X=X=X=X=X=X=X=X=X=X=X=X=X=X=X=X=X=X=X=X=X=X=X=X=X=X=X=X=X=X=X=X& b.{   =X=X=X=X=X=X=X=X=X=X=X=X",
"=X=X=X=X=X=X=X=X=X=X=X=X=X=X=X=X=X=X=X=X=X=X=X=X=X=X=X=X=X=X=X=X=X=X=X=X=X=X=X=X=X=X=X=X=X=X=X=X=X=X=X  =X=X=X=X=X=X=X=X=X=X=X=X"
};
