/* XPM */
static char *f35d7d3e2fa94fc8934be87700d443aajxPLghAOJWlX63zT[] = {
/* columns rows colors chars-per-pixel */
"64 64 221 2 ",
"   c None",
".  c #010102",
"X  c #0B0A0D",
"o  c #08060A",
"O  c #12060A",
"+  c #0F0D11",
"@  c #0C0816",
"#  c #100D14",
"$  c #131115",
"%  c #19161B",
"&  c #1A191D",
"*  c #16141A",
"=  c #0F1011",
"-  c #240F14",
";  c #24171F",
":  c #1B1920",
">  c #181322",
",  c #211E25",
"<  c #351221",
"1  c #231A33",
"2  c #261A3A",
"3  c #281D3B",
"4  c #26232A",
"5  c #29252E",
"6  c #232427",
"7  c #2A2433",
"8  c #2C2B33",
"9  c #2B223A",
"0  c #2F2A39",
"q  c #332D3A",
"w  c #312C36",
"e  c #34313D",
"r  c #581935",
"t  c #6C1B37",
"y  c #7B1E3D",
"u  c #355E2E",
"i  c #1D0A4A",
"p  c #2B1C4B",
"a  c #2F2341",
"s  c #352949",
"d  c #373541",
"f  c #3C3545",
"g  c #3C3A45",
"h  c #3C324B",
"j  c #3F3C4C",
"k  c #3E2E5E",
"l  c #362755",
"z  c #3D3156",
"x  c #2D1565",
"c  c #321A6A",
"v  c #3D256E",
"b  c #453D4D",
"n  c #40364F",
"m  c #433753",
"M  c #453D54",
"N  c #44365B",
"B  c #4F3058",
"V  c #753256",
"C  c #422D6B",
"Z  c #433463",
"A  c #4B3A67",
"S  c #4D3D6B",
"D  c #483566",
"F  c #513B69",
"G  c #462C79",
"H  c #4B3477",
"J  c #503F7C",
"K  c #663C64",
"L  c #45414E",
"P  c #4C4354",
"I  c #4E445B",
"U  c #4C4C5B",
"Y  c #51495A",
"T  c #50475A",
"R  c #51515E",
"E  c #4C4162",
"W  c #4F426F",
"Q  c #554B63",
"!  c #52426D",
"~  c #584E67",
"^  c #545462",
"/  c #5C5166",
"(  c #5F546B",
")  c #5B5B6C",
"_  c #544572",
"`  c #5C4C75",
"'  c #5C4379",
"]  c #5D4D7B",
"[  c #584776",
"{  c #5F527E",
"}  c #5F5673",
"|  c #4D4071",
" . c #61576B",
".. c #64596E",
"X. c #625474",
"o. c #665B73",
"O. c #63537B",
"+. c #6C5C7E",
"@. c #685A77",
"#. c #705275",
"$. c #626173",
"%. c #6D637C",
"&. c #6A6A7C",
"*. c #686277",
"=. c #72667E",
"-. c #606867",
";. c #97283D",
":. c #862442",
">. c #993D57",
",. c #91334F",
"<. c #A82D44",
"1. c #B9465C",
"2. c #A2455C",
"3. c #9A5E74",
"4. c #A94D66",
"5. c #A95169",
"6. c #BA5266",
"7. c #CC5667",
"8. c #D56676",
"9. c #523383",
"0. c #573B87",
"q. c #513488",
"w. c #5F4985",
"e. c #5F4194",
"r. c #614386",
"t. c #65458A",
"y. c #6C4D8C",
"u. c #664D84",
"i. c #645682",
"p. c #6C5C83",
"a. c #68598B",
"s. c #634496",
"d. c #6B5595",
"f. c #715192",
"g. c #74549A",
"h. c #6F668F",
"j. c #6F6384",
"k. c #736485",
"l. c #746B83",
"z. c #796C85",
"x. c #73648A",
"c. c #766888",
"v. c #7A6B8C",
"b. c #7C718A",
"n. c #79798E",
"m. c #767585",
"M. c #6E6194",
"N. c #726593",
"B. c #736992",
"V. c #7C6D92",
"C. c #7A679A",
"Z. c #7D7292",
"A. c #7D749B",
"S. c #7F7F95",
"D. c #6F4BA4",
"F. c #7955A4",
"G. c #7E62A6",
"H. c #84738E",
"J. c #837494",
"K. c #85749A",
"L. c #847C9A",
"P. c #8C7C9C",
"I. c #877996",
"U. c #B97784",
"Y. c #855BB6",
"T. c #855EAF",
"R. c #847CA3",
"E. c #8D7EA2",
"W. c #8967B7",
"Q. c #8F73B5",
"!. c #DA7A8B",
"~. c #8C5EC3",
"^. c #9569CB",
"/. c #9A74CB",
"(. c #A37CD2",
"). c #7E8197",
"_. c #85849D",
"`. c #88819A",
"'. c #94869D",
"]. c #829F80",
"[. c #B08E99",
"{. c #8D81A3",
"}. c #8C88A8",
"|. c #9485A5",
" X c #9888A7",
".X c #9786A8",
"XX c #948BAB",
"oX c #998AAA",
"OX c #958BA7",
"+X c #9793AE",
"@X c #9D8DB2",
"#X c #958FB3",
"$X c #9D93B3",
"%X c #9A95B9",
"&X c #9E9CBD",
"*X c #9997B5",
"=X c #A295A7",
"-X c #A193B4",
";X c #A49CBC",
":X c #A59BBC",
">X c #AC91AA",
",X c #A4A3BB",
"<X c #ACB2AE",
"1X c #DD8191",
"2X c #E28B9B",
"3X c #CCA9B5",
"4X c #9D99C0",
"5X c #A48DC6",
"6X c #A6A2C3",
"7X c #AAA3C3",
"8X c #ADAACA",
"9X c #B1ACCC",
"0X c #B1B1CF",
"qX c #B3AFD1",
"wX c #B5B4D4",
"eX c #B9B9D9",
"rX c #B8B7D7",
"tX c #BEBFE0",
"yX c #C2BCCB",
"uX c #D3C9CE",
"iX c #D1CFE3",
/* pixels */
"                                                                                                                                ",
"                                                                                                                                ",
"                                                                                                                                ",
"                                                                                                                                ",
"                                                                                                                                ",
"                                                                                                                                ",
"                                                                                                                                ",
"                                                                                                                                ",
"                                                                                                                                ",
"                                                                                                                                ",
"                                                                                                                                ",
"                                                                                                                                ",
"                                                                                                                                ",
"                              k                                                                                                 ",
"                              _ {                                                                                               ",
"                              B.B.                q k                                                                           ",
"                              B.A.              & _.[                                                                           ",
"                              h.wX]             ) 8XW                                                                           ",
"                              x.wX]           e 8X$XS                                                                           ",
"                              h.eX%XZ       A *XeXN.                                                                            ",
"                              M.tX*XX 3 O.k x.wX8X]                                                                             ",
"                          . . ^ 8X7Xn.L.0 h |.7XXXS                                   6 M.x 9.&.                                ",
"                    T W e 8 j d :XwXeX9X&.b. X$XV.                                  $.e 4Xq.| #X_.*.f . . .                     ",
"                Y ( =.A.n.R U *.7XeXrX8XrXwX@XP.O.                                . $.m.{.d.d.}.XX$X=.b 8 % 4                   ",
"          5 8 *.-XI.H.OXtX^ j eXeXeXeXeXeXeX:XJ.Z                               o e $.&.h s.D.w.r.R.@XoXJ. ./ =.4               ",
"      o : b.oXoXE. .T e wXa.4XeXeXrXwXrX6X8X-XK.D                             . 8 +Xg X Z s.9.~.W.g.Q.P.$X@X X@X .o.w           ",
"    . e  X X X|.u.S [ f 6XU XXeXeX9X,X8Xp.J.oX'.`                           X 8 =.$ # ' F.^.0./.(.g.W.` 8X,X.X X X Xz.X         ",
"    * I. X X Xg.t.f 6X{.] 7 J.rXwX%XwXA.yX X X Xp.                          L 0X8 , y.y.F.~.9.0.(.B.:X|.8XoX X X X XoXY .       ",
"  H.I. X X|.] g.2 g wX@XY.9.x.rXwX{._.<XiXP. X@X/                         * ,XwXe ' f.y.g.Y.W.H { %XoX XoX X X X X X X'.5       ",
"  $ b.oX.Xp.s.~.F.I.8X-XK.C a.rXwXv.).).<XI. X@XY 1     k k             ^ *X}.6 A f.f.f.y.G.^.g._ 8Xn.l E. X6Xp.V. X.X Xz.$     ",
"  w P.-XR.[ F.^.Y.Q -X8X4X#X4XrXwX] h u m.'.|.I.H.q     a.j.          8 ,X0XL N y.f.f.f.f.F.T.W.W h.S p z  X5Xd.C.a.:X XP.#     ",
"  Y oX.Xi.H D.q.9.p ..8XeXyXtXrXeX}.j.-.`. X Xv.oXq     J.P.h       . )._.x.F g.f.y.f.f.r.G g.F.v s.v g.l. XX.H s.D R.-X|.P     ",
"  P -X}.S     x x l o.wXeXeXeXeXeX9X;XoX@XoXJ.J.z.f k p.P..Xb     d ) &Xj J f.f.f.f.r.y.H x 0.9.c W.e.*XeXH.7 i H h.N.7X X=..   ",
"  @.oXA.          M %XeX8X*XwXwX8X@XoXz...o.X.|.Y I O.V. X|.h     $.iXo.D g.f.t.0.t.H       x x c ^.G.R.}.I I R.Z.;Xa.%X@Xb.4   ",
"  P.oXi.          7 XXwXR.p.8X7X XH.c.q @ . .. XT =.P.p.|.E.M + X -.).7 f.f.t.G x x                     . W %X9X6X$XA B.:XoXQ   ",
"  Y qX8X          q v.#Xp.8X9X|.H.; O a Z 1 ..z.L  XoXP.Z.0XeXg g U o 3 y.r.c c                           x.wX9X6X@XS S *X@XI.  ",
". $.8Xi.            b E.`.wXoX/ O t t B k 2 o.=.P oX-XwXwXrXrX*X%.o F y.H c c                             k.c.@X,X|.A   8X$XY . ",
"  $XV.              p. X X X8 < ;.;.:.< l k j.g P. X-XrXeXeXrXwX=.o F v c                                   K.oXoXP.:   O.8X$X  ",
"o &.                  O. XY     :.<.y t r j i.  x.7XwXrXeXwXeX0X|.b.n                                     v.|.p. Xb       A.rXb ",
"& XXA.                  0 :     <.7.7.<.:.H.O.  q }.eXrXeXeXeX0X;X@X@.                                    J. X~ ..q         R.8 ",
": X.a.                        V 7.!.!.7.V K.F     n.eXeXeXrXeXwX9X$XP.W                               j.E.v.c.P & 4         V.z.",
"  j                           3.!.2X2X6.I.x.    M Z.eXwXqXeXrXeXwX:X|.X.                            v.J. Xx.!   .           #Xm.",
"  U                         %.U.!.2X!.>.P.x.    O.L.8X6X9XeXeXrXeX:X|.x._ !                         K. X Xx.                4Xd ",
"  9                         #.4.!.!.8.2.#.j.    ^ oX;X6XeXeXrXeXeX:X|.K.O.` _ S     k   S S   O.H.J..X XJ.                  A.d ",
"                          z.3X8.!.5.6.[.@X!     ^ 7X8X7XeXeXrXeXwX;X'.V.O.x.c.k.! D D Z +.p.x.|. X X XE.!                     > ",
"                        '.OX>.1X5.[.,.K =.+     ^ eXrXeXrXrXeXeX8X X Xx.O.c.c.c.k.+.+.c.|. X.X X X X XJ.                        ",
"                        $XuX>.7.5.uX=X Xb.o     B.eXeXeXeXrXrXeX9X X|.! %.c.c.c.c.+.%.P. X X X XoX X XO.                        ",
"                          _.B - * l.:X:Xz.o     _ %XeXeXeXeXrXwX$X XP.` p.p.c.c.c.k.p.|. X X X X X XP.                          ",
"                          ( L.S.`.*X@XoXO.        l.7XrXrXeX8X-XoX XJ.K.K.L k.c.c.k.c.E. X X.X.XoXJ.                            ",
"                          / -X6X7X;X X|.0       E P |.;X:X:X-X|. X XP. X XY I x.c.c.c.H..X X|.P.B.                              ",
"                          f P.oXoXoXP.~         p.o.+.P. X X.X XoX X X X Xk.w v.v.v.v.x.E.oXP.O.[                               ",
"                            X...(  .Q @         v.oXO.j.V. XoXE.K.oX X X XJ.h @.~ I Y Q X.p.J.Z                                 ",
"                            s . . .           _ .X X|.O.F V.J.O.W I.oX X|.E.h d , X X * 9 1                                     ",
"                                              _ .X X XJ.+.Z N Z 3 L J. X XP.N :                                                 ",
"                                              _ E. X XJ.@.D         * J.{.c.k.`                                                 ",
"                                                P  XK.` !             + a @.v.`                                                 ",
"                                                $ % 8 +.S               E j.c.j.!                                               ",
"                                                  m I ` !               ` +.[ O.!                                               ",
"                                                  O.N m k.              F O.D j.+.                                              ",
"                                                  +.N , =.*             1 X.S p.c.s                                             ",
"                                                  O.S   g +             . o.M s %.&                                             ",
"                                                  k Z   . .               I %   Y %                                             ",
"                                                                          + o   X #                                             ",
"                                                                                                                                "
};
