/* XPM */
static char *result[] = {
/* columns rows colors chars-per-pixel */
"64 64 224 2 ",
"   c #010102",
".  c #09070B",
"X  c #0B0A0C",
"o  c #01000C",
"O  c #0B0615",
"+  c #130E18",
"@  c #17131A",
"#  c #180E2C",
"$  c #1B1424",
"%  c #1C1725",
"&  c #180C36",
"*  c #1F1631",
"=  c #231E2A",
"-  c #231E26",
";  c #251C37",
":  c #26232A",
">  c #2A252E",
",  c #2D2932",
"<  c #2B2531",
"1  c #312A36",
"2  c #342D3D",
"3  c #30273A",
"4  c #36313D",
"5  c #39343F",
"6  c #541B2E",
"7  c #5E1930",
"8  c #671A34",
"9  c #731B36",
"0  c #43733F",
"q  c #1D0C45",
"w  c #291A43",
"e  c #2B194E",
"r  c #2E2542",
"t  c #34244B",
"y  c #362B4B",
"u  c #362945",
"i  c #3A3343",
"p  c #3F3845",
"a  c #3C344B",
"s  c #3B3A47",
"d  c #3B2C5B",
"f  c #392955",
"g  c #341B6C",
"h  c #3E2968",
"j  c #3F2570",
"k  c #443D4C",
"l  c #403849",
"z  c #43335A",
"x  c #463A57",
"c  c #422F59",
"v  c #722E42",
"b  c #442B6C",
"n  c #423262",
"m  c #4A3A66",
"M  c #4B336B",
"N  c #4D3C6A",
"B  c #463666",
"V  c #563D6F",
"C  c #452D74",
"Z  c #462B79",
"A  c #4D3279",
"S  c #4D3573",
"D  c #533C74",
"F  c #553B78",
"G  c #633E65",
"H  c #454452",
"J  c #4B4457",
"K  c #524B5C",
"L  c #52465F",
"P  c #50505D",
"I  c #524564",
"U  c #53436D",
"Y  c #584B67",
"T  c #5F546A",
"R  c #565466",
"E  c #554672",
"W  c #5A4375",
"Q  c #574974",
"!  c #5B4B74",
"~  c #5D4D79",
"^  c #5C457A",
"/  c #5F547B",
"(  c #4D4B65",
")  c #614B7B",
"_  c #615176",
"`  c #64547B",
"'  c #6C5C7D",
"]  c #665C75",
"[  c #61566E",
"{  c #6E637A",
"}  c #70607F",
"|  c #832140",
" . c #8A2341",
".. c #8A2D4B",
"X. c #853B58",
"o. c #963552",
"O. c #A7314A",
"+. c #AE374B",
"@. c #B04259",
"#. c #834A68",
"$. c #9C566C",
"%. c #B65169",
"&. c #9B657B",
"*. c #C34456",
"=. c #D66C7D",
"-. c #C96778",
";. c #482981",
":. c #5B3D82",
">. c #543686",
",. c #57368F",
"<. c #603B99",
"1. c #5C4183",
"2. c #5F5380",
"3. c #664C85",
"4. c #63458B",
"5. c #654B8B",
"6. c #6C4E8D",
"7. c #634986",
"8. c #645482",
"9. c #6B5C82",
"0. c #6C518D",
"q. c #675B85",
"w. c #664692",
"e. c #6D4B9C",
"r. c #6A4994",
"t. c #714F9B",
"y. c #735393",
"u. c #77569B",
"i. c #6F598D",
"p. c #6C6589",
"a. c #736384",
"s. c #74648B",
"d. c #76698A",
"f. c #7A6B8C",
"g. c #786C85",
"h. c #787388",
"j. c #746B94",
"k. c #7C6C92",
"l. c #786998",
"z. c #7E7191",
"x. c #7D759D",
"c. c #734EA3",
"v. c #7553A5",
"b. c #7A56AC",
"n. c #7C57A9",
"m. c #7E54B3",
"M. c #7E5BB1",
"N. c #7A4FB2",
"B. c #82748F",
"V. c #806F93",
"C. c #837495",
"Z. c #86769A",
"A. c #85799B",
"S. c #8B7C9C",
"D. c #867996",
"F. c #8B6984",
"G. c #855BB6",
"H. c #8659BC",
"J. c #847CA4",
"K. c #887BA1",
"L. c #8B69B4",
"P. c #8B64BD",
"I. c #8A6DB1",
"U. c #C96F83",
"Y. c #DC7A89",
"T. c #DB7F90",
"R. c #8D5EC4",
"E. c #8F5FC8",
"W. c #905FC8",
"Q. c #8D62C4",
"!. c #9261CA",
"~. c #9269C4",
"^. c #9671C3",
"/. c #9A74C6",
"(. c #9E76CD",
"). c #9A6BD1",
"_. c #9E72D2",
"`. c #A075D3",
"'. c #A57CD5",
"]. c #A77DD8",
"[. c #A97FDB",
"{. c #898297",
"}. c #91829A",
"|. c #93959C",
" X c #8A82A2",
".X c #8C85AB",
"XX c #8D8AA8",
"oX c #9484A4",
"OX c #938CAD",
"+X c #9A8AAA",
"@X c #9788A7",
"#X c #9495AE",
"$X c #928DB2",
"%X c #9592B3",
"&X c #9D94B4",
"*X c #9999B3",
"=X c #9996B9",
"-X c #9E9BBB",
";X c #A69BAB",
":X c #A194B4",
">X c #A49BBB",
",X c #A398B7",
"<X c #A18EAA",
"1X c #A9A3BB",
"2X c #B5B2BF",
"3X c #91B48B",
"4X c #E28999",
"5X c #A981D9",
"6X c #A880D7",
"7X c #A6A2C4",
"8X c #AAA3C4",
"9X c #ADABCB",
"0X c #ACA8C7",
"qX c #B1AECE",
"wX c #B6B2C7",
"eX c #B2AFD1",
"rX c #B5B4D4",
"tX c #B8B5D5",
"yX c #B9B9D9",
"uX c #BFBFE0",
"iX c #CCBCC1",
"pX c #CFCCD3",
"aX c #C1C1E1",
"sX c None",
/* pixels */
"sXsXsXsXsXsXsXsXsXsXsXsXsXsXsXsXsXsXsXsXsXsXsXsXsXsXsXsXsXsXsXsXsXsXsXsXsXsXsXsXsXsXsXsXsXsXsXsXsXsX+X+Xf.d.sXsXsXsXsXsXsXsXsXsX",
"sXsXsXsXsXsXsXsXsXsXsXsXsXsXsXsXsXsXsXsXsXsXsXsXsXsXsXsXsXsXsXsXsXsXsXsXsXsXsXsXsXsXsXsXsXsXsX+X&X+X+X7X7X7X9.sXsXsXsXsXsXsXsXsX",
"sXsXsXsXa.f.sXsXsXsXsXsXsXsXsXsXsXsXsXsXsXsXsXsXsXsXsXsXsXsXsXsXsXsXsXsXsXsXsXsXsXsXsXsXsXsXsX-X7X7X0X8.S n n sXsXsXsXsXsXsXsXsX",
"sXsXsXsXp.OXd.sXsXsXsXsXsXsXsXsXsXsXsXsXsXsXsXsXsXsXsXsXsXsXsXsXsXsXsXsXsXsXsXsXsXsXsXsX+X&X,Xl.b D S c.m.g sXsXsXsXsXsXsXsXsXsX",
"sXsXsXsXsXj.XXC.sXsXsXsXsXsXsXsXsXsXsXsXsXsXsXsXsXsXsXsXsXsXsXsXsXsXsXsXsXsXsXsXsXsX&X:X7XeXJ.S v.!.!.;.g sXsXsXsXsXsXsXsXsXsXsX",
"sXsXsXsXsXF l.=X XD.sXsXsXsXsXsXsXsXsXsXsXsXsXsXsXsXsXsXsXsXsXsXsXsXsXsXsXsXsXsXsXsXyX=X=XJ.w.!.!.!.m.sXsXsXsXsXsXsXsXsXsXsXsXsX",
"sXsXsXsXsXy.7.F J.0XK.sXsXsXsXsXsXsXsXsXsXsXsXsXsXsXsXsXsXsXsXsXsXsXsXsXsXsXsXsX,X>X.X:.F w.!.!.!.m.Z sXsXsXsXsXsXsXsXsXsXsXsXsX",
"sXsXsXsXsXsXG.R.w.s.8X XsXsXsXsXsXsXsXsXsXsXsXsXsXsXsXsXsXsXsXsXsXsXsXsXsXsX:X>XtX$X4.W.W.W.W.W.c.j sXsXsXsXsXsXsXsXsXsXsXsXsXsX",
"sXsXsXsXsXsX6.G.W.w.s.7X XsXsXsXsXsXsXsXsXsXsXsXsXsXsXsXsXsXsXsXsXsXsXsXsX>XqX=XJ.w.R.!.E.!.R.).M sXsXsXsXsXsXsXsXsXsXsXsXsXsXsX",
"sXsXsXsXsXsXy.G.W.E.S @X&Xa.sXsXsXsXsXsXsXsXsXsXsXsXsXsXsXsXsXsXsXsXsXsXsXsXrX~ F R.!.!.!.E.!.).A sXsXsXsXsXsXsXsXsXsXsXsXsXsXsX",
"sXsXsXsXsXsX6.G.W.R.N oXS.} sXsXsXsXsXsXsXsXsXsXsXsXsXsXsXsXsXsXsXsXsXsXsXOXZ.5.H.!.R.!.E.!.`.P.f sXsXsXsXsXsXsXsXsXsXsXsXsXsXsX",
"sXsXsXsXsXsX6.G.!.E.e.s.oXa.sXsXsXsXsXsXsXsXsXsXsXsXsXsXsXsXsXsXsXsXsXsXZ.+Xl.H.!.W.Q.!._.'.5X7.sXsXsXsXsXsXsXsXsXsXsXsXsXsXsXsX",
"sXsXsXsXsXsX6.G._.!.Q.M ! m sXsXsXsXsXsXsXsXsXsXsXsXsXsXsXsXsXsXsXsXsXD.>XD.M.!.!.!.!.`.6X6X].t.sXsXsXsXsXsXsXsXsXsXsXsXsXsXsXsX",
"sXsXsXsXsXsXsXn.(._.H.r .XJ.` sXsXsXsXsXsXsXsXsXsXsXsXsXsXsXsXsXsXsXsXB.,X8.e.!.W.!.!.].6X6X].7.sXsXsXsXsXsXsXsXsXsXsXsXsXsXsXsX",
"sXsXsXsXsXsXsX0./.5XH.X T yX&X` sXsXsXsXsXsXsXsXsXsXsXsXsXsX@XS.. sX- z.+X9.e.!.W.W.!.].6X5X].t.sXsXsXsXsXsXsXsXsXsXsXsXsXsXsXsX",
"sXsXsXsXsXsXsX0./.5X_.1.3 K ,Xs.d sXsXsXsXsXsXsXsXsXsXsXsXsX+X0XXXOXz Y a ^ b.!.!.Q.`.6X6X5XP.;.sXsXsXsXsXsXsXsXsXsXsXsXsXsXsXsX",
"sXsXsXsXsXsXsXy.P.].'.5.OXf.] J Z.) sXsXsXsXsXsXsXsXsXsXsXsX- 4 rX7Xy p =XR :.!.!._.5X5X6X5X0.o sXsXsXsXsXsXsXsXsXsXsXsXsXsXsXsX",
"sXsXsXsXsXsXsXsXu.(.i &X+Xf.! _ 0XJ sXsXsXsXsXsXsXsXsXsXsXsXsXr 2 OXT H tX` w.!._.5X5X5X5X5X3.  sXsXsXsXsXsXsXsXsXsXsXsXsXsXsXsX",
"sXsXsXsXsXsXsXsXy.L.: #X1 a.9.l g.H sXsXsXsXsXsXsXsXsXsXsXsXB n z oXoXR K q.e._.6X6X5X5X6X5Xv.e sXsXsXsXsXsXsXsXsXsXsXsXsXsXsXsX",
"sXsXsXsXsXsXsXsXy.(.L.2 t.y k 9.: sXsXsXsXsXsXsXsXsXsXsXsX+X-XA.E oX@XoXS.9.e.).'.5X5X5X5X5X0.  sXsXsXsXsXsXsXsXsXsXsXsXsXsXsXsX",
"sXsXsXsXsXsXsXsXy.(.5X/.].~.r.9.p sXsXsXsXsXsXsXsXsXsXsXsXsX@ m Z.oX@X+Xs.r.!._.5X5X5X5X5X5X0.  sXsXsXsXsXsXsXsXsXsXsXsXsXsXsXsX",
"sXsXsXsXsXsX6.^.'.].5X5X].b.8.K sXsXsXsXsXsXsXsXsXsXsXsXsXsXsXsXB E +Xf.1.!.!._.6X5X[.5X5X5X3.  sXsXsXsXsXsXsXsXsXsXsXsXsXsXsXsX",
"sXsXsXsXsXsX3.L.6X6X].'.W.c.8.K sXsXsXsXsXsXsXsXsXsXsXsXsXsXsXsXsXQ 9Xs.w.!.!._.5X6X5X'.5X5X0.X sXsXsXsXsXsXsXsXsXsXsXsXsXsXsXsX",
"sXsXsXsXsXsXF N L.].].`.G.! D.I sXsXsXsXsXsXsXsXsXsXsXsXsXsXsXsXsX~ -X7.H.!._.6X6X5X5X5X5X5X5XE sXsXsXsXsXsXsXsXsXsXsXsXsXsXsXsX",
"sXsXsXsXsXu.W $X2.^.'.!.b.) T < sXsXsXsXsXsXsXsXsXsXsXsXsXsXsXsXsXz.yXXXF !.!.'.5X[.6X6X5X'.5X1.  sXsXsXsXsXsXsXsXsXsXsXsXsXsXsX",
"sXsXsXsX6.L.6.$Xj.L._.!.m.~ T   sXsXsX: d sXsXsXsXsXsXsXsXsXsXsXsXz.uXh.t )._.[.5X5X6X5X5X5X5XM.& sXsXsXsXsXsXsXsXsXsXsXsXsXsXsX",
"sXsXsXw.n.^.5.OXyXE H.P.v.) ] . sXsX> *XE sXsXsXsXsXsXsXsXsXsXsXsXz.rXp.S !._.5X5X[.6X6X5X5X5X[.M sXsXsXsXsXsXsXsXsXsXsXsXsXsXsX",
"sXsXsX>.'.[.5.OXyXj.v.y.7.! s.h sX: #XrXE sXsXsXsXsXsXsXsXsXsXsXsXz.=X>.!.!._.5X5X6X6X6X5X5X5X5XM.c.sXsXsXsXsXsXsXsXsXsXsXsXsXsX",
"sXsXsXj u.~.^ $XuXrXy z D ~ j.d i XXuXA.m sXsXsXsXsXsXsXsXsXsXsXsX$X7X2.v.).].5X5X5X5X'.M.M.P.'.^.~.h sXsXsXsXsXsXsXsXsXsXsXsXsX",
"sXsXsXsXb 4.d XX9XeXP J q.~ ` m %XuXeXE sXsXsXsXsXsXsXsXsXsXsXsXd.-XuXh.t !.`.P.v.b.M.v.Z C >.N.,.f + sXsXsXsXsXsXsXsXsXsXsXsXsX",
"sXsXsXsXsXA # ] 7XrXuXuX#X3 u C.,XtXA.N sXsXsXsXsXsXsXsXsXsXsXsXsXf.yXOX:.W.`.>.b Z Z A 6.S t & & O   sXsXsXsXsXsXsXsXsXsXsXsXsX",
"sXsXsXsXsXsXa x.9XyXtXtXOXR { +XoX>X/ sXsXsXsXsXsXsXsXsXsXsXsXsXd.&X0XL.H.<.<.>.6.y.y.u.6.q       sXsXsXsXsXsXsXsXsXsXsXsXsXsXsX",
"sXsXsXsXsX( *XuXyXyXyXyXyXaXrX:X+Xf.U sXsXsXsXsXsXsXsXsXsXsXsXsXd.yXXXw ,.A A 7.y.:.A u r sXsXsXsXsXsXsXsXsXsXsXsXsXsXsXsXsXsXsX",
"sXsXsXsXsXp.uXyXyXrX7XyXiXyXyX8X+X~ sXsXsXsXsXsXsXsXsXsXsXsXsXa.&XrX@XU 7.y.y.y.f # sXsXsXsXsXsXsXsXsXsXsXsXsXsXsXsXsXsXsXsXsXsX",
"sXsXsXsXsXK tXyXyX7X9XeXi.j.OX:X+Xa.m d sXsXsXsXsXsXsXsXsXsXsXa.tXtXz.J y.y.y.F # sXsXsXsXsXsXsXsXsXsXsXsXsXsXsXsXsXsXsXsXsXsXsX",
"sXsXsXsXsXY -XyXrXD.9Xj.wX7XS.+X+XS.E 9.N sXsXsXd sXsXsXsXsXsX7XrX/ 2 V y.:.e w sXsXsXsXsXsXsXsXsXsXsXsXsXsXsXsXsXsXsXsXsXsXsXsX",
"sXsX+Xf.d E &XyXyXf.q.|.3XpXA.+X+X+Xu f.D sXsXU V.9.sXsXsXsXa.0Xk F V 4.e ; sXsXsXsXsXsXsXsXsXsXsXsXsXsXsXsXsXsXsXsXsXsXsXsXsXsX",
"sXz.qX7X=X-XeXyXyX7X=X|.0 }.oX+XD.S.B.4 Y m a.Z.+XoXJ * _ 7X7XZ.V y.y.6.sXsXsXsXsXsXsXsXsXsXsXsXsXsXsXsXsXsXsXsXsXsXsXsXsXsXsXsX",
"B z.tXyXyXyXyXyXyXyX,XoX{.}.+X@XB.Z.+X- g.k.! +X+Xk.; * J.tXyXu.y.y.V $ sXsXsXsXsXsXsXsXsXsXsXsXsXsXsXsXsXsXsXsXsXsXsXsXsXsXsXsX",
"@ f.yXyXXX8.>XyX,X+X@X@X@X@X@X@X' d.+X- B.+XZ.a. XeXp.s.rXrXH ) 6.W + sXsXsXsXsXsXsXsXsXsXsXsXsXsXsXsXsXsXsXsXsXsXsXsXsXsXsXsXsX",
"+ D.oX%X8.&XtX>X}.}.- > g.@ @ + Y @XoX: B.+XrXqXeXuXx.J.yX-X, 3.0.b sXsXsXsXsXsXsXsXsXsXsXsXsXsXsXsXsXsXsXsXsXsXsXsXsXsXsXsXsXsX",
"sX: f.A. XyX,XoX1 + 9 8 % f f # L <X5 { @X+XtXtXyXrXeXeXyXH Q u.6.$ sXsXsXsXsXsXsXsXsXsXsXsXsXsXsXsXsXsXsXsXsXsXsXsXsXsXsXsXsXsX",
"sXm oXoX@X+Xk . 7 O. .| 8 c n ; K @X> g.+XrXyXtXyXyXyXyXuXH ~ i.A sXsXsXsXsXsXsXsXsXsXsXsXsXsXsXsXsXsXsXsXsXsXsXsXsXsXsXsXsXsXsX",
"sXsX! oX+XJ sXsXsX|  . .8 $ d d s.l ; V.qXyXyXyXyXrXyXyXyXeXq.0.0.C sXsXsXsXsXsXsXsXsXsXsXsXsXsXsXsXsXsXsXsXsXsXsXsXsXsXsXsXsXsX",
"sXsXsX_ S.k sXsX|  .+. .| 8   k +X4 r @ -XyXyXyXrXyXyXrXyXyX:X1.Q q.N sXsXsXsXsXsXsXsXsXsXsXsXsXsXsXsXsXsXsXsXsXsXsXsXsXsXsXsXsX",
"sXsXsXsX  sXsXsX .*.Y.*... .6 ( 9.sXsX% %XyXyXeXyXyXyXyXyXeXtX:XoXA.m sXsXsXsXsXsXsXsXsXsXsXsXsXsXsXsXsXsXsXsXsXsXsXsXsXsXsXsXsX",
"sXsXsXsXsXsXsXY @.T.4X4X=.O.#.oX8.sXsXg.C.7XeX&XyXyXyXrXrXyXeX7Xf.a.N sXsXsXsXsXsXsXsXsXsXsXsXsXsXsXsXsXsXsXsXsXsXsXsXsXsXsXsXsX",
"sXsXsXsXsXT S.-.Y.4X4XU.O.s.f.d sXsXsX  *XD.qX&XrXyXyXyXyXyXyX+X+XC.N E sXsXsXsXsXsXsXsXd.d.sXa.a.g.g.d.sXsXsXsXsXsXsXsXsXsXsXsX",
"sXsXsXsXsXh.X.-.4XU.4XO...*Xa.d sXsXsX  -X>XeX7XtXyXyXtXyXtXqX+X+XZ.N ' U U sXsXsXE Q q.+X@XV.S.+XoXS.oXd.E U sXsXsXsXsXsXsXsXsX",
"sXsXsXB.F.<XT.Y.U.$.%...&.q.a.d sXsXsX% 1XyXyXyXtXyXyXyXyXyX+X+X@Xd.E a.g.` Q ! ! a.D.+X+X+X+X&X+X+X+X@XoXoXD.I > sXsXsXsXsXsXsX",
"sXsXsX@XiX[ %.4Xo.pX&.#.1XB.z sXsXsXsXB .XtXyXyXyXyXyXyXyXqX+X@XS.m s._ a.a.d.s.d.d.+X+X+X+X+X+X+X+XC.f.f.k.@X+Xg.u sXsX, % sXsX",
"sXsXsX}.2X&.9 v 6 ;X2X Xz.{   sXsXsXsXsX; -X9XtXyXyXyX9X8X<X@X@XZ.9.K.I L a.g.a.a.d.S.&X<X+X+XZ.s.s.W n n m i.f.<XA.! # { > sXsX",
"sXsXsXsXI Z.T ( R D.@X8X0X{   sXsXsXsXsXk K +X8X7X7X8X:XoX@X@X@XZ.+X<Xa.1 I a.d.a.d.f.Z.d.s.s.` n n sXsXsXsXd N 9.C.Z.' S.l sXsX",
"sXsXsXsXl :X>X0X0X8X+X+XK.! sXsXsXsXsXn S.K 9.Z.+X+X@X+X@X+X@X+X+X@X@X@Xk 1 d.d.a.J l l n sXn sXsXsXsXsXsXsXsXsXsXV s.Z.oXj.= sX",
"sXsXsXsX- { <X+X+X+X+Xs.k.$ sXsXsXsXsXs.oX+X9.' ` f.+X+XS.9.oX<X@X@X@X<X' ; x ~ Q - sXsXsXsXsXsXsXsXsXsXsXsXsXsXN a.f.f.f.@X@ sX",
"sXsXsXsXsXx L 4 i i p y 2 sXsXsXsXsXsXS.+X@X+Xk.Q ~ ` ` Q n l S.+X+X+X+Xs.$ O sXsXsXsXsXsXsXsXsXsXsXsXsXsXsXsXm ` s.S.oXg.f.y sX",
"sXsXsXsXsXsXsXsXsXsXsXsXsXsXsXsXsXsXn Z.+X@X+X}.a.! d sXsXsXsX1 l +X+XoXa.I z sXsXsXsXsXsXsXsXsXsXsXsXsXsXsXsXm U N ` C.g.} _ sX",
"sXsXsXsXsXsXsXsXsXsXsXsXsXsXsXsXsXsXn 2 S.+XoX_ ` m sXsXsXsXsXsXsX< 5 ` } a.U sXsXsXsXsXsXsXsXsXsXsXsXsXsXsXsXsXsXsXm N N ' } @ ",
"sXsXsXsXsXsXsXsXsXsXsXsXsXsXsXsXsXsXsXsX: : 1 ` _ c sXsXsXsXsXsXsXsXf ' } } ' N sXsXsXsXsXsXsXsXsXsXsXsXsXsXsXsXsXsXsXsXsXm m . ",
"sXsXsXsXsXsXsXsXsXsXsXsXsXsXsXsXsXsXsXsXt L I U _ d sXsXsXsXsXsXsXsXN } _ m ` N sXsXsXsXsXsXsXsXsXsXsXsXsXsXsXsXsXsXsXsXsXsXsXt ",
"sXsXsXsXsXsXsXsXsXsXsXsXsXsXsXsXsXsXsXsXn ' z = f.Y sXsXsXsXsXsXsXsXsXE ! d s.a.N sXsXsXsXsXsXsXsXsXsXsXsXsXsXsXsXsXsXsXsXsXsXsX",
"sXsXsXsXsXsXsXsXsXsXsXsXsXsXsXsXsXsXsXsXn C.n sXl R   sXsXsXsXsXsXsXsX5 a.f B f.2 sXsXsXsXsXsXsXsXsXsXsXsXsXsXsXsXsXsXsXsXsXsXsX",
"sXsXsXsXsXsXsXsXsXsXsXsXsXsXsXsXsXsXsXsXsXm n sXsXX sXsXsXsXsXsXsXsXsX5 R sX  _ , sXsXsXsXsXsXsXsXsXsXsXsXsXsXsXsXsXsXsXsXsXsXsX",
"sXsXsXsXsXsXsXsXsXsXsXsXsXsXsXsXsXsXsXsXsXsXsXsXsXsXsXsXsXsXsXsXsXsXsXsX. sXsXX . sXsXsXsXsXsXsXsXsXsXsXsXsXsXsXsXsXsXsXsXsXsXsX"
};
