/* XPM */
static char *result[] = {
/* columns rows colors chars-per-pixel */
"64 64 227 2 ",
"   c #010102",
".  c #05030B",
"X  c #0B0A0D",
"o  c #160F19",
"O  c #131115",
"+  c #16151A",
"@  c #19161C",
"#  c #1A191E",
"$  c #0F0D12",
"%  c #281018",
"&  c #1D1B22",
"*  c #1E172D",
"=  c #1F1534",
"-  c #120924",
";  c #211E24",
":  c #221728",
">  c #241D33",
",  c #291C37",
"<  c #30152D",
"1  c #25232B",
"2  c #27272C",
"3  c #2B2534",
"4  c #2C2A32",
"5  c #2A2736",
"6  c #332C3A",
"7  c #332B36",
"8  c #36343E",
"9  c #39333F",
"0  c #3C212F",
"q  c #460F1F",
"w  c #491528",
"e  c #5F182D",
"r  c #7A1F3E",
"t  c #6C1B35",
"y  c #412836",
"u  c #281947",
"i  c #2C2442",
"p  c #362C43",
"a  c #35264A",
"s  c #3B3443",
"d  c #3E3945",
"f  c #3A3646",
"g  c #3D2E5D",
"h  c #3F2C51",
"j  c #3E3353",
"k  c #2B1462",
"l  c #321A69",
"z  c #311B65",
"x  c #3A2269",
"c  c #3F2674",
"v  c #443D4C",
"b  c #433947",
"n  c #44355B",
"m  c #473B58",
"M  c #422E56",
"N  c #6F2B52",
"B  c #433362",
"V  c #4B3B64",
"C  c #4C3C6B",
"Z  c #493467",
"A  c #543D6C",
"S  c #452B76",
"D  c #4C3478",
"F  c #55397E",
"G  c #4A2E72",
"H  c #643D64",
"J  c #471357",
"K  c #44404D",
"L  c #4A4254",
"P  c #4D415B",
"I  c #464653",
"U  c #544B5C",
"Y  c #52475E",
"T  c #594E64",
"R  c #53436D",
"E  c #594B6E",
"W  c #554B68",
"Q  c #5C5265",
"!  c #5D536A",
"~  c #5C5A6B",
"^  c #565465",
"/  c #534471",
"(  c #5B4B73",
")  c #5C4C7A",
"_  c #574679",
"`  c #5D5279",
"'  c #4F4263",
"]  c #63596E",
"[  c #63566C",
"{  c #625375",
"}  c #695D75",
"|  c #63537B",
" . c #6D5D7D",
".. c #655A77",
"X. c #624F75",
"o. c #6B6077",
"O. c #6C637A",
"+. c #6B6B7E",
"@. c #666478",
"#. c #72677F",
"$. c #6C7A6D",
"%. c #516B54",
"&. c #821F3E",
"*. c #93263F",
"=. c #811F40",
"-. c #872342",
";. c #953147",
":. c #AF384E",
">. c #9B435B",
",. c #8C425C",
"<. c #A0455F",
"1. c #8B526D",
"2. c #94576F",
"3. c #B25168",
"4. c #9E6277",
"5. c #A56478",
"6. c #C7576A",
"7. c #D46374",
"8. c #C56377",
"9. c #648861",
"0. c #583B88",
"q. c #5B3E91",
"w. c #5F4185",
"e. c #5F4C85",
"r. c #6D4E8C",
"t. c #654788",
"y. c #6C5C84",
"u. c #695788",
"i. c #6D5995",
"p. c #715191",
"a. c #715399",
"s. c #714F97",
"d. c #6D6587",
"f. c #716181",
"g. c #766A83",
"h. c #7A6D86",
"j. c #73658C",
"k. c #756B8C",
"l. c #7B6C8D",
"z. c #75748A",
"x. c #7C718A",
"c. c #747286",
"v. c #7D6D91",
"b. c #756794",
"n. c #7D7D92",
"m. c #7C7399",
"M. c #7A59A7",
"N. c #7D59B2",
"B. c #7966A2",
"V. c #81738F",
"C. c #847494",
"Z. c #857C95",
"A. c #847599",
"S. c #847B9D",
"D. c #8B7B9C",
"F. c #897A97",
"G. c #966E83",
"H. c #B67082",
"J. c #875DB7",
"K. c #8466AE",
"L. c #847CA4",
"P. c #8E7EA0",
"I. c #8777AB",
"U. c #8965B7",
"Y. c #907EA1",
"T. c #D77789",
"R. c #8E5FC6",
"E. c #9366C8",
"W. c #9A75C7",
"Q. c #9771C9",
"!. c #A279D2",
"~. c #A07ACF",
"^. c #84849B",
"/. c #8D849B",
"(. c #90829E",
"). c #938A9D",
"_. c #B8949E",
"`. c #8D82A4",
"'. c #8B84AA",
"]. c #8C88A9",
"[. c #9484A4",
"{. c #9587A9",
"}. c #9887AA",
"|. c #948AAA",
" X c #9A8AAA",
".X c #9889A6",
"XX c #9993AD",
"oX c #938CB2",
"OX c #9C8FB1",
"+X c #9694B3",
"@X c #9C93B3",
"#X c #9B9BB6",
"$X c #9A95B9",
"%X c #9C97BC",
"&X c #A295B5",
"*X c #A49CBC",
"=X c #A399B8",
"-X c #A393B0",
";X c #9FA0BB",
":X c #A3A1BE",
">X c #B8B1B9",
",X c #DC8495",
"<X c #E38C9B",
"1X c #E18696",
"2X c #C5ACB8",
"3X c #B3C7AF",
"4X c #9E9AC1",
"5X c #9D87C4",
"6X c #A29CC4",
"7X c #AB82DB",
"8X c #A084C6",
"9X c #A6A3C3",
"0X c #AAA4C4",
"qX c #AAA7C9",
"wX c #ADAACA",
"eX c #A8A8C5",
"rX c #B1ADCD",
"tX c #B8AEC2",
"yX c #B4B3D3",
"uX c #B8B6D6",
"iX c #B9B9D9",
"pX c #BEBFE0",
"aX c #BFC0E0",
"sX c #C7C4CC",
"dX c #C1C1E2",
"fX c #E5E3E9",
"gX c None",
/* pixels */
"gXgXgXgXgXgXgXgXgXgXgXgXgXgXB g gXgXgXgXgXgXgXgXgXgXgXgXgXgXgXgXgXgXgXgXgXgXgXgXgXgXgXgXgXgXgXgXgXgXgXgXgXgXgXgXgXgXgXgXgXgXgXgX",
"gXgXgXgXgXgXgXgXgXgXgXgXgXgXZ b.gXgXgXgXgXgXgXgXgXgXgXgXgXgXgXgXgXgXgXgXgXgXgXgXgXgXgXgXgXgXgXgXgXgXgXgXgXgXgXgXgXgXgXgXgXgXgXgX",
"gXgXgXgXgXgXgXgXgXgXgXgXgXgXR ].B gXgXgXgXgXgXgXgXgXgXgXgXgXgXgXgXgXgXgXgXgXgXgXgXgXgXgXgXgXgXgXgXgXgXgXgXgXgXgXgXgXgXgXgXgXgXgX",
"gXgXgXgXgXgXgXgXgXgXgXgXgXgXC ]./ gXgXgXgXgXgXgXgX> gXgXgXgXgXgXgXgXgXgXgXgXgXgXgXgXgXgXgXgXgXgXgXgXgXgXgXgXgXgXgXgXgXgXgXgXgXgX",
"gXgXgXgXgXgXgXgXgXgXgXgXgXgXC 9X9XgXgXgXgXgXgXgX2 d.gXgXgXgXgXgXgXgXgXgXgXgXgXgXgXgXgXgXgXgXgXgXgXgXgXgXgXgXgXgXgXgXgXgXgXgXgXgX",
"gXgXgXgXgXgXgXgXgXgXgXgXgXgXC qX+XgXgXgXgXgXgXgXc.'.gXgXgXgXgXgXgXgXgXgXgXgXgXgXgXgXgXgXgXgXgXgXgXgXgXgXgXgXgXgXgXgXgXgXgXgXgXgX",
"gXgXgXgXgXgXgXgXgXgXgXgXgXgXC qXL.gXgXgXgXgXgX8 9XL.gXgXgXgXgXgXgXgXgXgXgXgXgXgXgXgXgXgXgXgXgXgXgXgXgXgXgXgXgXgXgXgXgXgXgXgXgXgX",
"gXgXgXgXgXgXgXgXgXgXgXgXgXgXC qX'.gXgXgXgXgXgXz.yXj.gXgXgXgXgXgXgXgXgXgXgXgXgXgXgXgXgXgXgXgXgXgXgXgXgXgXgXgXgXgXgXgXgXgXgXgXgXgX",
"gXgXgXgXgXgXgXgXgXgXgXgXgXgXC qXwXu.gXgXgXgX..wX0X/ gXgXgXgXgXgXgXgXgXgXgXgXgXgXgXgXgXgXgXgXgXgXgXgXgXgXgXgXgXgXgXgXgXgXgXgXgXgX",
"gXgXgXgXgXgXgXgXgXgXgXgXgXgXi 6XyXW . gXgXZ '.iXoXB gXgXgXgXgXgXgXgXgXgXgXgXgXgXgXgXgXgXgXgXgXgXgXgXgXgXgXgXgXgXgXgXgXgXgXgXgXgX",
"gXgXgXgXgXgXgXgXgXgXgXgXgXgXX ].eX^ 5 E j ( =XyXC.gXgXgXgXgXgXgXgXgXgXgXgXgXgXgXgXgXgXgXgXgXgXgXgXgXgXgXgXgXgXgXgXgXgXgXgXgXgXgX",
"gXgXgXgXgXgXgXgXgXgXgXgXgXgXX h.uXwXwX+.$ V. X9X) gXgXgXgXgXgXgXgXgXgXgXgXgXgXgXgXgXgXgXgXgXgXgXgXgXgXgXgXgXgXgXgXgXgXgXgXgXgXgX",
"gXgXgXgXgXgXgXgXgXgXgXgXgXgX~ 9XiXiXiX|.Z.[. X X/ gXgXgXgXgXgXgXgXgXgXgXgXgXgXgXgXgXgXgXgXgXgXgXgXgXgXgXgXgXgXgXgXgXgXgXgXgXgXgX",
"gXgXgXgXgXgXgXgXgXgXgXgXgXn +XaXuXiXyXwXaX*X Xv.C gXgXgXgXgXgXgXgXgXgXgXgXgXgXgXgXgXgXgXgXgXgXgXgXgXgXgXgXgXgXgXgXgXgXgXgXgXgXgX",
"gXgXgXgXgXgXgXgXgXgXgXgXgXi.pXiXuXuXiXiXiXrX X) gXgXgXgXgXgXgXgXgXgXgXgXgXgXgXgXgXgXgXgXgXgXgXgXgXgXgXgXgXgXgXgXgXgXgXgXgXgXgXgX",
"gXgXgXgXgXgXgXgXgXgXgXgXgX^ pXuXuXuXuXuXiXyX X| gXgXgXgXgXgXgXgXgXgXgXgXgXgXgXgXgXgXgXgXgXgXgXgXgXgXgXgXgXgXgXgXgXgXgXgXgXgXgXgX",
"gXgXgXgXgXgXgXgXgXgXgXgXgXL uXiXiX0XuX$Xm.@X Xf.B gXgXgXgXgXgXgXgXgXgXgXgXgXgXgXgXgXgXgXgXgXgXgXgXgXgXgXgXgXgXgXgXgXgXgXgXgXgXgX",
"gXgXgXgXgXgXgXgXgXgXgXgXgXd wXiXyX9XwX/.l.[. XC.C gXgXgXgXgXgXgXgXgXgXgXgXgXgXgXgXgXgXgXgXgXgXgXgXgXgXgXgXgXgXgXgXgXgXgXgXgXgXgX",
"gXgXgXgXgXgXgXgXgXgXgXgXu p *XiX6XqX$XXXtX[. X[.V gXgXgXgXgXgXgXgXgXgXgXgXgXgXgXgXgXgXgXgXgXgXgXgXgXgXgXgXgXgXgXgXgXgXgXgXgXgXgX",
"gXgXgXgXgXgXgXgXgXgXv {.B V *XiX@X@Xm.fX=XY.[.[.3 gXgXgXgXgXgXgXgXgXgXgXgXgXgXgXgXgXgXgXgXgXgXgXgXgXgXgXgXgXgXgXgXgXgXgXgXgXgXgX",
"gXgXgXgXgXgXgXgXgXgXx.0X'.|.rXiX+Xj.).3X).Y..X(.2 | gXgXgXgXgXgXgXgXgXgXgXgXgXgXgXgXgXgXgX+ +.K Z gXgXgXgXgXgXgXgXgXgX .gXgXgXgX",
"gXgXgXgXgXgXgXgX) Y *XiXiXiXiXiX|.V 9.9.).[.[.Y.K E gXgXgXgXgXgXgXgXgXgXgXgXgXgXgXgXgX# & d ^.n.B.gXgXgXgXgXgXgXgXgXgXl.gXgXgXgX",
"gXgXgXgXgXgXgXgXk.7 |.iXiXiXiXiX'.B ; %.D. XF.F.g.> gXgXgXZ gXgXgXgXgXgXgXgXgXgXgXgXX I ^ ^.yX0X4Xc = gXgXgXgXgXgXgX/.'.gXgXgXgX",
"gXgXgXgXgXgX2 `.D.V ].iXiXiXiXiXqX$Xx.Z.}.}.F.F.l.3 R gX` C.C gXgXgXgXgXgXgX  z.K :X#X;X;X^ ^.3 _ B.d.5 gXgXgXgXgXf.+XL.gXgXgXgX",
"gXgXgXgXgX! ] #.v p {.iXwXL.wXyXrXrXOX X-X-Xl.C.k.6 R A |  XE gXgXgXgXgXgX  8 #X^.aXz.k.k.f L a S I.'.n.c.gXgXgXgX{.&Xj.gXgXgXgX",
"gXgXgXgXgX} &XT X @ [.uX{.| 9XwX*X&X XD.#.g...C.h.6 | ( f. X} . gXgXgXgXgX2 n.iXXX`.# 6 h C M J.q.U.I.qXZ.+ gXm.:XqX[.u.gXgXgXgX",
"gXgXgX  X O. Xf.n 4 C.$Xu.&XyXOX[.[..XQ X X v  Xg.v [.X.`. Xh.. gXgX  +.I #XyX#X& o o t.r.r.s.Q.q.~.B.) [.K j 0X:XtXA.B gXgXgXgX",
"gXgXgX& l.D.y.M ..d.L P.v.uX0XV.! U 1 3 u * d }.v h. XA. X[.'   gX# n.eX^.f | I n n A p.p.p.a.J.E.!.W.) j.v.y.[ &XrXA.gXgXgXgXgX",
"gXgXgX[ .X[.) a c.+XP (.[.0Xg.b y 0 % w B u b .X4 [. X&XC. Xk.K   ^ *X#Xc.> V M r.a.p.p.p.p.r.J.N.N.7XU.b.OXY.v U XXl.gXgXgXgXgX",
"gX  O. X XD.a.Z n.%X| [. XD.9 % w e &.N x a v C.b [. X0Xv.:XiXn.# ^.@.[ f r.p.p.p.p.p.p.r.p.r.U.0.w.7XW.8XP.}.g.X [ Q gXgXgXgXgX",
"gX  O. X}.y.J.G +.#XC C. XQ n F N *.-.w i g { v g. X XrXrXuXiX:XC.2 6 a A p.p.p.r.p.r.p.p.p.p.K.E.i.B.u.oX) D.}.b X X gXgXgXgXgX",
"gX4 D. X Xu.R.Z ; 8 B p. XU , D N -.=.t : , D.9 E {.*XuXiXiXiXyX&XU , ( t.p.p.F t.w.p.t.w.p.p.N.~.Q.5XoX@XoX9X9Xx.U   gXgXgXgXgX",
"@ }  X XD.a.R.t.-   x D ! d gXJ =.-.=.=.q ; D.p B +XwXiXiXiXiXiX*XF.n 0.r.t.0.S D F r.D S 0.t.s.!.U.6XrX=XrXrXrX X(.9 gXgXgXgXgX",
"4 {. X Xj.N.R.E.S - z z . gXgXgX-.:.;.;.r 6 f.gX' +XiXiXuXuXiXiX*X Xj.l gXl gXgXl gXgXl gXc F 0.U.F L. XD.`. X0X X X#.O gXgXgXgX",
"4 }. X@X_ gXgXgXgXgXgXgXgXgXl._.6.T.T.6.N  .C gXgX~ iXiXiXiXiXuXyX-XC.C gXgXgXgXgXgXgXgXgXgXgXx c 0.a._ n !  X X.X X[.x.2 gXgXgX",
"L }.OX0XgXgXgXgXgXgXgXgXgXgXC G.T.<X<X8.G.S.B gXn O.eXiXiXuXiXiXiX0X[.) gXgXgXgXgXgXgXgXgXgXgXgXk q.E.e.^ L  Xf.[.@X[. X[ gXgXgX",
"gX.X XqXgXgXgXgXgXgXgXgXgXgXg.:.<X<X1X3.G.S.B gX' L.#XrXyXuXuXiXuXyX Xy.gXgXgXgXgXgXgXgXgXgXgXgXz 0.U.i.].@.{.t.I.}.[. XF.X gXgX",
"gX[. X%XgXgXgXgXgXgXgXgXgX#.2X7.1X1XT.:.H v.B gX4 |.@X@X;XiXiXuXiXyX Xl.V B B Z gXgXgXgXgXgXgXgX' _ G u.:X#X[.K.M.i.[. XD.O gXgX",
"gX[ &XwXgXgXgXgXgXgXgXgXZ.).2.T.<X3.8.5.-Xf.B gX4 *X9X&XrXiXiXiXiXrX X[.R | | { B g g B B l.R F.S.D.A.l.^ Q ; F c ) qX=X.XT gXgX",
"gXK OX9XgXgXgXgXgXgXgXgX(.sX,.7.T.5.<.2.|.v gXgX2 qXrXwXiXiXiXuXiXyX}.{.( O.f. .E ( R ( | A.g.Y. X X XD.d gXgXgXgXG oX0X(.s gXgX",
"gXU @X'.gXgXgXgXgXgXgXgX/.sX1.;.>._.2.H l.@ gXgXp yXiXiXuXuXiXiXuXwX X[./  .f.f.f.f.f.#.F.}.}..X}.}.}.F.C gXgXgXgXz u.OXD.; gXgX",
"gX(.*Xu.gXgXgXgXgXgXgXgXgXf.X.o w 2X>X(. X@ gXgX_ rXiXiXuXuXuXiXuX@X}.[.(  . .f. .f.f. .F..X}.}..X}.}.k.gXgXgXgXgXgX/ v. X] gXgX",
"gXgX X( gXgXgXgXgXgXgXgXgXP P.^.Y [ *X*X[.@ gXgXgX'.iXuXiXiXuXiXuXOX.Xj.X.f.f. .f. .f. .F.}.}.}.}.}.{.| gXgXgXgXgXgXgXoX XO.gXgX",
"gXgXS.) gXgXgXgXgXgXgXgXgXv &XqX^.h.OX=Xl.: gXgXgXE wXuXiXuXiXiXrX X X| f.| f.f.f.#. .j.Y.}.}.}..X.XD.( gXgXgXgXgXgXj.$X&Xo.gXgX",
"gXgXz.b.gXgXgXgXgXgXgXgXgXd [. X=XuX X XE gXgXgXgXv (.rXiXiXuXrX&X.X[.y.v.E } f. .f. .V.Y.}.}.Y.F.Y.C.gXgXgXgXgXgXgXC L.=XO.gXgX",
"gXgXg.rXgXgXgXgXgXgXgXgXgXgX}  X X X X{.s gXgXgX/ U ] =XuXuXyX X X XD.C.}.! v f.#.f.f. .F.}.}.C.R C gXgXgXgXgXgXgXgXgXL.=X} gXgX",
"gXgX`.iXgXgXgXgXgXgXgXgXgXgXm p ! OXY.P # gXgXgXR V.( v.=X*X&X}.}. X[.[. Xl.6 { f.f.f.#.V.C. Xj.g gXgXgXgXgXgXgXgXgXgX6X&XF.gXgX",
"gXgX! +.gXgXgXgXgXgXgXgXgXgXgX  7 [ T > gXgXgXgXy. Xk.f..X[.}.}. X.X[. X X[.7 T f.T  .X.b X.} X.gXgXgXgXgXgXgXgXgXgXgX*X=XC.gXgX",
"gXgX  3 A gXgXgXgXgXgXgXgXgXgXgXgX    gXgXgXgXZ D. X[.x.D.[. X}.Y.[..X.X X Xv m ..6 Y L   m * gXgXgXgXgXgXgXgXgXgXgXgXL.=XO.gXgX",
"gXgXgXS./ gXgXgXgXgXgXgXgXgXgXgXgXgXgXgXgXgXgXZ D.{. XD.C v. XD.X.D. X.X}. X| o @ gXO gXgXn gXgXgXgXgXgXgXgXgXgXgXgXgXe.%XO.gXgX",
"gXgXgXd > gXgXgXgXgXgXgXgXgXgXgXgXgXgXgXgXgXgXZ D.}.{.Y.( { | ) Z L  X X}. X| . gXgXgXgXgXgXgXgXgXgXgXgXgXgXgXgXgXgXgXoX=XO.  gX",
"gXgXgX  gXgXgXgXgXgXgXgXgXgXgXgXgXgXgXgXgXgXgXgX . X XC.f.C g g g & [ F. X}.| 3 gXgXgXgXgXgXgXgXgXgXgXgXgXgXgXgXgXgXgX#X=Xg.gXgX",
"gXgXgXgXgXgXgXgXgXgXgXgXgXgXgXgXgXgXgXgXgXgXgXgX1 Z.F.(  .R gXgXgXgX  T [.C.f.{ B gXgXgXgXgXgXgXgXgXgXgXgXgXgXgXgXgXgX_ oX XgXgX",
"gXgXgXgXgXgXgXgXgXgXgXgXgXgXgXgXgXgXgXgXgXgXgXgXgX# : [ { gXgXgXgXgXgX# ; ( f. .B gXgXgXgXgXgXgXgXgXgXgXgXgXgXgXgXgXgXA P. XgXgX",
"gXgXgXgXgXgXgXgXgXgXgXgXgXgXgXgXgXgXgXgXgXgXgXgXgX> 9 E ( gXgXgXgXgXgXgX> E f.y.R gXgXgXgXgXgXgXgXgXgXgXgXgXgXgXgXgXgXC v.U gXgX",
"gXgXgXgXgXgXgXgXgXgXgXgXgXgXgXgXgXgXgXgXgXgXgXgXgX( | n ( gXgXgXgXgXgXgXC  . ...X.gXgXgXgXgXgXgXgXgXgXgXgXgXgXgXgXgXgXd...X gXgX",
"gXgXgXgXgXgXgXgXgXgXgXgXgXgXgXgXgXgXgXgXgXgXgXgXgXR R > ( gXgXgXgXgXgXgXV  .R C ` gXgXgXgXgXgXgXgXgXgXgXgXgXgXgXgXgXgXyX8   gXgX",
"gXgXgXgXgXgXgXgXgXgXgXgXgXgXgXgXgXgXgXgXgXgXgXgXgX| ( p k.d gXgXgXgXgXgXgX( R C v.R gXgXgXgXgXgXgXgXgXgXgXgXgXgXgXgXgXaX8 gXgXgX",
"gXgXgXgXgXgXgXgXgXgXgXgXgXgXgXgXgXgXgXgXgXgXgXgXgX) R gX} s gXgXgXgXgXgXgXm ) Z l.P gXgXgXgXgXgXgXgXgXgXgXgXgXgXgXgXgX` & gXgXgX",
"gXgXgXgXgXgXgXgXgXgXgXgXgXgXgXgXgXgXgXgXgXgXgXgXgXgXB gX9 7 gXgXgXgXgXgXgXs { gX( v gXgXgXgXgXgXgXgXgXgXgXgXgXgXgXgXgX>   gXgXgX",
"gXgXgXgXgXgXgXgXgXgXgXgXgXgXgXgXgXgXgXgXgXgXgXgXgXgXgXgXgX. gXgXgXgXgXgXgXs v gXs b gXgXgXgXgXgXgXgXgXgXgXgXgXgXgXgXgXgXgXgXgXgX",
"gXgXgXgXgXgXgXgXgXgXgXgXgXgXgXgXgXgXgXgXgXgXgXgXgXgXgXgXgXgXgXgXgXgXgXgXgXO 1 gXO 1 gXgXgXgXgXgXgXgXgXgXgXgXgXgXgXgXgXgXgXgXgXgX",
"gXgXgXgXgXgXgXgXgXgXgXgXgXgXgXgXgXgXgXgXgXgXgXgXgXgXgXgXgXgXgXgXgXgXgXgXgX  gXgX  gXgXgXgXgXgXgXgXgXgXgXgXgXgXgXgXgXgXgXgXgXgXgX",
"gXgXgXgXgXgXgXgXgXgXgXgXgXgXgXgXgXgXgXgXgXgXgXgXgXgXgXgXgXgXgXgXgXgXgXgXgXgXgXgXgXgXgXgXgXgXgXgXgXgXgXgXgXgXgXgXgXgXgXgXgXgXgXgX"
};
