/* XPM */
static char *result[] = {
/* columns rows colors chars-per-pixel */
"64 64 211 2 ",
"   c #010101",
".  c #0B0A0B",
"X  c #07050B",
"o  c #130309",
"O  c #0E0C13",
"+  c #0A0613",
"@  c #140E14",
"#  c #121116",
"$  c #161419",
"%  c #19161C",
"&  c #1B191F",
"*  c #0F1013",
"=  c #301018",
"-  c #1E1B21",
";  c #1A1327",
":  c #231E2C",
">  c #201C22",
",  c #241C34",
"<  c #2C1E39",
"1  c #261B37",
"2  c #26242B",
"3  c #2A252E",
"4  c #26242A",
"5  c #2B2532",
"6  c #2D2A33",
"7  c #2D223D",
"8  c #312D37",
"9  c #332E39",
"0  c #36323C",
"q  c #49162C",
"w  c #54182C",
"e  c #6C1C38",
"r  c #771D3C",
"t  c #462024",
"y  c #32692B",
"u  c #1A0A41",
"i  c #271945",
"p  c #2E1B59",
"a  c #2F2348",
"s  c #35274B",
"d  c #3C3545",
"f  c #3C344A",
"g  c #3F3945",
"h  c #3B2C53",
"j  c #382659",
"k  c #3D2C5D",
"l  c #372957",
"z  c #341B6A",
"x  c #381F6D",
"c  c #2B1365",
"v  c #3D2868",
"b  c #7E1F40",
"n  c #443C4D",
"m  c #403849",
"M  c #412E5A",
"N  c #413456",
"B  c #42345D",
"V  c #463B5B",
"C  c #4A3C5B",
"Z  c #493F55",
"A  c #6D2E50",
"S  c #443462",
"D  c #4B3C65",
"F  c #4C3D6A",
"G  c #4C3562",
"H  c #513F6B",
"J  c #412773",
"K  c #472C76",
"L  c #4D3477",
"P  c #51357D",
"I  c #563C72",
"U  c #43424D",
"Y  c #48414F",
"T  c #4B4454",
"R  c #4C4959",
"E  c #544B5C",
"W  c #50465C",
"Q  c #51525E",
"!  c #4E4565",
"~  c #554C63",
"^  c #584F62",
"/  c #53436D",
"(  c #5B4C6E",
")  c #544769",
"_  c #5A5164",
"`  c #5E5369",
"'  c #595968",
"]  c #544572",
"[  c #5C4C75",
"{  c #5B4C7A",
"}  c #594677",
"|  c #5E517D",
" . c #595172",
".. c #63596E",
"X. c #60576A",
"o. c #615276",
"O. c #64547B",
"+. c #68577C",
"@. c #6B5C7D",
"#. c #675C78",
"$. c #7B5877",
"%. c #6E637A",
"&. c #686479",
"*. c #72667D",
"=. c #727978",
"-. c #99283A",
";. c #852241",
":. c #8A2644",
">. c #962F4B",
",. c #A93C52",
"<. c #BB3C50",
"1. c #C53F50",
"2. c #9F475E",
"3. c #AF455B",
"4. c #9D5C75",
"5. c #BC5F75",
"6. c #C65C6E",
"7. c #C3687B",
"8. c #DA6878",
"9. c #583B81",
"0. c #5F4185",
"q. c #614485",
"w. c #6C4C8D",
"e. c #634983",
"r. c #665582",
"t. c #655885",
"y. c #6C5C84",
"u. c #675A88",
"i. c #6F4F90",
"p. c #704F90",
"a. c #725192",
"s. c #6E6185",
"d. c #6D6589",
"f. c #736484",
"g. c #746A83",
"h. c #74648B",
"j. c #74688D",
"k. c #7B6B8D",
"l. c #7B6B85",
"z. c #75728B",
"x. c #7C758D",
"c. c #766C94",
"v. c #7D6D93",
"b. c #716691",
"n. c #7F7193",
"m. c #7B7C91",
"M. c #7F789E",
"N. c #836A87",
"B. c #81738E",
"V. c #837494",
"C. c #857A95",
"Z. c #897B96",
"A. c #85759A",
"S. c #837B99",
"D. c #8C7C9D",
"F. c #847DA4",
"G. c #8E7EA0",
"H. c #887EA8",
"J. c #DA7889",
"K. c #83849B",
"L. c #828097",
"P. c #938B9C",
"I. c #BD8596",
"U. c #8781A7",
"Y. c #8C81A3",
"T. c #8A8AA2",
"R. c #8C85AA",
"E. c #8C88AA",
"W. c #9484A4",
"Q. c #9887A7",
"!. c #948AA7",
"~. c #938AAC",
"^. c #998AAA",
"/. c #9787A9",
"(. c #958FB4",
"). c #9E8DB7",
"_. c #9592B3",
"`. c #9D92B1",
"'. c #9995BA",
"]. c #9E9BBD",
"[. c #9896B6",
"{. c #A08FB1",
"}. c #A193B4",
"|. c #A39CBB",
" X c #A59ABA",
".X c #AB92A1",
"XX c #AFA9BA",
"oX c #DE8697",
"OX c #E28B9B",
"+X c #E08695",
"@X c #D0AAB2",
"#X c #B2C6AE",
"$X c #9F9CC0",
"%X c #A49DC4",
"&X c #A5A3C5",
"*X c #AAA4C5",
"=X c #A9A6C9",
"-X c #AEAACA",
";X c #AEA8C7",
":X c #B1ADCD",
">X c #B0AFD0",
",X c #B5B3D3",
"<X c #B9B7D7",
"1X c #B9B9D9",
"2X c #B9B7D8",
"3X c #BFBFE0",
"4X c #BFC0E0",
"5X c #D7D7D8",
"6X c #C1C2E2",
"7X c #E5E3E8",
"8X c None",
/* pixels */
"8X8X8X8X8X8X8X8X8X8X8X8X8X8X8X8X8X8X8X8X8X8X8X8X8X8X8X8X8X8X8X8X8X8X8X8X8X8X8X8X8X8X8X8X8X8X8X8X8X8X8X8X8X8X8X8X8X8X8X8X8X8X8X8X",
"8X8X8X8X8X8X8X/ 8X8X8X8X8X8X8X8X8X8X8X8X8X8X8X8X8X8X8X8X8X8X8X8X8X8X8X8X8X8X8X8X8X8X8X8X8X8X8X8X8X8X8X8X8X8X8X8X8X8X8X8X8X8X8X8X",
"8X8X8X8X8X8Xj U.u.8X8X8X8X8X8X8X8X8X8X8X8X8X8X8X8X8X8X8X8X8X8X8X8X8X8X8X8X8X8X8X8X8X8X8X8X8X8X8X8X8X8X8X8X8X8X8X8X8X8X8X8X8X8X8X",
"8X8X8X8X8X8Xj F.U.] 8X8X8X8X8X8X8X8X8X6 N 8X8X8X8X8X8X8X8X8X8X8X8X8X8X8X8X8X8X8X8X8X8X8X8X8X8X8X8X8X8X8X8X8X8X8X8X8X8X8X8X8X8X8X",
"8X8X8X8X8X8Xl F.4Xr.8X8X8X8X8X8X8X8X3 T.c.8X8X8X8X8X8X8X8X8X8X8X8X8X8X8X8X8X8X8X8X8X8X8X8X8X8X8X8X8X8X8X8X8X8X8X8X8X8X8X8X8X8X8X",
"8X8X8X8X8X8Xj F.1XE.} 8X8X8X8X8X8X3 T.<Xt.8X8X8X8X8X8X8X8X8X8X8X8X8X8X8X8X8X8X8X8X8X8X8X8X8X8X8X8X8X8X8X8X8X8X8X8X8X8X8X8X8X8X8X",
"8X8X8X8X8X8Xj F.1X4Xf   8X8X8X8X! T.6XU./ 8X8X8X8X8X8X8X8X8X8X8X8X8X8X8X8X8X8X8X8X8X8X8X8X8X8X8X8X8X8X8X8X8X8X8X8X8X8X8X8X8X8X8X",
"8X8X8X8X8X8X+ z.;X>XT.m.D +.S / R.6X:Xy.8X8X8X8X8X8X8X8X8X8X8X8X8X8X8X8X8X8X8X8X8X8X8X8X8X8X8X8X8X8X8X8X8X8X8X8X8X8X8X8X8X8X8X8X",
"8X8X8X8X8X8X  T |.2X1X1X_.4 : A.^.;XR.D 8X8X8X8X8X8X8X8X8X8X8X8X8X8X8X8X8X8X8X8X8X8X8X8X8X8X8X8X8X8X8X8X8X8X8X8X8X8X8X8X8X8X8X8X",
"8X8X8X8X8X8X' ;X,X1X1X1X|.[.[.^./.^.h.8X8X8X8X8X8X8X8X8X8X8X8X8X8X8X8X8X8X8X8X8X8X8X8X8X8X8X8X8X8X8X8X8X8X8X8X8X8X8X8X8X8X8X8X8X",
"8X8X8X8X8Xt.,X1X1X1X,X,X,X1X1X-X^.k.S 8X8X8X8X8X8X8X8X8X8X8X8X8X8X8X8X8X8X8X8X8X8X8X8X8X8X8X8X8X8X8X8X8X8X8X8X8X8X8X8X8X8X8X8X8X",
"8X8X8X8X8XR 1X1X1X,X|.,X1X=X-X;X/.k.S 8X8X8X8X8X8X8X8X8X8X8X8X8X8X8X8X8X8X8X8X8X8X8X8X8X8X8X8X8X8X8X8X8X8X8X8X8X8X8X8X8X8X8X8X8X",
"8X8X8X8X8Xn %X1X1X^.-X%X[.s.k.^.^.D.[ 8X8X8X8X8X8X8X8X8X8X8X8X8X8X8X8X8X8X8X8X8X8X8X8X8X8X8X8X8X8X8X8X8X8X8X8X8X8X8X8X8X8X8X8X8X",
"8X8X8X8X8X( !.1X1XC.E.h.S.7XW.^.Q.^.#.8X8X8X8X8X8X8X8X8X8X8X8X8X8X8X8X8X8X8X8X8X8X8X8X8X8X8X8X8X8X8X8X8X8X8X8X8X8X8X8X8X8X8X8X8X",
"8X8X X~.d.c.|.1X1Xc.B =.#X5Xg./.Q.{.R 8X8X8X8X8X8X8X8X8X8X8X8X8X8X8X8X8X8X8X8X8X8X8X8X8X8X8X8X8X8X8X8X8X8X8X8X8X8X8X8X8X8X8X8X8X",
"8XY.1X1X1X4X1X1X1XU.c.Y y P.A.^.W.G.*.3 8X8X8X8X8X8X8X8X8X8X8X8X8X8X8X8X8X8X8X8X8X8X8X8X8X8X8X8X8X8X8X8X8X8X8X8X8X8X8X8X8X8X8X8X",
"F k.1X1X1X1X1X1X<X3X;X{.=.Z.^.^.D.N.}.n 8X8X8X8Xk 8X8X8X8X8X8X8X8X8X8X8X8X8X8X8X8X8X8X8X8X8X8X8X8X8X8X8X8X8X8X8X8X8X8X8X8X8X8X8X",
", k.1X1X].j.|.1X*X X^.^.^.^.^.^.A.r.{.n ; 8X8Xs.h.D 8X8X8X8X8X8X8X8X8X8X8X8X8X8X8X8X8X8X8X8X8X8X8X8X8X8X8X8X8X8X8X8X8X8X8X8X8X8X",
". A.!.$Xt.Y.>X*X^.^.m 6 Z.8 3 3 n A.{.n , 8XB A./.` . 8X8X8X8X8X8X8X8X8X8X8X8X8X8X8X8X8X8X8X8X8X8X8X8X8X8X8X8X8X8X8X8X8X8X8X8X8X",
"8X6 k.D.V.1X*X^.n > w o > a a , 3 }.X.T A.h.V.Q./.V.. 8X8X8X8X8X8X8X8X8X8X8X8X8X8X8X8X8X8X8X8X8X8X8X8X8X8X8X8X8X8X8X8X8X8X8X8X8X",
"8XB D.W./.`.^ * q >.;.e e M S a 8 {.T W {.O.V./.!.) * 8X8X8X8X8X8X8X8X8X8X8X8X8X8X8X8X8X8X8X8X8X8X8X8X8X8X8X8X8X8X8X8X8X8X8X8X8X",
"8X8X[ W.^._   8X8X;.;.;.r @ h h o.X.n /.Q.W.V.k.=X-X[.# & 8X8X1X8X8X8X8X8X8X8X8X8X8X8X8X8X8X8X8X8X8X8X8X8X8X8X8X8X8X8X8X8X8X8X8X",
"8X8X8X! D.E 8X8Xb ;.1.:.;.e o : /.~ n ^.W.;X,X,X1X1X,X`.,X2X2X2X1X8X8X8X8X8X8X8X8X8X8X8X8X8X8X8X8X8X8X8X8X8X8X8X8X8X8X8X8X8X8X8X",
"8X8X8X  8X8X8X8X,.<.J.2.:.;.A g y.a r.`.}.:X1X1X1X1X2X1X1X2X2X2X2X1X8X8X8X8X8X8X8X8X8X8X8X8X8X8X8X8X8X8X8X8X8X8X8X8X8X8X8X8X8X8X",
"8X8X8X8X8X8Xd.2.8.OXOX+X1.A Q.y.1 , o.:X1X1X1X1X1X1X,X>X].1X1X1X1X1X~.8X8X8X8X8X8X8X8X8X8X8X8X8X8X8X8X8X8X8X8X8X8X8X8X8X8X8X8X8X",
"8X8X8X8X8X8XN.7.J.OXOX+X,.V.A.h N M R 3X2X1X1X1X1X1X1X&Xj.].1X1X1X1Xu.F 8X8X8X8X8X8X8X8X8XN.B.B.V.B.8X8XB 8X8X8X8X8X8X8X8X8X8X8X",
"8X8X8X8X8XK.4.6.OX5.J.8.b L.G.I p.! %.*X1X1X2X2X1X1X1X1XL.! 4X4X1X1X_.{ 8X8X8X8X8X8X8X@.k.G.^.^.Q.^.A.s.y.O.E 8X8X8X8X8X8X8X8X8X",
"8X8X8XP.:X.X6.8.7.I.@X,.A +.d i j ~ `.`.=X>X2X2X1X1X1X1X].*.C.m.1X1X1X'.=X| v S y.f.Z.A.G.^.^.^.^.y.+.+.r.r.v.B.&.y.j W 4 8X8X8X",
"8X8X8Xk.!.N.q t = =. X$.E.Z.X u u U 2X,X|.*X1X2X,X1X1X1X>X`.W R 1X1X1X1X2X| [ o.f.D.^.^.^.^.h.[ { 8X8X8X8X8XF { v.G.k.G.C X 8X8X",
"8X8X8X8Xf W.S.K.K.'.^. X}.Z.+ z p O.3X1X>X,X1X2X1X1X2X,X`./.Z.@.[.1X1X1X,X| %.f.l././.^.v.] F 8X8X8X8X8X8X8X8X8XF r.N.G.G.- 8X8X",
"8X8X8X8X9 ^.`.}.}.}.^.`.W./ I z 8X8XM.1X2X1X2X1X1X1X1X>XQ.^.V.7 &.1X1X1X,X=X%X{ *.V.Q.Q.A.8X8X8X8X8X8X8X8X8X8XH k.D.k.f.P.D 8X8X",
"8X8X8X8X8XT W.D.D.D.P.G.V.; x 8X8X8XT ^.;X1X1X2X,X,X>X^.Q.!.h.O.R z.1X1X1X1X>X{ ] #.o.F 8X8X8X8X8X8X8X8X8X8XF #.y.V.Q.k.s.y.# 8X",
"8X8X8X8X8X8X< X & @ @ B , } z 8X8Xo.^ E %X,X,X,X,X^.^.^.^.D.V.W.W.O.'.1X1X2X1X&X/ + . 8X8X8X8X8X8X8X8X8X8X8X8XS S [ @.+.@.@.% 8X",
"8X8X8X8X8X8X  O g.d I i.w.0.z 8X8Xy.^.s.k.^./.^.^.^.^.^.^.^.W.Q.^.0 m.1X2X1X2X1X&X| 8X8X8X8X8X8X8X8X8X8X8X8X8X8X8X8XS S O.F k B ",
"8X8X8X8X8X8X> K.U S a.i.9.x 8X8X[ ^./.^.B.k.V.W.^.^.D.Z.^.^.^./.^.n K.1X1X1X1X1X1X&Xt.8X8X8X8X8X8X8X8X8X8X8X8X8X8X8X8X8X8X8X8X8X",
"8X8X8X8X8X2 h.%XW ] a.p.x 8X8X8X{ ^.^.^.A.[ F h.v.h.[ S *.^./.^.^.y.'.1X1X-X;X1X,X:X&Xd.8X8X8X8X8X8X8X8X8X8X8X8X8X8X8X8X8X8X8X8X",
"8X8X8X8X8XQ '.q.a.a.i.9.x 8X8X8XC }.{.A.V.l.o.S j k S < # %.^.^.^.r.(.1X=X^.^.*X|.^.:Xk.1 8X8X8X8X8X8X8X8X8X8X8X8X8X8X8X8X8X8X8X",
"8X8X8X8X8X^ $Xw.i.i.a.x 8X8X8X8X> n n W O.o.S 8X8X8X8X8X8X- T ~ k.F.=X1X`.Q.Q.W./.^.G.) 8X8X8X8X8X8X8X8X8X8X8X8X8X8X8X8X8X8X8X8X",
"8X8Xs d ' & [ a.i.a.P 8X8X8X8X8X8X7 m C +.F 8X8X8X8X8X8X8X8XO h +.j.*X1X}././.!./.^.%.; 8X8X8X8X8X8X8X8X8X8X8X8X8X8X8X8X8X8X8X8X",
"8X| n.T.;Xm.h.w.a.P 8X8X8X8X8X8X8X] +.7 Z ] 8X8X8X8X8X8X8X8X8X} f.[ _.1X{.Q.Q.^./.D.( 8X8X8X8X8X8X8X8X8X8X8X8X8X8X8X8X8X8X8X8X8X",
"8X5 ^.m.' 6XH.q.a.J 8X8X8X8X8X8X8Xo.t.i X.B.3 8X8X8X8X8X8X8X8XS [ [ '. X^.Q.^./.^.f.@ 8X8X8X8X8X8X8X8X8X8X8X8X8X8X8X8X8X8X8X8X8X",
"8X  6 h 5 u.{ e.a.J 8X8X8X8X8X8X8X8XF 8X. #.3 8X8X8X8X8X8X8X] 8Xm ~.,X X^.^.Q.!./.W.^ 8X8X8X8X8X8X8X8X8X8X8X8X8X8X8X8X8X8X8X8X8X",
"8X8XS +.D.s.} a.a.J 8X8X8X8X8X8X8X8X8X8X8X@   8X8X8X8X8X] { { ] y.*X1X,X^.^.!./.!.A.D 8X8X8X8X8X8X8X8X8X8X8X8X8X8X8X8X8X8X8X8X8X",
"8X8X2 |.'.w.p.p.a.J 8X8X8X8X8X8X8X8X8X8X8X8X8X8X8X8X8X8Xt.=X>X>XF.R.,X}.Q.^.Q.^.^.%.  8X8X8X8X8X8X8X8X8X8X8X8X8X8X8X8X8X8X8X8X8X",
"8X8X8 ,X;XM.w.w.w.x 8X8X8X8X8X8X8X8X8X8X8X8X8X8X8X8X8X8X/ c.|.V.%XG.G.^.^.^.W.^.^.l.% 8X8X8X8X8X8X8X8X8X8X8X8X8X8X8X8X8X8X8X8X8X",
"8X8X8X*.g 7 a.a.K 8X8X8X8X8X8X8X8X8X8X8X8X8X8X8X8X8X8X8X8Xc.&.n x.!.:X}.Q.^.^.Q.^.^...  8X8X8X8X8X8X8X8X8X8X8X8X8X8X8X8X8X8X8X8X",
"8X8X8XO > 7 a.a.K 8X8X8X8X8X8X8X8X8X8X8X8X8X8X8X8X8X8X8X8X8Xu. .% *.^././.Q.^.^.^.{...  8X8X8X8X8X8X8X8X8X8X8X8X8X8X8X8X8X8X8X8X",
"8X8X8X....7 a.q.v 8X8X8X8X8X8X8X8X8X8X8X8X8X8X8X8X8X8X8X8Xu.'.S.%.^.^./.Q.^.W.^.!.G.( 8X8X8X8X8X8X8X8X8X8X8X8X8X8X8X8X8X8X8X8X8X",
"8X8X8XA.X., a.K c 8X8X8X8X8X8X8X8X8X8X8X8X8X8X8X8X8X8X8X8Xb.,X X`.A.G.^.Q.!.Q.Q.^.W.( 8X8X8X8X8X8X8X8X8X8X8X8X8X8X8X8X8X8X8X8X8X",
"8X8X8Xm Z.+.a.q.8X8X8X8X8X8X8X8X8X8X8X8X8X8X8X8X8X8X8X8X8X8X8XE 9 : ! G.^.^.Q.Q./.^...  8X8X8X8X8X8X8X8X8X8X8X8X8X8X8X8X8X8X8X8X",
"8X8X8X( *.C a.a.P 8X8X8X8X8X8X8X8X8X8X8X8X8X8X8X8X8X8X8X8X8X8X8X8X8XB _.{.Q.!.Q.!.^...  8X8X8X8X8X8X8X8X8X8X8X8X8X8X8X8X8X8X8X8X",
"8X8X8Xf X.< a.P 8X8X8X8X8X8X8X8X8X8X8X8X8X8X8X8X8X8X8X8X8X8X8X8X8X8X@ T.}.^.!./.^.^...  8X8X8X8X8X8X8X8X8X8X8X8X8X8X8X8X8X8X8X8X",
"8X8X8X8Xs.W M K 8X8X8X8X8X8X8X8X8X8X8X8X8X8X8X8X8X8X8X8X8X8X8X8X8X8X  C ].:X^.Q.^./.W.W 8X8X8X8X8X8X8X8X8X8X8X8X8X8X8X8X8X8X8X8X",
"8X8X8X3 W.W a P 8X8X8X8X8X8X8X8X8X8X8X8X8X8X8X8X8X8X8X8X8X8X8X8X8X8X8X8X$ ].`././.^.{.^   8X8X8X8X8X8X8X8X8X8X8X8X8X8X8X8X8X8X8X",
"8X8X8X8XU ` h w.8X8X8X8X8X8X8X8X8X8X8X8X8X8X8X8X8X8X8X8X8X8X8X8X8X8X8X8XX _.}.^.Q./.Q.^ 8X8X8X8X8X8X8X8X8X8X8X8X8X8X8X8X8X8X8X8X",
"8X8X8X8X8X@.r.K 8X8X8X8X8X8X8X8X8X8X8X8X8X8X8X8X8X8X8X8X8X8X8X8X8X8X8X8X8XV S.D.Q.^.A.! 8X8X8X8X8X8X8X8X8X8X8X8X8X8X8X8X8X8X8X8X",
"8X8X8X8X8Xn *.p 8X8X8X8X8X8X8X8X8X8X8X8X8X8X8X8X8X8X8X8X8X8X8X8X8X8X8X8X8X    V }./.^.^   8X8X8X8X8X8X8X8X8X8X8X8X8X8X8X8X8X8X8X",
"8X8X8X8X8X0 3 8X8X8X8X8X8X8X8X8X8X8X8X8X8X8X8X8X8X8X8X8X8X8X8X8X8X8X8X8X8X8X8X# ~./.`.^   8X8X8X8X8X8X8X8X8X8X8X8X8X8X8X8X8X8X8X",
"8X8X8X8X8X8X8 8 8X8X8X8X8X8X8X8X8X8X8X8X8X8X8X8X8X8X8X8X8X8X8X8X8X8X8X8X8X8X8XX f /.{.E   8X8X8X8X8X8X8X8X8X8X8X8X8X8X8X8X8X8X8X",
"8X8X8X8X8X8XT > 8X8X8X8X8X8X8X8X8X8X8X8X8X8X8X8X8X8X8X8X8X8X8X8X8X8X8X8X8X8X8X8X8XA.V.B.9 8X8X8X8X8X8X8X8X8X8X8X8X8X8X8X8X8X8X8X",
"8X8X8X8X8X8X8X8X8X8X8X8X8X8X8X8X8X8X8X8X8X8X8X8X8X8X8X8X8X8X8X8X8X8X8X8X8X8X8X8X8X8Xn }.#.8X8X8X8X8X8X8X8X8X8X8X8X8X8X8X8X8X8X8X",
"8X8X8X8X8X8X8X8X8X8X8X8X8X8X8X8X8X8X8X8X8X8X8X8X8X8X8X8X8X8X8X8X8X8X8X8X8X8X8X8X8X8X$ 2 ^ Z 8X8X8X8X8X8X8X8X8X8X8X8X8X8X8X8X8X8X",
"8X8X8X8X8X8X8X8X8X8X8X8X8X8X8X8X8X8X8X8X8X8X8X8X8X8X8X8X8X8X8X8X8X8X8X8X8X8X8X8X8X8X8X8X% O   8X8X8X8X8X8X8X8X8X8X8X8X8X8X8X8X8X",
"8X8X8X8X8X8X8X8X8X8X8X8X8X8X8X8X8X8X8X8X8X8X8X8X8X8X8X8X8X8X8X8X8X8X8X8X8X8X8X8X8X8X8X8X8X8X8X8X8X8X8X8X8X8X8X8X8X8X8X8X8X8X8X8X"
};
