/* XPM */
static char *result[] = {
/* columns rows colors chars-per-pixel */
"64 64 229 2 ",
"   c #010001",
".  c #09060D",
"X  c #0C0A0E",
"o  c #060508",
"O  c #0C0814",
"+  c #140D16",
"@  c #17131B",
"#  c #100307",
"$  c #1B1524",
"%  c #1E1728",
"&  c #140A2D",
"*  c #201D24",
"=  c #251C2B",
"-  c #281D37",
";  c #311A34",
":  c #25232A",
">  c #2C223C",
",  c #2D2833",
"<  c #332C3C",
"1  c #322938",
"2  c #37333E",
"3  c #2F3038",
"4  c #370F19",
"5  c #5B1B34",
"6  c #6E1C35",
"7  c #4D232C",
"8  c #64273A",
"9  c #3F603B",
"0  c #271847",
"q  c #311D5C",
"w  c #2E1C51",
"e  c #3B2B4C",
"r  c #332848",
"t  c #3B3344",
"y  c #3D324E",
"u  c #393943",
"i  c #3D2E5E",
"p  c #372857",
"a  c #372A50",
"s  c #371F69",
"d  c #3F2B67",
"f  c #3F2471",
"g  c #42274F",
"h  c #443D4C",
"j  c #41364D",
"k  c #492F5A",
"l  c #443B53",
"z  c #45375A",
"x  c #7D2041",
"c  c #63375E",
"v  c #42286F",
"b  c #423262",
"n  c #4A3B64",
"m  c #4C3C6A",
"M  c #4B336C",
"N  c #533C6C",
"B  c #462B7B",
"V  c #4E3776",
"C  c #543B77",
"Z  c #3F4250",
"A  c #47424F",
"S  c #4B4254",
"D  c #494459",
"F  c #514C5D",
"G  c #4D5258",
"H  c #4F4168",
"J  c #53436D",
"K  c #5B4D6B",
"L  c #554B64",
"P  c #5B5265",
"I  c #5D5369",
"U  c #5C5B6D",
"Y  c #554571",
"T  c #5C4C75",
"R  c #5C4C7A",
"E  c #5A4376",
"W  c #5E527B",
"Q  c #5E5774",
"!  c #61556E",
"~  c #66467B",
"^  c #635375",
"/  c #665B72",
"(  c #63547B",
")  c #6C5B7D",
"_  c #685B77",
"`  c #795476",
"'  c #626173",
"]  c #6C637A",
"[  c #71667E",
"{  c #83213C",
"}  c #862543",
"|  c #952843",
" . c #A63B51",
".. c #B1455B",
"X. c #924C67",
"o. c #A34C65",
"O. c #B45468",
"+. c #AF6277",
"@. c #CC5C6E",
"#. c #C7687A",
"$. c #D26D7F",
"%. c #593B83",
"&. c #533988",
"*. c #5B3795",
"=. c #643F99",
"-. c #5C4384",
";. c #5F4195",
":. c #654A8A",
">. c #6B4D8C",
",. c #624786",
"<. c #665B83",
"1. c #6C5C83",
"2. c #6B5D88",
"3. c #685586",
"4. c #694995",
"5. c #714E9B",
"6. c #6D5993",
"7. c #715191",
"8. c #7A5B9E",
"9. c #74559B",
"0. c #70558F",
"q. c #6E6688",
"w. c #716182",
"e. c #74648B",
"r. c #7A6B8C",
"t. c #776986",
"y. c #78738A",
"u. c #746A93",
"i. c #7C6D92",
"p. c #7B6498",
"a. c #7E7191",
"s. c #7C7299",
"d. c #7E7B95",
"f. c #734CA4",
"g. c #774FA9",
"h. c #7B53AB",
"j. c #7D59A7",
"k. c #7F55B2",
"l. c #7F74A0",
"z. c #7D62A0",
"x. c #82748F",
"c. c #847494",
"v. c #857995",
"b. c #847599",
"n. c #867A9C",
"m. c #8B7B9C",
"M. c #897A95",
"N. c #93768F",
"B. c #AB7589",
"V. c #815BAE",
"C. c #8256B5",
"Z. c #835DB3",
"A. c #865ABA",
"S. c #895BBD",
"D. c #8457B8",
"F. c #8562AC",
"G. c #8467AA",
"H. c #8E7FA2",
"J. c #8579A6",
"K. c #8B66B9",
"L. c #906DB9",
"P. c #9570BF",
"I. c #D87686",
"U. c #C96F83",
"Y. c #8C5DC2",
"T. c #8F5FC8",
"R. c #905FC9",
"E. c #8F61C6",
"W. c #9161C9",
"Q. c #9A6DCE",
"!. c #946BC8",
"~. c #9A74C8",
"^. c #9C6ED2",
"/. c #9F74D2",
"(. c #9F7AD0",
"). c #A07BCC",
"_. c #A176D3",
"`. c #A57CD5",
"'. c #A87FD9",
"]. c #A77ED8",
"[. c #85849C",
"{. c #8E829D",
"}. c #8D8D95",
"|. c #8F938F",
" X c #B38395",
".X c #8B82A3",
"XX c #8A84A8",
"oX c #9484A4",
"OX c #9887A7",
"+X c #9887A8",
"@X c #958CAC",
"#X c #9A8AAA",
"$X c #9688A7",
"%X c #938DB1",
"&X c #9D8EB1",
"*X c #9793B2",
"=X c #9C93B2",
"-X c #9A95B9",
";X c #9E99BB",
":X c #9D9CB7",
">X c #9692AD",
",X c #A196B6",
"<X c #A49CBC",
"1X c #A69DBC",
"2X c #A397A7",
"3X c #9EA7A0",
"4X c #A4A1BF",
"5X c #B9B7B9",
"6X c #D48594",
"7X c #E28999",
"8X c #9C92C0",
"9X c #A386C7",
"0X c #A49FC2",
"qX c #A980D9",
"wX c #A782D5",
"eX c #A5A2C3",
"rX c #ABA4C4",
"tX c #AEAACA",
"yX c #AAA7C8",
"uX c #B1AECD",
"iX c #B5B2CC",
"pX c #B1AFD1",
"aX c #B5B4D4",
"sX c #B9B9D9",
"dX c #B8B8D7",
"fX c #C7BDC3",
"gX c #DBD9DE",
"hX c #C0C1E1",
"jX c None",
/* pixels */
"jXjXjXjXjXjXjXjXjXjXjXjXjXjXjXjXjXjXjXjXjXjXjXjXjXjXjXjXjXjXjXjXjXjXjXjXjXjXjXjXjXjXjXjXjXjXjXjXjXjXjXjXjXjXjXjXjXjXjXjXjXjXjXjX",
"jXjX) c..X;Xm._ ) jXjXjXjXjXjXjXjXjXd jXjXjXjXjXjXjXjXjXjXjXjXjXjXjXjXjXjXjXjXjXjXjXjXjXjXjXjXjXjXjXjXjXjXjXjXjXjXjXjXjXjXjXjXjX",
"jXt.r.s.XXrX$XH.r.jXjXjXjXjXjXjXjXjXY jXjXjXjXjXjXjXjXjXjXjXjXjXjXjXjXjXjXjXjXjXjXjXjXjXjXjXjXjXjXjXjXjXjXjXjXjXjXjXjXjXjXjXjXjX",
"jXt.s.s.l.%XH.0Xm.w.jXjXjXjXjXjXjXjXu.<.jXjXjXjXjXjXjXjXjXjXjXjXjXjXjXjXjXjXjXjXjXjXjXjXjXjXjXjXjXjXjXjXjXjXjXjXjXjXjXjXjXjXjXjX",
"jXm m -.9.F.m Y i.M.jXjXjXjXjXjXjXjXs.<.jXjXjXjXjXjXjXjXjXjXjXjXjXjXjXjXjXjXjXjXjXjXjXjXjXjXjXjXjXjXjXjXjXjXjXjXjXjXjXjXjXjXjXjX",
"jXjXN >.C.S.f.-.e.r.( R ( <.jXjXjXjX-X<.jXjXjXjXjXjX% Q jXjXjXjXjXjXjXjXjXjXjXjXjXjXjXjXjXjXjXjXjXjXjXjXjXjXjXjXjXjXjXjXjXjXjXjX",
"jXjXjXg.S.E.W.C.9.T s.J.b.n.w.jXjXR yX3.jXjXjXjXjXjX' u.jXjXjXjXjXjXjXjXjXjXjXjXjXjXjXjX=X] jXjXjXjXjX$X,XjXjXjXjXjXjXjXjXjXjXjX",
"jXjXjXjXjXS.W.W.S.m .XaX@X<X[.jXjXR tXu.jXjXjXjXjX' 0Xn jXjXjXjXjXjXjXjXjXjXjXjXjXjXjXjX[.'   jXjXr.r.@X<XyXrX,X,X&XjXjXjXjXjXjX",
"jXjXjXjXjXjXA.R.W.V 3 0Xt.' yXjXjXR pX-XjXjXjXjX% :X%Xb jXjXjXjXjXjXjXjXjXjXjXjXjXjXjXjXu eXjXw.] -X<X@XJ.aXaXaXdXeXOXjXjXjXjXjX",
"jXjXjXjXjXjX8.W./.h.= i.r.n J jXjXW aX*XO jXjXjXy.aXi.jXjXjXjXjXjXjXjXjXjXjXjXjXjXjXjX0 < XX< w.M.u.<.3.9.J.q.J.fXaX<X<XjXjXjXjX",
"jXjXjXjXjXjX7.K._.Q.E b.v.Y y   jXD yX:XA jXjXm ;XaX( jXjXjXjXjXjXjXjXjXjXjXjXjXjXjXjXJ l q.r _ n.R &.4.g.g.&.6.8X%X*X-X<XjXjXjX",
"jXjXjXjXjXjX9.V.P.qX(.pXc._ / X jX: *XuXaX<.z ( rX0XT jXjXjXjXjXjXjXjXjXjXjXjXjXjXjXd.e.T ( t F 1.>.Y.E.E.E.W.h.f.&.l.l.eX#XjXjX",
"jXjXjXjXjXjXjXjXP.qXwXeXt.h r.2 jX@ .XdXsXn.@ x.,XXXjXjXjXjXjXjXjXjXjXjXjXjXjXjXjXjX( 1.i.S o > ,.Y.E.E.R.W.R.Y.Y.Y.E.5.2.=Xt.jX",
"jXjXjXjXjXjXjXjXF._.Y y.G.N R ^ > U yXdXdX=Xy.oX#Xi.jXjXjXjXjXjXjXjXjXjXjXjXjXjXjXjXY b.OXS U l f.R.R.R.T.E.E.R.E.R.W.k.N %X=XjX",
"jXjXjXjXjXjXjXjX7.K.z < V.Z.-.2.n *XhXdXdXtXsX<XoX<.jXjXjXjXjXjXjXjXjXjXjXjXjXjXjXjXJ b.#XS >XQ C.R.E.R.W.W.W.R.T.W.R.R.4.p.H.jX",
"jXjXjXjXjXjXjXjXjXjX8.* V.'.Z.1.6.sXsXdXaXdXsXtXm.m jXjXjXjXjXjXjXjXjXjXjXjXjXjXjXjXjXe.#XP a.3.Y.R.E.W.W.W.W.W.Y.A.k.Y.Y.:.m jX",
"jXjXjXjXjXjXjXjXjXjX8.L.`.].W.p.U sXsXuXrXdXdXtXm.m jXjXjXjXjXjXjXjXjXjXjXjXjXjXjXjXW =X#Xm.i.f.R.R.T.W.`./.Q.W.k.M &.B &.jXjXjX",
"jXjXjXjXjXjXjXjXjXjX8.'.qX'.A.z y.sXtX<XaX0Xs.=XoXY jXjXjXjXjXjXjXjXjXjXjXjXjXjXjXjXW <X<.p.K.D.R.Q./.`.qX].`.Q.=.jXjXjXjXjXjXjX",
"jXjXjXjXjXjXjXjXjXjXG.`.qX`.j.- $XsX4X@XiXiXe.oXoXT jXjXjXjXjXjXjXjXjXjXjXjXjXjXjXs.s.s.N g.W.Q.Q.`.qXqXqXqX].f.v jXjXjXjXjXjXjX",
"jXjXjXjXjXjXjXjXjXjXjXqX'.,Xb.n n.sX=X.X2XgXOXOXH.z jXjXjXjXjXjXjXjXjXjXjXjXjXjXjX#XeXm %.T.W./.].qXqXwXqX].K.w jXjXjXjXjXjXjXjX",
"jXjXjXjXjXjXjXjXjXjXV.wX`.0XaXq.m.sX%X] |.5X[.>Xc.@ jXjXjXjXjXjXjXjXjXjXjXjXjXjXa.tXeX:.Y.W._.].qXwXqXqXqXK.0 jXjXjXjXjXjXjXjXjX",
"jXjXjXjXjXjXjXjXjXjXjXP.).<XsX8XeXsXXXi 9 3XM.$Xc.% jXjXjXjXjXjXjXjXjXjXjXjXjX) r.aXq.k.W.E.].wXqX].qXqXZ.a . jXjXjXjXjXjXjXjXjX",
"jXjXjXjXjXjXjXjXjXjXjXK.G.>XsXsXsXsX*XQ G }.{.OXM.t jXjXjXjXjXjXjXjXjXjXjXjXjXt.XXd.< Y.W.Q.].qX].qXwXqX-.  jXjXjXjXjXjXjXjXjXjX",
"jXjXjXjXjXjXjXjXjXjX7.F.E >XsXsXdXsXdXtXoXc.@XM.H.I - jXjXm jXjXjXjXjXjXjXjXjX@XyXr - Y.Q.].].qXqXqXqX].N jXjXjXjXjXjXjXjXjXjXjX",
"jXjXjXjXjXjXjXjXjXjXjXF.j @XsXsXdXdXdX,X#XOXOXM.H.P - jXY v.Y jXjXjXjXjXjXjXr.yXyX-.k.Q.`.qX].qXqXwXqXF.$ jXjXjXjXjXjXjXjXjXjXjX",
"jXjXjXjXjXjXjXjXjXjXjXF.j m.-Xq.*XaX1X&X&X#X&Xc.c.P y jXY oX<.jXjXjXjXjXjXn.eXsXt.h././.qXqXwXqXqXqXj.M jXjXjXjXjXjXjXjXjXjXjXjX",
"jXjXjXjXjXjXjXjXjXjXjXK.T ] m.Y #XtX#X] I I I I M.P z J e.OXw.jXjXjXjXjXjX*XdX-Xz C./._.qX].qX].qXqXE & jXjXjXjXjXjXjXjXjXjXjXjX",
"jXjXjXjXjXjXjXjXjXjXjXL.j.S m.oXaX,Xx.= # X o < #XP H ^ oX#X/ jXjXjXr.r.a.tXtX:.M D.`.'.qXwXqXqXqXqXE jXjXjXjXjXjXjXjXjXjXjXjXjX",
"jXjXjXjXjXjXjXjXjXjXjXK.Z.) #XrXuXc.@ 5 6 g r t v.S H.1.M.+Xm m %X>X@XuXtXtX-Xn D.Q.].'.].qXqX].qXL.= jXjXjXjXjXjXjXjXjXjXjXjXjX",
"jXjXjXjXjXjXjXjXjXjXjXK.K.e.#X#XA 1 5 { { k p t v.h #XM.e.@X%X%XyXpXtX] q.a.t p *.R.].'.wXqXqXwXqXL.O jXjXjXjXjXjXjXjXjXjXjXjXjX",
"jXjXjXjXjXjXjXjXjXjXjXj.F.1.+X] ; ; { | { k b l _ / OX,XoX0XsXhX4Xy.y.y N ^ - f B f.K.wXqXqXqXqXqX7.jXjXjXjXjXjXjXjXjXjXjXjXjXjX",
"jXjXjXjXjXjXjXjXjXjXjXV 7.C c.j N ~ | { x g m K r oXOX4XdXdXsXpXq.o + C 7.7.>.>.>.V &.!.].qXqXwX`.y jXjXjXjXjXjXjXjXjXjXjXjXjXjX",
"jXjXjXjXjXjXjXjXjXjXjXs f q l 2 O 5 | } 6 + P / r oX@X<XsXdXsX' G j ~ >.7.7.7.7.>.>.%.B !.qXqXqXF.jXjXjXjXjXjXjXjXjXjXjXjXjXjXjX",
"jXjXjXjXjXjXjXjXjXjXjXjXjXjXjXjXO } $.U...8 x.z @ e.0XaXdXsX0XK ~ >.N > e e e e r z %.%.5.4.`.qX5.jXjXjXjXjXjXjXjXjXjXjXjXjXjXjX",
"jXjXjXjXjXjXjXjXjXjXjXjXjXjXjXjXi.O.7X7X@.X.v.r o z 4XdXdXsX=X>.6.N - jXjXjXjXjXjX% v E ,.B Q.qX3.jXjXjXjXjXjXjXjXjXjXjXjXjXjXjX",
"jXjXjXjXjXjXjXjXjXjXjXjXjXjXjXjXv.$.I.7X@.X.3.jXjXjX.XsXdXsXtXp.:.- + jXjXjXjXjXjXjX0 r >.~ Z.].7.jXjXjXjXjXjXjXjXjXjXjXjXjXjXjX",
"jXjXjXjXjXjXjXjXjXjXjXjXjXjXjXjXc #.7XI. . X<.jXjXjX[.sXdXsXuXp.v 3.K jXjXjXjXjXjXjXjXO % + s F.(.jXjXjXjXjXjXjXjXjXjXjXjXjXjXjX",
"jXjXjXjXjXjXjXjXjXjXjXjXjXjX) a.B.I.U.#.{ x.<.jXjXL m.dXrXdXuX,.&.@X1.jXjXjXjXjXjXjXjXjXjXD & ~ E.p jXjXjXjXjXjXjXjXjXjXjXjXjXjX",
"jXjXjXjXjXjXjXjXjXjXjXjXjXjXx.x.6XI.+.o.X.w.( jXjXQ .XtXeXdXtX1.R @Xi.b jXjXjXjXjXjXjXjXt.m.1 > -.R jXjXjXjXjXjXjXjXjXjXjXjXjXjX",
"jXjXjXjXjXjXjXjXjXjXjXjXjXjX}.oXX.I.B.X. X$XH jXjXL #X<XpXsXtXoXm b.M.m b jXjXjXjXjXw.e.c.#X] + 2 .Xe jXjXjXjXjXjXjXjXjXjXjXjXjX",
"jXjXjXjXjXjXjXjXjXjXjXjXjXjXv.fX .#. X5X) _ jXjXjXL 4X4XuXsXsXeXu.=XoXR J k jXjXb b i.oXoX+XoX[ h +Xv., jXjXjXjXjXjXjXjXjXjXjXjX",
"jXjXjXjXjXjXjXjXjXjXjXjXjXjXF v.4 7 N.iXi.t jXjXjXG aXuXaXsXsXaX0X,XoXR ^ E i i J ) H.#X+X#Xm.R z m.#X_ jX: < jXjXjXjXjXjXjXjXjX",
"jXjXjXjXjXjXjXjXjXjXjXjXjXjX< w.Z G .X,XoX* jXjXjXQ sXsXaXdXdXsXaX&X+X^ ) ) N N ) M.#X+X@Xb.<.i d <.m.H.J h h jXjXjXjXjXjXjXjXjX",
"jXjXjXjXjXjXjXjXjXjXjXjXjXjX2 #XtXiX<X$Xm.: jXjXjXu.dXsXsXsXdXsXtX+XH.R ) [ [ 1.e.OX+X+X$X( k jXjXk ( oX1.R l jXjXjXjXjXjXjXjXjX",
"jXjXjXjXjXjXjXjXjXjXjXjXjXjXjX#X&X,X#X#Xe.jXjXjXjXjX;XsXsXdXdXsXrX#Xe.( ) w.[ w.w.OX+X#Xb.m jXjXjXjXn R H.oXK . jXjXjXjXjXjXjXjX",
"jXjXjXjXjXjXjXjXjXjXjXjXjXjXjX[ &X#X#X^ = jXjXjXjXj =XsXsXdXyXrX,XH.<.^ w.w.w.) w.M.#Xi.T jXjXjXjXjXjXjX1.M.r.+ jXjXjXjXjXjXjXjX",
"jXjXjXjXjXjXjXjXjXjXjXjXjXjXjXL / I ! y   jXjXjXjXh {.rXrXrX,X,XOXc.i.) K [ [ w.w.r.i.( jXjXjXjXjXjXjXjX1.t.b.< jXjXjXjXjXjXjXjX",
"jXjXjXjXjXjXjXjXjXjXjXjXjXjXjXa o     jXjXjXjXjXY I ] OX#X#XOXOXOXc.OXt.j ) ) w.^ ! n jXjXjXjXjXjXjXb 1.OXr.r.H jXjXjXjXjXjXjXjX",
"jXjXjXjXjXjXjXjXjXjXjXjXjXjXjXjXjXjXjXjXjXjXjXjXY M.( c.OXOXOX#XOXOX#Xm.t K w.] , O jXjXjXjXjXjXjXjXJ w.M.m.e.S jXjXjXjXjXjXjXjX",
"jXjXjXjXjXjXjXjXjXjXjXjXjXjXjXjXjXjXjXjXjXjXjXjX2.OXc.^ 2.#X#X#XOX#X#X#Xh K ^ J > jXjXjXjXjXjXjXjXjXm J ) r.w.^ * jXjXjXjXjXjXjX",
"jXjXjXjXjXjXjXjXjXjXjXjXjXjXjXjXjXjXjXjXjXjXjXjXi.#XoX( Y e.i.c.OXOXOX#XP j m i jXjXjXjXjXjXjXjXjXjXjXi J ^ T T r jXjXjXjXjXjXjX",
"jXjXjXjXjXjXjXjXjXjXjXjXjXjXjXjXjXjXjXjXjXjXjXjXi.+X+XM.( b m K c.@XOX#X3.$ d jXjXjXjXjXjXjXjXjXjXjXjXjXjXd z b z jXjXjXjXjXjXjX",
"jXjXjXjXjXjXjXjXjXjXjXjXjXjXjXjXjXjXjXjXjXjXjXjXi.+X#Xb.( jXjXp l OXOX#X( + jXjXjXjXjXjXjXjXjXjXjXjXjXjXjXjXjXjXjXjXjXjXjXjXjXjX",
"jXjXjXjXjXjXjXjXjXjXjXjXjXjXjXjXjXjXjXjXjXjXjXjXl oXH.( Y jXjXjX* h OXOX[ z jXjXjXjXjXjXjXjXjXjXjXjXjXjXjXjXjXjXjXjXjXjXjXjXjXjX",
"jXjXjXjXjXjXjXjXjXjXjXjXjXjXjXjXjXjXjXjXjXjXjXjXjXF ! ! N jXjXjXjXX I [ w.( jXjXjXjXjXjXjXjXjXjXjXjXjXjXjXjXjXjXjXjXjXjXjXjXjXjX",
"jXjXjXjXjXjXjXjXjXjXjXjXjXjXjXjXjXjXjXjXjXjXjXjXjXO * _ N jXjXjXjXjXo z w._ jXjXjXjXjXjXjXjXjXjXjXjXjXjXjXjXjXjXjXjXjXjXjXjXjXjX",
"jXjXjXjXjXjXjXjXjXjXjXjXjXjXjXjXjXjXjXjXjXjXjXjXjXz K K m jXjXjXjXjXr T w.) J jXjXjXjXjXjXjXjXjXjXjXjXjXjXjXjXjXjXjXjXjXjXjXjXjX",
"jXjXjXjXjXjXjXjXjXjXjXjXjXjXjXjXjXjXjXjXjXjXjXjXjXY H z _ jXjXjXjXjXjX_ ^ Y J jXjXjXjXjXjXjXjXjXjXjXjXjXjXjXjXjXjXjXjXjXjXjXjXjX",
"jXjXjXjXjXjXjXjXjXjXjXjXjXjXjXjXjXjXjXjXjXjXjXjXjXW n , / jXjXjXjXjXjXT J J ) jXjXjXjXjXjXjXjXjXjXjXjXjXjXjXjXjXjXjXjXjXjXjXjXjX",
"jXjXjXjXjXjXjXjXjXjXjXjXjXjXjXjXjXjXjXjXjXjXjXjXjX( T jXS jXjXjXjXjXjXn J Y e.z jXjXjXjXjXjXjXjXjXjXjXjXjXjXjXjXjXjXjXjXjXjXjXjX",
"jXjXjXjXjXjXjXjXjXjXjXjXjXjXjXjXjXjXjXjXjXjXjXjXjXjXb jXX jXjXjXjXjXjX, ( b ) : jXjXjXjXjXjXjXjXjXjXjXjXjXjXjXjXjXjXjXjXjXjXjXjX",
"jXjXjXjXjXjXjXjXjXjXjXjXjXjXjXjXjXjXjXjXjXjXjXjXjXjXjXjXjXjXjXjXjXjXjX, L jXP * jXjXjXjXjXjXjXjXjXjXjXjXjXjXjXjXjXjXjXjXjXjXjXjX",
"jXjXjXjXjXjXjXjXjXjXjXjXjXjXjXjXjXjXjXjXjXjXjXjXjXjXjXjXjXjXjXjXjXjXjX: , jX2 + jXjXjXjXjXjXjXjXjXjXjXjXjXjXjXjXjXjXjXjXjXjXjXjX",
"jXjXjXjXjXjXjXjXjXjXjXjXjXjXjXjXjXjXjXjXjXjXjXjXjXjXjXjXjXjXjXjXjXjXjXjX  jX    jXjXjXjXjXjXjXjXjXjXjXjXjXjXjXjXjXjXjXjXjXjXjXjX"
};
