/* XPM */
static char *result[] = {
/* columns rows colors chars-per-pixel */
"64 64 224 2 ",
"   c #010101",
".  c #06050A",
"X  c #0A0A0C",
"o  c #08070B",
"O  c #0E0D10",
"+  c #0C0710",
"@  c #110D15",
"#  c #110D1A",
"$  c #131215",
"%  c #16141A",
"&  c #1B191E",
"*  c #19171C",
"=  c #191422",
"-  c #1D1B22",
";  c #1E1928",
":  c #1D1139",
">  c #241827",
",  c #241A34",
"<  c #291E3A",
"1  c #24242A",
"2  c #27232C",
"3  c #2A2432",
"4  c #2D2A33",
"5  c #2B243A",
"6  c #332D3A",
"7  c #3D2A37",
"8  c #36323D",
"9  c #370B13",
"0  c #400E1E",
"q  c #491426",
"w  c #7C1E3D",
"e  c #6F243F",
"r  c #386132",
"t  c #1E0B49",
"y  c #2C1F46",
"u  c #2D2145",
"i  c #342B44",
"p  c #38294A",
"a  c #3B3343",
"s  c #3C3A45",
"d  c #3D3749",
"f  c #3C2C5C",
"g  c #382C51",
"h  c #3D3252",
"j  c #3E315A",
"k  c #2D1666",
"l  c #331B69",
"z  c #3A1F72",
"x  c #3B256C",
"c  c #3E2B64",
"v  c #3E2375",
"b  c #433C4B",
"n  c #41364F",
"m  c #43345B",
"M  c #463A5D",
"N  c #453A54",
"B  c #432D5B",
"V  c #7F2343",
"C  c #6E384E",
"Z  c #443463",
"A  c #4D3D6A",
"S  c #493963",
"D  c #533C6C",
"F  c #503867",
"G  c #442978",
"H  c #4C327A",
"J  c #4F3E70",
"K  c #543A75",
"L  c #4C4454",
"P  c #4B4858",
"I  c #534B5D",
"U  c #494E51",
"Y  c #4E4264",
"T  c #554C61",
"R  c #584F62",
"E  c #52426D",
"W  c #554867",
"Q  c #535362",
"!  c #5C5366",
"~  c #5E536A",
"^  c #5C5D6C",
"/  c #544573",
"(  c #5B4B74",
")  c #5C4D7A",
"_  c #5A4479",
"`  c #5E5274",
"'  c #63596E",
"]  c #60566A",
"[  c #625474",
"{  c #655B73",
"}  c #6A5E76",
"|  c #63547B",
" . c #6B5C7D",
".. c #68567B",
"X. c #71537A",
"o. c #626272",
"O. c #6D637C",
"+. c #6A6378",
"@. c #71647D",
"#. c #87263E",
"$. c #822343",
"%. c #993551",
"&. c #962946",
"*. c #B73E53",
"=. c #A33047",
"-. c #9D425D",
";. c #8E4A66",
":. c #A7566B",
">. c #AC5168",
",. c #89657D",
"<. c #BF6377",
"1. c #C1475A",
"2. c #D66979",
"3. c #C7687A",
"4. c #D05A6B",
"5. c #779973",
"6. c #5A3C84",
"7. c #4B2F81",
"8. c #5D4983",
"9. c #6D4E8E",
"0. c #654A87",
"q. c #635581",
"w. c #6B5C83",
"e. c #6B5F8B",
"r. c #675589",
"t. c #654696",
"y. c #6D5694",
"u. c #715191",
"i. c #75589A",
"p. c #6C6284",
"a. c #6F648D",
"s. c #6D6886",
"d. c #736485",
"f. c #756B83",
"g. c #796C86",
"h. c #74648B",
"j. c #766988",
"k. c #7A6B8B",
"l. c #717185",
"z. c #7C718B",
"x. c #79798B",
"c. c #746A93",
"v. c #7D6D91",
"b. c #756796",
"n. c #7D7696",
"m. c #7957A6",
"M. c #7E54B3",
"N. c #704CA3",
"B. c #7E62A6",
"V. c #81738E",
"C. c #837494",
"Z. c #867A96",
"A. c #887A95",
"S. c #867699",
"D. c #847A9B",
"F. c #8B7C9C",
"G. c #88779A",
"H. c #856D86",
"J. c #875BBB",
"K. c #8059AB",
"L. c #8567AE",
"P. c #8D7EA0",
"I. c #847AA3",
"U. c #8A64BC",
"Y. c #8867B4",
"T. c #907FA2",
"R. c #A87389",
"E. c #DC7787",
"W. c #C06B80",
"Q. c #E07F8E",
"!. c #8D5EC4",
"~. c #936EC5",
"^. c #9568CB",
"/. c #9D77CC",
"(. c #9669CA",
"). c #A47CD4",
"_. c #86859D",
"`. c #8A809C",
"'. c #90819F",
"]. c #AE8192",
"[. c #8D83A3",
"{. c #8B8BA2",
"}. c #8C84A9",
"|. c #8F8EA9",
" X c #9485A4",
".X c #9887A7",
"XX c #9888A7",
"oX c #9586A8",
"OX c #958CAD",
"+X c #9A8AAA",
"@X c #9788A7",
"#X c #9393AC",
"$X c #928DB2",
"%X c #9C8CB3",
"&X c #9D92B2",
"*X c #9C96BA",
"=X c #9E9CBC",
"-X c #9997B4",
";X c #A69CAD",
":X c #A194B4",
">X c #A39BBB",
",X c #A499B9",
"<X c #A5A7B7",
"1X c #AFA6B1",
"2X c #DD8292",
"3X c #D4939E",
"4X c #E18999",
"5X c #A59FC1",
"6X c #AB82DB",
"7X c #A7A1C2",
"8X c #AAA4C3",
"9X c #ADA7C9",
"0X c #AEABCA",
"qX c #A7A5C8",
"wX c #B1ADCD",
"eX c #BBB5C1",
"rX c #B1ABD2",
"tX c #B5B4D4",
"yX c #B8B7D7",
"uX c #B9B9D9",
"iX c #B9B7D8",
"pX c #B086E1",
"aX c #D6D0D5",
"sX c None",
/* pixels */
"sXsXsXsXsXsXsXsXsXsXsXsXsXsXsXZ sXsXsXsXsXsXsXsXsXsXsXsXsXsXsXsXsXsXsXsXsXsXsXsXsXsXsXsXsXsXsXsXsXsXsXsXsXsXsXsXsXsXsXsXsXsXsXsX",
"sXsXsXsXsXsXsXsXsXsXsXsXsXsXsX) r.sXsXsXsXsXsXsXsXsXsXsXsXsXsXsXsXsXsXsXsXsXsXsXsXsXsXsXsXsXsXsXsXsXsXsXsXsXsXsXsXsXsXsXsXsXsXsX",
"sXsXsXsXsXsXsXsXsXsXsXsXsXsXsXc.c.sXsXsXsXsXsXsXsX4 j sXsXsXsXsXsXsXsXsXsXsXsXsXsXsXsXsXsXsXsXsXsXsXsXsXsXsXsXsXsXsXsXsXsXsXsXsX",
"sXsXsXsXsXsXsXsXsXsXsXsXsXsXsXc.c.sXsXsXsXsXsXsXsXl./ sXsXsXsXsXsXsXsXsXsXsXsXsXsXsXsXsXsXsXsXsXsXsXsXsXsXsXsXsXsXsXsXsXsXsXsXsX",
"sXsXsXsXsXsXsXsXsXsXsXsXsXsXsXc.=X/ sXsXsXsXsXsXb =X/ sXsXsXsXsXsXsXsXsXsXsXsXsXsXsXsXsXsXsXsXsXsXsXsXsXsXsXsXsXsXsXsXsXsXsXsXsX",
"sXsXsXsXsXsXsXsXsXsXsXsXsXsXsXa.uX/ sXsXsXsXsXsXx.0XE sXsXsXsXsXsXsXsXsXsXsXsXsXsXsXsXsXsXsXsXsXsXsXsXsXsXsXsXsXsXsXsXsXsXsXsXsX",
"sXsXsXsXsXsXsXsXsXsXsXsXsXsXsXa.tXq.sXsXsXsXsXs tX$XA sXsXsXsXsXsXsXsXsXsXsXsXsXsXsXsXsXsXsXsXsXsXsXsXsXsXsXsXsXsXsXsXsXsXsXsXsX",
"sXsXsXsXsXsXsXsXsXsXsXsXsXsXsXa.uX$XsXsXsXsXZ |.uXc.sXsXsXsXsXsXsXsXsXsXsXsXsXsXsXsXsXsXsXsXsXsXsXsXsXsXsXsXsXsXsXsXsXsXsXsXsXsX",
"sXsXsXsXsXsXsXsXsXsXsXsXsXsXsXc.uX=X= sXsXsXq.tXtXq.sXsXsXsXsXsXsXsXsXsXsXsXsXsXsXsXsXsXsXsXsXsXsXsXsXsXsXsXsXsXsXsXsXsXsXsXsXsX",
"sXsXsXsXsXsXsXsXsXsXsXsXsXsXsXp.iX=X2 M W j C.wX>X( sXsXsXsXsXsXsXsXsXsXsXsXsXsXsXsXsXsXsXsXsXsXsXsXsXsXsXsXsXsXsXsXsXsXsXsXsXsX",
"sXsXsXsXsXsXsXsXsXsXsXsXsXsXsXI 8X0X<X=X> n @X>XP.sXsXsXsXsXsXsXsXsXsXsXsXsXsXsXsXsXsXsXsXsXsXsXsXsXsXsXsXsXsXsXsXsXsXsXsXsXsXsX",
"sXsXsXsXsXsXsXsXsXsXsXsXsXsXsX6 >XuXuX9Xl.x.+X&Xc.sXsXsXsXsXsXsXsXsXsXsXsXsXsXsXsXsXsXsXsXsXsXsXsXsXsXsXsXsXsXsXsXsXsXsXsXsXsXsX",
"sXsXsXsXsXsXsXsXsXsXsXsXsXsXsXT 7XuXuX8XiXwX+XT.w.sXsXsXsXsXsXsXsXsXsXsXsXsXsXsXsXsXsXsXsXsXsXsXsXsXsXsXsXsXsXsXsXsXsXsXsXsXsXsX",
"sXsXsXsXsXsXsXsXsXsXsX  sX: u 9XtXiXuXtXiXiX>XC.Z sXsXsXsXsXsXsXsXsXsXsXsXsXsXsXsXsXsXsXsXsXsXsXsXsXsXsXsXsXsXsXsXsXsXsXsXsXsXsX",
"sXsXsXsXsXsXsXsXsXE ,   s / n.uXuXiXuXuXuXuX>XC.B sXsXsXsXsXsXsXsXsXsXsXsXsXsXsXsXsXsXsXsXsXt sXsXsXsXsXsXsXsXsXsXsXsXsXsXsXsXsX",
"sXsXsXsXsXsXsXsXsXe.5 1 P a.=XuXyXyXwXuX$X>X*XS.E sXsXsXsXsXsXsXsXsXsXsXsXsXsXsXsXsXsXsXsXs 8.sXsXsXsXsXsXsXsXsXsXsXsXsXsXsXsXsX",
"sXsXsXsXsXsXsXO >  XL l.Q U |.uXuXwX8X9Xw.C.+X X( sXsXsXsXsXsXsXsXsXsXsXsXsXsXsXsXsXsX  $ n.5Xl x = sXsXsXsXsXsXsXsXsXsXsXsXsXsX",
"sXsXsXsXsXsX  L C.OXb {.l.$ Z.uXuX<XtXI.<X+X.X+Xp.sXsXsXsXsXsXsXsXsXsXsXsXsXsXsXsXsX  % {.rXqXx c.s o.sXsXsXsXsXsXsXsXsXsXsXsXsX",
"sXsXsXsX  . b g. X! Y =X{.: g.yXtXOX=XOXaX X@X+X[ sXsXsXsXsXsXsXsXsXsXsXsXsXsXsX  4 o.l.-X^ %Xm.n.n.{.{ sXsXsXsXsXsXsXsXsXsXsXsX",
"sXsXsXsXX 4  X Xg.i _ 7X}.x a.tXtXG.n.<XaXC.+X+XI sXsXsXsXsXsXsXsXsXsXsXsXsXsX- 1 U #X=XO.+ Y./.B.-X:X Xa &   sXsXsXsXsXsXsXsXsX",
"sXsX    L '.+Xh.) d.h.+Xv.Z h.tXyXh.l.5.<XA.XX+XI sXsXsXsXsXsXsXsXsXsXsXsX  sXo.0Xl.$ 3 M B Y.N.).r.a.+X XI     sXsXsXsXsXsXsXsX",
"sXsXo I V.+XF.y.n [.%X8X=X}.=XuXtX( n r x.'.XXA.z.2 sXsXsXsXsXsXsXsXsXsXsXX _.=XuX8 ; S K 9./.~.6XY.b.G.%XV.] L   L d.sXsXsXsXsX",
"sXsX6 oX+XoXb.m.i >X>XwXuXuXuXuXtXc.P U z.+X@Xz.+X6 sXsX( / sXsXsXsXsXsX  s yX=X+.X A i.u.K.(.J./.pXL.e.oX+X&XC.6 b  .sXsXsXsXsX",
"sXX @.+X.XF.9.!.p qX[.qXuXuXuXuXuXtX>X'.@XXX.Xk.+X6 sXsXv.C.m sXsXsXsXsXX _.tXQ X < 9.9.u.i.K.z m.6XL._ T.+X+X.X'.n ] sXsXsXsXsX",
"sXb '.+X.Xw.0.!.p S.w.qXuXuXuXuXuXuX*X.X+X+X+Xq.+X6 y sXV.T.a sXsXsX  4 _.U 4 h F K u.u.u.u.J.t.H r.n..X8XwXwX%X+XV.} sXsXsXsXsX",
"sXP +X.XoXq.m.!.K d Y 0XuX*X-XuX0X<X+X+X] I R w.+X6 g w.G.+Xn sXsX  8 l.-Xa , A i.u.u.u.u.u.^.J.y._ }.,X9X8X9X+X.X&XV.4 sXsXsXsX",
"sXL &X&XoX8.M.J.N.. b 8XtXa.k.tX,XoXC.V.- o X C.T.a S V.+X+XL sXsXO #XuXQ D u.u.u.u.u.u.u.u.J.)./.y.8XF.C.+X.X.X.X.X+X! sXsXsXsX",
"  L &XwXI.x v G G sXI [.$Xh.8XwX+XV.& * u g = A.] ~ k.w.OXS.< sX  Q uX_.d 9.u.u.u.9.u.9.u.u.i.).B.r.yXP 4  X+X.X.X.X+XF.4 sXsXsX",
"> g.+X*Xh.sXsXsXsXsX6 @.G.P.yX>X{ 8 9 0 B B > A.I ' .Xh.C.*Xl.- * o.T L K u.u.u.6.9.8.H H G 6.).t.i.s.i y  X+X5X,X+X.X+X' sXsXsX",
"sX+X+XG.sXsXsXsXsXsX# { F.-X8Xf.7 9 $.$.g B < V.I @.+X XC.tXuXP s T # 7 u.u.6.0.G u.G k k k z !.t.Y.j P r..X[.rX,X'.&X+XT.6 sXsX",
"sX.X+X$XsXsXsXsXsXsXf C.oX+XC.$ q =.#.w > c B X.b .X:XtXtXtXuX&X+.h 0.0.u.9.z z sXsXsXsXsXsXk t.t.~.m.}.9X+Xe./.L.C.9X+X.XA.sXsX",
"sX} +Xp.sXsXsXsXsXsXsXq.oX+Xb sXsX&.$.$.q # ( @.b +X:XyXuXyXuXwX XN K H G H l sXsXsXsXsXsXsXsX7.7.~.L.$XyX+Xn t.m.8.8X+XP.b sXsX",
"sX! %X/ sXsXsXsXsXsXsXA k.~ * sXsX=.%.=.#.> g...T ,X7XuXtXuXuXtX:X+.m k k sXsXsXsXsXsXsXsXsXsXsXsX~.L.$X>X+XN f 0.f *XF. X6 sXsX",
"sXG.*X) sXsXsXsXsXsXsXsXsX. sXsX$.1.2.2.*.;.F.A ` 8XuXuXuXuXuXrX&X@Xd sXsXsXsXsXsXsXsXsXsXsXsXsXsXsXsXsXk.oXd.6 L sXsXc.+X@.sXsX",
"sXR h./ sXsXsXsXsXsXsXsXsXsXsXsX%.2.2X2X*.X.e.sX3 _.uXuXuXuXuXtX<X+XO.A sXsXsXsXsXsXsXsXsXsXsXsXsXsXsXd.F.v.| 6 $ sXe.7X:XF.f.sX",
"sXI }.sXsXsXsXsXsXsXsXsXsXsXsXx.:.E.4X4X-.'.| sXsXx.uXuXuXuXtXuXrX+XS.E sXsXsXsXsXsXsXsXsXsXsXsXsXsXj.C.+Xd.E sX  sXe.5XwXA.I sX",
"sXo.uXsXsXsXsXsXsXsXsXsXsXsXsXD.3.E.4X2X;.;Xq.sX; x.uXiXtXuXuXuXuX>X`./ A sXsXsXsXsXsXsXsXsXsXsXsXj.C..X.Xd.sXsXsXsXsXn.wXf.* sX",
"sX`.tXsXsXsXsXsXsXsXsXsXsXsXsXC 3.4X2X4.$.h.| sX) C.tX9X9XuXuXuXuX>XG. .A A A sXsXsXsXsXsXsXsXE d.F. X.Xk.sXsXsXsXsXsX) F..XV.sX",
"sXsXC.sXsXsXsXsXsXsXsXsXsXsXz.R.3.2X3.>.R.C.( sX` F.8X<XtXuXtXuXuX<XG.h.( | | / f c f f / ( ..k.C..X+X.X( sXsXsXsXsXsXsXoX+X' sX",
"sXT w./ sXsXsXsXsXsXsXsXsXz.C.3XE.W.:.-.1Xz.M sXQ %X5X5XuXuXuXuXuX5X Xv.| j.j.| A A S / d.h.h.+X+X.X+XF.E sXsXsXsXsXsXsXI.,XR sX",
"sXo _.sXsXsXsXsXsXsXsXsXsX;XH.>.2X:.].w [ Q sXsXQ 7X9X<XuXuXuXuXuX>X+Xv.| j.j.d.d. .w.F..X X.X+X@X+X.Xv.sXsXsXsXsXsXsXsX8.7XF.sX",
"sXsX0XsXsXsXsXsXsXsXsXsXsX1X;X%.E.:.aX,. XT sXsXQ uXtXwXuXiXtXuXwX%X+Xv.( g.j.j.j. .d. X+X+XoXoX@X XG.w.sXsXsXsXsXsXsXsX) 7X~ sX",
"sXsXo.sXsXsXsXsXsXsXsXsXsX;X1XV $.C 1X;X8XR sXsX` uXuXuXuXuXuXuX0X.X.Xw.[ k.j.j.j.d. .'.+X.X.X.X+XF.d.| sXsXsXsXsXsXsXsX) 0XI sX",
"sXsX+ S sXsXsXsXsXsXsXsXsXS v.h * 1 _.8X:XT sXsXc.uXuXuXuXuXuXuX9X.X XE  .d.j.j.j.g.d.P.+X.X+X.X+XC.Z sXsXsXsXsXsXsXsXsX) qXo.sX",
"sXsX  sXsXsXsXsXsXsXsXsXsX@ g.`.|.-X,X%XF.S sXsX/ *XuXuXuXuXuXiX&X+XP.) w...j.j.j.j.j.F..X.X.X.X.Xk.sXsXsXsXsXsXsXsXsXsXsXc.S.sX",
"sXsXsXsXsXsXsXsXsXsXsXsXsX. k.,X9X9X>X+XV., sXsXsXz.0XuXuXuXwX>X+X.XC.k.C.N d.j.d.j.j. X.X.X.XF.v.sXsXsXsXsXsXsXsXsXsXsXsXq.+.sX",
"sXsXsXsXsXsXsXsXsXsXsXsXsXsX} +X+X+X.XP.{ sXsXsX> ! &XwXwXtX>X.X.X.XC..X.Xa [ j.j.j.j.P.oXoXS.V.| sXsXsXsXsXsXsXsXsXsXsXsXa.b sX",
"sXsXsXsXsXsXsXsXsXsXsXsXsXsX4 '. X.X.X| * sXsXsX[ b A.&X%X+X+X.X.X+X X.XoX~ s j.j.j.j.j.C.oX( sXsXsXsXsXsXsXsXsXsXsXsXsXsXZ.X sX",
"sXsXsXsXsXsXsXsXsXsXsXsXsXsXsXW 8 a 8 a sXsXsXsXw.@...G.+XoX.X+X+X@X+X.X@Xj.a k.n L I a Y Y sXsXsXsXsXsXsXsXsXsXsXsXsXsXsX_.  sX",
"sXsXsXsXsXsXsXsXsXsXsXsXsXsXsX:       sXsXsXsXsXh..X| j.V.+X+XT.C.+X.X+X+XD.a T - 3 6 @ 5 , sXsXsXsXsXsXsXsXsXsXsXsXsXsXsXs.  sX",
"sXsXsXsXsXsXsXsXsXsXsXsXsXsXsXsXsXsXsXsXsXsXsX/ oX+XF.( A F. Xj.( .X+X+X@XF.h $ sXsXsXsXsXsXsXsXsXsXsXsXsXsXsXsXsXsXsXsX/ h sXsX",
"sXsXsXsXsXsXsXsXsXsXsXsXsXsXsXsXsXsXsXsXsXsXsX/ .X.X.Xk.( ( / D g ' %XoX+XT.p X sXsXsXsXsXsXsXsXsXsXsXsXsXsXsXsXsXsXsXsXsX% sXsX",
"sXsXsXsXsXsXsXsXsXsXsXsXsXsXsXsXsXsXsXsXsXsXsX/ oX.X+XG. .Z f f < 6 ] .X+XG.W n sXsXsXsXsXsXsXsXsXsXsXsXsXsXsXsXsXsXsXsXsXsXsXsX",
"sXsXsXsXsXsXsXsXsXsXsXsXsXsXsXsXsXsXsXsXsXsXsXE F.+X.XV...Z sXsXsXsX$ k.G.h.j.( sXsXsXsXsXsXsXsXsXsXsXsXsXsXsXsXsXsXsXsXsXsXsXsX",
"sXsXsXsXsXsXsXsXsXsXsXsXsXsXsXsXsXsXsXsXsXsXsXsXI &XG.[ / sXsXsXsXsXsX* i ..k.( sXsXsXsXsXsXsXsXsXsXsXsXsXsXsXsXsXsXsXsXsXsXsXsX",
"sXsXsXsXsXsXsXsXsXsXsXsXsXsXsXsXsXsXsXsXsXsXsXsX2 b N [ D sXsXsXsXsXsX. h  .j.w.E sXsXsXsXsXsXsXsXsXsXsXsXsXsXsXsXsXsXsXsXsXsXsX",
"sXsXsXsXsXsXsXsXsXsXsXsXsXsXsXsXsXsXsXsXsXsXsXsXsX@ 3 ..D sXsXsXsXsXsXsX( @...w.E sXsXsXsXsXsXsXsXsXsXsXsXsXsXsXsXsXsXsXsXsXsXsX",
"sXsXsXsXsXsXsXsXsXsXsXsXsXsXsXsXsXsXsXsXsXsXsXsXsXW ~ ( E sXsXsXsXsXsXsX(  .S ../ sXsXsXsXsXsXsXsXsXsXsXsXsXsXsXsXsXsXsXsXsXsXsX",
"sXsXsXsXsXsXsXsXsXsXsXsXsXsXsXsXsXsXsXsXsXsXsXsXsX| M n d.% sXsXsXsXsXsXD [ Z a.w.sXsXsXsXsXsXsXsXsXsXsXsXsXsXsXsXsXsXsXsXsXsXsX",
"sXsXsXsXsXsXsXsXsXsXsXsXsXsXsXsXsXsXsXsXsXsXsXsXsX..h 2 f.* sXsXsXsXsXsXy ` A e.j.h sXsXsXsXsXsXsXsXsXsXsXsXsXsXsXsXsXsXsXsXsXsX",
"sXsXsXsXsXsXsXsXsXsXsXsXsXsXsXsXsXsXsXsXsXsXsXsXsXd.J sXQ % sXsXsXsXsXsXO { D A p.& sXsXsXsXsXsXsXsXsXsXsXsXsXsXsXsXsXsXsXsXsXsX",
"sXsXsXsXsXsXsXsXsXsXsXsXsXsXsXsXsXsXsXsXsXsXsXsXsXE Z sX& . sXsXsXsXsXsX@ } 3 ; } & sXsXsXsXsXsXsXsXsXsXsXsXsXsXsXsXsXsXsXsXsXsX",
"sXsXsXsXsXsXsXsXsXsXsXsXsXsXsXsXsXsXsXsXsXsXsXsXsXsXsXsXsXsXsXsXsXsXsXsXsXb @ sXb % sXsXsXsXsXsXsXsXsXsXsXsXsXsXsXsXsXsXsXsXsXsX",
"sXsXsXsXsXsXsXsXsXsXsXsXsXsXsXsXsXsXsXsXsXsXsXsXsXsXsXsXsXsXsXsXsXsXsXsXsXO O sXO O sXsXsXsXsXsXsXsXsXsXsXsXsXsXsXsXsXsXsXsXsXsX"
};
