/* XPM */
static char *result[] = {
/* columns rows colors chars-per-pixel */
"64 64 214 2 ",
"   c #030203",
".  c #070609",
"X  c #08060B",
"o  c #09090A",
"O  c #0E0C11",
"+  c #0B0714",
"@  c #130E1B",
"#  c #160D13",
"$  c #17131D",
"%  c #19151D",
"&  c #17151A",
"*  c #33101D",
"=  c #1C301B",
"-  c #1D1828",
";  c #1E1335",
":  c #221A2B",
">  c #211E26",
",  c #271D37",
"<  c #28232D",
"1  c #2A2434",
"2  c #2E2933",
"3  c #2A213C",
"4  c #2F2C39",
"5  c #362E3C",
"6  c #302832",
"7  c #38313E",
"8  c #56162B",
"9  c #1F1140",
"0  c #2B1758",
"q  c #24114D",
"w  c #35294B",
"e  c #322644",
"r  c #3C3543",
"t  c #383742",
"y  c #3D2E5B",
"u  c #3C2E56",
"i  c #3F305C",
"p  c #2C2241",
"a  c #2F1861",
"s  c #2C1565",
"d  c #311A65",
"f  c #351D6B",
"g  c #381F6E",
"h  c #3A2467",
"j  c #3B2271",
"k  c #413B48",
"l  c #46375B",
"z  c #432F57",
"x  c #773355",
"c  c #6A2C4F",
"v  c #443463",
"b  c #4A3A66",
"n  c #483769",
"m  c #4B3B6A",
"M  c #483567",
"N  c #523B6C",
"B  c #442976",
"V  c #553C71",
"C  c #553D79",
"Z  c #573A7D",
"A  c #473074",
"S  c #42414E",
"D  c #474654",
"F  c #4C4455",
"G  c #4C4757",
"H  c #524B5C",
"J  c #52455F",
"K  c #4F505E",
"L  c #526E54",
"P  c #564A62",
"I  c #5A4D64",
"U  c #52436D",
"Y  c #5C5265",
"T  c #5B5B6B",
"R  c #5A5367",
"E  c #554572",
"W  c #5B4C74",
"Q  c #5B457D",
"!  c #5B4B7A",
"~  c #584774",
"^  c #5E527D",
"/  c #5F5074",
"(  c #4C416D",
")  c #61576C",
"_  c #63596E",
"`  c #625275",
"'  c #665B71",
"]  c #64537B",
"[  c #6C5D7D",
"{  c #685C77",
"}  c #6E4672",
"|  c #636374",
" . c #6E617C",
".. c #6C6C7F",
"X. c #71647D",
"o. c #80203F",
"O. c #832241",
"+. c #892946",
"@. c #9A2640",
"#. c #A82D42",
"$. c #BE3E51",
"%. c #AD364C",
"&. c #98435D",
"*. c #BD5E74",
"=. c #B6556C",
"-. c #CD5464",
";. c #D66575",
":. c #CB6674",
">. c #779B73",
",. c #5B3D82",
"<. c #53338A",
"1. c #4A2C82",
"2. c #5E4587",
"3. c #614385",
"4. c #64468B",
"5. c #664D8C",
"6. c #6D4D8D",
"7. c #674B85",
"8. c #655681",
"9. c #6C5D83",
"0. c #6A578B",
"q. c #694797",
"w. c #714D9F",
"e. c #715292",
"r. c #78579A",
"t. c #76579B",
"y. c #6C6087",
"u. c #726282",
"i. c #74648A",
"p. c #77688A",
"a. c #7B6B8B",
"s. c #776C85",
"d. c #787189",
"f. c #7C6E93",
"g. c #726891",
"h. c #7D7192",
"j. c #7C739B",
"k. c #734CA6",
"l. c #7A52AB",
"z. c #7C59A6",
"x. c #754EAA",
"c. c #837495",
"v. c #867B9B",
"b. c #8C7C9C",
"n. c #877996",
"m. c #936A83",
"M. c #A87587",
"N. c #815EA6",
"B. c #8359B4",
"V. c #865ABA",
"C. c #895CBD",
"Z. c #8056B3",
"A. c #847EA4",
"S. c #8E7FA1",
"D. c #8B67BC",
"F. c #D97181",
"G. c #D97B8B",
"H. c #CB6D80",
"J. c #8C5EC3",
"K. c #8F5FC8",
"L. c #905FC8",
"P. c #9161C9",
"I. c #996CCE",
"U. c #946AC7",
"Y. c #9C76C9",
"T. c #9D73D1",
"R. c #8F60C7",
"E. c #A17ACE",
"W. c #A47CD4",
"Q. c #A67DD8",
"!. c #A379D5",
"~. c #8F809E",
"^. c #808196",
"/. c #90819E",
"(. c #8B9E8A",
"). c #8780A6",
"_. c #8E88A9",
"`. c #9484A4",
"'. c #948BAB",
"]. c #9989A9",
"[. c #9788A7",
"{. c #9992AC",
"}. c #958DB0",
"|. c #9692B4",
" X c #9D93B3",
".X c #9D9AB9",
"XX c #9998B7",
"oX c #A196B5",
"OX c #A49CBC",
"+X c #A299B4",
"@X c #B09EA8",
"#X c #ABA4B4",
"$X c #A2A2BD",
"%X c #DE8596",
"&X c #E08797",
"*X c #E18999",
"=X c #9F9CC0",
"-X c #A49FC1",
";X c #A880D8",
":X c #A7A3C3",
">X c #AAA4C5",
",X c #ADABCB",
"<X c #A9A8C6",
"1X c #B0AECE",
"2X c #B9B3CA",
"3X c #B1AFD0",
"4X c #B5B4D4",
"5X c #B8B7D7",
"6X c #B8B8D8",
"7X c #B8B7D8",
"8X c #E0D9DC",
"9X c #DEE0E2",
"0X c #F1F4F1",
"qX c None",
/* pixels */
"qXqXqXqXqXqXqXqXqXqXqXqXqXqXqXqXqXqXqXqXqXqXqXqXqXqXqXqXqXqXqXqXqXqXqXqXqXqXqXqXqXqXqXqXqXqXqXqXqXqXqXqXqXqXqXqXqXqXqXqXqXqXqXqX",
"qXqXqXqXqXqXqXqXqXqXqXqXqXqXqXqXqXqXqXqXqXqXqXqXqXqXqXqXqXqXqXqXqXqXqXqXqXqXqXqXqXqXqXqXqXqXqXqXqXqXqXqXqXqXqXqXqXqXqXqXqXqXqXqX",
"qXqXqXqXqXqXqXqXqXqXqXqXqXqXqXqXqXqXqXqXqXqXqXqXqXqXqXqXqXqXqXqXqXqXqXqXqXqXqXqXqXqXqXqXqXqXqXqXqXqXqXqXqXqXqXqXqXqXqXqXqXqXqXqX",
"qXu.i.qXqXqXqXqXqXqXqXqXqXqXqXqXqXqXqXqXqXqXqXqXqXqXqXqXqXqXqXqXqXqXqXqXqXqXqXqXqXqXqXqXqXqXqXqXqXqXqXqXqXqX].].].].`.s.i.qXqXqX",
"a.,X|.u.qXqXqXqXqXqXqXqXqXqXqXqXqXqXqXqXqXqXqXqXqXqXqXqXqXqXqXqXqXqXqXqXqXqXqXqXqXqXqXqXqXqXqXqXqXqXqX].].].-X3X1X3X,X1X'.qXqXqX",
"v M i.4Xv.u.qXqXqXqXqXqXqXqXqXqXqXqXqXqXqXqXqXqXqXqXqXqXqXqXqXqXqXqXqXqXqXqXqXqXqXqXqXqXqXqXqXqX].].}.3X1X5Xj.n m m n M v qXqXqX",
"qXV 2.b _.1Xf.qXqXqXqXqXqXqXqXqXqXqXqXqXqXqXqXqXqXqXqXqXqXqXqXqXqXqXqXqXqXqXqXqXqXqXqXqXqXqXqX].<X4X3X:Xm b w.J.J.J.x.f qXqXqXqX",
"qX6.z.C.4.A.OXp.qXqXqXqXqXqXqXqXqXqXqXqXqXqXqXqXqXqXqXqXqXqXqXqXqXqXqXqXqXqXqXqXqXqXqXqXqX].oX4X4X0.b C J.J.J.K.J.j f qXqXqXqXqX",
"qXqXqXe.B.J.Q ].6X'.qXqXqXqXqXqXqXqXqXqXqXqXqXqXqXqXqXqXqXqXqXqXqXqXqXqXqXqXqXqXqXqXqXqX X3X4XA.n l.J.J.P.P.L.J.1.qXqXqXqXqXqXqX",
"qXqXqX6.B.L.V.! ].n.qXqXqXqXqXqXqXqXqXqXqXqXqXqXqXqXqXqXqXqXqXqXqXqXqXqXqXqXqXqXqXqXqXs.<X=Xb q.J.K.P.K.L.L.J.<.qXqXqXqXqXqXqXqX",
"qXqXqXqXe.C.P.l.^ `.c.qXqXqXqXqXqXqXqXqXqXqXqXqXqXqXqXqXqXqXqXqXqXqXqXqXqXqXqXqXqXqXi.OX`.Q J.J.K.K.L.P.P.P.M qXqXqXqXqXqXqXqXqX",
"qXqXqXqXe.C.L.Z.v 9.a.qXqXqXqXqXqXqXqXqXqXqXqXqXqXqXqXqXqXqXqXqXqXqXqXqXqXqXqXqXqXqX X|.Q C.L.P.K.P.K.L.P.k.0 qXqXqXqXqXqXqXqXqX",
"qXqXqXqX6.C.P.L.w.l m M qXqXqXqXqXqXqXqXqXqXqXqXqXqXqXqXqXqXqXqXqXqXqXqXqXqXqXqXqX'.OXW Z.L.L.P.P.K.P.W.!.Z qXqXqXqXqXqXqXqXqXqX",
"qXqXqXqXe.C.!.I.Z K 4X|.U h qXqXqXqXqXqXqXqXqXqXqXqXqXqXqXqXqXqXqXqXqXqX].`.% qXqXc.].W V.L.P.P.K.!.;X;XD.s qXqXqXqXqXqXqXqXqXqX",
"qXqXqXqXqXt.!.Q.2.  d.4X`.m b qXqXqXqXqXqXqXqXqXqXqXqXqXqXqXqXqXqXqXqXb.OX4XXX< p.`.] l.L.P.L.P.T.;X;XQ.q.  qXqXqXqXqXqXqXqXqXqX",
"qXqXqXqXqXe.Y.!.K.4.- s.]./.].H qXqXqXqXqXqXqXqXqXqXqXqXqXqXqXqXqXqXqXo O '.<X( F 3 Q V.P.L.P.I.;XQ.;XY.g qXqXqXqXqXqXqXqXqXqXqX",
"qXqXqXqXqXqXr.Q.W.e.). Xn.2  X| qXqXqXqXqXqXqXqXqXqXqXqXqXqXqXqXqXqXqXqXy - c.w k 5XD q.P.K.I.;X;X;XW.l.X qXqXqXqXqXqXqXqXqXqXqX",
"qXqXqXqXqXqXr.I.5.T .Xs.[ w S | qXqXqXqXqXqXqXqXqXqXqXqXqXqXqXqXqXqXqXb M z `. .S :X^ l.P.U.;X;X;X;XW.j qXqXqXqXqXqXqXqXqXqXqXqX",
"qXqXqXqXqXqXqXN.8.R K J [ [ e . qXqXqXqXqXqXqXqXqXqXqXqXqXqXqXqXqXqXqX.X|.~ S.].) H 8.l.I.Q.;X;X;X;XY.$ qXqXqXqXqXqXqXqXqXqXqXqX",
"qXqXqXqXqXqXqXN.e.. Z C : b.'   qXqXqXqXqXqXqXqXqXqXqXqXqXqXqXqXqXqXqX, f.`.[.].`.[ k.P.T.;X;X;X;XQ.Y.O qXqXqXqXqXqXqXqXqXqXqXqX",
"qXqXqXqXqXqXqXz.;XW.5.n k.Q '   qXqXqXqXqXqXqXqXqXqXqXqXqXqXqXqXqXqXqXqXM M `.].p.q.K.K.T.;X;X;X;XW.1.qXqXqXqXqXqXqXqXqXqXqXqXqX",
"qXqXqXqXqXqXqXN.;X;X5._.E E '   qXqXqXqXqXqXo p qXqXqXqXqXqXqXqXqXqXqXqXqXn :Xc.2.K.P.T.;X;X;X;X;XW.: qXqXqXqXqXqXqXqXqXqXqXqXqX",
"qXqXqXqXqXqXr.W.;X;X5.|.! ( p.z qXqXqXqXqXqX| y.qXqXqXqXqXqXqXqXqXqXqXqXqXm :Xj.3.P.P.W.;X;X;X;X;XW.: qXqXqXqXqXqXqXqXqXqXqXqXqX",
"qXqXqXqXqXqXr.W.;X;X5.XX<XU u.{ qXqXqXqXqXG 6Xy.qXqXqXqXqXqXqXqXqXqXqXqXqXs.OXQ R.K.T.;X;X;X;X;X;X;X: qXqXqXqXqXqXqXqXqXqXqXqXqX",
"qXqXqXqXqXqXr.W.;X;X5.XX1X! ' . qXqXqXqXt 4X-X/ qXqXqXqXqXqXqXqXqXqXqXqXu.:X<XC K.K.T.;X;X;X;X;X;XW.: qXqXqXqXqXqXqXqXqXqXqXqXqX",
"qXqXqXqXqXqXr.;X;Xz.).6X,X~ T . qXqXqX! ,X6Xj.qXqXqXqXqXqXqXqXqXqXqXqXqXu.>X$X, K.I.;X;X;X;X;X;X;XW.: qXqXqXqXqXqXqXqXqXqXqXqXqX",
"qXqXqXqXqXe.!.;X;Xe.).6X<X& - U ( l S.1X1Xp.qXqXqXqXqXqXqXqXqXqXqXqXqXqXu.>X.X3 K.T.;X;X;X;X;X;X;XW., qXqXqXqXqXqXqXqXqXqXqXqXqX",
"qXqXqXqXqXr.W.;X;XU s.$X3X1X4X...  .]. X|.v qXqXqXqXqXqXqXqXqXqXqXqXqXqXi.$X2.C.K.T.;X;X;X;X;X;X;X;XA qXqXqXqXqXqXqXqXqXqXqXqXqX",
"qXqXqXqXe.Y.;XQ.;XE D >X6X6X,XOX1X X[.].c.y qXqXqXqXqXqXqXqXqXqXqXqXqX[ XX3XE J.I.;X;X;X;X;X;X;X;X;XC.O qXqXqXqXqXqXqXqXqXqXqXqX",
"qXqXqXs z.W.P.P.2.T 4X5X6X6X5X5X6X5X Xb.M qXqXqXqXqXqXqXqXqXqXqXqXqXqX[ .X3X1 C.I.;X;X;X;X;X;X;X;X;XY.@ qXqXqXqXqXqXqXqXqXqXqXqX",
"qXqXqXs ,.e.e.,.2.5X6X6X6X5X6X4X4X4X Xv.M qXqXqXqXqXqXqXqXqXqXqXqXqXqXu..X,X1 J.I.T.;XT.T.W.T.W.;X;X!.j qXqXqXqXqXqXqXqXqXqXqXqX",
"qXqXqXqXf g 6.N D 6X6X5X4XoX6X).` `.[.`.] y qXqXqXqXqXqXqXqXqXqXqXqXqX}.7X8.l.J.J.q.h j j j j g q.T.W.D.d qXqXqXqXqXqXqXqXqXqXqX",
"qXqXqXqXqXqXqXq 5 >X5X5X X5X].].2X`.].].f.y qXqXqXqXqXqXqXqXqXqXqXqXqX|.5X4 k.j g 1.6.6.6.6.6.6.A f f V . qXqXqXqXqXqXqXqXqXqXqX",
"qXqXqXqXqXqXqXqXM {.6X4Xc. Xc.0X#Xb.].]. .. qXqXqXqXqXqXqXqXqXqXqXqX`.5X X> d 6.6.6.e.6.6.6.,.9       .   qXqXqXqXqXqXqXqXqXqXqX",
"qXqXqXqX[.].S.m E '.6X5Xi.^ (.>.[.b.].].X.- qXqXqXqXqXqXqXqXqXqXqXv.5XOX7 N 6.e.6.6.7.B d X X qXqXqXqXqXqXqXqXqXqXqXqXqXqXqXqXqX",
"qXqXqXqXu.:X6X3X4X4X5X4X! u = L b.[.`.p.].I : qXqXqXv M qXqXqXqXc.4XA., l e.e.6.,.; . qXqXqXqXqXqXqXqXqXqXqXqXqXqXqXqXqXqXqXqXqX",
"qXqXqXy / <X6X6X4X6X6X6X5X>XS./.[.].`.s.].Y : qXqXm `.p.y qXqXa.3Xn.e 6.e.7.3.0 X qXqXqXqXqXqXqXqXqXqXqXqXqXqXqXqXqXqXqXqXqXqXqX",
"qXqXqX  F <X6X6X4X4X6X4X2X].].[.b./.b.W ].Y 5 E qX( `.S.r 3 9.<X{.6 6.e.6.B + qXqXqXqXqXqXqXqXqXqXqXqXqXqXqXqXqXqXqXqXqXqXqXi.qX",
"qXqXqX  _ ,X7XXXW '.6X|.b.S.`.J X + # n.[.Y r ~ [ S.[.].9.A.4X$X1 5.6.e., qXqXqXqXqXqXqXqXqXqXqXqXqXqXqXqXqXqXqXqXqXqXqXqXi. Xh.",
"qXqXqXqXv 9.`.v.3XOX`.2 # x O.c y z % n.[ k [.`.`.p.c.5X4X6X].1 Q e.z qXqXqXqXqXqXqXqXqXqXqXqXqXqXqXqXqXqXqXqXqXqXv ] <X$XOXW qX",
"qXqXqXqXqX`.`.[.].H   8 %.@.O.8 , y M d.2 `.].[.,X5X4X7X6X6Xr E e.3.a qXqXqXqXqXqXqXqXqXqXqXqXqXqXqXqXqXqXqXqXqXv E ,X<XOXOXW qX",
"qXqXqXqXqXb b.]._   qXqXO.o.o.o.*   s.a.< [.].].1X6X5X5X6X6Xt C e.N   qXqXqXqXqXqXqXqXqXqXqXqXqXqXqXqXqXqXqXqXu.u.OX].[.>XoX~ qX",
"qXqXqXqXqXqXN `.) qXqXc O.$.O.+.O.* u.l @ ] ].<X6X7X7X5X6X6X8.7.4.d qXqXqXqXqXqXqXqXqXqXqXqXqXqXqXqXqXqXqXqXqXqXqXp.[.]. Xk qXqX",
"qXqXqXqXqXqXqX. o qXqXo.$.;.-.;.@.m.).b qX` OX6X7X7X7X6X6X6X X~ 3.h v qXqXqXqXqXqXqXqXqXqXqXqXqXqXqXqXqXqXqXqXqXqXi.`.`.].r qXqX",
"qXqXqXqXqXqXqXqXqXqXb %.G.*X*X;.x f.E qXqXqX| 6X5X6X6X6X5X6X5X].U / z qXqXqXqXqXqXqXqXqXqXqXqXqXqXqXqXqXqXqXqXu.b.].c.` ].r qXqX",
"qXqXqXqXqXqXqXqXqXqX{.:.G.*X*X*.M.+XU qXqXqX| 6X5X5X6X5X6X5X5X3X[.c.v qXqXqXqXqXqXqXqXqXqXqXqXqXqXqXqXqXqXqXqXu.S.].I 7 I qXqXqX",
"qXqXqXqXqXqXqXqXqX( x :.*X&X;.%.c j.U qXqX^ c.OX5XoX4X5X6X6X6X5X].].i.h v v qXqXqXqXqXqXqXqXqXqXqXqXqXqXqXqXu.n.`.`.I 5 G qXqXqX",
"qXqXqXqXqXqXqXqX .#X%XF.G.&.*.M.2Xi.b qXqXG '.XXOX3X6X6X6X5X6X3X].].i.E u.[ M v v qXqXqXqXqXqXqXqXqXqXqXa.].].].~ qXqXqX. qXqXqX",
"qXqXqXqXqXqXqXn.#X} *.%X&.@X+.c f.5 qXqXqXD <X<XOX3X6X6X5X6X5XoX[.].u.~ u.u.[ 9.` v v v v M v v qXb [ p.`.].].c.M qXqXqXqXqXqXqX",
"qXqXqXqXqXqXqX/.9X*.#.:.&.8X#X_.-X2 qXqXqXD 6X5X5X5X6X6X6X7X5X].].c.V u.[ u.X.X.[ [ N ` u.S.`.`.`.`.`.`.].].].` qXqXqXqXqXqXqXqX",
"qXqXqXqXqXqXqXqX| i.: # % s.XX$X].2 qXqXqXy.6X6X5X6X5X6X5X6XoX].].c.[ 9.W [ [ u.u.[ [ [ u.[.[.].].[.].].].n.u.qXqXqXqXqXqXqXqXqX",
"qXqXqXqXqXqXqXqXt '.$X,X1X1X].[.] qXqXqXqXqXj.6X5X6X5X6X5X5XoX].S.a.`.].r J u.9.u.u.u.u.S.].].[.[.].[.].].p.qXqXqXqXqXqXqXqXqXqX",
"qXqXqXqXqXqXqX< b.].].].].].[.H qXqXqXqXqXqXH ].1X5X5X5X>X[.].].[.`.].].a.> ) u.[ u.u.u.`.[.[.].].[.[.[.b.[ qXqXqXqXqXqXqXqXqXqX",
"qXqXqXqXqXqXqXqXk `./.S./.c.e . qXqXqXqXqX] F _ ].].].].].[.S.`.[.].[.].`.< Y u.u.X.u.[ u.`.[.[.].S.`.p.qXqXqXqXqXqXqXqXqXqXqXqX",
"qXqXqXqXqXqXqXqXqX, o o o o qXqXqXqXqXqXqX8.[.` [ S.`.[.].`.W c.].].].[.].m $ [ [ [ [ [ [ `.`.`.c.U v qXqXqXqXqXqXqXqXqXqXqXqXqX",
"qXqXqXqXqXqXqXqXqXqXqXqXqXqXqXqXqXqXqXqX~ `.[.`.p.b ~ `.`.c.b > n.S.`.].[.N $ u.k 5 [ > + P - M qXqXqXqXqXqXqXqXqXqXqXqXqXqXqXqX",
"qXqXqXqXqXqXqXqXqXqXqXqXqXqXqXqXqXqXqXqXE ].[.].[.u.] M M v qXqX. 6 /.`.c.[ { M qXqXX qXX y qXv qXqXqXqXqXqXqXqXqXqXqXqXqXqXqXqX",
"qXqXqXqXqXqXqXqXqXqXqXqXqXqXqXqXqXqXqXqXE `.[.[.`.i.` i qXqXqXqXqXqXo 3 ` [ { M qXqXqXqXqXqXqXqXqXqXqXqXqXqXqXqXqXqXqXqXqXqXqXqX",
"qXqXqXqXqXqXqXqXqXqXqXqXqXqXqXqXqXqXqXqXqXr `.`.W ` M qXqXqXqXqXqXqXqXU X.[ [ ` i qXqXqXqXqXqXqXqXqXqXqXqXqXqXqXqXqXqXqXqXqXqXqX",
"qXqXqXqXqXqXqXqXqXqXqXqXqXqXqXqXqXqXqXqXqXqXo # P [ v qXqXqXqXqXqXqXqXW [ N b ] v qXqXqXqXqXqXqXqXqXqXqXqXqXqXqXqXqXqXqXqXqXqXqX",
"qXqXqXqXqXqXqXqXqXqXqXqXqXqXqXqXqXqXqXqXqXqXU { m ` v qXqXqXqXqXqXqXqXv / m m n.W z qXqXqXqXqXqXqXqXqXqXqXqXqXqXqXqXqXqXqXqXqXqX",
"qXqXqXqXqXqXqXqXqXqXqXqXqXqXqXqXqXqXqXqXqXqXv ` b % X._   qXqXqXqXqXqXqXX X.m qX` F qXqXqXqXqXqXqXqXqXqXqXqXqXqXqXqXqXqXqXqXqXqX",
"qXqXqXqXqXqXqXqXqXqXqXqXqXqXqXqXqXqXqXqXqXqXqXi.E qX< Y   qXqXqXqXqXqXqX  { & qXr F qXqXqXqXqXqXqXqXqXqXqXqXqXqXqXqXqXqXqXqXqXqX",
"qXqXqXqXqXqXqXqXqXqXqXqXqXqXqXqXqXqXqXqXqXqXqXv v qXqX.   qXqXqXqXqXqXqXqX.   qXqX. qXqXqXqXqXqXqXqXqXqXqXqXqXqXqXqXqXqXqXqXqXqX"
};
