/* XPM */
static char *result[] = {
/* columns rows colors chars-per-pixel */
"64 64 219 2 ",
"   c #010101",
".  c #0C0B0D",
"X  c #060509",
"o  c #0E0B14",
"O  c #0C0617",
"+  c #120D1B",
"@  c #100C14",
"#  c #131115",
"$  c #151319",
"%  c #1C181D",
"&  c #2C181E",
"*  c #1D1A21",
"=  c #1B1526",
"-  c #1A0E37",
";  c #1A112B",
":  c #221E26",
">  c #221A2C",
",  c #241729",
"<  c #271C36",
"1  c #351526",
"2  c #25222A",
"3  c #26222B",
"4  c #2C2533",
"5  c #2E2A34",
"6  c #29213B",
"7  c #322B3C",
"8  c #322A3A",
"9  c #35313C",
"0  c #58172D",
"q  c #4F1428",
"w  c #791D3B",
"e  c #671B33",
"r  c #4C2133",
"t  c #7F203F",
"y  c #42583E",
"u  c #2D1956",
"i  c #2D2243",
"p  c #352A47",
"a  c #3C3542",
"s  c #3E3B45",
"d  c #3A3448",
"f  c #332451",
"g  c #3D2D5E",
"h  c #382856",
"j  c #3F3257",
"k  c #331A6A",
"l  c #361C70",
"z  c #3E2D62",
"x  c #3D2372",
"c  c #423A4C",
"v  c #42335B",
"b  c #48395B",
"n  c #5D2244",
"m  c #7B3556",
"M  c #433263",
"N  c #4A3A66",
"B  c #4D3C6B",
"V  c #493667",
"C  c #523D6C",
"Z  c #452B78",
"A  c #4E3674",
"S  c #543B78",
"D  c #4C4354",
"F  c #4A4458",
"G  c #4A4554",
"H  c #4D416B",
"J  c #52426C",
"K  c #574C67",
"L  c #5B5265",
"P  c #5E526B",
"I  c #5F5B6C",
"U  c #554472",
"Y  c #5B4B73",
"T  c #5A457E",
"R  c #5B4C79",
"E  c #584675",
"W  c #5E5475",
"Q  c #61556D",
"!  c #624B79",
"~  c #625377",
"^  c #64547B",
"/  c #6C5C7D",
"(  c #645B75",
")  c #6E627A",
"_  c #686677",
"`  c #70607F",
"'  c #4E764C",
"]  c #A42C3F",
"[  c #801F40",
"{  c #832141",
"}  c #8B2341",
"|  c #962A45",
" . c #993A55",
".. c #863758",
"X. c #B83E53",
"o. c #BD4355",
"O. c #904F67",
"+. c #A94C63",
"@. c #AC5870",
"#. c #CC5767",
"$. c #CF6576",
"%. c #D76C7B",
"&. c #5A3C82",
"*. c #543685",
"=. c #5D3C93",
"-. c #4E3084",
";. c #613C9A",
":. c #5E4784",
">. c #62438C",
",. c #66498B",
"<. c #6C4D8D",
"1. c #634885",
"2. c #6C5C82",
"3. c #655987",
"4. c #725688",
"5. c #6A4D93",
"6. c #694696",
"7. c #725293",
"8. c #76539B",
"9. c #795A9C",
"0. c #704A9D",
"q. c #6C618A",
"w. c #6F6185",
"e. c #716182",
"r. c #756983",
"t. c #75658A",
"y. c #7A6C8B",
"u. c #776C8A",
"i. c #7C708A",
"p. c #79798A",
"a. c #756C94",
"s. c #7D6D92",
"d. c #746B97",
"f. c #7E7191",
"g. c #7C7897",
"h. c #764EA6",
"j. c #7A52AB",
"k. c #7B57A7",
"l. c #7D54B1",
"z. c #6F4FA3",
"x. c #7F75A0",
"c. c #815E83",
"v. c #826887",
"b. c #81738E",
"n. c #837494",
"m. c #857599",
"M. c #857B9A",
"N. c #8C7C9D",
"B. c #887A95",
"V. c #946D84",
"C. c #A87988",
"Z. c #805CA8",
"A. c #855BB5",
"S. c #885CBE",
"D. c #8458BA",
"F. c #847BA1",
"G. c #8C7EA2",
"H. c #8B67B7",
"J. c #916EBC",
"K. c #8D79AB",
"L. c #D9798A",
"P. c #8C5EC3",
"I. c #8F5FC8",
"U. c #905FC8",
"Y. c #8F61C4",
"T. c #9164C5",
"R. c #9161C9",
"E. c #996CCE",
"W. c #9668CC",
"Q. c #9A74C7",
"!. c #9E73D2",
"~. c #A179CE",
"^. c #A076D3",
"/. c #A67DD6",
"(. c #A87FD8",
"). c #A77FD8",
"_. c #8E819B",
"`. c #878598",
"'. c #AA808E",
"]. c #8B81A3",
"[. c #8C86AA",
"{. c #8C87AC",
"}. c #9484A5",
"|. c #9786A8",
" X c #938BAB",
".X c #998AAA",
"XX c #9688A6",
"oX c #9D8FB0",
"OX c #938BB4",
"+X c #9D92B2",
"@X c #9E9ABB",
"#X c #9A99B6",
"$X c #9591AF",
"%X c #A796AA",
"&X c #A195B5",
"*X c #A49BBB",
"=X c #A59CBB",
"-X c #9FA0BB",
";X c #ABA3B3",
":X c #DD8192",
">X c #E28998",
",X c #B7CEB3",
"<X c #A39CC4",
"1X c #A880D8",
"2X c #A880D7",
"3X c #A6A3C3",
"4X c #AAA4C4",
"5X c #AEAACA",
"6X c #A8A6C7",
"7X c #B1ADCD",
"8X c #B4B3D3",
"9X c #B8B7D7",
"0X c #B9B9D9",
"qX c #BFB8C9",
"wX c #BFC0E0",
"eX c #D9D6D8",
"rX c #C9C6D2",
"tX c #C0C1E1",
"yX c None",
/* pixels */
"yXyXyXyXyXyXyXyXyXyXyXyXyXyXyXyXyXyXyXyXyXyXyXyXyXyXyXyXyXyXyXyXyXyXyXyXyXyXyXyXyXyXyXyXyXyXyXyXyXyXyXyXyXyXyXyXyXyXyXyXyXyXyXyX",
"yXyXyXyXyXyXyXyXyXyXyXyXyXyXyXyXyXyXyXyXyXyXyXyXyXyXyXyXyXyXyXyXyXyXyXyXyXyXyXyXyXyXyXyXyXyXyXyXyXy.f.yXyXyXyXyXyXyXyXyXyXyXyXyX",
"yXyXyXyXyXyXyXyXyXyXyXyXyXyXyXyXyXyXyXyXyXyXyXyXyXyXyXyXyXyXyXyXyXyXyXyXyXyXyXyXyXyXyXyXyXyX=X*XoX[.g.yXyXyXyXyXyXyXyXyXyXyXyXyX",
"yXyXyXyXyXyXyXyXyXyXyXyXyXyXyXyXyXyXyXyXyXyXyXyXyXyXyXyXyXyXyXyXyXyXyXyXyXyXyXyXyXyXyXyX=X=X X{.{.q.h yXyXyXyXyXyXyXyXyXyXyXyXyX",
"yXyXyXyXyXyXyXyXyXyXyXyXyXyXyXyXyXyXyXyXyXyXyXyXyXyXyXyXyXyXyXyXyXyXyXyXyXyXyXyXyXyX=X=X9XK.>.=.>.*.yXyXyXyXyXyXyXyXyXyXyXyXyXyX",
"yXyXyX` / yXyXyXyXyXyXyXyXyXyXyXyXyXyXyXyXyXyXyXyXyXyXyXyXyXyXyXyXyXyXyXyXyXyXXXyX-X[.a.a.5.P.P.=.;.yXyXyXyXyXyXyXyXyXyXyXyXyXyX",
"yXyXyXq.*XM./ yXyXyXyXyXyXyXyXyXyXyXyXyXyXyXyXyXyXyXyXyXyXyXyXyXyXyXyXyXyXyXyX5X3X8XJ.6.0.Y.P.-.yXyXyXyXyXyXyXyXyXyXyXyXyXyXyXyX",
"yXyXyXR 3.].*Xf./ yXyXyXyXyXyXyXyXyXyXyXyXyXyXyXyXyXyXyXyXyXyXyXyXyXyXyXyXXX=X@X3.q.l.W.R.R.P.yXyXyXyXyXyXyXyXyXyXyXyXyXyXyXyXyX",
"yXyXyX<.A H @X4Xy.yXyXyXyXyXyXyXyXyXyXyXyXyXyXyXyXyXyXyXyXyXyXyXyXyXyXyX.X5X8X<Xh.l.P.I.U.U.P.yXyXyXyXyXyXyXyXyXyXyXyXyXyXyXyXyX",
"yXyXyXyXk.D.,.N.4XyXyXyXyXyXyXyXyXyXyXyXyXyXyXyXyXyXyXyXyXyXyXyXyXyXyXyX8X8X@X5.R.R.I.I.P.D.> yXyXyXyXyXyXyXyXyXyXyXyXyXyXyXyXyX",
"yXyXyXyX7.A.P.:.N.y.yXyXyXyXyXyXyXyXyXyXyXyXyXyXyXyXyXyXyXyXyXyXyXyXyX.X3XE :.P.I.R.I.I.P.Z yXyXyXyXyXyXyXyXyXyXyXyXyXyXyXyXyXyX",
"yXyXyXyXyXZ.P.P.:.*Xf.yXyXyXyXyXyXyXyXyXyXyXyXyXyXyXyXyXyXyXyXyXyXyXy.3X1.S.P.U.I.R.I.!.T.; yXyXyXyXyXyXyXyXyXyXyXyXyXyXyXyXyXyX",
"yXyXyXyXyX7.A.R.P.G.*X2.yXyXyXyXyXyXyXyXyXyXyXyXyXyXyXyXyXyXyXyXyXs.3X&XY.U.R.R.R.R.W.^.^.z yXyXyXyXyXyXyXyXyXyXyXyXyXyXyXyXyXyX",
"yXyXyXyXyX7.A.U.P.B }.y.yXyXyXyXyXyXyXyXyXyXyXyXyXyXyXyXyXyXyXyX/ @X8XM.Y.U.P.R.R.^.1X1Xl.O yXyXyXyXyXyXyXyXyXyXyXyXyXyXyXyXyXyX",
"yXyXyXyXyX<.A.W.P.,.n.N.e.yXyXyXyXyXyXyXyXyXyXyXyXyXyXyXyXyXyXyX/ .X&XB S.U.R.R.E.1X1X1Xh yXyXyXyXyXyXyXyXyXyXyXyXyXyXyXyXyXyXyX",
"yXyXyXyXyXyXZ.^.!.S.B ^ H yXyXyXyXyXyXyXyXyXyXyXyXyXyXyXyXyXyXyX/ B.s.5.P.P.U.R.^.1X1X1Xu yXyXyXyXyXyXyXyXyXyXyXyXyXyXyXyXyXyXyX",
"yXyXyXyXyXyX5.Q.1XA.p F.a.R g yXyXyXyXyXyXyXyXyXyXyXyXyX.XN.G 2 m.2.M h.R.U.U.E.1X2X).).f yXyXyXyXyXyXyXyXyXyXyXyXyXyXyXyXyXyXyX",
"yXyXyXyXyXyX7.Q.1Xl.. _ 0X$XJ g yXyXyXyXyXyXyXyXyXyXyXyXoX8X6XW 2.G. Xd A.R.R.^.1X1X2X).= yXyXyXyXyXyXyXyXyXyXyXyXyXyXyXyXyXyXyX",
"yXyXyXyXyXyX7.H.2XQ.&.6 ( &XN.y.U yXyXyXyXyXyXyXyXyXyXyX5 9 I s.< `.4Xb D.R./.).1X1X1X1XyXyXyXyXyXyXyXyXyXyXyXyXyXyXyXyXyXyXyXyX",
"yXyXyXyXyXyXyX8.2XQ.5. Xn.L Q 5Xa yXyXyXyXyXyXyXyXyXyXyXyXi J XXa $ y.U S./.2X2X1X1X(./.4 yXyXyXyXyXyXyXyXyXyXyXyXyXyXyXyXyXyXyX",
"yXyXyXyXyXyXyX7.Q.7 *XN.r.Y = `.5 yXyXyXyXyXyXyXyXyXyXyXV V ^ .XN.n.Y V S.E.).2X1X2X1X).= yXyXyXyXyXyXyXyXyXyXyXyXyXyXyXyXyXyXyX",
"yXyXyXyXyXyXyX7.J.8 `.7 ^ / Y = yXyXyXyXyXyXyXyXyXyXyXXXM.OXN.}..X}.T j.R.).2X2X1X(.2X).> yXyXyXyXyXyXyXyXyXyXyXyXyXyXyXyXyXyXyX",
"yXyXyXyXyXyXyX9.~.J.j j.j F |.5 yXyXyXyXyXyXyXyXyXyXyXyX$ V M 2.&XR j.R.R.).1X1X).1X2X).p yXyXyXyXyXyXyXyXyXyXyXyXyXyXyXyXyXyXyX",
"yXyXyXyXyXyX<.H.J.2X/.).^.6.t.5 yXyXyXyXyXyXyXyXyXyXyXyXyXyXyXa.4XY j.R.R.).1X1X2X1X1X2X~.+ yXyXyXyXyXyXyXyXyXyXyXyXyXyXyXyXyXyX",
"yXyXyXyXyXyXZ.B 3.H./.).!.6.t.c yXyXyXyXyXyXyXyXyXyXyXyXyXyXyXa.=X^ j.R.R.(.(.(.1X1X1X2X^.> yXyXyXyXyXyXyXyXyXyXyXyXyXyXyXyXyXyX",
"yXyXyXyXyXZ.~.R @XU 2XY.k.9.t.^ yXyXyXyXyXyXyXyXyXyXyXyXyXyXyXn.3Xq.j.R.E.(.(.(.2X1X1X1X/.=.yXyXyXyXyXyXyXyXyXyXyXyXyXyXyXyXyXyX",
"yXyXyXyXZ.Q.1XT 3Xx.k.h.^ ) F yXyXyXyX$ H g yXyXyXyXyXyXyXyXyX[.tXK z.W.).1X(.(.1X1X1X1X1XE.N yXyXyXyXyXyXyXyXyXyXyXyXyXyXyXyXyX",
"yXyXyXyXH.1X1XT 6X5XA j.^ D yXyXyXyX. p.@Xg yXyXyXyXyXyXyXyXyX XtXs >.R.E.(.1X1X1X1X1X1X).1XQ.- yXyXyXyXyXyXyXyXyXyXyXyXyXyXyXyX",
"yXyXyXZ.~.1X1XT 3X8XOXj.3.W yXyXyXX p.9XF.g yXyXyXyXyXyXyXyXyXf.3XW h.R.!.(.(.1X1X1X1X1X1X1X/.h.yXyXyXyXyXyXyXyXyXyXyXyXyXyXyXyX",
"yXyX&.~.^.W.W.S 6X0X6XB 3.2.yXyXM `.0X3XU yXyXyXyXyXyXyXyXyXyX`.8X3.j.R.).(.(.1X1X1Xz.-.Y.!.>.1.O yXyXyXyXyXyXyXyXyXyXyXyXyXyXyX",
"yXyXZ 9.8.8.8.< -X*X$Xo < R J M a.7X8XG.v yXyXyXyXyXyXyXyXyXyXXXtXG 6.R./.).J.Z Z -.&.:.5.x O +   yXyXyXyXyXyXyXyXyXyXyXyXyXyXyX",
"yXyXyXl S <.8 K 5X8X8X3X_ @ P ].XX5XR yXyXyXyXyXyXyXyXyXyXyXyX XwXc 6.P.P.D.-.,.,.,.1.Z ; X yXyXyXyXyXyXyXyXyXyXyXyXyXyXyXyXyXyX",
"yXyXyXyXk i g.9X9X9X0X8X=X5X*X.X|.G.N yXyXyXyXyXyXyXyXyXyXyXyX6XwXW h.-.Z Z <.<.<.1.< yXyXyXyXyXyXyXyXyXyXyXyXyXyXyXyXyXyXyXyXyX",
"yXyXyXyXyXg.0X0X0X9X8X0X9X0X9X&XXXJ yXyXyXyXyXyXyXyXyXyXyXyXyX[.wXs *.8.<.<.<.A k - yXyXyXyXyXyXyXyXyXyXyXyXyXyXyXyXyXyXyXyXyXyX",
"yXyXyXyX  _ 0X0X9X5X=X0X5X#X5X+XXXU yXyXyXyXyXyXyXyXyXyXyXyXy.+X X9 h ,.7.7.V yXyXyXyXyXyXyXyXyXyXyXyXyXyXyXyXyXyXyXyXyXyXyXyXyX",
"yXyXyXyXyXK 5X0X8XXX0X5XF.f.N..X.Xy.V yXyXyXyXyXyXyXyXyXyX/ F.*X5 v 8.5.S M k yXyXyXyXyXyXyXyXyXyXyXyXyXyXyXyXyXyXyXyXyXyXyXyXyX",
"yXyXyXyXyXY *X0X8Xy.F.F.qXrX_.XX|.}.i yXyXyXyXyXyXyXyXyXyXu.*XOXv S 7.v u yXyXyXyXyXyXyXyXyXyXyXyXyXyXyXyXyXyXyXyXyXyXyXyXyXyXyX",
"yX+X3XoXg.].5X0X7XU N `.,X;Xn..X.XG.$ / yXyXyXyXg g yXyXy.*X#XW 7.7.&.. yXyXyXyXyXyXyXyXyXyXyXyXyXyXyXyXyXyXyXyXyXyXyXyXyXyXyXyX",
"yX].0X0XwXwX0X0X9X[.g.y ' _._..XB.G.Q c M yXyX^ t.~ $ yXi.-Xc C 7.v u yXyXyXyXyXyXyXyXyXyXyXyXyXyXyXyXyXyXyXyXyXyXyXyXyXyXyXyXyX",
"$ f.0X0X{.u.6X0X=X=X$X_ b.}..XXX! N.B.# J J t.N..XN.j 3XXXc S 7.v . yXyXyXyXyXyXyXyXyXyXyXyXyXyXyXyXyXyXyXyXyXyXyXyXyXyXyXyXyXyX",
"$ n. X$X2.$X8X*XXXB.a .X) 2 2 2 ` |.b.2 N.2.2..X.X3.OX9X#X* 7.7.C yXyXyXyXyXyXyXyXyXyXyXyXyXyXyXyXyXyXyXyXyXyXyXyXyXyXyXyXyXyXyX",
"yX4 b.N.G.0X&XN.4 1 0 % > p f O ` XX5 i..XXXn.y.@X6X8X8XG.! 7.*.yXyXyXyXyXyXyXyXyXyXyXyXyXyXyXyXyXyXyXyXyXyXyXyXyXyXyXyXyXyXe.yX",
"yXN }.|..XXXa @ e ] t w n z M = ` B.3 XX|.=X8X7X8X0X0X3Xp <.7.<.yXyXyXyXyXyXyXyXyXyXyXyXyXyXyXyXyXyXyXyXyXyXyXyXyXyXyX2.e.r.e.` ",
"yXyXR _..Xc yXyXyX{ { { 0 > h v B.3 i..X.X=X0X9X0X0X0X0X@XU <.S k yXyXyXyXyXyXyXyXyXyXyXyXyXyXyXyXyXyXyXyXyXyXyXyXyXyXt..X5Xy.yX",
"yXyXyXY i.9 yXyX[ | X.w [ q   ( N.* M .X=X9X9X0X0X0X0X0X7Xm.E S M yXyXyXyXyXyXyXyXyXyXyXyXyXyXyXyXyXyXyXyXyXyXyXt.0X8X=X4X|.J yX",
"yXyXyXyX  yXyXyX| #.%.|  .| r r.E yXN i.9X9X9X0X9X0X0X0X8X=XG.2.2.yXyXyXyXyXyXyXyXyXyXyXyXyXyXyXyXyXyXyXyXyXyXR @X4X4X5X=X! yXyX",
"yXyXyXyXyXyXyXr.o.>XL.%.%.] 4.B.H yXyX* 0X0X0X0X0X9X9X9X9X9X5X&Xb.yXyXyXyXyXyXyXyXyXyXyXyXyXyXyXyXyXyXyXyXyXyX2.e.m.&X5X*XY yXyX",
"yXyXyXyXyXyXU V.$.>X>X>X$.O.XXR yXyXv L @X0X7X7X0X9X9X9X9X7XXXN.E yXyXyXyXyXyXyXyXyXyXyXyXyXyXyXyXyXyXyXyXyXyXyXy..X|.|.) b yXyX",
"yXyXyXyX/ rX@.+.:X@.L.#...v.N.J yXyXv K  X#X4X=X0X0X0X0X9X8X=X.Xm.U g g yXyXyXyXyXyXyXyXyXyXyXyXyXyXyXyXyXyXyX}.y.t..XoX9 yXyXyX",
"yXyXyX_.B.V.L.:X@.C.+.+.%Xy.Y yXyXyXyX2 4X$X4X=X0X0X0X0X9X8X&XXX.X! J Y M v yXyXyXyXyXyXyXyXyXyXyXyXyXyXyX` e..XN.H Q ) * yXyXyX",
"yXyXyX%XeXO.X.:X..eXC.m N.Q > yXyXyXyX2 8X8X8X8X9X0X9X0X9X7X|..Xu.R ` e.^ R v M yXyXyXyXyXyXyXyXyXyXyX` N.N.N.^ N.Q ) D yXyXyXyX",
"yXyXyX( B.` 1 & & B.XXv.@XD yXyXyXyXyXH 9X9X9X9X0X9X0X9X8XoX|..X^ t.! ( ` ` ^ Y g Y J M m.J ( C e.` n.}.}.XX}.V yXyXyX% yXyXyXyX",
"yXyXyXyXF .X$X#X@X4X.X4X.XD yXyXyXyXyXyXq.9X9X9X0X9X9X+X.X.X.XN.n.XXN.4 Q 2.2.` / / / n.XXN.G.N.}.}.|..X|.}.y.yXyXyXyXyXyXyXyXyX",
"yXyXyXyXc XXoX.X+X.X.X.Xu.h yXyXyXyXyXyX9 }.=X8X8X8X+X|..X.X.X|.|..X.X/ % / ` e./ ` m..X|..X.X.XXXXX|.|.y.C yXyXyXyXyXyXyXyXyXyX",
"yXyXyXyXyXK B.y.i.i.b.N.F yXyXyXyXyXyXJ ) c }.|..X.X.X.X}._..X.X|..X.X_.: P 2.` 2.e.N..X.X|.|.|.|.|.m.B.Y yXyXyXyXyXyXyXyXyXyXyX",
"yXyXyXyXyXyX=       + p yXyXyXyXyXyXyX^ .Xi.! y.n.XXm.f.Y N b..X.X|.|.XXv $ ` ` e.b.XX.X|..X.XXXN.}.r.yXyXyXyXyXyXyXyXyXyXyXyXyX",
"yXyXyXyXyXyXyXyXyXyXyXyXyXyXyXyXyXyXB XX|..XG.~ N t.B g M i 4 ( b.oX.XN.J 4 ^ r.Q P n..X.X|.N.2.U N.U yXyXyXyXyXyXyXyXyXyXyXyXyX",
"yXyXyXyXyXyXyXyXyXyXyXyXyXyXyXyXyXyXN .X.X|..Xn.e.N yXyXyXyXyX  9 L / e.e./ v c 4 3 J K e.N.Y g yXyXyXyXyXyXyXyXyXyXyXyXyXyXyXyX",
"yXyXyXyXyXyXyXyXyXyXyXyXyXyXyXyXyXyXv L .XoXB.2.~ N yXyXyXyXyXyXyX+ b / e.2.b + yXyX< o yXyXyXyXyXyXyXyXyXyXyXyXyXyXyXyXyXyXyXyX",
"yXyXyXyXyXyXyXyXyXyXyXyXyXyXyXyXyXyXyXo s a b / J yXyXyXyXyXyXyXyXV ^ ` Y E ^ M yXyXyXyXyXyXyXyXyXyXyXyXyXyXyXyXyXyXyXyXyXyXyXyX",
"yXyXyXyXyXyXyXyXyXyXyXyXyXyXyXyXyXyXyXyXi c b ^ B yXyXyXyXyXyXyXyXyXB / v N n.U yXyXyXyXyXyXyXyXyXyXyXyXyXyXyXyXyXyXyXyXyXyXyXyX",
"yXyXyXyXyXyXyXyXyXyXyXyXyXyXyXyXyXyXyXyXJ / i c s.4 yXyXyXyXyXyXyXyX# e.N yX2.Q @ yXyXyXyXyXyXyXyXyXyXyXyXyXyXyXyXyXyXyXyXyXyXyX",
"yXyXyXyXyXyXyXyXyXyXyXyXyXyXyXyXyXyXyXyXY t.f . ) 3 yXyXyXyXyXyXyXyX  * ) . yXc D yXyXyXyXyXyXyXyXyXyXyXyXyXyXyXyXyXyXyXyXyXyXyX",
"yXyXyXyXyXyXyXyXyXyXyXyXyXyXyXyXyXyXyXyXyXyXM yXyXX yXyXyXyXyXyXyXyXyXyX#   yXyX$ yXyXyXyXyXyXyXyXyXyXyXyXyXyXyXyXyXyXyXyXyXyXyX"
};
