/* XPM */
static char *result[] = {
/* columns rows colors chars-per-pixel */
"64 64 217 2 ",
"   c #020102",
".  c #07050B",
"X  c #0D0914",
"o  c #0B0517",
"O  c #110E16",
"+  c #15111B",
"@  c #19151D",
"#  c #18161A",
"$  c #1B0407",
"%  c #321018",
"&  c #160E21",
"*  c #1D1826",
"=  c #160A34",
"-  c #0C0520",
";  c #221A28",
":  c #231A32",
">  c #271C38",
",  c #242229",
"<  c #2A2631",
"1  c #2C2636",
"2  c #342D3B",
"3  c #30273D",
"4  c #35323D",
"5  c #501529",
"6  c #671931",
"7  c #2A1652",
"8  c #2A194C",
"9  c #2E2343",
"0  c #36294B",
"q  c #3C3545",
"w  c #3A3645",
"e  c #3D2C53",
"r  c #3D2D5D",
"t  c #362952",
"y  c #3E3154",
"u  c #311B66",
"i  c #3F2F60",
"p  c #3A2465",
"a  c #3E2476",
"s  c #423C4A",
"d  c #412E58",
"f  c #42335C",
"g  c #473C56",
"h  c #742748",
"j  c #733659",
"k  c #423262",
"l  c #4B3A64",
"z  c #4C3C6A",
"x  c #4A3469",
"c  c #503C6C",
"v  c #452A7A",
"b  c #4D3279",
"n  c #4D3572",
"m  c #543879",
"M  c #462C6E",
"N  c #45404D",
"B  c #4B4454",
"V  c #4C435A",
"C  c #4D4C5B",
"Z  c #524A5B",
"A  c #576E5B",
"S  c #4E4169",
"D  c #53436D",
"F  c #574C65",
"G  c #5C5265",
"H  c #5E5469",
"J  c #585967",
"K  c #564572",
"L  c #5B4B74",
"P  c #5C4E79",
"I  c #594778",
"U  c #5E527D",
"Y  c #5E5073",
"T  c #61546D",
"R  c #62586D",
"E  c #614A7C",
"W  c #625375",
"Q  c #6B5C76",
"!  c #65557B",
"~  c #6C5C7D",
"^  c #655977",
"/  c #7C5E7C",
"(  c #5E606C",
")  c #6C6177",
"_  c #6E637A",
"`  c #666777",
"'  c #71627C",
"]  c #697D6C",
"[  c #831F40",
"{  c #832241",
"}  c #972F4A",
"|  c #A92E45",
" . c #B2354A",
".. c #9B415A",
"X. c #924E68",
"o. c #A94F66",
"O. c #B0556D",
"+. c #C04154",
"@. c #CB5263",
"#. c #D45E6E",
"$. c #D96777",
"%. c #718D6E",
"&. c #5B3C83",
"*. c #54348B",
"=. c #563985",
"-. c #55368C",
";. c #623D9B",
":. c #5D4585",
">. c #5F4195",
",. c #64438A",
"<. c #6B4D8A",
"1. c #664988",
"2. c #655585",
"3. c #665A85",
"4. c #6C5C84",
"5. c #675789",
"6. c #6B4B93",
"7. c #6C499B",
"8. c #624298",
"9. c #735293",
"0. c #75559A",
"q. c #704D96",
"w. c #6D638D",
"e. c #6F6784",
"r. c #716182",
"t. c #756983",
"y. c #74648B",
"u. c #766A8B",
"i. c #7B6C8C",
"p. c #7C6D86",
"a. c #7C738C",
"s. c #737389",
"d. c #746A93",
"f. c #7D6D92",
"g. c #746694",
"h. c #7E7193",
"j. c #7C7599",
"k. c #734DA3",
"l. c #7954A5",
"z. c #7F5DA3",
"x. c #7A53AB",
"c. c #7451A5",
"v. c #7E54B1",
"b. c #714CA9",
"n. c #7F78A0",
"m. c #827394",
"M. c #847699",
"N. c #84799A",
"B. c #8B7C9C",
"V. c #937898",
"C. c #886D8A",
"Z. c #A97B8A",
"A. c #815DA7",
"S. c #895DBE",
"D. c #8258B6",
"F. c #8462AC",
"G. c #857EA4",
"H. c #8D7EA1",
"J. c #8C65BC",
"K. c #8D6ABA",
"L. c #906CBA",
"P. c #907FA3",
"I. c #D37283",
"U. c #8C5DC3",
"Y. c #8F5FC8",
"T. c #9261CA",
"R. c #9668CC",
"E. c #966BCA",
"W. c #9A74C9",
"Q. c #9D6FD3",
"!. c #9D71D1",
"~. c #A176D4",
"^. c #A57CD5",
"/. c #A77DD9",
"(. c #A17ACF",
"). c #868398",
"_. c #BD848E",
"`. c #8B82A4",
"'. c #8F8BAC",
"]. c #8A86A6",
"[. c #9484A4",
"{. c #948AAB",
"}. c #9A8AAA",
"|. c #9789A7",
" X c #8F90A8",
".X c #9993AC",
"XX c #958DB0",
"oX c #9B93B2",
"OX c #9D99BB",
"+X c #9B97B8",
"@X c #A195B5",
"#X c #A49BBB",
"$X c #A89EBE",
"%X c #A49CB7",
"&X c #A39CAA",
"*X c #A8A3B7",
"=X c #BCACB3",
"-X c #DF8494",
";X c #E18A99",
":X c #E08292",
">X c #C7ADB9",
",X c #B7CEB2",
"<X c #A39FC1",
"1X c #A981D9",
"2X c #A880D7",
"3X c #A6A2C3",
"4X c #ABA4C4",
"5X c #ADAACA",
"6X c #ACA8C7",
"7X c #B1AECE",
"8X c #B5B4D3",
"9X c #B9B9D9",
"0X c #B8B7D7",
"qX c #C6BBCA",
"wX c #C3C4E5",
"eX c #CAC6CE",
"rX c None",
/* pixels */
"rXrXt.rXrXrXrXrXrXrXrXrXrXrXrXrXrXrXrXrXrXrXrXrXrXrXrXrXrXrXrXrXrXrXrXrXrXrXrXrXrXrXrXrXrXrXrXrXrXrXrXrXrXrXrXrXrXrXrXrXrXrXrXrX",
"~ B.{.r.rXrXrXrXrXrXrXrXrXrXrXrXrXrXrXrXrXrXrXrXrXrXrXrXrXrXrXrXrXrXrXrXrXrXrXrXrXrXrXrXrXrXrXrXrXrXrXrXrXrXrXrXrX}.rXrXrXrXrXrX",
"P 7X8X5Xh.r.rXrXrXrXrXrXrXrXrXrXrXrXrXrXrXrXrXrXrXrXrXrXrXrXrXrXrXrXrXrXrXrXrXrXrXrXrXrXrXrXrXrXrXrXrXrXrXrX{.{.}.6X@X}.}.m.r.rX",
"rXrX5.2.z 3X9XoXrXrXrXrXrXrXrXrXrXrXrXrXrXrXrXrXrXrXrXrXrXrXrXrXrXrXrXrXrXrXrXrXrXrXrXrXrXrXrXrXrXrXrX}.|.}.7X8X8Xw.<X7X8X7X4Xm.",
"rXrX<.l.v.2.oX$X`.rXrXrXrXrXrXrXrXrXrXrXrXrXrXrXrXrXrXrXrXrXrXrXrXrXrXrXrXrXrXrXrXrXrXrXrXrXrXrXrXrX{.4X7X8XOXI P 0.:.I L P I z ",
"rXrXrX0.U.l.D y.*XM.rXrXrXrXrXrXrXrXrXrXrXrXrXrXrXrXrXrXrXrXrXrXrXrXrXrXrXrXrXrXrXrXrXrXrXrXrXrX|.@X5X0Xd.U 5.x.x.U.v.v.v.=.rXrX",
"rXrXrX9.S.U.x.6.M.h.rXrXrXrXrXrXrXrXrXrXrXrXrXrXrXrXrXrXrXrXrXrXrXrXrXrXrXrXrXrXrXrXrXrXrXrXrX7X7X0XXXU 0.k.v.T.Y.T.T.v.*.*.rXrX",
"rXrXrXrXl.U.T.7.4.[.t.rXrXrXrXrXrXrXrXrXrXrXrXrXrXrXrXrXrXrXrXrXrXrXrXrXrXrXrXrXrXrXrXrXrXrX+X8Xw.g.J.k.U.Y.T.Y.T.8.*.rXrXrXrXrX",
"rXrXrXrXrXA.T.D.F.9.m.^ rXrXrXrXrXrXrXrXrXrXrXrXrXrXrXrXrXrXrXrXrXrXrXrXrXrXrXrXrXrXrXrX^ H.#Xd.7.x.T.T.T.Y.Y.R.&.7 rXrXrXrXrXrX",
"rXrXrXrXrX9.U.T.T.I I I ! r rXrXrXrXrXrXrXrXrXrXrXrXrXrXrXrXrXrXrXrXrXrXrXrXrXrXrXrXrXm.oX$Xf.6.Y.T.T.Y.T.Y.Y.v.t rXrXrXrXrXrXrX",
"rXrXrXrXrX0.T.!.R.i w.].{.D r rXrXrXrXrXrXrXrXrXrXrXrXrXrXrXrXrXrXrXrXrXrXrXrX}.4 rXrXi.6XH.,.U.Y.Y.Y.Y.Y.Q.!.=.rXrXrXrXrXrXrXrX",
"rXrXrXrXrX9.K.1XQ.: ( 9X<Xm.2.z rXrXrXrXrXrXrXrXrXrXrXrXrXrXrXrXrXrXrXrXrXrX%X4Xs., W B.}.! k.T.T.Y.Y.R.Q.1X!.M rXrXrXrXrXrXrXrX",
"rXrXrXrXrXrXF.2X~.m * e.C.p.$Xy rXrXrXrXrXrXrXrXrXrXrXrXrXrXrXrXrXrXrXrXrXrXJ '.wXV L H y.2.D.T.Y.Y.R.^.1X1Xl.= rXrXrXrXrXrXrXrX",
"rXrXrXrXrXrXA.2X1X~.z F Q V s.C rXrXrXrXrXrXrXrXrXrXrXrXrXrXrXrXrXrXrXrXrXrX  w .XU s C E k.T.T.Y.T.!./.2X^.&.rXrXrXrXrXrXrXrXrX",
"rXrXrXrXrXrX0.W.^.F.w.4Xm.L : ` O rXrXrXrXrXrXrXrXrXrXrXrXrXrXrXrXrXrXrXrXrXrX9 H 4.* 0X`.6.T.T.T.!.1X2X1XU.7 rXrXrXrXrXrXrXrXrX",
"rXrXrXrXrXrXrX<.K.1 .Xt.R ^ ! X rXrXrXrXrXrXrXrXrXrXrXrXrXrXrXrXrXrXrXrXrXrX! z y.|.q ).R n T.T.E.2X1X1X/.7.  rXrXrXrXrXrXrXrXrX",
"rXrXrXrXrXrXrXrXL.l s.0 g Z [.* rXrXrXrXrXrXrXrXrXrXrXrXrXrXrXrXrXrXrXrXrXi.+Xf.f.}.B.q 3.6.R.R.1X1X1X2X2Xt rXrXrXrXrXrXrXrXrXrX",
"rXrXrXrXrXrXrXrXL.2Xe l.&.,.i.* rXrXrXrXrXrXrXrXrXrXrXrXrXrXrXrXrXrXrXrXrX. D B.[.|.|.f.n b.R.1X1X2X2X2XW.O rXrXrXrXrXrXrXrXrXrX",
"rXrXrXrXrXrXrXrXL.1X1XL.x x e.1 rXrXrXrXrXrXrXrXrXrXrXrXrXrXrXrXrXrXrXrXrXrXrXr y.}.M.:.Y.U.!.1X1X2X2X2XE.+ rXrXrXrXrXrXrXrXrXrX",
"rXrXrXrXrXrXrXrXL.1X1XK.w.j.k h.S rXrXrXrXrXrXrX9 rXrXrXrXrXrXrXrXrXrXrXrXrXrXrXG.@XK U.Y.Y.!.2X1X2X2X2Xb rXrXrXrXrXrXrXrXrXrXrX",
"rXrXrXrXrXrXrXrXL.1X1XK.d.j.y.e._ rXrXrXrXrXrXJ d.rXrXrXrXrXrXrXrXrXrXrXrXrXrXrXG.oXI U.Y.!.2X1X2X1X2X2X1 rXrXrXrXrXrXrXrXrXrXrX",
"rXrXrXrXrXrXrXrXL.1X1XE.w.0X3.X rXrXrXrXrXrXw 0Xd.rXrXrXrXrXrXrXrXrXrXrXrXrXrXrX+X5.D.T.T.!.2X2X1X2X2X2X> rXrXrXrXrXrXrXrXrXrXrX",
"rXrXrXrXrXrXrXF.1X1X1XK.w.9Xw.X rXrXrXrXrX, 6X6X! rXrXrXrXrXrXrXrXrXrXrXrXrXN.0X8X5.D.Y.R.1X1X2X2X2X1X^.> rXrXrXrXrXrXrXrXrXrXrX",
"rXrXrXrXrXrXrXF.1X1X1XK.w.9X5XS rXrXrXrXl +X9X].rXrXrXrXrXrXrXrXrXrXrXrXrXrXN.9XJ ,.T.~./.1X2X1X1X/.1Xl rXrXrXrXrXrXrXrXrXrXrXrX",
"rXrXrXrXrXrXA.^.2X2X2Xv.w.9X0X< X S L r m.8X7Xg.rXrXrXrXrXrXrXrXrXrXrXrXrXrXN.wXC ,.R./.1X/.2X1X2X1X1Xe rXrXrXrXrXrXrXrXrXrXrXrX",
"rXrXrXrXrXrXA.2X2X2X/.q.C 5X5X+X+Xu.. F |.%X+Xz rXrXrXrXrXrXrXrXrXrXrXrXrXrXM.'.,.U.T./.2X1X2X/.1X2X1Xy rXrXrXrXrXrXrXrXrXrXrXrX",
"rXrXrXrXrXrXA.1X!.Q.J.& < oX0X9X8X.X X X}.}.M.r rXrXrXrXrXrXrXrXrXrXrXrXrXi.5XG.7.T.!.2X2X2X1X1X2X1X1X=.rXrXrXrXrXrXrXrXrXrXrXrX",
"rXrXrXrXrXv W.~.D.0.-.N.{.5X9X0X8X8X9X7XoXB.I rXrXrXrXrXrXrXrXrXrXrXrXrXrXa.9Xe.m R.2X1X2X2X2X1X2X1X2XU.: rXrXrXrXrXrXrXrXrXrXrX",
"rXrXrXrXrXv F.z.0.<.3 8X9X9X9X9X9X9X9X9X@XB.k rXrXrXrXrXrXrXrXrXrXrXrXrXrXi.9X` M T./.1X1X1X1X1X1X1X1X2X: rXrXrXrXrXrXrXrXrXrXrX",
"rXrXrXrXrXrXv m 9.<.* @X9X9X9X3X9X<Xf.oX}.H.I rXrXrXrXrXrXrXrXrXrXrXrXrXt.OX3X5.v.T.R.;.v.1X1X1X1X1X2X2Xp rXrXrXrXrXrXrXrXrXrXrX",
"rXrXrXrXrXrXrXa &.<.l B.9X0X4X4X5Xj.}.B.}.|.y.k rXrXrXrXrXrXrXrXrXrXrXrXr.8X].n x.*.-.b :.8.8.8.8.c./.1XJ.a rXrXrXrXrXrXrXrXrXrX",
"rXrXrXrXrXrXrXrXg.E m m.0X9X{.6XG.qXqX`.}.}.t.> rXrXrXr rXrXrXrXrXrXrXrX'.0Xa.: =.b =.9.1.b b b b =.8.b.A.8 rXrXrXrXrXrXrXrXrXrX",
"rXrXrXrXrXrXrX@X4XG.j.+X9X9XB.j.m.,X*XV.}.}.Q * rXrXrX! P rXrXrXrXrXrXH.8X#XN r ,.9.9.9.9.9.9.0.m 9 = = > . rXrXrXrXrXrXrXrXrXrX",
"rXrXrXrXrXrXB.5X9X9X9X9X9XOX! 3 %.%.|.B.B.}._ ; D rXx |.m.0 rXrXrXrXM.5X'.V e 0.9.9.m d x m k e 7         rXrXrXrXrXrXrXrXrXrXrX",
"rXrXrXrXrXrXM.0X9X9X9X9X9XXX4.s A m.}.}.i.|.) 2 K D ~ |.|.q rXrXrXi.<X Xc 0 <.0.,.k 7   o u o   rXrXrXrXrXrXrXrXrXrXrXrXrXrXrXrX",
"rXrXrXrXrX0 m.9X9XOXOX0X0X9X7X@X}..X}.}.4.[.) 2 4.Y [.}.B.0 O rXrXoX*Xw E 9.q.c p o rXrXrXrXrXrXrXrXrXrXrXrXrXrXrXrXrXrXrXrXN.i.",
"rXrXrXrXrX# m.5X3X5.M.0X8X7X@X|.[.) ) ) ! [.Q q @X4.m.P.].0 k 3.`.5XZ c 9.<.x = rXrXrXrXrXrXrXrXrXrXrXrXrXrXrXrXrXrXrXrXi.m.{.i.",
"rXrXrXrXrX@ p.{.j.M.6XoX.X' C.V./ X X   t.|.G Z }.oXm.`.9X].+X8XoXp.d E 1.I   rXrXrXrXrXrXrXrXrXrXrXrXrXrXrXrXrXrXrXrX2.}.6X3.rX",
"rXrXrXrXrXrXD `.}.{._ < Z $ 6 { h t k : t._ 2 }.}.7X9X9X0X9X0Xa.1 <.6.> rXrXrXrXrXrXrXrXrXrXrXrXrXrXrXrXrXrXrXrXM.0X7X@X*XoXI rX",
"rXrXrXrXrXrXrXE |.[.# rX% | { { 6 ; t k m.@ K }.7X9X0X9X0X0X8X< 1.9.m rXrXrXrXrXrXrXrXrXrXrXrXrXrXrXrXrXrXrXrXrX4.+XoX7X6X! rXrX",
"rXrXrXrXrXrXrXrX) m.# rXrX{ { { [ 6   J H.@ D oX9X9X9X9X0X0X8X2 1.9.0 rXrXrXrXrXrXrXrXrXrXrXrXrXrXrXrXrXrXrXrXrXrXt.[.|.}.g rXrX",
"rXrXrXrXrXrXrXrX. . rXrXrX{  .} { [ 5 H P rXrXC 9X0X9X9X0X9X0X:.1.&.p rXrXrXrXrXrXrXrXrXrXrXrXrXrXrXrXrXrXrXrXrXr.B.[.|.}.s rXrX",
"rXrXrXrXrXrXrXrXrXrXrXrXrX| $.@.$. .X.[.K rXrXC 9X9X0X0X0X0X0X{.K &.p rXrXrXrXrXrXrXrXrXrXrXrXrXrXrXrXrXrXrXrXrXr.B.L P.T   rXrX",
"rXrXrXrXrXrXrXrXrXrXrXU j #.-X-XI.} w.3.rXrXK m.+X9X@X0X0X0X0X8XM.K K f rXrXrXrXrXrXrXrXrXrXrXrXrXrXrXrXrXrXrXrXm.|.^ 2 G rXrXrX",
"rXrXrXrXrXrXrXrXrXrXrX3._.$.;X-XI.X.*XP rXrXw oXoX<X7X0X0X9X0X0X5X[.4.r f k rXrXrXrXrXrXrXrXrXrXrXrXrXrXrXr.i.|.|.i.T < G rXrXrX",
"rXrXrXrXrXrXrXrXrXr.h.>Xo.;X-X-X+.h i.! rXrX4 4X<X@X7X0X0X0X9X9X7X}.|.P L k f k rXrXrXrXrXrXrXrXrXrXrXrXt.B.[.}.4.rXrX. # rXrXrX",
"rXrXrXrXrXrXrXrXrX&Xa...@.;Xo.$.o.qXh.D rXrX4 8X0X8X0X0X9X0X0X0X@X|.}.E W ! ^ K k k i rXi rXr i rXD r.~ B.|.}.B.K rXrXrXrXrXrXrX",
"rXrXrXrXrXrXrXrXr.eX=X} ;XO.Z.X.h f.G * rXrXY 9X0X0X0X0X0X9X0X8X}.}.u.L r.r.r.~ ! W W x ^ D y.m.t.M.B.[.|.}.m.K rXrXrXrXrXrXrXrX",
"rXrXrXrXrXrXrXrXrXu.[.j $.O.>X>X/ oXV rXrXrXrX].9X0X0X0X9X9X9X#X}.}.4.4.E r.~ r.r.r./ ! r.u.P.}.P.}.|.}.}.|.t.rXrXrXrXrXrXrXrXrX",
"rXrXrXrXrXrXrXrXrX& m.Q % % ) &X$X$XV rXrXrXrXV <X8X9X9X9X4X@X}.}.B.i.B.C.2 ~ r.r.' 4.r.i.[.}.|.}.|.|.|.}.H.c rXrXrXrXrXrXrXrXrX",
"rXrXrXrXrXrXrXrXrX. m.[.s.a. X}.@XM.g rXrXrXS N Q #X$X@X#XoX|.}.}.[.P.}.[.g q r.~ r.r.~ C.{.|.|.|.|.}.}.4.rXrXrXrXrXrXrXrXrXrXrX",
"rXrXrXrXrXrXrXrXrXrXs |.4X*X$X.XoXr.& rXrXrXL C.L u.{.}.|.|.|.}.|.|.|.|.{.t.; t.' r.~ ~ m.|.|.|.}.|.|.V.K rXrXrXrXrXrXrXrXrXrXrX",
"rXrXrXrXrXrXrXrXrXrXrXr.}.}.}.}.^ 4 rXrXrXrXf.}.m.~ ! y.}.}.B.r.|.}.}.}.|.M.1 g r.r.' r.m.|.}.}.m.B.m.! rXrXrXrXrXrXrXrXrXrXrXrX",
"rXrXrXrXrXrXrXrXrXrXrXf B B B V 9 rXrXrXrXI }.|.{.V.L L r.r.L k F }.}.|.|.P.9 < y.g ~ W F B.T m.E i.4.rXrXrXrXrXrXrXrXrXrXrXrXrX",
"rXrXrXrXrXrXrXrXrXrXrXrX        rXrXrXrXrXz }.}.|.|.u.! r r r t + Z t.}.}.m.l s ^ O 2 2 @ g < Y rXrXrXrXrXrXrXrXrXrXrXrXrXrXrXrX",
"rXrXrXrXrXrXrXrXrXrXrXrXrXrXrXrXrXrXrXrXrXk ) }.}.m.~ L rXrXrXrXrX  2 T 4.r.t.L rXrX  rXrX: rXrXrXrXrXrXrXrXrXrXrXrXrXrXrXrXrXrX",
"rXrXrXrXrXrXrXrXrXrXrXrXrXrXrXrXrXrXrXrXrX0 ; R R D ^ k rXrXrXrXrXrXrXX f ~ r.^ l rXrXrXrXrXrXrXrXrXrXrXrXrXrXrXrXrXrXrXrXrXrXrX",
"rXrXrXrXrXrXrXrXrXrXrXrXrXrXrXrXrXrXrXrXrXrXrX. @ F ! z rXrXrXrXrXrXrXrXL ' ~ ! D rXrXrXrXrXrXrXrXrXrXrXrXrXrXrXrXrXrXrXrXrXrXrX",
"rXrXrXrXrXrXrXrXrXrXrXrXrXrXrXrXrXrXrXrXrXrXrXrXL ! y ^ l rXrXrXrXrXrXrXk ^ W r ^ I rXrXrXrXrXrXrXrXrXrXrXrXrXrXrXrXrXrXrXrXrXrX",
"rXrXrXrXrXrXrXrXrXrXrXrXrXrXrXrXrXrXrXrXrXrXrXrXW D O Q H rXrXrXrXrXrXrXrXd ! r r.i.d rXrXrXrXrXrXrXrXrXrXrXrXrXrXrXrXrXrXrXrXrX",
"rXrXrXrXrXrXrXrXrXrXrXrXrXrXrXrXrXrXrXrXrXrXrXrX4.K rX, B rXrXrXrXrXrXrXrX@ p.t t y.# rXrXrXrXrXrXrXrXrXrXrXrXrXrXrXrXrXrXrXrXrX",
"rXrXrXrXrXrXrXrXrXrXrXrXrXrXrXrXrXrXrXrXrXrXrXrXk k rXrX  rXrXrXrXrXrXrXrX@ F   rXH # rXrXrXrXrXrXrXrXrXrXrXrXrXrXrXrXrXrXrXrXrX",
"rXrXrXrXrXrXrXrXrXrXrXrXrXrXrXrXrXrXrXrXrXrXrXrXrXrXrXrXrXrXrXrXrXrXrXrXrXrX    rX    rXrXrXrXrXrXrXrXrXrXrXrXrXrXrXrXrXrXrXrXrX",
"rXrXrXrXrXrXrXrXrXrXrXrXrXrXrXrXrXrXrXrXrXrXrXrXrXrXrXrXrXrXrXrXrXrXrXrXrXrXrXrXrXrXrXrXrXrXrXrXrXrXrXrXrXrXrXrXrXrXrXrXrXrXrXrX"
};
