/* XPM */
static char *result[] = {
/* columns rows colors chars-per-pixel */
"64 64 224 2 ",
"   c #010102",
".  c #0C0A0D",
"X  c #06030A",
"o  c #0E0B13",
"O  c #050011",
"+  c #120E19",
"@  c #131114",
"#  c #17151A",
"$  c #1C161C",
"%  c #100409",
"&  c #31101B",
"*  c #1A1324",
"=  c #1E1927",
"-  c #160F26",
";  c #211D26",
":  c #231B2D",
">  c #241A35",
",  c #3F1021",
"<  c #29242D",
"1  c #2D233D",
"2  c #2E2936",
"3  c #342E39",
"4  c #37313E",
"5  c #491624",
"6  c #7B1E3D",
"7  c #552133",
"8  c #712029",
"9  c #271549",
"0  c #2C175E",
"q  c #301F48",
"w  c #2E2246",
"e  c #352E44",
"r  c #32244B",
"t  c #372947",
"y  c #3C3544",
"u  c #3D334B",
"i  c #393446",
"p  c #3A2C55",
"a  c #3D2D5D",
"s  c #382854",
"d  c #3F3052",
"f  c #341C69",
"g  c #3C2666",
"h  c #3E3060",
"j  c #7E1F40",
"k  c #423B4A",
"l  c #412E55",
"z  c #473A5A",
"x  c #4E2951",
"c  c #6E3157",
"v  c #472F65",
"b  c #443463",
"n  c #4A3A64",
"m  c #49336A",
"M  c #4D3D6A",
"N  c #483863",
"B  c #513C6B",
"V  c #422775",
"C  c #4E327B",
"Z  c #543D76",
"A  c #53387D",
"S  c #4C4355",
"D  c #4E435C",
"F  c #4A4A57",
"G  c #52495A",
"H  c #51475E",
"J  c #47404E",
"K  c #7C4251",
"L  c #5A655F",
"P  c #4F446B",
"I  c #53436D",
"U  c #584C67",
"Y  c #5D526B",
"T  c #5B5B6C",
"R  c #585367",
"E  c #554472",
"W  c #5C4476",
"Q  c #5B4A73",
"!  c #5C457D",
"~  c #5C4C7A",
"^  c #564976",
"/  c #5E517B",
"(  c #5F5874",
")  c #62576D",
"_  c #694E75",
"`  c #625474",
"'  c #655C74",
"]  c #63547B",
"[  c #6B5B7D",
"{  c #6A5C77",
"}  c #695771",
"|  c #646675",
" . c #6B647C",
".. c #70647C",
"X. c #6A796D",
"o. c #8A233F",
"O. c #882341",
"+. c #873855",
"@. c #9D304A",
"#. c #B13C52",
"$. c #97455E",
"%. c #A7425B",
"&. c #B94155",
"*. c #AF5A71",
"=. c #AC6378",
"-. c #C0495C",
";. c #CF5666",
":. c #D15767",
">. c #4E3281",
",. c #5C3F84",
"<. c #563787",
"1. c #643F9C",
"2. c #5E4185",
"3. c #624C85",
"4. c #63448C",
"5. c #67498B",
"6. c #6C4D8C",
"7. c #614387",
"8. c #6C5D83",
"9. c #675787",
"0. c #6C4C93",
"q. c #6D4A9B",
"w. c #684695",
"e. c #725293",
"r. c #735499",
"t. c #79569D",
"y. c #6F568F",
"u. c #6E6883",
"i. c #736383",
"p. c #766A83",
"a. c #796A87",
"s. c #75658B",
"d. c #7A6B8C",
"f. c #76678B",
"g. c #77778A",
"h. c #7C6D92",
"j. c #776697",
"k. c #7D7294",
"l. c #7D7D93",
"z. c #7B759B",
"x. c #7A55A3",
"c. c #7954AA",
"v. c #7E58B1",
"b. c #714DA8",
"n. c #7A67A0",
"m. c #827495",
"M. c #867699",
"N. c #857A9C",
"B. c #8B7C9C",
"V. c #837D95",
"C. c #986C85",
"Z. c #825BAC",
"A. c #8156B5",
"S. c #865ABC",
"D. c #865AB9",
"F. c #8D7EA1",
"G. c #867AA3",
"H. c #8E6AB6",
"J. c #8A66B5",
"K. c #936EBC",
"L. c #8E6FB3",
"P. c #DC798A",
"I. c #CC6D82",
"U. c #8D5EC3",
"Y. c #8658C0",
"T. c #9161CA",
"R. c #9669CC",
"E. c #996DCC",
"W. c #9268C6",
"Q. c #9B74CB",
"!. c #9B76C7",
"~. c #9E72D2",
"^. c #9363CA",
"/. c #A076D3",
"(. c #A57CD6",
"). c #A67CD8",
"_. c #83839B",
"`. c #87829B",
"'. c #95839D",
"]. c #A58A98",
"[. c #8C83A4",
"{. c #8A84AA",
"}. c #8E8AAC",
"|. c #8B8BA3",
" X c #9485A4",
".X c #958CAC",
"XX c #9A8AAA",
"oX c #9788A7",
"OX c #9391AC",
"+X c #9A91AC",
"@X c #938EB2",
"#X c #9888BE",
"$X c #9C92B3",
"%X c #9D9ABC",
"&X c #9A97B9",
"*X c #A39BAB",
"=X c #B999A6",
"-X c #A195B5",
";X c #A59DBD",
":X c #A99FBF",
">X c #ACA8B8",
",X c #DD8495",
"<X c #E18999",
"1X c #E0808F",
"2X c #C6ADBA",
"3X c #BCC1BF",
"4X c #9A8BC1",
"5X c #A49AC3",
"6X c #A980D9",
"7X c #A780D7",
"8X c #A5A2C3",
"9X c #AAA4C4",
"0X c #ADAACA",
"qX c #A8A6C8",
"wX c #B1AECE",
"eX c #B5B3D3",
"rX c #B9B7D6",
"tX c #B9B9D9",
"yX c #B2B0CF",
"uX c #BFBFE0",
"iX c #BFC0DF",
"pX c #CDC8D6",
"aX c #DCD9E0",
"sX c None",
/* pixels */
"sXsXsXsXsXsXsXsXsXsXsXsXsXsXsXsXsXsXsXsXsXsXsXsXsXsXsXsXsXsXsXsXsXsXsXsXsXsXsXsXsXsXk.sXsXsXsXsXsXsXsXsXsXsXsXsXsXsXsXsXsXsXsXsX",
"sXsXsXsXsXsXsXsXsXsXsXsXsXsXsXsXsXsXsXsXsXsXsXsXsXsXsXsXsXsXsXsXsXsXsXsXsXsXsXsX$X;XeX}.] sXsXsXsXsXsXsXsXsXsXsXsXsXsXsXsXsXsXsX",
"sXsXsXsXsXsXsXsXsXsXsXsXsXsXsXsXsXsXsXsXsXsXsXsXsXsXsXsXsXsXsXsXsXsXsXsXsXsX$X:X@X{.{.m sXsXsXsXsXsXsXsXsXsXsXsXsXsXsXsXsXsXsXsX",
"sXsXsXsXsXsXsXsXsXsXsXsXsXsXsXsXsXsXsXsXsXsXsXsXsXsXsXsXsXsXsXsXsXsXsXsXsX-X.Xz.0.4.w.sXsXsXsXsXsXsXsXsXsXsXsXsXsXsXsXsXsXsXsXsX",
"sXsXsXsXsXsXsXsXsXsXsXsXsXsXsXsXsXsXsXsXsXsXsXsXsXsXsXsXsXsXsXsXsXsXsXoXXX0X4Xw.S.1.<.sXsXsXsXsXsXsXsXsXsXsXsXsXsXsXsXsXsXsXsXsX",
"sXsXsXsXsXsXsX[ sXsXsXsXsXsXsXsXsXsXsXsXsXsXsXsXsXsXsXsXsXsXsXsXsXsXXXqX;X9.x.T.T.sXsXsXsXsXsXsXsXsXsXsXsXsXsXsXsXsXsXsXsXsXsXsX",
"sXsXsXsXsXsXsXP a.f.sXsXsXsXsXsXsXsXsXsXsXsXsXsXsXsXsXsXsXsXsXsXsX+X0XqX2.v.Y.T.U.sXsXsXsXsXsXsXsXsXsXsXsXsXsXsXsXsXsXsXsXsXsXsX",
"sXsXsXsXsXsXsXsX;X@Xd.sXsXsXsXsXsXsXsXsXsXsXsXsXsXsXsXsXsXsXsXsXyXrXqX~ 2.T.T.R.>.sXsXsXsXsXsXsXsXsXsXsXsXsXsXsXsXsXsXsXsXsXsXsX",
"sXsXsXsXsXsXsXsXm / 0X&Xk.sXsXsXsXsXsXsXsXsXsXsXsXsXsXsXsXsXsX+X0X5X9.Y.U.T.T.Y.q sXsXsXsXsXsXsXsXsXsXsXsXsXsXsXsXsXsXsXsXsXsXsX",
"sXsXsXsXsXsXsXsX6.2.y.;XtXsXsXsXsXsXsXsXsXsXsXsXsXsXsXsXsXsX$X0XpXn.Y.U.T.T.T.C sXsXsXsXsXsXsXsXsXsXsXsXsXsXsXsXsXsXsXsXsXsXsXsX",
"sXsXsXsXsXsXsXsXt.J.v.5..Xk.sXsXsXsXsXsXsXsXsXsXsXsXsXsXsXsX;X;Xz.W.T.U.T.T.~.w.sXsXsXsXsXsXsXsXsXsXsXsXsXsXsXsXsXsXsXsXsXsXsXsX",
"sXsXsXsXsXsXsXsXsXx.T.v.G.$Xa.sXsXsXsXsXsXsXsXsXsXsXsXsXsXm.yX4Xw.v.T.T.T.~.6Xv.sXsXsXsXsXsXsXsXsXsXsXsXsXsXsXsXsXsXsXsXsXsXsXsX",
"sXsXsXsXsXsXsXsXsXr.D.T.6..X%Xi.sXsXsXsXsXsXsXsXsXsXsXsXsXm.wXK.T.U.T.T.~.).).m sXsXsXsXsXsXsXsXsXsXsXsXsXsXsXsXsXsXsXsXsXsXsXsX",
"sXsXsXsXsXsXsXsXsXsXv.T.A.!  Xi.sXsXsXsXsXsXsXsXsXsXsXsXsXqXm.0.T.T.T.T.6X6X6X<.sXsXsXsXsXsXsXsXsXsXsXsXsXsXsXsXsXsXsXsXsXsXsXsX",
"sXsXsXsXsXsXsXsXsXx.T.T.4.m '.N.i.sXsXsXsXsXsXsXsXsXsXsXd.;X3.S.T.T.U.^.7X6X).m sXsXsXsXsXsXsXsXsXsXsXsXsXsXsXsXsXsXsXsXsXsXsXsX",
"sXsXsXsXsXsXsXsXsXx.E.~.U.Z f.` sXsXsXsXsXsXsXsXsXsXsXsXf.5Xs.q.T.T.T.).6X6X6X4.sXsXsXsXsXsXsXsXsXsXsXsXsXsXsXsXsXsXsXsXsXsXsXsX",
"sXsXsXsXsXsXsXsXsXsXJ.6XE.l 8.9.^ sXsXsXsXsXsXsXsXsXsXsXm.M.Z U.T.T.E.).6X6X6XN   sXsXsXsXsXsXsXsXsXsXsXsXsXsXsXsXsXsXsXsXsXsXsX",
"sXsXsXsXsXsXsXsXsXsXJ.6XR.* | tX.XQ sXsXsXsXsXsXsX| _.sXa.R ] ! T.T.(.6X6X6X6X! O sXsXsXsXsXsXsXsXsXsXsXsXsXsXsXsXsXsXsXsXsXsXsX",
"sXsXsXsXsXsXsXsXsXsXZ.(./.,.> T ;X8.a sXsXsXsXsX-XeXrXz 2 l.|.s v.T.).6X6X6X6XW sXsXsXsXsXsXsXsXsXsXsXsXsXsXsXsXsXsXsXsXsXsXsXsX",
"sXsXsXsXsXsXsXsXsXsXJ.~ B 5X@Xs...H m.E sXsXsXsX2 _.8X^ ) R 5X/ w.~.).6X6X6X6XK.1 sXsXsXsXsXsXsXsXsXsXsXsXsXsXsXsXsXsXsXsXsXsXsX",
"sXsXsXsXsXsXsXsXsXsXH.l u.XXm.i.Q .XT sXsXsXsXsXsXn E h.oX' e w.U./.).).6X6X7X6Xu sXsXsXsXsXsXsXsXsXsXsXsXsXsXsXsXsXsXsXsXsXsXsX",
"sXsXsXsXsXsXsXsXsXsXH.M g.u ` ` S T F sXsXsXsXsXsXE M N.XX Xu.4.T./.6X6X6X6X6X6X!.> sXsXsXsXsXsXsXsXsXsXsXsXsXsXsXsXsXsXsXsXsXsX",
"sXsXsXsXsXsXsXsXsXsXK.7Xn x.Z u f.1 sXsXsXsXsXsXsX@X.XN.XX Xs.q.T./.6X6X6X).6X7X7X: sXsXsXsXsXsXsXsXsXsXsXsXsXsXsXsXsXsXsXsXsXsX",
"sXsXsXsXsXsXsXsXsXZ.6X6X6X6X).v.] G sXsXsXsXsXsXsX> 8.M h. X3.v.T./.6X6X6X7X6X6X7XP sXsXsXsXsXsXsXsXsXsXsXsXsXsXsXsXsXsXsXsXsXsX",
"sXsXsXsXsXsXsXsX!.K.6X6X6X/.E.4.] G sXsXsXsXsXsXsXsXsXa M 8X9.c.T./.6X6X6X6X6X7X6X6X<.  sXsXsXsXsXsXsXsXsXsXsXsXsXsXsXsXsXsXsXsX",
"sXsXsXsXsXsXsXt.7X6X6X6X).T.5.8.] z sXsXsXsXsXsXsXsXsXsX8.0Xj.c.T./.6X).6X6X6X6X6X6XQ.2.sXsXsXsXsXsXsXsXsXsXsXsXsXsXsXsXsXsXsXsX",
"sXsXsXsXsXsX6.Z r.6X7X6XE.U.E a.e ] sXsXsXsXsXsXsXsXsXsXd.tX_.v T./.).6X6X6X7X6X6X6X).).b.sXsXsXsXsXsXsXsXsXsXsXsXsXsXsXsXsXsXsX",
"sXsXsXsXsXe.6.E {.r.6X7XR.U.E ... sXsX. sXsXsXsXsXsXsXsXd.eXg.s T.R.).6X7X6X6X(.~.R.E.>.A p sXsXsXsXsXsXsXsXsXsXsXsXsXsXsXsXsXsX",
"sXsXsXsXf J.Q.! &X9.~.T.T.S.Z h.p sXo l.^ sXsXsXsXsXsXsXsXB.}.,.T./.6X6X).!.Q.q.g ,.g 9 X o sXsXsXsXsXsXsXsXsXsXsXsXsXsXsXsXsXsX",
"sXsXsXsXC 4.H.^ eX{.2.U.t.3.^ s.s @ g.eX^ sXsXsXsXsXsXsXsX[.&X3.D./.6XW.Z.V V 2.4.> O X sXsXsXsXsXsXsXsXsXsXsXsXsXsXsXsXsXsXsXsX",
"sXsXsXsXsXf 5.^ tX&X3.e.e.M B.] e g.tX[.M sXsXsXsXsXsXsXd.8XiX| v R.E.C C e.r.W q 0 sXsXsXsXsXsXsXsXsXsXsXsXsXsXsXsXsXsXsXsXsXsX",
"sXsXsXsXsXsXC ^ eXuXu.> B ^ s.9.G.tXeX/ a sXsXsXsXsXsXsXsXk.qX] q.b.1.0.e.5.A r   sXsXsXsXsXsXsXsXsXsXsXsXsXsXsXsXsXsXsXsXsXsXsX",
"sXsXsXsXsXsXsXe 0X0XOX| k.y : f.XXwXG.P sXsXsXsXsXsXsXsXsXm.qX] q.1.C 6.e.1.sXsXsXsXsXsXsXsXsXsXsXsXsXsXsXsXsXsXsXsXsXsXsXsXsXsX",
"sXsXsXsXsXsXsX@ [.wXtXuXqX_.l.XXXX$X8.sXsXsXsXsXsXsXsXsXsXk.uX| 9 q.e.6.v : sXsXsXsXsXsXsXsXsXsXsXsXsXsXsXsXsXsXsXsXsXsXsXsXsXsX",
"sXsXsXsXsXsX# |.0XtXtXtXyXtXtX0XXXf.m sXsXsXsXsXsXsXsXsXsX0XtX .q e.6.5.sXsXsXsXsXsXsXsXsXsXsXsXsXsXsXsXsXsXsXsXsXsXsXsXsXsXsXsX",
"sXsXsXsXsX0 @XtXtXrXeXrXtX0XyX0XXX8.sXsXsXsXsXsXsXsXsXsXsX[.;Xs.6.6.v + sXsXsXsXsXsXsXsXsXsXsXsXsXsXsXsXsXsXsXsXsXsXsXsXsXsXsXsX",
"sXsXsXsXsXX OXtXtXeX8XwX8Xf.d.XXXXN.E sXsXsXsXsXsXsXsXsXN.&X1 l r.5.* sXsXsXsXsXsXsXsXsXsXsXsXsXsXsXsXsXsXsXsXsXsXsXsXsXsXsXsXsX",
"sXsXsXsXsX= `.tXeX;X$XrXoXaXoXoXXXXXY sXsXsXsXsXsXsXsXa.eX&Xu e.W g sXsXsXsXsXsXsXsXsXsXsXsXsXsXsXsXsXsXsXsXsXsXsXsXsXsXsXsXsXsX",
"sXB.8X[.{.$XyXtX%X8.P X.3XpXB. XF.XXy - sXsXM ] 9.sXsXsXyXp.e.r.l sXsXsXsXsXsXsXsXsXsXsXsXsXsXsXsXsXsXsXsXsXsXsXsXsXsXsXsXsXsXsX",
"M N.tXtXtXtXtXtX0XG. .L g. XoXB.m.XXy u M [ h.XX X3 R .XR l e.B sXsXsXsXsXsXsXsXsXsXsXsXsXsXsXsXsXsXsXsXsXsXsXsXsXsXsXsXsXsXsXsX",
": m.tXeXtXrXtXtXtXeX-XXXXXoXoXN.] XX4 S B I oXXXk.p }.eX@ t e.m sXsXsXsXsXsXsXsXsXsXsXsXsXsXsXsXsXsXsXsXsXsXsXsXsXsXsXsXsXsXsXsX",
"# m.$X{.~ h.0XeX$XXX'. Xk ; ; 4 F.XXk } B.m.a. X0X9.@XtXp.E r.l sXsXsXsXsXsXsXsXsXsXsXsXsXsXsXsXsXsXsXsXsXsXsXsXsXsXsXsXsXsXsXsX",
"sX2 m.m.m.8XeX+Xm.) @ + w s q = -XU G '.XXXX0XeXtXwXeXyXu 6.2.f sXsXsXsXsXsXsXsXsXsXsXsXsXsXsXsXsXsXsXsXsXsXsXsXsXsXsXsXsXsXsXsX",
"sXI B.XX;XyXV. .& 5 O.6 x p s 2 F.k ) XXXX-XeXrXtXtXtXeX8XQ 5.A g sXsXsXsXsXsXsXsXsXsXsXsXsXsXsXsXsXsXsXsXsXsXsXsXsXsXsXsXsXsXsX",
"sXsXQ  XXXp.$ % o.@.O.O.5 > t ] ` + 8.'.XXeXtXtXeXtXtXtXeXXX9.h.8.N sXsXsXsXsXsXsXsXsXsXsXsXsXsXsXsXsXsXsXsXsXsXsXsXsXsXsXsXsXsX",
"sXsXsXz m.< sXsXO.O.o.6 6 , @ B.U sXh m.:XeXtXrXtXtXtXtXtXtXeX Xm.] sXsXsXsXsXsXsXsXsXsXsXsXsXsXsXsXsXsXsXsXsXsXsXsXsXsXa.5XN...",
"sXsXsXsX3 < sXsXO.&.-.%.#.O.) m.a sXsXz 8XtXtXtXtXtXtXtXtXeX5XN.v sXsXsXsXsXsXsXsXsXsXsXsXsXsXsXsXsXsXsXsXsXsXsXm z.h.m.+XN./ sX",
"sXsXsXsXsXsXsXx #.P.P.P.;.c B.~ sXsXsX  OXtXwX8XtXeXtXtXtXwXXX X] sXsXsXsXsXsXsXsXsXsXsXsXsXsXsXsXsXsXsXsXsXsX[..X8XwX5XqXQ sXsX",
"sXsXsXsXsXsXi.].;.<X,X<X%.]. Xb sXsXsX{ m.wX;XyXtXtXtXeXtXwXoXXX] sXsXsXsXsXsXsXsXsXsXsXsXsXsXsXsXsXsXsXsXsXsXm.N.XX0XXXm.b sXsX",
"sXsXsXsXsXsX` $.P.,X,X:.+._ m.b sXsXX l.N.0X-XtXtXtXtXtXtXwXXX X] Q P b sXsXsXsXsXsXsXsXsXsXsXsXsXsXsXsXsXsXsX..F.XX+X X_ sXsXsX",
"sXsXsXsXa.p.2X;.1X=.*.%.=XXX( b sXsX  l.;XeXtXtXtXtXtXtXrXXXXXs.] [ 8.[ M v sXsXsXsXsXsXsXsXsXsXsXsXsXsXsXsXi.f. XF.XX)   sXsXsX",
"sXsXsXsX>X*X+.P.I.=.=X+._ N.@ sXsXsX+ _.tXtXtXtXtXtXeXtXqXXXXX8.s.8.D [ [ n N l sXsXsXsXsXsXsXsXsXsXsXsXsXa.F.XXM.z F.k   sXsXsX",
"sXsXsXsX*X*X7 8 K C.pXXX-X' . sXsXsXsX@X+X9X0XtXtXtXtX0XXXXXXXf.f.XXG ` z i.` I b B I sXsXsXsXsXsXsX..m.m.B.m.s.{ 3 ..  sXsXsXsX",
"sXsXsX  R h.' T  ..X-X-Xf.* sXsXsXsXsXsX* z XX:X;X5X;XXXXX XoX'.F.XXXXp.# i.i.i.` 8.m.f.B.f.f.8.N.m.B.XXXXB.E a sXsXy sXsXsXsXsX",
"sXsXsXsXR -X:X:X9X-XXXXXi sXsXsXsXsXsXsXY Y ] m.XX X XXXXX XXXXXXXoXoXF.1 y i.i...i. XoXXXXXXXXXXXXXoXXXm._ sXsXsXsXsXsXsXsXsXsX",
"sXsXsXsX; .. X'. X Xf.e sXsXsXsXsXsXsXb B.XXm.[ I h.XX Xs.]  XoXoXoXXXF.s ; i.[ i.M.oXoXXXoXoXXXoXXXoXF.[ sXsXsXsXsXsXsXsXsXsXsX",
"sXsXsXsXsXN ; # # # = sXsXsXsXsXsXsXa f.XXXXoXm.{ E M M n r k `.B.B.F.f.{ I Q ..i.s. XoXoXXXXXXX X[.s.sXsXsXsXsXsXsXsXsXsXsXsXsX",
"sXsXsXsXsXsXsXsXsXsXsXsXsXsXsXsXsXsXa h.XXXX Xm.8.I sXsXsXsXsX. % @ z [ i.` W [ ` [ F.XXXX XB.M.f.m z sXsXsXsXsXsXsXsXsXsXsXsXsX",
"sXsXsXsXsXsXsXsXsXsXsXsXsXsXsXsXsXsXsX'  XXX{ ~ Q sXsXsXsXsXsXsXsXz ] [ ` [ Q I < k ` ..m.d.E b sXsXsXsXsXsXsXsXsXsXsXsXsXsXsXsX",
"sXsXsXsXsXsXsXsXsXsXsXsXsXsXsXsXsXsXsXsXS G e { Q sXsXsXsXsXsXsXsXsX^ [ v I i.n sXsXr o l sXsXsXsXsXsXsXsXsXsXsXsXsXsXsXsXsXsXsX",
"sXsXsXsXsXsXsXsXsXsXsXsXsXsXsXsXsXsXsXsX= e n i i.u sXsXsXsXsXsXsXsX> i.b E h.z sXsXsXsXsXsXsXsXsXsXsXsXsXsXsXsXsXsXsXsXsXsXsXsX",
"sXsXsXsXsXsXsXsXsXsXsXsXsXsXsXsXsXsXsXsXm { p o ) k sXsXsXsXsXsXsXsXX a.= sXH S sXsXsXsXsXsXsXsXsXsXsXsXsXsXsXsXsXsXsXsXsXsXsXsX",
"sXsXsXsXsXsXsXsXsXsXsXsXsXsXsXsXsXsXsXsXm d.m sX$ @ sXsXsXsXsXsXsXsXsX;   sX$ @ sXsXsXsXsXsXsXsXsXsXsXsXsXsXsXsXsXsXsXsXsXsXsXsX",
"sXsXsXsXsXsXsXsXsXsXsXsXsXsXsXsXsXsXsXsXsXM sXsXsXsXsXsXsXsXsXsXsXsXsXsXsXsXsXsXsXsXsXsXsXsXsXsXsXsXsXsXsXsXsXsXsXsXsXsXsXsXsXsX"
};
