/* XPM */
static char *result[] = {
/* columns rows colors chars-per-pixel */
"64 64 231 2 ",
"   c #010101",
".  c #0C0B0D",
"X  c #070608",
"o  c #0F0E11",
"O  c #130E1A",
"+  c #141218",
"@  c #19171E",
"#  c #390D15",
"$  c #160E25",
"%  c #1D1B23",
"&  c #1C132B",
"*  c #181223",
"=  c #211D26",
"-  c #261937",
";  c #3F1F39",
":  c #2A262E",
">  c #27252C",
",  c #2B243B",
"<  c #2C2934",
"1  c #312B3A",
"2  c #36313B",
"3  c #431326",
"4  c #4D1831",
"5  c #7E1F3D",
"6  c #69182F",
"7  c #56232C",
"8  c #1C0D45",
"9  c #281A44",
"0  c #271357",
"q  c #2D2145",
"w  c #322544",
"e  c #31234B",
"r  c #372B49",
"t  c #3C3544",
"y  c #393745",
"u  c #3B2C53",
"i  c #3D2D5E",
"p  c #38235B",
"a  c #3C3252",
"s  c #361D6D",
"d  c #3A2267",
"f  c #3F2570",
"g  c #423C4A",
"h  c #433847",
"j  c #443B54",
"k  c #42355A",
"l  c #4C3D5D",
"z  c #463957",
"x  c #4A2A4A",
"c  c #7B2446",
"v  c #673C53",
"b  c #422C66",
"n  c #433262",
"m  c #493564",
"M  c #4B3B65",
"N  c #4C3D69",
"B  c #473766",
"V  c #513A69",
"C  c #412674",
"Z  c #4C3576",
"A  c #563C7C",
"S  c #523974",
"D  c #7D3968",
"F  c #45424F",
"G  c #4B4454",
"H  c #4E435B",
"J  c #494956",
"K  c #524A5C",
"L  c #50455C",
"P  c #554A65",
"I  c #584E63",
"U  c #53436D",
"Y  c #5A4D6D",
"T  c #544A68",
"R  c #5A5165",
"E  c #5D526C",
"W  c #585666",
"Q  c #544571",
"!  c #5A4574",
"~  c #5B4B73",
"^  c #5D4E7A",
"/  c #584978",
"(  c #5F537A",
")  c #62576D",
"_  c #61487E",
"`  c #625474",
"'  c #665B72",
"]  c #63537B",
"[  c #6C5C7D",
"{  c #695C77",
"}  c #6B446B",
"|  c #6C657D",
" . c #71657D",
".. c #6E7576",
"X. c #506752",
"o. c #82203F",
"O. c #801F40",
"+. c #9A2942",
"@. c #873759",
"#. c #912F4C",
"$. c #A53950",
"%. c #AD3951",
"&. c #9A4662",
"*. c #AD566D",
"=. c #856E7D",
"-. c #AC6176",
";. c #CB5363",
":. c #C96274",
">. c #D66676",
",. c #72906E",
"<. c #563886",
"1. c #5A3991",
"2. c #4B2C82",
"3. c #5E4184",
"4. c #5D4C80",
"5. c #62438B",
"6. c #67488A",
"7. c #6C4C8D",
"8. c #654784",
"9. c #665583",
"0. c #655A84",
"q. c #6C5D83",
"w. c #6E528C",
"e. c #6B5C89",
"r. c #715B8A",
"t. c #6B4D94",
"y. c #6E4B9D",
"u. c #674694",
"i. c #704D9E",
"p. c #6E5695",
"a. c #735395",
"s. c #76579A",
"d. c #744B88",
"f. c #6D6685",
"g. c #716182",
"h. c #756982",
"j. c #796D86",
"k. c #73648A",
"l. c #7A6B8C",
"z. c #706B8D",
"x. c #7B738C",
"c. c #78778C",
"v. c #7C6C92",
"b. c #776795",
"n. c #7D7292",
"m. c #7D739C",
"M. c #6D6394",
"N. c #734DA6",
"B. c #7B5BA3",
"V. c #7B52AC",
"C. c #7856A8",
"Z. c #7E55B4",
"A. c #81748E",
"S. c #827D8F",
"D. c #827395",
"F. c #857699",
"G. c #847A9C",
"H. c #8B7B9C",
"J. c #887A96",
"K. c #967C90",
"L. c #A87887",
"P. c #815BAA",
"I. c #8256B5",
"U. c #895CBD",
"Y. c #835AB7",
"T. c #8462AA",
"R. c #847CA3",
"E. c #8C7EA1",
"W. c #8673A6",
"Q. c #8A65B9",
"!. c #926EBC",
"~. c #907FA0",
"^. c #D77586",
"/. c #CA6F83",
"(. c #8D5EC3",
"). c #8F5FC8",
"_. c #905FC8",
"`. c #8F62C4",
"'. c #946DC5",
"]. c #9261CA",
"[. c #9769CC",
"{. c #996CCD",
"}. c #9974C5",
"|. c #9A73CA",
" X c #9F78CC",
".X c #9E73D1",
"XX c #A57DD5",
"oX c #A47AD6",
"OX c #A17ACF",
"+X c #8F809E",
"@X c #848197",
"#X c #AA8B9B",
"$X c #8D85A6",
"%X c #8A84AA",
"&X c #8C87A9",
"*X c #9484A4",
"=X c #958BAB",
"-X c #9A8AAA",
";X c #9788A7",
":X c #9D92AC",
">X c #9589B3",
",X c #9C92B2",
"<X c #9E99BA",
"1X c #9A96B7",
"2X c #A593A8",
"3X c #A195B5",
"4X c #A39CBC",
"5X c #A398B7",
"6X c #A990AB",
"7X c #A8A4BB",
"8X c #BDA9B2",
"9X c #DF8292",
"0X c #E38C9C",
"qX c #C39CA8",
"wX c #C1CEBF",
"eX c #A980D9",
"rX c #A780D6",
"tX c #A594C7",
"yX c #A5A3C2",
"uX c #A9A4C4",
"iX c #A8A8C5",
"pX c #ADABCB",
"aX c #ACA7C9",
"sX c #B1ACCD",
"dX c #B5B4D4",
"fX c #B9B9D9",
"gX c #B8B7D7",
"hX c #B0AED1",
"jX c #D3CEDA",
"kX c #C0C1E1",
"lX c None",
/* pixels */
"lXlXlXlXlXlXlXlXlXlXlXlXlXlXlXlXlXlXlXlXlXlXlXlXlXlXlXlXlXlXlXlXlXlXlXlXlXlXlXlXlXlXlXlXlXlXlXlXlXlXlXlXlXlXlXlXlXlXlXlXlXlXlXlX",
"lXlXlXlXlXlXlXlXlXlXlXlXlXlXlXlXlXlXlXlXlXlXlXlXlXlXlXlXlXlXlXlXlXlXlXlXlXlXlXlXlXlXlXlXlXlXlXlXlXlXlXlXlXlXlXlXlXlXlXlXlXlXlXlX",
"lXlXlXlXlXlXlXlXlXlXlXlXlXlXlXlXlXlX0.B lXlXlXlXlXlXlXlXlXlXlXlXlXlXlXlXlXlXlXlXlXlXlXlXlXlXlXlXlXlXlXlXlXlXlXlXlXlXlXlXlXlXlXlX",
"lXlXlXlXlXlXlXlXlXlXlXlXlXlXlXlXlXlXm./ lXlXlXlXlXlXlXlXlXlXlXlXlXlXlXlXlXlXlXlXlXlXlXlXlXlXlXlXlXlXlXlXlXlXlXlXlXlXlXlXlXlXlXlX",
"lXlXlXlXlXlXlXlXlXlXlXlXlXlXlXlXlXlXR.^ lXlXlXlXlXlXlXq lXlXlXlXlXlXlXlXlXlXlXlXlXlXlXlXlXlXlXlXlXlXlXlXlXlXlXlXlXlXlXlXlXlXlXlX",
"lXlXlXlXlXlXlXlXlXlXlXlXlXlXlXlXlXlX%XR.lXlXlXlXlXlXg ~ lXlXlXlXlXlXlXlXlXlXlXlXlXlXlXlXlXlXlXlXlXlXlXlXlXlXlXlXlXlXlXlXlXlXlXlX",
"lXlXlXlXlXlXlXlXlXlXlXlXlXlXlXlXlXlX&X&XlXlXlXlXlXlXc.M.lXlXlXlXlXlXlXlXlXlXlXlXlXlXlXlXlXlXlXlXlXlXlXlXlXlXlXlXlXlXlXlXlXlXlXlX",
"lXlXn.$X,XH.D.D.lXlXlXlXlXlXlXlXlXlX&X<XlXlXlXlXlXy aX0.lXlXlXlXlXlXlXlXlXlXlXlXlXlXlXlXlXlXlXlXlXlXlXlXlXlXlXlXlXlXlXlXlXlXlXlX",
"lXq.&XdX4X5XuX,Xg.g.lXn lXlXlXlXlXlX&XgX0.lXlXlXlXc.aX~ lXlXlXlXlXlXlXlXlXlXlXlXlXlXlXlX;XlXlXlXlXlXlXlXlXlXlXlXlXlXlXlXlXlXlXlX",
"g.R.R.m.p.Q n.v.H.g.B i ~ ^ lXlXlXlX&XfXy $ lXlX( pX=Xn lXlXlXlXlXlXlXlXlXlXlXlXlXlXlXlX,X7X1 lXlXlXlXlXlXlXlXlXlXlXlXlXlXlXlXlX",
"` 9.w.C.V.u.s.! ] Q z.r.D.n.lXlXlXlXn.sXc.f.z.d R.fXm.i lXlXlXlXlXlXlXlXlXlXlXlXlXlXlXlXW 4Xy lXlXlXlX,X-X;X;XlXlXlXlXlXlXlXlXlX",
"lXn / U.(.].U.<.n / uX:XA.<XJ lXlXlXc.pXkXgXY l -XsXk.lXlXlXlXlXlXlXlXlXlXlXlXlXlXlXlXlX, 7XF lXl.lXD.yX4X3X<XlXlXlXlXlXlXlXlXlX",
"lXlXw.lXI._._._./ f.iX$XG 4XyXlXO < <XgXfXuX< I ,X,XQ lXlXlXlXlXlXlXlXlXlXlXlXlXlXlXn.Q M yXJ ` H.sX3XpXhXhX7XyX,X-XlXlXlXlXlXlX",
"lXlXlXlXa.P._.].y.@ % ' k.M > lXM.7XdXgXfXdX,XH.-Xr.lXlXlXlXlXlXlXlXlXlXlXlXlXlXlXlXr m.U b.M n.;X,XF.4.B.%Xm.m.dXuX;XlXlXlXlXlX",
"lXlXlXlXlXs.U.oX[.- , J.l.~ y lXz.kXfXfXdXfXfX4XF.U lXlXlXlXlXlXlXlXlXlXlXlXlXlXlXlXa b.] k.& j $Xv.B.N.Z.Q.s.p.>X=XuX-XlXlXlXlX",
"lXlXlXlXlXlXC. XXXt.^ 3Xh.l.) X W fXgXdXgXuXpXuXv.lXlXlXlXlXlXlXlXlXlXlXlXlXlXlXlXlXB [ G.g.y a b.s.(.].].].V.N.b.M.yX=X5XlXlXlX",
"lXlXlXlXlXlXw.T.XXXX9.J.[ v.q.1 K dXfXuXsX%X1X4Xv.lXlXlXlXlXlXlXlXlXlXlXlXlXlXlXlXlXlX~ ;X' $Xm.t._._._._._._._.i.i.m.m.pX,XlXlX",
"lXlXlXlXlXlXlXlX}.OXP W u t.r.l.~ pXdXyXyX=X-X;XJ.U lXlXlXlXlXlXlXlXlXlXlXlXlXlXlXlXlX^ ;X$X7XR i._.]._._._._.`.(.(.t.y.<XyX;XlX",
"lXlXlXlXlXlXlXlXP.{.< @ t.!.J.] ~ aXpX,X&XjX5X;X*X^ lXlXlXlXlXlXlXlXlXlXlXlXlXlXlXlXlXE.-X-X=XM V.]._._.(._._._.).].I.Y.0.%XF.lX",
"lXlXlXlXlXlXlXlXa.Q.V l {.rX4XG.G.dXdXn.@XwX2X;X-XP lXlXlXlXlXlXlXlXlXlXlXlXlXlXlXlXb.uXD.D.k.S U.]._.].[.[._._.).].].].5.9.=XlX",
"lXlXlXlXlXlXlXlXlXa.}.eXXX3XgXfXfXfXsX] ..,.@X;X-Xt lXlXlXlXlXlXlXlXlXlXlXlXlXlXlXl.<X<X_ u.5.y.].].[.{.oX.X].[.(.I.I.Z.N.Z >XlX",
"lXlXlXlXlXlXlXlXlXlXP.XXoXW.dXfXgXfXsXQ : X.l.;X;Xh lXlXlXlXlXlXlXlXlXlXlXlXlXlXlXyXhX^ N.(.`.[.[..XXXXXXXXXoXoXZ.b 1.s 2.1.Q lX",
"lXlXlXlXlXlXlXlXlXlXa.!.s.1XfXfXfXgXgX>Xh.S.+X;XJ.h.lXlXlXlXlXlXlXlXlXlXlXlXlXlXlXuX%XN.(._.{..XoXXXeXeXXXeXeXP.p lXlXlXlXlXlXlX",
"lXlXlXlXlXlXlXlXlXlXs.!.m 4XfX&XyXfXfX4X-X:X-X~.H.{ j lXlXlXlXlXlXlXlXlXlXlXlXlXG.gXf.V.].].oXXXXXeXrXeXeXeXP.Z lXlXlXlXlXlXlXlX",
"lXlXlXlXlXlXlXlXlXlXlX'.t ,XaXq.1XdXsX-X*X .*XA.~.F { lXlXQ N lXlXlXlXlXlXlXlXn.1X<XW Z.[..XoXeXeXeXeXeXXXQ.b 8 lXlXlXlXlXlXlXlX",
"lXlXlXlXlXlXlXlXlXlXlXT.l J.R.R.dXsX-X~.l.O  .q.H.l { lXlXF.q.lXlXlXlXlXlXlXlX4XdXQ S [..XXXeXeXrXrXeXXX'.e lXlXlXlXlXlXlXlXlXlX",
"lXlXlXlXlXlXlXlXlXlXlX!.9.I F.4XaX:X~.: = e = I -XF g.V n F.h.+ lXlXlXlXlXlXuXgX>Xy.I.[.XXXXeXeXeXrXeX}.p lXlXlXlXlXlXlXlXlXlXlX",
"lXlXlXlXlXlXlXlXlXlXlX!.B.' *X3Xj. .t 3 3 m & K A.I D.U q.~.q.9 lXlX[ { n.7XgXpX4.(.].oXXXXXeXeXeXeX'.B.& lXlXlXlXlXlXlXlXlXlXlX",
"lXlXlXlXlXlXlXlXlXlXlX}.!.b.-X~.j h # o.c u e I { ) ~.~ F.-XF.0.0.&XH.H.>XkXiX$X3.].{.XXeXeXrXeXeXeXZ./ lXlXlXlXlXlXlXlXlXlXlXlX",
"lXlXlXlXlXlXlXlXlXlXlX XrXa.~.j.r 4 +.O.6 - e I ' ' -Xq.~.5XdXdXgXgXiX7XpXsX| 3.).[.XXeXrXrXeXeXXXeXw.lXlXlXlXlXlXlXlXlXlXlXlXlX",
"lXlXlXlXlXlXlXlXlXlXlXs.XXQ.r.j.a 6.@.O.o.x n ` G +X-XK.l.yXfXgXgXgXF @ ( K o 3.[.oXrXeXeXeXeXrXrX Xw lXlXlXlXlXlXlXlXlXlXlXlXlX",
"lXlXlXlXlXlXlXlXlXlXlXs.}.`.M 2 / d.c +.o.4 , A.F ;X;X4X<XdXfXdX| W.U u _ ! e <.1.].eXeXeXrXeXeXeXw.lXlXlXlXlXlXlXlXlXlXlXlXlXlX",
"lXlXlXlXlXlXlXlXlXlXlXs.|.U.V w a.} %.%.$.6 > l.H ;X;XpXfXgXdXF.l 8.a.a.a.a.6.5.C y.V.oXXXXXeXeX|., lXlXlXlXlXlXlXlXlXlXlXlXlXlX",
"lXlXlXlXlXlXlXlXlXlXlXa.Q.N.6.7.d.$.>.>.;.&.4 ~ N ;X:XpXfXgX7Xk w.6._ 6.a.8.8.8.A <.C !.XXeXeXeXs.X lXlXlXlXlXlXlXlXlXlXlXlXlXlX",
"lXlXlXlXlXlXlXlXlXlXlXC <.C s b J.:.9X9X*.#X! w * n.dXgXfXhX=Xw.6.d $ O lX& - 0 Z 7.6.5.Y.eXrXXX1.lXlXlXlXlXlXlXlXlXlXlXlXlXlXlX",
"lXlXlXlXlXlXlXlXlXlXlXlXlXlXN j.#X>.0X^.#.l.^ lXlXj pXfXgXgXG.3.s q r lXlXlXlXlX* d 5.7.<.C.eX.XZ.lXlXlXlXlXlXlXlXlXlXlXlXlXlXlX",
"lXlXlXlXlXlXlXlXlXlXlXlXlXlXJ.K.-.^./.:.-.l.^ lXlX+ yXfXfXfXb.B / ) ! lXlXlXlXlX  0 p 7.<.1.XXoX3.lXlXlXlXlXlXlXlXlXlXlXlXlXlXlX",
"lXlXlXlXlXlXlXlXlXlXlXlXlXlX:X+X%.9X*.*.6X-X~ lXlXy 7XgXdXfXm.i R.-X] lXlXlXlXlXlXlX9 M A 2. X|.a M lXlXlXlXlXlXlXlXlXlXlXlXlXlX",
"lXlXlXlXlXlXlXlXlXlXlXlXlXlX7X8X-.:.L.@.} l.N lXlXg.=XpXuXfX<X^ %X,Xq.lXlXlXlXlXlXlX' , - 0 U.C.v.` O lXlXX lXlXlXlXlXlXlXlXlXlX",
"lXlXlXlXlXlXlXlXlXlXlXlXlXlXh.F.&.:.qX#X$X) lXlXlXf.=XuXhXfXaXU R.,XD.n i lXlXlXi Q H.l.{ $ Z |.>XH.K lXlXg lXlXlXlXlXlXlXlXlXlX",
"lXlXlXlXlXlXlXlXlXlXlXlXlXlXlXg.v 7 =.7X7XK lXlXlXh.<X4XgXfXdX%XyX,XF.V ! M lXn ! g.-X-X;X2 - w.r.-XA.k w R o lXlXlXlXlXlXlXlXlX",
"lXlXlXlXlXlXlXlXlXlXlXlXlXlX= x.| < E ,X=XK lXlXlXj.pXiXgXfXfXfXhX-XF.~ k.} M U g.*X-X-XE.T O - z D.-Xq.! [ lXlXlXlXlXlXlXlXlXlX",
"lXlXlXlXlXlXlXlXlXlXlXlXlXlXg ;X5XhX5X;X] lXlXlXlXc.fXgXgXgXgXgX5X;XF.~  .[ [ [ A.;X-X-X9.k lXlXlXN F.;X*XF.k lXlXlXlXlXlXlXlXlX",
"lXlXlXlXlXlXlXlXlXlXlXlXlXlX@ j.:X,X:X;Xt lXlXlXlX&XfXgXgXgXgXgX5X;X9.[  .r. .[ A.-X*X-XlXlXlXlXlXlXU v.l.E.L lXlXlXlXlXlXlXlXlX",
"lXlXlXlXlXlXlXlXlXlXlXlXlXlXlXH  .-X-XY = lXlXlXlXb.gXfXgXfXgXhX,X*X] [ [ q.r. .k.*X-Xq.lXlXlXlXlXlXlX] l.A.G lXlXlXlXlXlXlXlXlX",
"lXlXlXlXlXlXlXlXlXlXlXlXlXlXlXlXh ' ` , lXlXlXlXlXa <XgXfXfXhX4X-X~.l.k.P q. . .r.D.l.M lXlXlXlXlXlXlXq.J.l.L lXlXlXlXlXlXlXlXlX",
"lXlXlXlXlXlXlXlXlXlXlXlXlXlXlXlXlX    lXlXlXlXlXlX: A.aXdXdX5X-X-XH.H.~.h '  .[ ' Y k lXlXlXlXlXlXlXU F.;Xl.~ lXlXlXlXlXlXlXlXlX",
"lXlXlXlXlXlXlXlXlXlXlXlXlXlXlXlXlXlXlXlXlXlXlXlXlX~ K ,X6X:X-X-X;X*X;X-XL l r.) + O lXlXlXlXlXlXlXlX` l.J.q.{ = lXlXlXlXlXlXlXlX",
"lXlXlXlXlXlXlXlXlXlXlXlXlXlXlXlXlXlXlXlXlXlXlXlXi k.' l.-X;X;X-X-X;X-X-X' g ~ m lXlXlXlXlXlXlXlXlXlX~ U Q U ` h lXlXlXlXlXlXlXlX",
"lXlXlXlXlXlXlXlXlXlXlXlXlXlXlXlXlXlXlXlXlXlXlXlXN F.F.9.k.*X-XD.~.-X;X-Xk.1 i n lXlXlXlXlXlXlXlXlXlXlXi i i U M lXlXlXlXlXlXlXlX",
"lXlXlXlXlXlXlXlXlXlXlXlXlXlXlXlXlXlXlXlXlXlXlXlX] ;X-Xk.M v.F.] [ -X;X-XD.- e lXlXlXlXlXlXlXlXlXlXlXlXlXlXlXlXn lXlXlXlXlXlXlXlX",
"lXlXlXlXlXlXlXlXlXlXlXlXlXlXlXlXlXlXlXlXlXlXlXlX] ;X-X~.[ U m n 1 J.;X;Xn.& lXlXlXlXlXlXlXlXlXlXlXlXlXlXlXlXlXlXlXlXlXlXlXlXlXlX",
"lXlXlXlXlXlXlXlXlXlXlXlXlXlXlXlXlXlXlXlXlXlXlXlXlX-X-X~.g.M lXlXlX< A.-Xl.T lXlXlXlXlXlXlXlXlXlXlXlXlXlXlXlXlXlXlXlXlXlXlXlXlXlX",
"lXlXlXlXlXlXlXlXlXlXlXlXlXlXlXlXlXlXlXlXlXlXlXlXlXA.:Xl.] lXlXlXlX  h ` g.[ m lXlXlXlXlXlXlXlXlXlXlXlXlXlXlXlXlXlXlXlXlXlXlXlXlX",
"lXlXlXlXlXlXlXlXlXlXlXlXlXlXlXlXlXlXlXlXlXlXlXlXlXK h.~ ! lXlXlXlXlX  , [ [ N lXlXlXlXlXlXlXlXlXlXlXlXlXlXlXlXlXlXlXlXlXlXlXlXlX",
"lXlXlXlXlXlXlXlXlXlXlXlXlXlXlXlXlXlXlXlXlXlXlXlXlX. o P ~ lXlXlXlXlXlX!  .[ ^ lXlXlXlXlXlXlXlXlXlXlXlXlXlXlXlXlXlXlXlXlXlXlXlXlX",
"lXlXlXlXlXlXlXlXlXlXlXlXlXlXlXlXlXlXlXlXlXlXlXlXlXr H T ~ lXlXlXlXlXlX~ { N ~ lXlXlXlXlXlXlXlXlXlXlXlXlXlXlXlXlXlXlXlXlXlXlXlXlX",
"lXlXlXlXlXlXlXlXlXlXlXlXlXlXlXlXlXlXlXlXlXlXlXlXlXU M Y P lXlXlXlXlXlX~ U ^ k.lXlXlXlXlXlXlXlXlXlXlXlXlXlXlXlXlXlXlXlXlXlXlXlXlX",
"lXlXlXlXlXlXlXlXlXlXlXlXlXlXlXlXlXlXlXlXlXlXlXlXlX] w H H lXlXlXlXlXlXT N k.A.lXlXlXlXlXlXlXlXlXlXlXlXlXlXlXlXlXlXlXlXlXlXlXlXlX",
"lXlXlXlXlXlXlXlXlXlXlXlXlXlXlXlXlXlXlXlXlXlXlXlXlXq.M : g lXlXlXlXlXlXG U N I lXlXlXlXlXlXlXlXlXlXlXlXlXlXlXlXlXlXlXlXlXlXlXlXlX",
"lXlXlXlXlXlXlXlXlXlXlXlXlXlXlXlXlXlXlXlXlXlXlXlXlXN n lX. lXlXlXlXlXlXG 1 = L lXlXlXlXlXlXlXlXlXlXlXlXlXlXlXlXlXlXlXlXlXlXlXlXlX",
"lXlXlXlXlXlXlXlXlXlXlXlXlXlXlXlXlXlXlXlXlXlXlXlXlXlXlXlXlXlXlXlXlXlXlX: o lX= lXlXlXlXlXlXlXlXlXlXlXlXlXlXlXlXlXlXlXlXlXlXlXlXlX",
"lXlXlXlXlXlXlXlXlXlXlXlXlXlXlXlXlXlXlXlXlXlXlXlXlXlXlXlXlXlXlXlXlXlXlXlXlXlX  lXlXlXlXlXlXlXlXlXlXlXlXlXlXlXlXlXlXlXlXlXlXlXlXlX",
"lXlXlXlXlXlXlXlXlXlXlXlXlXlXlXlXlXlXlXlXlXlXlXlXlXlXlXlXlXlXlXlXlXlXlXlXlXlXlXlXlXlXlXlXlXlXlXlXlXlXlXlXlXlXlXlXlXlXlXlXlXlXlXlX"
};
