/* XPM */
static char *result[] = {
/* columns rows colors chars-per-pixel */
"64 64 207 2 ",
"   c #010101",
".  c #0B0A0C",
"X  c #08050D",
"o  c #1B050C",
"O  c #0D0915",
"+  c #160E16",
"@  c #121114",
"#  c #151419",
"$  c #19161C",
"%  c #1C191F",
"&  c #260E18",
"*  c #2F1316",
"=  c #150D28",
"-  c #1A1423",
";  c #1B1525",
":  c #1D1136",
">  c #221B28",
",  c #231A34",
"<  c #251A3B",
"1  c #361225",
"2  c #1F2025",
"3  c #29252D",
"4  c #242328",
"5  c #2D2B33",
"6  c #2B2537",
"7  c #322C3A",
"8  c #35313B",
"9  c #39323F",
"0  c #36222E",
"q  c #5D172E",
"w  c #741D3A",
"e  c #7E1F3F",
"r  c #3A6B35",
"t  c #2B165C",
"y  c #2D2244",
"u  c #322546",
"i  c #352A4C",
"p  c #3B2D4A",
"a  c #34264C",
"s  c #3B3542",
"d  c #3E3649",
"f  c #3E3B48",
"g  c #3A2C54",
"h  c #3C2C5C",
"j  c #3C3154",
"k  c #311969",
"l  c #381F6D",
"z  c #2F1769",
"x  c #3A216E",
"c  c #3E2F60",
"v  c #3E2471",
"b  c #7D1F40",
"n  c #403A47",
"m  c #433C4B",
"M  c #40364F",
"N  c #453A53",
"B  c #44325A",
"V  c #47385A",
"C  c #772443",
"Z  c #433363",
"A  c #493A65",
"S  c #4C3C6A",
"D  c #4A3767",
"F  c #462C76",
"G  c #4C3572",
"H  c #583B7A",
"J  c #553C6E",
"K  c #6E3C63",
"L  c #45404D",
"P  c #4B4453",
"I  c #4E435B",
"U  c #4A4855",
"Y  c #544B5E",
"T  c #51475A",
"R  c #51525E",
"E  c #4E4264",
"W  c #4F406B",
"Q  c #53446D",
"!  c #5B4E6D",
"~  c #584C68",
"^  c #5B5265",
"/  c #5E536A",
"(  c #5A5B6A",
")  c #545563",
"_  c #544572",
"`  c #554975",
"'  c #5B4C74",
"]  c #5C4D7A",
"[  c #5B4677",
"{  c #5F517F",
"}  c #5E5573",
"|  c #63596E",
" . c #60566A",
".. c #615275",
"X. c #665B72",
"o. c #64547B",
"O. c #6B5C7E",
"+. c #685C78",
"@. c #6A4F7D",
"#. c #6E627B",
"$. c #6A6B7D",
"%. c #686276",
"&. c #72667E",
"*. c #822140",
"=. c #952843",
"-. c #9F3E55",
";. c #A92F48",
":. c #AF394F",
">. c #AE485E",
",. c #815974",
"<. c #AE536B",
"1. c #C04456",
"2. c #CB5364",
"3. c #D56A7B",
"4. c #C96979",
"5. c #6C9766",
"6. c #563980",
"7. c #5F4183",
"8. c #654A84",
"9. c #644689",
"0. c #6D4E8D",
"q. c #635681",
"w. c #6C5C83",
"e. c #6B5E8A",
"r. c #675785",
"t. c #6F4F90",
"y. c #704F91",
"u. c #715191",
"i. c #755F8B",
"p. c #6D648C",
"a. c #6B6883",
"s. c #736383",
"d. c #766A83",
"f. c #786C86",
"g. c #73648C",
"h. c #7B6B8C",
"j. c #74698A",
"k. c #6F7082",
"l. c #7B758B",
"z. c #756B95",
"x. c #7D6D92",
"c. c #796B94",
"v. c #7C7C93",
"b. c #7D719D",
"n. c #7B7193",
"m. c #837494",
"M. c #837A95",
"N. c #897A97",
"B. c #85769B",
"V. c #847B9A",
"C. c #8C7C9C",
"Z. c #826C85",
"A. c #837BA3",
"S. c #8F7EA1",
"D. c #907FA2",
"F. c #8F7BB0",
"G. c #8971AB",
"H. c #DA7686",
"J. c #DA7F90",
"K. c #E17F8E",
"L. c #7F8095",
"P. c #8E829D",
"I. c #86859E",
"U. c #90819F",
"Y. c #A88191",
"T. c #8D83A3",
"R. c #8C85AB",
"E. c #8B87A7",
"W. c #9585A5",
"Q. c #9887A7",
"!. c #9586A9",
"~. c #998AAA",
"^. c #938AA8",
"/. c #9495AE",
"(. c #9D96A9",
"). c #938CB2",
"_. c #9B8FB0",
"`. c #9692B4",
"'. c #9E92B2",
"]. c #9A96BA",
"[. c #9E9ABD",
"{. c #9996B7",
"}. c #A08FB0",
"|. c #A194B4",
" X c #A39AB4",
".X c #A39BBB",
"XX c #A498BA",
"oX c #B09BAD",
"OX c #B8B3BF",
"+X c #DF8292",
"@X c #E18B9B",
"#X c #E08595",
"$X c #CBABB4",
"%X c #A19EC1",
"&X c #A5A2C4",
"*X c #ABA4C4",
"=X c #ADAACB",
"-X c #B1AECE",
";X c #B1AFD1",
":X c #B5B3D3",
">X c #B9B9D9",
",X c #BFBFE0",
"<X c #C2BFC8",
"1X c #C8C5D7",
"2X c #C3C4E5",
"3X c #E4E1E6",
"4X c None",
/* pixels */
"4X4X4X4X4X4X4Xh D 4X4X4X4X4X4X4X4X4X4X4X4X4X4X4X4X4X4X4X4X4X4X4X4X4X4X4X4X4X4X4X4X4X4X4X4X4X4X4X4X4X4X4X4X4X4X4X4X4X4X4X4X4X4X4X",
"4X4X4X4X4X4X4Xh R.q.4X4X4X4X4X4X4X4X4X4X# i 4X4X4X4X4X4X4X4X4X4X4X4X4X4X4X4X4X4X4X4X4X4X4X4X4X4X4X4X4X4X4X4X4X4X4X4X4X4X4X4X4X4X",
"4X4X4X4X4X4X4Xg ).z.4X4X4X4X4X4X4X4X4X@ v.p.4X4X4X4X4X4X4X4X4X4X4X4X4X4X4X4X4X4X4X4X4X4X4X4X4X4X4X4X4X4X4X4X4X4X4X4X4X4X4X4X4X4X",
"4X4X4X4X4X4X4Xh R.>X] 4X4X4X4X4X4X4X# l.>Xr.4X4X4X4X4X4X4X4X4X4X4X4X4X4X4X4X4X4X4X4X4X4X4X4X4X4X4X4X4X4X4X4X4X4X4X4X4X4X4X4X4X4X",
"4X4X4X4X4X4X4Xh R.,Xz.4X4X4X4X4X4X7 k.,X_._ 4X4X4X4X4X4X4X4X4X4X4X4X4X4X4X4X4X4X4X4X4X4X4X4X4X4X4X4X4X4X4X4X4X4X4X4X4X4X4X4X4X4X",
"4X4X4X4X4X4X4Xh R.>X>Xj 4X4X4X4XA B.,X:Xe.4X4X4X4X4X4X4X4X4X4X4X4X4X4X4X4X4X4X4X4X4X4X4X4X4X4X4X4X4X4X4X4X4X4X4X4X4X4X4X4X4X4X4X",
"4X4X4X4X4X4X4X: E.=X;X( U a.s y g.|.:X)._ 4X4X4X4X4X4X4X4X4X4X4X4X4X4X4X4X4X4X4X4X4X4X4X4X4X4X4X4X4X4X4X4X4X4X4X4X4X4X4X4X4X4X4X",
"4X4X4X4X4X4X4X  ( .X;X,X,X.X) %.~.Q. Xg.4X4X4X4X4X4X4X4X4X4X4X4X4X4X4X4X4X4X4X4X4X4X4X4X4X4X4X4X4X4X4X4X4X4X4X4X4X4X4X4X4X4X4X4X",
"4X4X4X4X4X4X4XL V.:X>X>X:X*X<X,X X~.m.[ 4X4X4X4X4X4X4X4X4X4X4X4X4X4X4X4X4X4X4X4X4X4X4X4X4X4X4X4X4X4X4X4X4X4X4X4X4X4X4X4X4X4X4X4X",
"4X4X4X4X4X4X_ [.>X>X>X>X>X>X,X,X-X~.w.4X4X4X4X4X4X4X4X4X4X4X4X4X4X4X4X4X4X4X4X4X4X4X4X4X4X4X4X4X4X4X4X4X4X4X4X4X4X4X4X4X4X4X4X4X",
"4X4X4X4X4X4Xa.>X>X>X>X&X:X;Xe.R.'.~.x.J 4X4X4X4X4X4X4X4X4X4X4X4X4X4X4X4X4X4X4X4X4X4X4X4X4X4X4X4X4X4X4X4X4X4X4X4X4X4X4X4X4X4X4X4X",
"4X4X4X4X4X4XU :X>X>X.X*X:Xj.*XC.Q.~.Q.o.4X4X4X4X4X4X4X4X4X4X4X4X4X4X4X4X4X4X4X4X4X4X4X4X4X4X4X4X4X4X4X4X4X4X4X4X4X4X4X4X4X4X4X4X",
"4X4X4X4X4X4X/ '.>X:XI.=Xp.1X3Xm.~.!.~.T 4X4X4X4X4X4X4X4X4X4X4X4X4X4X4X4X4X4X4X4X4X4X4X4X4X4X4X4X4X4X4X4X4X4X4X4X4X4X4X4X4X4X4X4X",
"4X4X4X~.c.c ' {.>X>Xl.{ (.5.OXf.~.~.}.m 4X4X4X4X4X4X4X4X4X4X4X4X4X4X4X4X4X4X4X4X4X4X4X4X4X4X4X4X4X4X4X4X4X4X4X4X4X4X4X4X4X4X4X4X",
"4X4X'.:X=X&X*X:X>X>X} Z 3 r Z.^.~.N.N.W.9 4X4X4X4X4X4X4X4X4X4X4X4X4X4X4X4X4X4X4X4X4X4X4X4X4X4X4X4X4X4X4X4X4X4X4X4X4X4X4X4X4X4X4X",
"4X4XM.>X>X>X>X>X>X>X-X*XP.P.W.~.~.N.h.~.s 4X4Xh D D 4X4X4X4X4X4X4X4X4X4X4X4X4X4X4X4X4X4X4X4X4X4X4X4X4X4X4X4X4X4X4X4X4X4X4X4X4X4X",
"4X4Xm.>X>X:X=X:X>X:X:X|.~.Q.M.N.N.s.w.}.s < 4XS V.C.A 4X4X4X4X4X4X4X4X4X4X4X4X4X4X4X4X4X4X4X4X4X4X4X4X4X4X4X4X4X4X4X4X4X4X4X4X4X",
"4XB m.:X:Xb.o..X:X'.~.M.m.d.+ O X s ~.W.n p ..C.Q.Q.+.  4X4X4X4X4X4X4X4X4X4X4X4X4X4X4X4X4X4X4X4X4X4X4X4X4X4X4X4X4X4X4X4X4X4X4X4X",
"4X# d.N.E.w.=X:XXXm.j.* o + B Z < 9 |.m ^ ~.o.m.Q.Q.d.  4X4X4X4X4X4X4X4X4X4X4X4X4X4X4X4X4X4X4X4X4X4X4X4X4X4X4X4X4X4X4X4X4X4X4X4X",
"4X  , M.C.^.:XT.&.0 * w e C a Z y M U.m X.~.'.B.C.).' 5 4X4X4X4X4X4X4X4X4X4X4X4X4X4X4X4X4X4X4X4X4X4X4X4X4X4X4X4X4X4X4X4X4X4X4X4X",
"4X4X_ B.~.~.m.7   q ;.*.*.w & < g c.U P ~.W.-X>XE.:X>X[.5 L 4X4X4X4X4X4X4X4X4X4X4X4X4X4X4X4X4Xh.h.h.4X4X` 4X4X4X4X4X4X4X4X4X4X4X",
"4X4X4XQ B.|.m 4X4X4X*.=.*.*.w o 3 W.V ~ ~.XX-X>X>X:X>X:X*X>X>X:X>X4X4X4X4X4X4X4X4X4X4X4X4Xh.h.W.~.~.Z.r.W.Q m 4X4X4X4X3 @ 4X4X4X",
"4X4X4X4XV ^ 9 4X4Xb =.2.;.>.;.w ^ h.h i.XX-X>X>X>X>X>X>X,X>X>X>X>X>X4X4X4X4X4X4X4X4X4Xh.Z.T.~.~.~.~.~.~.c.~.|.f.I ] = #.5 4X4X4X",
"4X4X4X4X4X  4X4X4X=.2.J.3.J.:.K W.E p E ^.>X>X>X>X>X>X=X).>X>X>X:X>XA.4X4X4X4X4X4X4X] N.~.~.~.~.~.j.w.w.A w.h.~.}.m.r.C.M X 4X4X",
"4X4X4X4X4X4X4X4XN.>.K.@X@XK.-.W.x.g p O $.>X>X>X>X:X>X%Xr.,X>X>X>X>Xp.Z 4X4X4X4X_ ' m.~.~.Q.~.~.g.D 4X4X4X4XQ r.q.g.m.W.m.# 4X4X",
"4X4X4X4X4X4X4XS ,.4.+X@X#X2.C B.x.g , p l.*X>X*X:X>X>X:XA.).>X>X>X>X[.` h c h A d.C.Q.Q.~.~.g.o.D 4X4X4X4X4X4X4XS s.N.m.Z.E h 4X",
"4X4X4X4X4X4X+. X<.3.@X>.H.-.oXh.w.: m S.^.XX:X*X:X:X>X>X/.6 ).<X>X>X>X%X[ ' ] ..h.~.~.~.x.] D h 4X4X4X4X4X4X4X4X' h.S.U.f.s.... ",
"4X4X4X4X4X(.<XY.1.K.<.$X$XZ.1Xl.< : ) :X-X-X:X>X>X>X>X>X=XV.{ k.>X>X>X>X[.o.w.&.s.h.x.s.Q 4X4X4X4X4X4X4X4X4X4X4XZ Q ..[ Q S S a ",
"4X4X4X4X4Xw.P.O.1 * & Z. X*X'.s.O t p.>X>X>X>X>X>X>X>X>X;X'.N.O.).>X>X>X:X{ O.s. .$ $ ; 4X4X4X4X4X4X4X4X4X4X4X4X4X4X4X4X4X4X4X4X",
"4X4X4X4X4X4XI W.^././..X(.'.S.D t k Q A.>X>X>X>X>X>X>X>X-X^.~.Y %.>X>X>X:Xq._ _ Z 4X4X4X4X4X4X4X4X4X4X4X4X4X4X4X4X4X4X4X4X4X4X4X",
"4X4X4X4X4X4XP ~._._.|._.^.W.f.= z 4X4XY |.-X:X>X:X>X>X:X~.~.~.w., v.>X>X:X=X%X] 4X4X4X4X4X4X4X4X4X4X4X4X4X4X4X4X4X4X4X4X4X4X4X4X",
"4X4X4X4X4X4XX ^ W.P.C.C.N.A ; t z 4Xq.U / ~.~.-X:X:X~.~.~.~.N.B.m $.>X>X>X>X>X%X_ 4X4X4X4X4X4X4X4X4X4X4X4X4X4X4X4X4X4X4X4X4X4X4X",
"4X4X4X4X4X4X4XD > . $ O $ 8.7.z 4X4Xw.!.o...N.~.~.~.Q.Q.~.Q.Q.W.W.o.).>X>X>X>X*X] 4X4X4X4X4X4X4X4X4X4X4X4X4X4X4X4X4X4X4X4X4X4X4X",
"4X4X4X4X4X4X4X4X4X  I.> [ t.9.k 4X] ~.~.~.m.Q x.~.~.Q.U.S.~.~.~.~.9 v.,X>X>X>X>X&X{ 4X4X4X4X4X4X4X4X4X4X4X4X4X4X4X4X4X4X4X4X4X4X",
"4X4X4X4X4X4X4X4X2 . C.7 8.u.9.z 4X..~.~.~.~.h.Q m.B.m.] S M.~.^.~.d v.,X>X>X>X>X>X%X{ 4X4X4X4X4X4X4X4X4X4X4X4X4X4X4X4X4X4X4X4X4X",
"4X4X4X4X4X4X4X2 v.5 J u.u.9.9.k 4XQ N.~.~.C.s.&.Z Z Z Z y 3 s.N.|.w.`.>X;X=X;X:X=X:X%X{ 4X4X4X4X4X4X4X4X4X4X4X4X4X4X4X4X4X4X4X4X",
"4X4X4X4X4X4X  $.F.a [ u.0.k 4X4X4X4X9 #.+.~ @.@.Z 4X4X4X4X4X  s #.Q `.-X~.^.~.*XQ.'.XXL.4X4X4X4X4X4X4X4X4X4X4X4X4X4X4X4X4X4X4X4X",
"4X4X4X4X4X4X4X$.F.u.y.y.0.l 4X4X4X4X4X- 4 E O.A 4X4X4X4X4X4X4X4X. Q &XXX^.~.~.~.~.W.! 4X4X4X4X4X4X4X4X4X4X4X4X4X4X4X4X4X4X4X4X4X",
"4X4X4X4X4X4X7 m.G.y.u.u.6.k 4X4X4X4XS ' V E O.S 4X4X4X4X4X4X4X4XS ).>X*X~.~.W.~.~.C.! 4X4X4X4X4X4X4X4X4X4X4X4X4X4X4X4X4X4X4X4X4X",
"4X4X4X4X4Xs ( N J u.y.H k 4X4X4X4X4X..o.; 3 s.p 4X4X4X4X4X4X4X4XD p.=X-X~.~.W.~.~.D.} 4X4X4X4X4X4X4X4X4X4X4X4X4X4X4X4X4X4X4X4X4X",
"4X4X4Xr.N R /.( r.y.0.l 4X4X4X4X4X4X] _ 4X4Xs . 4X4X4X4X4X4X4X4X; a `.[.W.~.~.~.~.f., 4X4X4X4X4X4X4X4X4X4X4X4X4X4X4X4X4X4X4X4X4X",
"4X4X4XN T.( I.2XA.8.y.l 4X4X4X4X4X4X4X4X4X4X4X  4X4X4X4XD _ 4X4X< o.=XXXW.~.~.W.~.#.  4X4X4X4X4X4X4X4X4X4X4X4X4X4X4X4X4X4X4X4X4X",
"4X4X4X3 .Xj.7 } q.9.0.9.4X4X4X4X4X4X4X4X4X4X4X4X4X4X4Xr.A.S S D b.;X>X'.Q.~.W.~.T.' i 4X4X4X4X4X4X4X4X4X4X4X4X4X4X4X4X4X4X4X4X4X",
"4X4X4X4Xd g.f.' [ 0.u.F k 4X4X4X4X4X4X4X4X4X4X4X4X4X4X` b.].].].A.p.%XXXW.~.~.Q.W...- 4X4X4X4X4X4X4X4X4X4X4X4X4X4X4X4X4X4X4X4X4X",
"4X4X4X4XQ |.T.8.0.u.0.x 4X4X4X4X4X4X4X4X4X4X4X4X4X4X4X4X4XA.-X XT.).XX~.^.~.Q.~.~.&.  4X4X4X4X4X4X4X4X4X4X4X4X4X4X4X4X4X4X4X4X4X",
"4X4X4X4Xm %X:Xz.8.u.t.x 4X4X4X4X4X4X4X4X4X4X4X4X4X4X4X4X4X4X> $ / |.*X'.Q.~.~.W.~.#.  4X4X4X4X4X4X4X4X4X4X4X4X4X4X4X4X4X4X4X4X4X",
"4X4X4X4X4XP '.w.8.y.u.x 4X4X4X4X4X4X4X4X4X4X4X4X4X4X4X4X4XQ g X.C.~.~.~.Q.Q.~.~.~.&.  4X4X4X4X4X4X4X4X4X4X4X4X4X4X4X4X4X4X4X4X4X",
"4X4X4X4X4X. @ B u.u.0.x 4X4X4X4X4X4X4X4X4X4X4X4X4X4X4X4Xe.:Xk.P ~.Q.~.Q.~.Q.W.~.Q.W.^ 4X4X4X4X4X4X4X4X4X4X4X4X4X4X4X4X4X4X4X4X4X",
"4X4X4X4X4Xn I B u.y.F 4X4X4X4X4X4X4X4X4X4X4X4X4X4X4X4X4Xe.:X{.W.U.r.B.~.~.Q.~.Q.~.m.A 4X4X4X4X4X4X4X4X4X4X4X4X4X4X4X4X4X4X4X4X4X",
"4X4X4X4X4Xm Q.g.8.t.F 4X4X4X4X4X4X4X4X4X4X4X4X4X4X4X4X4X4X4Xs C.n ^ W.~.W.~.W.~.~.&.  4X4X4X4X4X4X4X4X4X4X4X4X4X4X4X4X4X4X4X4X4X",
"4X4X4X4X4X4Xs.n B u.F 4X4X4X4X4X4X4X4X4X4X4X4X4X4X4X4X4X4X4X4X  4XB m.~.~.~.W.~.~.#.  4X4X4X4X4X4X4X4X4X4X4X4X4X4X4X4X4X4X4X4X4X",
"4X4X4X4X4X4X^ n B u.0.4X4X4X4X4X4X4X4X4X4X4X4X4X4X4X4X4X4X4X4X4X4X  v. XQ.W.~.~.~.f.; 4X4X4X4X4X4X4X4X4X4X4X4X4X4X4X4X4X4X4X4X4X",
"4X4X4X4X4X4Xw.s B u.v 4X4X4X4X4X4X4X4X4X4X4X4X4X4X4X4X4X4X4X4X4X4X4Xv.^._.~.~.W.~.~.X.  4X4X4X4X4X4X4X4X4X4X4X4X4X4X4X4X4X4X4X4X",
"4X4X4X4X4X4X/ | M 8.v 4X4X4X4X4X4X4X4X4X4X4X4X4X4X4X4X4X4X4X4X4X4X4X4Xu [._.~.~.~.~.|   4X4X4X4X4X4X4X4X4X4X4X4X4X4X4X4X4X4X4X4X",
"4X4X4X4X4X4X4XD.5 D v 4X4X4X4X4X4X4X4X4X4X4X4X4X4X4X4X4X4X4X4X4X4X4X4X  /.&X~.Q.!.~.|   4X4X4X4X4X4X4X4X4X4X4X4X4X4X4X4X4X4X4X4X",
"4X4X4X4X4X4Xg.C.X.p G 4X4X4X4X4X4X4X4X4X4X4X4X4X4X4X4X4X4X4X4X4X4X4X4X4Xn.:X~.~.~.W.! 4X4X4X4X4X4X4X4X4X4X4X4X4X4X4X4X4X4X4X4X4X",
"4X4X4X4X4X4Xn f.B.V F 4X4X4X4X4X4X4X4X4X4X4X4X4X4X4X4X4X4X4X4X4X4X4X4X4X4X%Xc.W.~.W.! 4X4X4X4X4X4X4X4X4X4X4X4X4X4X4X4X4X4X4X4X4X",
"4X4X4X4X4X4X4X3 +.0.< 4X4X4X4X4X4X4X4X4X4X4X4X4X4X4X4X4X4X4X4X4X4X4X4X4X4X4X6 .X~.~. .  4X4X4X4X4X4X4X4X4X4X4X4X4X4X4X4X4X4X4X4X",
"4X4X4X4X4X4X4X4X3 #.> 4X4X4X4X4X4X4X4X4X4X4X4X4X4X4X4X4X4X4X4X4X4X4X4X4X4X4X4Xb.~.~.|   4X4X4X4X4X4X4X4X4X4X4X4X4X4X4X4X4X4X4X4X",
"4X4X4X4X4X4X4X4X4X4 . 4X4X4X4X4X4X4X4X4X4X4X4X4X4X4X4X4X4X4X4X4X4X4X4X4X4X4X4X3 W.~.|   4X4X4X4X4X4X4X4X4X4X4X4X4X4X4X4X4X4X4X4X",
"4X4X4X4X4X4X4X4X4X    4X4X4X4X4X4X4X4X4X4X4X4X4X4X4X4X4X4X4X4X4X4X4X4X4X4X4X4X4Xw.~.X.  4X4X4X4X4X4X4X4X4X4X4X4X4X4X4X4X4X4X4X4X",
"4X4X4X4X4X4X4X4X4X4X  4X4X4X4X4X4X4X4X4X4X4X4X4X4X4X4X4X4X4X4X4X4X4X4X4X4X4X4X4X4Xs W...j 4X4X4X4X4X4X4X4X4X4X4X4X4X4X4X4X4X4X4X",
"4X4X4X4X4X4X4X4X4X4X4X4X4X4X4X4X4X4X4X4X4X4X4X4X4X4X4X4X4X4X4X4X4X4X4X4X4X4X4X4X4X4X@ P I 4X4X4X4X4X4X4X4X4X4X4X4X4X4X4X4X4X4X4X",
"4X4X4X4X4X4X4X4X4X4X4X4X4X4X4X4X4X4X4X4X4X4X4X4X4X4X4X4X4X4X4X4X4X4X4X4X4X4X4X4X4X4X4X4X. 4X4X4X4X4X4X4X4X4X4X4X4X4X4X4X4X4X4X4X"
};
