/* XPM */
static char *result[] = {
/* columns rows colors chars-per-pixel */
"64 64 215 2 ",
"   c #010102",
".  c #0A0A0C",
"X  c #06040A",
"o  c #0D0A13",
"O  c #060211",
"+  c #110E13",
"@  c #140F1A",
"#  c #131115",
"$  c #15121B",
"%  c #19161C",
"&  c #1B191E",
"*  c #28171C",
"=  c #140D25",
"-  c #1D1726",
";  c #1E1433",
":  c #221E25",
">  c #221D2A",
",  c #271829",
"<  c #261C36",
"1  c #26212A",
"2  c #29232D",
"3  c #202323",
"4  c #2D223D",
"5  c #2B2634",
"6  c #332E39",
"7  c #33323A",
"8  c #53152A",
"9  c #6E1C36",
"0  c #791D3B",
"q  c #4C2133",
"w  c #1E0B48",
"e  c #2C175C",
"r  c #2D2141",
"t  c #35264C",
"y  c #362947",
"u  c #3D3645",
"i  c #3E3945",
"p  c #3D384A",
"a  c #3D2D5D",
"s  c #382954",
"d  c #3F3057",
"f  c #331A6B",
"g  c #3B2567",
"h  c #443C4D",
"j  c #43335C",
"k  c #453C57",
"l  c #5D2244",
"z  c #7A3B5C",
"x  c #443464",
"c  c #4A3A65",
"v  c #4D3C6A",
"b  c #493469",
"n  c #462D75",
"m  c #452A7C",
"M  c #4E3776",
"N  c #533979",
"B  c #533D6E",
"V  c #4C4355",
"C  c #4A4457",
"Z  c #52495C",
"A  c #494955",
"S  c #4D4262",
"D  c #4F4960",
"F  c #53436D",
"G  c #574B69",
"H  c #595167",
"J  c #544472",
"K  c #5B4B74",
"L  c #5E4D7A",
"P  c #5A4278",
"I  c #5C5675",
"U  c #61566D",
"Y  c #634F7C",
"T  c #635474",
"R  c #665A73",
"E  c #64547C",
"W  c #68557D",
"Q  c #6B5B7C",
"!  c #685B78",
"~  c #755270",
"^  c #6C617B",
"/  c #666276",
"(  c #72657F",
")  c #801F3F",
"_  c #801F40",
"`  c #822141",
"'  c #8D2341",
"]  c #982A45",
"[  c #963550",
"{  c #B1364A",
"}  c #91405A",
"|  c #B24056",
" . c #8F4C64",
".. c #A94D64",
"X. c #B1586D",
"o. c #93637A",
"O. c #C14657",
"+. c #D0596A",
"@. c #CC687B",
"#. c #D76979",
"$. c #4E3284",
"%. c #583B85",
"&. c #55348C",
"*. c #5D4383",
"=. c #614584",
"-. c #67498B",
";. c #6B4C8C",
":. c #634888",
">. c #655382",
",. c #6C5D82",
"<. c #675887",
"1. c #6E4E92",
"2. c #6E4B9C",
"3. c #684499",
"4. c #6E5596",
"5. c #725293",
"6. c #765599",
"7. c #775B9A",
"8. c #6D6487",
"9. c #736484",
"0. c #756983",
"q. c #75658B",
"w. c #766A89",
"e. c #7B6B8C",
"r. c #786B86",
"t. c #7E738D",
"y. c #74718A",
"u. c #7D6E92",
"i. c #756996",
"p. c #7E7193",
"a. c #797498",
"s. c #724DA1",
"d. c #7A53AC",
"f. c #7C58A3",
"g. c #7450A8",
"h. c #7F60A4",
"j. c #815E82",
"k. c #81728F",
"l. c #837494",
"z. c #857994",
"x. c #857699",
"c. c #85799C",
"v. c #8B7B9C",
"b. c #897C96",
"n. c #826D93",
"m. c #835FA9",
"M. c #8156B5",
"N. c #8559BA",
"B. c #8A5CBF",
"V. c #855AB7",
"C. c #8263AB",
"Z. c #837DA4",
"A. c #8D7EA0",
"S. c #8B65B9",
"D. c #907FA1",
"F. c #DA7B8B",
"G. c #D16F80",
"H. c #8E5FC5",
"J. c #8F5FC8",
"K. c #905FC8",
"L. c #8F60C7",
"P. c #9161C9",
"I. c #9A6DCE",
"U. c #9465CA",
"Y. c #9A75C6",
"T. c #9A6BD1",
"R. c #9E73D1",
"E. c #A176D4",
"W. c #A67DD5",
"Q. c #A77DD9",
"!. c #A87FD9",
"~. c #838399",
"^. c #93879F",
"/. c #8B9192",
"(. c #A88694",
"). c #8D84A4",
"_. c #8B83AA",
"`. c #8A87A7",
"'. c #9484A4",
"]. c #958BAB",
"[. c #9A8AAA",
"{. c #9688A8",
"}. c #9793AC",
"|. c #938DB1",
" X c #9F8FB0",
".X c #9D93B2",
"XX c #9B99B5",
"oX c #9B96B9",
"OX c #9E9ABA",
"+X c #9791B3",
"@X c #8F89B0",
"#X c #A195B5",
"$X c #A39CBC",
"%X c #A49ABA",
"&X c #A58DA5",
"*X c #A7A2B8",
"=X c #DC8192",
"-X c #E18A9A",
";X c #BDD2B8",
":X c #A29FC2",
">X c #A880D8",
",X c #A6A3C3",
"<X c #AAA4C4",
"1X c #ADAACB",
"2X c #A8A5C8",
"3X c #B1AECE",
"4X c #B5B4D4",
"5X c #B9B7D7",
"6X c #B9B9D9",
"7X c #BDB4C5",
"8X c #BFC0E0",
"9X c #D8D6D8",
"0X c #CAC5D2",
"qX c #C0C1E2",
"wX c None",
/* pixels */
"wXwXwXwXwXwXwXwXwXwXwXwXwXwXwXwXwXwXwXwXwXwXwXwXwXwXwXwXwXwXwXwXwXwXwXwXwXwXwXwXwXwXwXwXwXwXwXwX^ wXwXwXwXwXwXwXwXwXwXwXwXwXwXwX",
"wXwXwXwXwXwXwXwXwXwXwXwXwXwXwXwXwXwXwXwXwXwXwXwXwXwXwXwXwXwXwXwXwXwXwXwXwXwXwXwXwXwXwXwXwX.X+Xl.e.E wXwXwXwXwXwXwXwXwXwXwXwXwXwX",
"wXwXwXwXwXwXwXwXwXwXwXwXwXwXwXwXwXwXwXwXwXwXwXwXwXwXwXwXwXwXwXwXwXwXwXwXwXwXwXwXwXwX#X#X%X4XoXoXZ.wXwXwXwXwXwXwXwXwXwXwXwXwXwXwX",
"wXwXwXwXwXwXwXwXwXwXwXwXwXwXwXwXwXwXwXwXwXwXwXwXwXwXwXwXwXwXwXwXwXwXwXwXwXwXwXwXwXwX<X+X@X`.*.N a wXwXwXwXwXwXwXwXwXwXwXwXwXwXwX",
"wXwXwXwXwXwXwXwXwXwXwXwXwXwXwXwXwXwXwXwXwXwXwXwXwXwXwXwXwXwXwXwXwXwXwXwXwXwXwXwX.X:X<X7.3.%.g.&.wXwXwXwXwXwXwXwXwXwXwXwXwXwXwXwX",
"wXwXwXwXwXwXJ Z.e.wXwXwXwXwXwXwXwXwXwXwXwXwXwXwXwXwXwXwXwXwXwXwXwXwXwXwXwXwXwX#X|.a.u.L.P.J.f wXwXwXwXwXwXwXwXwXwXwXwXwXwXwXwXwX",
"wXwXwXwXwXwXa <.].9.wXwXwXwXwXwXwXwXwXwXwXwXwXwXwXwXwXwXwXwXwXwXwXwXwXwXwX X<X4XZ.M 3.H.P.P.wXwXwXwXwXwXwXwXwXwXwXwXwXwXwXwXwXwX",
"wXwXwXwXwXwX=.Y 1XXX9.wXwXwXwXwXwXwXwXwXwXwXwXwXwXwXwXwXwXwXwXwXwXwXwXwX{. X,X<.4.N.P.P.J.&.wXwXwXwXwXwXwXwXwXwXwXwXwXwXwXwXwXwX",
"wXwXwXwXwXwXwX5.>.<.$X+XwXwXwXwXwXwXwXwXwXwXwXwXwXwXwXwXwXwXwXwXwXwXwX[.1X*X<.d.H.J.J.J.t wXwXwXwXwXwXwXwXwXwXwXwXwXwXwXwXwXwXwX",
"wXwXwXwXwXwXwXwXd.d.<.oX+XwXwXwXwXwXwXwXwXwXwXwXwXwXwXwXwXwXwXwXwXwX[.1X1X*.N.P.H.J.J.J.g wXwXwXwXwXwXwXwXwXwXwXwXwXwXwXwXwXwXwX",
"wXwXwXwXwXwXwXwX6.H.d.Y %X].wXwXwXwXwXwXwXwXwXwXwXwXwXwXwXwXwXwXwX'.1XL v N J.P.J.P.L.L., wXwXwXwXwXwXwXwXwXwXwXwXwXwXwXwXwXwXwX",
"wXwXwXwXwXwXwXwX6.H.H.d.>.#X,XwXwXwXwXwXwXwXwXwXwXwXwXwXwXwXwXwXwXe.$X>.N.H.L.K.J.R.>XI.wXwXwXwXwXwXwXwXwXwXwXwXwXwXwXwXwXwXwXwX",
"wXwXwXwXwXwXwXwXwX6.P.P.2.,.l.wXwXwXwXwXwXwXwXwXwXwXwXwXwXwXwXwXp.OX].S.K.K.P.J.L.R.>XQ.< wXwXwXwXwXwXwXwXwXwXwXwXwXwXwXwXwXwXwX",
"wXwXwXwXwXwXwXwXwXf.J.P.s.,.l.Q wXwXwXwXwXwXwXwXwXwXwXwXwXwXwXwX*X.XJ N.P.K.K.P.R.>X>XN.wXwXwXwXwXwXwXwXwXwXwXwXwXwXwXwXwXwXwXwX",
"wXwXwXwXwXwXwXwX5.P.U.P.s.J 9.9.wXwXwXwXwXwXwXwXwXwXwXwXwXwXwXwXx.{.K d.P.K.P.E.>X>XW.g wXwXwXwXwXwXwXwXwXwXwXwXwXwXwXwXwXwXwXwX",
"wXwXwXwXwXwXwXwXwXV.W.T.-.S ,.x wXwXwXwXwXwXwXwXwXwXwXwXwXwXwXwX).Z.-.B.J.K.U.>X>X>XR.a X wXwXwXwXwXwXwXwXwXwXwXwXwXwXwXwXwXwXwX",
"wXwXwXwXwXwXwXwXwX6.>XQ.N 3 y.w.v a wXwXwXwXwXwXwXwXwXwX0.wXwXe.'.K 5.L.L.H.U.>X>X!.>Xx wXwXwXwXwXwXwXwXwXwXwXwXwXwXwXwXwXwXwXwX",
"wXwXwXwXwXwXwXwXwX6.W.Q.V.s a.6Xx.c g wXwXwXwXwXwXwXwX X$X~._.E G 8.k d.L.U.E.>X>X!.>X5 wXwXwXwXwXwXwXwXwXwXwXwXwXwXwXwXwXwXwXwX",
"wXwXwXwXwXwXwXwXwX6.I.>XS.i.I t. Xl.q.x wXwXwXwXwXwXwXv.Z 8X@X4 Z XXc d.U.E.>X>X>X!.>Xn wXwXwXwXwXwXwXwXwXwXwXwXwXwXwXwXwXwXwXwX",
"wXwXwXwXwXwXwXwXwXwXC.h.Z $Xz.v.u z.OX$ wXwXwXwXwXwXwX> 4 A ].h / $Xb.=.B.!.!.>X>X>X>Xt wXwXwXwXwXwXwXwXwXwXwXwXwXwXwXwXwXwXwXwX",
"wXwXwXwXwXwXwXwXwX6.W.6.A ( k e.j 3 }.. wXwXwXwXwXwXwXwXx a W ).{.V k d.L.!.!.>X>X>X>Xy wXwXwXwXwXwXwXwXwXwXwXwXwXwXwXwXwXwXwXwX",
"wXwXwXwXwXwXwXwXwX7.>X7.d 2.Z ( F o wXwXwXwXwXwXwXwXwXwX<Xu.E [.[.b.V.H.U.W.!.>X!.>X>XY.> wXwXwXwXwXwXwXwXwXwXwXwXwXwXwXwXwXwXwX",
"wXwXwXwXwXwXwXwXwXh.>XW.W.h.4 T ).% wXwXwXwXwXwXwXwXwXk.OXc.l.'.[.E d.L.L.!.>X>X>X>X>X!.- wXwXwXwXwXwXwXwXwXwXwXwXwXwXwXwXwXwXwX",
"wXwXwXwXwXwXwXwX6.R.>X>X>X>XI.%.p.% wXwXwXwXwXwXwXwXwX. a x a a.<XK d.U.I.W.>X!.>X>X>X!.d wXwXwXwXwXwXwXwXwXwXwXwXwXwXwXwXwXwXwX",
"wXwXwXwXwXwXwXwX=.W.>X>XQ.Q.T.*.p.5 wXwXwXwXwXwXwXwXwXwXwXwXwXi..X:.d.U.Q.>X>X>X>X>X>X>XW.; wXwXwXwXwXwXwXwXwXwXwXwXwXwXwXwXwXwX",
"wXwXwXwXwXwXwXc 8.h.>X>XQ.T.d.:.l.K wXwXwXwXwXwXwXwXwXwXwXwXwX_.|.6.H.P.Q.>X>XQ.>X>X>X>XW.%.  wXwXwXwXwXwXwXwXwXwXwXwXwXwXwXwXwX",
"wXwXwXwXwXwX;.M :Xv >X>XR.P.*.u.Z H wXwXwXwXwXwXwXwXwXwXwXwXwX$X8XH 2.P.W.>X>X>X>X>X>X>XW.Y.B wXwXwXwXwXwXwXwXwXwXwXwXwXwXwXwXwX",
"wXwXwXwXwXS.Y.P :X_.f.I.T.d.<.Z # wXwX& I a wXwXwXwXwXwXwXwXwX`.8Xi :.P.W.>X>X>X>X>X>X>X>X>XW.2.wXwXwXwXwXwXwXwXwXwXwXwXwXwXwXwX",
"wXwXwXwX2.W.R.N 2X1XM L.f.P q.S wXwX# ~.oXa wXwXwXwXwXwXwXwXwX'.qXI g.P.W.>X>X>X>X>X>X>XR.>X>X;.= wXwXwXwXwXwXwXwXwXwXwXwXwXwXwX",
"wXwXwXwX%.f.f.v 2X4X@XP 4.N q.I wX. ~.4Xx.a wXwXwXwXwXwXwXwXwXe.:X8.g.P.W.Q.>X>X>Xd.$.$.$.$.n @   wXwXwXwXwXwXwXwXwXwXwXwXwXwXwX",
"wXwXwXwXg g *.M 2X6XXX# 4 K J x b `.6X,Xv wXwXwXwXwXwXwXwXwXwX).4XC 3.P.Q.>XL.m m %.=.=.= O O wXwXwXwXwXwXwXwXwXwXwXwXwXwXwXwXwX",
"wXwXwXwXwXwX1., +XOX4X:X,X/ + R '.3X4Xc.x wXwXwXwXwXwXwXwXwXwX).6X2Xp d.P.d.N :.-.-.-.n wXwXwXwXwXwXwXwXwXwXwXwXwXwXwXwXwXwXwXwX",
"wXwXwXwXwXwXe - 0.3X6X6X1X*X1X#X[.[.,Xv wXwXwXwXwXwXwXwXwXwXwXe.OX8.s.N.m n ;.1.1.t X wXwXwXwXwXwXwXwXwXwXwXwXwXwXwXwXwXwXwXwXwX",
"wXwXwXwXwXwX1 }.6X6X6X6X6X6X6X6X#X{.l.x wXwXwXwXwXwXwXwXwXwXwX).8Xh M m :.1.;.b e wXwXwXwXwXwXwXwXwXwXwXwXwXwXwXwXwXwXwXwXwXwXwX",
"wXwXwXwXwXw _.6X6X6X6X1X6X2X#X1X X'.c wXwXwXwXwXwXwXwXwXwXwXwX).8Xi @ g 1.5.b   wXwXwXwXwXwXwXwXwXwXwXwXwXwXwXwXwXwXwXwXwXwXwXwX",
"wXwXwXwXwX  r.6X6X4X<X<X1Xc.e.D.{.'.F wXwXwXwXwXwXwXwXwXwXwXwXOX6XG J 4.N j f wXwXwXwXwXwXwXwXwXwXwXwXwXwXwXwXwXwXwXwXwXwXwXwXwX",
"wXwXwXwXwXwX! 1X6X3X].1Xc.0X7XD.{.{.n.x wXwXwXwXwXwXwXwXwXwXoX2XQ Y 5.5.M wXwXwXwXwXwXwXwXwXwXwXwXwXwXwXwXwXwXwXwXwXwXwXwXwXwXwX",
"wXwXwX[.<.wXR ,X6X1X8.a./.;X}.x.[.{.v.y E wXwXwXwXa wXwXwX! ).y., P 5.N t wXwXwXwXwXwXwXwXwXwXwXwXwXwXwXwXwXwXwXwXwXwXwXwXwXwXwX",
"wXp.4X<XoXZ.].4X6X4X].l././.{.'.x.'.l.: x.F wXwXE q.9.% w.XXz.h P 5.5.wXwXwXwXwXwXwXwXwXwXwXwXwXwXwXwXwXwXwXwXwXwXwXwXwXwXwXwXwX",
"c p.6X6X6X8X6X6X6X4X%X[.[.[.[.[.r.^.z.: ^.K v e.).[.E t e.XXp P 5.5.wXwXwXwXwXwXwXwXwXwXwXwXwXwXwXwXwXwXwXwXwXwXwXwXwXwXwXwXwXwX",
"- u.6X6X_.q.,X6X#X#X'.[.R : 1 : j D.z.: '.v.W w.[.[.|.J 2X`.< 5.5.t wXwXwXwXwXwXwXwXwXwXwXwXwXwXwXwXwXwXwXwXwXwXwXwXwXwXwXwXwXwX",
"# l.).].,.oX4X#XD.k.: % < t s o R [.k.2 [.[.'.n.q.:X8.:X1X0.6 6.N wXwXwXwXwXwXwXwXwXwXwXwXwXwXwXwXwXwXwXwXwXwXwXwXwXwXwXwXwXwXwX",
"wX2 l.c.).4X+Xz.: * 9 0 l j x = 0.'.2 x.[.'.%X4X3X4X3X6XOXi <.7.6.4 wXwXwXwXwXwXwXwXwXwXwXwXwXwXwXwXwXwXwXwXwXwXwXwXwXwXwXwXwXwX",
"wXv v.[.[.^.6 . 9 { ` ` 8 , s s l.k.% b.{.[.,X6X6X6X6X6X6X`.y 7.%.wXwXwXwXwXwXwXwXwXwXwXwXwXwXwXwXwXwXwXwXwXwXwXwXwXwXwXwXwXwXwX",
"wXwXJ ^. Xh wXwXwX` ' ) ` 8   y c.& X F [.*X6X5X6X6X6X4X6X$XL 5.=.wXwXwXwXwXwXwXwXwXwXwXwXwXwXwXwXwXwXwXwXwXwXwXwXwXwXwXwXwXwXwX",
"wXwXwXF ^ 6 wXwX` ] O.] [ ' q 0.x.% wXc z.5X5X6X4X6X6X6X4X4X).q.n.l.K wXwXwXwXwXwXwXwXwXwXwXwXwXwXwXwXwXwXwXwXwXwXwXwXwXwXwXwXwX",
"wXwXwXwX  wXwXwX] +.-X#.#.] j.[.J wXwXwX6 8X6X6X4X6X6X6X4X4X6X1X{.l.L wXwXwXwXwXwXwXwXwXwXwXwXwXwXwXwXwXwXwXwXwXwXwXwXwXwXwXwXwX",
"wXwXwXwXwXwXwXt.O.F.-X-X#. .).u.F wXwXwXk $X<X6X1X4X6X6X6X6X4X1X'.q.K wXwXwXwXwXwXwXwXwXwXwXwXwXwXwXwXwXwXwXwXwXwXwXwXwXwXwXwXwX",
"wXwXwXwXwXwXF o.#.=X-X=X| ~ ^.K wXwXwXwXk ].).3X*X4X5X5X6X5X6X<X'.{.E K v wXwXwXwXwXwXwXwX9.9.e.l.u.e.r.wXwXwXwXwXwXwXwXwXwXwXwX",
"wXwXwXwXwX! %X| =X=XX.@.X.&Xe.F wXwXwXwX7 ,XXX%X1X6X6X5X5X6X4X X{.{.K ,.E E b v wXwXv v x.).v.'.[.{.'.v.Q c x wXwXwXwXwXwXwXwXwX",
"wXwXwXwX^.^.o.G.=X..(.[ z ).Z y wXwXwXwX7 4X4X3X4X6X4X6X5X5X<X'.[.,.K ,.0.w.Q ,.K L ,.u.[.[.[.[.[.[.[.{.v.l.q.s   wXwXwXwXwXwXwX",
"wXwXwXwX*X9X .{ F.} 9X(.n.oXu wXwXwXwXwXK 6X6X6X4X6X6X6X5X3X X{.[.Y e.K W 0.w.9.9.9.v.[.[.[.[.{.'.[.q.n.[.'.'.l.U X wXwXX wXwXwX",
"wXwXwXwXG x.W , * : b.%X$X[.h wXwXwXwXwXwXq.6X5X6X6X4X4X X[.{.[.l.l.{.v.5 R q.r.0.0.A.[.{.{.'.x.F F F F J v v.'.'.9.b wXZ 5 wXwX",
"wXwXwXwXwXH {.$X,X,X<X[. X,.wXwXwXwXwXwXwXh {.<X4X4X#X[.[.{.{.[.{.{.{.{.R > 9.9.q.9.9.A.).v.J B wXwXwXwXwXwXx F v.'.q.j e.6 wXwX",
"wXwXwXwXwXV '.[.[.[.[.{.v.h wXwXwXwXwXwXK R C D.].[.[.[.{.D.D.[.{.[.{.{.b.- H ,.9.R T R F v wXwXwXwXwXwXwXwXwXwXx K v.v.'.E wXwX",
"wXwXwXwXwXwXU r.( 0.0.! < wXwXwXwXwXwXwXE [.q.T u.l.{.l.u.K F l.[.[.{.[.'.s o x J h . o wXwXwXwXwXwXwXwXwXwXwXwXwXwXE 9.l.[.wXwX",
"wXwXwXwXwXwXwXo       wXwXwXwXwXwXwXwXF {.{.[.v.K c q.c g x < 7 R b.&X[.x.k < wXc wXwXwXwXwXwXwXwXwXwXwXwXwXwXwXJ e.'.v.9.l.* wX",
"wXwXwXwXwXwXwXwXwXwXwXwXwXwXwXwXwXwXwXF [.[.[.[.k.9.x wXwXwXwXwX  h H 9.9.9.E a wXwXwXwXwXwXwXwXwXwXwXwXwXwXwXc K K 9.v.e.^ 4 wX",
"wXwXwXwXwXwXwXwXwXwXwXwXwXwXwXwXwXwXwXj U [.#Xn.Q K c wXwXwXwXwXwXwX= c Q ( Q F wXwXwXwXwXwXwXwXwXwXwXwXwXwXwXwXwXa c F ! 9.y X ",
"wXwXwXwXwXwXwXwXwXwXwXwXwXwXwXwXwXwXwXwX% i u C Q v wXwXwXwXwXwXwXwXx Q ^ F K T a wXwXwXwXwXwXwXwXwXwXwXwXwXwXwXwXwXwXwXv F o   ",
"wXwXwXwXwXwXwXwXwXwXwXwXwXwXwXwXwXwXwXwXwXy h c W v wXwXwXwXwXwXwXwXwXF W j B e.F wXwXwXwXwXwXwXwXwXwXwXwXwXwXwXwXwXwXwXwXwXr wX",
"wXwXwXwXwXwXwXwXwXwXwXwXwXwXwXwXwXwXwXwXwXF E 4 C n.- wXwXwXwXwXwXwXwX% r.b wX,.H $ wXwXwXwXwXwXwXwXwXwXwXwXwXwXwXwXwXwXwXwXwXwX",
"wXwXwXwXwXwXwXwXwXwXwXwXwXwXwXwXwXwXwXwXwXwXE G wX1 U + wXwXwXwXwXwXwXwX2 ! X wXh u wXwXwXwXwXwXwXwXwXwXwXwXwXwXwXwXwXwXwXwXwXwX",
"wXwXwXwXwXwXwXwXwXwXwXwXwXwXwXwXwXwXwXwXwXwXv c wXwX# wXwXwXwXwXwXwXwXwXwX+   wX$ % wXwXwXwXwXwXwXwXwXwXwXwXwXwXwXwXwXwXwXwXwXwX"
};
