/* XPM */
static char *result[] = {
/* columns rows colors chars-per-pixel */
"64 64 229 2 ",
"   c #010102",
".  c #0A090C",
"X  c #07050A",
"o  c #0D0C11",
"O  c #0B0714",
"+  c #160C16",
"@  c #131215",
"#  c #19161C",
"$  c #19161C",
"%  c #18060B",
"&  c #1D1A21",
"*  c #1C1626",
"=  c #13092B",
"-  c #211D25",
";  c #221B2D",
":  c #3A1226",
">  c #251B39",
",  c #26232C",
"<  c #29242E",
"1  c #232227",
"2  c #2A2431",
"3  c #2D2B33",
"4  c #2C243B",
"5  c #332D3C",
"6  c #302938",
"7  c #36333D",
"8  c #2E0611",
"9  c #521629",
"0  c #7D1F3E",
"q  c #681A34",
"w  c #4B2735",
"e  c #3D6939",
"r  c #261450",
"t  c #352B44",
"y  c #3C2D4E",
"u  c #352A4D",
"i  c #3B3442",
"p  c #393844",
"a  c #392C55",
"s  c #3D2E5D",
"d  c #372953",
"f  c #3E3252",
"g  c #2E2246",
"h  c #2E1766",
"j  c #341D66",
"k  c #321A69",
"l  c #3D276B",
"z  c #3E2471",
"x  c #443C4C",
"c  c #403847",
"v  c #432D5D",
"b  c #463A58",
"n  c #533441",
"m  c #792243",
"M  c #78325F",
"N  c #433362",
"B  c #493A66",
"V  c #4D3D6B",
"C  c #4A3467",
"Z  c #543C6C",
"A  c #442977",
"S  c #4C367B",
"D  c #543D75",
"F  c #7C3D6E",
"G  c #46404E",
"H  c #4B4353",
"J  c #4B445D",
"K  c #4A4A57",
"L  c #524A5B",
"P  c #51465D",
"I  c #4E4264",
"U  c #554B61",
"Y  c #584F62",
"T  c #53436D",
"R  c #5A4D6C",
"E  c #534664",
"W  c #545464",
"Q  c #5A5264",
"!  c #5D546A",
"~  c #5B5A69",
"^  c #534472",
"/  c #5B4B73",
"(  c #5C4D7A",
")  c #584478",
"_  c #5E5577",
"`  c #61566C",
"'  c #64596E",
"]  c #624A7B",
"[  c #635475",
"{  c #665C73",
"}  c #63547B",
"|  c #6C5C7E",
" . c #695C78",
".. c #7A5877",
"X. c #764B6A",
"o. c #636374",
"O. c #69697B",
"+. c #6C6278",
"@. c #72667D",
"#. c #66716D",
"$. c #84253E",
"%. c #832041",
"&. c #8A2341",
"*. c #952641",
"=. c #963753",
"-. c #A8354C",
";. c #B43C51",
":. c #9C425D",
">. c #9D586F",
",. c #B5566B",
"<. c #A56377",
"1. c #B9657A",
"2. c #CD5E6D",
"3. c #D56676",
"4. c #CD6D7D",
"5. c #6F9769",
"6. c #5A3D83",
"7. c #57398D",
"8. c #5A3892",
"9. c #5C4286",
"0. c #5E508A",
"q. c #6C4D8D",
"w. c #664986",
"e. c #645583",
"r. c #6C5D83",
"t. c #6C538B",
"y. c #6A5B88",
"u. c #6A4A98",
"i. c #695492",
"p. c #715192",
"a. c #755796",
"s. c #70508F",
"d. c #6D6281",
"f. c #6E6687",
"g. c #716181",
"h. c #736A82",
"j. c #786B86",
"k. c #73648A",
"l. c #7B6C8D",
"z. c #75688B",
"x. c #6F7082",
"c. c #76778B",
"v. c #7E718B",
"b. c #76768B",
"n. c #766C95",
"m. c #7C6D93",
"M. c #756795",
"N. c #7C7C91",
"B. c #7C729D",
"V. c #7B7291",
"C. c #6F6290",
"Z. c #6B48A1",
"A. c #724DA3",
"S. c #7D56A8",
"D. c #7F58AA",
"F. c #7F54B5",
"G. c #7F64AA",
"H. c #81748F",
"J. c #837494",
"K. c #867B96",
"L. c #8A7A96",
"P. c #85769A",
"I. c #857B9B",
"U. c #8B7C9C",
"Y. c #887798",
"T. c #8D6B87",
"R. c #A67588",
"E. c #825FB1",
"W. c #8466AC",
"Q. c #8E7EA2",
"!. c #857DA5",
"~. c #8867B4",
"^. c #8D7DAC",
"/. c #D77789",
"(. c #CE6E81",
"). c #8D5DC5",
"_. c #946AC8",
"`. c #9B72CE",
"'. c #9F78CE",
"]. c #9F74D4",
"[. c #A47CD5",
"{. c #87849A",
"}. c #94859F",
"|. c #A58190",
" X c #8C84A3",
".X c #8C8BA5",
"XX c #8C85AB",
"oX c #9484A4",
"OX c #948AA4",
"+X c #928AAC",
"@X c #9A8AAA",
"#X c #9587A9",
"$X c #9494AE",
"%X c #9E91AD",
"&X c #928CB1",
"*X c #9788B5",
"=X c #9C92B3",
"-X c #9B96B9",
";X c #9E9ABC",
":X c #9895B5",
">X c #A39AAB",
",X c #A195B5",
"<X c #A49CBC",
"1X c #A89EBF",
"2X c #A299B5",
"3X c #A08EB0",
"4X c #ABA6B4",
"5X c #BBACBE",
"6X c #DD8392",
"7X c #E38B9A",
"8X c #9F8CC5",
"9X c #A39DC0",
"0X c #A681D5",
"qX c #A6A3C4",
"wX c #ABA4C4",
"eX c #AAA9C7",
"rX c #AEABCB",
"tX c #ADA7C8",
"yX c #B1ADCE",
"uX c #B1AFD1",
"iX c #B6B4D4",
"pX c #B9B9D9",
"aX c #B8B8D8",
"sX c #BBB4C1",
"dX c #BEBFE0",
"fX c #D2D5D5",
"gX c #D2CBD2",
"hX c #C4C5E5",
"jX c None",
/* pixels */
"jXjXjXjXjXjXjXjXjXjXjXjXjXjXjXN s jXjXjXjXjXjXjXjXjXjXjXjXjXjXjXjXjXjXjXjXjXjXjXjXjXjXjXjXjXjXjXjXjXjXjXjXjXjXjXjXjXjXjXjXjXjXjX",
"jXjXjXjXjXjXjXjXjXjXjXjXjXjXjXN n.T jXjXjXjXjXjXjXjX  a jXjXjXjXjXjXjXjXjXjXjXjXjXjXjXjXjXjXjXjXjXjXjXjXjXjXjXjXjXjXjXjXjXjXjXjX",
"jXjXjXjXjXjXjXjXjXjXjXjXjXjXjXN &XV jXjXjXjXjXjXjXjXG N jXjXjXjXjXjXjXjXjXjXjXjXjXjXjXjXjXjXjXjXjXjXjXjXjXjXjXjXjXjXjXjXjXjXjXjX",
"jXjXjXjXjXjXjXjXjXjXjXjXjXjXjXN &Xe.jXjXjXjXjXjXjX1 .X^ jXjXjXjXjXjXjXjXjXjXjXjXjXjXjXjXjXjXjXjXjXjXjXjXjXjXjXjXjXjXjXjXjXjXjXjX",
"jXjXjXjXjXjXjXjXjXjXjXjXjXjXjXN ;X&XjXjXjXjXjXjXjXO.rXV jXjXjXjXjXjXjXjXjXjXjXjXjXjXjXjXjXjXjXjXjXjXjXjXjXjXjXjXjXjXjXjXjXjXjXjX",
"jXjXjXjXjXjXjXjXjXjXjXjXjXjXjXN ;X:Xl jXjXjXjXjXp eX=XB jXjXjXjXjXjXjXjXjXjXjXjXjXjXjXjXjXjXjXjXjXjXjXjXjXjXjXjXjXjXjXjXjXjXjXjX",
"jXjXjXjXjXjXjXjXjXjXjXjXjXjXjXN ;XrXC.jXjXjXjXN {.pXn.jXjXjXjXjXjXjXjXjXjXjXjXjXjXjXjXjXjXjXjXjXjXjXjXjXjXjXjXjXjXjXjXjXjXjXjXjX",
"jXjXjXjXjXjXjXjXjXjXjXjXjXjXjXN ;XhXf.O jXjXjXr.pXuX( jXjXjXjXjXjXjXjXjXjXjXjXjXjXjXjXjXjXjXjXjXjXjXjXjXjXjXjXjXjXjXjXjXjXjXjXjX",
"jXjXjXjXjXjXjXjXjXjXjXjXjXjXjXa -XpXO.# E I N oXiX,X^ jXjXjXjXjXjXjXjXjXjXjXjXjXjXjXjXjXjXjXjXjXjXjXjXjXjXjXjXjXjXjXjXjXjXjXjXjX",
"jXjXjXjXjXjXjXjXjXjXjXjXjXjXjXo  XqXyXeX Xo ` @X1XB.jXjXjXjXjXjXjXjXjXjXjXjXjXjXjXjXjXjXjXjXjXjXjXjXjXjXjXjXjXjXjXjXjXjXjXjXjXjX",
"jXjXjXjXjXjXjXjXjXjXjXjXjXjXjX  { yXpXpX:X{..XoX%Xr.jXjXjXjXjXjXjXjXjXjXjXjXjXjXjXjXjXjXjXjXjXjXjXjXjXjXjXjXjXjXjXjXjXjXjXjXjXjX",
"jXjXjXjXjXjXjXjXjXjXjXjXjXjXjXp {.aXpXiXrXpXyX@XU./ jXjXjXjXjXjXjXjXjXjXjXjXjXjXjXjXjXjXjXjXjXjXjXjXjXjXjXjXjXjXjXjXjXjXjXjXjXjX",
"jXjXjXjXjXjXjXjXjXjXjXjXjXjXg N.dXpXaXaXpXpXaX=XM.jXjXjXjXjXjXjXjXjXjXjXjXjXjXjXjXjXjXjXjXjXjXjXjXjXjXjXjXjXjXjXjXjXjXjXjXjXjXjX",
"jXjXjXjXjXjXjXjXjXjXjXjXjXjX0.pXpXpXaXaXiXrXiX%Xl.jXjXjXjXjXjXjXjXjXjXjXjXjXjXjXjXjXjXjXjXjXjXjXjXjXjXjXjXjXjXjXjXjXjXjXjXjXjXjX",
"jXjXjXjXjXjXjXjXjXjXjXjXjXjXK pXpXpXeXrXqXe.oX@XY.T jXjXjXjXjXjXjXjXjXjXjXjXjXjXjXjXjXjXjXjXjXjXjXjXjXjXjXjXjXjXjXjXjXjXjXjXjXjX",
"jXjXjXjXjXjXjXjXjXjXjXjXjXjXp iXpXyXqXuXI.%XoX@XoX} jXjXjXjXjXjXjXjXjXjXjXjXjXjXjXjXjXjXjXjXjXjXjXjXjXjXjXjXjXjXjXjXjXjXjXjXjXjX",
"jXjXjXjXjXjXjXjXjXjXjXjXjXjXp 1XpXwX;X:X2XgX XOX@X` jXjXjXjXjXjXjXjXjXjXjXjXjXjXjXjXjXjXjXjXjXjXjXjXjXjXjXjXjXjXjXjXjXjXjXjXjXjX",
"jXjXjXjXjXjXjXjXjXjXjXjXjXjXjX=XpX<XQ.b.fX5XJ.@X@Xx jXjXjXjXjXjXjXjXjXjXjXjXjXjXjXjXjXjXjXjXjXjXjXjXjXjXjXjXjXjXjXjXjXjXjXjXjXjX",
"jXjXjXjXjXjXjXjXjXjXjXjX@XT T -XdXqX/ {.5.>XY.@X@XG jXjXjXjXjXjXjXjXjXjXjXjXjXjXjXjXjXjXjXjXjXjXjXjXjXjXjXjXjXjXjXjXjXjXg.g.jXjX",
"jXjXjXjXjXjXjXjXjXjXjX<XrX-X;XrXpX;XN 7 e K.oXoXY.J.- jXjXs s jXjXjXjXjXjXjXjXjXjXjXjXjXjXjXjXjXjXjXjXjXjXjXjXjXjXjX| =Xv.jXjXjX",
"jXjXjXjXjXjXjXjXjXjXjX=XdXpXpXpXpXeXB.Q #.U.@X}.H.@X, jXjX} e.jXjXjXjXjXjXjXjXjXjXjXjXjXjXjXjXjXjXjXjXjXjXjXjXjXjXT J.<Xf.jXjXjX",
"jXjXjXjXjXjXjXjXjXjXjXXXpXpXpXpXaXpXaX,X@X@X@XQ.z.oX< jXjXm.Q.b jXjXjXjXjXjXjXjXjXjXjXjXjXjXjXjXjXjXjXjXjXjXjXjXjXy.@X9X) jXjXjX",
"jXjXjXjXjXjXjXjXjXX a OXpXpXrXiXaXaX1X@XoXL.L.H.e.@X2 d V m.#Xx jXjXjXjXjXjXjXjXjXjXjXjXjXjXjXjXjXjXjXjXjXjXjXjX) <X<X<XT jXjXjX",
"jXjXjXjXjXjXjXjXjX+ & XXpXeX} -XiX=X@X@Xv.# + , U.OX2 v J.oX@XY jXjXjXjXjXjXjX                      O h jXjXjXjXXXrX<X<XT jXjXjX",
"jXjXjXjXjXjXjXy.@X2 $ U.qXn.J.rXqX3X{ 3 4 4 > $ OX! Q r.k.@XQ.t jXjXjXjX. N.  W c.N.N.c.N.N.N.b.b.N.f.k jXjXI.9X;XyX3Xm.jXjXjXjX",
"jXjXjXjXjXjXjXJ 9X7 H ` #Xr.tXiX@XQ w 8 : s l & OXx @.Q.k.Y.@X .3 jXjX7 W $XK ;XhXwXx.eXb.x.x.{.;Xx.qX0.jXjXJ.,X@X<X@XP jXjXjXjX",
"jXjXjXjXjXjX# 7 j.i o.i U.L.yXOX@.+ 9 %.m d l 2 U.G j.@X XJ.iXpX~ @ . o.aXiX$X$XwX~ . @.* + + 5 _ * 9X^.S jXjX| U.@X@Xp jXjXjXjX",
"jXjXjXjXjX. j.{ . d ; _ @X@X@XG % &.*.m q - s Z ` L @X,XiXiXaXpX-Xj.G W {..X@ $ Z o a 6 ] w.w.Z s `.0X~. Xp jXg.U.oX@Xp jXjXjXjX",
"jXjXjXjXjXH @XJ.f k.g.T J.@X .y / F &.%.0 9 + z.` L @X,XpXpXpXaXiX@X` c y.i Z Z w.Z w.) s.p.p.w.i.].Z.W.XX.XX jXL.r.@Xi jXjXjXjX",
"jXjXjXjX  Q @XT I =Xa.A.t.@X` y a.M *.&.0 q % l.I { @XwXpXpXaXaXaX,XH.[ t.B a.a.p.a.p.p.p.s.p.s.D.`.7.G. XwXG #  .r.@Xi jXjXjXjX",
"jXjXjXX 3 +.P.V [ yX!._.w.! J v w.%.;.-.=.&.w l.N k.<XaXpXaXpXpXaX3X@Xa.6.7.6.q.w.u.s.p.p.s.p.s.D.`.7.~.*XXXH.@ b H.J.6 jXjXjXjX",
"jXjXjX6 }.oXt.).~.:X-X).9.O 4 6.jX-.3.2.3.-.T.Y.N } rXpXpXaXaXaXaX,X%Xq.k k h 6.A q.p.q.q.q.q.s.S.`.7.[.'.t.Q.L P jXY jXjXjXjXjX",
"jXjX' Q.@X#Xw.).Z + t Z.j h jX}.2./.7X/.(.<.>X/ jX& +XpXpXpXaXaXaXiXwXQ.^ jXjXjXjXjXjXjXz z 6.s.S.`.s.~.) ^ y. XJ.- jXjXjXjXjXjX",
"jXjX' @X@XM.S.F.j = = A j jXjXX.3.7X7X3.=...m.jXjXR K.iXrXrXpXaXpXpXyX@Xg.N s s jXjXjXjXjXjXz S E.[.p.8X:X=X!.m.@XQ jXjXjXjXjXjX",
"jX< H.@X@Xy.E.8.h h = jXjXjX{.>.(./.(.,.R.C./ jXjXd.Y.rX4XuXaXaXaXpXrXoXJ.B T T N jXjXjXjXjX) l A.[.w.*XiXyX<XQ.@XL.Y jXjXjXjXjX",
"jXL @X@X@Xe.A.k jXjXjXjXjXl.}.6X/.1.>.:.5Xl.B jXjXo.+XwX9XpXaXaXpXpXtX@XoXT g.g.T B B jXB V J.^ 8._.0.M.+X@.K.1XoX@X@Xp jXjXjXjX",
"jXjXoX,X&Xl jXjXjXjXjXjXk.4X..,./.<.R.%.} Y jXjXjXo.9XtX1XpXiXaXpXpXwX@XQ.T r.g.| @.| Z  .J.@XH.Z.u.G.G.W   3 @XoX@X@Xc jXjXjXjX",
"jXjX@.,XXXC jXjXjXjXjXjXl.fX|.-./.<.fXT.=XY jXjXjXo.aXaXiXpXpXpXaXiX3X@XoXT | g.g.g.g.| | J.@XQ.!.9._.G.N r 2 #X@X@X@X7 jXjXjXjX",
"jXjXH.@X-XjXjXjXjXjXjXjXjXOXL.9 w n 4X2X9XY jXjXjXV.dXpXpXaXpXaXaXiX@XoXk.[ g.g.g.| g.| k.Q.@X@X@X) u.G.y.u ~ #X@XoX@X@.' X jXjX",
"jXjXL.3X-XjXjXjXjXjXjXjXjXy m.J p U Q.4X#XU jXjXjXn.yXpXaXpXaXaXpXwX@XoX/ k.g.| g.| g.| T.@X@X@X@Xi.7.G.9XO.OXQ.@X2X@X@XH.. jXjX",
"jXjXQ 3X+XjXjXjXjXjXjXjXjX& oX1XiXyX1X@XJ.a jXjXjXd &XaXpXpXpXaXiX@X@XoX} P.| g.| | g.| l.oX@XoXOX}.J.n.eXtX#Xg.*XwX@X@XJ.# jXjX",
"jXjX@ K.<XjXjXjXjXjXjXjXjX# oX@X%X@X@X@Xh.. jXjXjXo @.<XpXiXpXwX@X@X@XJ.U.J./ | g.g.g.g.| Y.@X@XY.^ C jX1 j.@.T a.e.oX@X@X! jXjX",
"jXjXX K.=X( jXjXjXjXjXjXjXjXL @X@X@X=X} 2 jXjXjXjXR c oX,X2X,X=XoX@X@XoXoXoXP E g.g.g.g.k.z.oX%Xz.N jXjXjX, 1 l z l z.OX@X{ jXjX",
"jXjXjX@X&XV jXjXjXjXjXjXjXjXt ! H H H b jXjXjXjXjXk.! | U.@X@XoX@X@XoX@X@X%X .7 | R i ' i b J P ( jXjXjXjXjXjXjXh l C.=X@X' jXjX",
"jXjXjXv.XXjXjXjXjXjXjXjXjXjXjX*       jXjXjXjXjXjXl.#X} z.J.oX@XoXY.@X#X@X@XU.2 x c   i   ; + O jXjXjXjXjXjXjXjXjXj B.1X@X' jXjX",
"jXjX  - z.jXjXjXjXjXjXjXjXjXjXjXjXjXjXjXjXjXjXjX( @X@XU.( B Y.oXl.T U.@X@XoX@X5     jXX jXjXjXjXjXjXjXjXjXjXjXjXjXj n.<X3X' jXjX",
"jXjXjX- z.jXjXjXjXjXjXjXjXjXjXjXjXjXjXjXjXjXjXjX] @X@X@Xm.[ T T B a x @XoX@X@XE X jXjXjXjXjXjXjXjXjXjXjXjXjXjXjXjXjX( +X,X' jXjX",
"jXjXjXjX! M.jXjXjXjXjXjXjXjXjXjXjXjXjXjXjXjXjXjX} @XoX@XY.| N jXjXjX& 7 J.3X@X/ X jXjXjXjXjXjXjXjXjXjXjXjXjXjXjXjXjXM.=X,X' jXjX",
"jXjXjXjX~ +XjXjXjXjXjXjXjXjXjXjXjXjXjXjXjXjXjXjXB v.3XoXk.[ N jXjXjXjX  x +.oX] 5 jXjXjXjXjXjXjXjXjXjXjXjXjXjXjXjXjXB.<X@X' jXjX",
"jXjXjXjXjX<XjXjXjXjXjXjXjXjXjXjXjXjXjXjXjXjXjXjXjXH v.@./ T jXjXjXjXjXjX  < l.g.} N jXjXjXjXjXjXjXjXjXjXjXjXjXjXjXjXn.<X@X{ jXjX",
"jXjXjXjX  x.jXjXjXjXjXjXjXjXjXjXjXjXjXjXjXjXjXjXjXo o , | Z jXjXjXjXjXjXjXv / @.} N jXjXjXjXjXjXjXjXjXjXjXjXjXjXjXjXjX&X,X` jXjX",
"jXjXjXjXjX, B jXjXjXjXjXjXjXjXjXjXjXjXjXjXjXjXjXjXg b I [ T jXjXjXjXjXjXjXB } g.@./ jXjXjXjXjXjXjXjXjXjXjXjXjXjXjXjXjX<XL.< jXjX",
"jXjXjXjXjXjX; jXjXjXjXjXjXjXjXjXjXjXjXjXjXjXjXjXjXN } B b | jXjXjXjXjXjXjXT h.[ / / jXjXjXjXjXjXjXjXjXjXjXjXjXjXjXjX&XyXJ.  jXjX",
"jXjXjXjXjXjXjXjXjXjXjXjXjXjXjXjXjXjXjXjXjXjXjXjXjXN | u < l.# jXjXjXjXjXjXjX| V B | B jXjXjXjXjXjXjXjXjXjXjXjXjXjXjXM.yXK.. jXjX",
"jXjXjXjXjXjXjXjXjXjXjXjXjXjXjXjXjXjXjXjXjXjXjXjXjXjXk.V jXY $ jXjXjXjXjXjXjXT T V J.T jXjXjXjXjXjXjXjXjXjXjXjXjXjXjXjX&X{.. jXjX",
"jXjXjXjXjXjXjXjXjXjXjXjXjXjXjXjXjXjXjXjXjXjXjXjXjXjXV N jX@   jXjXjXjXjXjXjXb } jXr.x jXjXjXjXjXjXjXjXjXjXjXjXjXjXjXjX<XoXjXjXjX",
"jXjXjXjXjXjXjXjXjXjXjXjXjXjXjXjXjXjXjXjXjXjXjXjXjXjXjXjXjXjXjXjXjXjXjXjXjXjXL t , ! - jXjXjXjXjXjXjXjXjXjXjXjXjXjXjXe.:X,XjXjXjX",
"jXjXjXjXjXjXjXjXjXjXjXjXjXjXjXjXjXjXjXjXjXjXjXjXjXjXjXjXjXjXjXjXjXjXjXjXjXjX3 jX& 5 jXjXjXjXjXjXjXjXjXjXjXjXjXjXjXjXe.&X+.jXjXjX",
"jXjXjXjXjXjXjXjXjXjXjXjXjXjXjXjXjXjXjXjXjXjXjXjXjXjXjXjXjXjXjXjXjXjXjXjXjXjX  jXjX  jXjXjXjXjXjXjXjXjXjXjXjXjXjXjXjXqX.X$ jXjXjX",
"jXjXjXjXjXjXjXjXjXjXjXjXjXjXjXjXjXjXjXjXjXjXjXjXjXjXjXjXjXjXjXjXjXjXjXjXjXjXjXjXjXjXjXjXjXjXjXjXjXjXjXjXjXjXjXjXjXjX!.L jXjXjXjX",
"jXjXjXjXjXjXjXjXjXjXjXjXjXjXjXjXjXjXjXjXjXjXjXjXjXjXjXjXjXjXjXjXjXjXjXjXjXjXjXjXjXjXjXjXjXjXjXjXjXjXjXjXjXjXjXjXjXe.rXK jXjXjXjX",
"jXjXjXjXjXjXjXjXjXjXjXjXjXjXjXjXjXjXjXjXjXjXjXjXjXjXjXjXjXjXjXjXjXjXjXjXjXjXjXjXjXjXjXjXjXjXjXjXjXjXjXjXjXjXjXjXjXC.$X3 jXjXjXjX",
"jXjXjXjXjXjXjXjXjXjXjXjXjXjXjXjXjXjXjXjXjXjXjXjXjXjXjXjXjXjXjXjXjXjXjXjXjXjXjXjXjXjXjXjXjXjXjXjXjXjXjXjXjXjXjXjXjXJ L jXjXjXjXjX",
"jXjXjXjXjXjXjXjXjXjXjXjXjXjXjXjXjXjXjXjXjXjXjXjXjXjXjXjXjXjXjXjXjXjXjXjXjXjXjXjXjXjXjXjXjXjXjXjXjXjXjXjXjXjXjXjXjX    jXjXjXjXjX"
};
