/* XPM */
static char *result[] = {
/* columns rows colors chars-per-pixel */
"64 64 222 2 ",
"   c #010101",
".  c #08060B",
"X  c #0E0D10",
"o  c #0F0A1C",
"O  c #120D18",
"+  c #141116",
"@  c #1B161C",
"#  c #15121B",
"$  c #340E1C",
"%  c #0E0623",
"&  c #170E2D",
"*  c #1C1824",
"=  c #1B0D3C",
"-  c #1E1336",
";  c #221D25",
":  c #221B2C",
">  c #261B39",
",  c #252229",
"<  c #2B2435",
"1  c #2E2A33",
"2  c #2A213B",
"3  c #312B39",
"4  c #36313C",
"5  c #481F2E",
"6  c #7C1E3E",
"7  c #6E1935",
"8  c #2B1854",
"9  c #311C5A",
"0  c #241346",
"q  c #2D2241",
"w  c #2F2348",
"e  c #362949",
"r  c #3C3543",
"t  c #3C3947",
"y  c #3A2B54",
"u  c #3D2E5D",
"i  c #372656",
"p  c #3F3451",
"a  c #2F1866",
"s  c #3B226B",
"d  c #7E1F40",
"f  c #443D4B",
"g  c #412E56",
"h  c #46395D",
"j  c #443953",
"k  c #4B274E",
"l  c #77294B",
"z  c #433362",
"x  c #4A3A66",
"c  c #4D3D6B",
"v  c #4B3568",
"b  c #442975",
"n  c #4D3675",
"m  c #52367C",
"M  c #543C77",
"N  c #4B3468",
"B  c #46414F",
"V  c #4B4354",
"C  c #4B4859",
"Z  c #524B5C",
"A  c #524253",
"S  c #4F4163",
"D  c #514365",
"F  c #564B63",
"G  c #53436D",
"H  c #5A4D6B",
"J  c #56486B",
"K  c #5B5568",
"L  c #554472",
"P  c #594375",
"I  c #564A73",
"U  c #5B4B74",
"Y  c #5C4B7A",
"T  c #5A467A",
"R  c #5E5777",
"E  c #62566C",
"W  c #654C76",
"Q  c #625375",
"!  c #665974",
"~  c #695E75",
"^  c #63537C",
"/  c #6B5B7D",
"(  c #695678",
")  c #666378",
"_  c #696578",
"`  c #70607F",
"'  c #86223E",
"]  c #8B303D",
"[  c #842240",
"{  c #872947",
"}  c #9A2D46",
"|  c #853D5B",
" . c #A93950",
".. c #8D4559",
"X. c #AB455D",
"o. c #BA4256",
"O. c #825465",
"+. c #AC5C72",
"@. c #B06579",
"#. c #C84A5B",
"$. c #D15160",
"%. c #D56373",
"&. c #768A78",
"*. c #4C2D82",
"=. c #5B3E85",
"-. c #57398B",
";. c #573590",
":. c #623F93",
">. c #5D4381",
",. c #5F4388",
"<. c #64448B",
"1. c #654C8A",
"2. c #6C4D8D",
"3. c #634885",
"4. c #6D5D83",
"5. c #695886",
"6. c #6D4D91",
"7. c #6D4B9B",
"8. c #6B4796",
"9. c #6D5891",
"0. c #735294",
"q. c #76549E",
"w. c #715195",
"e. c #6A6283",
"r. c #6C618A",
"t. c #6E6C85",
"y. c #716282",
"u. c #74658B",
"i. c #7B6C8D",
"p. c #766B88",
"a. c #7D728B",
"s. c #776E96",
"d. c #7D6E91",
"f. c #766B97",
"g. c #7D7192",
"h. c #7C739A",
"j. c #7C7A96",
"k. c #734EA4",
"l. c #744BAC",
"z. c #7451A4",
"x. c #7C54AD",
"c. c #7B59A3",
"v. c #7E53B3",
"b. c #6B44A4",
"n. c #827494",
"m. c #867699",
"M. c #857A9C",
"N. c #8B7C9C",
"B. c #807A96",
"V. c #8C778F",
"C. c #805BAB",
"Z. c #865ABB",
"A. c #885CBD",
"S. c #8357B7",
"D. c #8462AA",
"F. c #8566A9",
"G. c #847DA5",
"H. c #8C7FA1",
"J. c #8C68B6",
"K. c #946FBE",
"L. c #DB7787",
"P. c #CD6E83",
"I. c #8C5DC4",
"U. c #8F5FC8",
"Y. c #905FC8",
"T. c #8F61C5",
"R. c #8D69C0",
"E. c #926BC3",
"W. c #9161C9",
"Q. c #9A6DCE",
"!. c #9466CA",
"~. c #9B75CB",
"^. c #9873C4",
"/. c #9C6FD1",
"(. c #9F73D1",
"). c #9F78D0",
"_. c #A175D3",
"`. c #A57DD5",
"'. c #A87FD8",
"]. c #8D819C",
"[. c #83849A",
"{. c #948199",
"}. c #B48E9A",
"|. c #8C82A2",
" X c #8A84A7",
".X c #9585A5",
"XX c #988AA7",
"oX c #9887A9",
"OX c #948BAB",
"+X c #998AAA",
"@X c #9888A7",
"#X c #9A96AB",
"$X c #978EB1",
"%X c #9692B5",
"&X c #9D93B3",
"*X c #9D9ABA",
"=X c #9C97B8",
"-X c #A194B4",
";X c #A39ABA",
":X c #A99FBF",
">X c #AB96AB",
",X c #B6ACBD",
"<X c #A2AEA6",
"1X c #DF8797",
"2X c #E18A9A",
"3X c #A880D8",
"4X c #A49FC0",
"5X c #A6A4C2",
"6X c #ABA4C4",
"7X c #ADAACA",
"8X c #A9A6C8",
"9X c #B1ADCD",
"0X c #B5B4D4",
"qX c #B9B9D9",
"wX c #B9B8D7",
"eX c #B1B2CF",
"rX c #B087E1",
"tX c #C3BEC6",
"yX c #CFCAD4",
"uX c #DCE0DC",
"iX c #C0C1E1",
"pX c None",
/* pixels */
"pXpXpXpXpXpXpXpXpXpXpXpXpXpXpXpXpXpXpXpXpXpXpXpXpXpXpXpXpXpXpXpXpXpXpXpXpXpXpXpXpXpXpXpXpXpXpXpXpXpXpXpXpXpXpXpXpXpXpXpXpXpXpXpX",
"pXpXpXpXpXpXpXpXpXpXpXpXpXpXpXpXpXpXpXpXpXpXpXpXpXpXpXpXpXpXpXpXpXpXpXpXpXpXpXpXpXpXpXpXpXpXg.g.pXpXpXpXpXpXpXpXpXpXpXpXpXpXpXpX",
"pXpXpXpXpXpXpXpXpXpXpXpXpXpXpXpXpXpXpXpXpXpXpXpXpXpXpXpXpXpXpXpXpXpXpXpXpXpXpXpXpXpXpXpX:X=XOXe.x pXpXpXpXpXpXpXpXpXpXpXpXpXpXpX",
"pXpXpXpXpXpXpXpXpXpXpXpXpXpXpXpXpXpXpXpXpXpXpXpXpXpXpXpXpXpXpXpXpXpXpXpXpXpXpXpXpXXX:X;Xh.j.T s pXpXpXpXpXpXpXpXpXpXpXpXpXpXpXpX",
"pXpXpXpXpXpXpXpXpXpXpXpXpXpXpXpXpXpXpXpXpXpXpXpXpXpXpXpXpXpXpXpXpXpXpXpXpXpXpX@X.X4Xs.9.7.k.*.pXpXpXpXpXpXpXpXpXpXpXpXpXpXpXpXpX",
"pXpXpXpXpX/ y.pXpXpXpXpXpXpXpXpXpXpXpXpXpXpXpXpXpXpXpXpXpXpXpXpXpXpXpXpXpXpXpX7X8Xf.k.v.v.*.b pXpXpXpXpXpXpXpXpXpXpXpXpXpXpXpXpX",
"pXpXpXpXpXc OXa.pXpXpXpXpXpXpXpXpXpXpXpXpXpXpXpXpXpXpXpXpXpXpXpXpXpXpXpX+X+X6XG.L c I.Y.l.a pXpXpXpXpXpXpXpXpXpXpXpXpXpXpXpXpXpX",
"pXpXpXpXpXpXT %Xn.i.pXpXpXpXpXpXpXpXpXpXpXpXpXpXpXpXpXpXpXpXpXpXpXpXpXpX&X9X5Xf.b.I.U.U.S.pXpXpXpXpXpXpXpXpXpXpXpXpXpXpXpXpXpXpX",
"pXpXpXpXpXpX1.L %XOXn.g.pXpXpXpXpXpXpXpXpXpXpXpXpXpXpXpXpXpXpXpXpXpXpX-X;XG.M k.W.W.W.v.8 pXpXpXpXpXpXpXpXpXpXpXpXpXpXpXpXpXpXpX",
"pXpXpXpXpXpX2.3.n 5.wX|.pXpXpXpXpXpXpXpXpXpXpXpXpXpXpXpXpXpXpXpXpXpX;X0XG.7.Y.W.W.U.U.:.pXpXpXpXpXpXpXpXpXpXpXpXpXpXpXpXpXpXpXpX",
"pXpXpXpXpXpXpXS.Z.1.|.=Xg.pXpXpXpXpXpXpXpXpXpXpXpXpXpXpXpXpXpXpXpX@X9Xh.n W.W.U.Y.U.S.= pXpXpXpXpXpXpXpXpXpXpXpXpXpXpXpXpXpXpXpX",
"pXpXpXpXpXpXpXq.W.Z.1.|.*Xi.pXpXpXpXpXpXpXpXpXpXpXpXpXpXpXpXpXpXpX=Xh.7.z.T.U.W.Q.(.S.0 pXpXpXpXpXpXpXpXpXpXpXpXpXpXpXpXpXpXpXpX",
"pXpXpXpXpXpXpXpXx.W.Z.3.|.i.pXpXpXpXpXpXpXpXpXpXpXpXpXpXpXpXpXpX.X;XC.W.W.W.W.U._.3XE.& pXpXpXpXpXpXpXpXpXpXpXpXpXpXpXpXpXpXpXpX",
"pXpXpXpXpXpXpXpXq.W.W.<.i..XpXpXpXpXpXpXpXpXpXpXpXpXpXpXpXpXpXpX$X=X3.A.U.W.W.Q.3X3XT.pXpXpXpXpXpXpXpXpXpXpXpXpXpXpXpXpXpXpXpXpX",
"pXpXpXpXpXpXpXpXq.!.W.I.T d.y.pXpXpXpXpXpXpXpXpXpXpXpXpXpXpXpXp.].^ x.U.W.W.(.3X3X`.-.pXpXpXpXpXpXpXpXpXpXpXpXpXpXpXpXpXpXpXpXpX",
"pXpXpXpXpXpXpXpXq.E._.W.n Y Q pXpXpXpXpXpXpXpXpXpXpXpXpXpXpXpX|.&XG v.Y.I.!.'.3X3X`.v.pXpXpXpXpXpXpXpXpXpXpXpXpXpXpXpXpXpXpXpXpX",
"pXpXpXpXpXpXpXpXpXD.3X/.> ! r.U pXpXpXpXpXpXpXpXpXpXpXpXpXpXr m.5.N Z.Y.Y.!.3X3X3X`.8 pXpXpXpXpXpXpXpXpXpXpXpXpXpXpXpXpXpXpXpXpX",
"pXpXpXpXpXpXpXpX0.^.3X(.y . 5Xm.u u pXpXpXpXpXpXpXpXpX6X*XC e E ~ S x.Y.W.~.3X3X3X3XJ pXpXpXpXpXpXpXpXpXpXpXpXpXpXpXpXpXpXpXpXpX",
"pXpXpXpXpXpXpXpXc._.rXc.h.~ &X.Xu.^ pXpXpXpXpXpXpXpXpXK eX8Xy B *Xa.>.I.!.3X3X3X`.`.7.pXpXpXpXpXpXpXpXpXpXpXpXpXpXpXpXpXpXpXpXpX",
"pXpXpXpXpXpXpXpXpXJ.2.e.=Xm.n.V ;X) pXpXpXpXpXpXpXpX3 2 I V p.Z [.;XL Z.`.3X3X3X3X`.> pXpXpXpXpXpXpXpXpXpXpXpXpXpXpXpXpXpXpXpXpX",
"pXpXpXpXpXpXpXpXpXF.P _ Z H / q F ) pXpXpXpXpXpXpXpXpXpXg z +XN.V h z.!.3X3X3X3X3X`.D.. pXpXpXpXpXpXpXpXpXpXpXpXpXpXpXpXpXpXpXpX",
"pXpXpXpXpXpXpXpXpXD.`.D 1.T Q / q X pXpXpXpXpXpXpXpXpXY m.Q +X@X].J.U.!.`.3X3X3X3X3XK.. pXpXpXpXpXpXpXpXpXpXpXpXpXpXpXpXpXpXpXpX",
"pXpXpXpXpXpXpXpXpXJ.3X`.'.~.e N.K   pXpXpXpXpXpXpXpX@X X.Xg.|.&XH.J.U.W.`.3X3X3X3X3X~.< pXpXpXpXpXpXpXpXpXpXpXpXpXpXpXpXpXpXpXpX",
"pXpXpXpXpXpXpXpXc.3X3X3X3X3XZ.T E   pXpXpXpXpXpXpXpXpX  pXu 4.7X^ k.W.W.3X3X3X3X3X3X3XF.  pXpXpXpXpXpXpXpXpXpXpXpXpXpXpXpXpXpXpX",
"pXpXpXpXpXpXpX~.K.3X3X3X3X_.Z.Y _ & pXpXpXpXpXpXpXpXpXpXpXpXY $X4.k.W.!.'.3X'.3X3X`.3XJ.% pXpXpXpXpXpXpXpXpXpXpXpXpXpXpXpXpXpXpX",
"pXpXpXpXpXpX0.~.w.c.3X`.Q.0.F./ p.pXpXpXpXpXpXpXpXpXpXpXpXpXpXG.s.k.W.(.'.3X3X3X3X3X3X_.q.e pXpXpXpXpXpXpXpXpXpXpXpXpXpXpXpXpXpX",
"pXpXpXpXpX0.J.9.h.1.3X(.I.M a.1 pXpXpXpXe pXpXpXpXpXpXpXpXpXm.eXR <.W.Q.`.3X'.3X3X3X3X3XrXz.pXpXpXpXpXpXpXpXpXpXpXpXpXpXpXpXpXpX",
"pXpXpXpX0.0.^.Y =X1.(.W.I.M p.. pXpXpXt.L pXpXpXpXpXpXpXpXpXpX%X5Xj l.!.3X'.3X3X3X3X3X`.3X~.~.-.pXpXpXpXpXpXpXpXpXpXpXpXpXpXpXpX",
"pXpXpXpXz.`.~.Y 0X X8.x.0.c n.u pXpXt.0XI pXpXpXpXpXpXpXpXpXpXOXh.7.U.`.3X3X3X3X_.~.E.-.T.z.M < pXpXpXpXpXpXpXpXpXpXpXpXpXpXpXpX",
"pXpXpXpXm K.A.T 0X%XY w.w.c m.z pX_ qX$Xc pXpXpXpXpXpXpXpXpXpXOX X8.I._.3X_.R.E.-.b b v 8 =     pXpXpXpXpXpXpXpXpXpXpXpXpXpXpXpX",
"pXpXpXpXpXm 1.h 0XqXf.w M P u.z h.qX0XR pXpXpXpXpXpXpXpXpXpX/  XiXr 8.!.~.q.b b <.0.2..   pXpXpXpXpXpXpXpXpXpXpXpXpXpXpXpXpXpXpX",
"pXpXpXpXpXpXn * eXeX[.C e.f > r.&X0X.XG pXpXpXpXpXpXpXpXpXpXpX.X*XG v.b.;.b 0.0.>.g y pXpXpXpXpXpXpXpXpXpXpXpXpXpXpXpXpXpXpXpXpX",
"pXpXpXpXpXpX& ) +X7XqXiX7Xt._ @X@X=X4.pXpXpXpXpXpXpXpXpXpXpXn.8X*XL x.=.m 3.0.=.s pXpXpXpXpXpXpXpXpXpXpXpXpXpXpXpXpXpXpXpXpXpXpX",
"pXpXpXpXpXa a.0X5XqXqXwX9XqXqX:X+Xd.c pXpXpXpXpXpXpXpXpXpXpXg.*X7X3 s w.0.M : > pXpXpXpXpXpXpXpXpXpXpXpXpXpXpXpXpXpXpXpXpXpXpXpX",
"pXpXpXpXpXo =XqXqXwXwX0XqXwX0X9X+X4.pXpXpXpXpXpXpXpXpXpXpXpXM.0X) g 3.2.6.M = pXpXpXpXpXpXpXpXpXpXpXpXpXpXpXpXpXpXpXpXpXpXpXpXpX",
"pXpXpXpXpX  n.0XqXwX6X7X7Xu.n.+X+Xm.G pXpXpXpXpXpXpXpXpXpXpX7X0X X5.0.2.9 O pXpXpXpXpXpXpXpXpXpXpXpXpXpXpXpXpXpXpXpXpXpXpXpXpXpX",
"pXpXpXpXpXpXu.eXqX5X;X7Xn.yX#X@X@X+XW pXpXpXpXpXpXpXpXpXpXpX].s.q c 2.M pXpXpXpXpXpXpXpXpXpXpXpXpXpXpXpXpXpXpXpXpXpXpXpXpXpXpXpX",
"pXpX-X;Xh.5.M.0XqX=Xh.h.<XuXn..XoX+Xr 2 pXpXpXU L pXpXpXpXOX Xp 0.2.9 . pXpXpXpXpXpXpXpXpXpXpXpXpXpXpXpXpXpXpXpXpXpXpXpXpXpXpXpX",
"pX^ %XqXqXqXqXqXqX7Xg.#X&.#XN.@X.X.X! < D pX^ +Xg.s.pXpXOX7X` 0.0.0.# pXpXpXpXpXpXpXpXpXpXpXpXpXpXpXpXpXpXpXpXpXpXpXpXpXpXpXpXpX",
"pX3 |.qXqX X X0XqXqX9X&X+X+X+X+Xd.4.&X1 / 4.( +X+Xg.e u.7XZ z 0.v + pXpXpXpXpXpXpXpXpXpXpXpXpXpXpXpXpXpXpXpXpXpXpXpXpXpXpXpXpXpX",
"pX; N.;X Xu.%X0XeX;X&XoX@Xf 3 3 j N.+X< p.+Xi.n.OXr.s.wX9XF y 0.g % pXpXpXpXpXpXpXpXpXpXpXpXpXpXpXpXpXpXpXpXpXpXpXpXpXpXpXpXpXpX",
"pX; n.N./ =XeX&X@X.XE @ ; 2 q - 4 &XZ K .X+X9X:X9X8XeXqX5Xe T w.i pXpXpXpXpXpXpXpXpXpXpXpXpXpXpXpXpXpXpXpXpXpXpXpXpXpXpXpXpXpXpX",
"pXc .X.X.X].1 + @ 5 d 7 k z y < N.A V .X@X&X0XqXqXqXqXqX:X< 5.=.9 pXpXpXpXpXpXpXpXpXpXpXpXpXpXpXpXpXpXpXpXpXpXpXpXpXpXpXpXy.pXpX",
"pXpXY .X+X1 pXpX' } d d $ > y ^ ~   2 m.-X0XqXwXwXwXqXwXqX*XL 1.m pXpXpXpXpXpXpXpXpXpXpXpXpXpXpXpXpXpXpXpXpXpXpXpXpXpXpXi.i.u.pX",
"pXpXpXJ _ , pXpXpX[ [ 6 6 $ + N.H pXpXQ 8XqX0XqXqX0XqXqXwX0X|.P 4.G pXpXpXpXpXpXpXpXpXpXpXpXpXpXpXpXpXpXpXpXpXpXpXpXu.+X+X$Xd.pX",
"pXpXpXpX  pXpXpX' o.#. .} [ A n.z pXpX  #XqXqXqXqXqXqXqXwX0X5X6XH.P u pXpXpXpXpXpXpXpXpXpXpXpXpXpXpXpXpXpXpXG  Xs.h.6X6X7XQ pXpX",
"pXpXpXpXpXpXpXk  .%.L.1X$.l N.5.pXpXpXC ].0X0X8XqXqXwXqXqX9X+X6X4.pXpXpXpXpXpXpXpXpXpXpXpXpXpXpXpXpXpXpXpXpXy.N.$X5X7X0XM.L pXpX",
"pXpXpXpXpXpXW {.$.2X2X2XX.{.N.z pXpX# j.n.7X;X9XqX0XqXwXqX9X+X+X5.pXpXpXpXpXpXpXpXpXpXpXpXpXpXpXpXpXpXpXpXpXpX` n.+X;X-X5.pXpXpX",
"pXpXpXpXpXp.,X+.L.1X2X%.} ( N.z pXpX  j.&X9X=XwXwXwXqX0XqX9X+X+X5.pXz u pXpXpXpXpXpXpXpXpXpXpXpXpXpXpXpXpXpXpXy..X.XXX_ : pXpXpX",
"pXpXpXpX#X{...#.2X@.+.X.}.#X( z pXpX  j.0XwX0XqXwXqXqXqX0X-X@X+X/ U ( v z z pXpXpXpXpXpXpXpXpXpXpXpXpXpXpXpXN.@XH.J @XZ pXpXpXpX",
"pXpXpXpX,XtX| L.P.+.}.l W M.@ pXpXpXpXx %XwXqXqXqXqXqXqXqX6X@X.X5.i.^ H y.Q z x pXpXpXpXpXpXpXpXpXpXpXpXpXm.H.m.` < ` . pXpXpXpX",
"pXpXpXpXw i.Q ] ..O.yXXX-X.XX pXpXpXpXpXe 5X9XqXqXqXqX9X6X+X+XN.N.@X].3 F y.` W x c x z T U pXpXpX` n.+XoX+X^ z ( pXV   pXpXpXpX",
"pXpXpXpX  ` +XZ B ) .X;X&Xp.+ pXpXpXpXpXf K +X6X8X6X6X+X+X+X+X+X@X+X.Xp.@ y.y.` y.y.i.4.+XN.N.N..Xn.@X+XN.d.^ pXpXpX  pXpXpXpXpX",
"pXpXpXpXpXf ].6X8X6X-X+X@Xe pXpXpXpXpXz n.F 4.N.+X@X.XoX+X+X+X@X@X@X@XN.< j y.4.` y..XXX@X+X+X+X@X+X+X.Xy.pXpXpXpXpXpXpXpXpXpXpX",
"pXpXpXpXpXpXI .X@X+X+Xu.f pXpXpXpXpXpX4..X@Xu./ U n.+X@Xd.J F +X@X@X@XH.e ; y.` ` n.+X+XoX@XoXoX@X.Xi.U c pXpXpXpXpXpXpXpXpXpXpX",
"pXpXpXpXpXpXpX, , , : < pXpXpXpXpXpXu d.+X@X@Xg.Q U L L x y pX, E @X.Xi.Q D U y.y.i..X.XoX@XoXoX.X.Xc pXpXpXpXpXpXpXpXpXpXpXpXpX",
"pXpXpXpXpXpXpXpXpXpXpXpXpXpXpXpXpXpXu u.@X+X+Xm.` G pXpXpXpXpXpX+ @ h ` y.^ G / ! ! N.H.+Xm.n./ / pXpXpXpXpXpXpXpXpXpXpXpXpXpXpX",
"pXpXpXpXpXpXpXpXpXpXpXpXpXpXpXpXpXpXpX+ ~ n.y.U U pXpXpXpXpXpXpXpXy Q 4.( / U : . X F 1 H.u.z pXpXpXpXpXpXpXpXpXpXpXpXpXpXpXpXpX",
"pXpXpXpXpXpXpXpXpXpXpXpXpXpXpXpXpXpXpXpX+ * 3 ( J pXpXpXpXpXpXpXpXz Q ( z G / 2 pXpXz pXz pXpXpXpXpXpXpXpXpXpXpXpXpXpXpXpXpXpXpX",
"pXpXpXpXpXpXpXpXpXpXpXpXpXpXpXpXpXpXpXpXz / D j 4.j pXpXpXpXpXpXpXpXq 4.z P d.D pXpXpXpXpXpXpXpXpXpXpXpXpXpXpXpXpXpXpXpXpXpXpXpX",
"pXpXpXpXpXpXpXpXpXpXpXpXpXpXpXpXpXpXpXpXz u.y + ~ f pXpXpXpXpXpXpXpX. p.2 pXF B pXpXpXpXpXpXpXpXpXpXpXpXpXpXpXpXpXpXpXpXpXpXpXpX",
"pXpXpXpXpXpXpXpXpXpXpXpXpXpXpXpXpXpXpXpXpXY z pX, @ pXpXpXpXpXpXpXpXpXpX    pX,   pXpXpXpXpXpXpXpXpXpXpXpXpXpXpXpXpXpXpXpXpXpXpX",
"pXpXpXpXpXpXpXpXpXpXpXpXpXpXpXpXpXpXpXpXpXpXpXpXpXpXpXpXpXpXpXpXpXpXpXpXpXpXpXpXpXpXpXpXpXpXpXpXpXpXpXpXpXpXpXpXpXpXpXpXpXpXpXpX",
"pXpXpXpXpXpXpXpXpXpXpXpXpXpXpXpXpXpXpXpXpXpXpXpXpXpXpXpXpXpXpXpXpXpXpXpXpXpXpXpXpXpXpXpXpXpXpXpXpXpXpXpXpXpXpXpXpXpXpXpXpXpXpXpX"
};
