/* XPM */
static char *result[] = {
/* columns rows colors chars-per-pixel */
"64 64 222 2 ",
"   c #010102",
".  c #0C0A0D",
"X  c #05040B",
"o  c #0F0A19",
"O  c #110E13",
"+  c #130D1C",
"@  c #18151B",
"#  c #140105",
"$  c #320B17",
"%  c #0D0522",
"&  c #1C1726",
"*  c #150934",
"=  c #180C33",
"-  c #211C27",
";  c #291D3D",
":  c #251B37",
">  c #321020",
",  c #24232A",
"<  c #28242C",
"1  c #2A2532",
"2  c #2C2938",
"3  c #322B3A",
"4  c #37313E",
"5  c #781D3C",
"6  c #621828",
"7  c #63243B",
"8  c #2B1B42",
"9  c #2B1752",
"0  c #2E2343",
"q  c #3A2D4D",
"w  c #352649",
"e  c #3C3543",
"r  c #3B3647",
"t  c #3D2C54",
"y  c #3E2D5E",
"u  c #372454",
"i  c #2F1769",
"p  c #3E2375",
"a  c #3F2E60",
"s  c #7E1F40",
"d  c #423B4A",
"f  c #433449",
"g  c #43335C",
"h  c #453857",
"j  c #422C5C",
"k  c #7B294A",
"l  c #422D68",
"z  c #433362",
"x  c #4A3465",
"c  c #4A3B64",
"v  c #4D3C6B",
"b  c #493569",
"n  c #543B6B",
"m  c #472B7A",
"M  c #4C3179",
"N  c #4C3175",
"B  c #533876",
"V  c #4A4455",
"C  c #4A4A57",
"Z  c #534B5C",
"A  c #52465E",
"S  c #53555D",
"D  c #467541",
"F  c #4E4162",
"G  c #4F406F",
"H  c #564B63",
"J  c #594D65",
"K  c #52436D",
"L  c #564968",
"P  c #5A5163",
"I  c #5E546A",
"U  c #565267",
"Y  c #4F4170",
"T  c #554571",
"R  c #594576",
"E  c #5B4C73",
"W  c #5D4C79",
"Q  c #5A467A",
"!  c #5E5473",
"~  c #5F5D72",
"^  c #61566C",
"/  c #635B6E",
"(  c #625374",
")  c #665B73",
"_  c #64547B",
"`  c #6C5C7D",
"'  c #6A5D77",
"]  c #715379",
"[  c #6A6679",
"{  c #6A6974",
"}  c #89243C",
"|  c #8B2340",
" . c #862243",
".. c #9B2A45",
"X. c #973B57",
"o. c #8C3F5A",
"O. c #B13A50",
"+. c #AC354B",
"@. c #8A455B",
"#. c #B2455A",
"$. c #915973",
"%. c #AF5D73",
"&. c #916475",
"*. c #C64D5E",
"=. c #D66979",
"-. c #D16A7B",
";. c #5B3D8E",
":. c #583A84",
">. c #5C3996",
",. c #633E9B",
"<. c #5D4482",
"1. c #5E4784",
"2. c #624C85",
"3. c #61438A",
"4. c #654A8B",
"5. c #6C4C8D",
"6. c #614287",
"7. c #655681",
"8. c #6D5D84",
"9. c #6B5C8A",
"0. c #665983",
"q. c #6B4D94",
"w. c #6B4A9D",
"e. c #674593",
"r. c #735394",
"t. c #76569B",
"y. c #70508F",
"u. c #6D638E",
"i. c #726282",
"p. c #756A83",
"a. c #72638A",
"s. c #7B6C8B",
"d. c #766B8B",
"f. c #7C728C",
"g. c #747488",
"h. c #7B6D92",
"j. c #736A94",
"k. c #7D7393",
"l. c #7B739B",
"z. c #7C7A93",
"x. c #6E4AA5",
"c. c #7B54AB",
"v. c #7E59A9",
"b. c #7855A4",
"n. c #7E54B3",
"m. c #724AA0",
"M. c #7F61A3",
"N. c #81738E",
"B. c #827394",
"V. c #857A95",
"C. c #8A7C97",
"Z. c #857699",
"A. c #837C9A",
"S. c #8C7C9D",
"D. c #887797",
"F. c #A66E81",
"G. c #8257B5",
"H. c #855ABA",
"J. c #895DBC",
"K. c #835CB3",
"L. c #8764AE",
"P. c #847BA2",
"I. c #8E7EA0",
"U. c #8A66B6",
"Y. c #906BB9",
"T. c #D97B8C",
"R. c #CC6D82",
"E. c #8D5EC4",
"W. c #8F5FC8",
"Q. c #905FC8",
"!. c #8F66C4",
"~. c #9161C9",
"^. c #9769CD",
"/. c #9A6DCF",
"(. c #9162C7",
"). c #9B75C7",
"_. c #9B6CD0",
"`. c #9E72D2",
"'. c #A57DD5",
"]. c #A77FD8",
"[. c #A87FD9",
"{. c #A276D5",
"}. c #888199",
"|. c #90869B",
" X c #A98493",
".X c #8D83A4",
"XX c #8A84AA",
"oX c #8A87A6",
"OX c #9484A4",
"+X c #9887A7",
"@X c #9289AB",
"#X c #9A8AAA",
"$X c #9689A6",
"%X c #9593AD",
"&X c #928DB1",
"*X c #9B8DB5",
"=X c #9C94B3",
"-X c #9A97B9",
";X c #A898AB",
":X c #A296B6",
">X c #A49BBB",
",X c #B6ADBC",
"<X c #ADACBE",
"1X c #DD8292",
"2X c #E18999",
"3X c #ADC4AA",
"4X c #A19EC1",
"5X c #A981D9",
"6X c #A780D7",
"7X c #A6A2C2",
"8X c #AAA4C4",
"9X c #AEAACB",
"0X c #A9A8C8",
"qX c #B1ADCD",
"wX c #B4ADC2",
"eX c #B5B3D3",
"rX c #B9BADA",
"tX c #B8B7D8",
"yX c #B1B0D0",
"uX c #AF85E1",
"iX c #CBC8D2",
"pX c None",
/* pixels */
"pXpXpXpXp.pXpXpXpXpXpXpXpXpXpXpXpXpXpXpXpXpXpXpXpXpXpXpXpXpXpXpXpXpXpXpXpXpXpXpXpXpXpXpXpXpXpXpXpXpXpXpXpXpXpXpXpXpXpXpXpXpXpXpX",
"pXpX` d.-Xp.pXpXpXpXpXpXpXpXpXpXpXpXpXpXpXpXpXpXpXpXpXpXpXpXpXpXpXpXpXpXpXpXpXpXpXpXpXpXpXpXpXpXpXpXpXpXpXpXpXpXpXpXpXpXpXpXpXpX",
"pXpXx XX9.9X.Xi.pXpXpXpXpXpXpXpXpXpXpXpXpXpXpXpXpXpXpXpXpXpXpXpXpXpXpXpXpXpXpXpXpXpXpXpXpXpXpXpXpXpXpXpXpXpXpXpXpXpXpXpXpXpXpXpX",
"pXpXpXT 2.v P.9Xs.pXpXpXpXpXpXpXpXpXpXpXpXpXpXpXpXpXpXpXpXpXpXpXpXpXpXpXpXpXpXpXpXpXpXpXpXpXpXpXpXpXpXpXpXpXpXpXpXpXpXpXpXpXpXpX",
"pXpXpX5.r.E.4.Z.=X=XpXpXpXpXpXpXpXpXpXpXpXpXpXpXpXpXpXpXpXpXpXpXpXpXpXpXpXpXpXpXpXpXpXpXpXpXpXpXpXpXpXpXpXpXpX#X#X#X#Xs.i.pXpXpX",
"pXpXpXpXpXpXG.J.W >X.XpXpXpXpXpXpXpXpXpXpXpXpXpXpXpXpXpXpXpXpXpXpXpXpXpXpXpXpXpXpXpXpXpXpXpXpXpXpXpX#X$X#X#X#X0XeXyXeX9X9XpXpXpX",
"pXpXpXpXpXpXK.~.c.8.8XB.pXpXpXpXpXpXpXpXpXpXpXpXpXpXpXpXpXpXpXpXpXpXpXpXpXpXpXpXpXpXpXpXpXpXpXpX+X>XeXeXeXyXyX0.v Y Y G T i.pXpX",
"pXpXpXpXpXpXr.J.W.w.h.s.8.pXpXpXpXpXpXpXpXpXpXpXpXpXpXpXpXpXpXpXpXpXpXpXpXpXpXpXpXpXpXpXpXpX$X#XqXtXl.R -XY T c.H.H.G.m pXx pXpX",
"pXpXpXpXpXpXy.J.~.w.a.OXi.pXpXpXpXpXpXpXpXpXpXpXpXpXpXpXpXpXpXpXpXpXpXpXpXpXpXpXpXpXpXpXpXpX8XeX4XT w.G.4.G.G.W.~.x.p pXpXpXpXpX",
"pXpXpXpXpXpXy.J.~.E.4.B.` a pXpXpXpXpXpXpXpXpXpXpXpXpXpXpXpXpXpXpXpXpXpXpXpXpXpXpXpXpXpXpX.XtXu.<.G.!.~.H.~.W.W.n.p pXpXpXpXpXpX",
"pXpXpXpXpXpXr.J.{.~.6.c R 8.y pXpXpXpXpXpXpXpXpXpXpXpXpXpXpXpXpXpXpXpXpXpXpXpXpXpXpXpXpXB.>Xa.m.H.W.~.W.~.W.~.E.:.pXpXpXpXpXpXpX",
"pXpXpXpXpXpXpXb.'.`.j z.0X>XE y pXpXpXpXpXpXpXpXpXpXpXpXpXpXpXpXpXpXpXpXpXpXpXpXpXpXpXp.8Xk.w.W.W.~.W.~.W.~.~.w pXpXpXpXpXpXpXpX",
"pXpXpXpXpXpXpXr.'.{.w , 0X:XI.B.v pXpXpXpXpXpXpXpXpXpXpXpXpXpXpXpXpXpXpXpXpXpXC.. pXi.=X.X4.E.~.~.~.W.~.~.~.,.pXpXpXpXpXpXpXpXpX",
"pXpXpXpXpXpXpXt.'.5XK.t r / / >X& pXpXpXpXpXpXpXpXpXpXpXpXpXpXpXpXpXpXpXpXpX8XqXf.2 V.=XB.1.~.W.W.W./.'.{.`.y pXpXpXpXpXpXpXpXpX",
"pXpXpXpXpXpXpXr.!.`.[.1.A.' K r [ pXpXpXpXpXpXpXpXpXpXpXpXpXpXpXpXpXpXpXpX. z.tX0.e w E U.H.~.~.W.^.'.6X5XU.9 pXpXpXpXpXpXpXpXpX",
"pXpXpXpXpXpXpXpXpXY.Q z.=Xi.` q 1 pXpXpXpXpXpXpXpXpXpXpXpXpXpXpXpXpXpXpXpX: 2 z.t C -Xt.E.W.W.~.{.'.5X5Xv.8 pXpXpXpXpXpXpXpXpXpX",
"pXpXpXpXpXpXpXpXpXU.h }.r w ^ f.. pXpXpXpXpXpXpXpXpXpXpXpXpXpXpXpXpXpXpXpXa u h.) C qXr n.~.~.`.'.5X6X^.:.pXpXpXpXpXpXpXpXpXpXpX",
"pXpXpXpXpXpXpXpXpXL.Y.d q.M.1.s.O pXpXpXpXpXpXpXpXpXpXpXpXpXpXpXpXpXpXpX=X@XE B.OXA [ G E.~./.'.5X6X'.;.% pXpXpXpXpXpXpXpXpXpXpX",
"pXpXpXpXpXpXpXpXpXL.5Xb 4.{.1.i.O pXpXpXpXpXpXpXpXpXpXpXpXpXpXpXpXpXpXpXr j.I.OX#XC.! b E.^.'.5X5X].'.0 pXpXpXpXpXpXpXpXpXpXpXpX",
"pXpXpXpXpXpXpXpXb.).5X1.l.b.e.j.q pXpXpXpXpXpX0 pXpXpXpXpXpXpXpXpXpXpXpXpXv E S.#XB.q.c.!.`.6X5X6X[.[.1 pXpXpXpXpXpXpXpXpXpXpXpX",
"pXpXpXpXpXpXpXpXt.5X'.7.&Xb 9.s.' pXpXpXpXpXS Y pXpXpXpXpXpXpXpXpXpXpXpXpXpXy @XI.4.J.~.^.5X5X5X5X5Xc.+ pXpXpXpXpXpXpXpXpXpXpXpX",
"pXpXpXpXpXpXpXr.).6X6X2.0Xa.a.d pXpXpXpXpXe 4X7.pXpXpXpXpXpXpXpXpXpXpXpXpXpXz -XZ.6.~.~.`.5X5X6X5X5Xv pXpXpXpXpXpXpXpXpXpXpXpXpX",
"pXpXpXpXpXpXpXr.'.6X5X2.yXP.u., pXpXpXpX- %X9XT pXpXpXpXpXpXpXpXpXpXpXpXpXpXE -X9.n.~.~.'.5X5X6X5X5Xh pXpXpXpXpXpXpXpXpXpXpXpXpX",
"pXpXpXpXpXpXpXY.].5X5X1.yX0Xu.q pXpXpXa A.rXP.pXpXpXpXpXpXpXpXpXpXpXpXpXpXpX@X0X1.~.~.`.].5X'.5X5X5Xg pXpXpXpXpXpXpXpXpXpXpXpXpX",
"pXpXpXpXpXpXr.).5X6X6X2.9XrXU o g _ a a.tXeX8.pXpXpXpXpXpXpXpXpXpXpXpXpXpXpX=XyXt W.W.`.5X5X5X6X[.5Xh pXpXpXpXpXpXpXpXpXpXpXpXpX",
"pXpXpXpXpXpXy.).5X5X5Xh <X9XoXg.g.& F @X8X&XK pXpXpXpXpXpXpXpXpXpXpXpXpXpXS.9X~ <.^.`.'.5X5X5X6X[.uXh pXpXpXpXpXpXpXpXpXpXpXpXpX",
"pXpXpXpXpXpXt.6X`.^.`.: V.qXrXrX:X[ V.#X*Xh.pXpXpXpXpXpXpXpXpXpXpXpXpXpXpX.X&XQ E._.5X].5X5X6X5X5XL.: pXpXpXpXpXpXpXpXpXpXpXpXpX",
"pXpXpXpXpXpXe.U.b.K.B ~ -XrXrXtXqXrXqX*XS.W pXpXpXpXpXpXpXpXpXpXpXpXpXpXk.8Xu.n.^.`.5X5X5X6X5X6X5Xq.pXpXpXpXpXpXpXpXpXpXpXpXpXpX",
"pXpXpXpXpXpXm M y.6.W 0XrXrXtXtXrXrXrX:XB.y pXpXpXpXpXpXpXpXpXpXpXpXpXpXB.rX) m.^.[.5X5X6X5X5X5X5X!.u pXpXpXpXpXpXpXpXpXpXpXpXpX",
"pXpXpXpXpXpXpXi B x l.rXrXrX9XeX9Xz.:X#XS.K pXpXpXpXpXpXpXpXpXpXpXpXpXpXk.rXC e.^.5X5X5X5X5X5X5X5X[.t pXpXpXpXpXpXpXpXpXpXpXpXpX",
"pXpXpXpXpXpXpXpXm 8 ) tXrXyX<XyXP.OXI.#XOX8.pXpXpXpXpXpXpXpXpXpXpXpXpXpX-X4XW H.^.U.!.uX5X5X5X5X5X5XB pXpXpXpXpXpXpXpXpXpXpXpXpX",
"pXpXpXpXpXpXpXpXpX% V 9XrX-X>XXXwXiXI.#X#X' ; pXpXpXpXpXpXpXpXpXpXpXpXp.tXk.;.x.>.;.3.w.w.w.x.x.`.uXU.pXpXpXpXpXpXpXpXpXpXpXpXpX",
"pXpXpXpXpXpXpXpXpX; h 8XrX=Xd.}.,X,XD.#X=XZ r Q pXpXpXpXpXpXpXpXpXpXpX@XtX) 9 :.M :.:.N M M M M e.x.U.;.pXpXpXpXpXpXpXpXpXpXpXpX",
"pXpXpXpXpXpXpX>X=Xl.XXeXrX@Xg S D |.I.#XI.p.V g pXpXW _ pXpXpXpXpXpX}.eX=Xd a 5.r.r.r.r.r.t.;.t = * 8 : pXpXpXpXpXpXpXpXpXpXpXpX",
"pXpXpXpXpXpXS.0XrXrXrXrXrX4Xj.A { }.#X#XN.#Xe q pXpXa.#XL pXpXpXB.@X0XXXV x r.r.q.l n :.B w u X         pXpXpXpXpXpXpXpXpXpXpXpX",
"pXpXpXpXpXpXF 8XrX7X.XyXtX9XqX:X}.S Z Z D.#Xe ^ 7.T Z.@XF r pXpXJ *X*X1.t b v r.3.* f m 9   pXpXpXpXpXpXpXpXpXpXpXpXpXpXpXpXpXpX",
"pXpXpXpXpX< I 7X-X@Xl.4X,XN.A Z P + X 4 D.[ ) C.I.i.D.@XG &XtXz.f 5.y.y.j = pXpXpXpXpXpXpXpXpXpXpXpXpXpXpXpXpXpXpXpXpXpXpXpXpXpX",
"pXpXpXpXpX3 ' #X8.0XtX#X^ f $ $ f b & s.p.4 #X#X>X:XI.0XoXrX9X1 6.y.r.h pXpXpXpXpXpXpXpXpXpXpXpXpXpXpXpXpXpXpXpXpXpXpXpXpXpXpXpX",
"pXpXpXpXpXpXH OXS.qXf.Z > 6  . .0 z ; p.P / #X#XtXrXrXtXrXrXV.w 5.r.n + pXpXpXpXpXpXpXpXpXpXpXpXpXpXpXpXpXpXpXpXpXpXpXpXpXpXpXpX",
"pXpXpXpXpXpX_ +X#XN.<   | ..5 5 > ; c B., Z.#X>XtXtXtXtXrXrXC n y.e.8 pXpXpXpXpXpXpXpXpXpXpXpXpXpXpXpXpXpXpXpXpXpXpXpXpXpXpXpXpX",
"pXpXpXpXpXpXpXa.*XZ pXpXpX| }  .5 # P s.+ _ :XeXrXrXtXtXtXrXU R r.b pXpXpXpXpXpXpXpXpXpXpXpXpXpXpXpXpXpXpXpXpXpXpXpXpXpXpXpXpXpX",
"pXpXpXpXpXpXpXg ^ d pXpX .O.O.X...7 [ G + F =XrXeXrXtXtXrXrXl.Q y.j pXpXpXpXpXpXpXpXpXpXpXpXpXpXpXpXpXpXpXpXpXpXpXpXpXpXpXpXpXpX",
"pXpXpXpXpXpXpXpX  pXpXpX+.=.=.T.O.$.Z.K pXpX[ rXrXrXtXtXrXtX0Xi.B i pXpXpXpXpXpXpXpXpXpXpXpXpXpXpXpXpXpXpXpXpXpXpXpXpXpXpXpXpXpX",
"pXpXpXpXpXpXpXpXpXpXpX' *.1X2X1XX.D.W pXpX3 d.tXrXyXtXtXrXtXrX>XQ l pXpXpXpXpXpXpXpXpXpXpXpXpXpXpXpXpXpXpXpXpXpXpXpXpXpXpXpXpXpX",
"pXpXpXpXpXpXpXpXpXpX(  X=.2X2XR.o.;X7.pXpX! S.7X9X<XtXtXtXtXtXqX#X_ y pXpXpXpXpXpXpXpXpXpXpXs.s.s.s.a.pXpXpXpXpXpXpXpXpXpXpXpXpX",
"pXpXpXpXpXpXpXpXpXpXa.X.T.T.T.*.$.8._ pXpXC *X7X:XrXtXtXrXtXtX:X#Xa.x v pXpXpXpXpXpXpXa.s.s.S.#X#X#XD.( T pXpXpXpXpXpXpXpXpXpXpX",
"pXpXpXpXpXpXpXpXpXs.;X=.T.%.%.@.,Xs.h pXpXC 9X9X>XrXtXrXtXrXyX#X#Xa.E ` G c pXpXpXv K S.#X#X+X+X#X#X#X#XS.h @ pXpXpXpXpXpXpXpXpX",
"pXpXpXpXpXpXpXpX|.wX@.-.R.F. Xk 8.H pXpXpXU rXrXrXrXrXtXtXrX>X+X+X8.( i.` _ c v K p.S.#X+X#X#X#XOXB.B.D.#X:XZ pXpX@ @ pXpXpXpXpX",
"pXpXpXpXpXpXpXpX}.iX$.} @.&.iX$X8XJ pXpXpXu.yXtXtXtXtXtXrXtX:X+XB.R i.` i.` i.i.` B.#X+X@X#XI.B.a.y y x h.S.#X_ pXV d pXpXpXpXpX",
"pXpXpXpXpXpXpXpXpXE a.2 < C |.8X#XH pXpXpXpXk.eXtXrXrXtXqX>X+X#XB.8.a.H ` i.` ` ` s.+X#XOXZ.W y l pXpXpXy W Z.OXR a.d pXpXpXpXpX",
"pXpXpXpXpXpXpXpXpXe #XqXeXyX>X#XB.w pXpXpX- A +X9X9XyX9X#X+X+XOXB.+X+X4 J ` i.i.i.` B.S.s.y pXpXpXpXpXpXpXpXa s.OX+X8.pXpXpXpXpX",
"pXpXpXpXpXpXpXpXpX4 |.#X#X#X#XS.^ pXpXpXpX7.Z [ OX#X#X#X#X#X+X@X#X+X+Xp.- i.` i.' I H x a pXpXpXpXpXpXpXpXpXpXT 8.s.+X, pXpXpXpX",
"pXpXpXpXpXpXpXpXpXpXA D.s.s.s.h X pXpXpXpX8.#X_ i.Z..X#X@XS.OX#X+X+X#XS.< ( ` _ L     pXpXpXpXpXpXpXpXpXpXx ! S.OXi.B.1 pXpXpXpX",
"pXpXpXpXpXpXpXpXpXpXpXO       pXpXpXpXpXT +X+X+Xi.x i.S.B.T ( +X#X+X+XOXq 1 K a j pXpXpXpXpXpXpXpXpXpXpXpXG _ ` S.D.` K pXpXpXpX",
"pXpXpXpXpXpXpXpXpXpXpXpXpXpXpXpXpXpXpXpXT #X+X#XI.i.K a j z & ) C.+X@XS.h : pXpXpXpXpXpXpXpXpXpXpXpXpXpXpXpXz x _ ' ` ) . pXpXpX",
"pXpXpXpXpXpXpXpXpXpXpXpXpXpXpXpXpXpXpXpXK S.$X+XZ.` K pXpXpXpX  - B.D.p.` E pXpXpXpXpXpXpXpXpXpXpXpXpXpXpXpXpXpXz j E ( + pXpXpX",
"pXpXpXpXpXpXpXpXpXpXpXpXpXpXpXpXpXpXpXpXpXe V.N.T E pXpXpXpXpXpXpX  0 _ ` ( pXpXpXpXpXpXpXpXpXpXpXpXpXpXpXpXpXpXpXpXz y g pXpXpX",
"pXpXpXpXpXpXpXpXpXpXpXpXpXpXpXpXpXpXpXpXpXpX. @ ) E pXpXpXpXpXpXpXpXE i.` ` pXpXpXpXpXpXpXpXpXpXpXpXpXpXpXpXpXpXpXpXpXpXpXpXpXpX",
"pXpXpXpXpXpXpXpXpXpXpXpXpXpXpXpXpXpXpXpXpXpXE _ c ( pXpXpXpXpXpXpXpXE ` x R E pXpXpXpXpXpXpXpXpXpXpXpXpXpXpXpXpXpXpXpXpXpXpXpXpX",
"pXpXpXpXpXpXpXpXpXpXpXpXpXpXpXpXpXpXpXpXpXpXE c - s.d pXpXpXpXpXpXpXt _ g _ _ pXpXpXpXpXpXpXpXpXpXpXpXpXpXpXpXpXpXpXpXpXpXpXpXpX",
"pXpXpXpXpXpXpXpXpXpXpXpXpXpXpXpXpXpXpXpXpXpX8.T pXd e pXpXpXpXpXpXpX  [ c pXE c pXpXpXpXpXpXpXpXpXpXpXpXpXpXpXpXpXpXpXpXpXpXpXpX",
"pXpXpXpXpXpXpXpXpXpXpXpXpXpXpXpXpXpXpXpXpXpXx z pXpX  pXpXpXpXpXpXpX  ^ O pXP < pXpXpXpXpXpXpXpXpXpXpXpXpXpXpXpXpXpXpXpXpXpXpXpX",
"pXpXpXpXpXpXpXpXpXpXpXpXpXpXpXpXpXpXpXpXpXpXpXpXpXpXpXpXpXpXpXpXpXpXpXX   pXC., pXpXpXpXpXpXpXpXpXpXpXpXpXpXpXpXpXpXpXpXpXpXpXpX",
"pXpXpXpXpXpXpXpXpXpXpXpXpXpXpXpXpXpXpXpXpXpXpXpXpXpXpXpXpXpXpXpXpXpXpXpXpXpXX   pXpXpXpXpXpXpXpXpXpXpXpXpXpXpXpXpXpXpXpXpXpXpXpX"
};
