/* XPM */
static char *result[] = {
/* columns rows colors chars-per-pixel */
"64 64 212 2 ",
"   c #000001",
".  c #060509",
"X  c #080709",
"o  c #0B0A0C",
"O  c #0E0C10",
"+  c #0F0B18",
"@  c #110E15",
"#  c #150C1B",
"$  c #131116",
"%  c #16151A",
"&  c #1A191D",
"*  c #260F1F",
"=  c #3E151F",
"-  c #22171F",
";  c #1B1525",
":  c #1E1C23",
">  c #1E162A",
",  c #211B2D",
"<  c #231B35",
"1  c #271E38",
"2  c #25222A",
"3  c #27252C",
"4  c #2A2333",
"5  c #2D253D",
"6  c #2E2A36",
"7  c #312B36",
"8  c #342D3B",
"9  c #30223E",
"0  c #35323C",
"q  c #39333F",
"w  c #451A2A",
"e  c #591329",
"r  c #721C38",
"t  c #44393C",
"y  c #44783D",
"u  c #251742",
"i  c #2D1B53",
"p  c #342C44",
"a  c #342849",
"s  c #3B3543",
"d  c #3D334B",
"f  c #3B3945",
"g  c #392B56",
"h  c #3C2C5D",
"j  c #372A53",
"k  c #3E3454",
"l  c #351D6A",
"z  c #381F6D",
"x  c #2F1865",
"c  c #3F2F61",
"v  c #3B216E",
"b  c #372169",
"n  c #3C2370",
"m  c #40364D",
"M  c #433C4B",
"N  c #452E58",
"B  c #423752",
"V  c #41335B",
"C  c #47395B",
"Z  c #7D2243",
"A  c #423262",
"S  c #473964",
"D  c #4A3A66",
"F  c #4C3C6A",
"G  c #493564",
"H  c #543C6D",
"J  c #503967",
"K  c #462B75",
"L  c #553D73",
"P  c #543979",
"I  c #44414D",
"U  c #4B4354",
"Y  c #4D4458",
"T  c #494956",
"R  c #534A5C",
"E  c #51475E",
"W  c #6C475B",
"Q  c #4D664E",
"!  c #4D4267",
"~  c #564D61",
"^  c #54446D",
"/  c #574C65",
"(  c #5A5164",
")  c #5A556B",
"_  c #565665",
"`  c #534372",
"'  c #594474",
"]  c #5B4B74",
"[  c #5B4C7A",
"{  c #60566A",
"}  c #63586D",
"|  c #664877",
" . c #615276",
".. c #655C72",
"X. c #695E74",
"o. c #64547B",
"O. c #6C5B7E",
"+. c #655D7B",
"@. c #715374",
"#. c #636474",
"$. c #6A657A",
"%. c #75707E",
"&. c #73677F",
"*. c #892338",
"=. c #822142",
"-. c #892847",
";. c #8C2645",
":. c #9A2B45",
">. c #B0354A",
",. c #95435D",
"<. c #BC4457",
"1. c #895677",
"2. c #905571",
"3. c #AF5F74",
"4. c #B16B7E",
"5. c #AA697D",
"6. c #C94657",
"7. c #C8576A",
"8. c #DA6A7A",
"9. c #C56E7E",
"0. c #554780",
"q. c #654A85",
"w. c #6E4E8E",
"e. c #634487",
"r. c #645681",
"t. c #625A81",
"y. c #6B5B81",
"u. c #695289",
"i. c #6A5E89",
"p. c #695784",
"a. c #6F4D90",
"s. c #6F5090",
"d. c #715191",
"f. c #6F6085",
"g. c #6D628C",
"h. c #6D6E80",
"j. c #726283",
"k. c #756981",
"l. c #796B87",
"z. c #74658B",
"x. c #756A8B",
"c. c #7B6B8C",
"v. c #786787",
"b. c #6F7082",
"n. c #747084",
"m. c #75768A",
"M. c #7A758D",
"N. c #756D94",
"B. c #7D6E92",
"V. c #786F98",
"C. c #726792",
"Z. c #7C7497",
"A. c #7A729A",
"S. c #7D7D92",
"D. c #816F88",
"F. c #80738E",
"G. c #90758E",
"H. c #837494",
"J. c #857993",
"K. c #86769A",
"L. c #827C9C",
"P. c #8B7B9C",
"I. c #8B789B",
"U. c #857DA5",
"Y. c #8E7EA1",
"T. c #D77787",
"R. c #CB6D83",
"E. c #E47988",
"W. c #8D839D",
"Q. c #87839A",
"!. c #988399",
"~. c #949D96",
"^. c #8C82A5",
"/. c #8C84AA",
"(. c #8F89AF",
"). c #8580A2",
"_. c #9484A4",
"`. c #9887A8",
"'. c #948CA9",
"]. c #9989A9",
"[. c #9687A8",
"{. c #9991AD",
"}. c #8F88B0",
"|. c #9481B5",
" X c #938DB3",
".X c #9D92B2",
"XX c #9A96BA",
"oX c #9A96B8",
"OX c #A08FB0",
"+X c #A195B5",
"@X c #A49CBC",
"#X c #A397B8",
"$X c #9FA0BA",
"%X c #B1B8B6",
"&X c #E18A9A",
"*X c #E08797",
"=X c #E6909F",
"-X c #A19EC1",
";X c #A5A3C3",
":X c #AAA4C4",
">X c #A9A7C9",
",X c #AEABCC",
"<X c #A9A9C6",
"1X c #B1ADCD",
"2X c #B0AFD1",
"3X c #B4B3D3",
"4X c #B9B6D7",
"5X c #B9B9D9",
"6X c #D2CED9",
"7X c #C2C3E2",
"8X c #E8EBE8",
"9X c None",
/* pixels */
"9X9X9X9X9X9X9XS F 9X9X9X9X9X9X9X9X9X9X9X9X9X9X9X9X9X9X9X9X9X9X9X9X9X9X9X9X9X9X9X9X9X9X9X9X9X9X9X9X9X9X9X9X9X9X9X9X9X9X9X9X9X9X9X",
"9X9X9X9X9X9X9XA.A.9X9X9X9X9X9X9X9X9X9X9X5 A 9X9X9X9X9X9X9X9X9X9X9X9X9X9X9X9X9X9X9X9X9X9X9X9X9X9X9X9X9X9X9X9X9X9X9X9X9X9X9X9X9X9X",
"9X9X9X9X9X9X9XA.}.` 9X9X9X9X9X9X9X9X9X_  Xh 9X9X9X9X9X9X9X9X9X9X9X9X9X9X9X9X9X9X9X9X9X9X9X9X9X9X9X9X9X9X9X9X9X9X9X9X9X9X9X9X9X9X",
"9X9X9X9X9X9X9XN.7Xg.9X9X9X9X9X9X9X9X_ 5X/.h 9X9X9X9X9X9X9X9X9X9X9X9X9X9X9X9X9X9X9X9X9X9X9X9X9X9X9X9X9X9X9X9X9X9X9X9X9X9X9X9X9X9X",
"9X9X9X9X9X9X9XV.5X(.[ 9X9X9X9X9X9X) 5X>Xr.9X9X9X9X9X9X9X9X9X9X9X9X9X9X9X9X9X9X9X9X9X9X9X9X9X9X9X9X9X9X9X9X9X9X9X9X9X9X9X9X9X9X9X",
"9X9X9X9X9X9X9XV.7X7X/ . u y.F A z.5X5X/.h 9X9X9X9X9X9X9X9X9X9X9X9X9X9X9X9X9X9X9X9X9X9X9X9X9X9X9X9X9X9X9X9X9X9X9X9X9X9X9X9X9X9X9X",
"9X9X9X9X9X9X9X#.2X,XQ.$.L.s > y.].;X>X[ 9X9X9X9X9X9X9X9X9X9X9X9X9X9X9X9X9X9X9X9X9X9X9X9X9X9X9X9X9X9X9X9X9X9X9X9X9X9X9X9X9X9X9X9X",
"9X9X9X9X9X9X9Xs oX3X7X5X:XQ.S.[.`.]._.h 9X9X9X9X9X9X9X9X9X9X9X9X9X9X9X9X9X9X9X9X9X9X9X9X9X9X9X9X9X9X9X9X9X9X9X9X9X9X9X9X9X9X9X9X",
"9X9X9X9X9X9XI oX2X5X4X5X2X5X5X2X].Y.' 9X9X9X9X9X9X9X9X9X9X9X9X9X9X9X9X9X9X9X9X9X9X9X9X9X9X9X9X9X9X9X9X9X9X9X9X9X9X9X9X9X9X9X9X9X",
"9X9X9X9X9X0.<X5X5X5X4X4X5X3X3X3X].P.A 9X9X9X9X9X9X9X9X9X9X9X9X9X9X9X9X9X9X9X9X9X9X9X9X9X9X9X9X9X9X9X9X9X9X9X9X9X9X9X9X9X9X9X9X9X",
"9X9X9X9X9XI 7X4X5X4X@X1X3Xf.l.].]._.o.V 9X9X9X9X9X9X9X9X9X9X9X9X9X9X9X9X9X9X9X9X9X9X9X9X9X9X9X9X9X9X9X9X9X9X9X9X9X9X9X9X9X9X9X9X",
"9X9X9X9X9Xq @X5X5X#X:X,Xz.6X{.[.`.`.J.j 9X9X9X9X9X9X9X9X9X9X9X9X9X9X9X9X9X9X9X9X9X9X9X9X9X9X9X9X9X9X9X9X9X9X9X9X9X9X9X9X9X9X9X9X",
"9X9X9X9X9X9X^.5X5X^.'.N.%X8XH._.`.].l.  9X9X9X9X9X9X9X9X9X9X9X9X9X9X9X9X9X9X9X9X9X9X9X9X9X9X9X9X9X9X9X9X9X9X9X9X9X9X9X9X9X9X9X9X",
"9X9X+X'.t.z.oX5X5XL.V %.y ~.J._.[.^.H.3 9X9X9X9X9X9X9X9X9X9X9X9X9X9X9X9X9X9X9X9X9X9X9X9X9X9X9X9X9X9X9X9X9X9X9X9X9X9X9X9X9X9X9X9X",
"9X_.4X5X5X5X5X5X5X(.g.B Q l._.[._.v.].k.. 9X9X9X9X9X9X9X9X9X9X9X9X9X9X9X9X9X9X9X9X9X9X9X9X9X9X9X9X9X9X9X9X9X9X9X9X9X9X9X9X9X9X9X",
"F x.4X5X5X5X5X5X5X5X1X+X].OX.X]._.o.].k.# A 9X9X] p.] 9X9X9X9X9X9X9X9X9X9X9X9X9X9X9X9X9X9X9X9X9X9X9X9X9X9X9X9X9X9X9X9X9X9X9X9X9X",
"1 x.5X5X>XA.@X5X,X@X+X].].R M M M z.].%.# A 9X] K._.m 9X9X9X9X9X9X9X9X9X9X9X9X9X9X9X9X9X9X9X9X9X9X9X9X9X9X9X9X9X9X9X9X9X9X9X9X9X",
"o J.'.;Xi.Z.>X,X+X].~ 8 q 4 < < O [.J.q B J j.K.].[.4 9X9X9X9X9X9X9X9X9X9X9X9X9X9X9X9X9X9X9X9X9X9X9X9X9X9X9X9X9X9X9X9X9X9X9X9X9X",
"9X8 v._.z.4X1X+X( 4 w e e N A h @ _.l.: Y.y.y.].'.z.: 9X9X9X9X9X9X9X9X9X9X9X9X9X9X9X9X9X9X9X9X9X9X9X9X9X9X9X9X9X9X9X9X9X9X9X9X9X",
"9Xk P.[.[.+XX.& w *.*.=.=.* g h V H.7 F.]._.H.v.{.;XoX0 9X9X9X9X9X9X9X9X9X9X9X9X9X9X9X9X9X9X9X9X9X9X9X9X9X9X9X9X9X9X9X9X9X9X9X9X",
"9X9X] _.].X.o 9X9X;.-.=.*.r # @ K.c.2 ].`.#X3X,X3X5X5X'.3 9X9X4X5X9X9X9X9X9X9X9X9X9X9X9X9Xj.j.j.j.v._.o.G S 5 9X9X9X9XX 9X9X9X9X",
"9X9X9X] P.(   9X9X=.>.:.-.*.r , P.` J.[.`.@X5X4X5X5X5X4X,X3X5X5X5X5X9X9X9X9X9X9X9X9X9X9X9Xj.Y.[._.[.`._._.Y._.R 9X9X  ..2 9X9X9X",
"9X9X9X9XX o 9X9XZ >.E.7.T.6.=.I.H.j ` ].@X4X4X5X5X4X4X2X3X5X4X5X4X4X9X9X9X9X9X9X9X9Xj.j.v._.`.`.[.`.P.K.P.].].].g.9XS H.4 9X9X9X",
"9X9X9X9X9X9X9Xt.:.8.&X&X=X>.@.P.h O F J.5X5X5X4X5X5X5Xg.XX5X5X5X5X4X9X9X9X9X9X9X9XF H.].`.].`.].[.B.A V [ Y.P.P.H.p.v._.o.` 9X9X",
"9X9X9X9X9X9X9Xl.9.T.&X*XT.-.!.[.V 9 L 3 5X5X5X5X5X4X5XU.(.3X5X5X5X>XF 9X9X9X9XD J c.].].].].`.B.v.A 9X9X9X9X9X9Xh r.c.k.J._.$ 9X",
"9X9X9X9X9X9XQ.2.7.=XR.T.<.4.y.H.F d.' R ;X5X1X1X5X5X5X5X! oX5X5X5X,XV.g.9XF ^  .O.I.].].[.].c.S h A 9X9X9X9X9X9X9Xo.K.I.j.H.4 9X",
"9X9X9X9XJ.Q.G.T.E.R.5.3.-.!.].d L a p .XZ.3X@X,X5X5X5X5Xb.;X}.4X5X5X5X-XF  .j.y.&.c.[.].[.v.S 9X9X9X9X9X9X9X9XJ o.c._.P.v.O.] X ",
"9X9X9X9X9XW.| 1.W = q W 1.K._.( 4 o m.3X@X4X,X5X5X4X5X5X5X@Xp Z.3X5X5X2XZ.o.&.j.O.j.Y $.9X9X9X9X9X9X9X9X9X9X9X9X9X9X9X9X9X9X^ 9X",
"9X9X9X9X9X9XY Y.m.m.m.{.{.#X`.o.u k 5X5X5X5X4X4X4X5X5X5X:X[...4 ,X4X5X5XXX' j.j.j.M O 9X9X9X9X9X9X9X9X9X9X9X9X9X9X9X9X9X9X9X9X9X",
"9X9X9X9X9X9Xf ].+X@X#X#X].`._.> x b g.5X5X5X4X4X5X4X5X@X[.[._.& ,X5X5X5XXX]  .D F a 9X9X9X9X9X9X9X9X9X9X9X9X9X9X9X9X9X9X9X9X9X9X",
"9X9X9X9X9X9XO ~ `.W._._._.] 4 J l 9X4 ].@X5X4X4X4X:X.X].[.].!.: <X5X4X5X4X/.F 9X9X9X9X9X9X9X9X9X9X9X9X9X9X9X9X9X9X9X9X9X9X9X9X9X",
"9X9X9X9X9X9X9XV 5 $ $ & % @ H w.l F $.q `.].{..X].'.`.`.[.[.B.H.t.3X5X4X5X X` 9X9X9X9X9X9X9X9X9X9X9X9X9X9X9X9X9X9X9X9X9X9X9X9X9X",
"9X9X9X9X9X9X9X9X9X9XO n.8 H d.e.b ` [.H.] c.P._.].]._.Y.`.[.[.^.: 2X4X5X4X5X/.9X9X9X9X9X9X9X9X9X9X9X9X9X9X9X9X9X9X9X9X9X9X9X9X9X",
"9X9X9X9X9X9X9X9X9X  m.f D d.w.v G Y.[.].Y.o.D o.I.K.j.D J.[.`.J.f 2X5X5X5X5X X[ 9X9X9X9X9X9X9X9X9X9X9X9X9X9X9X9X9X9X9X9X9X9X9X9X",
"9X9X9X9X9X9X9X9X9X3 &.f ' s.e.l F `.].].].P.&.' c A A A .._.].q.2X5X5X5X5X5X5XU.9X9X9X9X9X9X9X9X9X9X9X9X9X9X9X9X9X9X9X9X9X9X9X9X",
"9X9X9X9X9X9X9X9X  b.I G d.s.z 9XG X.].]._.v.O.H 9X9X9X9X  R ) ] 2X4X<X<X1X5X5XXXp.9X9X9X9X9X9X9X9X9X9X9X9X9X9X9X9X9X9X9X9X9X9X9X",
"9X9X9X9X9X9X9X9X0 S.^ ' d.a.v 9X9Xo E R ~ ] ] h 9X9X9X9X9X9X  A.3X@X`.`..X:X:X3XXXi.9X9X9X9X9X9X9X9X9X9X9X9X9X9X9X9X9X9X9X9X9X9X",
"9X9X9X9X9X9X9X9X#.|.s.d.a.a.v 9X9Xg , q B  .] A 9X9X9X9X9X9X9X/.3X@X`.`.[.[._.+X>X) 9X9X9X9X9X9X9X9X9X9X9X9X9X9X9X9X9X9X9X9X9X9X",
"9X9X9X9X9X9X9X9X$.Y.w.s.s.P 9X9X9XG ] D s f./ # 9X9X9X9X9X9X9X` 1X3X].`.].[.`.[.H.B 9X9X9X9X9X9X9X9X9X9X9X9X9X9X9X9X9X9X9X9X9X9X",
"9X9X9X9X9X9X9X  $.|.a.s.d.v 9X9X9XF c.g X E )   9X9X9X9X9X9X9X[ 1X#X`.].[.[.`.OXE 9X9X9X9X9X9X9X9X9X9X9X9X9X9X9X9X9X9X9X9X9X9X9X",
"9X9X9X9X9Xa I T $ ^ d.d.d.v 9X9X9X9X^ A 9X% $   9X9X` ` 9X9X9X[ 1X].[.].].[.].H.C 9X9X9X9X9X9X9X9X9X9X9X9X9X9X9X9X9X9X9X9X9X9X9X",
"9X9X9X9Xo.(.$.) oXz.q.d.K 9X9X9X9X9X9X9X9X9X9X9X9XU.C.` ' 9X[ XX2X].].`.[.[.OXR 9X9X9X9X9X9X9X9X9X9X9X9X9X9X9X9X9X9X9X9X9X9X9X9X",
"9X9X9X9X7 ^.f.x.3XV.q.d.u.z 9X9X9X9X9X9X9X9X9X9X9X'  X,X<Xg.XX4X{.`.`.`.[.].].Y 9X9X9X9X9X9X9X9X9X9X9X9X9X9X9X9X9X9X9X9X9X9X9X9X",
"9X9X9X9X9Xo p k m u.w.s.d.K 9X9X9X9X9X9X9X9X9X9X9XF ).^.`.;XC.>X].].`.].].].v.V 9X9X9X9X9X9X9X9X9X9X9X9X9X9X9X9X9X9X9X9X9X9X9X9X",
"9X9X9X9X9X9X ..X_.p.q.s.d.v 9X9X9X9X9X9X9X9X9X9X9X9X; . { _.:X#X].`.[.].].].(   9X9X9X9X9X9X9X9X9X9X9X9X9X9X9X9X9X9X9X9X9X9X9X9X",
"9X9X9X9X9X9X7 '. Xu.w.s.d.v 9X9X9X9X9X9X9X9X9X9X9Xy.g.9X2 J.].:X].].[.[.[.OX~   9X9X9X9X9X9X9X9X9X9X9X9X9X9X9X9X9X9X9X9X9X9X9X9X",
"9X9X9X9X9X9X9X#.4XO.' d.d.v 9X9X9X9X9X9X9X9X9X9XF  X7X) D.].[.[.].].!.'.].OXR   9X9X9X9X9X9X9X9X9X9X9X9X9X9X9X9X9X9X9X9X9X9X9X9X",
"9X9X9X9X9X9X9X9XR & V d.d.v 9X9X9X9X9X9X9X9X9X9X9X) {.@X].H._.[.`.`.].].[.OX~   9X9X9X9X9X9X9X9X9X9X9X9X9X9X9X9X9X9X9X9X9X9X9X9X",
"9X9X9X9X9X9X9X7 : > | d.P n 9X9X9X9X9X9X9X9X9X9X9X9X7 M M f._.[.].].[.`.`.Y./ 9X9X9X9X9X9X9X9X9X9X9X9X9X9X9X9X9X9X9X9X9X9X9X9X9X",
"9X9X9X9X9X9X9XU H.s L d.n 9X9X9X9X9X9X9X9X9X9X9X9X9X9X9X9Xo.[.[.[.[.[.`.`.Y./ 9X9X9X9X9X9X9X9X9X9X9X9X9X9X9X9X9X9X9X9X9X9X9X9X9X",
"9X9X9X9X9X9X9XC K.s N d.e.n 9X9X9X9X9X9X9X9X9X9X9X9X9X9X9X9X8 oX].].`.].`.OXR   9X9X9X9X9X9X9X9X9X9X9X9X9X9X9X9X9X9X9X9X9X9X9X9X",
"9X9X9X9X9X9X9X9X( P.q H d.n 9X9X9X9X9X9X9X9X9X9X9X9X9X9X9X9XX ;X1X].].`.].].~   9X9X9X9X9X9X9X9X9X9X9X9X9X9X9X9X9X9X9X9X9X9X9X9X",
"9X9X9X9X9X9X9X9XG H.q C d.n 9X9X9X9X9X9X9X9X9X9X9X9X9X9X9X9X9Xo.1X].].].`.].~   9X9X9X9X9X9X9X9X9X9X9X9X9X9X9X9X9X9X9X9X9X9X9X9X",
"9X9X9X9X9X9X9X9X9X( _.4 L n 9X9X9X9X9X9X9X9X9X9X9X9X9X9X9X9X9X$ @X].[.].`..X~   9X9X9X9X9X9X9X9X9X9X9X9X9X9X9X9X9X9X9X9X9X9X9X9X",
"9X9X9X9X9X9X9X9X9XV B.m V K 9X9X9X9X9X9X9X9X9X9X9X9X9X9X9X9X9X. ! 1X].[.`.].~   9X9X9X9X9X9X9X9X9X9X9X9X9X9X9X9X9X9X9X9X9X9X9X9X",
"9X9X9X9X9X9X9X9X9X  ..Y.8 P n 9X9X9X9X9X9X9X9X9X9X9X9X9X9X9X9X9X& oX[.[.`.[.( 9X9X9X9X9X9X9X9X9X9X9X9X9X9X9X9X9X9X9X9X9X9X9X9X9X",
"9X9X9X9X9X9X9X9X9X9XU y.u.i 9X9X9X9X9X9X9X9X9X9X9X9X9X9X9X9X9X9X9XC oX`.].j.a 9X9X9X9X9X9X9X9X9X9X9X9X9X9X9X9X9X9X9X9X9X9X9X9X9X",
"9X9X9X9X9X9X9X9X9X9X9XM y.@ 9X9X9X9X9X9X9X9X9X9X9X9X9X9X9X9X9X9X9X: '.[.].}   9X9X9X9X9X9X9X9X9X9X9X9X9X9X9X9X9X9X9X9X9X9X9X9X9X",
"9X9X9X9X9X9X9X9X9X9X9X9XM Y 9X9X9X9X9X9X9X9X9X9X9X9X9X9X9X9X9X9X9X9Xd ].].{   9X9X9X9X9X9X9X9X9X9X9X9X9X9X9X9X9X9X9X9X9X9X9X9X9X",
"9X9X9X9X9X9X9X9X9X9X9X9X9Xs $ 9X9X9X9X9X9X9X9X9X9X9X9X9X9X9X9X9X9X9X, B.].{   9X9X9X9X9X9X9X9X9X9X9X9X9X9X9X9X9X9X9X9X9X9X9X9X9X",
"9X9X9X9X9X9X9X9X9X9X9X9X9X9X  9X9X9X9X9X9X9X9X9X9X9X9X9X9X9X9X9X9X9X9Xs +X{   9X9X9X9X9X9X9X9X9X9X9X9X9X9X9X9X9X9X9X9X9X9X9X9X9X",
"9X9X9X9X9X9X9X9X9X9X9X9X9X9X9X9X9X9X9X9X9X9X9X9X9X9X9X9X9X9X9X9X9X9X9X9XU c.j 9X9X9X9X9X9X9X9X9X9X9X9X9X9X9X9X9X9X9X9X9X9X9X9X9X",
"9X9X9X9X9X9X9X9X9X9X9X9X9X9X9X9X9X9X9X9X9X9X9X9X9X9X9X9X9X9X9X9X9X9X9X9X9X9XM Y 9X9X9X9X9X9X9X9X9X9X9X9X9X9X9X9X9X9X9X9X9X9X9X9X",
"9X9X9X9X9X9X9X9X9X9X9X9X9X9X9X9X9X9X9X9X9X9X9X9X9X9X9X9X9X9X9X9X9X9X9X9X9X9X9Xo 9X9X9X9X9X9X9X9X9X9X9X9X9X9X9X9X9X9X9X9X9X9X9X9X"
};
