/* XPM */
static char *_64c2c88a66a453de270da417ad8e14akBxHKCczyD1lv5ID[] = {
/* columns rows colors chars-per-pixel */
"64 64 223 2 ",
"   c None",
".  c #000000",
"X  c #05030D",
"o  c #09060C",
"O  c #0B0A0E",
"+  c #0F0A1A",
"@  c #0B0716",
"#  c #190D17",
"$  c #16131C",
"%  c #151318",
"&  c #1D1B21",
"*  c #1C1629",
"=  c #19102B",
"-  c #211A2C",
";  c #21192B",
":  c #351625",
">  c #251B37",
",  c #341C36",
"<  c #1F2024",
"1  c #26232A",
"2  c #2C2832",
"3  c #2B2435",
"4  c #322A3B",
"5  c #36323C",
"6  c #4A1B2C",
"7  c #6B1C3A",
"8  c #741E39",
"9  c #792338",
"0  c #241542",
"q  c #291653",
"w  c #2E2244",
"e  c #312442",
"r  c #34264A",
"t  c #3A2A4C",
"y  c #372F44",
"u  c #3B3444",
"i  c #3D3A49",
"p  c #3C2D5D",
"a  c #3B2D55",
"s  c #3E305A",
"d  c #2C1564",
"f  c #351D6C",
"g  c #3B2664",
"h  c #3D2375",
"j  c #423B4C",
"k  c #453745",
"l  c #413355",
"z  c #453C52",
"x  c #44335E",
"c  c #493B5A",
"v  c #492A4D",
"b  c #75385B",
"n  c #462F64",
"m  c #443363",
"M  c #4A3A65",
"N  c #4C3C6A",
"B  c #4B3566",
"V  c #543C6B",
"C  c #402675",
"Z  c #472C78",
"A  c #4D3475",
"S  c #543D74",
"D  c #543D7C",
"F  c #45464C",
"G  c #4B4354",
"H  c #4E445B",
"J  c #47465C",
"K  c #534C5D",
"L  c #51465F",
"P  c #506653",
"I  c #4E4466",
"U  c #574C63",
"Y  c #52436C",
"T  c #564967",
"R  c #5B5266",
"E  c #5D536C",
"W  c #5A5A6A",
"Q  c #554572",
"!  c #5B4276",
"~  c #5B4B74",
"^  c #5D4E79",
"/  c #5A447B",
"(  c #5F5278",
")  c #63566E",
"_  c #625276",
"`  c #645C73",
"'  c #64547B",
"]  c #6B5B7C",
"[  c #675D78",
"{  c #775377",
"}  c #686377",
"|  c #757F7C",
" . c #8C2538",
".. c #852140",
"X. c #963754",
"o. c #8E324E",
"O. c #A5334B",
"+. c #BC455A",
"@. c #905B73",
"#. c #B2526A",
"$. c #AA6377",
"%. c #C45E72",
"&. c #C66377",
"*. c #D66A7A",
"=. c #6E8E6B",
"-. c #573885",
";. c #4E2E86",
":. c #623E98",
">. c #5F4189",
",. c #614384",
"<. c #64458B",
"1. c #6F4F8E",
"2. c #664B86",
"3. c #665582",
"4. c #6C5C83",
"5. c #6B5887",
"6. c #6A4898",
"7. c #714E9A",
"8. c #6E5694",
"9. c #735294",
"0. c #775999",
"q. c #6C6584",
"w. c #716182",
"e. c #746C85",
"r. c #796C86",
"t. c #73648A",
"y. c #7A6A8C",
"u. c #787389",
"i. c #756C94",
"p. c #7D6E92",
"a. c #776596",
"s. c #7E7191",
"d. c #7C739B",
"f. c #7E7D93",
"g. c #724CA4",
"h. c #734BAA",
"j. c #7B57A8",
"k. c #7F53B6",
"l. c #7249AA",
"z. c #7C69A2",
"x. c #82738B",
"c. c #837394",
"v. c #86769A",
"b. c #837A9C",
"n. c #8B7B9C",
"m. c #897994",
"M. c #886D90",
"N. c #A97B8A",
"B. c #B27986",
"V. c #835CB4",
"C. c #8559BB",
"Z. c #895CBE",
"A. c #8156B5",
"S. c #8563AC",
"D. c #847CA3",
"F. c #8D7DA1",
"G. c #8675A7",
"H. c #8C68B7",
"J. c #936EBD",
"K. c #9478B5",
"L. c #907FA1",
"P. c #CC7789",
"I. c #DC7B8B",
"U. c #C46C80",
"Y. c #8E5EC5",
"T. c #8F5FC8",
"R. c #905FC8",
"E. c #8E61C5",
"W. c #916CC2",
"Q. c #9161C9",
"!. c #9769CD",
"~. c #996CCE",
"^. c #9162C7",
"/. c #9A73C7",
"(. c #9A6CD1",
"). c #9F73D2",
"_. c #A57CD5",
"`. c #A67DD8",
"'. c #A47BD5",
"]. c #8D819B",
"[. c #97859D",
"{. c #AC8997",
"}. c #8D83A3",
"|. c #8B84AA",
" X c #8A88A6",
".X c #9484A4",
"XX c #958DAC",
"oX c #9A8AAA",
"OX c #9389A7",
"+X c #9393AC",
"@X c #9E98A8",
"#X c #958EB2",
"$X c #9788B6",
"%X c #9691B5",
"&X c #9C92B2",
"*X c #9B98B5",
"=X c #9A95B9",
"-X c #9E9ABB",
";X c #A196B6",
":X c #A59CBC",
">X c #A49AB9",
",X c #A398AF",
"<X c #A3A1BE",
"1X c #DE8494",
"2X c #E38D9C",
"3X c #C6A5B2",
"4X c #A587CA",
"5X c #A980D9",
"6X c #A880D7",
"7X c #A29EC2",
"8X c #A6A2C3",
"9X c #AAA4C4",
"0X c #AEAACA",
"qX c #A8A6C8",
"wX c #B1ADCD",
"eX c #B1AFD1",
"rX c #B5B3D3",
"tX c #B9B9D9",
"yX c #B8B7D7",
"uX c #BCB8C4",
"iX c #CBCFCE",
"pX c #C0C0E1",
"aX c #ECCED3",
/* pixels */
"      w.w.w.w.                                                                                                                  ",
"    }.8X8X8X&X8X}.]                                                                                                             ",
"    4.D.|.$Xp.;X>XF.                                                                                                            ",
"    p B ,.g.-.G.}.&Xy.                                                                                                          ",
"      1.j.Y.Y.V.A c.s.'             N                                                                 oXoXoX&X                  ",
"          j.E.E.V./ 4.Q m s m       d.Q                                                             .X8X8X9X0XXXoX              ",
"          9.A.Z.Q.7.N ~ D.3.^       D.Y                                               0XG       e.&X&X|.yXrXyX0XwX:XoX.X        ",
"              Z.T.Y.n b.rXF.F.[     |.i.            1 I                             H e.u.    XXOX>Xv.8.$X$XG.=X|.OXn.8XoX      ",
"              C.Q.!.m u.+Xb.r.f.    %X|.            W i.                            + 5 0X2 s.>X&XK.9.g.g.g.-.z.1.a.a.%X=XOX    ",
"              0.~.`.B & y K &  X    %X|.          $ %Xd.                            a i <Xi s..X3.Z.Y.Q.Y.Q.Q.Y.Q.6.7.Y -X|.t.  ",
"              1.H.6X/.H.OX_ I i     %XrX          W wX4.                          c.g T t.j ) Q N Y.Q.Y.^.Y.Q.T.Q.Y.Y.k./ |.wX  ",
"                j._.6X8.v.w.t.H     #XtXi.      I <X8XN                         4 ~ ^ i.s.G ' <.h.Y.Q.Q.Y.Q.Q.Q.Q.Q.Q.l.-./ q.  ",
"                1.H.~.I ' R u E $ J *XyXI       |.eXd.s                           T c.L..Xs.}./ Q.^.Q.Y.Y.^.Y.Q.Q.k.l.;.;.g     ",
"                  7.H.j i c > ~ u i :XrXW T a t.eX&XN                               }.oXoXOX}.S Q.Q.Q.Q.!.!.!.C.l.Z d   d       ",
"                  9.S.3 $ V.H.1.I u 8XtXyX} 1 .X;Xd.                                t.oX].G 3.C.Q.Q.Q.~.5X`.`.:.q               ",
"                    0.H.J.'.(.7.4 %XrXyXrX*X&XoXoXq.                                d.;X]._ 3.C.T.~._.`.`.5X`.A                 ",
"                    0._.5X5X~.l.4.yXyXtXyXrXyX:Xn.Q                               ^ 8X.X~ j.V.^.).'.5X5X5X_.S g                 ",
"                      J.5X5X~.6.|.tXyXeXrXtXtX9Xc.                                t.0Xt.<.Y.Q.).5X5X5X5X5XE.0                   ",
"                      H.5X5X(.,.u.tXyX9XeX0X9X:Xv.M                             s.|.%X6.Q.Q.~._.5X5X6X5XW.>.                    ",
"                      /.5X5X).-.} rXrX:XyXD.t.oXF.~                             +XrXi.A.Q.!._.6X5X5X5X_.A o                     ",
"                      S.`.`.~.C.a.rX0XXX9XXX>X.XoX]                             &X+X! Q.Y.!.5X5X5X6X5X5Xa                       ",
"                      W.5X4XK.<.t.rX0Xt.i.iX,X.XoXU                           y.eX XB Q.!.'.5X5X6X5X5X0.                        ",
"                      J.5X4X>Xi.F.yX0XQ } iX.X.XoXG                           OX7XG.6.(.`.5X6X5X5X5X_.D                         ",
"                      H./.&XtXtXtXyX0X2.=.=.].oX.XR                         s.wXd.A.Q.`.5X_.5X6X6X5XS.                          ",
"                      '.8.b.yXyXtXyXyXeXF P ].OXc.n.1                       #XyXd.k.Q.`._.5X5X5X5X5Xl                           ",
"                      ! c 9XyXyXyXtXtX0Xm.n.oXoXx.L.3     p p             s.eX*XS !.`.`.5X5X5X5X5X`.t                           ",
"                      / K tXrXd.9XeX:X;XoXoX&Xp.v.` H     4.4.          }.9X=XI n (.5X6X5X5X_.5X5XS.-                           ",
"                      0.T *X#Xt.9X:X}.E x.) K ) .XG ] Y   t.v.e       s.-XpXq.m 6.(.5X5X5X5X5X5X5X'                             ",
"                      S.M e.p.&XrX}.` # z # X G .XH r.Q N y.p.j Y s.XX&X8X*XG -.k.T.^.6X5X`.5X5X`.^                             ",
"                    h S.S t.c.wX;XR # 8 : l w H r.K .XQ t..XQ |.-X&X0X*X4.z l q h 6.h W.5X5X5X5XJ.-                             ",
"                    f C C v..X&XG :  ...7 m r H r.K oX] m.oX7XrXrXK ; 2 v c 2.-.>.A Z h V.5X5X5X/.g                             ",
"                          t.&Xr.$ , 8  .8 0 p E K r.oXm.y.oXyXpX+X$ t B ! 2.0.9.9.2.<.Z ;.j.5X`.H.0                             ",
"                          ( } j O v 8 O.7 6 t ] z .X.X&X.X8XtX+Xq.4 9.S V S V V V c -.D Z :.).5Xj.                              ",
"                            . .     +.%.o. .v ] Q .XoX0XyXyXrXL ,.1.,.-           .   C _ ! 7.^.6.                              ",
"                                  o.*.*.%.O.M.4.S t.>XrXtXtX&X/ 1.<.0                     o 0 h 7.C                             ",
"                                d.N.I.I.I.X.t.Y - 4.eXtXyXyX9Xa.>.- X                       X > r @                             ",
"                                Y $.I.2XI.@.v.x   z 8XyXtXyX0Xa.C c z                         4 o                               ",
"                                [.#.1XP.%.@.n.m     %XtXtXyXrX8.D G.4.                        ` 2                               ",
"                            e.[.aX*.P.#.%.b 4.    3 +XyXrXyXyXi.c.&Xy.                    y.y.oXc.Q                             ",
"                            @X@.&.$.{.o.3Xm.N     ] }.rX9XyXtX>Xp.p.m.N m           w.w.w.L..X.X.X.XY O                         ",
"                            uX{.+.%.3XN.{ R       ` OX8XwXyXtXrXqX&X.X~ Q x       p 4..Xn.oXoXoXoXoXn.G                         ",
"                            .Xm.6 6 x.[.M.K       } -X:XrXyXyXtXtX>X.X' _ ~ x p V ( v.oXoXoX.X3.' p.oXy.c   5                   ",
"                            r t.H i e.OX:XU       } eX0XrXyXyXyXeX&XoX' ] ] Y V _ v.oX.XoXoX.XN p Q p.oXt.> R O                 ",
"                            % m.9XrX0X:X;XK       } tXyXyXrXyXyX9XoXL.^ ] w.] w.] ].oXoXOXn.n.      N v.F.Q ] $                 ",
"                            % c.oX&XoXoXn.m       d.tXyXyXtXtXtX9XoXy.' w.] ] w.w..XoX.X.XV B         B c..Xc.x                 ",
"                              G oXoXoXoXx.*       ' qXtXyXyXtXyX;XoXt.4.' w.w.w.w.x.oXv.Y               Q y.L.H                 ",
"                              y L k i L z           .XeXtXtXrX:XoX.XM.n.T ) w.] w.y.t.'                 t.r.v.G                 ",
"                                + . . $ +         y ) :X9X0X:X.XoX.Xv.oX) j w.w.T z l                 ~ n.n.y.L                 ",
"                                                  3.G n.oXoX.XoX.XoXoXoXv.4 ' ] u .                 M ' w.].y.~                 ",
"                                                  t.c.' L.OXoX.XoXoX.XoX[.u T m p                     m N w.] ] ;               ",
"                                                Q n..Xt.Q c.oXc.w.oXoX.X.Xc ;                             N Y ] G               ",
"                                                ~ .XoXn.~ _ 3.Q x x.&XOXoXc                                   _ c >             ",
"                                                ~ oX.XoXy.Y p x > G r.oX.XY 3                                   m               ",
"                                                Y n.oXL.w.Y       . 5 m.c.w.~                                                   ",
"                                                  U oXw.~             * T w.~                                                   ",
"                                                  & 1 z _             e ] ] ] N                                                 ",
"                                                  * 4 J ~             N 4.~ _ N                                                 ",
"                                                  B ' c _ l           M ' N E ~                                                 ",
"                                                  B ~ > ` j             Y N ' y.                                                ",
"                                                  N w.r u k             z ~ B t.                                                ",
"                                                    Y     %             j j $ )                                                 ",
"                                                                        2 %   2 .                                               ",
"                                                                          .   .                                                 ",
"                                                                                                                                "
};
