/* XPM */
static char *result[] = {
/* columns rows colors chars-per-pixel */
"64 64 183 2 ",
"   c #010102",
".  c #0B0A0C",
"X  c #130E1A",
"o  c #1A0E10",
"O  c #17131A",
"+  c #350D19",
"@  c #140F20",
"#  c #1A1426",
"$  c #1E1926",
"%  c #1F1631",
"&  c #241D2F",
"*  c #231B36",
"=  c #351932",
"-  c #26222A",
";  c #2A252F",
":  c #232027",
">  c #272332",
",  c #2B2434",
"<  c #2E2932",
"1  c #272038",
"2  c #2B233C",
"3  c #312C36",
"4  c #342D3B",
"5  c #362436",
"6  c #34333C",
"7  c #411E2E",
"8  c #53152A",
"9  c #661A29",
"0  c #7C1F3B",
"q  c #2D2244",
"w  c #342B44",
"e  c #312649",
"r  c #362B49",
"t  c #3B3642",
"y  c #3D3946",
"u  c #3C354B",
"i  c #3B3944",
"p  c #3D2C5D",
"a  c #433B4C",
"s  c #40374B",
"d  c #462A55",
"f  c #433753",
"g  c #43355C",
"h  c #473B59",
"j  c #612C54",
"k  c #443464",
"l  c #4B3B66",
"z  c #4C3C6A",
"x  c #483766",
"c  c #723C60",
"v  c #4B4252",
"b  c #4F4C5C",
"n  c #494256",
"m  c #504759",
"M  c #554B5E",
"N  c #585E5F",
"B  c #7F415D",
"V  c #4A6A46",
"C  c #4E4163",
"Z  c #4F416F",
"A  c #514563",
"S  c #564C63",
"D  c #53446D",
"F  c #58486F",
"G  c #5A5264",
"H  c #5E5D6E",
"J  c #5F536A",
"K  c #554572",
"L  c #564A75",
"P  c #5B4C74",
"I  c #5C4E7A",
"U  c #5E527E",
"Y  c #5F5E70",
"T  c #60546E",
"R  c #635A6F",
"E  c #625376",
"W  c #665C73",
"Q  c #6A5E77",
"!  c #64547B",
"~  c #6B5C7D",
"^  c #67587C",
"/  c #73547A",
"(  c #6D637A",
")  c #676174",
"_  c #74677F",
"`  c #822141",
"'  c #9C2A43",
"]  c #962744",
"[  c #A6364D",
"{  c #B33E54",
"}  c #B9485D",
"|  c #8E4964",
" . c #9C5068",
".. c #A7546A",
"X. c #A55670",
"o. c #C45366",
"O. c #C35569",
"+. c #C45F72",
"@. c #C1677D",
"#. c #D46373",
"$. c #78837D",
"%. c #635681",
"&. c #665A85",
"*. c #6B5C83",
"=. c #6A5F8A",
"-. c #705F85",
";. c #6E638B",
":. c #6E6187",
">. c #726382",
",. c #776A85",
"<. c #73658B",
"1. c #7B6B8C",
"2. c #766C89",
"3. c #7C728B",
"4. c #7C798D",
"5. c #756C93",
"6. c #7C6D92",
"7. c #716791",
"8. c #7F7293",
"9. c #7C7A92",
"0. c #7C749B",
"q. c #7F78A0",
"w. c #896D87",
"e. c #82748F",
"r. c #837393",
"t. c #867996",
"y. c #887997",
"u. c #84769A",
"i. c #857B9B",
"p. c #8B7C9B",
"a. c #AE7586",
"s. c #847CA2",
"d. c #8F7FA1",
"f. c #907FA0",
"g. c #DB7A8A",
"h. c #83839A",
"j. c #90819F",
"k. c #8F9796",
"l. c #A58291",
"z. c #B98596",
"x. c #8C81A2",
"c. c #8C84AA",
"v. c #8F89AF",
"b. c #8B89A4",
"n. c #9585A5",
"m. c #9887A7",
"M. c #9787A8",
"N. c #958BAB",
"B. c #9989A9",
"V. c #9887A8",
"C. c #9D94A7",
"Z. c #938DB1",
"A. c #988EB1",
"S. c #9791B4",
"D. c #9C93B3",
"F. c #9C9BB6",
"G. c #9B97BA",
"H. c #9D9ABA",
"J. c #A695AB",
"K. c #A195B5",
"L. c #A59DBD",
"P. c #A397B8",
"I. c #A9A1AE",
"U. c #B9A4AE",
"Y. c #ACA3BA",
"T. c #A0A0BC",
"R. c #B4AFBE",
"E. c #DF8696",
"W. c #E0808F",
"Q. c #E08898",
"!. c #C0A7AF",
"~. c #A09DC0",
"^. c #A5A2C3",
"/. c #AAA3C3",
"(. c #ADABCB",
"). c #AAA8C8",
"_. c #B1AECE",
"`. c #B1AFD0",
"'. c #B5B4D4",
"]. c #B8B7D7",
"[. c #B9B9D9",
"{. c #C3C9C3",
"}. c None",
/* pixels */
"}.}.}.}.}.}.}.}.}.}.}.}.}.}.}.}.k l }.}.}.}.}.}.}.}.}.}.}.}.}.}.}.}.}.}.}.}.}.}.}.}.}.}.}.}.}.}.}.}.}.}.}.}.}.}.}.}.}.}.}.}.}.}.",
"}.}.}.}.}.}.}.}.}.}.}.}.}.}.}.}.U 0.}.}.}.}.}.}.}.}.}.}.}.}.}.}.}.}.}.}.}.}.}.}.}.}.}.}.}.}.}.}.}.}.}.}.}.}.}.}.}.}.}.}.}.}.}.}.",
"}.}.}.}.}.}.}.}.}.}.}.}.}.}.}.}.U s.}.}.}.}.}.}.}.}.e }.}.}.}.}.}.}.}.}.}.}.}.}.}.}.}.}.}.}.}.}.}.}.}.}.}.}.}.}.}.}.}.}.}.}.}.}.",
"}.}.}.}.}.}.}.}.}.}.}.}.}.}.}.}.U _.&.}.}.}.}.}.}.H :.}.}.}.}.}.}.}.}.}.}.}.}.}.}.}.}.}.}.}.}.}.}.}.}.}.}.}.}.}.}.}.}.}.}.}.}.}.",
"}.}.}.}.}.}.}.}.}.}.}.}.}.}.}.}.U `.;.}.}.}.}.}.i ).=.}.}.}.}.}.}.}.}.}.}.}.}.}.}.}.}.}.}.}.}.}.}.}.}.}.}.}.}.}.}.}.}.}.}.}.}.}.",
"}.}.}.}.}.}.}.}.}.}.}.}.}.}.}.}.U '.'.}.}.}.}.> b.^.L }.}.}.}.}.}.}.}.}.}.}.}.}.}.}.}.}.}.}.}.}.}.}.}.}.}.}.}.}.}.}.}.}.}.}.}.}.",
"}.}.}.}.}.}.}.}.}.}.}.}.}.}.}.}.L `.F.q }.}.}.u.[.i.}.}.}.}.}.}.}.}.}.}.}.}.}.}.}.}.}.}.}.}.}.}.}.}.}.}.}.}.}.}.}.}.}.}.}.}.}.}.",
"}.}.}.}.}.}.}.}.}.}.}.}.}.}.}.}.; D.S.6 D f D P.`.<.}.}.}.}.}.}.}.}.}.}.}.}.}.}.}.}.}.}.}.}.}.}.}.}.}.}.}.}.}.}.}.}.}.}.}.}.}.}.",
"}.}.}.}.}.}.}.}.}.}.}.}.}.}.}.}.a D.[.[.T.6 e.B.A.z }.}.}.}.}.}.}.}.}.}.}.}.}.}.}.}.}.}.}.}.}.}.}.}.}.}.}.}.}.}.}.}.}.}.}.}.}.}.",
"}.}.}.}.}.}.}.}.}.}.}.}.}.}.}.u T.[.[.].(.[.^.B.r.}.}.}.}.}.}.}.}.}.}.}.}.}.}.}.}.}.}.}.}.}.}.}.}.}.}.}.}.}.}.}.}.}.}.}.}.}.}.}.",
"}.}.}.}.}.}.}.}.}.}.}.}.}.}.}.7.[.[.[.].].[.'.B.L }.}.}.}.}.}.}.}.}.}.}.}.}.}.}.}.}.}.}.}.}.}.}.}.}.}.}.}.}.}.}.}.}.}.}.}.}.}.}.",
"}.}.}.}.}.}.}.}.}.}.}.}.}.}.}.G ].]._._.'.N.T.B.^ }.}.}.}.}.}.}.}.}.}.}.}.}.}.}.}.}.}.}.}.}.}.}.}.}.}.}.}.}.}.}.}.}.}.}.}.}.}.}.",
"}.}.}.}.}.}.}.}.}.}.}.}.}.}.}.S (.[.A.(.v.r.n.B.r.x }.}.}.}.}.}.}.}.}.}.}.}.}.}.}.}.}.}.}.}.}.}.}.}.}.}.}.}.}.}.}.}.}.}.}.}.}.}.",
"}.}.}.}.}.}.}.}.}.}.}.}.}.}.}.i.(.).:.T.Y.Y.m.V.W }.}.}.}.}.}.}.}.}.}.}.}.}.}.}.}.}.}.}.}.}.}.}.}.}.}.}.}.}.}.}.}.}.}.}.}.}.}.}.",
"}.}.}.}.}.}.}.}.}.}.}.}.L.v.0.T.[.x.x k.{.r.B.m.; }.}.}.}.}.}.}.}.}.}.}.}.}.}.}.}.}.}.}.}.}.}.}.}.}.}.}.}.}.}.}.}.}.}.}.}.}.}.}.",
"}.}.}.}.}.}.}.}.}.}.}.p._.[.[.[.].G.5.V $.n.m.p.G }.}.}.}.}.}.}.}.}.}.}.}.}.}.}.}.}.}.}.}.}.}.}.}.}.}.}.}.}.}.}.}.}.}.}.}.}.}.}.",
"}.}.}.}.}.}.}.}.}.}.}.^ ).[.[.[.[.[.D.N e.B.n.r.e.$ }.}.}.}.}.}.}.}.}.}.}.}.}.}.}.}.}.}.}.}.}.}.}.}.}.}.}.}.}.}.}.}.}.}.}.}.}.}.",
"}.}.}.}.}.}.}.}.}.}.}.n _.[.c.P.'.^.K.B.B.K.f.<.e.* }.}.%.! }.}.}.}.}.}.}.}.}.}.}.}.}.}.}.}.}.}.}.}.}.}.}.}.}.}.}.}.}.}.}.}.}.}.",
"}.}.}.}.}.}.}.}.}.}.}.v D.Z.7.).^.M.R B.M 6 a r.e., z }.r.r.2 }.}.}.}.}.}.}.}.}.}.}.}.}.}.}.}.}.}.}.}.}.}.}.}.}.}.}.}.}.}.}.}.}.",
"}.}.}.}.}.}.}.}.}.}.}.< >.r.P.`.p.t 7 6 * & & j.G T D -.p.n.4 }.}.}.}.}.}.}.}.}.}.}.}.}.}.}.}.}.}.}.}.}.}.}.}.}.}.}.}.}.}.}.}.}.",
"}.}.}.}.}.}.}.}.}.}.}.q 1.n.P.( 5 9 0 8 d k * f.t y.<.-.B.r.$ }.}.}.}.}.}.}.}.}.}.}.}.}.}.}.}.}.}.}.}.}.}.}.}.}.}.}.}.}.}.}.}.}.",
"}.}.}.}.}.}.}.}.}.}.}.}.*.B.e.: }.] ` ` = g g W T V.m.1.r.H.9.. 2 }.}.}.}.}.}.}.}.}.}.}.}.}.}.}.}.}.}.}.}.}.}.}.}.}.}.}.}.}.}.}.",
"}.}.}.}.}.}.}.}.}.}.}.}.}.6.2.}.}.` ' ` 8 O ~ M ( B.N./.^.[.N.T <.K p }.}.}.}.}.}.}.}.}.}.}.}.}.}.}.}.}.}.}.}.}.}.}.}.}.}.}.}.}.",
"}.}.}.}.}.}.}.}.}.}.}.}.}., - }.}.' O.` ` + W l 1.B.D.].[.].).(._.G.G.v.# }.}.}.}.}.}.}.}.}.}.}.}.}.}.}.}.}.}.}.}.}.}.}.}.}.}.}.",
"}.}.}.}.}.}.}.}.}.}.}.}.}.q }.}.j o.g.o.{ c r.! *.n./.[.].[.[.[.[.[.[.'.i   }.}.}.}.}.}.}.}.}.}.}.}.}.}.}.}.}.}.}.}.}.}.}.}.}.}.",
"}.}.}.}.}.}.}.}.}.}.}.s.v.%.%.r.l.#.Q.g.} / -.p.! A.].[.[.].'.[.[.[.].[.T.F.b % }.}.}.}.}.  }.  }.e   q }.}.}.}.}.}.}.}.}.}.}.}.",
"}.}.}.}.}.}.}.}.}.}.}.).(.n.n.>.| g.Q.Q...J.L F }.W [.].].[.].].].[.'.^.[.[.^.F.;.5.z 0.x b.^.F.N.i.2.D }.}.}.}.}.}.}.}.}.}.}.}.",
"}.}.}.}.}.}.}.}.}.}.}.c./.C.w.X.@.a. .z.J.~ }.}.<.p.].~.[.].[.[.5.K v.[.^.B.D.L.`.`.^.`.^.'./.D.B.B.m.4 }.}.}.}.}.}.}.}.}.}.}.}.",
"}.}.}.}.}.}.}.}.}.}.}.Z Z.R.U.[ +.z.!.c >.$ }.}.3.N.^.'.].].].[.D.p.*.I N.'.P.D.[.].[.].].K.N.B.B.B.m.; }.}.}.}.}.}.}.}.}.}.}.}.",
"}.}.}.}.}.}.}.}.}.}.}.0.[.i.6.5 o v I.n.4.. }.}.4.^.L.'.].].].].P.m.I p L ).`.L.].[.].[.Y.B.B.M.B.B.m.; }.}.}.}.}.}.}.}.}.}.}.}.",
"}.}.}.}.}.}.}.}.}.}.&.'.[.Y 2.D./.(.L.Y.,.. }.}.h.[.'.[.].[.[.(.V.V.! ! D z I ^.^.`.]._.B.B.B.m.M.m.n.:   }.}.3 }.}.}.}.}.}.}.}.",
"}.}.}.}.}.}.}.}.}.~ :.'.[.) >.N.N.B.N.B.P }.}.}.Z.[.[.[.[.].[.).B.6.x ~ -.! z ~.'.L.L.B.B.B.M.m.B.m.m.t ~ }.v 4 }.}.}.}.}.}.}.}.",
"}.}.}.}.}.}.}.}.}.N.'.[.].(.b p.p.i.m.p.< }.}.}.L (.].[.[.[.'.B.B.6.E ~ >.>.~ ! ~.B.i.B.m.m.B.B.m.B.n.a y.F ^ P }.}.}.}.}.}.}.}.",
"}.}.}.}.}.}.}._ ,.F.[.].].[.G.2 . . W 2 }.}.}.}., i.).'.'./.B.V.n.r.f.P ~ ~ -.E <.H.y.B.V.B.m.B.m.M.B.,.v n.n.1.. }.}.}.}.}.}.}.",
"}.}.}.}.}.}.}.5.(.[.].[.].'.K.&.p }.. }.}.}.}.}.^ m n.B.B.B.V.V.m.m.B.Q a ~ ~ _ P Z.i.m.B.m.B.m.m.B.N.3.* -.>.>.O }.}.}.}.}.}.}.",
"}.}.}.}.}.}.>.F.[.[.].]._.H.M.*.}.}.}.}.}.}.}.x r.1.~ p.m.B.n.f.V.V.B.f.4 T _ -.F D.P.r.m.B.m.B.B.m.m.e.M y.,.~ g }.}.}.}.}.}.}.",
"}.}.}.}.}.}.n.[.].].].'._.1.k }.}.}.}.}.}.}.}.^ B.V.1.z <.d.-.P j.B.B.B.h M ~ ~ w C m.1.m.B.B.V.m.B.m.m.n.y <.>.a }.}.}.}.}.}.}.",
"}.}.}.}.}.S.[.[.].[.[.G.).(.&.}.}.}.}.}.}.}.}.*.B.B.n.>.z g k * M y.B.B.P & z g }.P p.r.n.m.B.B.B.m.m.m.m.y h P f }.}.}.}.}.}.}.",
"}.}.}.2.G.L.[.].[.(.F.*.x.A.y.}.}.}.}.}.}.}.}.E j.B.y.*.z }.}.}.  ; p.B.E = }.}.}.}.x 1.r.m.V.V.B.m.B.m.M.^ r q k }.}.}.}.}.}.}.",
"}.~ d.y.'.[.[.[.~.7.Q 4.i.0.<.}.}.}.}.}.}.}.}.}.M _ P P }.}.}.}.}.}.b 6.>.! }.}.}.}.x r.<.f.B.V.m.B.m.m.B.N.<.}.}.}.}.}.}.}.}.}.",
"p <.'.[.[.[.G.Z.z P L.[.~.k p }.}.}.}.}.}.}.}.}.X O A P }.}.}.}.}.}.@ A _ E x }.}.}.}.r.y.p.V.V.V.m.B.m.m.B.e.r }.}.}.}.}.}.}.}.",
"p q.).^.S.v.z p }.}.H.G.s.}.}.}.}.}.}.}.}.}.}.}.x ^ h ! }.}.}.}.}.}.x ~ ^ ^ F }.}.}.}.K n.r.n.V.V.B.m.B.B.B.B.f.C }.}.}.}.}.}.}.",
"}.}.}.}.p p }.}.}.}.~ F F }.}.}.}.}.}.}.}.}.}.}.L F & ( 3 }.}.}.}.}.x ! z I F }.}.}.}.! m.n.r.d.V.V.B.m.m.B.B.B.T   }.}.}.}.}.}.",
"}.}.}.}.}.}.}.}.}.}.}.}.}.}.}.}.}.}.}.}.}.}.}.}.! x }.3 }.}.}.}.}.}.r E k 1.C }.}.}.}.x.m.u.i.r.m.V.m.B.m.B.m.B.r.u w }.}.}.}.}.",
"}.}.}.}.}.}.}.}.}.}.}.}.}.}.}.}.}.}.}.}.}.}.}.}.}.}.}.  }.}.}.}.}.}.O W }.C a }.}.}.r.c.m.! u.B.m.m.m.B.B.m.B.B.B.A.u.P }.}.}.}.",
"}.}.}.}.}.}.}.}.}.}.}.}.}.}.}.}.}.}.}.}.}.}.}.}.}.}.}.}.}.}.}.}.}.}.}.3 }.; - }.}.2.L.=.m.<.*.B.K.m.m.m.m.B.B.m.m.B.B.n.<.2.2.}.",
"}.}.}.}.}.}.}.}.}.}.}.}.}.}.}.}.}.}.}.}.}.}.}.}.}.}.}.}.}.}.}.}.}.}.}.}.}.}.  }.}.r.v.L i.r.~ S N.^.K.m.m.m.m.V.m.m.m.m.V.f.K.>.",
"}.}.}.}.}.}.}.}.}.}.}.}.}.}.}.}.}.}.}.}.}.}.}.}.}.}.}.}.}.}.}.}.}.}.}.}.}.}.}.}.}.}.}.K A.<.~ }.=.~.A.^.~.~.L.J.L.K./././.~.s.L ",
"}.}.}.}.}.}.}.}.}.}.}.}.}.}.}.}.}.}.}.}.}.}.}.}.}.}.}.}.}.}.}.}.}.}.}.}.}.}.}.}.}.}.}.5._.I }.}.}.}.=.~.G.[.[.'.[.).0.~.q.5.k }.",
"}.}.}.}.}.}.}.}.}.}.}.}.}.}.}.}.}.}.}.}.}.}.}.}.}.}.}.}.}.}.}.}.}.}.}.}.}.}.}.}.}.}.}.a v & }.}.}.}.}.&.%.0.v.0.c.7.}.&.k }.}.}.",
"}.}.}.}.}.}.}.}.}.}.}.}.}.}.}.}.}.}.}.}.}.}.}.}.}.}.}.}.}.}.}.}.}.}.}.}.}.}.}.}.}.}.}.}.}.}.}.}.}.}.}.}.}.}.}.}.}.}.}.}.}.}.}.}.",
"}.}.}.}.}.}.}.}.}.}.}.}.}.}.}.}.}.}.}.}.}.}.}.}.}.}.}.}.}.}.}.}.}.}.}.}.}.}.}.}.}.}.}.}.}.}.}.}.}.}.}.}.}.}.}.}.}.}.}.}.}.}.}.}.",
"}.}.}.}.}.}.}.}.}.}.}.}.}.}.}.}.}.}.}.}.}.}.}.}.}.}.}.}.}.}.}.}.}.}.}.}.}.}.}.}.}.}.}.}.}.}.}.}.}.}.}.}.}.}.}.}.}.}.}.}.}.}.}.}.",
"}.}.}.}.}.}.}.}.}.}.}.}.}.}.}.}.}.}.}.}.}.}.}.}.}.}.}.}.}.}.}.}.}.}.}.}.}.}.}.}.}.}.}.}.}.}.}.}.}.}.}.}.}.}.}.}.}.}.}.}.}.}.}.}.",
"}.}.}.}.}.}.}.}.}.}.}.}.}.}.}.}.}.}.}.}.}.}.}.}.}.}.}.}.}.}.}.}.}.}.}.}.}.}.}.}.}.}.}.}.}.}.}.}.}.}.}.}.}.}.}.}.}.}.}.}.}.}.}.}.",
"}.}.}.}.}.}.}.}.}.}.}.}.}.}.}.}.}.}.}.}.}.}.}.}.}.}.}.}.}.}.}.}.}.}.}.}.}.}.}.}.}.}.}.}.}.}.}.}.}.}.}.}.}.}.}.}.}.}.}.}.}.}.}.}.",
"}.}.}.}.}.}.}.}.}.}.}.}.}.}.}.}.}.}.}.}.}.}.}.}.}.}.}.}.}.}.}.}.}.}.}.}.}.}.}.}.}.}.}.}.}.}.}.}.}.}.}.}.}.}.}.}.}.}.}.}.}.}.}.}.",
"}.}.}.}.}.}.}.}.}.}.}.}.}.}.}.}.}.}.}.}.}.}.}.}.}.}.}.}.}.}.}.}.}.}.}.}.}.}.}.}.}.}.}.}.}.}.}.}.}.}.}.}.}.}.}.}.}.}.}.}.}.}.}.}.",
"}.}.}.}.}.}.}.}.}.}.}.}.}.}.}.}.}.}.}.}.}.}.}.}.}.}.}.}.}.}.}.}.}.}.}.}.}.}.}.}.}.}.}.}.}.}.}.}.}.}.}.}.}.}.}.}.}.}.}.}.}.}.}.}.",
"}.}.}.}.}.}.}.}.}.}.}.}.}.}.}.}.}.}.}.}.}.}.}.}.}.}.}.}.}.}.}.}.}.}.}.}.}.}.}.}.}.}.}.}.}.}.}.}.}.}.}.}.}.}.}.}.}.}.}.}.}.}.}.}.",
"}.}.}.}.}.}.}.}.}.}.}.}.}.}.}.}.}.}.}.}.}.}.}.}.}.}.}.}.}.}.}.}.}.}.}.}.}.}.}.}.}.}.}.}.}.}.}.}.}.}.}.}.}.}.}.}.}.}.}.}.}.}.}.}.",
"}.}.}.}.}.}.}.}.}.}.}.}.}.}.}.}.}.}.}.}.}.}.}.}.}.}.}.}.}.}.}.}.}.}.}.}.}.}.}.}.}.}.}.}.}.}.}.}.}.}.}.}.}.}.}.}.}.}.}.}.}.}.}.}.",
"}.}.}.}.}.}.}.}.}.}.}.}.}.}.}.}.}.}.}.}.}.}.}.}.}.}.}.}.}.}.}.}.}.}.}.}.}.}.}.}.}.}.}.}.}.}.}.}.}.}.}.}.}.}.}.}.}.}.}.}.}.}.}.}.",
"}.}.}.}.}.}.}.}.}.}.}.}.}.}.}.}.}.}.}.}.}.}.}.}.}.}.}.}.}.}.}.}.}.}.}.}.}.}.}.}.}.}.}.}.}.}.}.}.}.}.}.}.}.}.}.}.}.}.}.}.}.}.}.}."
};
