/* XPM */
static char *result[] = {
/* columns rows colors chars-per-pixel */
"64 64 208 2 ",
"   c #000001",
".  c #08070B",
"X  c #0C0B0D",
"o  c #05030B",
"O  c #0E0B12",
"+  c #0E0A18",
"@  c #150D16",
"#  c #121115",
"$  c #1A191E",
"%  c #17151A",
"&  c #260F1F",
"*  c #22171F",
"=  c #3D141F",
"-  c #1B1525",
";  c #1E1C24",
":  c #1C0F3C",
">  c #1B132E",
",  c #211F26",
"<  c #241D2E",
"1  c #231B35",
"2  c #271E38",
"3  c #212127",
"4  c #26232B",
"5  c #28272E",
"6  c #292433",
"7  c #2D2832",
"8  c #2B2339",
"9  c #322D37",
"0  c #322C3B",
"q  c #35313C",
"w  c #451A2A",
"e  c #591329",
"r  c #721C38",
"t  c #5C393D",
"y  c #44783D",
"u  c #2A1950",
"i  c #342C45",
"p  c #3A2D4B",
"a  c #332545",
"s  c #3A3445",
"d  c #3C3844",
"f  c #3C364B",
"g  c #372952",
"h  c #3C2C5D",
"j  c #382858",
"k  c #3D3055",
"l  c #361E6B",
"z  c #301965",
"x  c #2F1767",
"c  c #3C236E",
"v  c #3F2F60",
"b  c #3E2471",
"n  c #41374C",
"m  c #443D4C",
"M  c #452E58",
"N  c #423357",
"B  c #463C53",
"V  c #41345B",
"C  c #443A5A",
"Z  c #4A395F",
"A  c #562842",
"S  c #7D2243",
"D  c #433262",
"F  c #4B3562",
"G  c #4A3966",
"H  c #4C3C6B",
"J  c #523C6B",
"K  c #432974",
"L  c #442974",
"P  c #4C307C",
"I  c #583F71",
"U  c #54387F",
"Y  c #422A6C",
"T  c #44414D",
"R  c #4B4254",
"E  c #4D445A",
"W  c #4A4B57",
"Q  c #534C5D",
"!  c #50485A",
"~  c #4D664E",
"^  c #544D63",
"/  c #53436D",
"(  c #554A6A",
")  c #5A5164",
"_  c #5E546B",
"`  c #5C5B6C",
"'  c #545563",
"]  c #534372",
"[  c #574977",
"{  c #5B4B74",
"}  c #5C4D7A",
"|  c #5B477C",
" . c #5F517D",
".. c #61566C",
"X. c #715F6F",
"o. c #635576",
"O. c #64547B",
"+. c #6B5B7D",
"@. c #675B73",
"#. c #725376",
"$. c #614D76",
"%. c #6A6A7D",
"&. c #666277",
"*. c #72677E",
"=. c #75707E",
"-. c #892338",
";. c #822142",
":. c #8A2544",
">. c #8B2A48",
",. c #9A2B45",
"<. c #B0354A",
"1. c #95435D",
"2. c #BC4457",
"3. c #905571",
"4. c #AD5D72",
"5. c #B16B7E",
"6. c #A8677A",
"7. c #C94657",
"8. c #C8576A",
"9. c #DA6A7A",
"0. c #C4717D",
"q. c #C66A7E",
"w. c #5B4283",
"e. c #624683",
"r. c #6D4D8E",
"t. c #654887",
"y. c #625382",
"u. c #655B85",
"i. c #6D5D83",
"p. c #6A5A89",
"a. c #704E90",
"s. c #725192",
"d. c #6C628B",
"f. c #736384",
"g. c #796B87",
"h. c #73648B",
"j. c #766A8A",
"k. c #7A6B8C",
"l. c #766982",
"z. c #747185",
"x. c #75758C",
"c. c #7D718C",
"v. c #716691",
"b. c #756B94",
"n. c #7D6D93",
"m. c #796D98",
"M. c #7D629D",
"N. c #7D7799",
"B. c #816F88",
"V. c #8F748D",
"C. c #806F96",
"Z. c #837494",
"A. c #867995",
"S. c #8C7A97",
"D. c #85759B",
"F. c #827C9C",
"G. c #8C7C9D",
"H. c #9C7090",
"J. c #906B88",
"K. c #827AA1",
"L. c #8E7EA0",
"P. c #D87787",
"I. c #CB6D83",
"U. c #E57A8A",
"Y. c #83819A",
"T. c #8A859B",
"R. c #988499",
"E. c #949D96",
"W. c #8E83A3",
"Q. c #8C85AA",
"!. c #8F89AF",
"~. c #8B8DA3",
"^. c #9484A4",
"/. c #9887A7",
"(. c #948BAA",
"). c #998AAA",
"_. c #9588A8",
"`. c #9D91AD",
"'. c #928CB2",
"]. c #9D8FB0",
"[. c #9988BA",
"{. c #9691B7",
"}. c #9E92B2",
"|. c #9D99BC",
" X c #9B97B9",
".X c #A090AE",
"XX c #A294B5",
"oX c #A59BBB",
"OX c #A99EBF",
"+X c #A6A0BF",
"@X c #B1B8B6",
"#X c #E18A9A",
"$X c #E08797",
"%X c #E6909F",
"&X c #A49FC2",
"*X c #A5A3C4",
"=X c #AAA5C5",
"-X c #A9A9C6",
";X c #ADAACB",
":X c #B1AECE",
">X c #B1ADD2",
",X c #B5B5D5",
"<X c #B8B6D6",
"1X c #B9B9D9",
"2X c #D2CED9",
"3X c #C0C1E1",
"4X c #E8EBE8",
"5X c None",
/* pixels */
"5X5X5X5X5X5X5X5XG 5X5X5X5X5X5X5X5X5X5X5X5X5X5X5X5X5X5X5X5X5X5X5X5X5X5X5X5X5X5X5X5X5X5X5X5X5X5X5X5X5X5X5X5X5X5X5X5X5X5X5X5X5X5X5X",
"5X5X5X5X5X5X5X5XN.b.5X5X5X5X5X5X5X5X5X5X5Xi D 5X5X5X5X5X5X5X5X5X5X5X5X5X5X5X5X5X5X5X5X5X5X5X5X5X5X5X5X5X5X5X5X5X5X5X5X5X5X5X5X5X",
"5X5X5X5X5X5X5X] '.v.5X5X5X5X5X5X5X5X5X5XQ K.5X5X5X5X5X5X5X5X5X5X5X5X5X5X5X5X5X5X5X5X5X5X5X5X5X5X5X5X5X5X5X5X5X5X5X5X5X5X5X5X5X5X",
"5X5X5X5X5X5X5Xm.3Xv.5X5X5X5X5X5X5X5X' 1XQ.h 5X5X5X5X5X5X5X5X5X5X5X5X5X5X5X5X5X5X5X5X5X5X5X5X5X5X5X5X5X5X5X5X5X5X5X5X5X5X5X5X5X5X",
"5X5X5X5X5X5X5Xm.3X!.} 5X5X5X5X5X5X` 3X*Xy.5X5X5X5X5X5X5X5X5X5X5X5X5X5X5X5X5X5X5X5X5X5X5X5X5X5X5X5X5X5X5X5X5X5X5X5X5X5X5X5X5X5X5X",
"5X5X5X5X5X5X5Xm.1X3X(   a O.H D h.1X,XQ.h 5X5X5X5X5X5X5X5X5X5X5X5X5X5X5X5X5X5X5X5X5X5X5X5X5X5X5X5X5X5X5X5X5X5X5X5X5X5X5X5X5X5X5X",
"5X5X5X5X5X5X5X&.:X:X~.%.F.d - i.).*X-XO.5X5X5X5X5X5X5X5X5X5X5X5X5X5X5X5X5X5X5X5X5X5X5X5X5X5X5X5X5X5X5X5X5X5X5X5X5X5X5X5X5X5X5X5X",
"5X5X5X5X5X5X5Xs XX,X1X1X=XY.N._./.).L.h 5X5X5X5X5X5X5X5X5X5X5X5X5X5X5X5X5X5X5X5X5X5X5X5X5X5X5X5X5X5X5X5X5X5X5X5X5X5X5X5X5X5X5X5X",
"5X5X5X5X5X5XT |.,X1X<X1X:X1X1X:X).L.] 5X5X5X5X5X5X5X5X5X5X5X5X5X5X5X5X5X5X5X5X5X5X5X5X5X5X5X5X5X5X5X5X5X5X5X5X5X5X5X5X5X5X5X5X5X",
"5X5X5X5X5Xw.-X1X1X1X<X<X1X,X,X,X).S.D 5X5X5X5X5X5X5X5X5X5X5X5X5X5X5X5X5X5X5X5X5X5X5X5X5X5X5X5X5X5X5X5X5X5X5X5X5X5X5X5X5X5X5X5X5X",
"5X5X5X5X5XT 1X1X1X<XoX:X:Xd.j.).).^.O.D 5X5X5X5X5X5X5X5X5X5X5X5X5X5X5X5X5X5X5X5X5X5X5X5X5X5X5X5X5X5X5X5X5X5X5X5X5X5X5X5X5X5X5X5X",
"5X5X5X5X5Xq *X1X1X X=X;Xh.2X`./.).).Z.g 5X5X5X5X5X5X5X5X5X5X5X5X5X5X5X5X5X5X5X5X5X5X5X5X5X5X5X5X5X5X5X5X5X5X5X5X5X5X5X5X5X5X5X5X",
"5X5X5X5X5X5XW.1X1X^._.b.@X4XA.^./.).g.  5X5X5X5X5X5X5X5X5X5X5X5X5X5X5X5X5X5X5X5X5X5X5X5X5X5X5X5X5X5X5X5X5X5X5X5X5X5X5X5X5X5X5X5X",
"5X5XXX(.u.d.}.1X1XF.V =.y E.Z.^./.L.Z.4 5X5X5X5X5X5X5X5X5X5X5X5X5X5X5X5X5X5X5X5X5X5X5X5X5X5X5X5X5X5X5X5X5X5X5X5X5X5X5X5X5X5X5X5X",
"5XW.1X1X1X1X1X1X1X!.p.B ~ z.^./.^.j./.l.  5X5X5X5X5X5X5X5X5X5X5X5X5X5X5X5X5X5X5X5X5X5X5X5X5X5X5X5X5X5X5X5X5X5X5X5X5X5X5X5X5X5X5X",
"H j.1X1X1X1X1X1X1X1X,XXX).`.).`.^.O.).l.. 5X5X5X5X5X5X5X5X5X5X5X5X5X5X5X5X5X5X5X5X5X5X5X5X5X5X5X5X5X5X5X5X5X5X5X5X5X5X5X5X5X5X5X",
"6 j.1X1X-Xm.oX1X:XOX.X).].Q m m R d.).=.+ D 5X5XO.i.] 5X5X5X5X5X5X5X5X5X5X5X5X5X5X5X5X5X5X5X5X5X5X5X5X5X5X5X5X5X5X5X5X5X5X5X5X5X",
"X Z.(.*Xp.N.-X:X.X).) 9 0 2 1 1 X ^.Z.m ../ 5X5Xi.XXj.< 5X5X5X5X5X5X5X5X5X5X5X5X5X5X5X5X5X5X5X5X5X5X5X5X5X5X5X5X5X5X5X5X5X5X5X5X",
"5X0 j.^.j.<X:X}.) 4 w e e M D h # ^.g.$ f./ h.G.G.).R X 5X5X5X5X5X5X5X5X5X5X5X5X5X5X5X5X5X5X5X5X5X5X5X5X5X5X5X5X5X5X5X5X5X5X5X5X",
"5Xk G./._.XX@.$ w -.-.;.;.& j M N Z.9 c.L.i.i.).).h.- 5X5X5X5X5X5X5X5X5X5X5X5X5X5X5X5X5X5X5X5X5X5X5X5X5X5X5X5X5X5X5X5X5X5X5X5X5X",
"5X5X{ ^.).@.X 5X5X:.:.;.;.r @ # D.B., ).)./.D.g.'.;X*Xd . 5X5X5X5X5X5X5X5X5X5X5X5X5X5X5X5X5X5X5X5X5X5X5X5X5X5X5X5X5X5X5X5X5X5X5X",
"5X5X5X{ G.)   5X5X;.<.,.>.:.r * S.] G.)./.XX,X>X,X1X1X`.oX,X1X1X1X5X5X5X5X5X5X5X5X5X5X5X5X5X5X5X5X5X5X5X5X5X5X5X5X5X5X5X5X5X5X5X",
"5X5X5X5X. . 5X5X;.<.9.8.P.7.;.S.Z.C G._._.OX1X<X1X1X1X1X-X,X1X1X1X<X1X5X5X5X5X5X5X5X5X5X5X5X5X5X5Xj.5X5X5X5X5X5X5X5X5X5X5X5X5X5X",
"5X5X5X5X5X5X5Xu.1.9.#X$X$X2.#.G.h O / ).OX1X<X1X1X1X1X1Xu.*X1X1X1X<X,X5X5X5X5X5X5X5X5X5X5Xk.j.j.k.^.f.] ] 5X5X5X5X5X5X5X5X5X5X5X",
"5X5X5X5X5X5X5XB.0.9.%X$XI.>.R.^.D 8 / c.1X1X,X1X1X1X1X1XN.{.,X1X,X1X&XH 5X5X5X5X5X5Xi.g.k.^.)._.).).).).G.Z 7 R 5X5X5X4 . 5X5X5X",
"5X5X5X5X5X5XF.3.4.%Xq.P.2.I.i.N.D F F 4 3X1X1X1X1X,X,X1X1XC *X1X1X1X*XH 5X5X5X5X5X/ f.^.)./.)./._.h.h.f.n.XX).).n.] - j.s 5X5X5X",
"5X5X5X5XA.T.S.P.U.I.5.4.:.R.).m H   k ) |.1X:X;X1X1X1X1X1X%.K.,X1X1X;Xb.G 5X5XH ] $.G.).).)././.^.D h h / i.i.i.D.C.i.G.b.; 5X5X",
"5X5X5X5Xj.A.#.A t = X.J.H.h.G.# Y : i OX/.:XoX:X1X1X,X1X1X1Xs -X1X1X1X,XQ.d./ O.B./.).).h.O.G.5X5X5X5X5X5X5Xh F k..XS.n./.p 5X5X",
"5X5X5X5X5Xn ^.j.x.x.(.}. X).O.F z > Y.,X:X,X;X1X1X,X1X1X1X,X*.).N.,X1X1X3X{.[ f.g.G.).i.5X5X5X5X5X5X5X5X5X5X5X+.j.G.L.S.C.+.O.X ",
"5X5X5X5X5X9 ).XXoXoXXX)././.4 c z C 1X1X1X1X1X1X1X1X,X1X+X}.).T.8 >X1X,X1X'.{ f.+.j.O.5X5X5X5X5X5X5X5X5X5X5X5X/ H ] i.k.*.+.+.X ",
"5X5X5X5X5X5XE _.R.^.^.^.} 6 J z 5X5Xu.1X,X1X1X1X1X,X1X+X/./.^./ % >X1X1X1X,XK.O.n # O 5X5X5X5X5X5X5X5X5X5X5X5X5X5X5XG G G G F p ",
"5X5X5X5X5X5X5Xi # # % % O J r.l 5X5X6 ^.XX1X,X,X,X+X).)./.).^.G ; ;X1X1X1X1X'.G k 5X5X5X5X5X5X5X5X5X5X5X5X5X5X5X5X5X5X5X5X5X5X5X",
"5X5X5X5X5X5X5X5X5X  z.q F s.a.l 5XH l.0 W.).).).).).)._.)./.k.G.D. .,X1X1X1X1XN.5X5X5X5X5X5X5X5X5X5X5X5X5X5X5X5X5X5X5X5X5X5X5X5X",
"5X5X5X5X5X5X5X5X; 3 z.f I s.t.l D { ).D.{ k.G.L.).).^.G./.)././.Y.3 ,X1X1X,X1X!.| 5X5X5X5X5X5X5X5X5X5X5X5X5X5X5X5X5X5X5X5X5X5X5X",
"5X5X5X5X5X5X5X5X` -Xf I s.e.l 5XG ^./.).L.+.F O.Z.Z.i.G o.R././.g.0 ,X1X1X1X1X1X(.} 5X5X5X5X5X5X5X5X5X5X5X5X5X5X5X5X5X5X5X5X5X5X",
"5X5X5X5X5X5X5X5 x.d M s.s.c x 5XH /././.).G.*.{ h h v v O D..X_.i. .,X,X;X;X,X1X1X'.y.5X5X5X5X5X5X5X5X5X5X5X5X5X5X5X5X5X5X5X5X5X",
"5X5X5X5X5X5X5X' [.M I s.a.c 5X5X5X..).].L.h.O./ 5X5X5X5X5XQ ) _.^.} ,X:X^._..X=X&X<X].y.5X5X5X5X5X5X5X5X5X5X5X5X5X5X5X5X5X5X5X5X",
"5X5X5X5X5X5Xq ~.[.s.s.s.s.b 5X5X5XX T m B O.{ h 5X5X5X5X5X5X  m h.Q.,XoX/././././.oXz.5X5X5X5X5X5X5X5X5X5X5X5X5X5X5X5X5X5X5X5X5X",
"5X5X5X5X5X5XW >XM.s.s.U w.5X5X5X5X5X2 n B O.{ v 5X5X5X5X5X5X5X5X[ ,X>X_././././.).C.i 5X5X5X5X5X5X5X5X5X5X5X5X5X5X5X5X5X5X5X5X5X",
"5X5X5X5X5Xs &.4 F s.s.b 5X5X5X5X5X5XH +.k 8 k.E 5X5X5X5X5X5X5X5X} ,X,X/.).)././..XR 5X5X5X5X5X5X5X5X5X5X5X5X5X5X5X5X5X5X5X5X5X5X",
"5X5X5X] a T -X~.m.a.s.K 5X5X5X5X5XJ h.H 5X9 @.% 5X5X5X5X5X5X5X5X} >X}._./.)./.).b.N 5X5X5X5X5X5X5X5X5X5X5X5X5X5X5X5X5X5X5X5X5X5X",
"5X5X5X7 (.f.` 1XK.e.s.L 5X5X5X5X5X5XH D 5X5XX   5X5X[ ] H [ 5X[ *X,X)././.).).).! 5X5X5X5X5X5X5X5X5X5X5X5X5X5X5X5X5X5X5X5X5X5X5X",
"5X5X5X3 ^.N.i f { e.s.t.b 5X5X5X5X5X5X5X5X5X5X5X5X5XQ.p.[ |.>Xp.;X<X;X/.)././.).G.d 5X5X5X5X5X5X5X5X5X5X5X5X5X5X5X5X5X5X5X5X5X5X",
"5X5X5X5X6 v.^.u.e.a.s.K 5X5X5X5X5X5X5X5X5X5X5X5X5X5X[ ] |.W._.*Xv.;X)./././.).).i.5X5X5X5X5X5X5X5X5X5X5X5X5X5X5X5X5X5X5X5X5X5X5X",
"5X5X5X5X( &X{.y.a.s.s.K 5X5X5X5X5X5X5X5X5X5X5X5X5X5X5XH Y.5 @.).-XXX_././.)./.].m 5X5X5X5X5X5X5X5X5X5X5X5X5X5X5X5X5X5X5X5X5X5X5X",
"5X5X5X5X, A.<XL.| s.s.K 5X5X5X5X5X5X5X5X5X5X5X5X5X5X5X5X- 5X7 G.).=X).).)././.].T 5X5X5X5X5X5X5X5X5X5X5X5X5X5X5X5X5X5X5X5X5X5X5X",
"5X5X5X5X5X4 ..B J s.s.K 5X5X5X5X5X5X5X5X5X5X5X5X5X5X5Xv.m.B G.)././././._.)./.].m 5X5X5X5X5X5X5X5X5X5X5X5X5X5X5X5X5X5X5X5X5X5X5X",
"5X5X5X5X5X< , O J s.w.K 5X5X5X5X5X5X5X5X5X5X5X5X5X5XH |.3XXX/.n._./././././.).).m 5X5X5X5X5X5X5X5X5X5X5X5X5X5X5X5X5X5X5X5X5X5X5X",
"5X5X5X5X5Xq Z.$.s.s.L 5X5X5X5X5X5X5X5X5X5X5X5X5X5X5X5X^ (.`.! j./././.).)././.].o.5X5X5X5X5X5X5X5X5X5X5X5X5X5X5X5X5X5X5X5X5X5X5X",
"5X5X5X5X5Xn D.@.F s.L 5X5X5X5X5X5X5X5X5X5X5X5X5X5X5X5X5X5Xd 5X5Xh._./././././.).^ 5X5X5X5X5X5X5X5X5X5X5X5X5X5X5X5X5X5X5X5X5X5X5X",
"5X5X5X5X5X5XE ! a s.t.L 5X5X5X5X5X5X5X5X5X5X5X5X5X5X5X5X5X5X5X5X1 *X)._./.)./..Xm 5X5X5X5X5X5X5X5X5X5X5X5X5X5X5X5X5X5X5X5X5X5X5X",
"5X5X5X5X5X5XC i.m F s.L 5X5X5X5X5X5X5X5X5X5X5X5X5X5X5X5X5X5X5X5X# -X)./.)././.].m 5X5X5X5X5X5X5X5X5X5X5X5X5X5X5X5X5X5X5X5X5X5X5X",
"5X5X5X5X5X5Xm ) p t.a.K 5X5X5X5X5X5X5X5X5X5X5X5X5X5X5X5X5X5X5X5X5Xi.;X_._././.].m 5X5X5X5X5X5X5X5X5X5X5X5X5X5X5X5X5X5X5X5X5X5X5X",
"5X5X5X5X5X5X5Xi.m N P 5X5X5X5X5X5X5X5X5X5X5X5X5X5X5X5X5X5X5X5X5X5X3 :X/.)./.).).T 5X5X5X5X5X5X5X5X5X5X5X5X5X5X5X5X5X5X5X5X5X5X5X",
"5X5X5X5X5X5X5XR Q n P 5X5X5X5X5X5X5X5X5X5X5X5X5X5X5X5X5X5X5X5X5X5X; &X)./.).)..Xm 5X5X5X5X5X5X5X5X5X5X5X5X5X5X5X5X5X5X5X5X5X5X5X",
"5X5X5X5X5X5X5Xd G.B F P 5X5X5X5X5X5X5X5X5X5X5X5X5X5X5X5X5X5X5X5X5X5X{ :X/.)./.).! 5X5X5X5X5X5X5X5X5X5X5X5X5X5X5X5X5X5X5X5X5X5X5X",
"5X5X5X5X5X5X5X5Xn +.p.j 5X5X5X5X5X5X5X5X5X5X5X5X5X5X5X5X5X5X5X5X5X5X3 -XD.).).).o.5X5X5X5X5X5X5X5X5X5X5X5X5X5X5X5X5X5X5X5X5X5X5X",
"5X5X5X5X5X5X5X5X  ..( O 5X5X5X5X5X5X5X5X5X5X5X5X5X5X5X5X5X5X5X5X5X5X5X5X^ XX/.].m 5X5X5X5X5X5X5X5X5X5X5X5X5X5X5X5X5X5X5X5X5X5X5X",
"5X5X5X5X5X5X5X5X5Xq E 5X5X5X5X5X5X5X5X5X5X5X5X5X5X5X5X5X5X5X5X5X5X5X5X5Xf Q.)..Xm 5X5X5X5X5X5X5X5X5X5X5X5X5X5X5X5X5X5X5X5X5X5X5X",
"5X5X5X5X5X5X5X5X5X5Xq * 5X5X5X5X5X5X5X5X5X5X5X5X5X5X5X5X5X5X5X5X5X5X5X5X5Xp D.].T 5X5X5X5X5X5X5X5X5X5X5X5X5X5X5X5X5X5X5X5X5X5X5X",
"5X5X5X5X5X5X5X5X5X5X5X  5X5X5X5X5X5X5X5X5X5X5X5X5X5X5X5X5X5X5X5X5X5X5X5X5Xo E XXm 5X5X5X5X5X5X5X5X5X5X5X5X5X5X5X5X5X5X5X5X5X5X5X",
"5X5X5X5X5X5X5X5X5X5X5X5X5X5X5X5X5X5X5X5X5X5X5X5X5X5X5X5X5X5X5X5X5X5X5X5X5X5X# _ +.5X5X5X5X5X5X5X5X5X5X5X5X5X5X5X5X5X5X5X5X5X5X5X",
"5X5X5X5X5X5X5X5X5X5X5X5X5X5X5X5X5X5X5X5X5X5X5X5X5X5X5X5X5X5X5X5X5X5X5X5X5X5X5XX ) n 5X5X5X5X5X5X5X5X5X5X5X5X5X5X5X5X5X5X5X5X5X5X",
"5X5X5X5X5X5X5X5X5X5X5X5X5X5X5X5X5X5X5X5X5X5X5X5X5X5X5X5X5X5X5X5X5X5X5X5X5X5X5X5X5XO   5X5X5X5X5X5X5X5X5X5X5X5X5X5X5X5X5X5X5X5X5X"
};
