/* XPM */
static char *result[] = {
/* columns rows colors chars-per-pixel */
"64 64 218 2 ",
"   c #010002",
".  c #05020B",
"X  c #0B090D",
"o  c #0C0000",
"O  c #0E0B13",
"+  c #0C0619",
"@  c #120D1D",
"#  c #150E14",
"$  c #131116",
"%  c #16121B",
"&  c #1B181E",
"*  c #1B080E",
"=  c #2F161B",
"-  c #150D23",
";  c #191322",
":  c #1D1926",
">  c #180C34",
",  c #1E1238",
"<  c #231C2B",
"1  c #281827",
"2  c #251A37",
"3  c #1F2D21",
"4  c #25222A",
"5  c #29242C",
"6  c #2C223B",
"7  c #2A2631",
"8  c #32293C",
"9  c #34323C",
"0  c #5E172E",
"q  c #7B1E3D",
"w  c #1F0F45",
"e  c #271748",
"r  c #2D175E",
"t  c #2C2142",
"y  c #2F2249",
"u  c #332C42",
"i  c #37284B",
"p  c #3C3644",
"a  c #3B3943",
"s  c #373641",
"d  c #3C2C5D",
"f  c #372A52",
"g  c #3F305F",
"h  c #2E1760",
"j  c #3C2668",
"k  c #3C2371",
"l  c #433C4C",
"z  c #412E56",
"x  c #43345B",
"c  c #453956",
"v  c #72385A",
"b  c #602945",
"n  c #423262",
"m  c #4A3A66",
"M  c #4C3C69",
"N  c #473664",
"B  c #523E6C",
"V  c #4A2F77",
"C  c #462A7C",
"Z  c #452A76",
"A  c #4D3576",
"S  c #543B7A",
"D  c #4C435D",
"F  c #4B4555",
"G  c #514959",
"H  c #484955",
"J  c #52426D",
"K  c #5B4E6C",
"L  c #564C64",
"P  c #5D536B",
"I  c #575163",
"U  c #544471",
"Y  c #5B4C74",
"T  c #5A447C",
"R  c #5D4D7A",
"E  c #554178",
"W  c #5B517A",
"Q  c #4D4961",
"!  c #63596E",
"~  c #61566B",
"^  c #634D7E",
"/  c #635475",
"(  c #64547B",
")  c #63587E",
"_  c #6C5C7D",
"`  c #685C76",
"'  c #6C6077",
"]  c #6D637B",
"[  c #72657E",
"{  c #557556",
"}  c #80203F",
"|  c #811F40",
" . c #812040",
".. c #952642",
"X. c #8E3753",
"o. c #A82F47",
"O. c #A7344B",
"+. c #B13A50",
"@. c #AB445C",
"#. c #8C4D68",
"$. c #945169",
"%. c #B35167",
"&. c #AE6175",
"*. c #C44A5A",
"=. c #CA5263",
"-. c #C9687B",
";. c #D76B7B",
":. c #CA707F",
">. c #5A3D84",
",. c #5D3A94",
"<. c #4B2E80",
"1. c #5D4482",
"2. c #5F4387",
"3. c #614487",
"4. c #654A83",
"5. c #6D4D8D",
"6. c #65478B",
"7. c #6C5B83",
"8. c #695A87",
"9. c #6B4E93",
"0. c #6A4697",
"q. c #704D9B",
"w. c #6B5195",
"e. c #725292",
"r. c #735498",
"t. c #6F658C",
"y. c #726282",
"u. c #73648A",
"i. c #7A6B8C",
"p. c #786886",
"a. c #7D728C",
"s. c #757589",
"d. c #7C6E93",
"f. c #746A95",
"g. c #7D7293",
"h. c #7D7899",
"j. c #6A46A2",
"k. c #734CA2",
"l. c #774EAA",
"z. c #7954AC",
"x. c #7A56A7",
"c. c #7A4FB2",
"v. c #7E53B4",
"b. c #82748F",
"n. c #837494",
"m. c #847993",
"M. c #857699",
"N. c #857A9B",
"B. c #8B7B9C",
"V. c #88779A",
"C. c #835AB4",
"Z. c #8559BA",
"A. c #8159AE",
"S. c #8362A9",
"D. c #8D7EA0",
"F. c #837CA2",
"G. c #8E6AB6",
"H. c #8A65B7",
"J. c #916CBA",
"K. c #9671BF",
"L. c #DB798A",
"P. c #8C5DC4",
"I. c #8F5FC8",
"U. c #8F60C6",
"Y. c #9262CA",
"T. c #966BC9",
"R. c #9670C1",
"E. c #9975C5",
"W. c #9B74CA",
"Q. c #9E78CE",
"!. c #9E73D1",
"~. c #A177D4",
"^. c #A47BD4",
"/. c #A77ED9",
"(. c #8B819B",
"). c #818198",
"_. c #90859D",
"`. c #899D89",
"'. c #B2919B",
"]. c #8A83A3",
"[. c #8C87AC",
"{. c #8D89AD",
"}. c #9485A5",
"|. c #958BAC",
" X c #9A8AAA",
".X c #9787A8",
"XX c #9892A9",
"oX c #928DB2",
"OX c #998FB0",
"+X c #9D93B3",
"@X c #9E9BBB",
"#X c #9894B6",
"$X c #A496A9",
"%X c #A195B5",
"&X c #A49BBB",
"*X c #AA9FBF",
"=X c #A8A4BA",
"-X c #B3A8BA",
";X c #93AF8F",
":X c #DE8192",
">X c #E18A9A",
",X c #A49FC1",
"<X c #A981D9",
"1X c #A780D7",
"2X c #A6A2C3",
"3X c #AAA3C3",
"4X c #ADAACA",
"5X c #AAA9C8",
"6X c #B1AECE",
"7X c #B2B0CF",
"8X c #B5B3D4",
"9X c #B9B9D9",
"0X c #B9B7D7",
"qX c #BFC0E0",
"wX c #D9D7D9",
"eX c #C0C0E1",
"rX c #E8E7EA",
"tX c None",
/* pixels */
"tXtXtXtXtXtXtXtXtXtXtXtXtXtXtXtXtXtXtXtXtXtXtXtXtXtXtXtXtXtXtXtXtXtXtXtXtXtXtXtXtXtXtXtXtXtXtXtXtXtXtXtXtXtXtXtXtXtXtXtXtXtXtXtX",
"tXtXtXtXtXtXtXtXtXtXtXtXtXtXtXtXtXtXtXtXtXtXtXtXtXtXtXtXtXtXtXtXtXtXtXtXtXtXtXtXtXtXtXtXtXtXtXtXtXtXtXtXtXtXtXtXtXtXtXtXtXtXtXtX",
"tXtXtXtXtXtXtXtXtXtXtXtXtXtXtXtXtXtXtXtXtXtXtXtXtXtXtXtXtXtXtXtXtXtXtXtXtXtXtXtXtXtXtXtXtXtXtXtXtXtXtXn.n.tXtXtXtXtXtXtXtXtXtXtX",
"tXtXtXtXtXtXtXtXtXtXtXtXtXtXtXtXtXtXtXtXtXtXtXtXtXtXtXtXtXtXtXtXtXtXtXtXtXtXtXtXtXtXtXtXtXtXtX%X&X&X%X8X2X7.tXtXtXtXtXtXtXtXtXtX",
"tXtXtXtXtXtXtXtXtXtXtXtXtXtXtXtXtXtXtXtXtXtXtXtXtXtXtXtXtXtXtXtXtXtXtXtXtXtXtXtXtXtXtXtXtXtXtX6X[.[.[.{.S d tXtXtXtXtXtXtXtXtXtX",
"tXtXtXtXtXtXtXtXtXtXtXtXtXtXtXtXtXtXtXtXtXtXtXtXtXtXtXtXtXtXtXtXtXtXtXtXtXtXtXtXtXtXtX.X&X,X,Xh.>.2.,.6.Z tXtXtXtXtXtXtXtXtXtXtX",
"/ |.[.` tXtXtXtXtXtXtXtXtXtXtXtXtXtXtXtXtXtXtXtXtXtXtXtXtXtXtXtXtXtXtXtXtXtXtXtXtX3X3X5X0XF.f.k.Y.Y.v.,.tXtXtXtXtXtXtXtXtXtXtXtX",
"tXf.N.#X].` tXtXtXtXtXtXtXtXtXtXtXtXtXtXtXtXtXtXtXtXtXtXtXtXtXtXtXtXtXtXtXtXtXtX}.6X{.t.u.0.q.Y.Y.v.<.tXtXtXtXtXtXtXtXtXtXtXtXtX",
"tXT 1.y.F.&Xn.tXtXtXtXtXtXtXtXtXtXtXtXtXtXtXtXtXtXtXtXtXtXtXtXtXtXtXtXtXtXtX.X%X6X].9.k.j.U.Y.Y.v.C tXtXtXtXtXtXtXtXtXtXtXtXtXtX",
"tXtXr.l.w.F.=Xg.tXtXtXtXtXtXtXtXtXtXtXtXtXtXtXtXtXtXtXtXtXtXtXtXtXtXtXtXtXOX4X8X|.9.P.Y.Y.Y.Y.l.2 tXtXtXtXtXtXtXtXtXtXtXtXtXtXtX",
"tXtXtXC.P.3.N.2Xi.tXtXtXtXtXtXtXtXtXtXtXtXtXtXtXtXtXtXtXtXtXtXtXtXtXtXtXi.6X,XU 9.P.Y.I.Y.I.Y.l.w tXtXtXtXtXtXtXtXtXtXtXtXtXtXtX",
"tXtXtXx.Y.P.3.B.3Xp.tXtXtXtXtXtXtXtXtXtXtXtXtXtXtXtXtXtXtXtXtXtXtXtXtXtXtX7XM.S Z.Y.I.I.I.Y.Y.0.+ tXtXtXtXtXtXtXtXtXtXtXtXtXtXtX",
"tXtXtXtXA.Y.P.E B.p.tXtXtXtXtXtXtXtXtXtXtXtXtXtXtXtXtXtXtXtXtXtXtXtXtXtXi.N.1.P.Y.Y.Y.Y.Y.^.T.k tXtXtXtXtXtXtXtXtXtXtXtXtXtXtXtX",
"tXtXtXtXA.Y.Y.>.n.}.y.tXtXtXtXtXtXtXtXtXtXtXtXtXtXtXtXtXtXtXtXtXtXtXtXa.&XE P.Y.Y.I.Y.^./.<XR.r tXtXtXtXtXtXtXtXtXtXtXtXtXtXtXtX",
"tXtXtXtXx.Y.Y.P.S d.( tXtXtXtXtXtXtXtXtXtXtXtXtXtXtXtXtXtXtXtXtXtXtXy.&X.X1.I.Y.P.I.!.<X<X^.k.. tXtXtXtXtXtXtXtXtXtXtXtXtXtXtXtX",
"tXtXtXtXz.W.!.P.x W R U tXtXtXtXtXtXtXtXtXtXtXtXtXtXtXtXtXtXtXl : tXi.}.F.Y.P.Y.Y.Y.!.<X<XQ.<.tXtXtXtXtXtXtXtXtXtXtXtXtXtXtXtXtX",
"tXtXtXtXtXJ.<XY.- m.0X}.M d tXtXtXtXtXtXtXtXtXtXtXtXtXtXtXtX%X7Xs.D n.` n 6.U.Y.I.!.<X<X<X^.0.. tXtXtXtXtXtXtXtXtXtXtXtXtXtXtXtX",
"tXtXtXtXtXJ.<XW.n : s.3XV.R E tXtXtXtXtXtXtXtXtXtXtXtXtXtX(.s.s.#X8.p H W t U.Y.Y.Q.<X1X<XW.e tXtXtXtXtXtXtXtXtXtXtXtXtXtXtXtXtX",
"tXtXtXtX5.H./.<Xx.t.G b.] =XP tXtXtXtXtXtXtXtXtXtXtXtXtXtXtX. % P d.% @X3XE Y.Y.!.<X<X<X<XE.X tXtXtXtXtXtXtXtXtXtXtXtXtXtXtXtXtX",
"tXtXtXtXtXx.W.4.d.,XB.` 2 (.G tXtXtXtXtXtXtXtXtXtXtXtXtXtXtXj d u.OX! I ].q.Y.!.<X<X1X1X1Xk.tXtXtXtXtXtXtXtXtXtXtXtXtXtXtXtXtXtX",
"tXtXtXtXtX5.R.< XXF ] _ x u 9 tXtXtXtXtXtXtXtXtXtXtXtXtXtX|.F.u.V. X X! 4.U.T.<X<X<X<X<XQ., tXtXtXtXtXtXtXtXtXtXtXtXtXtXtXtXtXtX",
"tXtXtXtXtX5.K.S.F S x l ].p tXtXtXtXtXtXtXtXtXtXtXtXtXtXtXl d. X X X.X7.k.Y.^.<X<X<X<X<X1Xe.X tXtXtXtXtXtXtXtXtXtXtXtXtXtXtXtXtX",
"tXtXtXtXtX5.K.<XS.~.H.3.u.G tXtXtXtXtXtXtXtXtXtXtXtXtXtXtXtXtX7.B oX%XB Z.Y.!.1X<X<X<X<X<XE.X tXtXtXtXtXtXtXtXtXtXtXtXtXtXtXtXtX",
"tXtXtXtXtXG.^.5.T ~.^.z.( G tXtXtXtXtXtXtXtXtXtXtXtXtXtXtXtXtXtXd {.%XB Z.Y.^.1X/.1X<X<X1XE.O tXtXtXtXtXtXtXtXtXtXtXtXtXtXtXtXtX",
"tXtXtXtX5.J.<XT oX1.T.l.( _ tXtXtXtXtXtXtXtXtXtXtXtXtXtXtXtXtXtX_ +X8.z.Y.T.<X/.<X<X<X<X1XE.O tXtXtXtXtXtXtXtXtXtXtXtXtXtXtXtXtX",
"tXtXtXtXH.<X<XR @X1.z.R n._ tXtXtXtXtXtX: n tXtXtXtXtXtXtXtXtXtX4X0XR v.Y.Y.<X<X^.<X<X<X/.E.O tXtXtXtXtXtXtXtXtXtXtXtXtXtXtXtXtX",
"tXtXtXtXG.<X<XT 2X2Xn R P   tXtXtXtXtXa {.d tXtXtXtXtXtXtXtXtXtXOXqX9 k.Y.<X<X<X1X<X<X<X1XQ.C tXtXtXtXtXtXtXtXtXtXtXtXtXtXtXtXtX",
"tXtXtXS.<X<X<XT 5X4XU R ! . tXtXtXtX9 7XoXd tXtXtXtXtXtXtXtXtXtX{.0Xp l.Y.!./.<X<X1X<X<X<X1X^.q.  tXtXtXtXtXtXtXtXtXtXtXtXtXtXtX",
"tXtXtXG.<X<X/.3.2XqX@Xg P N tXtXtXa 4X4Xu.tXtXtXtXtXtXtXtXtXtXtXg.2X8.v.Y.T.<X<X<X<X<X<X<X<X<Xx.+ tXtXtXtXtXtXtXtXtXtXtXtXtXtXtX",
"tXtXJ./.~.~.~.m ,X6X@Xs H K u e W 4X9X+Xn tXtXtXtXtXtXtXtXtXtXtX2X9XQ z.T./.<X<X<X<X<XR.H./.<XW.C w tXtXtXtXtXtXtXtXtXtXtXtXtXtX",
"tXC K.H.C.C.C.; h.&X0XqX9Xs.H K ].3X6Xu.tXtXtXtXtXtXtXtXtXtXtXtXoXqX8 k.Y.Q.v.z.x.x.z.>.C j.c.H.^   tXtXtXtXtXtXtXtXtXtXtXtXtXtX",
"tXk A 2.e.e.x G ].0X9X9X6X6XqX&X.X X+Xn tXtXtXtXtXtXtXtXtXtXtXtXoX@XB Z.T.T.V A V V C S d > > 2 2 tXtXtXtXtXtXtXtXtXtXtXtXtXtXtX",
"tXtXtXk 3.1.W 4XqX0X0X0X9X9X9X4X.X.X7.tXtXtXtXtXtXtXtXtXtXtXtXN.6XQ q.j.,.,.e.e.e.r.r.e   tXtXtXtXtXtXtXtXtXtXtXtXtXtXtXtXtXtXtX",
"tXtXtXtXZ e ].9X0X0X8X3X9XoXd.6X%X}.n tXtXtXtXtXtXtXtXtXtXtXtXn.3Xg.z h V >.e.e.3.V i # tXtXtXtXtXtXtXtXtXtXtXtXtXtXtXtXtXtXtXtX",
"tXtXtXtXtX. ] 8X0X8X*X7X#X[.$X X X.X/ n tXtXtXtXtXtXtXtXtXtXtXB.8X! f E e.e.^ 1 2 tXtXtXtXtXtXtXtXtXtXtXtXtXtXtXtXtXtXtXtXtXtXtX",
"tXtXtXtXtXtX_ 5X9X6XB.@Xm.rX-XB..X.XM.N tXtXtXtXn tXtXtXtXtXN.7X5X_ 5.e.5.6.j tXtXtXtXtXtXtXtXtXtXtXtXtXtXtXtXtXtXtXtXtXtXtXtXtX",
"tXtX Xi.g R @X8X8Xf.J y.`.;XXXm. X.Xm.< x tXtX7.V.U tXtXtXm.8X{.u B e.5.j ; tXtXtXtXtXtXtXtXtXtXtXtXtXtXtXtXtXtXtXtXtXtXtXtXtXtX",
"tX+X8X6X2X4X8X9X7XE f 3 { b. X.X X_.8 _ n n tXu. Xp.$ tXg.8Xs.f 4.4.Z - tXtXtXtXtXtXtXtXtXtXtXtXtXtXtXtXtXtXtXtXtXtXtXtXtXtXtXtX",
"tXn.0X9X8X6X8X8X8X4X2X(.(.V.V.}.p._.a.1 ( J g.}.|.|.: tX8Xh.u 5.r.6 tXtXtXtXtXtXtXtXtXtXtXtXtXtXtXtXtXtXtXtXtXtXtXtXtXtXtXtXtXtX",
"O g.7X8Xg.) 5X8X+X|.m.m.I O X ~ ^ (.m.< .X.XB.p.&X5X) 7XXX< 5.5.4.tXtXtXtXtXtXtXtXtXtXtXtXtXtXtXtXtXtXtXtXtXtXtXtXtXtXtXtXtXi.y.",
"% [ V.].t.4X8X+Xb.' * * 1 n n - [  X[ 9 .X&X0X0X9Xt.2X8Xh.6 e.5.i tXtXtXtXtXtXtXtXtXtXtXtXtXtXtXtXtXtXtXtXtXtXtXtXtXtXtXi.p.5Xu.",
"tX5 M.B..X8Xm.` = = | | b f n @ [ }.& }..X3X0X0X9X9X9X7Xy.e.e.A tXtXtXtXtXtXtXtXtXtXtXtXtXtXtXtXtXtXtXtXtXtXtXtXtXtXW d.%X XoXU ",
"tXU n. X.Xa.<   q o. . .0 1 e ; p.` 7 }.%X9X0X0X9X9X9X2X% e.5.i tXtXtXtXtXtXtXtXtXtXtXtXtXtXtXtXtXtXtXtXtXtXtXtXtXF.qX,X5X%XJ tX",
"tXtXB M.%Xp tXtXtX ...} | 0 o c (.& 6 i.&X0X0X9X9X9X9X4XI r.S Z tXtXtXtXtXtXtXtXtXtXtXtXtXtXtXtXtXtXtXtXtXtXtXi.+X=X6X,X&X%XU tX",
"tXtXtXc F 7 tXtX} o.=.O.@...b n.i.:   f ] 9X9X9X0X0X0X9X9X X^ S N tXtXtXtXtXtXtXtXtXtXtXtXtXtXtXtXtXtXtXtXtXtXtX_ p.%X%X.X! x tX",
"tXtXtXtXtXtXtXtXo.;.:X;.;...p. XJ tXtXtX: &X9X4X7X0X0X9X9X0X.Xi.^ d tXtXtXtXtXtXtXtXtXtXtXtXtXtXtXtXtXtXtXtXtXtXp.B..X.XOX5 tXtX",
"tXtXtXtXtXtXtX_.*.>X>X>X-.$.XXu.M tXtXm ~ B.7X=X8X0X9X9X9X9X4X XV.U d tXtXtXtXtXtXtXtXtXtXtXtXtXtXtXtXtXtXtXtXy.B.V.i.$X~ & tXtX",
"tXtXtXtXtXtXJ #.;.>X>XL.@.v N.R tXtXtXu *X+X,X2X9X9X9X9X9X9X4X.X X/ J m j tXtXtXtXtXtXtXtXtXtXtXtXtXtXtXtX_ y.p. XV.c ! p tXtXtX",
"tXtXtXtXtX[ -X%.L.:X%.-.&.=Xp.J tXtXtX4 8X8X8X8X9X9X9X9X0X7X$X.X X^ / ( / n d x tXtXtXtXtXtXtXtXtXtXtXtX[ V.D.V.Y tXtXb.l tXtXtX",
"tXtXtXtX_._.#.L.L.$.'.X.v g.F y tXtXtX5 9X9X9X9X9X8X9X9X0X6X.X X7./ _ y.y.` ( ^ n x n n tXN N tXJ p.[ V.D..X.XB.n tXtX& $ tXtXtX",
"tXtXtXtX-XwX#.+.:.X.wX'.V.,Xl tXtXtXtXJ 7X9X9X9X9X9X8X8X6X X X X_ u./ ( y.y.y._ _ J Y _ J M.V.p.D.}.}.}..X.Xp.u.tXtXtXtXtXtXtXtX",
"tXtXtXtXx i.( 1 & 5 m.&X3X.Xp tXtXtXtXtXW 4X&X8X8X8X7X+X X.X Xm.n..XD.7 K _ _ y.[ 7.[ V.}..X.X.X.X.X.X.X.Xp.m tXtXtXtXtXtXtXtXtX",
"tXtXtXtXtXI .X2X5X6X5X.XOX_ tXtXtXtXtXtX9 n.B..X X X X.X X X X.X.X X.Xy.% _ [ y.y.[ y.D. X X.X.X.X.X.X}..XJ tXtXtXtXtXtXtXtXtXtX",
"tXtXtXtXtXF }. X X X X}.n.l tXtXtXtXtXJ p.8 ^ b.M.}. X.XD.B. X X X.X XD.< L y._ _ y.n.}. X X.X X X X}.u.tXtXtXtXtXtXtXtXtXtXtXtX",
"tXtXtXtXtXtXP y._ ' ' ` 2 tXtXtXtXtXtX( .X.XB./ M u.b.i.Y m b. X X.X.X.Xx # [ y.y.[ y.D. X X.XV.b.V.M.J tXtXtXtXtXtXtXtXtXtXtXtX",
"tXtXtXtXtXtXtXO       tXtXtXtXtXtXtXB }. X.X Xn.[ M d d n e 5 ~ b.$X XB.B 8 K l K ~ c p.V.' B.Y z tXtXtXtXtXtXtXtXtXtXtXtXtXtXtX",
"tXtXtXtXtXtXtXtXtXtXtXtXtXtXtXtXtXtXM .X.X XV.[ / m tXtXtXtXtX  9 L _ y.y._ f + < 5   c ` % n.tXtXtXtXtXtXtXtXtXtXtXtXtXtXtXtXtX",
"tXtXtXtXtXtXtXtXtXtXtXtXtXtXtXtXtXtXx I OXb.m _ B tXtXtXtXtXtXtXtX@ x _ y.y.B n tXtXtXtXtXtXtXtXtXtXtXtXtXtXtXtXtXtXtXtXtXtXtXtX",
"tXtXtXtXtXtXtXtXtXtXtXtXtXtXtXtXtXtXtXO l l c ` M tXtXtXtXtXtXtXtXN ( y.U K _ J tXtXtXtXtXtXtXtXtXtXtXtXtXtXtXtXtXtXtXtXtXtXtXtX",
"tXtXtXtXtXtXtXtXtXtXtXtXtXtXtXtXtXtXtXtX6 c u c i.7 tXtXtXtXtXtXtXtXB ` n M B./ @ tXtXtXtXtXtXtXtXtXtXtXtXtXtXtXtXtXtXtXtXtXtXtX",
"tXtXtXtXtXtXtXtXtXtXtXtXtXtXtXtXtXtXtXtXM / y $ [ 5 tXtXtXtXtXtXtXtX% y.M tX7.!   tXtXtXtXtXtXtXtXtXtXtXtXtXtXtXtXtXtXtXtXtXtXtX",
"tXtXtXtXtXtXtXtXtXtXtXtXtXtXtXtXtXtXtXtXtXN n tXtXX   tXtXtXtXtXtXtXtX4 [ X tXtX  tXtXtXtXtXtXtXtXtXtXtXtXtXtXtXtXtXtXtXtXtXtXtX",
"tXtXtXtXtXtXtXtXtXtXtXtXtXtXtXtXtXtXtXtXtXtXtXtXtXtXtXtXtXtXtXtXtXtXtXtX&   tXtXtXtXtXtXtXtXtXtXtXtXtXtXtXtXtXtXtXtXtXtXtXtXtXtX",
"tXtXtXtXtXtXtXtXtXtXtXtXtXtXtXtXtXtXtXtXtXtXtXtXtXtXtXtXtXtXtXtXtXtXtXtXtXtXtXtXtXtXtXtXtXtXtXtXtXtXtXtXtXtXtXtXtXtXtXtXtXtXtXtX"
};
