/* XPM */
static char *result[] = {
/* columns rows colors chars-per-pixel */
"64 64 217 2 ",
"   c #020102",
".  c #0A090C",
"X  c #0F0A15",
"o  c #0A0514",
"O  c #120E13",
"+  c #130E1B",
"@  c #16131A",
"#  c #203A1D",
"$  c #160E27",
"%  c #1A1524",
"&  c #1C132A",
"*  c #1C1825",
"=  c #1D1233",
"-  c #231C2C",
";  c #251C27",
":  c #261B36",
">  c #26222B",
",  c #29242D",
"<  c #232027",
"1  c #2A2432",
"2  c #2E2B34",
"3  c #2C243A",
"4  c #31283B",
"5  c #36323E",
"6  c #460E1D",
"7  c #511327",
"8  c #7E1F3F",
"9  c #291A44",
"0  c #2F195A",
"q  c #2D2345",
"w  c #34254C",
"e  c #372C4A",
"r  c #3B3443",
"t  c #3D3649",
"y  c #3D2D5D",
"u  c #392757",
"i  c #3E3252",
"p  c #381F6F",
"a  c #321A68",
"s  c #2C1464",
"d  c #3A206F",
"f  c #3C2373",
"g  c #433B4D",
"h  c #403947",
"j  c #4A3E5B",
"k  c #443558",
"l  c #47254B",
"z  c #77284C",
"x  c #6E3055",
"c  c #412B69",
"v  c #433362",
"b  c #493A66",
"n  c #4C3C6A",
"m  c #493466",
"M  c #422776",
"N  c #55397A",
"B  c #553B76",
"V  c #503971",
"C  c #4B4254",
"Z  c #4D4759",
"A  c #544B5C",
"S  c #55485B",
"D  c #50505D",
"F  c #4E416B",
"G  c #4C4066",
"H  c #52436D",
"J  c #564967",
"K  c #595466",
"L  c #564672",
"P  c #5B4B74",
"I  c #5C4379",
"U  c #5C4E7A",
"Y  c #574A76",
"T  c #5E5378",
"R  c #61566C",
"E  c #625474",
"W  c #63537B",
"Q  c #6C5D7D",
"!  c #685A73",
"~  c #62467E",
"^  c #5D6E63",
"/  c #6A697C",
"(  c #696379",
")  c #72667E",
"_  c #8E243F",
"`  c #862444",
"'  c #9C2943",
"]  c #913652",
"[  c #A53C55",
"{  c #96445C",
"}  c #A54C63",
"|  c #B5586F",
" . c #C64D5F",
".. c #C65465",
"X. c #D65C6B",
"o. c #D36878",
"O. c #CC6D7D",
"+. c #7E977C",
"@. c #5C3D84",
"#. c #563889",
"$. c #543588",
"%. c #623F96",
"&. c #5D4482",
"*. c #5F4191",
"=. c #664E84",
"-. c #63448A",
";. c #6C4D8D",
":. c #654987",
">. c #645482",
",. c #6B5B82",
"<. c #685A88",
"1. c #6D4E91",
"2. c #6D499B",
"3. c #684695",
"4. c #6D5695",
"5. c #725292",
"6. c #71549B",
"7. c #704A9F",
"8. c #6D6285",
"9. c #6E648D",
"0. c #6E6B85",
"q. c #726282",
"w. c #74648B",
"e. c #756A8B",
"r. c #7A6B8C",
"t. c #776A85",
"y. c #78728A",
"u. c #726494",
"i. c #736992",
"p. c #7C6D92",
"a. c #7C7195",
"s. c #7D749B",
"d. c #6D4AA3",
"f. c #734EA2",
"g. c #7D56A6",
"h. c #7B54AB",
"j. c #7B58A6",
"k. c #7D54B1",
"l. c #784EB0",
"z. c #81738D",
"x. c #827394",
"c. c #847499",
"v. c #85799B",
"b. c #8B7B9B",
"n. c #897B95",
"m. c #A66C82",
"M. c #815CA9",
"N. c #865ABB",
"B. c #885CBC",
"V. c #8359B6",
"C. c #8463AC",
"Z. c #8366A5",
"A. c #877DA2",
"S. c #8F6BBA",
"D. c #8B65B8",
"F. c #946FBF",
"G. c #917DA0",
"H. c #DB7A8A",
"J. c #D77F91",
"K. c #8D5EC5",
"L. c #8F5FC8",
"P. c #905FC8",
"I. c #8D60C3",
"U. c #9261CA",
"Y. c #966BCB",
"T. c #976BCC",
"R. c #9974C6",
"E. c #9B75CB",
"W. c #9E72D2",
"Q. c #A57CD5",
"!. c #A57AD7",
"~. c #A078CF",
"^. c #89859C",
"/. c #88A185",
"(. c #8D83A3",
"). c #8C84A9",
"_. c #8C8AA8",
"`. c #9585A5",
"'. c #948BAB",
"]. c #9A8AAA",
"[. c #9688A8",
"{. c #978EB1",
"}. c #9C92B2",
"|. c #9D9BBC",
" X c #9A97B7",
".X c #9990AF",
"XX c #AA9CAB",
"oX c #A194B4",
"OX c #A49CBC",
"+X c #A99EBA",
"@X c #B497A1",
"#X c #9FA1BA",
"$X c #A2A1BD",
"%X c #A9A0BF",
"&X c #B5AEB7",
"*X c #DA8293",
"=X c #E18797",
"-X c #D5AAB4",
";X c #A880D8",
":X c #A780D7",
">X c #A698C8",
",X c #A6A3C2",
"<X c #ABA5C5",
"1X c #ADABCB",
"2X c #AAAAC7",
"3X c #B1AECD",
"4X c #B5ADC3",
"5X c #B6B1C8",
"6X c #B5B4D4",
"7X c #B8B7D7",
"8X c #B9B9D9",
"9X c #B9B7D8",
"0X c #BFBFE0",
"qX c #CABCC3",
"wX c #C0C1E2",
"eX c #EDF0ED",
"rX c None",
/* pixels */
"rXrXrXrXrXrXrXrXrXrXrXrXrXrXrXrXrXrXrXrXrXrXrXrXrXrXrXrXrXrXrXrXrXrXrXrXrXrXrXrXrXrXrXrXrXrXrXrXrXrXrXrXrXrXrXrXrXrXrXrXrXrXrXrX",
"rXrXrXrXrXrXrXrXrXrXrXrXrXrXrXrXrXrXrXrXrXrXrXrXrXrXrXrXrXrXrXrXrXrXrXrXrXrXrXrXrXrXrXrXrXrXrXrXrXrXrXrXrXrXrXrXrXrXrXrXrXrXrXrX",
"Q (.(.Q rXrXrXrXrXrXrXrXrXrXrXrXrXrXrXrXrXrXrXrXrXrXrXrXrXrXrXrXrXrXrXrXrXrXrXrXrXrXrXrXrXrXrXrXrXrXrXrXrXrXrXrXrXrXrXrXrXrXrXrX",
"W 1X3X2X,X`._.rXrXrXrXrXrXrXrXrXrXrXrXrXrXrXrXrXrXrXrXrXrXrXrXrXrXrXrXrXrXrXrXrXrXrXrXrXrXrXrXrXrXrXrXrXrXrXrX`.rXrX].`.].rXrXrX",
"rXs.6.<.e.$XOXa.rXrXrXrXrXrXrXrXrXrXrXrXrXrXrXrXrXrXrXrXrXrXrXrXrXrXrXrXrXrXrXrXrXrXrXrXrXrXrXrXrXrXrXrX`.`.,X3X[.OX6X1X3X}.Q rX",
"rXrX:.f.6.W A.|.q.rXrXrXrXrXrXrXrXrXrXrXrXrXrXrXrXrXrXrXrXrXrXrXrXrXrXrXrXrXrXrXrXrXrXrXrXrXrXrXrX`.`.].<X3X9Xs.<X{.>.<.<.s.$Xx.",
"rXrXrXM.K.2.:..X'.) rXrXrXrXrXrXrXrXrXrXrXrXrXrXrXrXrXrXrXrXrXrXrXrXrXrXrXrXrXrXrXrXrXrXrXrXrXrX}.<X<X1X1X9.9.1.9.4.7.2.d.4.i.P ",
"rXrXrX5.K.U.h.C.s.b.x.rXrXrXrXrXrXrXrXrXrXrXrXrXrXrXrXrXrXrXrXrXrXrXrXrXrXrXrXrXrXrXrXrXrXrXrXrX<X,X|.).u.3.3.N.3.h.U.L.%.$.u rX",
"rXrXrXrXB.N.U.B.L ].x.rXrXrXrXrXrXrXrXrXrXrXrXrXrXrXrXrXrXrXrXrXrXrXrXrXrXrXrXrXrXrXrXrXrXrXrX[.|.u.u.;.7.U.U.U.U.U.U.d.a s rXrX",
"rXrXrXrXrXg.U.K.1.w.W rXrXrXrXrXrXrXrXrXrXrXrXrXrXrXrXrXrXrXrXrXrXrXrXrXrXrXrXrXrXrXrXrXrXrX(.A.C.f.f.N.U.U.I.U.U.U.l.f rXrXrXrX",
"rXrXrXrXrXg.T.U.k.H 9.U n L rXrXrXrXrXrXrXrXrXrXrXrXrXrXrXrXrXrXrXrXrXrXrXrXrXrXrXrXrXrXt.{.).-.K.U.U.P.L.L.I.U.N.2.$.rXrXrXrXrX",
"rXrXrXrXrXg.Y.T.N.<.(..Xi.a.L rXrXrXrXrXrXrXrXrXrXrXrXrXrXrXrXrXrXrXrXrXrXrXrXrX+X0.< rXx.%XW k.U.L.L.U.L.U.T.U.-.rXrXrXrXrXrXrX",
"rXrXrXrXrXh.g.E.!.-.X y.$Xn.oXb rXrXrXrXrXrXrXrXrXrXrXrXrXrXrXrXrXrXrXrXrXrXrXt..XwXK J z.`.>.V.U.U.P.P.U.W.;XI.s rXrXrXrXrXrXrX",
"rXrXrXrXrXrX5.R.!.I.:.4 ! r $X2 rXrXrXrXrXrXrXrXrXrXrXrXrXrXrXrXrXrXrXrXrXrXrX  , ,X9.J z.<.f.U.L.I.U.U.;X;X;Xk.O rXrXrXrXrXrXrX",
"rXrXrXrXrXrX1.R.;XC.).}.x.3 ( 2 rXrXrXrXrXrXrXrXrXrXrXrXrXrXrXrXrXrXrXrXrXrXrXrXq C ,.X ; L h.U.U.I.U.!.;X;XU.M rXrXrXrXrXrXrXrX",
"rXrXrXrXrXrX5.K.!.>XoXq.) L v @ rXrXrXrXrXrXrXrXrXrXrXrXrXrXrXrXrXrXrXrXrXrXrXn y >.[.5 ,X/ N U.U.U.W.;X;X;X*.o rXrXrXrXrXrXrXrX",
"rXrXrXrXrXrXrX5.M.=./ t P v 8.< rXrXrXrXrXrXrXrXrXrXrXrXrXrXrXrXrXrXrXrXrXrX0.'.P `.[.`.1Xw.2.U.T.!.;X;X;XQ.y rXrXrXrXrXrXrXrXrX",
"rXrXrXrXrXrXrXrXZ.=.. :.m 9.i.X rXrXrXrXrXrXrXrXrXrXrXrXrXrXrXrXrXrXrXrXrXrXb c.`.[.[.].v.-.L.!.!.;X;X;X;Xk.rXrXrXrXrXrXrXrXrXrX",
"rXrXrXrXrXrXrXrXg.E.S.W.C.i.i.o rXrXrXrXrXrXrXrXX y rXrXrXrXrXrXrXrXrXrXrXrXrXn U `.].U I N.W.;X;X;X;X;XZ.- rXrXrXrXrXrXrXrXrXrX",
"rXrXrXrXrXrXrXrXs.;X;X;XS.i.1XG y rXrXrXrXrXrXO e.v rXrXrXrXrXrXrXrXrXrXrXrXrXrXU +X<.f.N.I.W.;X;X;X;X;Xj.  rXrXrXrXrXrXrXrXrXrX",
"rXrXrXrXrXrXrX6.R.:X:X;XS.i.8X>.P rXrXrXrXrXrX0.|.v rXrXrXrXrXrXrXrXrXrXrXrXrXrXU 2XW k.U.T.!.;X;X;X;XW.#.rXrXrXrXrXrXrXrXrXrXrX",
"rXrXrXrXrXrXrXrXD.:X:X;XS.i.8X{.P rXrXrXrXrXD 3X).v rXrXrXrXrXrXrXrXrXrXrXrXrXrXp.'.;.K.I.T.;X;X;X;X:XR.= rXrXrXrXrXrXrXrXrXrXrX",
"rXrXrXrXrXrXrXrXF.:X;X;Xk.i.8X3X* X U rXrXJ #X6X>.rXrXrXrXrXrXrXrXrXrXrXrXrXrXrX,X).2.U.U.Q.;X;X;X;X;XR.O rXrXrXrXrXrXrXrXrXrXrX",
"rXrXrXrXrXrXrX5.:X;X;X;Xf.T 3X2X/ 0.J e b ).0XOXb rXrXrXrXrXrXrXrXrXrXrXrXrXrX'.$XU k.L.U.;X;X;X;X;X;XE.O rXrXrXrXrXrXrXrXrXrXrX",
"rXrXrXrXrXrXrXS.Q.;X;X;X2.r |.7X0X7Xy.3 Q }.3Xa.rXrXrXrXrXrXrXrXrXrXrXrXrXrXq.2X_.w U.T.W.;X;X;X;X;X;X=.rXrXrXrXrXrXrXrXrXrXrXrX",
"rXrXrXrXrXrXrXF.Q.;X;XW.H ! ,X8X8X1X1X/ `.`.OXY rXrXrXrXrXrXrXrXrXrXrXrXrXrXQ ,Xa.&.U.!.;X;X;X;X!.;X;X- rXrXrXrXrXrXrXrXrXrXrXrX",
"rXrXrXrXrXrXrXC.Q.;X;Xh.K 0X9X8X8X8X8X8XOX].c.H rXrXrXrXrXrXrXrXrXrXrXrXrXrXc.OX&.U.T.Q.;X;X;X;X;X;X:X- rXrXrXrXrXrXrXrXrXrXrXrX",
"rXrXrXrXrXrXrXQ.!.~.W.V 1X8X8X8X3X8X,X6X3X].W rXrXrXrXrXrXrXrXrXrXrXrXrXrXrX X3XV K.W.;X;X;X;X;X;X;XQ.w rXrXrXrXrXrXrXrXrXrXrXrX",
"rXrXrXrXrXrX6.R.B.B.N.3 OX9X9X3X,X3Xs. X<X].Q rXrXrXrXrXrXrXrXrXrXrXrXrXrXQ  X2X3 K.W.;X;X;X;X:X;X;X:X#.rXrXrXrXrXrXrXrXrXrXrXrX",
"rXrXrXrXrXrXd.R.1.5.5.4 ^.8X9X}.3XA.&X].`.].x.n rXrXrXrXrXrXrXrXrXrXrXrXrXq.OX|.u K.W.;X;X;X;X;X;X;X;XD.X rXrXrXrXrXrXrXrXrXrXrX",
"rXrXrXrXrXrXp @.M 5.5.=.x.7X8Xv.).^.eX+X`.[.[.F rXrXrXrXrXrXrXrXrXrXrXrXrX_.2X>.k.K.N.Y.E.E.E.E.E.;X;XE.% rXrXrXrXrXrXrXrXrXrXrX",
"rXrXrXrXrXrXrXa rX].,.n x.9X7Xe.>.+./.b.`.[.`., rXrXrXrXrXrXrXrXrXrXrXp.3X8XJ @.f p p d d d f d #.!.;XE.f rXrXrXrXrXrXrXrXrXrXrX",
"rXrXrXrXrXrXrXrX}.6X6X1X6X7X7X>.u # ^ r.`.`.`.1 w rXrXv v rXrXrXrXrX0.,X2X'.t 0 3.;.;.;.;.;.;.;.1.Y.!.R.f rXrXrXrXrXrXrXrXrXrXrX",
"rXrXrXrXrXrXrXrXv.6X8X8X7X8X7X3X+Xn.G.`.].b.n.z.@ rXv p.a.v rXrXrXrX.X1Xb O g ;.1.5.;.5.5.;.;.c = p f &.+ rXrXrXrXrXrXrXq.q.rXrX",
"rXrXrXrXrXrXrXv r.8X8X8X8X7X7X7X}.[.`.`.].n.c.G.% rXv c.`.h rXc rX(.6XC B I :.5.5.@.: B M 9 + rXrXo o o   rXrXrXrXrXq.e.}.q.rXrX",
"rXrXrXrXrXrXrX@ e.8X8X9.v.8X<X].].}.S z.}.e.e.b.% n x.`.].A = A.x.6X( k 5.5.5.1.u & rX+ rXrXrXrXrXrXrXrXrXrXrXrXrXrXq.[. Xn rXrX",
"rXrXrXrXrXrXrXO p. XA.e.,X3X].`.2 , 3 , < C G.b.> W p.}.A.k 9.6X1X^.k ;.5.5.N : rXrXrXrXrXrXrXrXrXrXrXrXrXrXrXu Y  X X].>.rXrXrX",
"rXrXrXrXrXrXrXrXr n.p. X9XoXK 2 7 7 l q % r }.C ( b.w.z.$X_.2X0X|.h ~ 5.I - 9 rXrXrXrXrXrXrXrXrXrXrXrXrXrXrXrXA.|.<X<X].b rXrXrX",
"rXrXrXrXrXrXrXrX& 8.`.'.K rXrX6 8 ` z v y J ! S `.oXOXoX6X8X8X/ w.V @.-.rXrXrXrXrXrXrXrXrXrXrXrXrXrXrXrXrXrXrXA.OXoXoX`.- rXrXrX",
"rXrXrXrXrXrXrXrXrXL n.b.. rXrX` _ ` ` ; 3 c.r ) }.3X8X8X8X8X8X1 ~ 5.u rXrXrXrXrXrXrXrXrXrXrXrXrXrXrXrXrXrXrXrXq.`.].[.J rXrXrXrX",
"rXrXrXrXrXrXrXrXrXrXC C rXrX_ '  .[ [ 7 ; c.k z.2X9X8X8X8X7X6Xj ;.-.9 rXrXrXrXrXrXrXrXrXrXrXrXrXrXrXrXrXrXrXrXq.b.c.].; rXrXrXrX",
"rXrXrXrXrXrXrXrXrXrXrX  rXrX` ..H.o.X.` S w.y R 3X8X8X8X8X8X6Xe.~ N a rXrXrXrXrXrXrXrXrXrXrXrXrXrXrXrXrXrXrXr.x.Q e z.> rXrXrXrX",
"rXrXrXrXrXrXrXrXrXrXrXrXrX8.} H.=X=XX.` G.,.rX. <X8X9X7X7X7X8XOX~ B v rXrXrXrXrXrXrXrXrXrXrXrXrXrXrXrXrXrXt.b.].R @ S < rXrXrXrX",
"rXrXrXrXrXrXrXrXrXrXrXrXrXz.O.H.=XH.[ W p.y rX5  X7X6X6X8X8X8X7X[.Q P rXrXrXrXrXrXrXrXrXrXrXrXrXrXrXrXrXq.c.].c.q.rX1 rXrXrXrXrX",
"rXrXrXrXrXrXrXrXrXrXrXrXrXx O.J.*XH.} XXa.rXw x.c.7XOX6X8X8X8X9X3X].8.v b b v rXrXrXrXrXrXrXrXrXrXrXrXr.z.`.`.H rXrX  rXrXrXrXrX",
"rXrXrXrXrXrXrXrXrXrXp.y.-Xo.J.} | | 4Xb.b rX  ^.G.,X,X9X8X8X8X7X3X].].L Q q.P v b b rXb rXrXm rXP q.b.].].x.rXy rXrXrXrXrXrXrXrX",
"rXrXrXrXrXrXrXrXrXrXXXn.] =X} @X{ x p.Q v rX  _.,X<X<X8X8X8X8X8X1X].[.L Q q.Q q.Q E v W n ,.,.Q `.].`.].].w.rXrXrXrXrXrXrXrXrXrX",
"rXrXrXrXrXrXrXrXrXrX&XqX] ..{ qX&XA.OX< rXrX. _.8X6X8X8X8X8X7X6X].].`.L Q Q q.Q q.Q Q q.`.`.`.`.`.`.].`.b.q.rXrXrXrXrXrXrXrXrXrX",
"rXrXrXrXrXrXrXrXrXrXn x.k O O ! oX<X`.; rXrXy  X8X8X7X8X7X7X9X8X].].=.E q.Q ) q.Q q.q.q.`.].].].].].].t.n rXrXrXrXrXrXrXrXrXrXrX",
"rXrXrXrXrXrXrXrXrXrX. ) [.$X$X<X].].,.X rXrXrXU 1X8X8X7X7X7X7XoX].].W r.L Q q.Q q.) q.q.`.].`.`.].`.`.P rXrXrXrXrXrXrXrXrXrXrXrX",
"rXrXrXrXrXrXrXrXrXrX  t.].oXoXoX].].g rXrXrXrX@ (.,X8X8X8X1X].].].b.x.`.Q 5 q.) q.Q q.b.`.].`.].].].x.rXrXrXrXrXrXrXrXrXrXrXrXrX",
"rXrXrXrXrXrXrXrXrXrXrX, (.].].].A.g @ rXrXrXrXE h ].}.}.oX].].[.].`.`.].b.h j q.) q.Q r.`.].].p.L P rXrXrXrXrXrXrXrXrXrXrXrXrXrX",
"rXrXrXrXrXrXrXrXrXrXrXrXj , , , 1 rXrXrXrXrXv x.Q E b.].`.].].].].`.].].].S h w.q.q.q.q.r.n.].U rXrXrXrXrXrXrXrXrXrXrXrXrXrXrXrX",
"rXrXrXrXrXrXrXrXrXrXrXrXrXrXrXrXrXrXrXrXrXrXW `.`.w.W E `.].b.,.`.].].`.].,.- 1 g ; h 1 3 k Z rXrXrXrXrXrXrXrXrXrXrXrXrXrXrXrXrX",
"rXrXrXrXrXrXrXrXrXrXrXrXrXrXrXrXrXrXrXrXrXrXw.].].`.Q P W W L k S ].].].].e.$ rXrXrXrXrXrXrXrXrXrXrXrXrXrXrXrXrXrXrXrXrXrXrXrXrX",
"rXrXrXrXrXrXrXrXrXrXrXrXrXrXrXrXrXrXrXrXrXrXw.}.].].x.Q v rXrXrX@ g t.].].t.k i rXrXrXrXrXrXrXrXrXrXrXrXrXrXrXrXrXrXrXrXrXrXrXrX",
"rXrXrXrXrXrXrXrXrXrXrXrXrXrXrXrXrXrXrXrXrXrXw.K [.].e.E m rXrXrXrX  A R S E q.P rXrXrXrXrXrXrXrXrXrXrXrXrXrXrXrXrXrXrXrXrXrXrXrX",
"rXrXrXrXrXrXrXrXrXrXrXrXrXrXrXrXrXrXrXrXrXrXrXrXA J J W m rXrXrXrXrXrXrX& P q.q.H rXrXrXrXrXrXrXrXrXrXrXrXrXrXrXrXrXrXrXrXrXrXrX",
"rXrXrXrXrXrXrXrXrXrXrXrXrXrXrXrXrXrXrXrXrXrXrXrX@ ; j ! v rXrXrXrXrXrXrXn q.! W W k rXrXrXrXrXrXrXrXrXrXrXrXrXrXrXrXrXrXrXrXrXrX",
"rXrXrXrXrXrXrXrXrXrXrXrXrXrXrXrXrXrXrXrXrXrXrXrXn Q k T L rXrXrXrXrXrXrXn Q n v Q n rXrXrXrXrXrXrXrXrXrXrXrXrXrXrXrXrXrXrXrXrXrX",
"rXrXrXrXrXrXrXrXrXrXrXrXrXrXrXrXrXrXrXrXrXrXrXrXH W & C )   rXrXrXrXrXrXrXF P v a.P rXrXrXrXrXrXrXrXrXrXrXrXrXrXrXrXrXrXrXrXrXrX",
"rXrXrXrXrXrXrXrXrXrXrXrXrXrXrXrXrXrXrXrXrXrXrXrXL ,.rXO A   rXrXrXrXrXrXrXh E rXJ J rXrXrXrXrXrXrXrXrXrXrXrXrXrXrXrXrXrXrXrXrXrX",
"rXrXrXrXrXrXrXrXrXrXrXrXrXrXrXrXrXrXrXrXrXrXrXrXrXv rXrX    rXrXrXrXrXrXrXh r rX, S rXrXrXrXrXrXrXrXrXrXrXrXrXrXrXrXrXrXrXrXrXrX",
"rXrXrXrXrXrXrXrXrXrXrXrXrXrXrXrXrXrXrXrXrXrXrXrXrXrXrXrXrXrXrXrXrXrXrXrXrXrX  rXrX  rXrXrXrXrXrXrXrXrXrXrXrXrXrXrXrXrXrXrXrXrXrX"
};
