/* XPM */
static char *result[] = {
/* columns rows colors chars-per-pixel */
"64 64 221 2 ",
"   c #010101",
".  c #0C0A0D",
"X  c #060308",
"o  c #0F0D12",
"O  c #110E11",
"+  c #140D1C",
"@  c #131215",
"#  c #16131A",
"$  c #19161C",
"%  c #1B151B",
"&  c #1E1B23",
"*  c #1D1629",
"=  c #110820",
"-  c #211D25",
";  c #25182B",
":  c #251A3A",
">  c #222027",
",  c #25232A",
"<  c #28232E",
"1  c #2C2A33",
"2  c #2B2437",
"3  c #312C36",
"4  c #332C3A",
"5  c #37263C",
"6  c #39333F",
"7  c #35303B",
"8  c #54131E",
"9  c #431A2B",
"0  c #5B152B",
"q  c #531B37",
"w  c #6D1C39",
"e  c #7C1F36",
"r  c #44723E",
"t  c #2B1F43",
"y  c #2D2243",
"u  c #33264D",
"i  c #352849",
"p  c #3D3643",
"a  c #3E3945",
"s  c #3B334A",
"d  c #3B2E52",
"f  c #3B2B5C",
"g  c #352559",
"h  c #3F3354",
"j  c #341C69",
"k  c #2F1668",
"l  c #3B246E",
"z  c #392564",
"x  c #3F2775",
"c  c #443D4D",
"v  c #41374C",
"b  c #402F5E",
"n  c #433C52",
"m  c #43355B",
"M  c #453A55",
"N  c #75294B",
"B  c #433363",
"V  c #4B3A66",
"C  c #4D3D6C",
"Z  c #4A3666",
"A  c #553D6E",
"S  c #472B78",
"D  c #4D347B",
"F  c #493473",
"G  c #573D78",
"H  c #6D3563",
"J  c #4C4454",
"K  c #494956",
"L  c #4D425A",
"P  c #4D4C5B",
"I  c #474552",
"U  c #544B5C",
"Y  c #51465A",
"T  c #484950",
"R  c #4F416B",
"E  c #4E4262",
"W  c #554D61",
"Q  c #53446D",
"!  c #5A4B6E",
"~  c #554865",
"^  c #545362",
"/  c #5B5165",
"(  c #5C536A",
")  c #575865",
"_  c #544572",
"`  c #5C4C74",
"'  c #5C4C79",
"]  c #5F5074",
"[  c #5E5777",
"{  c #62586E",
"}  c #614C7E",
"|  c #625376",
" . c #655A72",
".. c #63537B",
"X. c #6B5C7D",
"o. c #67587D",
"O. c #70447C",
"+. c #5C6F61",
"@. c #6A6A7D",
"#. c #686377",
"$. c #72667E",
"%. c #8A223F",
"&. c #821F41",
"*. c #842141",
"=. c #8B2746",
"-. c #992944",
";. c #833554",
":. c #943354",
">. c #AB3549",
",. c #8B435E",
"<. c #99495D",
"1. c #B84B5F",
"2. c #865979",
"3. c #AE576C",
"4. c #C6495B",
"5. c #CB5363",
"6. c #D76B7A",
"7. c #C06379",
"8. c #4E3682",
"9. c #573B86",
"0. c #633E9B",
"q. c #5F4193",
"w. c #6C4D8C",
"e. c #644689",
"r. c #6C5D83",
"t. c #6A5D89",
"y. c #675587",
"u. c #674895",
"i. c #715091",
"p. c #75549D",
"a. c #765B9B",
"s. c #724B8F",
"d. c #6D6B83",
"f. c #6D628C",
"g. c #6F6284",
"h. c #716181",
"j. c #756A82",
"k. c #73648B",
"l. c #756B8C",
"z. c #7C6C8D",
"x. c #7A6D87",
"c. c #6F7182",
"v. c #7C728C",
"b. c #757589",
"n. c #736592",
"m. c #7A6C92",
"M. c #776D97",
"N. c #7C739C",
"B. c #7C7894",
"V. c #7B53AA",
"C. c #7A59A4",
"Z. c #7B54B2",
"A. c #7E61A7",
"S. c #7F6AA5",
"D. c #7D75A2",
"F. c #837594",
"G. c #85749A",
"H. c #8B7C9B",
"J. c #857B99",
"K. c #A36F80",
"L. c #8258B6",
"P. c #8057B3",
"I. c #8465AE",
"U. c #8E7FA1",
"Y. c #8879A7",
"T. c #8A64BC",
"R. c #916EBD",
"E. c #8E79B7",
"W. c #D97787",
"Q. c #CE7084",
"!. c #8D5FC4",
"~. c #9872CA",
"^. c #9366CA",
"/. c #A37AD3",
"(. c #818197",
"). c #8E829D",
"_. c #87879C",
"`. c #90819F",
"'. c #B38D9B",
"]. c #A6879F",
"[. c #8C82A3",
"{. c #8B85AA",
"}. c #8E88AC",
"|. c #8680A6",
" X c #9585A5",
".X c #9887A7",
"XX c #9A8AAA",
"oX c #968AA9",
"OX c #9792A8",
"+X c #948EB2",
"@X c #9B8BB3",
"#X c #9C92B3",
"$X c #9A9AB5",
"%X c #9A95B9",
"&X c #9A98B7",
"*X c #A194B4",
"=X c #A59BBC",
"-X c #A89EBE",
";X c #A69CB5",
":X c #A197AC",
">X c #9FA0BB",
",X c #A3A1BE",
"<X c #ADA7B2",
"1X c #91B08C",
"2X c #DE8191",
"3X c #E28998",
"4X c #A09DC0",
"5X c #A6A3C2",
"6X c #ABA4C4",
"7X c #ADAACB",
"8X c #AAA7C9",
"9X c #B1ADCD",
"0X c #B5B4D4",
"qX c #B9B9D9",
"wX c #B8B4D9",
"eX c #B086E1",
"rX c #BEBFE0",
"tX c #C5BECD",
"yX c #CECCD2",
"uX c #C1C1E3",
"iX c None",
/* pixels */
"iXiXiXiXiXiXiXiXiXiXiXiXiXiXiXB f iXiXiXiXiXiXiXiXiXiXiXiXiXiXiXiXiXiXiXiXiXiXiXiXiXiXiXiXiXiXiXiXiXiXiXiXiXiXiXiXiXiXiXiXiXiXiX",
"iXiXiXiXiXiXiXiXiXiXiXiXiXiXiXC Y.iXiXiXiXiXiXiXiXiXiXi iXiXiXiXiXiXiXiXiXiXiXiXiXiXiXiXiXiXiXiXiXiXiXiXiXiXiXiXiXiXiXiXiXiXiXiX",
"iXiXiXiXiXiXiXiXiXiXiXiXiXiXiXR +Xf iXiXiXiXiXiXiXiXP _ iXiXiXiXiXiXiXiXiXiXiXiXiXiXiXiXiXiXiXiXiXiXiXiXiXiXiXiXiXiXiXiXiXiXiXiX",
"iXiXiXiXiXiXiXiXiXiXiXiXiXiXiXC 4Xn.iXiXiXiXiXiXiX1 $Xy.iXiXiXiXiXiXiXiXiXiXiXiXiXiXiXiXiXiXiXiXiXiXiXiXiXiXiXiXiXiXiXiXiXiXiXiX",
"iXiXiXiXiXiXiXiXiXiXiXiXiXiXiXC 9X|.iXiXiXiXiXiXiXb.0X' iXiXiXiXiXiXiXiXiXiXiXiXiXiXiXiXiXiXiXiXiXiXiXiXiXiXiXiXiXiXiXiXiXiXiXiX",
"iXiXiXiXiXiXiXiXiXiXiXiXiXiXiXC 9X+X_ iXiXiXiXiXK qX+XQ iXiXiXiXiXiXiXiXiXiXiXiXiXiXiXiXiXiXiXiXiXiXiXiXiXiXiXiXiXiXiXiXiXiXiXiX",
"iXiXiXiXiXiXiXiXiXiXiXiXiXiXiXC 7XqXf.iXiXiXiX_ 7XqXk.iXiXiXiXiXiXiXiXiXiXiXiXiXiXiXiXiXiXiXiXiXiXiXiXiXiXiXiXiXiXiXiXiXiXiXiXiX",
"iXiXiXiXiXiXiXiXiXiXiXiXiXiXiXC 7XqX^ X V ` m G.qX8X..iXiXiXiXiXiXiXiXiXiXiXiXiXiXiXiXiXiXiXiXiXiXiXiXiXiXiXiXiXiXiXiXiXiXiXiXiX",
"iXiXiXiXiXiXiXiXiXiXiXiXiXiXiX* ,X6X,X$XJ.o W .X=X}.Z iXiXiXiXiXiXiXiXiXiXiXiXiXiXiXiXiXiXiXiXiXiXiXiXiXiXiXiXiXiXiXiXiXiXiXiXiX",
"iXiXiXiXiXiXiXiXiXiXiXiXiXiXiX. B.7XqXqX$XB.).XXXXm.iXiXiXiXiXiXiXiXiXiXiXiXiXiXiXiXiXiXiXiXiXiXiXiXiXiXiXiXiXiXiXiXiXiXiXiXiXiX",
"iXiXiXiXiXiXiXiXiXiXiXiXiXiXiX^ #XqXqXqX8XuX9XOX[.} iXiXiXiXiXiXiXiXiXiXiXiXiXiXiXiXiXiXiXiXiXiXiXiXiXiXiXiXiXiXiXiXiXiXiXiXiXiX",
"iXiXiXiXiXiXiXiXiXiXiXiXiXiXn ,XqXqXqXqXqXqXqX*XF.f iXiXiXiXiXiXiXiXiXiXiXiXiXiXiXiXiXiXiXiXiXiXiXiXiXiXiXiXiXiXiXiXiXiXiXiXiXiX",
"iXiXiXiXiXiXiXiXiXiXiXiXiXiXD.rXqXqX0X0X0X=X8X#XG.Z iXiXiXiXiXiXiXiXiXiXiXiXiXiXiXiXiXiXiXiXiXiXiXiXiXiXiXiXiXiXiXiXiXiXiXiXiXiX",
"iXiXiXiXiXiXiXiXiXiXiXiXiXiX@.qXqXqX=X9X%X .H.XX X` iXiXiXiXiXiXiXiXiXiXiXiXiXiXiXiXiXiXiXiXiXiXiXiXiXiXiXiXiXiXiXiXiXiXiXiXiXiX",
"iXiXiXiXiXiXiXiXiXiXiXiXiXiX( 0XqX8X8X7XM.tX`.XXXXk.iXiXiXiXiXiXiXiXiXiXiXiXiXiXiXiXiXiXiXiXiXiXiXiXiXiXiXiXiXiXiXiXiXiXiXiXiXiX",
"iXiXiXiXiXiXiXiXiXiXiXiXiXiXX.6XqX#X#XN.yXtXH.XXXX( iXiXiXiXiXiXiXiXiXiXiXiXiXiXiXiXiXiXiXiXiXiXiXiXiXiXiXiXiXiXiXiXiXiXiXiXiXiX",
"iXiXiXiXiXiXiXiXiXiXiX.XF.f | 5XqX&Xr._.1X<XF.XXXXU * iXiXiXiXiXiXiXiXiXiXiXiXiXiXiXiXiXiXiXiXiXiXiXiXiXiXiXiXiXiXiXiXiXiXX.$.iX",
"iXiXiXiXiXiXiXiXiXiXiX-X=XD.{.0XqX}.m T r ).`..XH.F.5 u iXiXiXf iXiXiXiXiXiXiXiXiXiXiXiXiXiXiXiXiXiXiXiXiXiXiXiXiXiXiXiXh.[.F.iX",
"iXiXiXiXiXiXiXiXiXiXH.7XqXqXqXqXqX%Xn.I +.H.XX Xx.#Xv y iXiX` ..iXiXiXiXiXiXiXiXiXiXiXiXiXiXiXiXiXiXiXiXiXiXiXiXiXiXiXiX[.6XJ.iX",
"iXiXiXiXiXiXiXiXiXiXo.5XqXqXqXqXqXqX0X*X.XXX.X Xh.XXa u iXiXk. XV iXiXiXiXiXiXiXiXiXiXiXiXiXiXiXiXiXiXiXiXiXiXiXiXiX' [.7X@Xf.iX",
"iXiXiXiXiXiXiXiXiXiX! 8XqX0X7X0XqX0X=X X XF.F.F.| .Xv L C iXm..X(   iXiXiXiXiXiXiXiXiXiXiXiXiXiXiXiXiXiXiXiXiXiXiXB }.=X9Xk.iXiX",
"iXiXiXiXiXiXiXiXiXiXc 8XqX|.o.7X9XXX X Xj.O . @ H.XXa Y R z. XXX$.  iXiXiXiXiXiXiXiXiXiXiXiXiXiXiXiXiXiXiXiXiXiXb k.wX;X7Xk.iXiX",
"iXiXiXiXiXiXiXiXiXiXU H.%Xr.*X0X#XXXJ # - u i # ).{ U `.z.y..X Xm   iX      iXiXiX  iXiXiXiXiXiXiXiXiXiXiXiXiXiXl.9X-X6X*Xk.iXiX",
"iXiXiXiXiXiXiXiXiX  $  .[.G.qX6XF.1 9 0 q B f * `./ U XXH.o.#X9Xl.    @._._.a   > (.$X,         iXiXiXiXiXiXiXiXiXJ.U.*X#X{ iXiX",
"iXiXiXiXiXiXiXiXiX1 s g. X X,XU 7 8 &.%.w 2 B i x.I x.@X=X#X7XqX,XW - @.) (.OX@.#.(.uX(.#.#.@. .        iXiXiXiXiXk. XXXF.3 iXiX",
"iXiXiXiXiXiXiXiX; W %Xk..XXX$.5 5 :.-.e w ; : } $.p XXXXqXqXqXqX0X;X{ . ; n c.c.{ M @.b.uX>Xc.7X) I P K iXiXiXiXX.F.G. X$.  iXiX",
"iXiXiXiXiXiXiXh ^ ^ 8XM.F.@X6 A p.H %.&.*.0 X j.X.M XX*X0XqXqXqXqX6X.Xc i.V + + : V + - (.) + d.&XuX>X5Xx iXiXiXh.H.r.X.j.  iXiX",
"iXiXiXiXiXiXiX> }.@.[ 7X` F.v G O.*.>.-.=.%.9 h.Z X.XX0XqX0XqXqXqX8XXX Xw.w.i.i.i.i.i.w.@ i i.; 4 $X^ B.8.iXiXiXz..Xz.< W   iXiX",
"iXiXiXiXiXiXX $.oXm.2 [.R . G p.O.>.6.5.6.>.2.U.Z iX5XqXqXqXqX0XqX7X.X Xl D w.i.i.i.i.w.w.w.i.w._ o } u.E.l iXk. X XF.iXX   iXiX",
"iXiXiXiXiXiXJ H.3 g.G.R.V.m I.a.H 4.3XW.W.:.k...iXiXb.qXqXqXqXqXqX0X*X X} z l e.i.i.i.i.w.i.i.i.w.w.9.L.E.M.P $.XXz.iXiXiX  iXiX",
"iXiXiXiXiX3 H.X.& @X9X~.!.u.q.A N 3X3X3X4.N t._ iX4 v.7X0X6XqXqXqXqX0XXXG.Q z Z C iXiXS w.i.i.i.i.C.!./.~.M.&Xa ` iXiXiXiXiXiXiX",
"iXiXiXiX@ $.XX' Z @.6XA.!.V.' XX1.3X7.Q.1.].z.A iXI [.=X-X7XqX0XqX0X0X*X Xr.R ` ! f f z S F e.i.p.^.Z.~./.S.#X- + iXiXiXiXiXiXiX",
"iXiXiX7 U XXG.p.u.& U v L.Y.F.'.6.W.2.3.,.;X .d iXP *X5X*XqX0XqXqXqXqX*X.Xk.` h.X.A Q Q A l S w.p.~.0.T.eXS.k.J   iXiXiXiXiXiXiX",
"iXiXX j.@XXXt.L.Z.* X = p.].<X;.W.7.'.3.H m.p iXiXJ 7X9X5XqXqXqX0XqX9X#XXXk.! h.h.h.h.h.$.} S G p./.u.C.R.C.Y. X3 iXiXiXiXiXiXiX",
"iXiX  $.XXXXr.P.!.0.iXk iX:XyX,.<.<.'.yX`.6Xp iXiXW qXqXqX0XqXqXqXqX=X X.Xr.| h.h.h.X.h.X.h.H.D C./.a.y.y.A.@X.Xx.# iXiXiXiXiXiX",
"iXiX  $.XXXXr.P.Z.j iXiXiXiXk.! O O U XX6XXXa iXiXf.qXqXqXqX0XqXqXqX=X.XG.! h.X.X.h.h.h.h.X.F.9.!.I.C.8X9X0XD.G..X/ iXiXiXiXiXiX",
"iXiX  j.XXXXr.Z.8.iXiXiXiXiX{  X:X;X5X#X#Xz.iXiXiXiX}.qXqXqXqXqXqX8XXX.XF...r...X.$.$.h.h.X.G.G.0.C.F t.8X#X=Xn. X X6 iXiXiXiXiX",
"iXiXJ  X#X}.} iXiXiXiXiXiXiXU #X;X;X*XXXXX{ iXiXiXiX .-X0XqXqX0X;X#X.X Xm.H.H.5 X.X.h.X.h.X.x. Xa.l u.D < U *X=X5XXXp iXiXiXiXiX",
"iXiX3 F.=X{.iXiXiXiXiXiXiXiX3 F.XX@X#XXX| 1 iXiXiXE I F.-X-X=X=X.X.X.X.XH.XX.XY v $.h.h.h.h.h.F.N.8.~.G : : $.-X=X.X$.& iXiXiXiX",
"iXiX  $.#X%Xt.iXiXiXiXiXiXiXiX! U U Y Y y iXiXiXf o. .| G..X.X.X.X.XXX.XXX.X.Xz.; h.h.M h.( v ~ M 8.~.E.t.: j..X.X.X.X, iXiXiXiX",
"iXiXiXv..X-XN.iXiXiXiXiXiXiXiXd X       iXiXiXiXB k.XXy.X.z.U.XX.XH.H..X XXX XH.2 L J $ M 7   : + g p.wX&X/ XX.X.X.X X- iXiXiXiX",
"iXiXiX.X.X=XM.iXiXiXiXiXiXiXiXiXiXiXiXiXiXiXiXiX_ oX.XXXg.Z g.H.G._ o..XXXXXXX Xu     iX  iXiXiXiXiXiX}.8XXX XU. XXX Xp iXiXiXiX",
"iXiXiX`.XXXXk.iXiXiXiXiXiXiXiXiXiXiXiXiXiXiXiXiX_ .X.X.XH.h.Q B B B * $. X.X X Xh . iXiXiXiXiXiXiXiXiX$ J.).r.A t.=XoX.Xj.  iXiX",
"iXiXiX- H.-XM.iXiXiXiXiXiXiXiXiXiXiXiXiXiXiXiXiXiX.X.X.X).h.Q iXiXiXiXo 3  X.Xz.o.Q iXiXiXiXiXiXiXiXiXiXiX@ O a.' n..XXX$.  iXiX",
"iXiXiXiXp -XN.iXiXiXiXiXiXiXiXiXiXiXiXiXiXiXiXiXiXU XX X' | Z iXiXiXiXiXiX> M X.$.` iXiXiXiXiXiXiXiXiXiXiXiXiX8.C.r.XXXXj.  iXiX",
"iXiXiXiXiX#.n.iXiXiXiXiXiXiXiXiXiXiXiXiXiXiXiXiXiX- p p | ` iXiXiXiXiXiXiX+ m X.h.X.C iXiXiXiXiXiXiXiXiXiXiXiXiX9.m.*XXX$.  iXiX",
"iXiXiXiXiX, k.y.iXiXiXiXiXiXiXiXiXiXiXiXiXiXiXiXiXiX; 4 | ! iXiXiXiXiXiXiXiX` X.` | Q iXiXiXiXiXiXiXiXiXiXiXiXiXj N.6X.Xj.  iXiX",
"iXiXiXiXiXiX@.f.iXiXiXiXiXiXiXiXiXiXiXiXiXiXiXiXiXiX..| h o.h iXiXiXiXiXiXiX` o.b ` | iXiXiXiXiXiXiXiXiXiXiXiXiXj N.,X.X$.  iXiX",
"iXiXiXiXiXiXc.N.iXiXiXiXiXiXiXiXiXiXiXiXiXiXiXiXiXC ` m & z.6 iXiXiXiXiXiXiXu  .B ..F.m iXiXiXiXiXiXiXiXiXiXiXiXiXN.-X.Xj.  iXiX",
"iXiXiXiXiXiXH.#Xy.iXiXiXiXiXiXiXiXiXiXiXiXiXiXiXiXo...iX, U iXiXiXiXiXiXiXiXO  .Z iXr., iXiXiXiXiXiXiXiXiXiXiXiXiXN.5X.X$.  iXiX",
"iXiXiXiXiXiX@ , |._ iXiXiXiXiXiXiXiXiXiXiXiXiXiXiXiXB iXiX. iXiXiXiXiXiXiXiXP 3 iXv I iXiXiXiXiXiXiXiXiXiXiXiXiXiXN.=X.X$.X iXiX",
"iXiXiXiXiXiXiXiX, @ iXiXiXiXiXiXiXiXiXiXiXiXiXiXiXiXiXiXiXiXiXiXiXiXiXiXiXiX& . iX$ O iXiXiXiXiXiXiXiXiXiXiXiXiXiXN.-XH.1 iXiXiX",
"iXiXiXiXiXiXiXiXiXiXiXiXiXiXiXiXiXiXiXiXiXiXiXiXiXiXiXiXiXiXiXiXiXiXiXiXiXiXiXiXiXiXiXiXiXiXiXiXiXiXiXiXiXiXiXiXiX#X#XH.. iXiXiX",
"iXiXiXiXiXiXiXiXiXiXiXiXiXiXiXiXiXiXiXiXiXiXiXiXiXiXiXiXiXiXiXiXiXiXiXiXiXiXiXiXiXiXiXiXiXiXiXiXiXiXiXiXiXiXiXiXN.6XXX/ iXiXiXiX",
"iXiXiXiXiXiXiXiXiXiXiXiXiXiXiXiXiXiXiXiXiXiXiXiXiXiXiXiXiXiXiXiXiXiXiXiXiXiXiXiXiXiXiXiXiXiXiXiXiXiXiXiXiXiXiXiXt.6Xx.% iXiXiXiX",
"iXiXiXiXiXiXiXiXiXiXiXiXiXiXiXiXiXiXiXiXiXiXiXiXiXiXiXiXiXiXiXiXiXiXiXiXiXiXiXiXiXiXiXiXiXiXiXiXiXiXiXiXiXiXiXiXt.5XJ iXiXiXiXiX",
"iXiXiXiXiXiXiXiXiXiXiXiXiXiXiXiXiXiXiXiXiXiXiXiXiXiXiXiXiXiXiXiXiXiXiXiXiXiXiXiXiXiXiXiXiXiXiXiXiXiXiXiXiXiXiXiXy..XH.> iXiXiXiX",
"iXiXiXiXiXiXiXiXiXiXiXiXiXiXiXiXiXiXiXiXiXiXiXiXiXiXiXiXiXiXiXiXiXiXiXiXiXiXiXiXiXiXiXiXiXiXiXiXiXiXiXiXiXiXiXiXt.5Xc iXiXiXiXiX",
"iXiXiXiXiXiXiXiXiXiXiXiXiXiXiXiXiXiXiXiXiXiXiXiXiXiXiXiXiXiXiXiXiXiXiXiXiXiXiXiXiXiXiXiXiXiXiXiXiXiXiXiXiXiXiXiXf.b.@ iXiXiXiXiX",
"iXiXiXiXiXiXiXiXiXiXiXiXiXiXiXiXiXiXiXiXiXiXiXiXiXiXiXiXiXiXiXiXiXiXiXiXiXiXiXiXiXiXiXiXiXiXiXiXiXiXiXiXiXiXiX_ @XJ.iXiXiXiXiXiX",
"iXiXiXiXiXiXiXiXiXiXiXiXiXiXiXiXiXiXiXiXiXiXiXiXiXiXiXiXiXiXiXiXiXiXiXiXiXiXiXiXiXiXiXiXiXiXiXiXiXiXiXiXiXiXiXY.oXJ iXiXiXiXiXiX",
"iXiXiXiXiXiXiXiXiXiXiXiXiXiXiXiXiXiXiXiXiXiXiXiXiXiXiXiXiXiXiXiXiXiXiXiXiXiXiXiXiXiXiXiXiXiXiXiXiXiXiXiXiXiXn.B.U iXiXiXiXiXiXiX",
"iXiXiXiXiXiXiXiXiXiXiXiXiXiXiXiXiXiXiXiXiXiXiXiXiXiXiXiXiXiXiXiXiXiXiXiXiXiXiXiXiXiXiXiXiXiXiXiXiXiXiXiXiXiXd.,   iXiXiXiXiXiXiX",
"iXiXiXiXiXiXiXiXiXiXiXiXiXiXiXiXiXiXiXiXiXiXiXiXiXiXiXiXiXiXiXiXiXiXiXiXiXiXiXiXiXiXiXiXiXiXiXiXiXiXiXiXiXiXX iXiXiXiXiXiXiXiXiX"
};
