/* XPM */
static char *result[] = {
/* columns rows colors chars-per-pixel */
"64 64 225 2 ",
"   c #020102",
".  c #070608",
"X  c #0B0A0D",
"o  c #08070B",
"O  c #0E0C12",
"+  c #0A0417",
"@  c #110F14",
"#  c #1B0B12",
"$  c #111114",
"%  c #151419",
"&  c #19161B",
"*  c #19191D",
"=  c #1F050A",
"-  c #240D1B",
";  c #21030B",
":  c #140B27",
">  c #191325",
",  c #1E1C22",
"<  c #1B1428",
"1  c #1D1137",
"2  c #211E25",
"3  c #251F2F",
"4  c #261B38",
"5  c #29252D",
"6  c #25222B",
"7  c #2B2532",
"8  c #2C2B34",
"9  c #292238",
"0  c #312C36",
"q  c #332E3A",
"w  c #35323C",
"e  c #2F3137",
"r  c #531527",
"t  c #6C1B36",
"y  c #4F2B38",
"u  c #69212A",
"i  c #35662F",
"p  c #291B46",
"a  c #271158",
"s  c #362A49",
"d  c #3C3543",
"f  c #3B3847",
"g  c #3D2D5E",
"h  c #3A2956",
"j  c #341C69",
"k  c #331B6B",
"l  c #3B2669",
"z  c #3E2A70",
"x  c #7E1F40",
"c  c #443D4B",
"v  c #403749",
"b  c #433759",
"n  c #432D5D",
"m  c #742D4E",
"M  c #433363",
"N  c #4B3C64",
"B  c #4D3D6A",
"V  c #4B3764",
"C  c #543D6E",
"Z  c #422876",
"A  c #4B3473",
"S  c #4C3674",
"D  c #563C79",
"F  c #633460",
"G  c #3D414C",
"H  c #4C4454",
"J  c #444453",
"K  c #544B5D",
"L  c #51475C",
"P  c #42404C",
"I  c #4D4162",
"U  c #4E406E",
"Y  c #594D64",
"T  c #53436D",
"R  c #574A68",
"E  c #575364",
"W  c #5C5164",
"Q  c #5C5769",
"!  c #534373",
"~  c #5C4C75",
"^  c #5C4C7A",
"/  c #5A4375",
"(  c #5F517A",
")  c #62566D",
"_  c #72457D",
"`  c #635475",
"'  c #655B72",
"]  c #6A5E75",
"[  c #64547C",
"{  c #6C5C7D",
"}  c #67587A",
"|  c #765575",
" . c #6A6076",
".. c #6D637B",
"X. c #666578",
"o. c #71657D",
"O. c #74687F",
"+. c #707679",
"@. c #841E3D",
"#. c #832242",
"$. c #832949",
"%. c #9A2943",
"&. c #953551",
"*. c #AA344B",
"=. c #B33348",
"-. c #99475E",
";. c #834362",
":. c #B85C74",
">. c #A3556C",
",. c #816574",
"<. c #A5687A",
"1. c #CC5263",
"2. c #D56778",
"3. c #CF6D78",
"4. c #789E73",
"5. c #583A86",
"6. c #56378C",
"7. c #613C99",
"8. c #5B4586",
"9. c #664983",
"0. c #6B4C8D",
"q. c #674888",
"w. c #665A83",
"e. c #6C5C82",
"r. c #6A5D8A",
"t. c #665486",
"y. c #674A95",
"u. c #715192",
"i. c #725898",
"p. c #6F5F91",
"a. c #6E6389",
"s. c #716281",
"d. c #73648B",
"f. c #7B6C8B",
"g. c #746B8A",
"h. c #717185",
"j. c #7F728D",
"k. c #7C6D92",
"l. c #776A95",
"z. c #7C7C92",
"x. c #7C749C",
"c. c #7E7094",
"v. c #6C4AA1",
"b. c #7A57A6",
"n. c #7D58B1",
"m. c #704FA4",
"M. c #7A6CA3",
"N. c #7D74A1",
"B. c #81738E",
"V. c #837B8E",
"C. c #837493",
"Z. c #867996",
"A. c #86759A",
"S. c #847A9C",
"D. c #8B7C9C",
"F. c #897A97",
"G. c #8F6D97",
"H. c #A86E83",
"J. c #825EA9",
"K. c #845DB3",
"L. c #885BBE",
"P. c #8468A9",
"I. c #847AA3",
"U. c #8D7DA1",
"Y. c #8073A4",
"T. c #8A62BB",
"R. c #8966B8",
"E. c #9275BA",
"W. c #8871B7",
"Q. c #CA6F83",
"!. c #DD7D8D",
"~. c #DA7383",
"^. c #8E5EC6",
"/. c #926BC3",
"(. c #9364C8",
"). c #9471C1",
"_. c #A17AD0",
"`. c #8B829C",
"'. c #818197",
"]. c #B28C99",
"[. c #8B83AB",
"{. c #8C86A6",
"}. c #9484A5",
"|. c #9887A7",
" X c #958AA4",
".X c #9585A9",
"XX c #938AAD",
"oX c #9A8AAA",
"OX c #9B8DA7",
"+X c #9291AB",
"@X c #9A92AF",
"#X c #928DB3",
"$X c #9E8EB0",
"%X c #9491B3",
"&X c #9D93B3",
"*X c #9E9CBB",
"=X c #9B97B9",
"-X c #A194B4",
";X c #A49DBC",
":X c #A99FBF",
">X c #A39BB5",
",X c #A1A1BD",
"<X c #B1AAB7",
"1X c #B7B4BA",
"2X c #BBA0A9",
"3X c #DF8393",
"4X c #E28B9B",
"5X c #CBB0BD",
"6X c #AA83DA",
"7X c #A49FC1",
"8X c #A6A4C4",
"9X c #AAA4C4",
"0X c #A9A9C6",
"qX c #AEABCB",
"wX c #A8A6C9",
"eX c #B1ADCE",
"rX c #B3B2CB",
"tX c #B5B3D3",
"yX c #B9B9D9",
"uX c #B0AFD0",
"iX c #C2B3C1",
"pX c #BFC0E0",
"aX c #CBC7D3",
"sX c #D9D5DC",
"dX c None",
/* pixels */
"dXdXdXdXdXdXdXdXdXdXdXdXdXdXM M dXdXdXdXdXdXdXdXdXdXdXdXdXdXdXdXdXdXdXdXdXdXdXdXdXdXdXdXdXdXdXdXdXdXdXdXdXdXdXdXdXdXdXdXdXdXdXdX",
"dXdXdXdXdXdXdXdXdXdXdXdXdXdXU [.M dXdXdXdXdXdXdXdXdX< dXdXdXdXdXdXdXdXdXdXdXdXdXdXdXdXdXdXdXdXdXdXdXdXdXdXdXdXdXdXdXdXdXdXdXdXdX",
"dXdXdXdXdXdXdXdXdXdXdXdXdXdX! #Xg dXdXdXdXdXdXdXdX8 g.dXdXdXdXdXdXdXdXdXdXdXdXdXdXdXdXdXdXdXdXdXdXdXdXdXdXdXdXdXdXdXdXdXdXdXdXdX",
"dXdXdXdXdXdXdXdXdXdXdXdXdXdXU 0Xx.dXdXdXdXdXdXdX$ +X[.dXdXdXdXdXdXdXdXdXdXdXdXdXdXdXdXdXdXdXdXdXdXdXdXdXdXdXdXdXdXdXdXdXdXdXdXdX",
"dXdXdXdXdXdXdXdXdXdXdXdXdXdXU tX[.dXdXdXdXdXdXdXh.tXk.dXdXdXdXdXdXdXdXdXdXdXdXdXdXdXdXdXdXdXdXdXdXdXdXdXdXdXdXdXdXdXdXdXdXdXdXdX",
"dXdXdXdXdXdXdXdXdXdXdXdXdXdXU tX8Xa.dXdXdXdXdX} tX8X~ dXdXdXdXdXdXdXdXdXdXdXdXdXdXdXdXdXdXdXdXdXdXdXdXdXdXdXdXdXdXdXdXdXdXdXdXdX",
"dXdXdXdXdXdXdXdXdXdXdXdXdXdXU uXpX}   dXdXdX^ 7XyX{.g dXdXdXdXdXdXdXdXdXdXdXdXdXdXdXdXdXdXdXdXdXdXdXdXdXdXdXdXdXdXdXdXdXdXdXdXdX",
"dXdXdXdXdXdXdXdXdXdXdXdXdXdXs qXtXz.J } d h C.9XqXa.dXdXdXdXdXdXdXdXdXdXdXdXdXdXdXdXdXdXdXdXdXdXdXdXdXdXdXdXdXdXdXdXdXdXdXdXdXdX",
"dXdXdXdXdXdXdXdXdXdXdXdXdXdXO +X9XyXiX8Xf Q oXoX-XM dXdXdXdXdXdXdXdXdXdXdXdXdXdXdXdXdXdXdXdXdXdXdXdXdXdXdXdXdXdXdXdXdXdXdXdXdXdX",
"dXdXdXdXdXdXdXdXdXdXdXdXdXdXw `.yXyXpX7XpXuXoX.Xc.M dXdXdXdXdXdXdXdXdXdXdXdXdXdXdXdXdXdXdXdXdXdXdXdXdXdXdXdXdXdXdXdXdXdXdXdXdXdX",
"dXdXdXdXdXdXdXdXdXdXdXdXdX9 *XyXyXtXyXyXyXyX7X}.B dXdXdXdXdXdXdXdXdXdXdXdXdXdXdXdXdXdXdXdXdXdXdXdXdXdXdXdXdXdXdXdXdXdXdXdXdXdXdX",
"dXdXdXdXdXdXdXdXdXdXdXdXa [.yXyXyXyXtXyXqXuX;X}.! dXdXdXdXdXdXdXdXdXdXdXdXdXdXdXdXdXdXdXdXdXdXdXdXdXdXdXdXdXdXdXdXdXdXdXdXdXdXdX",
"dXdXdXdXdXdXdXdXdXdXdXdX  z.yXyXyX,XeX9X^ C.oX.Xs.M dXdXdXdXdXdXdXdXdXdXdXdXdXdXdXdXdXdXdXdXdXdXdXdXdXdXdXdXdXdXdXdXdXdXdXdXdXdX",
"dXdXdXdXdXdXdXdXdXdXdXdX   .tXyX0X,XtXd.aX|.oX|.D.M dXdXdXdXdXdXdXdXdXdXdXdXdXdXdXdXdXdXdXdXdXdXdXdXdXdXdXdXdXdXdXdXdXdXdXdXdXdX",
"dXdXdXdXdXdXdXdXdXdXdXdXdXs.qXyX=X@Xl.aXsXC.|.oXZ.@ dXdXdXdXdXdXdXdXdXdXdXdXdXdXdXdXdXdXdXdXdXdXdXdXdXdXdXdXdXdXdXdXdXdXdXdXs.dX",
"dXdXdXdXdXdXdXdXdXdXoXd.g } qXyX=X(  X4.1Xf.|.|.Z.% dXdXdXdXdXdXdXdXdXdXdXdXdXdXdXdXdXdXdXdXdXdXdXdXdXdXdXdXdXdXdXdXdXdXdXXXS.dX",
"dXdXdXdXdXdXdXdXdX&XqX8X#X;XtXyX#Xg w i Z.}.|.C.U.Y 3 dXdXdXg dXdXdXdXdXdXdXdXdXdXdXdXdXdXdXdXdXdXdXdXdXdXdXdXdXdXdXdXdXf.;Xg.dX",
"dXdXdXdXdXdXdXdXdXZ.tXyXyXyXyXyX8XXX..+.D.|.oXf.}.O.> dXdXB d.[ dXdXdXdXdXdXdXdXdXdXdXdXdXdXdXdXdXdXdXdXdXdXdXdXdXdXdXB XX9Xt.dX",
"dXdXdXdXdXdXdXdXdXs.tXyXyXyXyXyXyXtX&XoX$X$XOXe.U.o.3 T dXB |.k.dXdXdXdXdXdXdXdXdXdXdXdXdXdXdXdXdXdXdXdXdXdXdXdXdXdXM S.;X9X~ dX",
"dXdXdXdXdXdXdXdX4 } tXyX=X{.tXtX9X-XoX|.K H H [ .Xo.7 T ~ s..X}.K dXdXdXdXdXdXdXdXdXdXdXdXdXdXdXdXdXdXdXdXdXdXdXdX[.x.;X9X{.! dX",
"dXdXdXdXdXdXdXdX  ] ;XwXa.c.eX:XoXg.Y R > >   ..|.K Y d.( U.#XU.8 dXdXdXdXdXdXdXdXdXdXdXdXdXdXdXdXdXdXdXdXdXdXdXg.;X9X;X:X) dXdX",
"dXdXdXdXdXdXdXdXdXW c.U.k.tXeX}.' y ; - n M <  .F.6 OXOXe.C..X[.6 dXdXdXdXdXdXdXdXdXdXdXdXdXdXdXdXdXdXdXdXdXdXdX{ { }.9XoXH dXdX",
"dXdXdXdXdXdXdXdXdX> f.D.XXuXC.W = r #.x h M 4 ..o.c oX|.$XA.{.iXX.dXdX$ e 8 8 dXdXdXdXdXdXdXdXdXdXdXdXdXdXdXdXdXdXs.}.|.OXH dXdX",
"dXdXdXdXdXdXdXdXdXM Z.|.|.C.@ # &.%.@.t & s n C.6 }.|.|.eXyXyXyXyXc $ dX=XqXtXe 2 2 2 dXdXdXdXdXdXdXdXdXdXdXdXdXdXd.U.U.$XH dXdX",
"dXdXdXdXdXdXdXdXdXz ^ }.oX0   q H.#.#.#.t   L }.6 F.|.oXqXyXyXtXyX;XZ.% X  .9X,X;X0XtXf $ $ dXdXdXdXdXdXdXdXdXdXs.D.U.T |.c dXdX",
"dXdXdXdXdXdXdXdX. +X%X( }.0 C _ $.*.%.#.@.r E ^ j ~ oX9XyXyXyXyXtXtXoXA.0.s O O @ E tX8XrX'.X X dXdXdXdXdXdXdXdXC.|.o.7 Q   dXdX",
"dXdXdXdXdXdXdXdX. [.Z p O V u._ %.2.1.Q.=.;.{.~ M XXtXtXyXyXyXyXyX;X|.U.u.9.9.9.9.v # , ,XuX,X8X8   . dXdXdXdXf.|..Xf.dXo   dXdX",
"dXdXdXdXdXdXdX  X.d + 6.R.u.0.F 1.!.4X!.*.} a.dXdXc yXyXyXtXyXyXyX&X|.k.j 5.u.u.u.0./ / 6 , * z.8X*Xh.  dXdXg.}.OXe.dXdXdXdXdXdX",
"dXdXdXdXdXdXdX< z.*XZ.A n.M.g.].1.4X3X!.-.>X[ dXdX8 yXyXtXyXyXtXyXeXoXD.T l Z 0.u.u.u.u.C C C s e qXrX+X8.[ `.oXF.T dXdXdXdXdXdX",
"dXdXdXdXdXdXd f.a.G u.n.b.d.iX3.!.:.Q.:.5XoX~ dX% z.&X9XeXyXyXyXyXyX0X|.f.V C t.A Z 5.u.u.u.u.D N P.6XW.M.8.D.C.dXdXdXdXdXdXdXdX",
"dXdXdXdXdX, H w b E x.L.U.j.H.~.Q.H.>.#.D. .9 dX* ,X&X;XqXyXyXyXyXyXtXoX|.^ [ { / / A y.u.u.u.u.i.K.R.y.M.N.c B dXdXdXdXdXdXdXdX",
"dXdXdXdXdX, B.d ( ;Xl.K.<X5X$.2.1.].2X| I.W dXdX* 0XeXeXtXyXyXtXyXyXtXoXOX[ ` s.s.s.^ A D u.u.u.u.(.n.y.i.%X% dXdXdXdXdXdXdXdXdX",
"dXdXdXdX  L D.T f.tXY.b.[.<Xm u y ,.rX&X9XE dXdXs tXyXyXyXyXyXyXyXtX9XoXoX[ ` s.s.s.s.D A 5.u.0.J.(.y.T.i.*XQ dXdXdXdXdXdXdXdXdX",
"dXdXdXdXd |.C.g L ,XXXD 5...a.J P  .}.9X}.R dXdXT #XyXyXyXyXtXyXyXyXoXoXD.~ } s.s.{ { s.{ A q.u.L.(.6.6XP.[.{.  dXdXdXdXdXdXdXdX",
"dXdXdX5 Z.|.d.n.9 K I h s ` -XeXrXrX-XoXf.p dXdXdXI eXtXyXyXyXyXyXqXoXoXa.( { e.s.s.{ s.o.[ S 0.(./.y.6X6X0.f.5 dXdXdXdXdXdXdXdX",
"dXdX% o.oXZ.y.(.n + + k : K  XoXoXoX|.F.) dXdXdXdXq C.,XeXeXqXeXeX$XoX|.d.k.} R o.s.s.o.s.s.D 5.).E.i.).E.i..X'   dXdXdXdXdXdXdX",
"dXdXH OXoXS.y.(.L.Z dXdXdX. s.B.B.B.B.b   dXdXdXB ..c }.|.|.oXoX|.oXoXU.C.|.U.7 ` o.s.` o.e.5.7./.u.E.t.! E.$X'   dXdXdXdXdXdXdX",
"dXdXH $XoXF.0.^.6.dXdXdXdXdXn o   .   dXdXdXdXdX! |.d.~ A.}.|.|.|.|.|.oX|.|.|.' 2 ` ` 2 Y ! y.y.S w.tXtXx.x.oX'   dXdXdXdXdXdXdX",
"dXdXH oXoXF.y.7.dXdXdXdXdXdXdXdXdXdXdXdXdXdXdXM A.|.oXC.T B U.}..X|.|.|.|.OX|.B.o o o dXo . dXk R.r.;X}.8Xd..X]   dXdXdXdXdXdXdX",
"dXdXH OXoXD.S k dXdXdXdXdXdXdXdXdXdXdXdXdXdXdXM D.oX|.}.g.[ V e.Z.T D.|.|.|.|.U.9   dXdXdXdXdXm._.l $ H OX9XoX.XH dXdXdXdXdXdXdX",
"dXdXH oXOX=XS dXdXdXdXdXdXdXdXdXdXdXdXdXdXdXdXM D.oX|.|.f.{ M B B g 0 }.|.|.OXU.s   dXdXdXdXdXZ ^.! h 1 ] -X0XoXH dXdXdXdXdXdXdX",
"dXdX& o.$X7X! dXdXdXdXdXdXdXdXdXdXdXdXdXdXdXdXdXq |.OXd.[ B dXdXdXdXdX, K $XOXf.~ N dXdXdXdXdXdXt.=Xg.s D.|.-XoXF.0 dXdXdXdXdXdX",
"dXdX  ' &X-XI.dXdXdXdXdXdXdXdXdXdXdXdXdXdXdXdXdXdX7 7 H { B dXdXdXdXdXdX2 7 T { o.~ dXdXdXdXdXdXdXpX;XB.OXoX.XoXOXw dXdXdXdXdXdX",
"dXdXdXq C.-X#XdXdXdXdXdXdXdXdXdXdXdXdXdXdXdXdXdXdX9 v N } M dXdXdXdXdXdXdX> N s.s.{ B dXdXdXdXdXdXE ;X$Xc.-XoX|.oXq dXdXdXdXdXdX",
"dXdXdXdXD.$X&Xl.dXdXdXdXdXdXdXdXdXdXdXdXdXdXdXdXdXB e.s R { dXdXdXdXdXdXdXM } { / ` T dXdXdXdXdXdXO c c t.I.7XoXoX] dXdXdXdXdXdX",
"dXdXdXdXW }.;XI.dXdXdXdXdXdXdXdXdXdXdXdXdXdXdXdXdX[ ! O W W dXdXdXdXdXdXdXdXT } n ~ e.M dXdXdXdXdXdX    / b.[.oX|.OXf dXdXdXdXdX",
"dXdXdXdX. ' ,XI.dXdXdXdXdXdXdXdXdXdXdXdXdXdXdXdXB e.M dXH X dXdXdXdXdXdXdXdXT ~ g e.] b dXdXdXdXdXdXdXdXdXv.^ |.|.|.2 dXdXdXdXdX",
"dXdXdXdXdX% Z.XXdXdXdXdXdXdXdXdXdXdXdXdXdXdXdXdXdXg dXdX    dXdXdXdXdXdXdX   .b dX` f dXdXdXdXdXdXdXdXdXdXk ^ $X|..X2 dXdXdXdXdX",
"dXdXdXdXdXdX8 @XS.dXdXdXdXdXdXdXdXdXdXdXdXdXdXdXdXdXdXdXdXdXdXdXdXdXdXdXdXdXK $ dXf 0 dXdXdXdXdXdXdXdXdXdXk t.9XoX|.2 dXdXdXdXdX",
"dXdXdXdXdXdXdXH qXt.dXdXdXdXdXdXdXdXdXdXdXdXdXdXdXdXdXdXdXdXdXdXdXdXdXdXdXdX    dXdX  dXdXdXdXdXdXdXdXdXdXdXw.8X}.|.2 dXdXdXdXdX",
"dXdXdXdXdXdXdXH ;Xw.dXdXdXdXdXdXdXdXdXdXdXdXdXdXdXdXdXdXdXdXdXdXdXdXdXdXdXdXdXdXdXdXdXdXdXdXdXdXdXdXdXdXdXdXr.9XoXD., dXdXdXdXdX",
"dXdXdXdXdXdXdXo O {.~ dXdXdXdXdXdXdXdXdXdXdXdXdXdXdXdXdXdXdXdXdXdXdXdXdXdXdXdXdXdXdXdXdXdXdXdXdXdXdXdXdXdX^ 8XoXoXd   dXdXdXdXdX",
"dXdXdXdXdXdXdXdXdX% O dXdXdXdXdXdXdXdXdXdXdXdXdXdXdXdXdXdXdXdXdXdXdXdXdXdXdXdXdXdXdXdXdXdXdXdXdXdXdXdXdXdX^ 9XoXoXw dXdXdXdXdXdX",
"dXdXdXdXdXdXdXdXdXdXdXdXdXdXdXdXdXdXdXdXdXdXdXdXdXdXdXdXdXdXdXdXdXdXdXdXdXdXdXdXdXdXdXdXdXdXdXdXdXdXdXdXdX^ 9XOXE dXdXdXdXdXdXdX",
"dXdXdXdXdXdXdXdXdXdXdXdXdXdXdXdXdXdXdXdXdXdXdXdXdXdXdXdXdXdXdXdXdXdXdXdXdXdXdXdXdXdXdXdXdXdXdXdXdXdXdXdXdX[.-X$XH dXdXdXdXdXdXdX",
"dXdXdXdXdXdXdXdXdXdXdXdXdXdXdXdXdXdXdXdXdXdXdXdXdXdXdXdXdXdXdXdXdXdXdXdXdXdXdXdXdXdXdXdXdXdXdXdXdXdXdXdX! *X-Xg.2 dXdXdXdXdXdXdX",
"dXdXdXdXdXdXdXdXdXdXdXdXdXdXdXdXdXdXdXdXdXdXdXdXdXdXdXdXdXdXdXdXdXdXdXdXdXdXdXdXdXdXdXdXdXdXdXdXdXdXdXdXB *X}.0 dXdXdXdXdXdXdXdX",
"dXdXdXdXdXdXdXdXdXdXdXdXdXdXdXdXdXdXdXdXdXdXdXdXdXdXdXdXdXdXdXdXdXdXdXdXdXdXdXdXdXdXdXdXdXdXdXdXdXdXdXdXl.>Xj.  dXdXdXdXdXdXdXdX",
"dXdXdXdXdXdXdXdXdXdXdXdXdXdXdXdXdXdXdXdXdXdXdXdXdXdXdXdXdXdXdXdXdXdXdXdXdXdXdXdXdXdXdXdXdXdXdXdXdXdXdXdX#X-XL dXdXdXdXdXdXdXdXdX",
"dXdXdXdXdXdXdXdXdXdXdXdXdXdXdXdXdXdXdXdXdXdXdXdXdXdXdXdXdXdXdXdXdXdXdXdXdXdXdXdXdXdXdXdXdXdXdXdXdXdXdXt.=X..o dXdXdXdXdXdXdXdXdX",
"dXdXdXdXdXdXdXdXdXdXdXdXdXdXdXdXdXdXdXdXdXdXdXdXdXdXdXdXdXdXdXdXdXdXdXdXdXdXdXdXdXdXdXdXdXdXdXdXdXdXdX#X`.& dXdXdXdXdXdXdXdXdXdX",
"dXdXdXdXdXdXdXdXdXdXdXdXdXdXdXdXdXdXdXdXdXdXdXdXdXdXdXdXdXdXdXdXdXdXdXdXdXdXdXdXdXdXdXdXdXdXdXdXdXdXl.`.0 dXdXdXdXdXdXdXdXdXdXdX",
"dXdXdXdXdXdXdXdXdXdXdXdXdXdXdXdXdXdXdXdXdXdXdXdXdXdXdXdXdXdXdXdXdXdXdXdXdXdXdXdXdXdXdXdXdXdXdXdXdX~ h.  dXdXdXdXdXdXdXdXdXdXdXdX",
"dXdXdXdXdXdXdXdXdXdXdXdXdXdXdXdXdXdXdXdXdXdXdXdXdXdXdXdXdXdXdXdXdXdXdXdXdXdXdXdXdXdXdXdXdXdXdXdXdX. . dXdXdXdXdXdXdXdXdXdXdXdXdX"
};
