/* XPM */
static char *result[] = {
/* columns rows colors chars-per-pixel */
"64 64 216 2 ",
"   c #010102",
".  c #09060C",
"X  c #0B0B0C",
"o  c #070508",
"O  c #0E0B11",
"+  c #0E071F",
"@  c #150D18",
"#  c #121215",
"$  c #1C191E",
"%  c #18151B",
"&  c #1A030A",
"*  c #2A0B17",
"=  c #26070B",
"-  c #140C24",
";  c #1A1425",
":  c #1B0E39",
">  c #211D25",
",  c #221C2B",
"<  c #251C33",
"1  c #281E34",
"2  c #291E3C",
"3  c #251A3C",
"4  c #28232D",
"5  c #2B2632",
"6  c #2D2933",
"7  c #2C223C",
"8  c #2F283B",
"9  c #342E3C",
"0  c #352C38",
"q  c #2F3037",
"w  c #51191F",
"e  c #461F27",
"r  c #781D3B",
"t  c #64192E",
"y  c #78213D",
"u  c #3C623A",
"i  c #271946",
"p  c #291654",
"a  c #2D2243",
"s  c #35254C",
"d  c #352949",
"f  c #3B3344",
"g  c #393445",
"h  c #392C53",
"j  c #3C2C5C",
"k  c #372557",
"l  c #3D3056",
"z  c #351C6A",
"x  c #331B6B",
"c  c #3C236E",
"v  c #3D2373",
"b  c #7F1F40",
"n  c #433C4D",
"m  c #403749",
"M  c #44375B",
"N  c #512E54",
"B  c #7E2141",
"V  c #6B2B51",
"C  c #432D68",
"Z  c #433263",
"A  c #493A65",
"S  c #4D3C6A",
"D  c #4C3766",
"F  c #523E6F",
"G  c #452B77",
"H  c #4D3574",
"J  c #4D3675",
"K  c #523B75",
"L  c #563C7C",
"P  c #4A4455",
"I  c #514658",
"U  c #51505F",
"Y  c #684E5E",
"T  c #4E4169",
"R  c #544C63",
"E  c #53446D",
"W  c #5C4F6A",
"Q  c #554868",
"!  c #5A5467",
"~  c #544571",
"^  c #5B4B74",
"/  c #5E447B",
"(  c #5B4778",
")  c #5F5178",
"_  c #62576C",
"`  c #604A7A",
"'  c #615275",
"]  c #64547C",
"[  c #6C5C7D",
"{  c #675B74",
"}  c #66637B",
"|  c #6E627A",
" . c #6B6A7F",
".. c #71667E",
"X. c #85203F",
"o. c #8A2745",
"O. c #9A304B",
"+. c #B43C52",
"@. c #AC364E",
"#. c #B4455B",
"$. c #804E69",
"%. c #A75D72",
"&. c #8C627B",
"*. c #A66175",
"=. c #C95A6D",
"-. c #DA6C7C",
";. c #DA707F",
":. c #CA4757",
">. c #52834C",
",. c #593C83",
"<. c #5B3B91",
"1. c #623F99",
"2. c #5A4082",
"3. c #654B85",
"4. c #654A89",
"5. c #6C4D8D",
"6. c #634688",
"7. c #625582",
"8. c #6C5C83",
"9. c #675A84",
"0. c #664592",
"q. c #6B4999",
"w. c #714C9E",
"e. c #725293",
"r. c #705B91",
"t. c #6C6487",
"y. c #726282",
"u. c #746A83",
"i. c #74658B",
"p. c #7B6C8D",
"a. c #796B89",
"s. c #7E738D",
"d. c #7D6D92",
"f. c #776D97",
"g. c #7F7293",
"h. c #7D759D",
"j. c #6C7083",
"k. c #6C46A2",
"l. c #734CA6",
"z. c #7B55A7",
"x. c #7E54B2",
"c. c #7B59B0",
"v. c #784EB0",
"b. c #7F74A1",
"n. c #82738E",
"m. c #837394",
"M. c #867895",
"N. c #8B7C9C",
"B. c #87799A",
"V. c #877495",
"C. c #B37788",
"Z. c #8156B5",
"A. c #8659BC",
"S. c #845AB6",
"D. c #8464AB",
"F. c #897CA2",
"G. c #8C69B5",
"H. c #926DBC",
"J. c #CF7487",
"K. c #DD7786",
"L. c #C96D81",
"P. c #8C5DC4",
"I. c #8F5FC8",
"U. c #905FC8",
"Y. c #8F61C5",
"T. c #936CC4",
"R. c #9161C9",
"E. c #9A6DCF",
"W. c #9668CC",
"Q. c #9772C4",
"!. c #9C75CB",
"~. c #9A74C7",
"^. c #9E72D2",
"/. c #A57DD6",
"(. c #A47BD6",
"). c #A078CF",
"_. c #888299",
"`. c #96869B",
"'. c #B88394",
"]. c #8E84A2",
"[. c #8C85AB",
"{. c #8F8EA6",
"}. c #9485A5",
"|. c #958BAC",
" X c #9A8AAA",
".X c #9387A9",
"XX c #9992AE",
"oX c #948EB2",
"OX c #9C93B3",
"+X c #9B98B7",
"@X c #A195B5",
"#X c #A49CBB",
"$X c #A79DBD",
"%X c #A294B0",
"&X c #A2A1BE",
"*X c #ACA6B0",
"=X c #E28B9B",
"-X c #C5B0B6",
";X c #A19EC0",
":X c #A880D8",
">X c #A5A3C2",
",X c #AAA4C4",
"<X c #AAA7C8",
"1X c #ADABCB",
"2X c #A9AAC7",
"3X c #B1ADCD",
"4X c #B1B1CF",
"5X c #B0AFD0",
"6X c #B5B4D4",
"7X c #B9B9D9",
"8X c #B8B7D7",
"9X c #C3BFE1",
"0X c #CAC9CF",
"qX c #C4C5E5",
"wX c #E0DFE2",
"eX c None",
/* pixels */
"eXeXeXeXeXeXeXeXeXeXeXeXeXeXeXeXeXeXeXeXeXeXeXeXeXeXeXeXeXeXeXeXeXeXeXeXeXeXeXeXeXeXeXeXeXeXeXeXeXeXeXeXeXeXeXeXeXeXeXeXeXeXeXeX",
"eXeXeXeXeXeXeXeXeXeXeXeXeXeXeXeXeXeXeXeXeXeXeXeXeXeXeXeXeXeXeXeXeXeXeXeXeXeXeXeXeXeXeXeXeXeXeXeXeXeXeXeX|.|.OXm.a.eXeXeXeXeXeXeX",
"eXeXeXeXeXeXeXeXeXeXeXeXeXeXeXeXeXeXeXeXeXeXeXeXeXeXeXeXeXeXeXeXeXeXeXeXeXeXeXeXeXeXeXeXeXeXeXeXeXeXeX@X<X<X>X>X#X8.eXeXeXeXeXeX",
"eXeXeXeXeXeXeXeXeXeXeXeXeXeXeXeXeXeXeXeXeXeXeXeXeXeXeXeXeXeXeXeXeXeXeXeXeXeXeXeXeXeXeXeXeXeXeX XOXOX#X[.S J J c Z Z eXeXeXeXeXeX",
"[ p.d.eXeXeXeXeXeXeXeXeXeXeXeXeXeXeXeXeXeXeXeXeXeXeXeXeXeXeXeXeXeXeXeXeXeXeXeXeXeXeXeXeXeXOXOX3X,X>XoX0.R.A.x.,.eXeXeXeXeXeXeXeX",
"~ ;XoXg.eXeXeXeXeXeXeXeXeXeXeXeXeXeXeXeXeXeXeXeXeXeXeXeXeXeXeXeXeXeXeXeXeXeXeXeXeXeXeXOX$X5X#X;X7.H 2.U.P.<.x eXeXeXeXeXeXeXeXeX",
"eXD 9.;X].g.eXeXeXeXeXeXeXeXeXeXeXeXeXeXeXeXeXeXeXeXeXeXeXeXeXeXeXeXeXeXeXeXeXeXeXeXeX6X;Xb.J K Z.R.R.R.k.eXeXeXeXeXeXeXeXeXeXeX",
"eXe.4.J b.1XF.eXeXeXeXeXeXeXeXeXeXeXeXeXeXeXeXeXeXeXeXeXeXeXeXeXeXeXeXeXeXeXeXeXeXOX@X[.K q.R.R.U.U.R.P.v.eXeXeXeXeXeXeXeXeXeXeX",
"eXeXw.Y.q.i.>XB.eXeXeXeXeXeXeXeXeXeXeXeXeXeXeXeXeXeXeXeXeXeXeXeXeXeXeXeXeXeXeXeXXX5XoX0.R.R.Y.I.R.U.A.<.eXeXeXeXeXeXeXeXeXeXeXeX",
"eXeXeXc.R.0.p.>XB.eXeXeXeXeXeXeXeXeXeXeXeXeXeXeXeXeXeXeXeXeXeXeXeXeXeXeXeXeXeXg.#X+X6.I.I.R.I.R.U.U.l.+ eXeXeXeXeXeXeXeXeXeXeXeX",
"eXeXeXz.P.I.0.g.+X[ eXeXeXeXeXeXeXeXeXeXeXeXeXeXeXeXeXeXeXeXeXeXeXeXeXeXeXeXeXOX$XT A.R.R.Y.R.Y.W.E.x.i eXeXeXeXeXeXeXeXeXeXeXeX",
"eXeXeXeXZ.R.P.F `.p.eXeXeXeXeXeXeXeXeXeXeXeXeXeXeXeXeXeXeXeXeXeXeXeXeXeXeXeXg.@XF.6.P.R.R.R.R.E.(.(.0.eXeXeXeXeXeXeXeXeXeXeXeXeX",
"eXeXeXeXS.Y.Y.4.m.N.' eXeXeXeXeXeXeXeXeXeXeXeXeXeXeXeXeXeXeXeXeXeXeXeXeXeXeX_.$X^ x.R.R.I.R.(.:X:XT.i eXeXeXeXeXeXeXeXeXeXeXeXeX",
"eXeXeXe.S.E.R.A.F ] ^ ~ eXeXeXeXeXeXeXeXeXeXeXeXeXeXeXeXeXeXeXeXeX,X+XR eXp.F.M.4.A.R.Y.R.).:X:X/.k.. eXeXeXeXeXeXeXeXeXeXeXeXeX",
"eXeXeXeXz.!.^.x.h f..XB.A k eXeXeXeXeXeXeXeXeXeXeXeXeXeXeXeXeXeXeXj.1X1Xg [ ! ` x.R.R.R.^.:X:X:X^.i eXeXeXeXeXeXeXeXeXeXeXeXeXeX",
"eXeXeXeX5.~.:Xz.# _.qX;Xd.9.eXeXeXeXeXeXeXeXeXeXeXeXeXeXeXeXeXeXI 7 R XXM g } ~ w.R.R.^.:X:X:X:Xl.- eXeXeXeXeXeXeXeXeXeXeXeXeXeX",
"eXeXeXeXeXD./.Q.K ( [ s._ _.f.eXeXeXeXeXeXeXeXeXeXeXeXeXeXeXeXeXeXs 2 B.R g 9X! 0.R.R.:X:X:X:X:Xk eXeXeXeXeXeXeXeXeXeXeXeXeXeXeX",
"eXeXeXeXeXe.T.:X(.r.{ | l n +Xo eXeXeXeXeXeXeXeXeXeXeXeXeXeXeXeXeX] F F._.I u.9.l.R.!.:X:X:X:X:X1 eXeXeXeXeXeXeXeXeXeXeXeXeXeXeX",
"eXeXeXeXeXeXZ.H.~ |.OXa.' 7 P eXeXeXeXeXeXeXeXeXeXeXeXeXeXeXeXeX[. Xd.}. XB.! 5.A.^.:X:X:X:X:Xc.3 eXeXeXeXeXeXeXeXeXeXeXeXeXeXeX",
"eXeXeXeXeXeXe.D.q {.I n | i.o eXeXeXeXeXeXeXeXeXeXeXeXeXeXeXeXeX! 9.] }. XN.4.Z.U.(.:X:X:X:X:Xj eXeXeXeXeXeXeXeXeXeXeXeXeXeXeXeX",
"eXeXeXeXeXeXe.).7.M K K ` M.# eXeXeXeXeXeXeXeXeXeXeXeXeXeXeXeXeXeXeXZ #XF.3.Z.R.E././.:X:X:X:XD., eXeXeXeXeXeXeXeXeXeXeXeXeXeXeX",
"eXeXeXeXeXeXe.).~ K !.Y.,.s.X eXeXeXeXeXeXeXeXeXeXeXeXeXeXeXeXeXeXeXeXr.#Xi.w.R.W.(.:X:X:X:X:X:X1 eXeXeXeXeXeXeXeXeXeXeXeXeXeXeX",
"eXeXeXeXeXe.H.~.^ b.D.^.L m.h eXeXeXeXeX  h eXeXeXeXeXeXeXeXeXeXeXeXeX8.;X3.Z.U.^./.:X:X:X/.:X:X1 eXeXeXeXeXeXeXeXeXeXeXeXeXeXeX",
"eXeXeXeXeXe.).~.9.[.0.l.i.p.] eXeXeXeX   .T eXeXeXeXeXeXeXeXeXeXeXeXu.&X#X,.R.U.).:X:X:X:X:X:X:X1 eXeXeXeXeXeXeXeXeXeXeXeXeXeXeX",
"eXeXeXeXeXH.:XQ.7.5Xf.j g.0 eXeXeXeXeX} 1XE eXeXeXeXeXeXeXeXeXeXeXeXu.5XXXs R.E./.:X:X:X:X:X:X:X1 eXeXeXeXeXeXeXeXeXeXeXeXeXeXeX",
"eXeXeXeX5.Q.:XQ.7.9Xh.c d.$ eXeXeXeX! 4X@XA eXeXeXeXeXeXeXeXeXeXeXeXy.6X{.7 R.^.:X:X:X:X/.:X/.:XG eXeXeXeXeXeXeXeXeXeXeXeXeXeXeX",
"eXeXeXeXG.:X:XQ.) 7X4Xt.p.A eXeXeXt.3X7X7.eXeXeXeXeXeXeXeXeXeXeXeXeXi.>X3.x.U.^.:X:X:X:X:X:X:X:XS.@ eXeXeXeXeXeXeXeXeXeXeXeXeXeX",
"eXeXeX5.T.:X:XQ.7.7X7XU # l ] j ^ #X7X#X~ eXeXeXeXeXeXeXeXeXeXeXeXeX1X,X~ U.E./.:X:X:X:X:X:X:X:X!.; eXeXeXeXeXeXeXeXeXeXeXeXeXeX",
"eXeXeXG.(.(.:XG.g 1X,X2X+X+X4 4 ]. X1Xt.eXeXeXeXeXeXeXeXeXeXeXeXeX8.1X>Xi I.E.:X:X:X/.:X/./././.(.c eXeXeXeXeXeXeXeXeXeXeXeXeXeX",
"eXeX0.:X!.R.R.z., {.6X7X7X#X&X+X X X X^ eXeXeXeXeXeXeXeXeXeXeXeXeX| 2X>X7 P.E.:X(.(./.T.G v k.(.:XT.c eXeXeXeXeXeXeXeXeXeXeXeXeX",
"eXeXG e.e.e.5.9 >X6X7X7X7X6X7X7X,X X9.eXeXeXeXeXeXeXeXeXeXeXeXeXeXi.>X( x.P.Y.<.v v G G 5.5.G z v / O eXeXeXeXeXeXeXeXeXeXeXeXeX",
"eXeXeXz ,.5.G #X7X7X7X6X7X7X4X6X,X X] eXeXeXeXeXeXeXeXeXeXeXeXeXeXOX3X8 k.v v ,.5.5.0.4.4.,.:   o o     eXeXeXeXeXeXeXeXeXeXeXeX",
"eXeXeXeXeXz ; >X7X7X7X#X5X1X) s. X Xm.T eXeXeXeXeXeXeXeXeXeXeXeXeXp.>Xs.; G 5.e.5.e.5.K . . eXeXeXeXeXeXeXeXeXeXeXeXeXeXeXeXeXeX",
"eXeXeXeXeXeXX ].8X7X;X>X5Xp.0X}. X}. X~ eXeXeXeXeXeXeXeXeXeXeXeXu.#X].5 6.5.5.5.3.6.c z eXeXeXeXeXeXeXeXeXeXeXeXeXeXeXeXeXeXeXeX",
"eXeXeXeXeXeXeXd.6X7XoX|.i.0XwXs. X}. X6 h eXeXeXeXeXeXeXeXeXeXeX+X1Xg / e.5.4.H -   eXeXeXeXeXeXeXeXeXeXeXeXeXeXeXeXeXeXeXeXeXeX",
"eXeXeX XOX7.~ g.7X7X{.A _.>.*Xs. X}. Xf { A eXeXS S eXeXeXeXeXoX1X7.3.5.4.L : eXeXeXeXeXeXeXeXeXeXeXeXeXeXeXeXeXeXeXeXeXeXeXeXeX",
"eXeXeX$X7X7X7X8X7X7X[.~ 5 u a.}. XM.M.}.> l eXeX]  X] eXeXeX.X4XI D e./ p o eXeXeXeXeXeXeXeXeXeXeXeXeXeXeXeXeXeXeXeXeXeXeXeXeXeX",
"eXeXeX|.7X7X7X7X7X7X7X6X@X X X X Xn.m. X> W Z eXt. Xm., E N.6X! M e./ O eXeXeXeXeXeXeXeXeXeXeXeXeXeXeXeXeXeXeXeXeXeXeXeXeXeXeXeX",
"eXeXA |.6X>X3X7X8X3X6X].y.a.M.B.m.' d.n.9 [ ^ M.}.F. Xt.1X3X| h e.` @ eXeXeXeXeXeXeXeXeXeXeXeXeXeXeXeXeXeXeXeXeXeXeXeXeXeXeXeXeX",
"eXeX6 ..XX9.}.8X,XN.u.0 & = j Z 3 n %X5 p. X X X}.g.,X7X3X_ d e.0.< eXeXeXeXeXeXeXeXeXeXeXeXeXeXeXeXeXeXeXeXeXeXeXeXeX9.N.3Xp.eX",
"eXeXeXn }.M.,X,X..N = t X.X.s Z i I M.0 s. X}.@X7X7X7X7X&X; e.e.C eXeXeXeXeXeXeXeXeXeXeXeXeXeXeXeXeXeXeXeXeXeXeX7.eXf.,X,X.XF eX",
"eXeXeX] N. X.X_   * @.X.X.X.* 7 h m.f i i. X X,X7X7X7X7X1Xn 3.e.s eXeXeXeXeXeXeXeXeXeXeXeXeXeXeXeXeXeXeXeXeXeXE OX7X<X,X,X' j eX",
"eXeXeXeXa. X{ o eXeXX.X.y y r o P i.4 ; M }.$X7X7X6X7X6X7X1X( 4.J eXeXeXeXeXeXeXeXeXeXeXeXeXeXeXeXeXeXeXeXeXeXy.y.OXOX6X$X' eXeX",
"eXeXeXeXQ ! @ eXeXX.#.@.#.o.y I d.3     s } 6X7X7X7X7X7X7X6X].( K C eXeXeXeXeXeXeXeXeXeXeXeXeXeXeXeXeXeXeXeXeXeXy.n.OX$Xa.T eXeX",
"eXeXeXeXeX  eXeXV @.-.-.K.:.V F.9.eXeXeXeX# 6X8X7X7X7X7X7X7X6XN.i.~ eXeXeXeXeXeXeXeXeXeXeXeXeXeXeXeXeXeXeXeXeXeXy.F.m. XP eXeXeX",
"eXeXeXeXeXeXeXeX&.=.=X=X=X#.V.m.j eXeXeXeXP +X7X3X3X7X7X8X8X7X,X X] Z eXeXeXeXeXeXeXeXeXeXeXeXeXeXeXeXeXeXeXeXn.V.N.] %XP eXeXeX",
"eXeXeXeXeXeXeX' C.-.=X=X;.o.M.M.Z eXeXeX7 |.g.6X$X3X7X7X7X6X7X,X XN.S j eXeXeXeXeXeXeXeXeXeXeXeXeXeXeXeXeXeXn.}. Xm.B.n.q eXeXeX",
"eXeXeXeXeXeXy.`.#.=XL.K.#.C.y.i.Z eXeXeXX +X}.,X#X7X7X7X7X7X7X,X}. XK E W F eXeXeXeXeXeXeXeXeXeXeXeXeXeXN.m.N. Xi.eXeX5 eXeXeXeX",
"eXeXeXeXeX`.u.'.K.J.*.*.o.N.}.f eXeXeXeXX &X1X5X3X7X7X7X7X7X6X@X X XF [ ..[ ^ ^ D j ' Z j j k ` A ] y.B. X XN.y.Z eXeX  eXeXeXeX",
"eXeXeXeX[ 0X*Xo.;.=.'.-X$.d.m.  eXeXeXeXa 1X7X7X7X7X7X7X7X7X2X X Xa.` y.y...[ y.' W [ ` 8.8.y.y.y.m.B. X X X8.Z eXeXeXeXeXeXeXeX",
"eXeXeXeXeX].OXV w e Y *X+X$Xm.o eXeXeXeXeXh.8X7X8X7X8X7X7X6X@X X X^ i.E m [ [ y.y.y...a. X X XN.}. X X X XN.] eXeXeXeXeXeXeXeXeX",
"eXeXeXeXeX- s.i.j.j._.|.@X X] eXeXeXeXeXeX4 +X,X7X7X7X8X$X@X}. XV.i.N.y.m m y.[ 8.y.[ i. X X X X X X}.`.i.' eXeXeXeXeXeXeXeXeXeX",
"eXeXeXeXeX  n.%X$X,X$XOX X}., eXeXeXeXeXD U n OX$X@X@X#X X}. X XN.}. X X| > y.y.[ y.y.N. X}. X}. X X XM.D eXeXeXeXeXeXeXeXeXeXeX",
"eXeXeXeXeXeX9 `. X X X X8.9 eXeXeXeXeXeXZ N.{ ] N. X X X X X X X X X X XB.1 n y.y.[ ..m. X X X X X7.p.eXeXeXeXeXeXeXeXeXeXeXeXeX",
"eXeXeXeXeXeXeXE 0 5 6 6 eXeXeXeXeXeXeXZ i. X}.i.] ~ V. X}.i.y. X X}. X XV.i 5 y.y...y.y.M. X XM.` Z eXeXeXeXeXeXeXeXeXeXeXeXeXeX",
"eXeXeXeXeXeXeXeXeXeXeXeXeXeXeXeXeXeXeXZ V. X X Xa.' ( ~ ( A s R %X X X}.a.W Q d $ W 1 6 Q g ( ' eXeXeXeXeXeXeXeXeXeXeXeXeXeXeXeX",
"eXeXeXeXeXeXeXeXeXeXeXeXeXeXeXeXeXeXeXZ B. X.X XB...S eXeXeXeX% > .. X X..y.' i eX% eXeXM eXeXeXeXeXeXeXeXeXeXeXeXeXeXeXeXeXeXeX",
"eXeXeXeXeXeXeXeXeXeXeXeXeXeXeXeXeXeXeXeX4 N. Xm.' ^ eXeXeXeXeXeXeX$ > S [ y.[ E eXeXeXeXeXeXeXeXeXeXeXeXeXeXeXeXeXeXeXeXeXeXeXeX",
"eXeXeXeXeXeXeXeXeXeXeXeXeXeXeXeXeXeXeXeXeX$ $ 0 [ E eXeXeXeXeXeXeXeXs ' ] D ' E eXeXeXeXeXeXeXeXeXeXeXeXeXeXeXeXeXeXeXeXeXeXeXeX",
"eXeXeXeXeXeXeXeXeXeXeXeXeXeXeXeXeXeXeXeXeXh W Q ^ E eXeXeXeXeXeXeXeXD [ ] j ] n.E eXeXeXeXeXeXeXeXeXeXeXeXeXeXeXeXeXeXeXeXeXeXeX",
"eXeXeXeXeXeXeXeXeXeXeXeXeXeXeXeXeXeXeXeXeXA ] s 9 m.0 eXeXeXeXeXeXeXeXE n.Z eXi.9 eXeXeXeXeXeXeXeXeXeXeXeXeXeXeXeXeXeXeXeXeXeXeX",
"eXeXeXeXeXeXeXeXeXeXeXeXeXeXeXeXeXeXeXeXeXeX^ y.j % ! > eXeXeXeXeXeXeXeX5 _   @ ! > eXeXeXeXeXeXeXeXeXeXeXeXeXeXeXeXeXeXeXeXeXeX",
"eXeXeXeXeXeXeXeXeXeXeXeXeXeXeXeXeXeXeXeXeXeXeXZ Z eXO   eXeXeXeXeXeXeXeXeXX   eXO o eXeXeXeXeXeXeXeXeXeXeXeXeXeXeXeXeXeXeXeXeXeX",
"eXeXeXeXeXeXeXeXeXeXeXeXeXeXeXeXeXeXeXeXeXeXeXeXeXeXeXeXeXeXeXeXeXeXeXeXeXeXeXeXeXeXeXeXeXeXeXeXeXeXeXeXeXeXeXeXeXeXeXeXeXeXeXeX"
};
