/* XPM */
static char *result[] = {
/* columns rows colors chars-per-pixel */
"64 64 221 2 ",
"   c #030203",
".  c #05030A",
"X  c #09070C",
"o  c #16090C",
"O  c #0F0D11",
"+  c #0B0615",
"@  c #110D19",
"#  c #121015",
"$  c #16131C",
"%  c #160E28",
"&  c #1A1323",
"*  c #1C1528",
"=  c #1E1232",
"-  c #1E1930",
";  c #241B29",
":  c #271E37",
">  c #331224",
",  c #27242C",
"<  c #2B2533",
"1  c #2D2934",
"2  c #2E263A",
"3  c #312C36",
"4  c #332D3A",
"5  c #362B3D",
"6  c #39323E",
"7  c #36313D",
"8  c #39202E",
"9  c #50162A",
"0  c #6B1B37",
"q  c #7B1E39",
"w  c #396035",
"e  c #2B1B47",
"r  c #311E5A",
"t  c #332B43",
"y  c #362749",
"u  c #3B3543",
"i  c #3E3847",
"p  c #3B2C5C",
"a  c #382754",
"s  c #3E3154",
"d  c #2E2440",
"f  c #341C69",
"g  c #341B6B",
"h  c #3B2668",
"j  c #3B2272",
"k  c #423B4A",
"l  c #402D5B",
"z  c #413453",
"x  c #463A59",
"c  c #5C3348",
"v  c #7A2345",
"b  c #7B385A",
"n  c #443463",
"m  c #4A3A65",
"M  c #4C3C6A",
"N  c #4B3667",
"B  c #513C6C",
"V  c #472A7C",
"C  c #4C3376",
"Z  c #543A78",
"A  c #432B6D",
"S  c #783F61",
"D  c #4B4253",
"F  c #474553",
"G  c #534A5B",
"H  c #52465F",
"J  c #50505E",
"K  c #524564",
"L  c #594E65",
"P  c #53436D",
"I  c #56486A",
"U  c #595466",
"Y  c #554572",
"T  c #5C4C74",
"R  c #5C417B",
"E  c #5E4E78",
"W  c #5E5073",
"Q  c #4E4164",
"!  c #62576D",
"~  c #61497D",
"^  c #625276",
"/  c #64547B",
"(  c #6C5C7D",
")  c #665A76",
"_  c #7F5571",
"`  c #6B647B",
"'  c #676879",
"]  c #71637E",
"[  c #821F3F",
"{  c #892241",
"}  c #982A46",
"|  c #A63149",
" . c #B23C51",
".. c #A23D57",
"X. c #95445E",
"o. c #BB485C",
"O. c #93586F",
"+. c #B75C72",
"@. c #A4556D",
"#. c #A3697C",
"$. c #B86177",
"%. c #C96475",
"&. c #D86A7A",
"*. c #6F976A",
"=. c #563887",
"-. c #4D3182",
";. c #633F96",
":. c #5E4285",
">. c #63458B",
",. c #654B8B",
"<. c #6A4B8C",
"1. c #634882",
"2. c #655582",
"3. c #6C5D83",
"4. c #685887",
"5. c #6D4D93",
"6. c #6D4A9C",
"7. c #694596",
"8. c #6D5593",
"9. c #715191",
"0. c #77569C",
"q. c #705593",
"w. c #6C6186",
"e. c #6A6680",
"r. c #726383",
"t. c #786986",
"y. c #75658A",
"u. c #7A6B8C",
"i. c #766B86",
"p. c #7A7289",
"a. c #766B92",
"s. c #7B6C93",
"d. c #756799",
"f. c #7B7394",
"g. c #7A7496",
"h. c #734BA7",
"j. c #7A55A6",
"k. c #7E54B3",
"l. c #784DB1",
"z. c #7D63A3",
"x. c #837393",
"c. c #867A94",
"v. c #857698",
"b. c #867A9A",
"n. c #8B7C9C",
"m. c #897997",
"M. c #846B8C",
"N. c #AB7386",
"B. c #8259AE",
"V. c #8659BB",
"C. c #855AB8",
"Z. c #8462AB",
"A. c #8864AF",
"S. c #847CA2",
"D. c #887AA4",
"F. c #907FA3",
"G. c #8A6AB3",
"H. c #8B67BA",
"J. c #906BB9",
"K. c #D87788",
"L. c #8C5DC4",
"P. c #8F5FC8",
"I. c #905FC9",
"U. c #9063C5",
"Y. c #9161C9",
"T. c #996CCD",
"R. c #9569C9",
"E. c #9B74CB",
"W. c #9974C4",
"Q. c #9B6DD1",
"!. c #9E74D0",
"~. c #A17ACF",
"^. c #A57CD5",
"/. c #A67CD8",
"(. c #A87FDA",
"). c #A177D4",
"_. c #88839A",
"`. c #94819A",
"'. c #AA8997",
"]. c #8B82A2",
"[. c #8B8AA3",
"{. c #8A85AA",
"}. c #8C86A9",
"|. c #9485A5",
" X c #9887A7",
".X c #9587A9",
"XX c #948AAB",
"oX c #9989A9",
"OX c #9788A7",
"+X c #9991AC",
"@X c #988EB1",
"#X c #9E93B2",
"$X c #9E9BBB",
"%X c #9B97B8",
"&X c #8E82B3",
"*X c #A195B5",
"=X c #A49BBC",
"-X c #A89EBE",
";X c #A095AC",
":X c #9FA0BB",
">X c #A9A3B8",
",X c #DA8391",
"<X c #E18898",
"1X c #A39FC1",
"2X c #A880D8",
"3X c #A780D7",
"4X c #A5A2C3",
"5X c #AAA4C4",
"6X c #ADA9CA",
"7X c #AAA6C8",
"8X c #B1ACCD",
"9X c #B5B3D3",
"0X c #B9B9D9",
"qX c #B8B7D7",
"wX c #B2B0D0",
"eX c #C0B8C7",
"rX c #C0BFE1",
"tX c #CCC9D2",
"yX c #D1CDD0",
"uX c #C1C2E2",
"iX c None",
/* pixels */
"iXiXiXiXiXiXiXiXiXiXiXiXiXiXiXiXiXiXiXiXiXiXiXiXiXiXiXiXiXiXiXiXiXiXiXiXiXiXiXiXiXiXiXiXiXiXiXiXiXiXiXiXiXiXiXiXiXiXiXiXiXiXiXiX",
"iXiX( b.}.` iXiXiXiXiXiXiXiXiXiXiXiXiXiXiXiXiXiXiXiXiXiXiXiXiXiXiXiXiXiXiXiXiXiXiXiXiXiXiXiXiXiXiXiXiXiXiXiXiXiXiXiXiXiXiXiXiXiX",
"iXiXT ].S.5Xr.w.iXiXiXiXiXiXiXiXiXiXiXiXiXiXiXiXiXiXiXiXiXiXiXiXiXiXiXiXiXiXiXiXiXiXiXiXiXiXiXiXiXiXiXiXiXiXiXiXiXiXiXiXiXiXiXiX",
"iXiXiXP P 2.4Xn.( iXiXiXiXiXiXiXiXiXiXiXiXiXiXiXiXiXiXiXiXiXiXiXiXiXiXiXiXiXiXiXiXiXiXiXiXiXiXiXiXiXiXiXiXiXiXiXiXiXiXiXiXiXiXiX",
"iXiXiX1.6.k.G.a.OX%XiXiXiXiXiXiXiXiXiXiXiXiXiXiXiXiXiXiXiXiXiXiXiXiXiXiXiXiXiXiXiXiXiXiXiXiXiXiXiXiXiXiXiXiXiXiXiXiXiXiXiXiXiXiX",
"iXiXiXiXiXB.V.,./ *X].iXiXiXiXiXiXiXiXiXiXiXiXiXiXiXiXiXiXiXiXiXiXiXiXiXiXiXiXiXiXiXiXiXiXiXiXiXiXiXiX|.oX|.|.#X-X X Xx.( iXiXiX",
"iXiXiXiXiX0.P.B.5.s.n.iXiXiXiXiXiXiXiXiXiXiXiXiXiXiXiXiXiXiXiXiXiXiXiXiXiXiXiXiXiXiXiXiXiXiXiXiXiXiX*X7X#X7X6X$X}.8X6X4Xx.iXiXiX",
"iXiXiXiXiXiXB.Y.L.E n.t.iXiXiXiXiXiXiXiXiXiXiXiXiXiXiXiXiXiXiXiXiXiXiXiXiXiXiXiXiXiXiXiXiXiXiX8X8X6X9XXX4X=Xa.d.8.s.a.f.}.iXiXiX",
"iXiXiXiXiXiXj.Y.L.,.n.y.iXiXiXiXiXiXiXiXiXiXiXiXiXiXiXiXiXiXiXiXiXiXiXiXiXiXiXiXiXiXiXiXiXiX>X4X1X{.&Xj.S.G.;.6.k.>.7.C 4./ iXiX",
"iXiXiXiXiXiX0.H.T.k.4./ a.iXiXiXiXiXiXiXiXiXiXiXiXiXiXiXiXiXiXiXiXiXiXiXiXiXiXiXiXiXiXiXiXb.1Xd.d.,.0.P.6.U.Y.Y.Y.l.l.;.r iXiXiX",
"iXiXiXiXiXiXiXB.).Q.Z 4.wXu.n iXiXiXiXiXiXiXiXiXiXiXiXiXiXiXiXiXiXiXiXiXiXiXiXiXiXiXiXiXs.=Xs.6.6.V.Y.P.I.P.Y.P.h.V iXiXiXiXiXiX",
"iXiXiXiXiXiXiXB.)./.a ' %X=X/ n iXiXiXiXiXiXiXiXiXiXiXiXiXiXiXiXiXiXiXiXiXiXiXiXiXiXiXr.XX.X>.I.Y.Y.Y.P.P.P.Y.=.g iXiXiXiXiXiXiX",
"iXiXiXiXiXiXiX9.E./.B . 4 m.oX! iXiXiXiXiXiXiXiXiXiXiXiXiXiXiXiXiXiXiXiXiXiXiX]._.$ iXb.>X2.B.I.P.I.I.I.P.P.k.= iXiXiXiXiXiXiXiX",
"iXiXiXiXiXiXiX9.E.2XU.M D k p.' iXiXiXiXiXiXiXiXiXiXiXiXiXiXiXiXiXiXiXiXiXiX  e.4X5 u.b.F.4.C.P.I.Y.R.R.R.R.V iXiXiXiXiXiXiXiXiX",
"iXiXiXiXiXiXiXiXJ.2X8.%Xn.( z F iXiXiXiXiXiXiXiXiXiXiXiXiXiXiXiXiXiXiXiXiXiXiXa.4XY u s >.I.P.Y.P.T././.3XT.y iXiXiXiXiXiXiXiXiX",
"iXiXiXiXiXiXiXiX9.A.m [.v.( 3.d iXiXiXiXiXiXiXiXiXiXiXiXiXiXiXiXiXiXiXiXiXiXM < ` t ' 7Xj.I.P.P.Y.^.2X2XU.f iXiXiXiXiXiXiXiXiXiX",
"iXiXiXiXiXiXiXiXiXA.K p.2 < u.U iXiXiXiXiXiXiXiXiXiXiXiXiXiXiXiXiXiXiXiXiXOX=X/ v.! ` _.p Y.I.Y.!.2X2X(.j.. iXiXiXiXiXiXiXiXiXiX",
"iXiXiXiXiXiXiXiXiXZ.W.s A.:.Y U iXiXiXiXiXiXiXiXiXiXiXiXiXiXiXiXiXiXiXiXiX& / 4.x.|.D ` :.I.R.^./.2X2XR.V iXiXiXiXiXiXiXiXiXiXiX",
"iXiXiXiXiXiXiXiXiXZ.2XW./.8.S.t iXiXiXiXiXiXiXiX- iXiXiXiXiXiXiXiXiXiXiXiXiXn w. X Xn.v.>.Y.!.2X2X2X2XU.= iXiXiXiXiXiXiXiXiXiXiX",
"iXiXiXiXiXiXiXiXiX~.2X2X/.,.&XT t.iXiXiXiXiXiX1 w.iXiXiXiXiXiXiXiXiXiXiXiXiXiXw.oXx.0.U.H.^.3X2X2X2X2X6.iXiXiXiXiXiXiXiXiXiXiXiX",
"iXiXiXiXiXiXiXiXiXG.2X2X3X5.$XS.E iXiXiXiXiXiX_.S.iXiXiXiXiXiXiXiXiXiXiXiXiXiXg.oX,.V.Y.Q.2X2X2X2X2X0.e iXiXiXiXiXiXiXiXiXiXiXiX",
"iXiXiXiXiXiXiXiXiXW.2X2X/.,.4X{.iXiXiXiXiXiXU 9Xa.iXiXiXiXiXiXiXiXiXiXiXiXiXiXXXXX:.Y.Y.!.2X2X2X2XE.C iXiXiXiXiXiXiXiXiXiXiXiXiX",
"iXiXiXiXiXiXiXiXj.3X2X2XH.d.9X{.iXiXiXiXiX[.:XS.iXiXiXiXiXiXiXiXiXiXiXiXiXiX( @Xd.j.Y.R.2X3X2X3X2XG.= iXiXiXiXiXiXiXiXiXiXiXiXiX",
"iXiXiXiXiXiXiXiXj.(.2X2Xz.{.uXg.. a / p f.0X4XM iXiXiXiXiXiXiXiXiXiXiXiXiXiXu.7X2.L.P.T.2X3X2X2X2XG.  iXiXiXiXiXiXiXiXiXiXiXiXiX",
"iXiXiXiXiXiXiXiXG.^.2X2X6.g.9X+XU e.2 Q oX8XD.iXiXiXiXiXiXiXiXiXiXiXiXiXiXiX=X[.5.I.Q./.2X2X2X2X2XG.X iXiXiXiXiXiXiXiXiXiXiXiXiX",
"iXiXiXiXiXiXiXiXJ.(.2X2XZ U >X0X0X=XF p.oX*X2.iXiXiXiXiXiXiXiXiXiXiXiXiXiXu.qXJ 7.Q.2X2X2X2X3X2X3X1.iXiXiXiXiXiXiXiXiXiXiXiXiXiX",
"iXiXiXiXiXiXiXiXZ.^.).T.B ` wX0XqX5X0X6XoXn.T iXiXiXiXiXiXiXiXiXiXiXiXiXiX}.7XW j.T.2X2X2X3X2X2X~.& iXiXiXiXiXiXiXiXiXiXiXiXiXiX",
"iXiXiXiXiXiXiXj.~.T.V.6.' 0X0X0X0X0X0X0X*X3.iXiXiXiXiXiXiXiXiXiXiXiXiXiXw.4X@X6.Y.Q.2X2X2X2X2X3XE.; iXiXiXiXiXiXiXiXiXiXiXiXiXiX",
"iXiXiXiXiXiXiX6.~.B.9.C 9XqX0X9XqX9X=X6X#Xy.iXiXiXiXiXiXiXiXiXiXiXiXiXiX] 7X}.>.T./.2X2X2X3X2X3X3X< iXiXiXiXiXiXiXiXiXiXiXiXiXiX",
"iXiXiXiXiXiXiXZ ,.9.<.2 6XqX0X5X6X%X( m.oXm.P iXiXiXiXiXiXiXiXiXiXiXiXiXv.$Xb.Z Y.3X2X2X2X2X2X2X^.-.iXiXiXiXiXiXiXiXiXiXiXiXiXiX",
"iXiXiXiXiXiXiXiXf 9.<.5 +X0XwX=X6Xb.tX|.oXoXT iXiXiXiXiXiXiXiXiXiXiXiXb.9X2.V.I.Y.E.^.2X3X2X3X3X2Xj.. iXiXiXiXiXiXiXiXiXiXiXiXiX",
"iXiXiXiXiXiXiXiXiXiXh Z _.0X6X].g.tX9Xm.oXoXu a iXiXiXiXiXiXiXiXiXiXiX].9Xi k.L.k.j j.^.!.!.^.2X2XZ.. iXiXiXiXiXiXiXiXiXiXiXiXiX",
"iXiXiXiXiXiXiXiXXXoX2.m }.0X6XW _.*.;Xn.oXoXi ) n iXiXn iXiXiXiXiXiXu.wX$X< f j A 7.C j j j -.^.^.-.iXiXiXiXiXiXiXiXiXiXiXiXiXiX",
"iXiXiXiXiXiXiXiXf.6XwX6X9X0X5XM , w c.|.F.v.c.1 p iXY `.T iXiXiXiXXX9XwXG N <.>.,.9.<.<.<.>.5.T./.H.f iXiXiXiXiXiXiXiXiXiXiXiXiX",
"iXiXiXiXiXiXiXiXr.qX0X0XqXqX9X5X_._.|.oXn.x.`.< Y iXY  Xw.O iXiXb.9XwXF y <.9.9.9.9.9.9.9.Z = j V Z @ iXiXiXiXiXiXiXiXiXiXiXiXiX",
"iXiXiXiXiXiXiX@ ^ qX0X0XqX0X0X8X;XoXoXoXn.3.`.1 I W n. Xn.a P 6X_.I z.:.1.9.9.9.A & e h & % . + + @   iXiXiXiXiXiXiXiXiXiXiXiXiX",
"iXiXiXiXiXiXiXiX, XX{.}.qX5X=Xi.; 3 Y P k v.G ) n.v.u.|.9X%X$XW 3.~ 9.B t iXiXiXiXiXiXiXiXiXiXiXiXiXiXiXiXiXiXiXiXiXiXiXiXiXiXiX",
"iXiXiXiXiXiXiXiXt u.s.%X8X#Xk 8 9 9 l p ; oX6 x.oX1X=X6X0X0X8X4 Z 9.<.: iXiXiXiXiXiXiXiXiXiXiXiXiXiXiXiXiXiXiXiXiXiXiXiXiXiXiXiX",
"iXiXiXiXiXiXiXiXiXF.|.*Xc.7 9 q { 0 e l x ` G |. X6X0X0X0X0Xp.z 9.9.y iXiXiXiXiXiXiXiXiXiXiXiXiXiXiXiXiXiXiXiXiXiXiXiXiXiXiXiXiX",
"iXiXiXiXiXiXiXiXiXs.oXn.6 iXq } v q > ; r.G z |.*X9X0X0X0X=Xx 1.9.;.: iXiXiXiXiXiXiXiXiXiXiXiXiXiXiXiXiXiXiXiXiXiXiXiXiXiXiXiXiX",
"iXiXiXiXiXiXiXiXiXY n.x.  iXiX{ { v 0 o t.K y F.6X0X0X0X0X}.n 9.B y iXiXiXiXiXiXiXiXiXiXiXiXiXiXiXiXiXiXiXiXiXiXiXiXiXiXiXiXiXiX",
"iXiXiXiXiXiXiXiXiXiXQ G iXiX{  . ...} c u.n iXr.qXqXqX0X0X4XE 1.r 5 iXiXiXiXiXiXiXiXiXiXiXiXiXiXiXiXiXiXiXiXiXiXiXiXiXiXiXiXiXiX",
"iXiXiXiXiXiXiXiXiXiXiX  iXiX} &.&.K.| M.s.iXiX, qXqXqX0X0X9Xv.R B B iXiXiXiXiXiXiXiXiXiXiXiXiXiXiXiXiXiXiXiXiXiXiXiXiXiXiXiXiXiX",
"iXiXiXiXiXiXiXiXiXiXiXiXiX( o.<X<XK.X.v.M iXiXF 7X0XwX0X0X0X6Xw./ N iXiXiXiXiXiXiXiXiXiXiXiXiXiXiXiXiXiXiXiXiXiXiXiXiXiXiXiXiXiX",
"iXiXiXiXiXiXiXiXiXiXiXiXiX`.%.<X<X%.O.+XB iXs v.XXwX=X0X0X0X0X1Xb./ P iXiXiXiXiXiXiXiXiXiXt.t.y.u.iXiXiXiXiXiXiXiXiXiXiXiXiXiXiX",
"iXiXiXiXiXiXiXiXiXiXiXiXiXb K.,XK.o.S u.P iX# [.oX-X9X0XqXqX0X9XoXoXY n iXiXiXiXiXiX3.t.y.m.oX X Xt.B iXiXiXiXiXiXiXiXiXiXiXiXiX",
"iXiXiXiXiXiXiXiXiXiXiX` +X,XK.+.+.@.9X] n iXO +X1X-XwX0X0XqX0XwXoXoXT T n iXiXiXn n s.oX XoX XoX X.XoX/ $ iXiXiXiXiXiXiXiXiXiXiX",
"iXiXiXiXiXiXiXiXiXiXt.>XO.+.K.#.N.v r.i iXiX# $X0XqX0X0XqX0X0X*XoX.XT ( 3.B n n ) u.|.oXoX XoX|.|.|.|.|.t.# iXiXX iXiXiXiXiXiXiX",
"iXiXiXiXiXiXiXiXiXiXt.yX'.| %.N.yXm.=X6 iXiXn 4X0XqXqXqX0XqX9X*XoX3.^ ( ( ( ( ( r.|.oX X X X.Xs.n n 2.|.|.r.iX< D iXiXiXiXiXiXiX",
"iXiXiXiXiXiXiXiXiXiXiX/ s.; o 6  X5X#X6 iXiXiX4.qXqX0X0X0X0X5XoXoX4.y.T ] r.( r.r.|. X.X X4.n m iXiXiXM F.|.T P G iXiXiXiXiXiXiX",
"iXiXiXiXiXiXiXiXiXiXiX] #X$X$XoX X].T iXiXiXiX2 oX8X0XqX9X*XoXoXF.M.oX) k r.( ] r.x..XF.P iXiXiXiXiXiXiXm 3.F.F.3.iXiXiXiXiXiXiX",
"iXiXiXiXiXiXiXiXiXiX. i.oX*X*X#XoXu.@ iXiXiXm L L #X#X#X#XoXoXoX X|.oXm.5 L r.] r.r./ P iXiXiXiXiXiXiXiXiXm ( x.|.4 iXiXiXiXiXiX",
"iXiXiXiXiXiXiXiXiXiXiX6 OXoXoXoXw.2 iXiXiXiXn x.) w. XoX|.oXoXoX X XoXoXk G r.] 3 & : iXiXiXiXiXiXiXiXiXm u.v.r.n.4 iXiXiXiXiXiX",
"iXiXiXiXiXiXiXiXiXiXiXiXH 1 4 4 t iXiXiXiXiX3.|.F.` T u.oX|.3.D.oXoXoXoXW : M M iXiXiXiXiXiXiXiXiXiXiXiX^ t.|.m.r.x iXiXiXiXiXiX",
"iXiXiXiXiXiXiXiXiXiXiXiXiXiXiXiXiXiXiXiXiXiXu.oXoXn.T ^ / E N k |.oX XoX3.+ iXiXiXiXiXiXiXiXiXiXiXiXiXiXB P r.x.r.^ $ iXiXiXiXiX",
"iXiXiXiXiXiXiXiXiXiXiXiXiXiXiXiXiXiXiXiXiXiXs.oX|.oXt.Y p iXiX$ k ] *X|.3.k iXiXiXiXiXiXiXiXiXiXiXiXiXiXiXiXM P ^ ) O iXiXiXiXiX",
"iXiXiXiXiXiXiXiXiXiXiXiXiXiXiXiXiXiXiXiXiXiXH |.;Xs.) P iXiXiXiXiX3 G 3.] ( n iXiXiXiXiXiXiXiXiXiXiXiXiXiXiXiXp M I : iXiXiXiXiX",
"iXiXiXiXiXiXiXiXiXiXiXiXiXiXiXiXiXiXiXiXiXiXiXG L I ^ h iXiXiXiXiXiX& I 3.( P iXiXiXiXiXiXiXiXiXiXiXiXiXiXiXiXiXiXl iXiXiXiXiXiX",
"iXiXiXiXiXiXiXiXiXiXiXiXiXiXiXiXiXiXiXiXiXiXiX$ ; H / n iXiXiXiXiXiXm 3.) / ^ iXiXiXiXiXiXiXiXiXiXiXiXiXiXiXiXiXiXiXiXiXiXiXiXiX",
"iXiXiXiXiXiXiXiXiXiXiXiXiXiXiXiXiXiXiXiXiXiXiXM ( z ) x iXiXiXiXiXiXn / P n ( m iXiXiXiXiXiXiXiXiXiXiXiXiXiXiXiXiXiXiXiXiXiXiXiX",
"iXiXiXiXiXiXiXiXiXiXiXiXiXiXiXiXiXiXiXiXiXiXiXP T * ! G iXiXiXiXiXiXiXm T N x.P iXiXiXiXiXiXiXiXiXiXiXiXiXiXiXiXiXiXiXiXiXiXiXiX",
"iXiXiXiXiXiXiXiXiXiXiXiXiXiXiXiXiXiXiXiXiXiXiXY 2.iX, k iXiXiXiXiXiXiX3 / iXT k iXiXiXiXiXiXiXiXiXiXiXiXiXiXiXiXiXiXiXiXiXiXiXiX",
"iXiXiXiXiXiXiXiXiXiXiXiXiXiXiXiXiXiXiXiXiXiXiXiXn iXiX  iXiXiXiXiXiXiX4 k iX7 i iXiXiXiXiXiXiXiXiXiXiXiXiXiXiXiXiXiXiXiXiXiXiXiX",
"iXiXiXiXiXiXiXiXiXiXiXiXiXiXiXiXiXiXiXiXiXiXiXiXiXiXiXiXiXiXiXiXiXiXiXiX  iXiX  iXiXiXiXiXiXiXiXiXiXiXiXiXiXiXiXiXiXiXiXiXiXiXiX"
};
