/* XPM */
static char *result[] = {
/* columns rows colors chars-per-pixel */
"64 64 230 2 ",
"   c #010101",
".  c #0C0A0D",
"X  c #05030B",
"o  c #0E0A13",
"O  c #0C0618",
"+  c #110E15",
"@  c #18121F",
"#  c #17141B",
"$  c #19040A",
"%  c #270B15",
"&  c #160F21",
"*  c #1B1822",
"=  c #1B0D3C",
"-  c #221C27",
";  c #241B34",
":  c #271B38",
">  c #242128",
",  c #28252C",
"<  c #2B2533",
"1  c #2C233C",
"2  c #2F2A37",
"3  c #32303B",
"4  c #461324",
"5  c #791E3D",
"6  c #601832",
"7  c #385A33",
"8  c #1D0D44",
"9  c #271846",
"0  c #271456",
"q  c #321E5C",
"w  c #35264B",
"e  c #362C47",
"r  c #3B3543",
"t  c #3E3B46",
"y  c #393546",
"u  c #3C2B52",
"i  c #3D2D5E",
"p  c #3A275A",
"a  c #3F305C",
"s  c #381E6D",
"d  c #2E1766",
"f  c #3B2665",
"g  c #3F3161",
"h  c #443C4B",
"j  c #42345C",
"k  c #473C57",
"l  c #472A53",
"z  c #6D2E43",
"x  c #412A63",
"c  c #482F6C",
"v  c #433362",
"b  c #4B3A66",
"n  c #4D3D6A",
"m  c #49336A",
"M  c #533B6B",
"N  c #472C77",
"B  c #4D3477",
"V  c #543B76",
"C  c #563A7E",
"Z  c #523679",
"A  c #4B4353",
"S  c #474854",
"D  c #524D5D",
"F  c #41414B",
"G  c #4E4562",
"H  c #524665",
"J  c #53436D",
"K  c #594A6E",
"L  c #544C64",
"P  c #5C5466",
"I  c #5A5769",
"U  c #544471",
"Y  c #5B4B73",
"T  c #5D4C78",
"R  c #5C4379",
"E  c #5D5278",
"W  c #664268",
"Q  c #62586D",
"!  c #60497A",
"~  c #615276",
"^  c #64547B",
"/  c #6C5C7D",
"(  c #685B74",
")  c #6D647D",
"_  c #6A6379",
"`  c #71657C",
"'  c #6E7D72",
"]  c #822140",
"[  c #8C2442",
"{  c #873352",
"}  c #983551",
"|  c #8B3245",
" . c #AE3349",
".. c #8C536B",
"X. c #A84D66",
"o. c #BB5E75",
"O. c #B96778",
"+. c #A56679",
"@. c #C34A5D",
"#. c #C65A6D",
"$. c #C74F60",
"%. c #D76A7A",
"&. c #5A3C85",
"*. c #5C3B92",
"=. c #4C2F82",
"-. c #5E4186",
";. c #654A84",
":. c #63448B",
">. c #6C4D8D",
",. c #674989",
"<. c #645582",
"1. c #665B85",
"2. c #6B5C83",
"3. c #6B5C8B",
"4. c #67538A",
"5. c #73568A",
"6. c #644593",
"7. c #6E4D90",
"8. c #65459B",
"9. c #6D4B9B",
"0. c #694899",
"q. c #735293",
"w. c #79589C",
"e. c #6D6489",
"r. c #716282",
"t. c #766983",
"y. c #786C85",
"u. c #74648B",
"i. c #75698D",
"p. c #7A6C8B",
"a. c #75738B",
"s. c #7C728C",
"d. c #7D798D",
"f. c #7C6D92",
"g. c #756796",
"h. c #7E7293",
"j. c #7C759C",
"k. c #6E7081",
"l. c #734CA9",
"z. c #714AA9",
"x. c #7E5BA4",
"c. c #7C54AB",
"v. c #7651A5",
"b. c #7C5AB1",
"n. c #7F70A0",
"m. c #80718D",
"M. c #837495",
"N. c #857B95",
"B. c #84769A",
"V. c #8B7C9C",
"C. c #877A9A",
"Z. c #906E8A",
"A. c #B87C8D",
"S. c #825EAA",
"D. c #8359B3",
"F. c #885ABE",
"G. c #8358BA",
"H. c #837BA2",
"J. c #8D7EA1",
"K. c #8B74A8",
"L. c #8C69B3",
"P. c #8B65BC",
"I. c #8763B6",
"U. c #916CBC",
"Y. c #8562AA",
"T. c #DC7484",
"R. c #C17D8D",
"E. c #E27B8C",
"W. c #8C5DC3",
"Q. c #905FC9",
"!. c #8F60C7",
"~. c #9161C9",
"^. c #966ACB",
"/. c #996CCD",
"(. c #926BC2",
"). c #9C76CA",
"_. c #9F78CE",
"`. c #9671C3",
"'. c #9A6BD0",
"]. c #9E72D1",
"[. c #A47CD5",
"{. c #A47BD6",
"}. c #A17ACF",
"|. c #8D819C",
" X c #808096",
".X c #8A9D8C",
"XX c #AC8195",
"oX c #8681A6",
"OX c #8D83A4",
"+X c #8D8DA5",
"@X c #8984A9",
"#X c #8F89AD",
"$X c #9485A5",
"%X c #9489AA",
"&X c #9989A9",
"*X c #9588A8",
"=X c #9A92AD",
"-X c #938CB3",
";X c #9685BD",
":X c #9C93B3",
">X c #9D97B9",
",X c #9E9ABB",
"<X c #9996B6",
"1X c #8F8AB0",
"2X c #A496A8",
"3X c #A195B5",
"4X c #A49CBC",
"5X c #A89FBF",
"6X c #A39EB3",
"7X c #A08FB0",
"8X c #9FA0BB",
"9X c #AAA5BA",
"0X c #B4B2B5",
"qX c #DF8595",
"wX c #E18999",
"eX c #C9B5BB",
"rX c #A981D9",
"tX c #A888D5",
"yX c #A29FC1",
"uX c #A5A1C2",
"iX c #ABA4C4",
"pX c #ADABCB",
"aX c #AAA7C8",
"sX c #B1ADCD",
"dX c #B5B4D4",
"fX c #B9B9D9",
"gX c #B8B7D7",
"hX c #AFAFCF",
"jX c #EAE8EC",
"kX c None",
/* pixels */
"kXkXkXkXkXkXkXkXkXkXkXkXkXkXkXkXkXkXkXkXkXkXkXkXkXkXkXkXkXkXkXkXkXkXkXkXkXkXkXkXkXkXkXkXkXkXkXkXkXkXkXkXkXkXkXkXkXkXkXkXkXkXkXkX",
"kXkXkXkXkXkXkXkXkXkXkXkXkXkXkXkXkXkXkXkXkXkXkXkXkXkXkXkXkXkXkXkXkXkXkXkXkXkXkXkXkXkXkXkXkXkXkXkXkXkXkXkXkXkXkXkXkXkXkXkXkXkXkXkX",
") OXC./ r.kXkXkXkXkXkXkXkXkXkXkXkXkXkXkXkXkXkXkXkXkXkXkXkXkXkXkXkXkXkXkXkXkXkXkXkXkXkXkXkXkXkXkXkXkXkXkXkXkXkXkXkXkXkXkXkXkXkXkX",
"2.H.#XiXuXpXp.kXkXkXkXkXkXkXkXkXkXkXkXkXkXkXkXkXkXkXkXkXkXkXkXkXkXkXkXkXkXkXkXkXkXkXkXkXkXkXkXkXkXkXkXkXkXkXkXkXkXkXkXkXkXkXkXkX",
"kXg.g.u.1.#X4X%XkXkXkXkXkXkXkXkXkXkXkXkXkXkXkXkXkXkXkXkXkXkXkXkXkXkXkXkXkXkXkXkXkXkXkXkXkXkXkXkXkXkXkXkXkXkXkX$X&XkX*X*XkXkXkXkX",
"kXkX7.0.9.,.3XuXV.kXkXkXkXkXkXkXkXkXkXkXkXkXkXkXkXkXkXkXkXkXkXkXkXkXkXkXkXkXkXkXkXkXkXkXkXkXkXkXkXkXkXkX3X3X&XiX3X&XiXpX3XC./ kX",
"kXkXkXD.~.v.L.K.M.r.kXkXkXkXkXkXkXkXkXkXkXkXkXkXkXkXkXkXkXkXkXkXkXkXkXkXkXkXkXkXkXkXkXkXkXkXkXkXkXkX&X5XdXsXsXyX:X4Xj.j.4X4X&XkX",
"kXkXkXw.D.W.~.9.u.M.r.kXkXkXkXkXkXkXkXkXkXkXkXkXkXkXkXkXkXkXkXkXkXkXkXkXkXkXkXkXkXkXkXkXkXkXkXkXC.uXuXsXH.oXoXg.g.H.-.-.n.@X@Xh.",
"kXkXkXkXq.D.~.c.3.V.Y kXkXkXkXkXkXkXkXkXkXkXkXkXkXkXkXkXkXkXkXkXkXkXkXkXkXkXkXkXkXkXkXkXkXkXkXN.N.1X-X;XC &.C 9.9.&.Q.~.6.B f K ",
"kXkXkXkXkXD.~.~.9.u.<.1.Y kXkXkXkXkXkXkXkXkXkXkXkXkXkXkXkXkXkXkXkXkXkXkXkXkXkXkXkXkXkXkXkXkXh.4Xf.Z C F.~.~.~.~.~.~.W.G.G.z.kXi ",
"kXkXkXkXkXD.~.~.!.U 9XiX$XU n kXkXkXkXkXkXkXkXkXkXkXkXkXkXkXkXkXkXkXkXkXkXkXkXkXkX=X$XkXkXr.<X$X:.!.~.Q.Q.!.!.~.~.~.8.kXd kXkXkX",
"kXkXkXkXkXq.P.rX^.& y pX=X&X2.kXkXkXkXkXkXkXkXkXkXkXkXkXkXkXkXkXkXkXkXkXkXkXkXkXm.dXa.kXkXV.4XT W.!.~.!.Q.~.!.!.~.l.s kXkXkXkXkX",
"kXkXkXkXkXkXx.rX/.: 1 I &X:XI kXkXkXkXkXkXkXkXkXkXkXkXkXkXkXkXkXkXkXkXkXkXkXkXkX. =Xd.y r.J.$X;.F.!.!.!.~.~.~.~.F.; kXkXkXkXkXkX",
"kXkXkXkXkXkXw.[.[.c.1.>XJ.u I kXkXkXkXkXkXkXkXkXkXkXkXkXkXkXkXkXkXkXkXkXkXkXkXkXw 2 r.J 2 v 9.!.!.!.~.~.~.~.{.].*.kXkXkXkXkXkXkX",
"kXkXkXkXkXkXkXD.{.`.<.C.r.Y b kXkXkXkXkXkXkXkXkXkXkXkXkXkXkXkXkXkXkXkXkXkXkXkXkXg b u.;  X-Xc.~.~.!.~.].[.[.`.=.kXkXkXkXkXkXkXkX",
"kXkXkXkXkXkXkX7.U.H ) A p.r.g.1.kXkXkXkXkXkXkXkXkXw kXkXkXkXkXkXkXkXkXkXkXkXkX>X@XY $Xy +Xy.V ~.!.~.].rXrXrXc.O kXkXkXkXkXkXkXkX",
"kXkXkXkXkXkXkX>.L.r -XV < 2.j.; kXkXkXkXkXkXkXS E kXkXkXkXkXkXkXkXkXkXkXkXkXkXi.3XC.&Xm.A / :.~.Q.'.[.rXrXrX&.kXkXkXkXkXkXkXkXkX",
"kXkXkXkXkXkXkXkXS.g.rXU.;.1.uXj kXkXkXkXkXkX# +Xg.kXkXkXkXkXkXkXkXkXkXkXkXkXkXJ ! $X&X&Xb S.G.].].{.rXrXrX/.9 kXkXkXkXkXkXkXkXkX",
"kXkXkXkXkXkXkXkX7._.rXrX_.3.fX1.kXkXkXkXkXkX` fX2.kXkXkXkXkXkXkXkXkXkXkXkXkXkXkXj #X&Xp.q.Q.^.{.rXrXrXrXP.z.kXkXkXkXkXkXkXkXkXkX",
"kXkXkXkXkXkXkXkXL.[.rXrX(.1.fXH.kXkXkXkXkXL hX,XU kXkXkXkXkXkXkXkXkXkXkXkXkXkXkXv >XoX,.F.Q.{.rXrXrXrXrX>.kXkXkXkXkXkXkXkXkXkXkX",
"kXkXkXkXkXkXkXkX).rXrXrX(.e.fXpX1 kXkXkXJ ,XfXB.kXkXkXkXkXkXkXkXkXkXkXkXkXkXkXkXU yXp.9.~.~.{.rXrXrXrXrXT kXkXkXkXkXkXkXkXkXkXkX",
"kXkXkXkXkXkXkXkX`.rXrXrX(.E dXaXF G H e i.iXpX2.kXkXkXkXkXkXkXkXkXkXkXkXkXkXkXkX%X%XY.l.~.^.[.{.rXrXrXrXR kXkXkXkXkXkXkXkXkXkXkX",
"kXkXkXkXkXkXkXkX}.rXrX[.b.r 4XsXfXfXD t &X&X-Xv kXkXkXkXkXkXkXkXkXkXkXkXkXkXkX|.fXU F.~.~._.rX[.rXrXrXI.0 kXkXkXkXkXkXkXkXkXkXkX",
"kXkXkXkXkXkXkXkXU.rXrXrXv.y <XfXfXaXsXdX&X*XM.v kXkXkXkXkXkXkXkXkXkXkXkXkXkXkXOXdXe G.^.[.rXrXrXrXrXrXq.kXkXkXkXkXkXkXkXkXkXkXkX",
"kXkXkXkXkXkXkXkXU.rXrX}.k aXfXfXfXgXfXfXiX$XM kXkXkXkXkXkXkXkXkXkXkXkXkXkXkXkXOXpXe G.].[.rXrXrXrXrX).* kXkXkXkXkXkXkXkXkXkXkXkX",
"kXkXkXkXkXkXkXkXU.rXrX0.-XfXfXfXgXfXdXdXiX$XJ kXkXkXkXkXkXkXkXkXkXkXkXkXkXkXkXOXe.; F.].rXrXrXrXrXrX).@ kXkXkXkXkXkXkXkXkXkXkXkX",
"kXkXkXkXkXkXkXkX`.{.rXn +XfXfXdX5XfXe.p.&X$X/ x kXkXkXkXkXkXkXkXkXkXkXkXkXt.hX@Xv c.~.{.rXrX[.rXrXrX).@ kXkXkXkXkXkXkXkXkXkXkXkX",
"kXkXkXkXkXkXkXY.[.^.^.j s.gXfX4XdXH.9X=X$X&XM.j kXkXkXkXkXkXkXkXkXkXkXkXkXt.hXa.Z ~.{.{.rXrXrXrX[.rX).@ kXkXkXkXkXkXkXkXkXkXkXkX",
"kXkXkXkXkXkXkX}.{.S.w.,.u.dXfXOX<X$XjX|.+X=Xm.# kXkXkXkXkXkXkXkXkXkXkXkXkXr.dXk.Z '.[.rXrXrXrXrXrXrX6.kXkXkXkXkXkXkXkXkXkXkXkXkX",
"kXkXkXkXkXkXkX0.S.K.u.m 2.dXfXM.i..X0XN.&X&Xy.  kXkXkXkXkXkXkXkXkXkXkXkXkX%XiX4.b.~.rXrXrXrXrXrXrXrXG.kXkXkXkXkXkXkXkXkXkXkXkXkX",
"kXkXkXkXkXkXkXs 5.5X4X#X>XgXgX1.u 7 ' |.&XN.V.h kXkXkXi kXkXkXkXkXkXkXh.uXdX,Xm z.W.W.*._.rXrXrXrXrX).- kXkXkXkXkXkXkXkXkXkXkXkX",
"kXkXkXkXkXkXkXkXu.sXfXfXfXgXfX%Xg.I d.$X&Xm.$XQ kXkXY 2.J kXkXkXkXkXr.<XdXiXD f :.*.0.B 6.8.8.9.[.[.).@ kXkXkXkXkXkXkX/ kXkXkXkX",
"kXkXkXkXkXkXkXkX^ aXfXfXfXgXfXfXiX7X7X&X7Xr.|.P & kXT &XE kXkXkXkX/ J.hXe.A w C 7.C 7.q.Z N N C /.rX[.9 kXkXkXkXkXkXyXh.kXkXkXkX",
"kXkXkXkXkXkXkXkXJ hXfXyX3XgXdX5X&X&X` P Q ~ $XQ ; E u.&Xt.X kXkXy.oXaXa.u ; ;.q.q.q.q.,.7.q.,.>.l.b.I.N kXkXkXkXu.3XpXM.kXkXkXkX",
"kXkXkXkXkXkXkXkXA 9XpXe.M.dX4X$X` ( < O X Q $XD k / &X&Xt.1 kXe.%XfXOXe q.q.q.,.,.-.M x Z M x x 9 8 p 0 kXkXkXU M.dXH.kXkXkXkXkX",
"kXkXkXkXkXkXkXkXA f.J.f.dXiXN.( % $ w v ; Q s.t &X<.V.%X2.g.fXgX<XaXA ;.,.C ! C c q   kX0 X kX          kXkX<.j.uXsXp.kXkXkXkXkX",
"kXkXkXkXkXkXkXkX+ ( V.=XsXN.h $ 5 ] l j : ( ` A &X*Xp.4XfXfXfXuX< 7.q.q.l = O kXkXkXkXkXkXkXkXkXkXkXkX  kXoXsXdX4XiXu.kXkXkXkXkX",
"kXkXkXkXkXkXkXkXv M.J.&Xm.. 4  .[ 5 % u j 2.e |.&XdXdXgXfXfXfX|.1 7.>.M   kXkXkXkXkXkXkXkXkXkXkXkXkXkXkXkXr.p.3X4XC.j kXkXkXkXkX",
"kXkXkXkXkXkXkXkXkXkX^ J.2 kX5 |  .[ [ 6 A ^ b *XiXfXfXgXfXfXgXh ! >.N kXkXkXkXkXkXkXkXkXkXkXkXkXkXkXkXkXkXkXp.$X&Xp.o kXkXkXkXkX",
"kXkXkXkXkXkXkXkXkXkXkX+ kXkX]  .%.#.@.{ V.T n >XgXfXgXfXfXfXj.R -.9 kXkXkXkXkXkXkXkXkXkXkXkXkXkXkXkXkXkXkXV.M.2.$X>   kXkXkXkXkX",
"kXkXkXkXkXkXkXkXkXkXkXkXkXkX{ %.wXE.$.W p.kXkXI fXfXfXfXfXfX3XR &.q kXkXkXkXkXkXkXkXkXkXkXkXkXkXkXkXkXkXkXV.$Xk Q - kXkXkXkXkXkX",
"kXkXkXkXkXkXkXkXkXkXkXkXkX|.O.%.wXwXX.2X5.kXkXS fXgXfXfXfXfXdXH.c f kXkXkXkXkXkXkXkXkXkXkXkXkXkXkXkXkXkXm.$XJ.Q m.> kXkXkXkXkXkX",
"kXkXkXkXkXkXkXkXkXkXkXkXkXK O.E.wXT.[ r.u.kXn ` 9XdXuXfXfXgXfXpXi.n v i i kXkXkXkXkXkXkXkXkXkXkXkXkXV.*X$X5.kXkX, . kXkXkXkXkXkX",
"kXkXkXkXkXkXkXkXkXkXkXkXs.XX#.wXo.#.A.B.^ kXy $X:XiXsXgXgXfXfXdX&X^ i Y Y n i j kXkXkXkXkXkXkXkXkXp.$X&X|.^ kXkXkXkXkXkXkXkXkXkX",
"kXkXkXkXkXkXkXkXkXkXkX|.y.qXT.O.+.} Z.N.e kX, 4X4X>XdXgXfXgXfXdXuXM.2.~ 2.~ W Y n v Y j f.2.M.u.t.V.&X&Xf.kXkXkXkXkXkXkXkXkXkXkX",
"kXkXkXkXkXkXkXkXkXkXkX9X2X} qXX.eX..2.r.  kX- d.dXpXgXgXgXfXgXgXiX&X$XJ ` r.5.` E K ^ ! J.$XV.&XV.&X&XJ.r.kXkXkXkXkXkXkXkXkXkXkX",
"kXkXkXkXkXkXkXkXkXkXkX6X0Xz z z 0X9X4Xy.  kXkXI fXfXfXfXfXgXgXdX&X&Xm.Y 2.` 2.` r.r./ C.&X&X&X&X&X$XV.~ kXkXkXkXkXkXkXkXkXkXkXkX",
"kXkXkXkXkXkXkXkXkXkXkX9 r.G 3 y M.3X3X/ kXkXkXe.pXfXdXfXfXfXgXsX&X&XT 2./ 2.` 5./ r.t.V.&X$X&X$X&X&Xp.v kXkXkXkXkXkXkXkXkXkXkXkX",
"kXkXkXkXkXkXkXkXkXkXkX  t.4XdXdXiX&X$Xj kXkXkXkXj.dXgXgXgXgXsX3X&X$X2.M.K ( ` 2.2.` m.&X&X*X&X&X$XJ.5.kXkXkXkXkXkXkXkXkXkXkXkXkX",
"kXkXkXkXkXkXkXkXkXkXkXkX( &X&X$X&X$Xp.+ kXkXkXkXP &XhXdXdXiX&X$X&XM.V.&XQ h 5.` 2./ p.$X&X&X$XV.C.` J kXkXkXkXkXkXkXkXkXkXkXkXkX",
"kXkXkXkXkXkXkXkXkXkXkXkX# m.V.V.|./ & kXkXkXkX<.A y.&X&X&X&X&X$X&X$X&X&XM., Q 2.` 2./ C.$X&XM.b v kXkXkXkXkXkXkXkXkXkXkXkXkXkXkX",
"kXkXkXkXkXkXkXkXkXkXkXkXkXe . . . o kXkXkXkXkX^ |.Y p.*X&X&X$X$X&X&X&X&X&X3 L / / / / 2.t.$X2.g kXkXkXkXkXkXkXkXkXkXkXkXkXkXkXkX",
"kXkXkXkXkXkXkXkXkXkXkXkXkXkXkXkXkXkXkXkXkXkXJ J.&XV.^ n C.$XM.Y J.&X&X$X&XK o o $ + . 1 kXU kXkXkXkXkXkXkXkXkXkXkXkXkXkXkXkXkXkX",
"kXkXkXkXkXkXkXkXkXkXkXkXkXkXkXkXkXkXkXkXkXkXJ *X&X&XM.^ U J n i h $X&X&X&XY X kXkXkXkXkXkXkXkXkXkXkXkXkXkXkXkXkXkXkXkXkXkXkXkXkX",
"kXkXkXkXkXkXkXkXkXkXkXkXkXkXkXkXkXkXkXkXkXkXJ *X$X&XV.` b kXkXkXkX- ` 7XV./ H kXkXkXkXkXkXkXkXkXkXkXkXkXkXkXkXkXkXkXkXkXkXkXkXkX",
"kXkXkXkXkXkXkXkXkXkXkXkXkXkXkXkXkXkXkXkXkXkXkXP 7X$X^ ! kXkXkXkXkXkX- h ^ ` / v kXkXkXkXkXkXkXkXkXkXkXkXkXkXkXkXkXkXkXkXkXkXkXkX",
"kXkXkXkXkXkXkXkXkXkXkXkXkXkXkXkXkXkXkXkXkXkXkX- 3 h ~ J kXkXkXkXkXkXkX1 ^ ` / U kXkXkXkXkXkXkXkXkXkXkXkXkXkXkXkXkXkXkXkXkXkXkXkX",
"kXkXkXkXkXkXkXkXkXkXkXkXkXkXkXkXkXkXkXkXkXkXkXkX< r ~ J kXkXkXkXkXkXkXM r.~ ~ Y kXkXkXkXkXkXkXkXkXkXkXkXkXkXkXkXkXkXkXkXkXkXkXkX",
"kXkXkXkXkXkXkXkXkXkXkXkXkXkXkXkXkXkXkXkXkXkXkXkX~ K j / 2 kXkXkXkXkXkXM ^ n b 2.M kXkXkXkXkXkXkXkXkXkXkXkXkXkXkXkXkXkXkXkXkXkXkX",
"kXkXkXkXkXkXkXkXkXkXkXkXkXkXkXkXkXkXkXkXkXkXkXkX^ j * y., kXkXkXkXkXkXkXH R n m.k kXkXkXkXkXkXkXkXkXkXkXkXkXkXkXkXkXkXkXkXkXkXkX",
"kXkXkXkXkXkXkXkXkXkXkXkXkXkXkXkXkXkXkXkXkXkXkXkX2.K kXh - kXkXkXkXkXkXkXh K kXK h kXkXkXkXkXkXkXkXkXkXkXkXkXkXkXkXkXkXkXkXkXkXkX",
"kXkXkXkXkXkXkXkXkXkXkXkXkXkXkXkXkXkXkXkXkXkXkXkXkXx kXkX  kXkXkXkXkXkXkXr 2 kX3 3 kXkXkXkXkXkXkXkXkXkXkXkXkXkXkXkXkXkXkXkXkXkXkX",
"kXkXkXkXkXkXkXkXkXkXkXkXkXkXkXkXkXkXkXkXkXkXkXkXkXkXkXkXkXkXkXkXkXkXkXkXkX  kXkX  kXkXkXkXkXkXkXkXkXkXkXkXkXkXkXkXkXkXkXkXkXkXkX",
"kXkXkXkXkXkXkXkXkXkXkXkXkXkXkXkXkXkXkXkXkXkXkXkXkXkXkXkXkXkXkXkXkXkXkXkXkXkXkXkXkXkXkXkXkXkXkXkXkXkXkXkXkXkXkXkXkXkXkXkXkXkXkXkX"
};
