/* XPM */
static char *result[] = {
/* columns rows colors chars-per-pixel */
"64 64 231 2 ",
"   c #1A0708",
".  c #230D0D",
"X  c #291413",
"o  c #371A19",
"O  c #25100F",
"+  c #39231E",
"@  c #2E221C",
"#  c #3C2722",
"$  c #3F3027",
"%  c #52171B",
"&  c #41211F",
"*  c #442321",
"=  c #492724",
"-  c #4C2925",
";  c #4B2B28",
":  c #542D2A",
">  c #512B27",
",  c #44352B",
"<  c #4A392F",
"1  c #48372D",
"2  c #59332E",
"3  c #4C3E32",
"4  c #4F3730",
"5  c #523D32",
"6  c #5A3934",
"7  c #673C36",
"8  c #60302D",
"9  c #374B1F",
"0  c #394D21",
"q  c #3E5424",
"w  c #3A5836",
"e  c #455B28",
"r  c #4F4134",
"t  c #534236",
"y  c #564439",
"u  c #5C4A3D",
"i  c #5A463A",
"p  c #565A32",
"a  c #4F552D",
"s  c #67463D",
"d  c #73433D",
"f  c #79453F",
"g  c #635D3B",
"h  c #4C652E",
"j  c #4D672D",
"k  c #526B2E",
"l  c #536C31",
"z  c #567131",
"x  c #5B7634",
"c  c #5E7935",
"v  c #4D6833",
"b  c #637C36",
"n  c #687B39",
"m  c #676C3B",
"M  c #3A644D",
"N  c #5E4F42",
"B  c #624E41",
"V  c #6B4D48",
"C  c #7D4B43",
"Z  c #774943",
"A  c #665244",
"S  c #6A5446",
"D  c #6C5648",
"F  c #6E584A",
"G  c #65564C",
"H  c #735B4C",
"J  c #78574A",
"K  c #735A51",
"L  c #7B6352",
"P  c #757544",
"I  c #73707C",
"U  c #50717F",
"Y  c #814D45",
"T  c #874E49",
"R  c #84524A",
"E  c #8A554D",
"W  c #875349",
"Q  c #94594F",
"!  c #92574E",
"~  c #8D5A51",
"^  c #8A5553",
"/  c #945D53",
"(  c #9A5E54",
")  c #874E51",
"_  c #876557",
"`  c #9A6057",
"'  c #9C645A",
"]  c #9D6B5D",
"[  c #956457",
"{  c #977956",
"}  c #89784E",
"|  c #A1655B",
" . c #A2695E",
".. c #AA675C",
"X. c #AA705E",
"o. c #9D6D64",
"O. c #9A7966",
"+. c #8C756F",
"@. c #A56B61",
"#. c #A96D64",
"$. c #A16F68",
"%. c #A57463",
"&. c #A97967",
"*. c #B7786B",
"=. c #B8756A",
"-. c #C2786D",
";. c #6C8339",
":. c #688638",
">. c #72853C",
",. c #758B3D",
"<. c #74963D",
"1. c #6D933B",
"2. c #7AA93E",
"3. c #788844",
"4. c #7B9543",
"5. c #6F8B4F",
"6. c #7CAB41",
"7. c #7EA644",
"8. c #6C9468",
"9. c #7BA571",
"0. c #89B53F",
"q. c #85B23F",
"w. c #82AF3E",
"e. c #858949",
"r. c #85974A",
"t. c #92944B",
"y. c #968A54",
"u. c #889754",
"i. c #959054",
"p. c #86A947",
"a. c #8BB543",
"s. c #87B345",
"d. c #91B052",
"f. c #928973",
"g. c #A7846D",
"h. c #A98B74",
"j. c #B88975",
"k. c #B9947B",
"l. c #AE8D72",
"z. c #93B466",
"x. c #A6B87A",
"c. c #A3BE4C",
"v. c #C38979",
"b. c #C3927C",
"n. c #A6C378",
"m. c #3777A5",
"M. c #3A7AA7",
"N. c #3D7A9D",
"B. c #717081",
"V. c #67738B",
"C. c #45769D",
"Z. c #897E82",
"A. c #3D86AE",
"S. c #758A98",
"D. c #6FA98B",
"F. c #589CBA",
"G. c #4391AC",
"H. c #6694AA",
"J. c #58ACB8",
"K. c #68B7A8",
"L. c #74A6B6",
"P. c #558389",
"I. c #3FACD5",
"U. c #3EA6CF",
"Y. c #48A7CB",
"T. c #4CB4CD",
"R. c #53B9C7",
"E. c #42ADD4",
"W. c #48AFD1",
"Q. c #45B2D5",
"!. c #4AB6D4",
"~. c #4DBBD3",
"^. c #49B9D8",
"/. c #53BBD3",
"(. c #63BFD3",
"). c #5AC3CB",
"_. c #53C2D1",
"`. c #58C5D0",
"'. c #988D84",
"]. c #B39A89",
"[. c #B3A592",
"{. c #BEB8A9",
"}. c #CA9A84",
"|. c #D49C88",
" X c #CDA489",
".X c #CAA88B",
"XX c #D3A38B",
"oX c #D6A78D",
"OX c #D7AC92",
"+X c #D9B696",
"@X c #CEAF91",
"#X c #E2AB95",
"$X c #E3BC9B",
"%X c #E5B49B",
"&X c #E0A28F",
"*X c #C4B9AB",
"=X c #E9BBA3",
"-X c #B4C892",
";X c #BDC9A5",
":X c #E5C29D",
">X c #E9C49E",
",X c #CBC6B9",
"<X c #C9CFB2",
"1X c #ECCAA3",
"2X c #EAC7A5",
"3X c #F1CDA6",
"4X c #F1CBAA",
"5X c #EDD2AE",
"6X c #F4D4AC",
"7X c #F5D7AD",
"8X c #EFD3B0",
"9X c #F3D5B2",
"0X c #F5DAB3",
"qX c #F9DDB4",
"wX c #F6DDBA",
"eX c #F9DFBB",
"rX c #F2CCB0",
"tX c #FAE3BB",
"yX c #F9E1B7",
"uX c #DAC09C",
"iX c #D1CDC1",
"pX c #D9D6CC",
"aX c #D7D5C8",
"sX c #DDDCD2",
"dX c #E1DED6",
"fX c #FAE4C1",
"gX c #FBE8C3",
"hX c #E5E2DC",
"jX c #E3E3D7",
"kX c #E1E2D5",
"lX c None",
/* pixels */
"lXlXlXlXlXlXlXlXlXlXlXlXlXlXlXlXlXlXlXlXlXlXlXlXlXlXlXlXlXlXlXlXlXlXlXlXlXlXlXlXlXlXlXlXlXlXlXlXlXlXlXlXlXlXlXlXlXlXlXlXlXlXlXlX",
"lXlXlXlXlXlXlXlXlXlXlXlXlXlXlXlXlXlXlXlXlXlXlX[ 6 d  .] ].qX$X%XOX%.@.| 6 7 [ lXlXlXlXlXlXlXlXlXlXlXlXlXlXlXlXlXlXlXlXlXlXlXlXlX",
"lXlXlXlXlXlXlXlXlXlXlXlXlXlXlXlXlXlXlXlXb./ ` @.d ^ @. .k.4X&X&XXX%.@.@.R Z @.( %.+XlXlXlXlXlXlXlXlXlXlXlXlXlXlXlXlXlXlXlXlXlXlX",
"lXlXlXlXlXlXlXlXlXlXlXlXlXlXlXlXlXlXoXOXOX%.` @.Z ( @.@.b.>X&X|. X&.@.@.~ C @.( k.7X2X#XlXlXlXlXlXlXlXlXlXlXlXlXlXlXlXlXlXlXlXlX",
"lXlXlXlXlXlXlXlXlXlXlXlXlXlXlXlXOX%X>X$X+Xl./ @.E ` @.@.j.2X&X|.}.=.@.@.[ ^ @.( +XyX0X3X%XoXlXlXlXlXlXlXlXlXlXlXlXlXlXlXlXlXlXlX",
"lXlXlXlXlXlXlXlXlXlXlXlXlXlXOX%X4X8X6X2X$X}.[  .' ] | ..j.4X#X|. X@.|  .' @. .o.6XtXqXwX6X$XXX}.lXlXlXlXlXlXlXlXlXlXlXlXlXlXlXlX",
"lXlXlXlXlXlXlXlXlXlXlXlXlX%X4XwXfXwXwX8X2XoX| | ( Q Q Q *.7X2X$X X| Q Q / ( ` k.tXtXfXfXeX9X2XXX}.lXlXlXlXlXlXlXlXlXlXlXlXlXlXlX",
"lXlXlXlXlXlXlXlXlXlXlXlX=X6XtXfXfX9X5X5X2X+Xg.( / / Q ( *.0X7X1X XX.( Q Q / / +XfXgXgXfXeX0X5X:X|.j.lXlXlXlXlXlXlXlXlXlXlXlXlXlX",
"lXlXlXlXlXlXlXlXlXlXV ].rXtXgXtXqX3X>X:X+X+Xk.Y Z d 7 d J g.g.O.[ d d s d C o.8XtXgXgXeXqX4X2X$XOX}._ lXlXlXlXlXlXlXlXlXlXlXlXlX",
"lXlXlXlXlXlXlXlXlX* ^ o.+XtXqX7X3X3X>X:X+Xl.J # o ; 7 C ^ ^ J E ~ E C 7 ; & ; +.uXyXwX7X3X1X$X+XOXh.' R # lXlXlXlXlXlXlXlXlXlXlX",
"lXlXlXlXlXlXlXlX/ d ^ =.&.+X7X4X3X3X$Xj.s + 2 C ' @.#.@.#.@.#.#.@.#.@.#...( Y : = H .X3X1X$X$XOXk.@.=.C Z lXlXlXlXlXlXlXlXlXlXlX",
"lXlXlXlXlXlXlXlX[ [ B ( -.*.$X6X4X@XH # 6 / X.#.@.@.@.$.$.o.o.o.o.o.o.@.@.@.#.#.~ 6 # _ %X2X$X}.#.-.~ d ` / lXlXlXlXlXlXlXlXlXlX",
"lXlXlXlXlXlXlX/ ` @.[ R #.#.*.:X].; : / @.#.+.Z.S.H.H.F.F.F.Y.F.L.R.F.F.H.V.Z.Z.O.@.^ = 5 ].oX#.#.@.Y ] @.` / lXlXlXlXlXlXlXlXlX",
"lXlXlXlXlXlX/ /  .@.@.R ' ` ..J * Z @.+.S.H.Y.E.E.I.I.I.I.I.E.E./.W.I.I.E.Q.E.Y.F.S.+.o.7 * E ..( ( E @.@. .Q lXlXlXlXlXlXlXlXlX",
"lXlXlXlXlXlX~ !  .@.@.[ / ( 7 o R +.S.Y.E.E.I.I.I.I.I.I.I.I.I.I.E.U.I.I.E.I.I.I.I.I.Y.L.+.Z o 7 / / ( @.@.| E ^ lXlXlXlXlXlXlXlX",
"lXlXlXlXlXOX}.&.( ( @.| / 8 o ~ B.F.I.I.U.E.I.I.I.I.I.I.I.I.I.I.E.E.I.I.E.E.I.I.I.I.E.E.E.H.K o 7 / @.@.' ` &.}.|.lXlXlXlXlXlXlX",
"lXlXlXlXlX#X%X2X.X] [ Q d X R B.M.E.E.E.E.E.I.I.I.I.I.I.U.I.I.I.I.I.I.I.I.I.I.I.I.I.I.I.I.U.F.G X Z ( ( &.+X1XoX|.lXlXlXlXlXlXlX",
"lXlXlXlX%X#X4X0X1XOXg.C o d I N.M.E.E.E.E.E.E.E.I.I.E.E.E.I.I.I.I.I.I.I.I.I.I.I.I.I.I.I.I.I.I.H.6 o [  X6XqX7X$X|.b.lXlXlXlXlXlX",
"lXlXlXlX%X=XwXwX6X$XOXs : +.C.m.M.E.E.E.E.E./.(.Q.Q.Q.Q.Q.I.Q.E.E.E.Q.E.Q.I.I.I.I.I.I.I.I.I.U.Y.I * +.qXqXwXeX5X|.v.lXlXlXlXlXlX",
"lXlXlXlX%X9XtXwX5X$Xk.+ R V.m.m.A.W.!.!.!.!.!./.Q.Q.Q.Q.Q.!.Q.Q.Q./.~.I.Q.^.I.I.T.T.I.T.I.Q.U.U.U Z < 2X0XeXfX8X#Xb.lXlXlXlXlXlX",
"lXlXlX#X=XfXtX6X>X+X_ - _ C.m.m.A.T.~.~.!.~.!.^.!.!.!.!.!.!.!.!.Q././.Q.Q.T.T.D.z.K.T.I.I.A.M M v L ; l.yXqXyXwX2X}.v.lXlXlXlXlX",
"lXlXlX=XrXfXwX4X2XOX5 d +.m.m.m.A.T.~.~.~.~.~.~.~.~.~.~.!.~.!.~.!.~.R.~.J.8.5.7.c.d.9.D.F.M q j j m d D 6X3X5X0XrX|.v.lXlXlXlXlX",
"lXlXlX=X0XtX0X1X$Xk.: ^ B.m.m.m.A.~.~.~.~.~.~.~.~.~.~.~.~.~././.K.D.8.D.8.>.c b r.q.k e w 0 q h h p [ 6 +X6X1X3X2XOXj.lXlXlXlXlX",
"lXlXB _ h.@X:X>X2XO.8 ( B.m.m.m.A.T._._._._./._._.~._._._.R.J.D.3.>.>.>.;.b b ;.:.:.9 9 q e h h 9 p ` 7 k.7X1X@Xl.] Z 7 lXlXlXlX",
"lXlX~ / E R J _ { s 7 | B.m.m.m.G._._._.`._._.`.`._./._.R.D.u.r.n ;.;.b b x x c j q e e e j h h q p ' d J { _ J J ~ / ~ lXlXlXlX",
"lXlX[ #.#. . .Q T : f ( B.m.m.m.A.`.`.`.`.`.).)._.`._.K.9.5.3.,.3.n x c x l q 9 0 e h h j v j j e a ] Z > ! Q | @.#. .( lXlXlXlX",
") ) Z Z d R W ! T > Y ( B.m.m.m.G.).).`.).D.9.9.K.K.D.u.r.b b ,.>.n b x z h 9 9 9 e h h j k z k j p ' C = E E E C Z Z C ) ! ^ ) ",
"T f 7 Z Y Q ( ! 7 = C ( I m.m.m.G.).).K.D.3.>.d.u.u.u.i.3.b ;.,.>.x z z z e 9 9 e j v j j x n b k m ] Y * f ! ` ~ R d 7 f f Y Y ",
"! %.j.v.v.j.g.=.Z - C ( B.m.N.m.G.K.K.9.>.b 3.r.u.5.;.u.4.3.p.4.>.b k c z e 9 9 e z l z z b n :.b n ] R & _ b.b.b.b.j.&...) ! ) ",
"v.#X4X0X5X:X+XoXD > Y ` B.m.N.C.8.u.u.b b b P u.4.c 1.u.3.:.,.4.,.n z z z x j 9 q k z n ;.b ;.;.b m ] R & h.yX7XqX7X3X%X}.#.@.E ",
"%X4XeXeX0X:XOXXXs : Y ` I N.P.5.n e.r.n ,.p.<.4.4.4.p.r.b x x ;.n c x c c c z 0 0 h z c x c >.n c m ] R * +.wX7XyXyX6X2XXXv.) 6 ",
"rXeXfXeX0X2X+X X: : C ` } 8.r.:.4.4.4.4.p.a.4.4.3.b :.3.3.3.3.3.>.b b n n n p 9 e j v k j l x z k m ' T * L 0X0XfXtXwX5X+X}.=.^ ",
"eXyXfXtX0X2XOX X= 2 Y ( } 1.4.3.7.4.3.b :.:.;.3.3.n >.} e.u.4.y.y.,.<.,.e.} a e j j j j j j j j h m ' W = B 0XyXfXtXwX8X2X.X*.[ ",
"tXyXeXeX8X2X+X}.+ 8 C o.} :.3.;.P e.3.>.3.} e.r.r.p.i.y.p.7.7.{ y.2.2.p.e.{ D q e j e j j p m h g L ] W - y wXyXeXtXwX8X2XOXv.#.",
"OXoX.X|.}.k.j.%.X 8 Y ( } 5.b n } 4.<.4.e.y.d.0.0.0.t.i.s.6.6.} y.w.q.p.e.%.d.1.j q e e p a [ F g g ] W > #  X X X}. X}.v.-.#.^ ",
"% % 6 Z Y R C 7 . 7 Y ( [.<X{.[.x.u.4.<.t.y.0.0.0.0.t.i.2.p.7.{ i.a.0.0.t.%.t.s.2.:.<.w.n } *.y.:.>.] W : . d Y E Y Z 2 % % % % ",
"=.=.| | #.#.| Y . 7 C ( [.pXpXdXpXiX<X[.x.l.a.a.a.0.t.i.6.6.6.{ i.a.a.0.t.%.a.0.a.a.a.a.i.y.*.d.1.,.] R : O T | #.#.( @.=.=.-.v.",
"=X=Xo.7 Z ) ! Z   6 C ( [.pXsXpXpXpXsXsXaX,X<X-X-Xz.y.i.2.6.7.{ i.0.a.0.t.X.d.0.a.a.a.a.d.{ *.i.<.n  .T : . Y / R C 7 h.=X=X9XqX",
"4X4Xk./ / / ' Z   8 C ' u.z.n.-X<XkXjXhXdXiX,XaXpXsXiX<Xn.z.r.[ d.p.w.w.e.X.p.w.s.0.a.a.s.{ *.u.<.,. .W : . T ( / / ( .XrX4X7X0X",
"9X9Xj.Y E ^ ^ d   2 Y ' y.6.6.6.6.z.-XaXhXpXaXiX,XaXdXjXhXkX<X*X[.d.2.2.} X.r.w.2.s.2.2.2.{ j.p.1.3. .W > . Z ~ ^ R R }.9XrXqX9X",
"9XOX&.o.g.g.g.J   2 C ` i.2.6.6.2.2.2.6.-XkXjXkXpXiXiXaXaXpXsXsXkXaX;Xn.{ &.p.6.6.6.6.6.r.{ j.t.2.3. .R ; O O.l.h.&.Q ] oXqX7X7X",
"9X=X%X4X9X3X2Xg.  : C ` y.6.6.6.s.2.6.6.6.-XhXhXhXpXiXiX,X,XiXiX<XkXhXhXaX*Xz.p.2.6.6.6.w.{ j.p.<.3.] R ; X @X7X6X1XoXv.}.0X7X9X",
"9X=X%X9X7X1X$XO.  : Y ` y.2.2.6.z.6.6.2.6.z.jXhXsXiXiXiX,X{.,XiXiXiXjXhXhXhXsX<Xz.6.2.6.<.' j.p.2.r.] W * O @X6X1X>X+Xv.|.7XqXqX",
"wX=X=XeX7X>X$X&.  : Y ` y.2.2.2.6.6.a.a.s.;XhXjXiXiXiXiXiX,X{.{.,XiXaXsXhXsXjXhXkX;Xd.2.r.| g.p.2.r.] R = O .X6X2X>X$Xb.|.eXtXtX",
"yX=X8XtXtX2X$Xg.  : f [ y.w.q.2.2.0.a.z.<XjXhXkX<XaXiXiX,X,X*X{.{.,X,XaXaXaXaXhXhXhXaXn.r. .l.p.2.p.] Y ; O @X6X3X>X$Xb.XXtXtXtX",
"yX=X0XgXfX9X$Xg.  2 Y ` t.0.0.d.a.n.;XkXhXhXkXaXiXaXiXiX,X,X<X*X{.,X,X,XaX,XaXhXhXhXhXjX[.X.j.p.<.} ] Y * O @X7X7X3X+X X|.yXtXtX",
"yX=X9XtXfX0X2Xg.  2 Y ` y.p.u.z.[.[.[.[.[.[.'.'.h.'.'.'.'.h.f.I I +.f.f.f.f.f.'.'.'.'.'.f._ ~ C Z f | Y * O +XwXtX0X2X X XtXtXtX",
"yX=X0XgXfX0X:Xh.  : f ' %.%._ L L H A G u G H H D D D H H D s i y t < r 6 5 4 5 y y t r t r s Y d C ] W # O uXtXyX8X>X XXXtXtXtX",
"yX2X0XfXyX7X>Xl.  : C ( #.o.K G N N t t r r s N y r r u u i y t s y t r t t < 3 y u y 3 r < 7 f 7 T ] Y & O +X0X7X>X+XXXXXyXtXtX",
"0Xh.h.k.l.g.g.H   > C [ #.o.N N 3 3 3 r r 3 1 3 3 r 3 , r r r , $ , r r 3 3 , 1 r 3 3 3 r 3 6 7 d T | Y & . g.h.l.g.g._ g.yXtXtX",
"8Xi + = % = & o   - C ` #.O.L K L H S S N A N B A s B N u A A s i u s u i y 5 5 5 5 5 3 3 < 5 7 d W  .Y &   & & = - - o H yXtXtX",
"0X#.! @.-.-.=.( . & C ` #.o.L L H F S A G S S H D H D F L H F F L H H L L _ L K H A i t t 3 < 7 C C | Y & . ..=.*.*...! l.yXtXtX",
"0X%.Q |  .@.| ! . * C [ #.^ G G u y 3 3 r 3 3 y r r r < r r r 3 y y r y B u t 5 y t r r r r < y d Z ' Y o X ( | #.@.` Q g.7X0X8X",
"0X%./ X.@.@.` T . * C ( #._ N y t y y r r 3 4 3 r r r , 3 r r r $ , r r 3 5 3 , < r r < 3 3 < 4 7 C ' Y o X W ` @.@. .Q *.6X8X9X",
"0X] ~ ` |  .( T X * C ( $.[ L L L H H F S S A A S S S S S S S S A s A A B y y y y y t t t 5 4 5 7 Y  .Y o o ! (  .` ` ^ &.8X8X9X",
"5XJ s Z T ^ / W X & C [ @.L L H D A B F L S S S F D F F D H H S S S S D H J g u s u u s i i y 3 6 Y  .Y o o ! Q ^ R Z 7 _ 5X8X9X",
"0X%.` @.@.@. .! o & C ( o.D A N y 3 1 , 3 r 3 3 , < r r r r r r r r r r r , < r 3 3 3 3 r 3 3 3 5 Y ' Y o o Q  .#.@.@.` &.8X8X9X",
"0X%.] @.@.@.@./ o & C / @.D N y p y y 1 r t t r , t t t t r < r t r t y r r t t 3 3 3 5 3 3 3 3 4 C ' C o = ( @.@.@.@.' j.8X8X8X",
"5XJ ^ @.@.@.@.` & & C ( o._ _ L L L F D D S S D D D S D F F D D D F F D D S D S B y t y t y t 3 4 Z ' Y X >  .@.@.@.@.R _ 5X9XrX",
"5XA > 7 Z C ~ ( = & C / [ K K F G A u u u B B B A u u A F D D H H u u A A A A A A A B N B u s u 5 i ( C o 2 [ ~ C Z 7 * J 8X8X8X",
"f.[ Q ` [ / ~ ` 2 # Z ( _ A N i y r r r $ $ 1 1 $ 1 r < < r $ r r r r r r 3 3 3 r 3 r 3 3 3 r 3 3 i ` Y o 7 ` ~ / [ ` / ~ L L L ",
"S Y E / / / / ~ 6 ; C / _ N t r r r r r r $ r r $ 1 $ r < r r < r r r r r r r r r r 3 r r r r 3 3 5 [ C + d / / / / / W J s N N ",
"D D D S S D 2 1 V B S H F A A A A A A A N A A A A @ @ u A A A A A A A A A A A A A S < u A A A S V A F F V A D D S S D S 5 D G D ",
"D D D D D D + y D D D S D D D D D D D D F A D F H @ $ A F D D D D F D D F D D D S F t < H F D D D D D D F S D S S S D D u r F D "
};
