/* XPM */
static char *result[] = {
/* columns rows colors chars-per-pixel */
"32 32 240 2 ",
"   c black",
".  c #010100",
"X  c #010101",
"o  c #020100",
"O  c #030200",
"+  c #060400",
"@  c #040404",
"#  c #060606",
"$  c #0A0801",
"%  c #0C0901",
"&  c #0D0A01",
"*  c #0E0B00",
"=  c #07080A",
"-  c #080809",
";  c #0C0C0A",
":  c #0C0C0C",
">  c #100C01",
",  c #130E01",
"<  c #191101",
"1  c #181201",
"2  c #191301",
"3  c #1A1201",
"4  c #1A1302",
"5  c #1B1302",
"6  c #1B1501",
"7  c #1F1802",
"8  c #0E0E10",
"9  c #0F1011",
"0  c #101010",
"q  c #101112",
"w  c #111112",
"e  c #111212",
"r  c #151515",
"t  c #181818",
"y  c #191919",
"u  c gray10",
"i  c #1B1B1B",
"p  c #1B1B1C",
"a  c #1D1D1D",
"s  c #1C1D1E",
"d  c #211900",
"f  c #251B00",
"g  c #251C01",
"h  c #271E01",
"j  c #261D02",
"k  c #2A1F00",
"l  c #2C2101",
"z  c #312502",
"x  c #332603",
"c  c #3F3103",
"v  c #362F1D",
"b  c #212122",
"n  c #272727",
"m  c #2C2C2C",
"M  c #2D2D2D",
"N  c #393939",
"B  c #38383A",
"V  c gray23",
"C  c #3C3C3C",
"Z  c #453404",
"A  c #544003",
"S  c #5B4505",
"D  c #674F05",
"F  c #685006",
"G  c #695006",
"H  c #6A5106",
"J  c #6C5206",
"K  c #705506",
"L  c #715606",
"P  c #725706",
"I  c #745806",
"U  c #755907",
"Y  c #7E6006",
"T  c #7F6107",
"R  c #7F6517",
"E  c #4B4228",
"W  c gray25",
"Q  c gray29",
"!  c #4B4B4B",
"~  c #565656",
"^  c gray34",
"/  c #7C6F49",
"(  c #646464",
")  c #656565",
"_  c #676767",
"`  c #676869",
"'  c #686868",
"]  c #6F6E6D",
"[  c gray43",
"{  c #6F6F6F",
"}  c #717171",
"|  c gray47",
" . c gray50",
".. c #806007",
"X. c #816206",
"o. c #806207",
"O. c #846507",
"+. c #856507",
"@. c #916E05",
"#. c #9C7707",
"$. c #9A7608",
"%. c #9D7709",
"&. c #9B770C",
"*. c #9E7809",
"=. c #9D790F",
"-. c #A37C09",
";. c #867132",
":. c #807B6E",
">. c #A98009",
",. c #AE8409",
"<. c #B58B09",
"1. c #B48A0A",
"2. c #B78B0A",
"3. c #B68C0A",
"4. c #B68C0B",
"5. c #BA8E0A",
"6. c #C1940B",
"7. c #C5960B",
"8. c #CB9B0B",
"9. c #CE9C0B",
"0. c #CF9E0B",
"q. c #CF9F0B",
"w. c #D09E0B",
"e. c #C49710",
"r. c #D0A00B",
"t. c #D1A00B",
"y. c #D3A00C",
"u. c #D5A30C",
"i. c #D6A40C",
"p. c #D7A40C",
"a. c #D9A60C",
"s. c #DBA70C",
"d. c #DEA90C",
"f. c #DEAA0C",
"g. c #E3AD0D",
"h. c #E5AE0C",
"j. c #E5AF0C",
"k. c #E5AF0D",
"l. c #EFB60D",
"z. c #F4BA0D",
"x. c #F6BB0D",
"c. c #FABF0E",
"v. c #F9C00E",
"b. c #FBC00E",
"n. c #FFC20D",
"m. c #FFC30D",
"M. c #FEC10E",
"N. c #FDC20E",
"B. c #FEC20E",
"V. c #FFC20E",
"C. c #FEC30E",
"Z. c #FFC30E",
"A. c #FFC20F",
"S. c #FFC30F",
"D. c #FFC70C",
"F. c #FFC40E",
"G. c #FFC50E",
"H. c #FFC60E",
"J. c #FFC70E",
"K. c #FEC210",
"L. c #FFC211",
"P. c #FFC311",
"I. c #FFC313",
"U. c #FFC410",
"Y. c #FFC411",
"T. c #FFC611",
"R. c #FFC414",
"E. c #FFC614",
"W. c #FFC615",
"Q. c #FFC416",
"!. c #FFC919",
"~. c #C2A448",
"^. c #FFD24E",
"/. c #FFD65E",
"(. c #FFD96A",
"). c #FFDA6F",
"_. c #E1C571",
"`. c #FFDC77",
"'. c #FFDF7E",
"]. c #808080",
"[. c #808081",
"{. c #898989",
"}. c gray57",
"|. c gray58",
" X c #A2A2A2",
".X c gray64",
"XX c gray65",
"oX c #ABABAA",
"OX c gray67",
"+X c #ACACAC",
"@X c gray68",
"#X c #B6B6B6",
"$X c gray",
"%X c #FDE396",
"&X c #FFE496",
"*X c #FFE497",
"=X c #FEE49B",
"-X c #FFE69B",
";X c #FFE8A0",
":X c #FFE8A2",
">X c #FFE9AA",
",X c #FFEAAA",
"<X c #FFEDB6",
"1X c #FFEEBD",
"2X c #C1C1C1",
"3X c #C3C3C3",
"4X c #C6C5C1",
"5X c #C4C4C3",
"6X c gray77",
"7X c #C5C5C5",
"8X c gray79",
"9X c #CACACA",
"0X c #D2D2D2",
"qX c #D5D5D5",
"wX c #D7D7D7",
"eX c #D8D8D8",
"rX c #DDDDDD",
"tX c #FFF3D0",
"yX c #FEF3D3",
"uX c #FFF5D9",
"iX c #FFF6DB",
"pX c gray89",
"aX c #E4E4E4",
"sX c gray90",
"dX c #E6E6E6",
"fX c gray92",
"gX c gray93",
"hX c gray94",
"jX c #F1F1F1",
"kX c gray95",
"lX c #F8F8F8",
"zX c #F9F9F9",
"xX c #FBFBFB",
"cX c gray99",
"vX c #FDFDFD",
"bX c #FDFEFF",
"nX c #FEFEFE",
"mX c #FEFFFF",
"MX c white",
"NX c None",
/* pixels */
"NXNXNXNXNXNXNXNXNXNXNXNXNXNXNXNXNXNXNXNXNXNXNXNXNXNXNXNXNXNXNXNX",
"NXNXNXNXNXNXNXNXNXNXNXNXNXNXNXNXNXNXNXNXNXNXNXNXNXNXNXNXNXNXNXNX",
"NXNXNXNXNXNXNXNXNXNXNXNXNXNXNXNXNXNXNXNXNXNXNXNXNXNXNXNXNXNXNXNX",
"NXNXNXNXNXNXNXNXNXNXNXNXNXNXNXNXNXNXNXNXNXNXNXNXNXNXNXNXNXNXNXNX",
"NXNXNXNXNXNXNXNXNXNXNXNX                  NXNXNXNXNXNXNXNXNXNXNX",
"NXNXNXNXNXNXNXNXNXNXNXNX1 4 4 4 4 4 4 4 2 NXNXNXNXNXNXNXNXNXNXNX",
"NXNXNXNXNXNXNXNXNX    O +.t.0.q.q.q.0.r.5.j       NXNXNXNXNXNXNX",
"NXNXNXNXNXNXNXNX% & % > =.!.E.F.F.F.F.H.g.x $ & % NXNXNXNXNXNXNX",
"NXNXNXNXNXNX    H 3.<.4._.1X).V.n.V.V.V.x.6.1.3.%.3   NXNXNXNXNX",
"NXNXNXNXNXNX    o.H.T.W.;XMX-XR.P.V.V.V.V.F.G.J.y.5   NXNXNXNXNX",
"NXNXNXNXNXNX    T U.(.>XiXMXuX,X`.I.V.V.V.V.V.F.w.5   NXNXNXNXNX",
"NXNXNXNXNXNX    Y Y.:XMXMXMXMXMX<XQ.n.V.V.V.V.F.w.<   NXNXNXNXNX",
"NXNXNXNXNX6 G L 2.S./.*XyXmXtX&X(.I.V.V.V.V.V.Z.h...K Z NXNXNXNX",
"NXNXNXNX  7 u.Z.B.V.V.L.=XbX%XK.B.B.B.V.V.V.V.V.V.B.v.D     NXNX",
"NXNXNXNX  7 i.F.V.V.V.A.^.'.~.U I P -.c.V.V.V.V.V.Z.b.D     NXNX",
"NXNXNXNX  7 a.J.Z.V.V.V.m.D.@.      A c.G.V.V.V.V.G.C.F     NXNX",
"NXNXNXNX  , O.*.9.V.V.M.7.#.;.' ' ` / &.,.z.Z.Z.l.>.$.c     NXNX",
"NXNXNXNX    O o X.G.F.N.J   ] zXxXMXoX; z k.G.G.p.d o .     NXNX",
"NXNXNXNX  @ p b R f.d.s.S   [ vXMXMX+X= h 8.k.j.e.v s :     NXNX",
"NXNXNXNX  y #XrX:.f g g *   [ nXMXMX@X- + h l k E 4XqX^     NXNX",
"NXNXNXNX  a 8XkX[.9 q q e 0 } fXgXhXXXu w q q 8 B eXgX)     NXNX",
"NXNXNXNXNXNXN C  .5X3X3X3X7X{.C V N _ $X6X3X3X6XOXQ V M NXNXNXNX",
"NXNXNXNXNXNX     .MXMXMXMXMX|.# @ X ~ lXMXMXMXMX0Xt   NXNXNXNXNX",
"NXNXNXNXNXNX    ].MXMXMXMXMXwX.X.X X2XxXMXMXMXMX0Xi   NXNXNXNXNX",
"NXNXNXNXNXNX    | aXaXpXjXMXMXMXMXMXMXMXzXdXpXsX$Xi   NXNXNXNXNX",
"NXNXNXNXNXNXNXNXn M M m }.MXMXMXMXMXMXMXqXW m M m NXNXNXNXNXNXNX",
"NXNXNXNXNXNXNXNXNX      | cXvXcXcXcXcXMX9Xr       NXNXNXNXNXNXNX",
"NXNXNXNXNXNXNXNXNXNXNXNX! { [ [ [ [ [ { ( NXNXNXNXNXNXNXNXNXNXNX",
"NXNXNXNXNXNXNXNXNXNXNXNXNX                NXNXNXNXNXNXNXNXNXNXNX",
"NXNXNXNXNXNXNXNXNXNXNXNXNX                NXNXNXNXNXNXNXNXNXNXNX",
"NXNXNXNXNXNXNXNXNXNXNXNXNXNXNXNXNXNXNXNXNXNXNXNXNXNXNXNXNXNXNXNX",
"NXNXNXNXNXNXNXNXNXNXNXNXNXNXNXNXNXNXNXNXNXNXNXNXNXNXNXNXNXNXNXNX"
};
