/* XPM */
static char *result[] = {
/* columns rows colors chars-per-pixel */
"64 64 104 2 ",
"   c #A1BD57",
".  c #A1BE57",
"X  c #A1BD58",
"o  c #A1BF58",
"O  c #A0BE58",
"+  c #A1BE58",
"@  c #A0BC57",
"#  c #A0BD57",
"$  c #A0BD58",
"%  c #A2BE57",
"&  c #A2BE58",
"*  c #A0BC58",
"=  c #A1BC57",
"-  c #A1BC58",
";  c #94B351",
":  c #87A94B",
">  c #8DAE4D",
",  c #A0BC56",
"<  c #9CB954",
"1  c #88AB4B",
"2  c #95B451",
"3  c #95B452",
"4  c #87AA4B",
"5  c #8EAF4E",
"6  c #86A94A",
"7  c #709840",
"8  c #7BA145",
"9  c #9EBB56",
"0  c #A2BD57",
"q  c #97B552",
"w  c #739B42",
"e  c #799F44",
"r  c #9DBA55",
"t  c #7AA045",
"y  c #719941",
"u  c #719940",
"i  c #7DA246",
"p  c #9FBC56",
"a  c #93B350",
"s  c #749C42",
"d  c #729A41",
"f  c #84A84A",
"g  c #9AB854",
"h  c #7CA146",
"j  c #759C42",
"k  c #80A548",
"l  c #9FBB56",
"z  c #9CBA55",
"x  c #719A41",
"c  c #7EA346",
"v  c #99B753",
"b  c #8AAC4C",
"n  c #8FAF4E",
"m  c #789E44",
"M  c #9BB854",
"N  c #7FA347",
"B  c #709940",
"V  c #7CA145",
"C  c #9CB955",
"Z  c #779E43",
"A  c #91B14F",
"S  c #8CAD4D",
"D  c #83A749",
"F  c #92B250",
"G  c #91B150",
"H  c #85A84A",
"J  c #9EBB55",
"K  c #80A447",
"L  c #789F44",
"P  c #96B552",
"I  c #8DAE4E",
"U  c #7EA347",
"Y  c #9FBC57",
"T  c #90B04F",
"R  c #749B42",
"E  c #9BB955",
"W  c #82A648",
"Q  c #88AA4C",
"!  c #93B250",
"~  c #97B652",
"^  c #98B653",
"/  c #779E44",
"(  c #769D43",
")  c #9BB954",
"_  c #A3BE58",
"`  c #81A548",
"'  c #8FB04F",
"]  c #80A448",
"[  c #84A749",
"{  c #93B351",
"}  c #89AB4C",
"|  c #88AA4B",
" . c #94B451",
".. c #86A94B",
"X. c #8BAD4D",
"o. c #7FA447",
"O. c #83A649",
"+. c #759C43",
"@. c #7CA246",
"#. c #97B653",
"$. c #98B753",
"%. c #9FBD57",
"&. c #A2BD58",
"*. c white",
/* pixels */
"                                                                                                                                ",
"                                                                                                                                ",
"                                                                                                                                ",
"                                                                                                                                ",
"                                                                                                                                ",
"                                                                                                                                ",
"                . .                             . .             .                                                               ",
"                        . .             X . . o O + + + O X . . .   X     . .         . .     . .   .                           ",
"                @ #     # . .     . + + . + o + + O + O O + . +   # + X X $ + %   $ . .     . .                                 ",
"                  @ @   @ #       + & # # + + X $ O + X $ X X X # @ # #   X * X + + # @ # # = # @ @ - X                         ",
"                    @   @ @ # . . $ # @ @ $ # # @ # @ @ @ @ @ @ @ @ @ @ @ @ @ @ # #   = @ @ @ @ @ @ @ # X .                     ",
"                  # @ @ @ @ @ $ $ @ @ @ @ @ @ @ @ @ @ =               @ @ @ @ @ @ @ @ @ @ @ @ @ @ @ @ @ $                       ",
"                * @ @ @ @ @ @ @ @ @                                     @ @ @ @ @ @ @ @ @ @ @ @ @ @ @ @ @                       ",
"                  * @ @ @ @   # @ @ @   *                                     @ @ @ @ @               @ @                       ",
"                  @ # @ @     # @ @ @ @ * # # @ @ @ @ @ @ @   = = @ @               #     @ @ @ @ = @ @ @                       ",
"                    # #     @ @ @ @ @ @ @ @ @ @ @ @ @ @ = $ @ @ @ * @ @ @ @ @ = @ =   @ @ @ @ @ @ @ @ @ @                       ",
"                    # #     @ @ @ @ @ @ @ @ @ * $ @ @ # # @ @ @ @ @ @ @ @ @ @ @ @ @ @ @ * @ @ @ =   @ @ @                       ",
"                    # #     @ @ @       @ @ @ X X @ * @ @ @ @ @ @ @ @ # # X # # @ @     * @ @ @ = @ @ @ @                       ",
"                    * @     @ @ @                                                         * @ @ = @ @ @ @                       ",
"                    * @     @ @ @                                                             #   @ @   @                       ",
"                    @ @   @ @ @ $                                                             * - @ =   @                       ",
"                    # @ @ @ @ @ .         ; : > ,     < 1 2             3 4 4 5 @             * * @ =   @                       ",
"                      @ @ @   @ #       , 6 7 8 9   0 q w e ; r       2 t y u i p             * @ @ =   @                       ",
"                      # @ @   @ #     % a s d f p     g h d j k l   z 8 x d y c p             @ @ @ =   @                       ",
"                    # # # @   @ #       v 1 b r       0 n d y h 9 0 < m d d y c p         . X @ # @ =   @                       ",
"                    @ $ @ @   @ #         0   p         M N B V 9   C t y x Z A             * @ @ @ =   @ #                     ",
"                    * $ @ @   @ #           r 4 g       0 S t D l   # F h 8 G     C v     @ * @ @ @ =   @ X                     ",
"                  X - - @ @   @ #           r e H         p J l     0   9 9 #   g K L F   @   @ @ @ =   @ X                     ",
"                # # # # @ @ @ @ #           r e e 2         @ , P : : : 4 q 0 % I x y U Y @   @ @ @ =   @ $ .                   ",
"              = @ @ @   # @ @ @ #           r e y e q 0   @ 4 c e y u B B 5 % % T R y h E @ @ @ @ @ =   @ # .                   ",
"            @ # = @ @ @ @ @ @ @ @ X         9 W d d F %   , U u y d h K K ; 0   p b j d Q * @ @ @ @ =   @ # .                   ",
"              # @   @ @ @ @ @ @ @ $         0 P s d ! %   , N y t 4 v   ~ ^       9 i u H * @ @ @ @ =   @ # .                   ",
"              @ @   @ @ @ @ @ @ @ # $       0 P / ( ; %     2 T q     % I V 6 )   @ ; T ~     @ # @ =   @ # .                   ",
"            = @ @ @ @ @ @ @ @ @   @   .     ^ H P v 9     % & _ %     % I y d ` M   0 %       @ # @ =   @ @                     ",
"            @ @ @ @ @ @ @ @ @     # #     # W 8 l %     M T T ' P     % I d d d 4             @ @ @ = = @ @                     ",
"            * # @   @ @ @ @       @ @     ! Z V 9     M ] d d x H     % 5 d d y 6             @ @ @ @ = @ @                     ",
"              * @   @ @ @       @ @ =   0 1 B V 9   9 ` d d ( c ^       z K y y 6               Y @ @ = @ @                     ",
"              * * @ @ @ @   @ @ @ @ =   0 1 y [ p   3 Z y d T r       % % > s B H             # @ @ @ = @ @                     ",
"                @ # @ @ @   @ @ # @ @     { } C   @ ` y t | g %     9 5  ., 5 ..F             = = @ @ =   @                     ",
"                    #   @ @ @ # @ @       A H g   @ H X.~       @ 5 o.w 4     0 , I 6 9       * - @ =   @ @                     ",
"                    #     @ @ # @ @     0 I w N g   C @ 0     , I j / O.)     % G s c r       * @ @ =   @ #                     ",
"                . # @ @   # @ @ @         p b R H           0 ^ +.@.#.p       r D i v         * @ @ =   @ #                     ",
"              . X $ @ @   # @ @             r t [             z S #.          < S $.          $   @ =   @ # .                   ",
"              # # $ @ = # # # . . . . . . . # P v . . . . . . X + X $ . . . . . %             X   @ =   @ @                     ",
"              @ @ #   = @ $ $ O . . . . . . O + X $ $ $ $ + + $ $ # $ $ X   .   X +       . + X   @ =   @ @ $                   ",
"              @ @ @     @   + $ # # # * @ # @ @ @ * * * * = # @ # # %.# = X X + $ + + & &.& &   @ @ @ = @ @ $                   ",
"              @ #   @   @ @ # #   @ @ @ @ @ @ @ @ @ @ @ @ @ @ @ @ @ @ @ @ @ @   # # .   = = @ @ @ @ @ = @ @ #   .               ",
"            * @ @ @ @     @ @ @ @ @ @ @ @ @ @ @ @ @ @ @ @ @ @ @ @ @ @ @ @ @ @ @ @ @ @ @ @ @ @ @ @ @ @ =   @ #   . .             ",
"            * @ @ @ @ @     @ @ @ @ @ @ @ @ @ @ @ @ @ @ @ @ @ @ @ @ @ @ @ @ @ @ @ @ @ @ @ @ @ @ @ @ @ =   @ @ @   .             ",
"              @ @ # # @ @ @ @ @ @ @ @ @ @                                   @ @ @ @   @ @ @   @ @ @ @ =   @ @ @ @               ",
"                  # @ @ @ @ @ @ @ @ @ @ @ @ @ @ @ @ @ @ @ @ @ @ @ @ @ @           @   @ @ @   @ @ @ @ =   @     @               ",
"                  @ @ @ @ @ @ @ @ @ @ @ @ @ @ @ @ @ @ @ @ @ @ @ @ @ @ @ @ @     @ @ @ @ @     @ @ @ @ = @ @                     ",
"                  @ @ @ @ @ @ @ @ @ @ @ @ @ @ @ @ @ @ @ @ @ @ @ @ @ @ @ @ @ @ @ @ @ @ @ @     @ @ @ @ @ @ @ @ @                 ",
"                                  @ @ @ @ @ @ @ @ @ @ @ @ @ @ @ @ @ @ @ @ @ @       @ @   @ @ @   @     @ @ # @ *               ",
"                                                                                  @ @ @ @ @ @   @     @ @   X * *               ",
"                * @ #                                                         @ @ @ @ @ @         @ @ @ @ @ @ @                 ",
"                    @ @ @ @ @ @ @ @ = = @ @ @ @ @ @ @ @ @ @ @ @ @ @ @ @ @ @   @ @ @ @     @     @ @ @ @ @ @                     ",
"                          = @ @ @ @ @ @ @ @ @ = @ @ @ @ @ @ Y Y @ @ @ @ @ @ @ @ @ =         @ @ @ @ @ @ #                       ",
"                                          @ = # * * = = = = @ @ = = = = = * = = = @ @ @   @ @ @   @ @ #                         ",
"                                                                                  @ # @ @ @ @ = = @ # # @ @                     ",
"                                                                                    * @ =   @ * @ @ # @                         ",
"                                                                                        .   @ *                                 ",
"                                                                                                                                ",
"                                                                                                                                "
};
