/* XPM */
static char *result[] = {
/* columns rows colors chars-per-pixel */
"64 64 112 2 ",
"   c #736B18",
".  c #7B691A",
"X  c #687615",
"o  c #785E24",
"O  c #88572C",
"+  c #826128",
"@  c #9E6827",
"#  c #95663F",
"$  c #A3603C",
"%  c #A96539",
"&  c #AD783B",
"*  c #B97232",
"=  c #967541",
"-  c #4E8401",
";  c #518703",
":  c #528805",
">  c #558B09",
",  c #5A910F",
"<  c #5E8511",
"1  c #5B8E10",
"2  c #5C9312",
"3  c #5F9813",
"4  c #638C19",
"5  c #639C17",
"6  c #629519",
"7  c #639A1B",
"8  c #6A9C1D",
"9  c #67A01B",
"0  c #669E21",
"q  c #689F22",
"w  c #7E8D36",
"e  c #69A124",
"r  c #6DA52A",
"t  c #6CA829",
"y  c #70A72D",
"u  c #71A92E",
"i  c #7DAB2D",
"p  c #75B02C",
"a  c #78A135",
"s  c #74AC33",
"d  c #7CAB3B",
"f  c #77B037",
"g  c #79B137",
"h  c #7BB43C",
"j  c #7FBA3A",
"k  c #7EB740",
"l  c #7FB842",
"z  c #82AA2A",
"x  c #80B736",
"c  c #80BD39",
"v  c #CC8B2D",
"b  c #CF8E30",
"n  c #E2A62B",
"m  c #889443",
"M  c #869943",
"N  c #8B9942",
"B  c #85A643",
"V  c #88A342",
"C  c #84AC43",
"Z  c #82B444",
"A  c #81BA44",
"S  c #85BD48",
"D  c #89BE48",
"F  c #87C244",
"G  c #8AC543",
"H  c #8BC845",
"J  c #87C148",
"K  c #8AC34B",
"L  c #8DC94D",
"P  c #93C74A",
"I  c #9AC54C",
"U  c #93CC4C",
"Y  c #93D14D",
"T  c #8FC650",
"R  c #93CC52",
"E  c #99CF51",
"W  c #99CF58",
"Q  c #95D353",
"!  c #9AD555",
"~  c #9AD957",
"^  c #9BD25A",
"/  c #9DDC59",
"(  c #BECE4E",
")  c #A3CD57",
"_  c #A4CF5A",
"`  c #A0D55E",
"'  c #AED55E",
"]  c #A0DE5C",
"[  c #BBD154",
"{  c #A1E25D",
"}  c #A6DA63",
"|  c #AADE67",
" . c #AADE68",
".. c #A5E361",
"X. c #A8E563",
"o. c #ADE867",
"O. c #AEE16A",
"+. c #AFE969",
"@. c #B1E56C",
"#. c #B3EA6D",
"$. c #B7E971",
"%. c #BAED74",
"&. c #BDF276",
"*. c #BFF179",
"=. c #D5D652",
"-. c #F5DB4D",
";. c #C5DF67",
":. c #CADC60",
">. c #CEE56D",
",. c #D8EB73",
"<. c #C1F37B",
"1. c #E3E564",
/* pixels */
"A A A A A A A A A A A A A A A A A A A A A A A A A A A A A A A A A A A A A A A A A A A A A A A A A A A A A A A A A A A A A A A l ",
"S A A A A A A A A A A A A A A A A A A A A A A A A A A A A A A A A A A A A A A A A A A A A A A A A A A A A A A A A A A A A A A A ",
"r k A A A A A A A A A A A A A A A A A A A A A A A A A A A l l l l A A A A l A A A A A A A A A A A A A A A A A A A A A A A A A A ",
"> u A A l k A l l A A A l k A A A h A A A A A A A A A A A A K K J A A A A A A A A A A A A h h A A A A A A A A A A A A A A A A A ",
"h 2 s S r 3 S l A A A S r 6 A A k 2 s A A A A A A A A A k R %.$./ J S l A l S l A A A A A s 2 k A A A A A A A A A A A A A A A A ",
"A > s r 0 s A A A A A A f q q k 7 e h A A A A A A A A A A S } <...Q J l K ^ O.| S A A A A h e 7 k A e r A A A A A A A A A A A A ",
"A 8 f 7 3 S l A A A A A A y > h - h A A A A A A A A A A A h s I / ] K J Q o.*. .S A A A A S f > h s 7 s A A A A A A A A A A A A ",
"A A A 0 0 l A A A A A A A s 2 h 2 h A A A l A A l A A A A s : > L / J Y ] ..} h A A A A A A f , h , r S A A A A A A A l A A A A ",
"A A A k k A A A A A A A A l k l h l A A A A A A A A A A A j u ; , j S L ] H , , h l A A A A l h A > u S A A A A A A A A A A A A ",
"A A A A A A A A A A A A A A A l A A A A A A A A A A A A A S l r t h l K j 3 ; t l S A A A A A S A u h A A A A A A A A A A A A A ",
"A A A A A A A A A A A A A A A A A A A A A A A A A A l A A A A S S S S l u 3 e A A A A A A A A A A A A A A A A A A l l k A A A A ",
"A A A A A A l A A A A A A A A A A A A A A A A A A A A A A A A A l l l S A A l A A A A A A A l A A A A A A A A A A S K K S l A A ",
"A A A A A A A A A A l A A A A A A A A A A A A A A A A A A A A l l l l A A A A A A A A A A A A A A A A A A A A A A Q @.%.} l A A ",
"A A A l A A A A A A A A A A A A A A A A A A A A A A A A A A A A l S A A A A A A A A A A A A A A A A A A A A A A Q / <.@.K l A A ",
"A A A A A A A A A A A A A A A A A A A A A A A A A l A A A A A A A l A A A A A A A A l A A A A A A A A A A A A A / { ! g s A A A ",
"A A A A A A A A A A A A A A A A A A A A l h A A A A A A A A A A l S A A A A A A A A A A A A A A A A A A A A A S ~ Q 7 - q A A A ",
"A A A A A A A A A A A A A A A Z l A A S r 6 l A A A A A A A A A A A l A A A A A A A A A A A l A A A A A A A A A S 3 - 0 k A A A ",
"A A A A l A A A l A A A A A A A A A A A f e e l A A A A A A A A A A A A A A A A A A A A A A A A A A A A A A A A A r r h S A A A ",
"A A A A A A A A A A A A A A A A A A A A S u > l A A A A l A A A A A A A A A A A A A A A A A A A A A A A A A A A A S A A A A A A ",
"A A A A A A A A A A A A A A A A A A A A A s 2 l A A A l A A A A A A A A A A A A A A A A A A A A A A A A A A A A A A A A l A A A ",
"A A A A A A A A A A A A A A A A A A A A A l h A A A A Z A A A A A A A A A A A A A A A A A A A A A A A A A A A A A A A A A A A A ",
"A A A A A A A A A A A A A A A A A A A A A A A A A A A A A A A A A A A A A A A A l l l l A A A A A A A A A A l k l A A A A A A A ",
"A A A A A A A A A A A A A A A A A A A A A A A A A A A A A A A A A A A A A A A l K W W T A A A l j A A A A S L W W S l A A A A A ",
"A A A A A k A A A A A A A l A A A A A A A A A A A A A A A A A A A A A A A A A J / %.*.W l A A K K S A A A L ..*.%.K l A A A A A ",
"A A A A A A A A A A A A A A A A A A A A A A A A A A A A A A A A A l A A A l J / ] &.! S l l K $.$.] K l L / ..%.T A l A A A A A ",
"A A A r r S A A A A A A A A A A A l A A A l A A A A A A A A A A A A A A A A K / { j 6 u A A S } <.X.Q K L { ~ i 6 h S A A A A A ",
"A A A r 7 s A A A A A A A A A A A A A A A A A A A A A A A A h u l A A A A A S R j : > s S l k r U / { L K Y u - 2 h A A A A A A ",
"A A A A e 2 A A A A A A A A l A A A A A A A A A A A A A A A h > h A A A l A l j 1 > s A l S f > ; G ~ L l s > , k A A A A A A A ",
"A A A A q 2 A A A A A A A A A A A A A A A A A A A A A A A A f > k A A A A A A l h h k A A A A s > > f S A k h h A A A A A A A A ",
"A A A A h s A A A A A A A A A A A A l A A A A A A A A A A A h u l A l A A A l S A A A A A A A l t r h A A A A A A A A A l A A A ",
"A A A A A A A A A A A A A A A A A A A A A A A A l A A A A A A A A A A A A A A A A A A A A A A A S S A A A A A A A l A A A A A A ",
"A A A A A A A A A A A A A A A A A A A A A A A A A A A A A A A A A A A A A A A A A A A A A A A A l A A A A A A A A A A A A A A A ",
"A A A A A A A A A A A A A A A A A A A A A A A A A A A A A A A A A l A A A A A A l A A A A A A A A A A l S l A A l S A A A A A A ",
"A A A A A A A A A A A A A A A A A A A A A A A A A A A A A A A A A A A l l l l A A A A A A A A A A A A A l l A A A l l l l l A A ",
"A A A A A A A A A A A A A A A A l A A A A A A A l A A A Z l k A A A l S R W W l A A A A A A A A A A A S S l S l A A R W R K A A ",
"A h k A A A A A A A A l A A A A A A A A A A A l A A A A S K K S A A S Q +.<.O.A A A A A A A A A A A A h h S l l A l | *.#.Q S A ",
"k 2 s A A A A A A A A A A A A A A A A A A A A A A A A l W %.#./ S l Q / #.@.J A A A A A A A l A A A l e 0 l l S A A J | #.] Q S ",
"6 r h A A A A A A A A A A A A A A A A A A A A A A A A l K  .<.] Q S Q ..U e 7 A A A A A A l S A A A e 8 f S l S A A 0 e G ../ l ",
"- f S l A A A A A A A A A A A A A A A A A A A A A A A A s f E { ] J L H 9 - 0 A A A A A A A A A A A , e S S l l A l e - 3 G L S ",
"> h A A A j h A A A l A l A A A A A A A A A A A A A A S r ; 2 R ~ J A 0 > 6 A A A A A A l A A A A A 7 r l l S l A A l e : 5 S l ",
"h l A A A s 2 A l A A A A A A A A A A A A A A A A A A A l r - 2 l S l l h h A A A A A A A A A l A A h h A A A A A A A k f h A A ",
"A A A A S r > l A A A A A A A A A A A A A A A A A A A l A k r y l l l S A A A A A A A A A A l S A A S A A A A A A A l S S A A A ",
"A A A A S s 0 l A A A A A A A A A l A A A A A A A A A A A A A A l l l S A A A A A A A A l A l S A A A A A Z A A A A A A l A A A ",
"A A A A A A A A A A A A A A A A A A A A A A A A A A A A A A A A S S l l A A A A A A l A S l A l A A A A A S K A A A A A S A A A ",
"A A A A A A A A A A A A A A A A Z A A A A A A A A A A A A A A S l l A A A A A A A A S l l S S l A A A A l _ ,.S l S A A l A A A ",
"A A A A A A A A A A A A A A A A l A A A A l A A A A A A A A A Z l S A A A A A A l 8 f l l l l l A A A l _ 1.-.>.D l A A A A l A ",
"A A A A h s A A A A A A A A A A A A A A A A A A A A A A A A S Z m Z A A A A A A l 7 e h S l S S S A A l I =.-.[ S A A A A A A A ",
"A A A A r 2 k A A A A A l A A A A A A A A A A A A A A A A A Z z $ N A A A A A A l S 2 e S l l l h l l S e z :.2 k A A A A A A A ",
"A A A A k r 2 l A A A A A A A A A A A l A A A A A l A A l S B # n % M l A A A A A A 2 e S A A k , h A A l u 8 h l A A A A A A l ",
"A A A A S s > k A A A A A A A A A 0 s S A A A A A A A A S l d   * . a S A A A A A l s h A A A h ; s A A S h r A A A A A A A A A ",
"A A A A S s 8 A A A A A A A A l y 6 f A A A A A A A A A A S h 6 o 4 f A A A A A A A A A A A A h 8 h S l A A A A A A A A A A A A ",
"A A A A A l l A A A A h k A A k > f A A A A A A A A A A A A A h , h A A A A A A A A A A A A A A l A A A A A A A A A A A A A A A ",
"A A A A A A A A A A S 0 0 A A k > f A A A A A A A A A A A A A A h S l l A A A A A A A A A A A A l S A A A A A A A A A Z A l A A ",
"A A A A A A A A A A A s 0 e A k u h A A A A A A A A A A A A A A l l l S A A A A A A A A A A A A l l A A A A l A A A h ' ' k A A ",
"A A A A A A A A A A A S e 1 A A S A A A A A A A A A A A A A A A S l l S A A A A A l A A A A A A S l A A A A A A A A W 1.1.W l A ",
"A A h k A A A A A A l S r 7 A A l A A A A A A A A A A h k A A A l l S l A A A A A C A A A A A A l K S A A A A A A A ;.-.-.>.l A ",
"A A 2 r A A A A A A A A k k A A A A A A l A A A A A A 0 0 S A A l S l S l l A l A = m k A A A A S ,.) Z A A A A A A 8 ( ( 0 A A ",
"A 0 e h A A A A A A A A A A A A A A A A A A A A S A A f 0 q A k 7 h S l l S A A = b & m A A A D >.-.1.` l A A A A A s i i u A A ",
"k > u S A A A A A A A A A A A A A A A A A A A k r l A S q 1 k r 3 h S l A A A Z + v @ w S A l S [ -.=.I l l A A A y h r r S A A ",
"A 2 s A A A A A l A A A A A A A A A A A A A A k 1 s A A r 7 f > h l l S A A A h 1 O X r A A A k , :.i e S S l l h 2 s A l A A A ",
"A h Z A A A A A A A A A A A A A l A A A A A A A h 2 s A k k f > h A A A A A A A h < q A A A A A h 8 u x A l S k 2 u A A A A A A ",
"A A A A A A A A A A A A A A A A Z A A A A A A A A > y A A A k y k A A A A A A A A s k A A A A A A y h S A A l k - h A A A A A A ",
"A A A A A A A A A A A A A A A A A A A A A A A A A 0 f A A A A S A A A A A A A A A A A A A A A A A A A A A A l k 8 h A A A A l A ",
"A A A A l A A A A A A A A A A l A A A A A A A A A A A A A A A A A A A A A A A A A A A A A A A A A A A A A A A S l l A A A A A A "
};
