/* XPM */
static char *result[] = {
/* columns rows colors chars-per-pixel */
"64 64 7 1 ",
"  c black",
". c gray19",
"X c #705038",
"o c #987038",
"O c #C8A040",
"+ c #F8D050",
"@ c None",
/* pixels */
"@@@@@@@@@@@@@@@@@@@@@@@@@@@@@@@@@@@@@@@@@@@@@@@@@@@@@@@@@@@@@@@@",
"@@@@@@@@@@@@@@@@@@@@@@@@@@@@@@@@@@@@@@@@@@@@@@@@@@@@@@@@@@@@@@@@",
"@@@@@@@@@@@@@@@@@@@@@@@@@@@@@@@@@@@@@@@@@@@@@@@@@@@@@@@@@@@@@@@@",
"@@@@@@@@@@@@@@@@@@@@@@@@@@@@@@@@@@@@@@@@@@@@@@@@@@@@@@@@@@@@@@@@",
"@@@@@@@@@@@@@@@@@@@@@@@@@@@@@@@@@@@@@@@@@@@@@@@@@@@@@@@@@@@@@@@@",
"@@@@@@@@@@@@@@@@@@@@@@@@@@@@@@@@@@@@@@@@@@@@@@@@@@@@@@@@@@@@@@@@",
"@@@@@@@@@@@@@@@@@@@@@@@@@@@@@@@@@@@@@@@@@@@@@@@@@@@@@@@@@@@@@@@@",
"@@@@@@@@@@@@@@@@@@@@@@@@@@@@@@@@@@@@@@@@@@@@@@@@@@@@@@@@@@@@@@@@",
"@@@@@@@@@@@@@@@@@@@@@@@@@@@@@@@@@@@@@@@@@@@@@@@@@@@@@@@@@@@@@@@@",
"@@@@@@@@@@@@@@@@@@@@@@@@@@@@@@@@@@@@@@@@@@@@@@@@@@@@@@@@@@@@@@@@",
"@@@@@@@@@@@@@@@@@@@@@@@@@@@@@@@@@@@@@@@@@@@@@@@@@@@@@@@@@@@@@@@@",
"@@@@@@@@@@@@@@@@@@@@@@@@@@@@@@@@@@@@@@@@@@@@@@@@@@@@@@@@@@@@@@@@",
"@@@@@@@@@@@@@@@@@@@@@@@@@@@@@@@@@@@@@@@@@@@@@@@@@@@@@@@@@@@@@@@@",
"@@@@@@@@@@@@@@@@@@@@@@@@@@@@@@@@@@@@@@@@@@@@@@@@@@@@@@@@@@@@@@@@",
"@@@@@@@@@@@@@@@@@@@@@@@@@@@@@@@@@@@@@@@@@@@@@@@@@@@@@@@@@@@@@@@@",
"@@@@@@@@@@@@@@@@@@@@@@@@@@@@@@@@@@@@@@@@@@@@@@@@@@@@@@@@@@@@@@@@",
"@@@@@@@@@@@@@@@@@@@@@@@@@@@@@@@@@@@@@@@@@@@@@@@@@@@@@@@@@@@@@@@@",
"@@@@@@@@@@@@@@@@@@@@@@@@@@@@@@@@@@@@@@@@@@@@@@@@@@@@@@@@@@@@@@@@",
"@@@@@@@@@@@@@@@@@@@@@@@@@@@@@@@@@@@@@@@@@@@@@@@@@@@@@@@@@@@@@@@@",
"@@@@@@@@@@@@@@@@@@@@@@@@@@@@@@@@@@@@@@@@@@@@@@@@@@@@@@@@@@@@@@@@",
"@@@@@@@@@@@@@@@@@@@@@@@@@@@@@@@@@@@@@@@@@@@@@@@@@@@@@@@@@@@@@@@@",
"@@@@@@@@@@@@@@@@@@@@@@@@@@@@@@@@@@@@@@@@@@@@@@@@@@@@@@@@@@@@@@@@",
"@@@@@@@@@@@@@@@@@@@@@@@@@@@@@@@@@@@@@@@@@@@@@@@@@@@@@@@@@@@@@@@@",
"@@@@@@@@@@@@@@@@@@@@@@@@@@@@@@@@@@@@@@@@@@@@@@@@@@@@@@@@@@@@@@@@",
"@@@@@@@@@@@@@@@@@@@@@@@@@@@@@@@@@@@@@@@@@@@@@@@@@@@@@@@@@@@@@@@@",
"@@@@@@@@@@@@@@@@@@@@@@@@@@@@@@@@@@@@@@@@@@@@@@@@@@@@@@@@@@@@@@@@",
"@@@@@@@@@@@@@@@@@@@@@@@@@@@@@@@@@@@@@@@@@@@@@@@@@@@@@@@@@@@@@@@@",
"@@@@@@@@@@@@@@@@@@@@@@@@@@@@@@@@@@@@@@@@@@@@@@@@@@@@@@@@@@@@@@@@",
"@@@@@@@@@@@@@@@@@      @@@@@@@@@@@@@@@@      @@@@@@@@@@@@@@@@@@@",
"@@@@@@@@@@@@@@@@@      @@@@@@@@@@@@@@@@      @@@@@@@@@@@@@@@@@@@",
"@@@@@@@@@@@@@@@@@  ....  @@oooooooo@@  ....  @@@@@@@@@@@@@@@@@@@",
"@@@@@@@@@@@@@@@@@  ....  @@oooooooo@@  ....  @@@@@@@@@@@@@@@@@@@",
"@@@@@@@@@@@@@@@@@  ....++  ++++++++  ++....  @@@@@@@@@@@@@@@@@@@",
"@@@@@@@@@@@@@@@@@  ....++  ++++++++  ++....  @@@@@@@@@@@@@@@@@@@",
"@@@@@@@@@@@@@@@@@@@  ++++++oo++++oo++++++  @@@@@@@@@@@@@@@@@@@@@",
"@@@@@@@@@@@@@@@@@@@  ++++++oo++++oo++++++  @@@@@@@@@@@@@@@@@@@@@",
"@@@@@@@@@@@@@@@@@@@  OO++++++++++++++++OO  @@@@@@@@@@@@@@@@@@@@@",
"@@@@@@@@@@@@@@@@@@@  OO++++++++++++++++OO  @@@@@@@@@@@@@@@@@@@@@",
"@@@@@@@@@@@@@@@@@@@oo  OO++++++++++++OO  oo@@@@@@@@@@@@@@@@@@@@@",
"@@@@@@@@@@@@@@@@@@@oo  OO++++++++++++OO  oo@@@@@@@@@@@@@@@@@@@@@",
"@@@@@@@@@@@@@@@@@@@oo++++++++++++++++          @@@@@@@@@@@@@@@@@",
"@@@@@@@@@@@@@@@@@@@oo++++++++++++++++          @@@@@@@@@@@@@@@@@",
"@@@@@@@@@@@@@@@@@@@  ++++++++++++++  ++++++++  @@@@@@@@@@@@@@@@@",
"@@@@@@@@@@@@@@@@@@@  ++++++++++++++  ++++++++  @@@@@@@@@@@@@@@@@",
"@@@@@@@@@@@@@@@@@@@@@XX++++++++++++  OOOOOOOO  @@@@@@@@@@@@@@@@@",
"@@@@@@@@@@@@@@@@@@@@@XX++++++++++++  OOOOOOOO  @@@@@@@@@@@@@@@@@",
"@@@@@@@@@@@@@@@@@@@@@XX++oooo++oo  XXOOOOOOOO  @@@@@@@@@@@@@@@@@",
"@@@@@@@@@@@@@@@@@@@@@XX++oooo++oo  XXOOOOOOOO  @@@@@@@@@@@@@@@@@",
"@@@@@@@@@@@@@@@@@@@XXOOOO++oooo  OOOOOO      @@@@@@@@@@@@@@@@@@@",
"@@@@@@@@@@@@@@@@@@@XXOOOO++oooo  OOOOOO      @@@@@@@@@@@@@@@@@@@",
"@@@@@@@@@@@@@@@@@@@XXOOOOooooOO  OO    XX@@@@@@@@@@@@@@@@@@@@@@@",
"@@@@@@@@@@@@@@@@@@@XXOOOOooooOO  OO    XX@@@@@@@@@@@@@@@@@@@@@@@",
"@@@@@@@@@@@@@@@@@@@  OOOOOOXX  oooo  oo  @@@@@@@@@@@@@@@@@@@@@@@",
"@@@@@@@@@@@@@@@@@@@  OOOOOOXX  oooo  oo  @@@@@@@@@@@@@@@@@@@@@@@",
"@@@@@@@@@@@@@@@@@@@@@  OOOOOO  oo  oooo  @@@@@@@@@@@@@@@@@@@@@@@",
"@@@@@@@@@@@@@@@@@@@@@  OOOOOO  oo  oooo  @@@@@@@@@@@@@@@@@@@@@@@",
"@@@@@@@@@@@@@@@@@@@@@@@    ......OOOO  @@@@@@@@@@@@@@@@@@@@@@@@@",
"@@@@@@@@@@@@@@@@@@@@@@@    ......OOOO  @@@@@@@@@@@@@@@@@@@@@@@@@",
"@@@@@@@@@@@@@@@@@@@@@@@@@@@@@@@@@    @@@@@@@@@@@@@@@@@@@@@@@@@@@",
"@@@@@@@@@@@@@@@@@@@@@@@@@@@@@@@@@    @@@@@@@@@@@@@@@@@@@@@@@@@@@",
"@@@@@@@@@@@@@@@@@@@@@@@@@@@@@@@@@@@@@@@@@@@@@@@@@@@@@@@@@@@@@@@@",
"@@@@@@@@@@@@@@@@@@@@@@@@@@@@@@@@@@@@@@@@@@@@@@@@@@@@@@@@@@@@@@@@",
"@@@@@@@@@@@@@@@@@@@@@@@@@@@@@@@@@@@@@@@@@@@@@@@@@@@@@@@@@@@@@@@@",
"@@@@@@@@@@@@@@@@@@@@@@@@@@@@@@@@@@@@@@@@@@@@@@@@@@@@@@@@@@@@@@@@"
};
