/* XPM */
static char *result[] = {
/* columns rows colors chars-per-pixel */
"64 64 98 2 ",
"   c white",
".  c #FEFFFF",
"X  c #FEFEFE",
"o  c #FDFEFE",
"O  c #FDFDFD",
"+  c #FEFEFF",
"@  c #FAFBFC",
"#  c #EBEFF3",
"$  c #FBFCFD",
"%  c #F9FAFC",
"&  c #E2E9EE",
"*  c #F2F6F8",
"=  c #FBFCFC",
"-  c #F4F7F9",
";  c #EDF2F5",
":  c #F1F4F7",
">  c #E0E7ED",
",  c #E6ECF0",
"<  c #F6F8FA",
"1  c #FDFDFE",
"2  c #EEF2F5",
"3  c #F4F6F8",
"4  c #F8FAFB",
"5  c #EDF1F4",
"6  c #ECF1F4",
"7  c #E4EAEF",
"8  c #DDE5EB",
"9  c #F7F9FA",
"0  c #DAE2E9",
"q  c #D8E1E8",
"w  c #D9E2E9",
"e  c #F3F6F8",
"r  c #ECF0F4",
"t  c #D7E0E7",
"y  c #DBE3EA",
"u  c #F2F5F7",
"i  c #EFF3F6",
"p  c #F0F3F6",
"a  c #DAE3E9",
"s  c #FCFDFD",
"d  c #D7E1E8",
"f  c #E5EBF0",
"g  c #F1F5F7",
"h  c #F9FBFC",
"j  c #D9E2E8",
"k  c #E9EEF2",
"l  c #F0F4F6",
"z  c #E7ECF1",
"x  c #DFE6EC",
"c  c #DCE4EA",
"v  c #DFE7EC",
"b  c #F9FAFB",
"n  c #F5F7F9",
"m  c #F2F5F8",
"M  c #FCFCFD",
"N  c #E7EDF1",
"B  c #E0E8ED",
"V  c #D7E0E8",
"C  c #E3EAEF",
"Z  c #DBE4EA",
"A  c #E1E8ED",
"S  c #EAEFF2",
"D  c #DCE4EB",
"F  c #F4F7F8",
"G  c #E3E9EE",
"H  c #DEE6EC",
"J  c #DBE3E9",
"K  c #EDF1F5",
"L  c #EBF0F3",
"P  c #E8EDF1",
"I  c #EAEFF3",
"U  c #EAEEF2",
"Y  c #F8F9FB",
"T  c #F5F8F9",
"R  c #F7F9FB",
"E  c #DDE4EB",
"W  c #E4EBEF",
"Q  c #DEE6EB",
"!  c #D9E1E8",
"~  c #E2E8EE",
"^  c #E8EEF2",
"/  c #E8EDF2",
"(  c #F3F5F8",
")  c #EFF2F5",
"_  c #F6F8F9",
"`  c #E6EBF0",
"'  c #DEE5EB",
"]  c #E0E7EC",
"[  c #F1F4F6",
"{  c #E6ECF1",
"}  c #FCFDFE",
"|  c #EFF3F5",
" . c #D6E0E7",
".. c #FAFCFC",
"X. c #E1E8EE",
"o. c #E5EBEF",
"O. c #F7F8FA",
"+. c #F4F6F9",
/* pixels */
"                                                                                                                                ",
"                                                                                                                              . ",
"                          X                   o o                         X                 X O X                       . +   + ",
"X   .                   @ # $               % & & * =                   - ;                 : > , < 1                 X 2 3     ",
"      4 5 6 -         = 7 8 =               9 0 q w # e 6 5 @         - 8 ,                 r t q y u i 6 p X       X 6 a :     ",
"  s @ r d t f o       g q 8 = s h $       X , q q j 5 k d q l       X z t z   = h 1       4 x q q c : v t 8 b       b 8 q 2     ",
"  n > 0 q q 0 m     M > d 8 $ 6 y N       1 > d q B M $ , q x $     3 a V z o C Z u       n w q q k + n x q N       k q q 8 h   ",
"  . p 8 w d q A 5 X 6 0 q 8 $ S t D F     2 a q w l     n w 0 7 e s 7 q V z 1 > t G $   1 , q d H 9     S t D N @ < 8 q q J b   ",
"    . @ 6 A q t A 1 C V q 8 $ l y V 2     K 0 q & $     n w q t L @ c q V z X P q y 4   1 f q w I       U V q w 9 l q q 8 , @ . ",
"          $ l 5 N 1 7 t w L X X 7 d 2     s v q g     X = 7 t q 5 @ c d 8 e   Y c y b     n j H @     X n 8 t y 9 2 w I n   . X ",
"          o < n 3 X k y 6 X     T y k o   o N I 1   = I @ : > P $ $ A 8 -     + r a e     R & u     T r o P > 2 @ z G @         ",
"          < c w H n s u X       @ E a 9     X X   $ W Z b   o X     9 n         l q & o     o     < Q 7 . X o X o s s           ",
"    X b # > ! q t S             X r w <           u j v @       : e             $ ~ > o         X ^ q /     1 r & & 7 - M       ",
"    4 8 q q q 0 f e               Y k @         s > q p         L H $             l 5 X         T a D b     b > t V q a C l s   ",
"    Y 0 c 2 ( 3 M @ @ $     X i R               5 w a e         L c 4       = 2 1             s W q > $       9 B d V V t q k X ",
"    @ P e       @ 7 c & : 3 e y -               f 0 ) X         r d N       # v s             @ c x _           4 N ` , ` f L X ",
"  X K P n o       9 > w q a P 2 $               k )             5 q ,     X ^ 6 +             @ 7 e l @           X s s o       ",
"  4 ' t c 7 3 s     = u & a w L 1               $ X             @ f <     e 8 9               X $ - 7 i         Y 6 x H r       ",
"  k t q q q w W p o     o : r 5 @                                 - 1     : c 9                   + o X + @ 6 S 8 q V q k       ",
"  K ] 8 V d q t ! 2                                                       M < o                         2 H d c > > ~ u @       ",
"  X 1 n S , 0 C k e                                                                                     e k k - 1 1 1           ",
"          1 e $                                                                                                                 ",
"                                                                                                                  @ m 1         ",
"            M $ M u z , u                                                                                     : z A w 7 N - .   ",
"        4 i v ' ' a q A [                                                                                     2 w t q d V Q < o ",
"        z d V j x 5 i M   1 s +                                                                 @ L k i s     X u , a q d a e 1 ",
"        r v > i @         K v r 9 9 $                                                           o L j 0 A g @     1 _ 7 c d f 1 ",
"  . X X 1 s s X           = L I > y i                                                             X 5 a q w > <       X n ^ ) X ",
"  n , G C C G f 9               9 3 @                                                               X T e C 8 f =       [ { $   ",
"  1 L j V t V d ] <                                                                                       1 M $ $ : p r y 8 h   ",
"    1 ( W y q V t > b       $ = +                                                                             : & w q V w S 1   ",
"        1 _ f 7 C 2 X s 3 l v 8 5 R                                                                           ^ t q j A 5 o     ",
"            s M }   X I c y a y k -                                                               1 1 1 } 1   - H a 8 4         ",
"          h ~ v f h . 4 9 R R Y o                                                             4 i > v x v I o   @ Y b X         ",
"      X ( N j d t #                                                                           e N w Z k r %   e r r K @         ",
"    h 7 y t V q ' 2                                                                             1 _ 9 .     Y x t d q v # 4 +   ",
"    Y 0 ! 7 N k b o                                                                                         + p y q q V q c p + ",
"    % ] # 1     @ / W # @ $                                                                 1 @ s               : H 8 8 8 D > g ",
"    - K b       X p y q c v 3                                                               | c & : 3 X           $ @ @ @ @ @ M ",
"  $ > q ~ r = +     - I Z q c u +                                                           Y i p , 8 p         1 - P N g       ",
"  6 j q d j H 6 R     X 4 k & { h                                                                 s 4 @   X T e C Z V  .N       ",
"  S j j q q q q D e       . X X                                                                         e , 0 0 w w y k -       ",
"  @ < 5 v ' q D x 2                                                                                     K H v r < T < X         ",
"      + 1 b I T 1 X                                                                                     X s s +                 ",
"                                                                                                                  o @           ",
"                  4 l l R                                                                                     9 [ ^ 8 5 : @     ",
"        o 9 N , , x q a 5                         b N <       o                                               # q d q q q A , i ",
"+       # c q t 0 & f T s                         _ w :     = 6 .                               s - - Y       @ P H q q q d w 6 ",
"X       P w a , u o +     : k e m 1               - C b     ; x 3             h e               @ C q H I 4 X     Y r ' j ! I 1 ",
"        ..9 R o           < > c v $             1 & I     + G  .L           h & N               9 8 8 q t ' N $       b 2 X.5 X ",
"  n r 6 5 5 5 2 $         1 N q H $             M G e       2 w L         b & V P               n C _ 5 S 8 w , M       < r @   ",
"  4 X.t V q d q , $       @ c q 2 .         @ $ X b         @ c L         u q 8 9         o b o s @       9 n T s b 4 - x y b   ",
"    b P 8 q q q q f $     g a > b         1 & k             s W L       1 k q / X         < 8 -               Y 6 D y a q Z b   ",
"        9 5 8 c c { M   + G q i           1 v 8 <         o + = 4       4 y c Y           n w o.s         1   k V q q y o.m 1   ",
"            @ @ @ 9 e < X 7 k s   $ e s   X N q :       s k 2 +   < m @ 4 x [ +   9 T .   b x c @       9 f n i a q a 3 1       ",
"          $ I ^ I A q & s _ 1   s f a 9     9 a 7 s   M N q 8 $ 3 8 q 5 s T     < ' X.X     6 w 6     < > t f s 7 L : 1         ",
"        h | w > r w q w 2       e a w l     R a 0 m   k q q 8 $ r V q 8 4     X I V x Y     5 t x h $ > q V f 1 ~ N < X         ",
"    $ K > j j g < y q V L     o G q q A s   Y y d & o f V q ' $ 5 ! q 0 <     9 y q q k     K q q r @ c q q , 1 ~ q y k 3 X     ",
"    b 8 q V 7 M 1 n > t P X   i a q w l     X S t A o ` V q ; . @ : y w u   X z q q x Y     @ >  .L @ D d c T   Y k d V Z 7 @   ",
"    + 6 q y :       2 8 Z L b G q q c Y       < P 2 X ` t > b     1 f q 8 e - c q d ~ X       i P 3 @ D q P o     O.A 8 Z Q 9   ",
"      - 8 C o       o 5 f , : Q v 7 i o               / c |         < A 8 k k q q 0 :               @ c c 9         p # , l o   ",
"      @ : %           o s 1 b 6 | +.$                 m l 1         o M $ s n ^ x > h               $ f : .         o 1 s X     ",
"      . .                       +                     X             .         o < < o               X $                         ",
"                                                                                        .                                       "
};
