/* XPM */
static char *result[] = {
/* columns rows colors chars-per-pixel */
"64 64 140 2 ",
"   c #1E150E",
".  c #1F1511",
"X  c #23170F",
"o  c #23180F",
"O  c #221711",
"+  c #251A13",
"@  c #2A1D16",
"#  c #261D18",
"$  c #2A1E19",
"%  c #2D2117",
"&  c #2D221B",
"*  c #32251D",
"=  c #35281F",
"-  c #39291F",
";  c #2E2620",
":  c #322720",
">  c #352A23",
",  c #3B2C24",
"<  c #3A2F29",
"1  c #3D3127",
"2  c #37302A",
"3  c #3D322A",
"4  c #412F26",
"5  c #423127",
"6  c #44342B",
"7  c #4A362C",
"8  c #46392E",
"9  c #4C382E",
"0  c #523A2F",
"q  c #453A32",
"w  c #4B3D33",
"e  c #523D32",
"r  c #5A3F35",
"t  c #4D4137",
"y  c #4E4239",
"u  c #544136",
"i  c #5B4336",
"p  c #53453B",
"a  c #5B4539",
"s  c #55493E",
"d  c #5C4A3D",
"f  c #61473A",
"g  c #634B3E",
"h  c #6A4C3D",
"j  c #564B41",
"k  c #5C4D42",
"l  c #575145",
"z  c #5E5143",
"x  c #644D40",
"c  c #6A4F41",
"v  c #645245",
"b  c #6B5345",
"n  c #665549",
"m  c #6B5649",
"M  c #665B4D",
"N  c #6C5A4C",
"B  c #735545",
"V  c #755847",
"C  c #715749",
"Z  c #785749",
"A  c #735B4D",
"S  c #7A5D4D",
"D  c #675F51",
"F  c #6C5E50",
"G  c #735E50",
"H  c #795F51",
"J  c #7D604F",
"K  c #6B6152",
"L  c #746253",
"P  c #7C6353",
"I  c #746857",
"U  c #7C6857",
"Y  c #756758",
"T  c #7A6759",
"R  c #766B5A",
"E  c #7C6B5B",
"W  c #7C705E",
"Q  c #7D7261",
"!  c #80604D",
"~  c #826555",
"^  c #886755",
"/  c #846857",
"(  c #8A6A57",
")  c #846758",
"_  c #856A59",
"`  c #8B6D5B",
"'  c #926A55",
"]  c #916E5B",
"[  c #85715F",
"{  c #8D715E",
"}  c #92725E",
"|  c #99745F",
" . c #837362",
".. c #8D7462",
"X. c #867A66",
"o. c #897966",
"O. c #877A68",
"+. c #8A7E6B",
"@. c #937562",
"#. c #997662",
"$. c #957965",
"%. c #9C7B65",
"&. c #957C69",
"*. c #9D7E69",
"=. c #A17D67",
"-. c #A17F69",
";. c #A97F68",
":. c #9C816C",
">. c #968671",
",. c #9C8671",
"<. c #9D8C76",
"1. c #9E917B",
"2. c #A4826C",
"3. c #A9856E",
"4. c #AE896F",
"5. c #B1856E",
"6. c #B0886E",
"7. c #A38670",
"8. c #A98770",
"9. c #A58A73",
"0. c #AC8B73",
"q. c #A68F78",
"w. c #AC8F79",
"e. c #B28D75",
"r. c #B88F76",
"t. c #A5937D",
"y. c #AE917A",
"u. c #B49077",
"i. c #B4937A",
"p. c #BA957B",
"a. c #BC997E",
"s. c #A29680",
"d. c #A49C83",
"f. c #A99982",
"g. c #B69B83",
"h. c #BC9C82",
"j. c #BDA287",
"k. c #BCA48B",
"l. c #C19D82",
"z. c #C8A88D",
/* pixels */
"` ` / P P _ ` ` ` ` ` { ) _ G w & & y [ 2.7.-.-.*.%.%.*.2.*.2./ > $ > j ) &.0.*.} { { { ` / ~ J J J P P _ { #.*.%.Z 2 # > y n Z ",
"_ _ / ~ P P ~ ` @.$.$....._ ~ w $ & q T -.8.;.-.-.*.-.-.*.-.2./ : + : d G $.0.*.#.$.| @.} ( _ _ P J J J P ` @.2.-.C < # 2 y n G ",
"_ P P / P S P _ { $.$.@.{ ` P e % & w L -.8.8.2.-.-.*.#.%.*.2.` > @ : j G ..0.2.2.%.$.} { _ _ ` ` P A A P ~ @.7.-.B , # > y N G ",
"` _ / P P S P ~ _ ` ` @.` ` ~ e # & w G -.8.-.;.-.-.=.%.%.-.8.( > $ > j G @.8.-.%.$.} ( P / ` ` ~ / P P P P ` 0.%.b < # > w x G ",
"{ ` _ _ _ ~ P E / _ _ ` ` ` ^ u $ & w G -.8.2.;.-.=.*.-.-.-.8.( > # > j G @.3.%.#.$.| #.@.} { ` / ` { { ` _ _ 7.#.x < # ; q l m ",
"/ ` ....` ` / P P P ^ ^ _ ` ` w $ $ y L 7.8.2.3.7.;.8.8.7.-.8.! , + > j G &.;.#.| | $.$.%.$.} { } @.$.@.....{ :.] d < # > q k n ",
"~ _ ` ` ` _ _ P S J P ~ ) ` A > $ $ p L 8.8.8.3.8.8.8.8.8.-.-.c > $ > y G *.2.;.%.=.:.:.:.%.%.$.@.$.$.$.$.{ { %.] d : # : q k v ",
"E ~ / / P P P H L J H ~ ` ..a * $ ; w G -.e.8.8.8.8.8.0.e.8.*.a , $ > p F *.-.2.2.2.2.7.7.:.2.*.%.%.:.*.:.%.$.2.^ a < # ; 6 j j ",
"P P P ~ H S P ^ ~ J P ) ` ` 9 ; & & w D *.8.e.0.4.0.0.u.0.4.| i 3 + > y F *.%.;.2.*.2.7.2.7.2.:.*.*.:.2.2.2.-.^ h i > # ; 2 y a ",
"n P / ) P _ _ ` _ _ _ ` { A > & % & w n { 8.e.u.u.u.e.0.0.0.^ i 5 $ > 3 a ` %.=.2.7.2.*.*.2.2.2.:.*.2.2.7.2.^ b h 9 ; # & 2 q q ",
"9 w x ~ { { ..` { { / A a : # + @ & q z H %.;.8.0.4.3.3.*.J h i q % & : 1 u / } ] ` } @.} ] ] ` ^ P H S H S B c f 5 & + # $ : 2 ",
"> , , 9 d g g d i w , * # # + @ @ % 2 a A ! ] ] ] ` ( Z h i f e : + % & : , 7 w r r r i a i f f g x x g g x g a r : # + + + + # ",
"* % % @ + @ @ % & * % + + @ @ @ O + & , i f e 0 5 , 4 7 0 9 6 * + + @ @ @ % * > , 6 6 6 6 6 6 9 w r i a i a a i 7 @ @ X O + @ @ ",
"@ @ @ @ + + + + + + + @ + + o X O O + @ @ + @ @ + @ @ @ * $ @ O O O o + + @ + % $ * & % % % % * % * * = - * - , % + o X + O + O ",
"P H H x w * + 1 b L Y E Q E _ R R Q W Y e % X @ > w a a s k k k v v v d p s s s w & O X % w s N L N m m M A N N S L L L L N N v ",
"i.g.i.*.E s * A 7.w.g.k.z.k.k.g.g.k.k.,.L w * , s E  .o.&.&.*.:.:.:.:.:.7.f.1.[ M w * + < N ..i.g.i.i.i.y.y.i.y.y.y.9.9.w.9.9.*.",
"i.i.h.9.&.v * b :.p.i.i.p.u.4.3.3.4.4.0.{ v = 1 N ..7.8.8.7.2.2.3.2.3.2.2.2.2.:.[ k 3 @ < k +.i.a.u.u.0.u.u.4.4.3.3.e.i.j.j.g.%.",
"g.i.p.4.( a % d $.h.p.a.p.u.0.3.2.7.4.0.:.J = 6 F $.-.-.3.-.-.;.2.2.2.2.3.8.8.8.7.b q * > k @.0.e.0.u.6.4.e.3.3.4.e.e.u.e.i.a.$.",
"i.i.p.;.~ i % j { a.a.p.p.e.4.2.2.2.3.u.4.S - 8 N ..2.2.8.8.-.7.0.0.3.0.0.0.0.0.0.b 6 : ; k $.e.u.0.u.0.e.0.0.0.e.e.i.i.u.i.p.$.",
"e.0.i.#.S e $ s ` p.p.u.e.e.4.2.2.2.3.4.2.V - 3 n ..-.2.3.-.;.7.2.2.2.-.2.2.0.e.u.S q & ; k $.u.6.u.u.e.0.e.i.0.u.u.u.i.i.i.i.&.",
"e.0.e.( B 4 @ u U e.u.e.4.e.4.3.2.2.;.;.=.B - 1 v _ -.-.2.7.8.0.0.2.2.2.=.2.8.0.e.G 6 % & j [ 0.u.u.u.e.e.e.u.e.u.u.u.u.u.0.0.} ",
"3.3.2.! f = @ 8 n %.e.e.4.3.4.3.3.2.*.=.| h = > j A *.*.;.;.7.8.0.3.3.3.3.2.3.e.0.b ; + > y P 2.i.u.u.u.u.u.e.e.4.y.u.u.u.0.0.{ ",
"2.| B 7 5 % @ < a A #.%.#.#.%.=.2.3.2.| B w * * 9 d _ #.@.#.=.;.2.*.2.2.3.3.3.( B , + + % < x ^ i.a.p.u.0.e.8.2.2.4.0.u.0.4.4...",
"9 > - > $ + + * 5 9 e i i f f f f h f 0 5 * + % : , 6 9 6 9 9 w 9 0 e e e a i r 9 # # + + + , u b V A A b g g x a u u u u u 0 t ",
"= : : - : * * : , , - * * * * % * * * * * $ $ % % * % % $ & $ $ * % * * & & & = * & = % % + @ % + + + & = - = * = = = o + % = % ",
"<.1.s.s.s.d.d.t.:. .M = O @ @ * > 7 t a v N N L L F K G F v v n L E Q W Q  .W W Q O.>. .[ n t - @ + w P :.<.<.>.>.>.N 1 - s R R ",
"g.h.j.j.g.h.l.h.i.7...3 $ : q u k N L / $.&.*.*.7.2.2.,.*...` ..y.g.w.w.e.0.9.:.2.7.9.9.&...N t * - E 7.g.j.j.a.a.9.E d 6 M >.>.",
"0.e.e.0.e.e.u.r.a.h.@.8 $ q p z F [ *.$.@.#.#.-.8.3.-.%.-.2.7.8.0.-.%.| $.| @.#.*.2.2.u.2.[ A a = > [ y.z.h.a.a.a.i.{ s 6 T w.@.",
"e.i.r.u.p.p.r.p.p.p.^ 7 % 6 j F _ -.*.%.} } @.-.8.0.0.-.-.-.*.*.=.=.%.#.| | | #.*.2.2.2.2.^ C u * 5 T p.l.l.a.p.p.p.*.5 8 E e.$.",
"i.i.i.i.e.u.r.h.p.a.^ 9 % 3 j v [ -.-.;.=.%.@.#.#.#.%.%.=.%.#.#.#.=.%.%.$.#.@.%.*.2.2.2.%.^ C w % 1 Y 0.p.a.a.l.e.=.$.1 8 E 0.$.",
"i.e.e.6.e.e.p.a.p.a.~ 6 % 3 k n _ 2.-.-.-.-.#.] ( ( ] @.#.#.#.#.#.%.#.#.$.#.%.:.:.2.2.-.@.^ A 9 % < P 0.e.a.l.3.| e.*., w ` 0.$.",
"8.e.3.e.e.r.r.u.u.p.! 9 % w z M ) 2.7.8.8.-.#.{ ] ` ` #.#.%.#.#.#.#.| %.%.:.2.2.2.2.-.-.} ~ A 9 % 1 T 0.6.e.r.*.u.p.*., w [ 2.} ",
"3.6.6.r.r.5.5.e.r.p.S 9 $ p v N J %.3.8.4.3.*.%.*.*.*.=.:.#.#.*.#.#.%.%.-.2.2.0.3.3.3.2.] ~ c 7 % , P 0.6.6.e.u.a.l.} 4 5 H 2.@.",
"| | ' ' ' | ;.3.5.5.V 4 % u k d i g ~ #.%.*.*.*.#.$.#.} } } ( ~ ~ ~ ^ @.2.0.2.$.#.#.^ Z h f 7 : $ > x $.2.;.=.=.%.] f = > s S S ",
"e 0 f f h h B Z Z h 5 @ + : , 4 5 , : > , 4 6 7 7 7 5 4 , , : : - > 4 6 6 7 4 > , 4 , , 5 , @ + + $ , 9 7 7 9 7 7 - * + @ > 6 4 ",
"* * * - * % * * * = * @ * * * : : * * % @ @ o + o + @ % @ @ % & % * * % $ % $ $ % % * * * + X X O O $ * - * - - * @ X O O + * % ",
"9 e w w w w u u a a a j v s y u y y p w 6 > @ o o % , 8 6 6 8 6 8 8 q t w 9 8 8 8 8 8 8 6 , % o X @ , w t w w w 9 , % + @ = 4 < ",
"v n N n v n n N N N N G P L G F N N F n s 3 % + - 1 t N D F M M M D K L I I I L L I I I L v , @ o $ , n L S N G n y : $ * , w t ",
"G N b n n b m N A A N m A A P P P P / P s 1 + & 3 t N  .E T H G P G L J P / P / ` ` ....&.P 9 > @ @ , P J J J A L v 5 & ; q k j ",
"N A C N G Z H G G N A Z N A G P P P P P p < + = q s _ _ H Z C A A Z A P P P P / _ ` ` ` @.` s < $ @ 3 P P P L P A S y $ $ w k y ",
"G G H G A G G H G H H H H G G P P P ~ ~ a > + & w j _ ) H H G P P P E / ) ~ ) _ _ _ ] } @.@.b < $ $ q _ _ _ ~ ~ ~ P p + % w z p ",
"H H H H C A C A G H H H P P P ) U / ^ _ u > + ; w k E ) ) ) _ / P P ~ / _ _ ~ / _ ` ` @.} } V < & @ w { ` _ _ ) _ _ s # % w v j ",
"H H T H H H H H P P P P T P P ) / ~ / _ a > + ; y n _ { @.` _ P P P ~ / ` ) ~ ) _ ` ` ] ^ ` S 8 & $ w @.} ` { ` _ } d # & w n j ",
"c C ~ ~ ) H H ) ) P P ~ P H P P / _ ` ~ d ; + : p n { _ _ ) ^ ) _ ) / / ~ ) _ _ _ ` ` ` ..` S w & # w } @.@.` } } ` u % & 3 a w ",
"6 w r u r r a d d d a d x b b m v g i 9 : O + > p N { _ _ ) _ _ _ _ _ ~ _ _ ` _ _ _ _ _ _ } S w & + & w v B A b 9 , & . # ; > > ",
"@ % + % $ + O + + + + + + + + + @ % + O   + O > w n ` ` _ _ ^ _ _ / / / ` _ _ / ^ ~ _ ` ` ` A e ; + O . .   O O + . . . O O + + ",
"@ + > 2 w s v D K K D K K K K K D D n q % o + & y N ` { ` _ ~ ~ ~ ~ / _ _ ( _ ^ P P ) _ ` _ V w ; + + : < 1 1 1 2 3 3 6 6 3 > & ",
"* % p D E >.y.q.9.9.,.9.t.t.t.t.t.t.>.L w + + : w N ..] _ ^ ~ P / ` ` ` ( _ _ ) ~ ~ P ) _ ^ b r > + , p k N N n M N n n n n j q ",
": $ y T &.2.-.#.#.#.] } #.-.-.2.2.3.-._ k * + & y F { { ` _ ~ ~ ^ ` ` ` ` ( _ ) ~ / P ~ _ ^ B u ; + > p G A x N G G G L L G m q ",
"* $ t / *.-.%.#.#.#.#.#.@.-.-.-.2.-.8.2.P q $ * y N { ` ` ` _ ~ / ` ` { ` ` ( _ / P P ~ ` _ A u : + < y v x x n b m C A G N x 6 ",
"& $ q T @.-.%.%.#.*.-.-.*.-.2.8.2.;.3.=.S x * & w N @.` { ` ` ` ` ` { ` } } ` ^ / ~ ~ / ` _ A i - + 2 s N N N b n m m m m m v 6 ",
"& $ 3 N @.-.=.*.=.-.7.-.*.*.-.2.3.3.6.| ~ a @ $ 3 s @.{ ` { ` ` ` ` ` { @.} ] ) / / ` ` { ( A i : + < s x b G G N b m m m m v 6 ",
"* $ < n ` *.*.*.2.2.*.2.*.*.2.2.2.3.3.=.^ w + @ < q P @.` ` ] ` ..} @.@.@.] @.#.$.$.#.$.#.J b e = O ; t s k N N b v m v m m d > ",
"& # 2 n _ $.2.2.2.2.%.=.-.-.*.2.2.2.2.| S 6 $ @ & < e C _ ` _ _ _ ( / ^ ( ( ] @.} ` ^ S A i 7 * # + & 2 d s x v m x m m m m 0 : ",
"$ + > d C ^ @.2.%.%.*.2.2.=.*.-.2.2.=.S e > @ + $ & > > 5 6 5 6 6 6 6 4 6 7 9 9 9 9 5 5 > , & # . + % > u a s d x k c m x d 6 ; ",
"+ + # < w i i f g h b b c g g a i r 0 5 * % + o O + # $ $ # $ # $ $ $ $ # # $ + @ # + + # % . O O O + + $ * * * > > > : & $ # + ",
"% % % # & % % + + @ % + + + # O O @ @ @ + $ * & & = = : & & & + O + O + # % & & & & % % % % & % % % @ @ @ # % + O O O O . . O O ",
"j l j j p p y t t 8 8 6 3 3 > % O O O $ 5 v  .O.X. .Q Q W R p : O O & q j D R Q W W R I K K N N N F A L F N M d > @ O + O @ * < ",
"K R R Q Q Q  ...E v l j y t 3 * + O & 6 n T ..9.9.w.7.:.&.$.I y = @ < w n W >.q.9.q.w.7.:.*.&.&.:.:.2.,.:...[ E j : $ O + 2 j j ",
"E E ` [ ..$.@.$.$...[ I D l 8 * $ + 3 j T ..:.7.0.7.0.y.w.,...L 6 $ q j F ..0.y.y.y.e.i.y.0.2.7.7.2.7.0.w.:...[ b < $ @ * y n M ",
"&.{ ~ ~ { $.$.@.@.@.` ../ v y : % ; y D ..:.:.4.7.4.0.0.4.w.9.P y $ < j T *.*.0.p.u.2.=.2.=.2.%.| } | *.2.0.$.` P y ; + 3 l N L ",
"@.^ ` ` @.$.$.*.$.{ / ^ $.P s > % : j W :.7.0.3.2.;.;.$.#.*.u.[ w $ > j T #.*.8.=.} ] ( ^ ^ ! ^ ~ J ! ~ ^ } 0.@._ G 2 $ , y k G ",
"~ ..@.` ` _ } @.} _ J S _ _ j < % & j E 2.w.3.2.%.%.$.*.*.*.7.$.3 $ < j T #.*.7.] ^ _ ^ ! J J J S A J / ` ` :.7.../ w & > y j m ",
"G / ~ H S P ~ / P S A A m P x 2 & & u N $.$.| ] ] } ` } @...*.) : $ > y P [ @.` ~ ~ P S S S V b b C b A P / ^ %...L 2 & > w k m "
};
