/* XPM */
static char *result[] = {
/* columns rows colors chars-per-pixel */
"64 64 222 2 ",
"   c black",
".  c #090803",
"X  c #0C0B04",
"o  c #300409",
"O  c #30050A",
"+  c #2E0E1B",
"@  c #330E17",
"#  c #310F1D",
"$  c #30101B",
"%  c #32111C",
"&  c #32101D",
"*  c #34121E",
"=  c #35131E",
"-  c #35131F",
";  c #35141F",
":  c #29260E",
">  c #2A270F",
",  c #3C2707",
"<  c #3E2608",
"1  c #2E2A10",
"2  c #312D11",
"3  c #322E11",
"4  c #332F12",
"5  c #363113",
"6  c #363213",
"7  c #373213",
"8  c #333410",
"9  c #343410",
"0  c #353510",
"q  c #363611",
"w  c #373512",
"e  c #3D3111",
"r  c #3C3310",
"t  c #383612",
"y  c #393713",
"u  c #3C3410",
"i  c #3B3614",
"p  c #3B3913",
"a  c #3B3914",
"s  c #3C3914",
"d  c #3D3815",
"f  c #3C3A14",
"g  c #3C3B16",
"h  c #3E3A16",
"j  c #3F3A16",
"k  c #412809",
"l  c #413512",
"z  c #403A16",
"x  c #403B16",
"c  c #503524",
"v  c #513624",
"b  c #543726",
"n  c #563826",
"m  c #563A26",
"M  c #563B26",
"N  c #602336",
"B  c #642637",
"V  c #686423",
"C  c #6D6426",
"Z  c #6E6426",
"A  c #6E6726",
"S  c #706627",
"D  c #716727",
"F  c #726828",
"G  c #A61922",
"H  c #A61B23",
"J  c #DC191C",
"K  c #DF2229",
"L  c #E0262F",
"P  c #E3272F",
"I  c #E02730",
"U  c #E32730",
"Y  c #E52730",
"T  c #E42731",
"R  c #C47A19",
"E  c #C47A1A",
"W  c #C67A1A",
"Q  c #C77B1A",
"!  c #AF384E",
"~  c #AF394E",
"^  c #E43544",
"/  c #E53544",
"(  c #E53645",
")  c #E83544",
"_  c #E83645",
"`  c #91404E",
"'  c #93414E",
"]  c #96434F",
"[  c #974550",
"{  c #B24762",
"}  c #B34762",
"|  c #B44763",
" . c #B44863",
".. c #B44964",
"X. c #B44965",
"o. c #B64864",
"O. c #B74865",
"+. c #B44A65",
"@. c #B54A66",
"#. c #E84053",
"$. c #C44F6B",
"%. c #C74F6D",
"&. c #C9516E",
"*. c #EC4F68",
"=. c #EC4F69",
"-. c #EC5069",
";. c #ED506A",
":. c #ED516B",
">. c #EE546F",
",. c #F0506A",
"<. c #F2516B",
"1. c #F0526C",
"2. c #F2526C",
"3. c #EE5570",
"4. c #EE5571",
"5. c #EE5671",
"6. c #EE5672",
"7. c #E65E7D",
"8. c #E65E7E",
"9. c #E85E7F",
"0. c #F15571",
"q. c #F35672",
"w. c #F25773",
"e. c #F35773",
"r. c #F15E7E",
"t. c #908332",
"y. c #918533",
"u. c #988737",
"i. c #958834",
"p. c #968935",
"a. c #988B35",
"s. c #9B8838",
"d. c #9B8A38",
"f. c #9D8939",
"g. c #C6A137",
"h. c #C4A236",
"j. c #C7A337",
"k. c #BEAF42",
"l. c #BFAE43",
"z. c #BFAF43",
"x. c #BFB142",
"c. c #BFB243",
"v. c #C0B142",
"b. c #C0B242",
"n. c #C1B342",
"m. c #C2B343",
"M. c #C3B443",
"N. c #C3B244",
"B. c #C4B344",
"V. c #C2B544",
"C. c #C4B544",
"Z. c #C5B445",
"A. c #C4B645",
"S. c #C4B745",
"D. c #C6B646",
"F. c #C7B747",
"G. c #C9B846",
"H. c #D1BF49",
"J. c #D4C24A",
"K. c #D5C24A",
"L. c #D5C34A",
"P. c #D6C44B",
"I. c #D7C44B",
"U. c #D6C64A",
"Y. c #D7C64C",
"T. c #D8C54B",
"R. c #D8C64B",
"E. c #D9C74B",
"W. c #D9C64C",
"Q. c #F3DE55",
"!. c #F6E156",
"~. c #F9E558",
"^. c #FDE758",
"/. c #FDE858",
"(. c #FEE958",
"). c #FEE859",
"_. c #FFEC5A",
"`. c #FFEE5B",
"'. c #FFEF5B",
"]. c #FFF05C",
"[. c #FFF15C",
"{. c #FFF25C",
"}. c #FFF25D",
"|. c #FFF35D",
" X c #FFF45D",
".X c #FFF55D",
"XX c #FFF55E",
"oX c #F16080",
"OX c #F26282",
"+X c #F66080",
"@X c #F76283",
"#X c #F26384",
"$X c #F36384",
"%X c #F26485",
"&X c #F36485",
"*X c #F26486",
"=X c #F26587",
"-X c #F36587",
";X c #F46485",
":X c #F56485",
">X c #F46586",
",X c #F66486",
"<X c #F66586",
"1X c #F76586",
"2X c #F76587",
"3X c #F86587",
"4X c #F36688",
"5X c #F56688",
"6X c #F66688",
"7X c #F76688",
"8X c #F66689",
"9X c #F6678A",
"0X c #F86688",
"qX c #F86689",
"wX c #F86789",
"eX c #FB6789",
"rX c #F8678A",
"tX c #FC678A",
"yX c #F7688B",
"uX c #F8688A",
"iX c #F9688B",
"pX c None",
/* pixels */
"pXpXpXpXpXpXpXpXpXpXpXpXpXpXpXpXpXpXpXpXpXpXpXpXpXpXpXpXpXpXpXpXpXpXpXpXpXpXpXpXpXpXpXpXpXpXpXpXpXpXpXpXpXpXpXpXpXpXpXpXpXpXpXpX",
"pXpXpXpXpXpXpXpXpXpXpXpXpXpXpXpXpXpXpXpXpXpXpXpXpXpXpXpXpXpXpXpXpXpXpXpXpXpXpXpXpXpXpXpXpXpXpXpXpXpXpXpXpXpXpXpXpXpXpXpXpXpXpXpX",
"pXpXpXpXpXpXpXpXpXpXpXpXpXpXpXpXpXpXpXpXpXpXpXpXpXpXpXpXpXpXpXpXpXpXpXpXpXpXpXpXpXpXpXpXpXpXpXpXpXpXpXpXpXpXpXpXpXpXpXpXpXpXpXpX",
"pXpXpXpXpXpXpXpXpXpXpXpXpXpXpXpXpXpXpXpXpXpXpXpXpXpXpXpXpXpXpXpXpXpXpXpXpXpXpXpXpXpXpXpXpXpXpXpXpXpXpXpXpXpXpXpXpXpXpXpXpXpXpXpX",
"pXpXpXpXpXpXpXpXpXpXpXpXpXpXpXpXpXpXpXpXpXpXpXpXpXpXpXpXpXpXpXpXpXpXpXpXpXpXpXpXpXpXpXpXpXpXpXpXpXpXpXpXpXpXpXpXpXpXpXpXpXpXpXpX",
"pXpXpXpXpXpXpXpXpXpXpXpXpXpXpXpXpXpXpXpXpXpXpXpXpXpXpXpXpXpXpXpXpXpXpXpXpXpXpXpXpXpXpXpXpXpXpXpXpXpXpXpXpXpXpXpXpXpXpXpXpXpXpXpX",
"pXpXpXpXpXpXpXpXpXpXpXpXpXpXpXpXpXpXpXpXpXpXpXpXpXpXpXpXpXpXpXpXpXpXpXpXpXpXpXpXpXpXpXpXpXpXpXpXpXpXpXpXpXpXpXpXpXpXpXpXpXpXpXpX",
"pXpXpXpXpXpXpXpXpXpXpXpXpXpXpXpXpXpXpXpXpXpXpXpXpXpXpXpXpXpXpXpXpXpXpXpXpXpXpXpXpXpXpXpXpXpXpXpXpXpXpXpXpXpXpXpXpXpXpXpXpXpXpXpX",
"pXpXpXpXpXpXpXpXpXpXpXpXpXpXpXpXpXpXpXpXpXpXpXpXpXpXpXpXpXpXpXpXpXpXpXpXpXpXpXpXpXpXpXpXpXpXpXpXpXpXpXpXpXpXpXpXpXpXpXpXpXpXpXpX",
"pXpXpXpXpXpXpXpXpXpXpXpXpXpXpXpXpXpXpXpXpXpXpXpXpXpXpXpXpXpXpXpXpXpXpXpXpXpXpXpXpXpXpXpXpXpXpXpXpXpXpXpXpXpXpXpXpXpXpXpXpXpXpXpX",
"pXpXpXpXpXpXpXpXpXpXpXpXpXpXpXpXpXpXpXpXpXpXpXpXpXpXpXpXpXpXpXpXpXpXpXpXpXpXpXpXpXpXpXpXpXpXpXpXpXpXpXpXpXpXpXpXpXpXpXpXpXpXpXpX",
"pXpXpXpXpXpXpXpXpXpXpXpXpXpXpXpXpXpXpXpXpXpXpXpXpXpXpXpXpXpXpXpXpXpXpXpXpXpXpXpXpXpXpXpXpXpXpXpXpXpXpXpXpXpXpXpXpXpXpXpXpXpXpXpX",
"pXpXpXpXpXpXpXpXpXpXpXpXpXpXpXpXpXpXpXpXpXpX                                    pXpXpXpXpXpXpXpXpXpXpXpXpXpXpXpXpXpXpXpXpXpXpXpX",
"pXpXpXpXpXpXpXpXpXpXpXpXpXpXpXpXpXpXpXpXpXpX7 d j z z z z z z z z z z z z j d 7 pXpXpXpXpXpXpXpXpXpXpXpXpXpXpXpXpXpXpXpXpXpXpXpX",
"pXpXpXpXpXpXpXpXpXpXpXpXpXpXpXpXpXpX      4 a.B.Z.Z.Z.Z.Z.Z.Z.Z.Z.Z.Z.Z.Z.Z.B.a.4       pXpXpXpXpXpXpXpXpXpXpXpXpXpXpXpXpXpXpXpX",
"pXpXpXpXpXpXpXpXpXpXpXpXpXpXpXpXpXpX6 i i D W./.R.m.M.C.C.C.A.A.C.C.C.M.m.R./.W.D i i 6 pXpXpXpXpXpXpXpXpXpXpXpXpXpXpXpXpXpXpXpX",
"pXpXpXpXpXpXpXpXpXpXpXpXpXpXpXpX  3 p.N.B.T.^.E.A w y s s f g g f s s y w A E.^.T.B.N.p.3   pXpXpXpXpXpXpXpXpXpXpXpXpXpXpXpXpXpX",
"pXpXpXpXpXpXpXpXpXpXpXpXpXpXpXpX2 C I./.R.M.m.f.n # & = = @ o o @ = = & # n f.m.M.R./.I.C 2 pXpXpXpXpXpXpXpXpXpXpXpXpXpXpXpXpXpX",
"pXpXpXpXpXpXpXpXpXpXpXpXpXpX  2 i.I.^.E.A 9 8 m ] O.o...X.~ G G ~ X...o.O.] m 8 9 A E.^.I.i.2   pXpXpXpXpXpXpXpXpXpXpXpXpXpXpXpX",
"pXpXpXpXpXpXpXpXpXpXpXpXpXpX2 C I.(.U.s.b + + B &.tXeXqXrX<.Y Y <.rXqXeXtX&.B + + b s.U.(.I.C 2 pXpXpXpXpXpXpXpXpXpXpXpXpXpXpXpX",
"pXpXpXpXpXpXpXpXpXpXpXpX  2 i.I.).U.V v ' o.| $.7.2X1X6X8X,.P P ,.8X6X1X2X7.$.| o.' v V U.).I.i.2   pXpXpXpXpXpXpXpXpXpXpXpXpXpX",
"pXpXpXpXpXpXpXpXpXpXpXpX2 C I.(.U.u.c N %.tXeX<X&X#X#X*X-X*.L L *.-X*X#X#X&X<XeXtX%.N c u.U.(.I.C 2 pXpXpXpXpXpXpXpXpXpXpXpXpXpX",
"pXpXpXpXpXpXpXpXpXpX  2 i.I.).U.V c ` %.9.2X2X:X$X#X#X*X-X*.L L *.-X*X#X#X$X:X2X2X9.%.` c V U.).I.i.2   pXpXpXpXpXpXpXpXpXpXpXpX",
"pXpXpXpXpXpXpXpXpXpX3 C I.(.U.u.c N %.eX<X#X#X#X#X#X#X*X-X*.L L *.-X*X#X#X#X#X#X#X<XeX%.N c u.U.(.I.C 3 pXpXpXpXpXpXpXpXpXpXpXpX",
"pXpXpXpXpXpXpXpX  6 p.I.^.U.V c ` %.9.<X;X#X#X#X#X#X#X*X-X*.L L *.-X*X#X#X#X#X#X#X;X<X9.%.` c V U.^.I.p.6   pXpXpXpXpXpXpXpXpXpX",
"pXpXpXpXpXpXpXpX  i N./.E.s.v N %.eX<X#X#X#X#X#X#X#X#X*X-X*.L L *.-X*X#X#X#X#X#X#X#X#X<XeX%.N v s.E./.N.i   pXpXpXpXpXpXpXpXpXpX",
"pXpXpXpXpXpXpXpX  i B.R.A b ' %.9.<X;X#X#X#X#X#X#X#X#X*X-X*.L L *.-X*X#X#X#X#X#X#X#X#X;X<X9.%.' b A R.B.i   pXpXpXpXpXpXpXpXpXpX",
"pXpXpXpXpXpXpXpX4 D T.M.9 + o.tX2X#X#X#X#X$X:X,X,X,X,X6X8X,.P P ,.8X6X,X,X,X,X:X$X#X#X#X#X2XtXo.+ 9 M.T.D 4 pXpXpXpXpXpXpXpXpXpX",
"pXpXpXpXpXpX  7 a.W.^.m.8 + | eX2X#X#X#X#X&X<X3X3X3X3XqXrX<.Y Y <.rXqX3X3X3X3X<X&X#X#X#X#X2XeX| + 8 m.^.W.a.7   pXpXpXpXpXpXpXpX",
"pXpXpXpXpXpX  d B./.E.f.m B $.<X:X#X#X;X<X8.$.{ }  . ...X.~ H H ~ X... . .} { $.8.<X;X#X#X:X<X$.B m f.E./.B.d   pXpXpXpXpXpXpXpX",
"pXpXpXpXpXpX  j Z.R.A n ] &.7.&X$X#X#X<XeX&.B $ % * * = = @ O O @ = = * * % $ B &.eX<X#X#X$X&X7.&.] n A R.Z.j   pXpXpXpXpXpXpXpX",
"pXpXpXpXpXpX  z Z.m.w # O.tX2X#X#X$X&X8.&.[ M 0 q t t y a u , , u a y t t q 0 M [ &.8.&X$X#X#X2XtXO.# w m.Z.z   pXpXpXpXpXpXpXpX",
"pXpXpXpXpXpX  z Z.M.y & o.eX1X#X#X:X<X$.B M d.n.b.k.k.c.V.h.E E h.V.c.k.k.b.n.d.M B $.<X:X#X#X1XeXo.& y M.Z.z   pXpXpXpXpXpXpXpX",
"pXpXpXpXpXpX  z Z.C.s *  .3X,X#X#X,X3X{ $ 0 n. X{.].}.~.Y.g.W W g.Y.~.}.].{. Xn.0 $ { 3X,X#X#X,X3X .* s C.Z.z   pXpXpXpXpXpXpXpX",
"pXpXpXpXpXpX  z Z.C.s *  .3X,X#X#X,X3X} % q b.{.].].XXW.F e < < e F W.XX].].{.b.q % } 3X,X#X#X,X3X .* s C.Z.z   pXpXpXpXpXpXpXpX",
"pXpXpXpXpXpX  z Z.C.s *  .3X,X#X#X,X3X .* t k.'.`.Q.L.t.:         : t.L.Q.`.'.k.t *  .3X,X#X#X,X3X .* s C.Z.z   pXpXpXpXpXpXpXpX",
"pXpXpXpXpXpX  z Z.C.s *  .3X,X#X#X,X3X .* t k.[.[.H.Z : .         . : Z H.[.[.k.t *  .3X,X#X#X,X3X .* s C.Z.z   pXpXpXpXpXpXpXpX",
"pXpXpXpXpXpX  z Z.C.s *  .3X,X#X#X,X3X .* t k.{.{.l.5                 5 l.{.{.k.t *  .3X,X#X#X,X3X .* s C.Z.z   pXpXpXpXpXpXpXpX",
"pXpXpXpXpXpX  z Z.C.s *  .3X,X#X#X,X3X .* t k.{.{.l.5                 5 l.{.{.k.t *  .3X,X#X#X,X3X .* s C.Z.z   pXpXpXpXpXpXpXpX",
"pXpXpXpXpXpX  z Z.C.s *  .3X,X#X#X,X3X .* t k.[.[.H.Z > X         X > Z H.[.[.k.t *  .3X,X#X#X,X3X .* s C.Z.z   pXpXpXpXpXpXpXpX",
"pXpXpXpXpXpX  z Z.C.s *  .3X,X#X#X,X3X .* t k.'.`.Q.K.y.1         1 y.K.Q.`.'.k.t *  .3X,X#X#X,X3X .* s C.Z.z   pXpXpXpXpXpXpXpX",
"pXpXpXpXpXpX  z Z.C.s *  .3X,X#X#X,X3X .* t k.`._.'.XXG.x         x G.XX'._.`.k.t *  .3X,X#X#X,X3X .* s C.Z.z   pXpXpXpXpXpXpXpX",
"pXpXpXpXpXpX  z Z.C.s *  .3X,X#X#X,X3X .* t k.`._.'.XXG.x         x G.XX'._.`.k.t *  .3X,X#X#X,X3X .* s C.Z.z   pXpXpXpXpXpXpXpX",
"pXpXpXpXpXpX  z Z.C.s *  .3X,X#X#X,X3X .* t k.'.`.Q.K.y.1         1 y.K.Q.`.'.k.t *  .3X,X#X#X,X3X .* s C.Z.z   pXpXpXpXpXpXpXpX",
"pXpXpXpXpXpX  z Z.C.s *  .3X,X#X#X,X3X .* t k.[.[.H.Z > X         X > Z H.[.[.k.t *  .3X,X#X#X,X3X .* s C.Z.z   pXpXpXpXpXpXpXpX",
"pXpXpXpXpXpX  z Z.C.s *  .3X,X#X#X,X3X .* t k.{.{.z.5                 5 z.{.{.k.t *  .3X,X#X#X,X3X .* s C.Z.z   pXpXpXpXpXpXpXpX",
"pXpXpXpXpXpX  z Z.C.s *  .3X,X#X#X,X3X .* t k.{.{.z.5                 5 z.{.{.k.t *  .3X,X#X#X,X3X .* s C.Z.z   pXpXpXpXpXpXpXpX",
"pXpXpXpXpXpX  z Z.C.s *  .3X,X#X#X,X3X} % q b..X XJ.S d h l k k l h d S J. X.Xb.q % } 3X,X#X#X,X3X .* s C.Z.z   pXpXpXpXpXpXpXpX",
"pXpXpXpXpXpX  z Z.C.s *  .3X,X#X#X,X3X{ $ 0 n.XX|.!.P.D.F.j.Q Q j.F.D.P.!.|.XXn.0 $ { 3X,X#X#X,X3X .* s C.Z.z   pXpXpXpXpXpXpXpX",
"pXpXpXpXpXpX  z Z.C.s *  .3X,X#X#X:X<X$.B M d.n.v.x.m.A.S.h.R R h.S.A.m.x.v.n.d.M B $.<X:X#X#X,X3X .* s C.Z.z   pXpXpXpXpXpXpXpX",
"pXpXpXpXpXpX  z Z.C.s *  .3X,X#X#X$X&X8.&.[ M 0 q y p f f r , , r f f p y q 0 M [ &.8.&X$X#X#X,X3X .* s C.Z.z   pXpXpXpXpXpXpXpX",
"pXpXpXpXpXpX  z Z.C.s *  .3X,X#X#X#X#X<XeX&.B $ % * * = = @ O O @ = = * * % $ B &.eX<X#X#X#X#X,X3X .* s C.Z.z   pXpXpXpXpXpXpXpX",
"pXpXpXpXpXpX  z Z.C.s *  .3X,X#X#X#X#X;X<X8.$.{ }  . ...X.~ H H ~ X... . .} { $.8.<X;X#X#X#X#X,X3X .* s C.Z.z   pXpXpXpXpXpXpXpX",
"pXpXpXpXpXpX  z Z.C.s = ..qX6X*X*X*X*X*X*X>X7XwXwXqXqXuXiX2.Y Y 2.iXuXqXqXwXwX7X>X*X*X*X*X*X*X6XqX..= s C.Z.z   pXpXpXpXpXpXpXpX",
"pXpXpXpXpXpX  z Z.C.s = X.rX8X-X-X-X-X=X=X-X5X8X8X8X8X9XyX1.U U 1.yX9X8X8X8X8X5X-X=X=X-X-X-X-X8XrXX.= s C.Z.z   pXpXpXpXpXpXpXpX",
"pXpXpXpXpXpX  z Z.C.f @ ~ <.,.*.*.*.*.*.*.*.*.*.*.*.*.-.;.#.K K #.;.-.*.*.*.*.*.*.*.*.*.*.*.*.,.<.~ @ f C.Z.z   pXpXpXpXpXpXpXpX",
"pXpXpXpXpXpX  z Z.A.g o G Y P L L L L L L L L L L L L L L K J J K L L L L L L L L L L L L L L P Y G o g A.Z.z   pXpXpXpXpXpXpXpX",
"pXpXpXpXpXpX  z Z.A.g o G Y T I L L I I L L I I L L I I I K J J K I I I L L I I L L I I L L I T Y G o g A.Z.z   pXpXpXpXpXpXpXpX",
"pXpXpXpXpXpX  z Z.C.f @ ! <.1.;.=.=.;.;.=.=.;.;.=.=.;.:.:.#.K K #.:.:.;.=.=.;.;.=.=.;.;.=.=.;.1.<.! @ f C.Z.z   pXpXpXpXpXpXpXpX",
"pXpXpXpXpXpX  z Z.C.s - +.@Xw.5.oXoX5.5.oXoX5.5.oXoX5.6.OX:.I I :.OX6.5.oXoX5.5.oXoX5.5.oXoX5.w.@X+.- s C.Z.z   pXpXpXpXpXpXpXpX",
"pXpXpXpXpXpX  z Z.C.s ; @.e._ / 6.6./ / 6.6./ / 6.6./ ( 6.:.I I :.6.( / 6.6./ / 6.6./ / 6.6./ _ e.@.; s C.Z.z   pXpXpXpXpXpXpXpX",
"pXpXpXpXpXpX  z Z.C.s - X.q.) ^ 3.3.^ ^ 3.3.^ ^ 3.3.^ ^ 4.;.I I ;.4.^ ^ 3.3.^ ^ 3.3.^ ^ 3.3.^ ) q.X.- s C.Z.z   pXpXpXpXpXpXpXpX",
"pXpXpXpXpXpX  z Z.C.s =  .+X0.>.r.r.>.>.r.r.>.>.r.r.>.3.oX=.L L =.oX3.>.r.r.>.>.r.r.>.>.r.r.>.0.+X .= s C.Z.z   pXpXpXpXpXpXpXpX",
"pXpXpXpXpXpX  z Z.C.s *  .0X8X-X%X%X-X-X%X%X-X-X%X%X-X4X-X*.L L *.-X4X-X%X%X-X-X%X%X-X-X%X%X-X8X0X .* s C.Z.z   pXpXpXpXpXpXpXpX"
};
