/* XPM */
static char *result[] = {
/* columns rows colors chars-per-pixel */
"32 32 188 2 ",
"   c black",
".  c gray1",
"X  c #040000",
"o  c #050000",
"O  c #060000",
"+  c #010404",
"@  c #020404",
"#  c #0D0000",
"$  c #0E0000",
"%  c #090B0B",
"&  c gray4",
"*  c #090C0C",
"=  c #0C0E0E",
"-  c #0D0E0E",
";  c #120000",
":  c #140000",
">  c #150000",
",  c #160000",
"<  c #180000",
"1  c #1D0000",
"2  c #111111",
"3  c gray8",
"4  c #151515",
"5  c #161616",
"6  c #181818",
"7  c #191919",
"8  c #181A1A",
"9  c #1A1E1E",
"0  c #200000",
"q  c #210000",
"w  c #220000",
"e  c #230000",
"r  c #240000",
"t  c #2A0000",
"y  c #3D0000",
"u  c #2B1717",
"i  c #232323",
"p  c #252525",
"a  c #272727",
"s  c #282828",
"d  c gray16",
"f  c #303232",
"g  c gray20",
"h  c #343434",
"j  c #353535",
"k  c gray21",
"l  c #393939",
"z  c #440000",
"x  c #4B0000",
"c  c #5D0000",
"v  c #660000",
"b  c #680000",
"n  c #690000",
"m  c #6A0000",
"M  c #700000",
"N  c #710000",
"B  c #730000",
"V  c #740000",
"C  c #750000",
"Z  c #7C0000",
"A  c #7D0000",
"S  c #7E0000",
"D  c #7F0000",
"F  c #7E0F0F",
"G  c #412222",
"H  c #434343",
"J  c #494949",
"K  c gray31",
"L  c #585858",
"P  c #764646",
"I  c gray39",
"U  c #646464",
"Y  c #656565",
"T  c gray40",
"R  c #666767",
"E  c #656868",
"W  c #6C6C6C",
"Q  c gray43",
"!  c #777777",
"~  c gray47",
"^  c #7E7E7E",
"/  c gray50",
"(  c #820000",
")  c #860000",
"_  c #920000",
"`  c #970202",
"'  c #980000",
"]  c #990000",
"[  c #9A0404",
"{  c #A00000",
"}  c #A20000",
"|  c #A80000",
" . c #B70000",
".. c #B80000",
"X. c #B90000",
"o. c #BA0000",
"O. c #832B2B",
"+. c #C20000",
"@. c #C30000",
"#. c #C50404",
"$. c #CB0000",
"%. c #CE0000",
"&. c #D40000",
"*. c #D60000",
"=. c #D70000",
"-. c #D90000",
";. c #DA0000",
":. c #DC0000",
">. c #E20000",
",. c #E30000",
"<. c #E50000",
"1. c #E70000",
"2. c #E80000",
"3. c #E90000",
"4. c #EF0000",
"5. c #F50000",
"6. c #F80000",
"7. c #FD0000",
"8. c red",
"9. c #FF0101",
"0. c #FF0303",
"q. c #FF0404",
"w. c #FF0606",
"e. c #FF0707",
"r. c #817171",
"t. c #C44343",
"y. c #FE4444",
"u. c #FF5656",
"i. c #E26C6C",
"p. c #FF6464",
"a. c #FF6666",
"s. c #FF6A6A",
"d. c #FF7777",
"f. c #FF7878",
"g. c #818282",
"h. c #8B8B8B",
"j. c #8D8D8D",
"k. c gray58",
"l. c gray64",
"z. c #A4A4A4",
"x. c #A5A5A5",
"c. c #AAAAAA",
"v. c gray69",
"b. c #B2B2B2",
"n. c gray",
"m. c #FF8F8F",
"M. c #FF9292",
"N. c #FE9595",
"B. c #FF9696",
"V. c #FF9999",
"C. c #FFA1A1",
"Z. c #FFA9A9",
"A. c #FFAAAA",
"S. c #FFBBBB",
"D. c #FFBEBE",
"F. c #C1C1C1",
"G. c gray78",
"H. c gray79",
"J. c #CBC8C8",
"K. c #CBCBCB",
"L. c gray80",
"P. c #D0D0D0",
"I. c LightGray",
"U. c #D8D8D8",
"Y. c gray85",
"T. c #DDDDDD",
"R. c #DFDFDF",
"E. c #FECECE",
"W. c #FED0D0",
"Q. c #FFDADA",
"!. c #FFDBDB",
"~. c #E4E5E5",
"^. c gray91",
"/. c #E9E9E9",
"(. c #EAEAEA",
"). c gray92",
"_. c #ECECEC",
"`. c #F1F1F1",
"'. c #F3F3F3",
"]. c gray96",
"[. c #F6F6F6",
"{. c #F9F9F9",
"}. c #FBFBFB",
"|. c #FDFFFF",
" X c #FEFEFE",
".X c #FEFFFF",
"XX c white",
"oX c None",
/* pixels */
"oXoXoXoXoXoXoXoXoXoXoXoXoXoXoXoXoXoXoXoXoXoXoXoXoXoXoXoXoXoXoXoX",
"oXoXoXoXoXoXoXoXoXoXoXoXoXoXoXoXoXoXoXoXoXoXoXoXoXoXoXoXoXoXoXoX",
"oXoXoXoXoXoXoXoXoXoXoXoXoXoXoXoXoXoXoXoXoXoXoXoXoXoXoXoXoXoXoXoX",
"oXoXoXoXoXoXoXoXoXoXoXoXoXoXoXoXoXoXoXoXoXoXoXoXoXoXoXoXoXoXoXoX",
"oXoXoXoXoXoXoXoXoXoXoXoX                  oXoXoXoXoXoXoXoXoXoXoX",
"oXoXoXoXoXoXoXoXoXoXoXoX: > > > > > > > > oXoXoXoXoXoXoXoXoXoXoX",
"oXoXoXoXoXoXoXoXoX      ) =.&.&.&.&.&.*.+.e       oXoXoXoXoXoXoX",
"oXoXoXoXoXoXoXoXO O O o [ e.q.8.8.8.8.8.2.t X O O oXoXoXoXoXoXoX",
"oXoXoXoXoXoX    m o... .i.D.s.8.8.8.8.8.6.+. .X.} ,   oXoXoXoXoX",
"oXoXoXoXoXoX    D 8.9.8.V.XXB.8.9.8.8.8.8.8.8.8.-.,   oXoXoXoXoX",
"oXoXoXoXoXoX    S 8.a.A.!.XXQ.Z.d.q.8.8.8.8.8.8.=.,   oXoXoXoXoX",
"oXoXoXoXoXoX    Z 8.C.XXXXXXXXXXS.w.8.8.8.8.8.8.*.;   oXoXoXoXoX",
"oXoXoXoXoX> m M ..8.u.m.W..XE.m.p.0.8.8.8.8.8.8.3.S N z oXoXoXoX",
"oXoXoXoX  < ;.8.8.8.8.8.N.|.M.8.8.8.8.8.8.8.8.8.8.8.8.v     oXoX",
"oXoXoXoX  < -.8.8.8.8.8.y.f.t.V C B { 7.8.8.8.8.8.8.8.v     oXoX",
"oXoXoXoX  < :.8.8.8.8.8.8.8._       x 8.8.8.8.8.8.8.8.b     oXoX",
"oXoXoXoX  $ ( ] $.8.8.8.@.' O.R T E P ` | 5.8.8.4.} ] y     oXoX",
"oXoXoXoX        A 8.8.8.n   W XXXXXXv.+ r 1.8.8.=.:         oXoX",
"oXoXoXoX  . 7 9 F <.>.,.c   W XXXXXXv.@ q %.1.2.#.u 8 &     oXoX",
"oXoXoXoX  4 n.~.r.1 0 0 #   W XXXXXXv.. X 0 r w G J.T.L     oXoX",
"oXoXoXoX  6 P.{.g.% = = - & Q '.`.].c.2 - = = * f R.[.Y     oXoX",
"oXoXoXoXoXoXh h / K.H.H.H.L.h.j k g U G.H.H.H.K.b.H j d oXoXoXoX",
"oXoXoXoXoXoX    ^ XXXXXXXXXXk.      K  XXXXXXXXXY.3   oXoXoXoXoX",
"oXoXoXoXoXoX    ^ XXXXXXXXXXY.z.x.l.F. XXXXXXXXXU.5   oXoXoXoXoX",
"oXoXoXoXoXoX    ~ _./.^.'.XXXXXXXXXXXXXX}.(./.).G.5   oXoXoXoXoX",
"oXoXoXoXoXoXoXoXi d s p j.XXXXXXXXXXXXXXY.l a d a oXoXoXoXoXoXoX",
"oXoXoXoXoXoXoXoXoX      ! XXXXXXXXXXXXXXI.2       oXoXoXoXoXoXoX",
"oXoXoXoXoXoXoXoXoXoXoXoXJ W W W W W W W I oXoXoXoXoXoXoXoXoXoXoX",
"oXoXoXoXoXoXoXoXoXoXoXoXoX                oXoXoXoXoXoXoXoXoXoXoX",
"oXoXoXoXoXoXoXoXoXoXoXoXoX                oXoXoXoXoXoXoXoXoXoXoX",
"oXoXoXoXoXoXoXoXoXoXoXoXoXoXoXoXoXoXoXoXoXoXoXoXoXoXoXoXoXoXoXoX",
"oXoXoXoXoXoXoXoXoXoXoXoXoXoXoXoXoXoXoXoXoXoXoXoXoXoXoXoXoXoXoXoX"
};
